<svg width="216" height="122" fill="none" xmlns="http://www.w3.org/2000/svg"><g opacity=".5"><path opacity=".5" d="M135.933 17.73l-54.808-4.927c-3.464-.312-6.191 1.757-6.162 4.63l.015 1.651c.03 2.858 2.845 5.343 6.31 5.522l54.734 2.932c2.343.12 4.098-1.637 4.083-3.944l-.015-1.325c0-2.307-1.813-4.33-4.157-4.54z" fill="url(#paint0_linear)"/><path opacity=".5" d="M164.516 40.963c-.014-1.86-1.356-3.408-3.081-3.453l-38.533-1.16c-2.329-.075-4.231 1.666-4.216 3.87l.014 1.22c.015 2.202 1.961 3.988 4.29 3.988l38.49-.074c1.71 0 3.051-1.518 3.036-3.364v-1.027z" fill="url(#paint1_linear)"/><path opacity=".5" d="M156.998 69.852c-.015-1.905-1.504-3.334-3.331-3.17l-41.232 3.542c-2.506.209-4.57 2.248-4.54 4.525l.015 1.265c.014 2.277 2.108 3.9 4.599 3.602l41.202-4.867c1.828-.208 3.302-1.935 3.287-3.84v-1.057z" fill="url(#paint2_linear)"/><path opacity=".5" d="M123.227 52.721l-60.719 1.667c-3.862.104-7.002 2.65-6.973 5.67l.015 1.757c.03 3.022 3.214 5.269 7.076 5.03l60.69-3.869c2.565-.164 4.599-2.247 4.584-4.644l-.014-1.384c0-2.411-2.079-4.301-4.659-4.227z" fill="url(#paint3_linear)"/><path opacity=".5" d="M155.392 29.25c.015 1.34-1.017 2.381-2.3 2.322-1.297-.075-2.358-1.236-2.373-2.605-.015-1.37 1.047-2.411 2.344-2.307 1.282.074 2.314 1.25 2.329 2.59z" fill="url(#paint4_linear)"/><path opacity=".5" d="M63.937 78.693c.015 1.786-1.783 3.438-4.068 3.691-2.315.253-4.231-1.012-4.246-2.843-.015-1.83 1.858-3.482 4.172-3.706 2.285-.208 4.127 1.072 4.142 2.858z" fill="url(#paint5_linear)"/><path opacity=".5" d="M148.271 22.06c-1.577-.133-2.889-1.592-2.904-3.229-.014-1.637 1.283-2.828 2.86-2.664 1.563.179 2.83 1.622 2.83 3.23.015 1.607-1.223 2.798-2.786 2.664zm-.029-5.015c-1.106-.119-2.005.715-2.005 1.875.015 1.146.929 2.173 2.034 2.278 1.106.104 1.976-.745 1.976-1.876-.015-1.146-.914-2.158-2.005-2.277z" fill="url(#paint6_linear)"/><path opacity=".5" d="M61.755 41.47l-10.437-.016 5.248-7.07 5.19 7.085zm-8.609-.834l6.9.03-3.465-4.689-3.435 4.659z" fill="url(#paint7_linear)"/><path opacity=".5" d="M154.713 55.55l6.619-.656-2.89 6.043-3.729-5.388z" fill="url(#paint8_linear)"/></g><path d="M150.794 36.93c0-2.397-1.577-4.42-3.553-4.525L69.068 27.97c-.088 0-.177-.015-.28-.015a5.065 5.065 0 00-4.216 2.143c-.59.834-.914 1.86-.914 2.977v65.012c0 .372.015.729.089 1.086.014.09.03.179.044.253.088.343.206.655.368.953.649 1.265 1.858 2.158 3.302 2.441a5.332 5.332 0 001.622.059l61.28-7.308 16.878-2.024c1.976-.238 3.553-2.366 3.553-4.763V36.93z" fill="#B7C0CE"/><path d="M149.261 32.405L71.088 27.97c-3.007-.164-5.469 2.113-5.469 5.12v64.997c0 2.991 2.462 5.135 5.47 4.777l78.172-9.332c1.976-.238 3.568-2.366 3.568-4.748V36.93c-.015-2.397-1.592-4.42-3.568-4.525z" fill="#fff"/><path d="M71.088 101.153c-2.034.238-3.715-1.22-3.715-3.26V33.164c0-2.024 1.666-3.587 3.715-3.483l78.173 4.123c1.341.075 2.432 1.459 2.432 3.081v52.018c0 1.638-1.091 3.081-2.432 3.245l-78.173 9.005z" fill="#F4F7FA"/><path d="M149.261 32.405L71.088 27.97c-3.007-.164-5.469 2.113-5.469 5.12v3.9l87.21 3.05v-3.11c-.015-2.397-1.592-4.42-3.568-4.525z" fill="#D8DEE8"/><path d="M75.273 33c0 .953-.781 1.712-1.74 1.667a1.85 1.85 0 01-1.754-1.83c0-.968.782-1.712 1.755-1.667.958.06 1.739.863 1.739 1.83zm6.001.268c0 .953-.751 1.682-1.695 1.638a1.816 1.816 0 01-1.71-1.801c0-.953.767-1.682 1.71-1.637.944.06 1.695.863 1.695 1.8zm5.838.268c0 .938-.737 1.652-1.637 1.623-.914-.045-1.65-.834-1.65-1.772 0-.937.736-1.666 1.65-1.622.9.045 1.637.834 1.637 1.771z" fill="#fff"/><path d="M148.656 77.577l-76.67 5.611V47.527l76.67.834v29.216z" fill="url(#paint9_linear)"/><path d="M148.656 82.608l-76.67 6.727v-2.724l76.67-6.236v2.233zm0 5.507l-76.67 7.933v-2.739l76.67-7.442v2.248zM115.694 42.69l-43.708-1.072v2.739l43.708.788V42.69zm29.099.729v2.262l3.862.06v-2.233l-3.862-.09z" fill="#D8DEE8"/><path opacity=".3" d="M121.267 62.247c-8.963-13.708-25.149-8.99-35.866-24.99-1.975-2.947-3.317-5.953-4.245-8.722l-10.084-.565c-3.007-.164-5.469 2.113-5.469 5.12v64.997c0 2.991 2.462 5.135 5.47 4.777l61.279-7.308a46.937 46.937 0 01-4.511-8.424c-5.056-12.279-1.282-16.803-6.574-24.885z" fill="#fff"/><path d="M104.49 75.404V52.692c0-1.459 1.135-2.412 2.108-1.786l16.85 10.82c1.017.655 1.017 2.694 0 3.408l-16.865 11.907c-.972.7-2.093-.178-2.093-1.637z" fill="#fff"/><defs><linearGradient id="paint0_linear" x1="74.97" y1="20.154" x2="140.116" y2="20.154" gradientUnits="userSpaceOnUse"><stop offset=".004" stop-color="#E38DDD"/><stop offset="1" stop-color="#9571F6"/></linearGradient><linearGradient id="paint1_linear" x1="118.703" y1="40.894" x2="164.528" y2="40.894" gradientUnits="userSpaceOnUse"><stop offset=".004" stop-color="#E38DDD"/><stop offset="1" stop-color="#9571F6"/></linearGradient><linearGradient id="paint2_linear" x1="107.901" y1="73.158" x2="157.007" y2="73.158" gradientUnits="userSpaceOnUse"><stop offset=".004" stop-color="#E38DDD"/><stop offset="1" stop-color="#9571F6"/></linearGradient><linearGradient id="paint3_linear" x1="55.548" y1="59.787" x2="127.922" y2="59.787" gradientUnits="userSpaceOnUse"><stop offset=".004" stop-color="#E38DDD"/><stop offset="1" stop-color="#9571F6"/></linearGradient><linearGradient id="paint4_linear" x1="150.723" y1="29.104" x2="155.391" y2="29.104" gradientUnits="userSpaceOnUse"><stop offset=".004" stop-color="#E38DDD"/><stop offset="1" stop-color="#9571F6"/></linearGradient><linearGradient id="paint5_linear" x1="55.619" y1="79.111" x2="63.941" y2="79.111" gradientUnits="userSpaceOnUse"><stop offset=".004" stop-color="#E38DDD"/><stop offset="1" stop-color="#9571F6"/></linearGradient><linearGradient id="paint6_linear" x1="145.375" y1="19.11" x2="151.067" y2="19.11" gradientUnits="userSpaceOnUse"><stop offset=".004" stop-color="#E38DDD"/><stop offset="1" stop-color="#9571F6"/></linearGradient><linearGradient id="paint7_linear" x1="51.318" y1="37.921" x2="61.754" y2="37.921" gradientUnits="userSpaceOnUse"><stop offset=".004" stop-color="#E38DDD"/><stop offset="1" stop-color="#9571F6"/></linearGradient><linearGradient id="paint8_linear" x1="154.576" y1="55.928" x2="160.191" y2="57.992" gradientUnits="userSpaceOnUse"><stop offset=".004" stop-color="#E38DDD"/><stop offset="1" stop-color="#9571F6"/></linearGradient><linearGradient id="paint9_linear" x1="71.981" y1="65.361" x2="148.658" y2="65.361" gradientUnits="userSpaceOnUse"><stop stop-color="#FF9085"/><stop offset="1" stop-color="#FB6FBB"/></linearGradient></defs></svg>