<svg width="282" height="160" fill="none" xmlns="http://www.w3.org/2000/svg"><path d="M240.001 131.934l-178.328-1.543v4.558c0 1.234.785 2.278 1.83 2.468l50.415 8.973a7.726 7.726 0 001.807.095l122.326-10.231c1.094-.095 1.926-1.139 1.926-2.421v-1.899h.024z" fill="#7A9DC4"/><path d="M174.368 124.648l-113.337 8.331c-2.022.143-3.686-1.424-3.686-3.536V45.202c0-2.113 1.64-3.798 3.686-3.798l4.018 2.302 109.342-2.302c1.665 0 3.02 1.543 3.02 3.442v76.147c-.023 1.898-1.355 3.536-3.043 3.655z" fill="#BFC8D6"/><path d="M176.172 124.648l-113.337 8.331c-2.021.143-3.686-1.424-3.686-3.536V45.202c0-2.113 1.641-3.798 3.686-3.798h113.337c1.665 0 3.02 1.543 3.02 3.442v76.147c0 1.898-1.331 3.536-3.02 3.655z" fill="#D5E4F4"/><path d="M172.656 119.284l-105.56 7.239c-1.641.119-2.997-1.186-2.997-2.896V49.854c0-1.709 1.332-3.11 2.996-3.11l105.561-.45c1.379 0 2.497 1.258 2.497 2.825v67.174c0 1.543-1.118 2.896-2.497 2.991z" fill="#5D7092"/><path d="M104.524 53.652l-28.489.071v-2.706h28.489v2.635zm13.411-.783h-6.564l-.023-1.852h6.587v1.852zm0 2.54l-6.563.047v-1.851l6.563-.024v1.828zm32.816-.143l-25.54.12v-1.829l25.54-.07v1.78zm4.188 2.421l-25.279.19v-1.804l25.279-.142v1.756zm0 2.469l-25.279.261V58.59l25.279-.213v1.78zm0 2.445l-25.279.332v-1.827l25.279-.285v1.78zm-36.98-4.629l-6.587.047v-1.851l6.587-.024v1.828zm0 2.563l-6.587.072v-1.852l6.587-.071v1.851zm0 2.541l-6.587.095V61.32l6.587-.072v1.828zm0 2.564l-6.587.094v-1.851l6.587-.072v1.828zm17.646-.286l-16.194.26-.024-1.827 16.218-.237v1.804zm-17.646 2.85l-6.563.118-.024-1.851 6.587-.119v1.852zm.003 2.539l-6.564.142v-1.851l6.564-.12v1.829zm.024 2.563l-6.588.167V71.62l6.588-.166v1.851zm25.205-5.602l-17.954.356v-1.827l17.954-.309v1.78zm9.344 2.279l-22.852.498v-1.804l22.829-.45.023 1.756zm0 2.469l-22.852.57v-1.828l22.852-.523v1.78zm-34.549 3.394l-6.588.19v-1.851l6.588-.167v1.828zm0 2.564l-6.588.213v-1.851l6.588-.19v1.828zm0 2.563l-6.588.214v-1.851l6.588-.214v1.851zm0 2.54l-6.564.237-.024-1.85 6.588-.215v1.828zm-.001 2.564l-6.563.26v-1.85l6.563-.238v1.828zm.024 2.563l-6.587.26v-1.85l6.563-.262.024 1.851zm0 2.54l-6.587.308v-1.852l6.587-.285v1.828zm0 2.563l-6.587.309V92.2l6.587-.309v1.852zm0 2.54l-6.587.356v-1.852l6.587-.332v1.828zm0 2.563l-6.563.356-.024-1.851 6.587-.333v1.828zm0 2.564l-6.564.356v-1.852l6.564-.356v1.852zm.023 2.54l-6.587.403v-1.851l6.564-.38.023 1.828zm0 2.564l-6.587.404v-1.852l6.587-.38v1.828zm0 2.563l-6.587.427v-1.851l6.587-.428v1.852zm0 2.541l-6.587.451v-1.852l6.587-.427v1.828zm0 2.562l-6.563.475-.024-1.851 6.587-.475v1.851zm-.001 2.564l-6.563.475v-1.852l6.563-.474v1.851zm.024 2.54l-6.587.498v-1.851l6.563-.475.024 1.828zm19.236-66.463l-17.954.048v-1.852l17.93.024.024 1.78zm13.534 51.651l-25.54 1.59v-1.827l25.54-1.543v1.78zm4.184 2.184l-25.279 1.638v-1.804l25.279-1.591v1.757zm0 2.445l-25.279 1.732v-1.827l25.279-1.662v1.757zm10.893 1.685l-24.613 1.733v-1.781l24.613-1.709v1.757zm.023 2.397l-24.636 1.828v-1.78l24.613-1.78.023 1.732zm0 2.421l-24.636 1.899v-1.804l24.636-1.827v1.732zm-28.562-12.794l-17.954 1.069v-1.828l17.954-1.045v1.804zm13.414-25.398l-25.54.784v-1.828l25.54-.736v1.78zm4.184 2.327l-25.278.83v-1.803l25.278-.808v1.78zm0 2.445l-25.278.902v-1.804l25.278-.879v1.78zm.025 2.444l-25.278.997v-1.828l25.254-.925.024 1.756zm-19.359 3.252l-16.194.689V86.74l16.194-.665v1.805zm7.589 2.16l-17.954.807v-1.804l17.954-.783v1.78zm9.344 2.042l-22.852 1.092V91.37l22.852-1.045v1.757zm0 2.468l-22.852 1.14v-1.805l22.852-1.115v1.78zm5.066 2.16l-22.567 1.235V96.14l22.567-1.187v1.757zm0 2.445l-22.567 1.282v-1.804l22.567-1.235v1.757zm-20.309-23.831l-17.954.499v-1.828l17.954-.475v1.804zm-32.794-17.565l-16.29.118v-2.682l16.29-.071v2.635zM84 57.901l3.068-.023v-2.682l-3.067.023v2.682zm20.547 3.632l-16.313.19V59.04l16.289-.142.024 2.635zm-20.523.237l3.068-.048v-2.658L84 59.088l.023 2.682zm20.523 3.537l-16.313.26v-2.681l16.313-.19v2.61zm-20.524.332l3.068-.048V62.91l-3.068.024v2.706zm20.572 26.491l-28.489 1.28v-2.705l28.465-1.21.024 2.634zm0 4.105l-16.314.807v-2.658l16.314-.784v2.635zm-20.521 1.021l3.068-.142V94.43l-3.068.143v2.682zm20.521 2.754l-16.29.878-.024-2.659 16.314-.854v2.635zm-20.521 1.116l3.068-.167v-2.682l-3.068.166v2.683zm20.52 2.658l-16.29.95v-2.659l16.29-.926v2.635zm-20.52 1.21l3.092-.19-.024-2.682-3.068.166v2.706zm20.474-35.889l-28.489.57v-2.706l28.489-.475v2.61zm0 4.106l-16.29.404v-2.683l16.29-.332v2.611zm-20.525.522l3.092-.095-.024-2.682-3.068.071v2.706zm20.549 3.276l-16.313.45v-2.681l16.313-.404v2.635zm-20.525.57l3.068-.072v-2.682l-3.092.071.024 2.683zm20.525 7.026l-16.313.593v-2.659l16.313-.57v2.636zm-20.522.759l3.068-.118v-2.683l-3.067.119v2.682zm20.521 3.015l-16.29.664v-2.658l16.29-.641v2.635zm-20.521.854l3.092-.142-.024-2.658-3.067.118v2.682zm20.522-8.45l-16.313.522v-2.658l16.313-.499v2.635zm-20.522.665l3.068-.095v-2.682l-3.067.095v2.682zm20.572 26.109l-28.49 1.78v-2.706l28.466-1.685.024 2.611zm-.004 4.107l-16.313 1.092v-2.659l16.313-1.044v2.611zm-20.52 1.377l3.067-.19v-2.682l-3.067.19v2.682zm20.52 2.397l-16.29 1.163-.023-2.658 16.313-1.116v2.611zm-20.52 1.471l3.067-.213v-2.682l-3.067.213v2.682zm20.52 2.327l-16.29 1.234v-2.682l16.29-1.187v2.635zm-20.52 1.544l3.091-.238-.024-2.682-3.067.238v2.682zm23.991-1.805l-.619.048-.118-68.005h.642l.095 67.957zm15.435-75.293c0 .784-.594 1.425-1.308 1.425-.713 0-1.308-.641-1.308-1.425 0-.783.595-1.424 1.308-1.424.714 0 1.308.641 1.308 1.424z" fill="#fff"/><path opacity=".48" d="M62.84 132.979l112.766-8.284.57-.047c.761-.048 1.475-.427 1.998-.997-8.109-.451-13.151-3.323-16.409-6.29-6.539-5.958-5.398-11.845-12.437-15.761-8.775-4.89-15.695 1.305-22.353-4.819-4.043-3.703-2.045-6.48-7.039-12.01-5.517-6.148-9.084-4.083-14.625-9.59-6.991-6.978-3.496-12.414-9.536-17.422-7.3-6.077-15.195-.452-22.163-6.29-2.996-2.517-4.661-6.172-5.517-10.065h-5.303c-2.021 0-3.686 1.71-3.686 3.798v84.241c.071 2.089 1.712 3.679 3.733 3.536z" fill="#7A9DC4"/><path d="M181.526 124.174l-119.853 8.759 52.245 9.281a7.726 7.726 0 001.807.095l124.276-10.373-56.573-7.691a8.477 8.477 0 00-1.902-.071z" fill="url(#paint0_linear)"/><path d="M79.15 133.027l99.782-7.406 30.89 4.154-98.926 7.928-31.747-4.676z" fill="#D8DEE8"/><path d="M203.524 20.302L133.586 18a4.106 4.106 0 00-4.257 4.13v68.053a4.053 4.053 0 004.257 4.082l69.961-2.99c2.022-.095 3.663-1.923 3.663-4.083v-62.83c-.024-2.184-1.665-3.988-3.686-4.06z" fill="url(#paint1_linear)"/><path opacity=".74" d="M133.59 92.913a2.767 2.767 0 01-2.902-2.777V22.178a2.801 2.801 0 012.902-2.8l69.937 2.183c1.38.047 2.497 1.282 2.497 2.753V87.24c0 1.472-1.117 2.73-2.497 2.777l-69.937 2.896z" fill="#fff"/><path d="M203.524 20.302L133.586 18a4.106 4.106 0 00-4.257 4.13v3.062l77.857 1.994V24.36c0-2.184-1.641-3.987-3.662-4.059z" fill="url(#paint2_linear)"/><path d="M136.893 21.94c0 .76-.619 1.377-1.379 1.354a1.437 1.437 0 01-1.38-1.425c0-.76.619-1.376 1.38-1.353.76.024 1.379.665 1.379 1.425zm4.8.143c0 .76-.619 1.353-1.356 1.353a1.436 1.436 0 01-1.379-1.424c0-.76.618-1.353 1.379-1.353.761.024 1.356.665 1.356 1.424zm4.785.118c0 .76-.595 1.353-1.356 1.33-.761-.024-1.355-.665-1.355-1.425s.618-1.353 1.355-1.33c.737.048 1.356.69 1.356 1.425zm24.751 11.513l-36.955-.665v2.16l36.955.593v-2.088zm27.775.498v2.018l3.924.071v-2.018l-3.924-.07zm-56.906 6.29l-7.824-.071V38.2l7.824.094v2.208zm41.733.451l-36.764-.38v-2.208l36.764.475v2.113zM154.7 44.395l-7.633-.048V42.14l7.633.047v2.208zm40.712.285l-35.861-.262v-2.183l35.861.332v2.112zM154.7 48.121l-7.633-.024V45.89l7.633.047v2.184zm40.712.143l-35.861-.12v-2.183l35.861.19v2.113zm-53.314 3.631h-7.824v-2.23h7.824v2.23zm41.733-.047l-36.764.024v-2.208l36.764.072v2.112zM154.7 55.623l-7.633.023V53.44h7.633v2.184zm40.712-.191l-35.861.166v-2.184l35.861-.071v2.089zM154.7 59.349l-7.633.071v-2.207l7.633-.048v2.184zm40.712-.333l-35.861.308v-2.183l35.861-.214v2.089zM154.7 63.099l-7.633.095v-2.208l7.633-.07v2.183zm40.712-.499l-35.861.452v-2.184l35.861-.356v2.089zm-28.321 4.06l-7.419.118v-2.184l7.419-.119v2.184zm33.888-.546l-29.131.45v-2.136l29.131-.403v2.088zm-58.881 4.723l-7.824.143v-2.231l7.824-.143v2.231zm41.733-.831l-36.764.736v-2.207l36.764-.641v2.112zM154.7 74.327l-7.633.19v-2.208l7.633-.166v2.184zm40.712-.95l-35.861.83v-2.16l35.861-.759v2.09zm-40.712 4.7l-7.633.213v-2.207l7.633-.19v2.184zm40.712-1.116l-35.861.973v-2.183l35.861-.879v2.09zm-53.314 5.246l-7.824.237v-2.23l7.824-.238v2.23zm41.733-1.281l-36.764 1.115v-2.207l36.764-1.045v2.137zM154.7 85.554l-7.633.261v-2.207l7.633-.238v2.184zm40.712-1.401l-35.861 1.234v-2.184l35.861-1.163v2.113z" fill="#fff"/><path d="M114.822 136.421a10.897 10.897 0 01-5.969-1.542c-5.445-3.276-13.507-8.664-20.76-15.714-9.203-8.949-14.482-18.063-15.647-26.988l-.024-.143-.214-38.144c0-7.549 4.922-13.649 14.173-17.684 7.633-3.323 17.764-4.961 28.465-4.653 10.582.31 20.356 2.493 27.609 6.1 8.608 4.32 13.127 10.374 13.127 17.566l-.214 36.435-.024.143c-1.046 8.569-5.921 17.399-14.53 26.347-6.896 7.169-14.696 12.866-20.047 16.379-1.759 1.186-3.828 1.827-5.945 1.898z" fill="#B7C0CE"/><path d="M116.94 136.421a10.656 10.656 0 01-5.897-1.542c-5.374-3.276-13.34-8.664-20.499-15.714-9.084-8.949-14.292-18.063-15.433-26.988l-.024-.143-.214-38.144c0-7.549 4.851-13.649 13.983-17.684 7.538-3.323 17.526-4.961 28.084-4.653 10.44.31 20.095 2.493 27.229 6.1 8.489 4.32 12.96 10.374 12.96 17.566l-.19 36.435-.024.143c-1.046 8.569-5.85 17.399-14.339 26.347-6.802 7.169-14.506 12.866-19.786 16.379a11.12 11.12 0 01-5.85 1.898z" fill="#fff"/><path d="M77.369 53.913l.214 37.955c2.497 19.369 25.302 35.035 35.218 40.993 2.854 1.709 6.492 1.614 9.298-.261 9.727-6.385 31.271-22.455 33.578-41.064l.214-36.341c.024-26.965-78.522-29.433-78.522-1.282z" fill="#F4F7FA"/><path d="M116.083 124.149c-4.138-2.54-11.462-7.429-17.883-13.72-6.991-6.883-11.058-13.482-12.009-19.582l-.19-37.1c0-2.564 2.354-4.914 6.991-6.955 5.898-2.611 14.316-3.964 23.091-3.774 8.704.19 16.884 1.899 22.52 4.7 4.376 2.16 6.587 4.51 6.587 7.026l-.214 35.89c-.904 5.933-4.708 12.39-11.391 19.297-6.183 6.361-13.388 11.512-17.502 14.218z" fill="url(#paint3_linear)"/><path d="M131.325 75.87l-27.799.237c-2.141.024-3.877 1.686-3.877 3.703v17.78c0 2.017 1.736 3.584 3.853 3.489l27.704-1.14c1.974-.07 3.567-1.708 3.567-3.63l.095-16.996c.024-1.9-1.569-3.442-3.543-3.442z" fill="#33425A"/><path d="M134.211 76.466l-27.799.237c-2.14.024-3.876 1.686-3.876 3.703v17.779c0 2.017 1.736 3.584 3.853 3.489l27.704-1.139c1.973-.071 3.567-1.71 3.567-3.632l.095-16.995c.023-1.9-1.57-3.442-3.544-3.442z" fill="url(#paint4_linear)"/><path d="M130.946 74.113c-.833 0-1.522-.664-1.499-1.471l.024-3.87c.024-3.892-3.21-7.097-7.229-7.12l-9.084-.095c-4.162-.048-7.562 3.204-7.586 7.216v3.987c0 .855-.713 1.543-1.617 1.543s-1.617-.688-1.617-1.543v-4.01c0-5.744 4.899-10.35 10.82-10.254l9.084.118c5.707.072 10.249 4.629 10.226 10.16l-.024 3.869c0 .807-.666 1.471-1.498 1.471z" fill="#33425A"/><path d="M133.832 74.71c-.833 0-1.522-.665-1.498-1.472l.023-3.87c.024-3.892-3.21-7.097-7.229-7.12l-9.084-.095c-4.161-.048-7.562 3.204-7.586 7.216v3.987c0 .855-.713 1.543-1.617 1.543-.903 0-1.617-.688-1.617-1.543v-4.011c0-5.744 4.899-10.35 10.82-10.254l9.084.118c5.707.072 10.25 4.629 10.226 10.16l-.024 3.869c0 .807-.666 1.471-1.498 1.471z" fill="#BCCDEA"/><path d="M124.742 86.077c0-1.97-1.688-3.513-3.733-3.395-1.832.119-3.33 1.59-3.449 3.347a3.35 3.35 0 001.784 3.157c.476.261.713.783.618 1.33L119.154 95c-.095.57.356 1.069.951 1.045l2.045-.071c.595-.024 1.046-.546.951-1.116l-.785-4.439c-.095-.522.191-1.068.666-1.353a3.552 3.552 0 001.76-2.99z" fill="#F2709F"/><path fill-rule="evenodd" clip-rule="evenodd" d="M121.22 82.7c2.045-.12 3.733 1.424 3.733 3.394a3.552 3.552 0 01-1.76 2.99c-.475.285-.76.831-.665 1.353l.784 4.44c.095.569-.356 1.091-.951 1.115l-2.045.071a.969.969 0 01-.361-.053l.52-.018c.595-.024 1.046-.546.951-1.116l-.784-4.439c-.096-.522.19-1.068.665-1.352a3.552 3.552 0 001.76-2.991c0-1.577-1.081-2.88-2.562-3.277.231-.062.47-.102.715-.118z" fill="#33425A"/><ellipse opacity=".5" cx="131.5" cy="141.5" rx="99.5" ry="5.5" fill="url(#paint5_radial)"/><defs><linearGradient id="paint0_linear" x1="61.675" y1="133.254" x2="240" y2="133.254" gradientUnits="userSpaceOnUse"><stop offset=".494" stop-color="#D3E0EF"/><stop offset="1" stop-color="#fff"/></linearGradient><linearGradient id="paint1_linear" x1="194.361" y1="2.552" x2="118.77" y2="154.012" gradientUnits="userSpaceOnUse"><stop offset=".004" stop-color="#E38DDD"/><stop offset="1" stop-color="#9571F6"/></linearGradient><linearGradient id="paint2_linear" x1="161.571" y1="-2.175" x2="174.698" y2="50.432" gradientUnits="userSpaceOnUse"><stop offset=".004" stop-color="#E38DDD"/><stop offset="1" stop-color="#9571F6"/></linearGradient><linearGradient id="paint3_linear" x1="85.956" y1="83.552" x2="145.203" y2="83.552" gradientUnits="userSpaceOnUse"><stop stop-color="#F7DA5C"/><stop offset="1" stop-color="#F15DAB"/></linearGradient><linearGradient id="paint4_linear" x1="141.498" y1="76.573" x2="99.034" y2="76.573" gradientUnits="userSpaceOnUse"><stop stop-color="#E0E9F9"/><stop offset=".432" stop-color="#86A4D6"/><stop offset="1" stop-color="#5D7092"/></linearGradient><radialGradient id="paint5_radial" cx="0" cy="0" r="1" gradientUnits="userSpaceOnUse" gradientTransform="matrix(0 5.5 -99.5 0 131.5 141.5)"><stop stop-color="#7A9DC4"/><stop offset="1" stop-color="#7A9DC4" stop-opacity="0"/></radialGradient></defs></svg>