<svg width="216" height="123" fill="none" xmlns="http://www.w3.org/2000/svg"><path d="M74.693 78.707l22.79-25.17 45.9-39.052-62.436 90.375-6.254-26.153z" fill="url(#paint0_linear)"/><path d="M82.96 81.734l-2.015 23.126 62.436-90.375-60.421 67.25z" fill="url(#paint1_linear)"/><path d="M82.96 81.734v.087l.026.012 30.538 17.07 29.859-84.418-60.422 67.25z" fill="url(#paint2_linear)"/><path d="M143.382 14.485l-98.92 55.077 30.193 9.23.037-.085 68.69-64.222z" fill="url(#paint3_linear)"/><path d="M116.354 50.374H78.252l.012 11.397c-.012.087-.012.173-.012.259 0 4.48 8.527 8.11 19.045 8.11 10.517 0 19.044-3.63 19.044-8.11V50.374h.013z" fill="url(#paint4_linear)"/><path opacity=".3" d="M87.422 58.584c4.548-.234 6.76 3.126 12.396 4.516 3.745.924 9.022.985 16.536-1.784V50.362H78.252l.012 11.397c-.012.086-.012.172-.012.258 0 .591.148 1.17.433 1.736 2.335-2.782 5.24-4.985 8.737-5.17z" fill="url(#paint5_linear)"/><path d="M133.644 35.938L87.509 31.53a1.4 1.4 0 00-.964.259L60.678 50.362c-.432.308-.26.985.272 1.059l55.997 6.535c.494.061.989-.148 1.298-.542l15.807-20.541a.58.58 0 00-.408-.935z" fill="url(#paint6_linear)"/><path d="M65.696 62.756s-5.4-4.628-12.878-.665c0 0 2.262 3.09 5.945 2.794 0 0-.742 1.292-2.731.936 0 .012 5.536 3.766 9.664-3.065z" fill="url(#paint7_linear)"/><path d="M93.75 41.611c8.577-2.35 13.187.665 20.935 1.145 4.635.283 10.444-.332 17.402-3.323l1.965-2.56a.581.581 0 00-.408-.935L87.509 31.53a1.4 1.4 0 00-.964.259L60.678 50.362c-.432.308-.26.985.272 1.059l8.577.996a30.535 30.535 0 003.51-.627c9.17-2.252 11.666-7.705 20.713-10.179z" fill="url(#paint8_linear)"/><path opacity=".1" d="M114.686 42.756c-7.749-.48-12.359-3.483-20.936-1.145-9.046 2.474-11.555 7.927-20.713 10.167a28.5 28.5 0 01-3.51.627l47.433 5.539c.494.061.989-.148 1.298-.542l13.829-17.982c-6.958 3.004-12.779 3.619-17.401 3.336z" fill="#fff"/><path d="M96.915 46.054c-1.607-.75-3.313-1.28-5.068-1.427a10.972 10.972 0 00-2.62.074c-.11.012-.21.036-.32.049l-.322.061c-.21.037-.42.099-.63.16a7.198 7.198 0 00-1.187.517c-.766.406-1.508.899-2.212 1.428-.358.258-.705.542-1.05.812l-.507.431-.26.21-.247.22c-1.335 1.17-2.608 2.413-3.856 3.68a76.986 76.986 0 00-3.56 3.964 85.924 85.924 0 01-1.754 2.043c-.606.665-1.248 1.317-1.965 1.883-1.434 1.132-3.065 1.97-4.77 2.56-1.706.59-3.51.91-5.303 1.01l-.024-.308c1.767-.148 3.522-.493 5.178-1.096 1.656-.603 3.238-1.44 4.597-2.547a15.622 15.622 0 001.879-1.847 68.4 68.4 0 001.73-2.03 73.386 73.386 0 013.572-4.013 61.54 61.54 0 013.893-3.717l.26-.221.259-.222.519-.43c.358-.284.704-.567 1.075-.825.73-.53 1.483-1.034 2.299-1.452a7.41 7.41 0 011.285-.53 4.52 4.52 0 01.68-.16l.334-.061c.11-.025.222-.037.333-.05a11.89 11.89 0 012.732-.036 12.92 12.92 0 012.657.566c.432.135.852.295 1.273.468.42.172.828.369 1.223.566l-.123.27z" fill="url(#paint9_linear)"/><g opacity=".5"><path opacity=".5" d="M122.914 30.944l-54.808-4.967c-3.465-.315-6.192 1.77-6.162 4.667l.014 1.665c.03 2.882 2.845 5.387 6.31 5.568l54.734 2.956c2.344.12 4.098-1.651 4.083-3.977l-.014-1.335c0-2.326-1.814-4.367-4.157-4.577z" fill="url(#paint10_linear)"/><path opacity=".5" d="M151.497 54.368c-.015-1.876-1.356-3.437-3.081-3.482l-38.534-1.17c-2.329-.075-4.231 1.68-4.216 3.901l.015 1.231c.015 2.22 1.96 4.022 4.29 4.022l38.489-.075c1.71 0 3.052-1.531 3.037-3.392v-1.035z" fill="url(#paint11_linear)"/><path opacity=".5" d="M143.979 83.494c-.015-1.921-1.504-3.362-3.332-3.197L99.416 83.87c-2.506.21-4.57 2.266-4.54 4.561l.014 1.276c.015 2.296 2.108 3.931 4.6 3.631l41.201-4.907c1.828-.21 3.302-1.95 3.288-3.871v-1.065z" fill="url(#paint12_linear)"/><path opacity=".5" d="M110.208 66.222l-60.72 1.68c-3.862.106-7.002 2.672-6.972 5.718l.015 1.77c.03 3.047 3.213 5.313 7.075 5.073l60.69-3.902c2.565-.165 4.6-2.266 4.585-4.682l-.015-1.395c0-2.431-2.078-4.337-4.658-4.262z" fill="url(#paint13_linear)"/><path opacity=".5" d="M142.372 42.558c.015 1.35-1.017 2.401-2.299 2.341-1.298-.075-2.359-1.245-2.374-2.626-.014-1.38 1.047-2.43 2.344-2.326 1.283.075 2.315 1.26 2.329 2.611z" fill="url(#paint14_linear)"/><path opacity=".5" d="M50.918 92.407c.014 1.8-1.784 3.466-4.069 3.721-2.314.255-4.23-1.02-4.245-2.866-.015-1.846 1.857-3.511 4.171-3.736 2.285-.21 4.128 1.08 4.143 2.88z" fill="url(#paint15_linear)"/><path opacity=".5" d="M135.252 35.31c-1.577-.135-2.889-1.605-2.904-3.256-.015-1.65 1.282-2.85 2.86-2.686 1.562.18 2.83 1.636 2.83 3.256.015 1.621-1.224 2.822-2.786 2.686zm-.03-5.056c-1.105-.12-2.004.72-2.004 1.89.014 1.156.928 2.191 2.034 2.296 1.105.105 1.975-.75 1.975-1.89-.015-1.156-.914-2.176-2.005-2.296z" fill="url(#paint16_linear)"/><path opacity=".5" d="M48.736 54.878l-10.437-.015 5.248-7.128 5.189 7.143zm-8.61-.84l6.9.03-3.465-4.727-3.434 4.697z" fill="url(#paint17_linear)"/><path opacity=".5" d="M141.693 69.073l6.619-.66-2.889 6.092-3.73-5.432z" fill="url(#paint18_linear)"/></g><defs><linearGradient id="paint0_linear" x1="90.777" y1="29.167" x2="100.943" y2="43.784" gradientUnits="userSpaceOnUse"><stop offset=".004" stop-color="#E38DDD"/><stop offset="1" stop-color="#9571F6"/></linearGradient><linearGradient id="paint1_linear" x1="80.717" y1="90.097" x2="97.71" y2="73.52" gradientUnits="userSpaceOnUse"><stop offset=".004" stop-color="#E38DDD"/><stop offset="1" stop-color="#9571F6"/></linearGradient><linearGradient id="paint2_linear" x1="112.512" y1="46.34" x2="102.012" y2="17.219" gradientUnits="userSpaceOnUse"><stop offset=".004" stop-color="#E38DDD"/><stop offset="1" stop-color="#9571F6"/></linearGradient><linearGradient id="paint3_linear" x1="76.376" y1="70.928" x2="120.634" y2="-2.564" gradientUnits="userSpaceOnUse"><stop offset=".004" stop-color="#E38DDD"/><stop offset="1" stop-color="#9571F6"/></linearGradient><linearGradient id="paint4_linear" x1="93.82" y1="83.512" x2="95.137" y2="73.153" gradientUnits="userSpaceOnUse"><stop stop-color="#444B8C"/><stop offset=".996" stop-color="#3E4177"/></linearGradient><linearGradient id="paint5_linear" x1="93.76" y1="83.505" x2="95.078" y2="73.145" gradientUnits="userSpaceOnUse"><stop stop-color="#444B8C"/><stop offset=".996" stop-color="#3E4177"/></linearGradient><linearGradient id="paint6_linear" x1="60.435" y1="44.742" x2="134.177" y2="44.742" gradientUnits="userSpaceOnUse"><stop stop-color="#444B8C"/><stop offset=".996" stop-color="#3E4177"/></linearGradient><linearGradient id="paint7_linear" x1="52.821" y1="63.677" x2="65.7" y2="63.677" gradientUnits="userSpaceOnUse"><stop stop-color="#444B8C"/><stop offset=".996" stop-color="#3E4177"/></linearGradient><linearGradient id="paint8_linear" x1="60.435" y1="41.971" x2="134.177" y2="41.971" gradientUnits="userSpaceOnUse"><stop stop-color="#444B8C"/><stop offset=".996" stop-color="#3E4177"/></linearGradient><linearGradient id="paint9_linear" x1="70.399" y1="73.382" x2="75.256" y2="62.867" gradientUnits="userSpaceOnUse"><stop stop-color="#444B8C"/><stop offset=".996" stop-color="#3E4177"/></linearGradient><linearGradient id="paint10_linear" x1="61.951" y1="33.388" x2="127.096" y2="33.388" gradientUnits="userSpaceOnUse"><stop offset=".004" stop-color="#E38DDD"/><stop offset="1" stop-color="#9571F6"/></linearGradient><linearGradient id="paint11_linear" x1="105.683" y1="54.298" x2="151.508" y2="54.298" gradientUnits="userSpaceOnUse"><stop offset=".004" stop-color="#E38DDD"/><stop offset="1" stop-color="#9571F6"/></linearGradient><linearGradient id="paint12_linear" x1="94.881" y1="86.826" x2="143.988" y2="86.826" gradientUnits="userSpaceOnUse"><stop offset=".004" stop-color="#E38DDD"/><stop offset="1" stop-color="#9571F6"/></linearGradient><linearGradient id="paint13_linear" x1="42.529" y1="73.346" x2="114.902" y2="73.346" gradientUnits="userSpaceOnUse"><stop offset=".004" stop-color="#E38DDD"/><stop offset="1" stop-color="#9571F6"/></linearGradient><linearGradient id="paint14_linear" x1="137.703" y1="42.412" x2="142.372" y2="42.412" gradientUnits="userSpaceOnUse"><stop offset=".004" stop-color="#E38DDD"/><stop offset="1" stop-color="#9571F6"/></linearGradient><linearGradient id="paint15_linear" x1="42.599" y1="92.829" x2="50.921" y2="92.829" gradientUnits="userSpaceOnUse"><stop offset=".004" stop-color="#E38DDD"/><stop offset="1" stop-color="#9571F6"/></linearGradient><linearGradient id="paint16_linear" x1="132.355" y1="32.335" x2="138.048" y2="32.335" gradientUnits="userSpaceOnUse"><stop offset=".004" stop-color="#E38DDD"/><stop offset="1" stop-color="#9571F6"/></linearGradient><linearGradient id="paint17_linear" x1="38.299" y1="51.301" x2="48.735" y2="51.301" gradientUnits="userSpaceOnUse"><stop offset=".004" stop-color="#E38DDD"/><stop offset="1" stop-color="#9571F6"/></linearGradient><linearGradient id="paint18_linear" x1="141.556" y1="69.456" x2="147.182" y2="71.507" gradientUnits="userSpaceOnUse"><stop offset=".004" stop-color="#E38DDD"/><stop offset="1" stop-color="#9571F6"/></linearGradient></defs></svg>