<svg width="180" height="180" fill="none" xmlns="http://www.w3.org/2000/svg"><circle cx="90" cy="90" r="90" fill="#00D0CD"/><path d="M168 90c0 43.078-34.922 78-78 78M27 44.002A77.715 77.715 0 0015.146 68 78.026 78.026 0 0012 90c0 7.64 1.098 15.023 3.146 22" stroke="#fff" stroke-width="3" stroke-linecap="round"/><path fill-rule="evenodd" clip-rule="evenodd" d="M70.808 14.505a1.5 1.5 0 01-1.039 1.85 76.522 76.522 0 00-19.927 8.833 77.019 77.019 0 00-10.345 7.749 1.5 1.5 0 01-1.994-2.241 80.005 80.005 0 0110.748-8.051 79.521 79.521 0 0120.707-9.179 1.5 1.5 0 011.85 1.039zm62.278 140.848a1.5 1.5 0 01-.475 2.067c-37.218 23.296-86.273 12.01-109.568-25.207a1.5 1.5 0 012.543-1.592c22.416 35.813 69.62 46.673 105.433 24.256a1.5 1.5 0 012.067.476z" fill="#fff"/><path d="M168 90c0-43.078-34.922-78-78-78" stroke="#fff" stroke-width="3" stroke-linecap="round"/><path d="M52.95 107.056H50v2.952h2.95v-2.952zm0 6.013H50v2.952h2.95v-2.952zm0 6.014H50v2.952h2.95v-2.952zm74.626-67.24h-2.95v2.952h2.95v-2.952zm0 6.013h-2.95v2.952h2.95v-2.952zm0 5.904h-2.95v2.952h2.95V63.76zm-37.258 44.827c-9.069 0-16.39-7.326-16.39-16.4 0-3.39.984-6.56 2.95-9.403l2.404 1.75c-1.53 2.295-2.403 4.92-2.403 7.653 0 7.434 6.009 13.448 13.439 13.448s13.439-6.014 13.439-13.448c0-2.734-.765-5.358-2.294-7.544l2.513-1.64a16.277 16.277 0 012.84 9.184c-.109 9.074-7.43 16.4-16.498 16.4z" fill="#fff"/><path d="M82.888 95.139h2.95v2.952h-2.95v-2.952z" fill="#fff"/><path d="M97.748 131h-14.86v-8.309c-3.169-.766-6.119-1.968-8.741-3.608l-5.9 5.904-10.599-10.606 5.9-5.904a32.141 32.141 0 01-3.605-8.746H51.53V84.643h8.304a32.146 32.146 0 013.605-8.747l-5.9-5.904 10.599-10.605 6.774 6.778-2.076 2.078-4.698-4.702-6.338 6.342 5.573 5.576-.656.984c-1.967 3.061-3.387 6.341-4.152 9.949l-.218 1.203H54.48v8.965h7.757l.219 1.203c.765 3.608 2.076 6.888 4.152 9.949l.655.984-5.572 5.576 6.337 6.341 5.463-5.466.984.656c2.95 1.968 6.337 3.389 9.943 4.154l1.201.219v7.763h9.178v-7.763l1.202-.219c3.606-.765 6.884-2.077 9.943-4.154l.984-.656 5.572 5.576 6.337-6.342-5.572-5.576.655-.984c1.967-3.061 3.388-6.341 4.152-9.949l.219-1.203h7.758v-8.965h-7.758l-.219-1.203c-.764-3.608-2.076-6.888-4.152-9.949l-.655-.984 5.572-5.576-6.337-6.341-4.698 4.701-2.076-2.077 6.774-6.779 10.598 10.605-5.9 5.904a32.153 32.153 0 013.606 8.747h8.304v14.979h-8.304a32.146 32.146 0 01-3.606 8.746l5.9 5.904-10.598 10.606-6.009-6.014a32.1 32.1 0 01-8.741 3.608V131z" fill="#fff"/><path d="M97.748 99.621h-2.95V81.035l.983-.328c5.791-2.296 9.506-7.763 9.506-13.886 0-6.013-3.606-11.37-8.96-13.666v12.901l-6.01 4.483-6.009-4.483v-13.01c-5.354 2.295-8.96 7.762-8.96 13.666 0 6.232 3.716 11.699 9.507 13.885l.983.328v11.152h-2.95v-9.074c-6.337-2.952-10.49-9.184-10.49-16.291 0-7.981 5.355-15.088 13.003-17.275L87.368 49v15.525l2.95 2.296 2.95-2.296V49l1.857.547c7.649 2.186 13.003 9.293 13.003 17.274 0 7.107-4.043 13.339-10.49 16.291v16.51h.11z" fill="#fff"/></svg>