<svg width="180" height="180" fill="none" xmlns="http://www.w3.org/2000/svg"><circle cx="90" cy="90" r="90" fill="#00D0CD"/><path d="M168 90c0 43.078-34.922 78-78 78M27 44.002A77.715 77.715 0 0015.146 68 78.026 78.026 0 0012 90c0 7.64 1.098 15.023 3.146 22" stroke="#fff" stroke-width="3" stroke-linecap="round"/><path fill-rule="evenodd" clip-rule="evenodd" d="M70.808 14.505a1.5 1.5 0 01-1.039 1.85 76.522 76.522 0 00-19.927 8.833 77.025 77.025 0 00-10.345 7.749 1.5 1.5 0 01-1.994-2.241 80.005 80.005 0 0110.748-8.051 79.521 79.521 0 0120.707-9.179 1.5 1.5 0 011.85 1.039zm62.278 140.848a1.5 1.5 0 01-.475 2.067c-37.218 23.296-86.273 12.01-109.568-25.207a1.5 1.5 0 012.543-1.592c22.416 35.813 69.62 46.673 105.433 24.256a1.5 1.5 0 012.067.476z" fill="#fff"/><path d="M168 90c0-43.078-34.922-78-78-78" stroke="#fff" stroke-width="3" stroke-linecap="round"/><path d="M71.187 113.501H56.813c-3.17 0-5.813-2.683-5.813-5.903v-42.5c0-3.22 2.642-5.903 5.813-5.903h8.667v2.898h-8.667c-1.585 0-2.854 1.288-2.854 2.898v42.5c0 1.61 1.269 2.897 2.854 2.897h14.48v3.113h-.106zm52.001 0h-21.667v-2.897h21.667c1.585 0 2.853-1.288 2.853-2.898V54.903c0-1.61-1.268-2.898-2.853-2.898h-19.236c-1.163 0-2.22.43-3.065 1.288l-2.008 2.04-2.008-2.04 1.902-2.146c1.374-1.396 3.171-2.147 5.073-2.147h19.236c3.171 0 5.813 2.683 5.813 5.903v52.803c.106 3.22-2.537 5.795-5.707 5.795zm-40.373 17.602H79.96V134h2.854v-2.897z" fill="#fff"/><path d="M84.186 85.705c-8.773 0-15.854-7.19-15.854-16.099 0-8.907 7.081-16.098 15.854-16.098 8.772 0 15.853 7.19 15.853 16.098 0 8.908-7.081 16.099-15.853 16.099zm0-29.407c-7.187 0-13 5.903-13 13.201 0 7.298 5.813 13.2 13 13.2s13-5.902 13-13.2c0-7.298-5.813-13.2-13-13.2zm8.562 70.834l-2.643-.859 5.18-15.776c.316-1.074.528-2.147.528-3.22 0-1.395-.317-2.898-.846-4.186l-4.122-9.444c-.317-.751-.845-1.288-1.48-1.717l-2.959-1.718 1.48-2.575 2.96 1.717c1.162.751 2.113 1.717 2.642 3.005l4.121 9.444c.74 1.718 1.163 3.542 1.163 5.367 0 1.395-.211 2.79-.634 4.185l-5.39 15.777z" fill="#fff"/><path d="M85.668 83.88h2.854v14.167h-2.854V83.88zm-5.812 0h2.853v11.59h-2.853V83.88zm41.851 34.021h5.813v2.898h-5.813v-2.898zm-17.332 0h14.48v2.898h-14.48v-2.898zm18.815-13.2h-2.854v2.898h2.854v-2.898zm-5.813 0h-2.854v2.898h2.854v-2.898zm-5.711 0h-2.854v2.898h2.854v-2.898zm-5.812 0H103v2.898h2.854v-2.898zm-46.188 0h-2.853v2.898h2.853v-2.898zm5.813 0h-2.854v2.898h2.854v-2.898zm5.707 0h-2.854v2.898h2.854v-2.898zm7.084-39.388l-2.325-1.717c1.163-1.717 2.748-3.005 4.756-3.756l1.057 2.79c-1.48.537-2.642 1.503-3.487 2.683zm11.624 12.664l-1.585-2.469a7.329 7.329 0 003.17-6.01h2.854c0 3.434-1.691 6.547-4.439 8.479zm-5.707 1.825c-.529 0-.951 0-1.48-.107l.423-2.898c.634.107 1.374.107 2.114 0l.422 2.898c-.528.107-.95.107-1.48.107z" fill="#fff"/><path d="M80.063 127.454l-4.016-7.191a14.735 14.735 0 01-1.903-7.298c0-1.717.318-3.434.846-5.044l4.228-11.698c.74-1.932 2.536-3.22 4.544-3.22 2.643 0 4.862 2.254 4.862 4.937v.751c0 1.717-.951 6.654-1.69 9.23l-2.749-.859c.74-2.683 1.585-7.19 1.585-8.37v-.752c0-1.073-.845-1.932-1.902-1.932-.845 0-1.585.537-1.797 1.288l-4.227 11.698c-.423 1.288-.74 2.683-.74 4.078 0 2.04.528 4.079 1.585 5.903l4.017 7.191-2.643 1.288z" fill="#fff"/><path d="M98.665 134H95.81v-4.401c0-.858-.634-1.502-1.48-1.502H78.479c-.846 0-1.48.644-1.48 1.502V134h-2.854v-4.401c0-2.468 1.903-4.4 4.334-4.4h15.854c2.43 0 4.333 1.932 4.333 4.4V134z" fill="#fff"/></svg>