<svg width="180" height="180" fill="none" xmlns="http://www.w3.org/2000/svg"><circle cx="90" cy="90" r="90" fill="#00D0CD"/><path d="M168 90c0 43.078-34.922 78-78 78M27 44.002A77.715 77.715 0 0015.146 68 78.026 78.026 0 0012 90c0 7.64 1.098 15.023 3.146 22" stroke="#fff" stroke-width="3" stroke-linecap="round"/><path fill-rule="evenodd" clip-rule="evenodd" d="M70.808 14.505a1.5 1.5 0 01-1.039 1.85 76.522 76.522 0 00-19.927 8.833 77.019 77.019 0 00-10.345 7.749 1.5 1.5 0 01-1.994-2.241 80.005 80.005 0 0110.748-8.051 79.521 79.521 0 0120.707-9.179 1.5 1.5 0 011.85 1.039zm62.278 140.848a1.5 1.5 0 01-.475 2.067c-37.218 23.296-86.273 12.01-109.568-25.207a1.5 1.5 0 012.543-1.592c22.416 35.813 69.62 46.673 105.433 24.256a1.5 1.5 0 012.067.476z" fill="#fff"/><path d="M168 90c0-43.078-34.922-78-78-78" stroke="#fff" stroke-width="3" stroke-linecap="round"/><path d="M51.156 111.882H48V46h57.515v9.647h-3.156v-6.47H51.156v62.705z" fill="#fff"/><path d="M59.223 102.235H55.95V54h57.515v9.647h-3.156v-6.353H59.223v44.941zm-3.273 3.177h3.156v3.176H55.95v-3.176zm0 6.47h3.156v3.177H55.95v-3.177zm0 6.471h3.156v3.176H55.95v-3.176zm6.429 0h3.156v3.176H62.38v-3.176zm6.43 0h14.379v3.176h-14.38v-3.176zm57.399-51.412h3.156v3.177h-3.156V66.94zm-6.313-.001h3.156v3.177h-3.156v-3.176z" fill="#fff"/><path d="M89.5 75.529l-6.546-9.294-3.975 4h-7.014v-3.177h5.728l5.611-5.647 6.196 8.824 7.832-10.353 7.248 7.294h12.158v3.176h-13.56l-5.612-5.647L89.5 75.53zm14.381 43.413l-11.807-11.883 7.014-7.058 4.793 4.823 6.196-6.235 2.221 2.235-8.417 8.471-4.793-4.824-2.572 2.588 7.365 7.412 9.352-9.412 2.222 2.236-11.574 11.647zm12.271-16.825l3.507-3.53 2.222 2.236-3.508 3.53-2.221-2.236zM65.535 82.941h14.379v3.177H65.535V82.94zm17.652.001h3.156v3.176h-3.156v-3.176zm-17.652 6.47h14.379v3.177H65.535v-3.177z" fill="#fff"/><path d="M107.035 136c-1.403 0-2.806-.47-3.858-1.411L92.889 126c-4.091-3.412-6.663-8.117-7.364-13.294l-2.338-17.765v-.588c0-1.647.818-3.176 2.22-4.117l21.744-16.118 21.861 16.118c1.286.823 2.104 2.352 2.104 4v.588l-2.338 17.764c-.701 5.295-3.273 10-7.365 13.295l-10.404 8.588a5.834 5.834 0 01-3.974 1.529zm0-58L87.161 92.824c-.584.353-.818.823-.818 1.412v.235l2.338 17.765a17.62 17.62 0 006.196 11.294l10.404 8.588a2.968 2.968 0 003.624 0l10.404-8.588a17.624 17.624 0 006.196-11.294l2.338-17.765v-.236a1.68 1.68 0 00-.701-1.411L107.035 78z" fill="#fff"/></svg>