<svg width="180" height="180" fill="none" xmlns="http://www.w3.org/2000/svg"><circle cx="90" cy="90" r="90" fill="#00D0CD"/><path d="M168 90c0 43.078-34.922 78-78 78M27 44.002A77.715 77.715 0 0015.146 68 78.026 78.026 0 0012 90c0 7.64 1.098 15.023 3.146 22" stroke="#fff" stroke-width="3" stroke-linecap="round"/><path fill-rule="evenodd" clip-rule="evenodd" d="M70.808 14.505a1.5 1.5 0 01-1.039 1.85 76.522 76.522 0 00-19.927 8.833 77.019 77.019 0 00-10.345 7.749 1.5 1.5 0 01-1.994-2.241 80.005 80.005 0 0110.748-8.051 79.521 79.521 0 0120.707-9.179 1.5 1.5 0 011.85 1.039zm62.278 140.848a1.5 1.5 0 01-.475 2.067c-37.218 23.296-86.273 12.01-109.568-25.207a1.5 1.5 0 012.543-1.592c22.416 35.813 69.62 46.673 105.433 24.256a1.5 1.5 0 012.067.476z" fill="#fff"/><path d="M168 90c0-43.078-34.922-78-78-78" stroke="#fff" stroke-width="3" stroke-linecap="round"/><path d="M121.039 126H58.958V50h44.963l17.118 17.228V126zm-59.156-3.053h56.231v-54.41l-15.385-15.593H61.883v70.003z" fill="#fff"/><path d="M119.636 69.409h-17.769V51.526h2.926v14.83h14.843v3.053zm4.439 11.885h2.926v4.47h-2.926v-4.47zm0-31.294h2.926v28.35h-2.926V50zm-68.15 68.476H53v2.944h2.925v-2.944zm0-5.888H53v2.944h2.925v-2.944zm0-5.997H53v2.944h2.925v-2.944zm22.102 3.489L65.676 97.65l12.351-12.43 2.059 2.071L69.9 97.541l10.185 10.249-2.059 2.29zm23.946 0l-2.059-2.071 10.185-10.25-10.185-10.25 2.059-2.072 12.243 12.322-12.243 12.321zm-6.938-29.113l2.708 1.09-12.784 32.276-2.709-1.091 12.785-32.275z" fill="#fff"/></svg>