<svg width="180" height="180" fill="none" xmlns="http://www.w3.org/2000/svg"><circle cx="90" cy="90" r="90" fill="#00D0CD"/><path d="M168 90c0 43.078-34.922 78-78 78M27 44.002A77.715 77.715 0 0015.146 68 78.026 78.026 0 0012 90c0 7.64 1.098 15.023 3.146 22" stroke="#fff" stroke-width="3" stroke-linecap="round"/><path fill-rule="evenodd" clip-rule="evenodd" d="M70.808 14.505a1.5 1.5 0 01-1.039 1.85 76.522 76.522 0 00-19.927 8.833 77.019 77.019 0 00-10.345 7.749 1.5 1.5 0 01-1.994-2.241 80.005 80.005 0 0110.748-8.051 79.521 79.521 0 0120.707-9.179 1.5 1.5 0 011.85 1.039zm62.278 140.848a1.5 1.5 0 01-.475 2.067c-37.218 23.296-86.273 12.01-109.568-25.207a1.5 1.5 0 012.543-1.592c22.416 35.813 69.62 46.673 105.433 24.256a1.5 1.5 0 012.067.476z" fill="#fff"/><path d="M168 90c0-43.078-34.922-78-78-78" stroke="#fff" stroke-width="3" stroke-linecap="round"/><path d="M103.254 76.121h3.177v6.418h-3.177V76.12zm0-9.568h3.177v6.417h-3.177v-6.417zm-19.302 4.784h3.178v6.417h-3.178v-6.417zm0-9.568h3.178v6.417h-3.178v-6.417zm19.302-4.784h3.177v6.418h-3.177v-6.418z" fill="#fff"/><path d="M127.025 100.857l-1.53-2.8a15.893 15.893 0 008.356-14.002c0-8.75-7.179-15.985-16.123-15.985h-3.177v-1.634c0-12.251-10.003-22.286-22.243-22.286-10.591 0-19.77 7.468-21.771 17.852l-3.178-.583C69.713 49.634 80.187 41 92.31 41c13.533 0 24.595 10.618 25.419 23.92 10.592 0 19.3 8.634 19.3 19.135 0 7-3.883 13.418-10.003 16.802z" fill="#fff"/><path d="M56.768 99.69C50.648 95.608 47 88.957 47 81.606c0-11.901 9.768-21.469 21.654-21.469 4.59 0 9.062 1.4 12.71 4.084l-1.883 2.567c-3.178-2.334-6.944-3.5-10.827-3.5-10.239 0-18.476 8.167-18.476 18.318 0 6.184 3.177 11.902 8.355 15.285l-1.765 2.8zm67.429 32.204H59.824c-3.53 0-6.472-2.917-6.472-6.417v-6.417h77.2v6.417c0 3.5-2.824 6.417-6.355 6.417zm-67.55-9.567v3.15c0 1.75 1.412 3.15 3.177 3.15h64.256c1.765 0 3.177-1.4 3.177-3.15v-3.15h-70.61z" fill="#fff"/><path d="M64.652 125.476h3.177v4.784h-3.177v-4.784zm6.474 0h3.177v4.784h-3.177v-4.784zm-6.472-4.783h-3.177V85.572c0-2.684 2.118-4.784 4.825-4.784h8.002v3.15h-8.002c-.942 0-1.648.7-1.648 1.634v35.121zm57.897 0h-3.178V85.572c0-.934-.706-1.633-1.647-1.633h-1.648v-3.15h1.648c2.706 0 4.825 2.1 4.825 4.783v35.121zm-28.948-9.568H77.598V95.14H93.72v15.985h-.117zm-12.828-3.151h9.65v-9.567h-9.65v9.567zM93.603 91.99H77.598V76.12H93.72v15.87h-.117zm-12.828-3.15h9.65v-9.57h-9.65v9.568zm32.129 7.933H96.781V80.904h16.123v15.869zm-12.828-3.15h9.651v-9.568h-9.651v9.567zm-28.95 9.568h3.177v4.783h-3.177v-4.783z" fill="#fff"/><path d="M71.126 87.205h3.177v12.719h-3.177V87.205z" fill="#fff"/></svg>