<svg width="36" height="36" fill="none" xmlns="http://www.w3.org/2000/svg"><path d="M17.682 3.415a6.975 6.975 0 00-6.967 6.967 6.946 6.946 0 002.787 5.573v3.957h2.229V13.13l-1.996-3.194.73-.438a6.241 6.241 0 016.434 0l.73.438-1.997 3.194v6.783h2.23v-3.957a6.946 6.946 0 002.787-5.573 6.975 6.975 0 00-6.967-6.967z" fill="#00D0CD"/><path d="M16.096 10.56l1.305 2.09v7.262h.558V12.65l1.306-2.09a4.568 4.568 0 00-3.17 0zm13.347-2.91H25.88c.287.859.443 1.777.443 2.731 0 1.34-.316 2.68-.913 3.871a8.674 8.674 0 01-1.874 2.484v3.176h8.416v-9.754a2.51 2.51 0 00-2.508-2.508zM3.414 21.584v2.509A2.511 2.511 0 005.922 26.6h23.52a2.51 2.51 0 002.509-2.508v-2.509H3.414zm16.22 2.509h-3.902V22.42h3.901v1.672zm-9.678-9.841a8.684 8.684 0 01-.913-3.87c0-.955.156-1.873.443-2.732H5.922a2.51 2.51 0 00-2.508 2.508v9.754h8.416v-3.176a8.673 8.673 0 01-1.874-2.484zm12.725 14.021h-9.999l-.766 3.678h11.531l-.766-3.678z" fill="#00D0CD"/></svg>