<svg width="210" height="124" fill="none" xmlns="http://www.w3.org/2000/svg"><g clip-path="url(#clip0)"><path d="M64.08 19.285l.025 2.46c0 .718.623 1.243 1.343 1.172l1.344-.12a16.31 16.31 0 00.912 3.298l-1.104.74c-.624.43-.84 1.243-.456 1.816l1.272 2.008c.384.597 2.063.86 2.687.43l.168-.837c.768.86 1.632 1.625 2.567 2.27l-.575 1.052c-.36.645-.12 1.433.503 1.72l2.16 1.004c.624.286 2.64.239 3-.407l-.673-1.266c1.128.31 2.28.526 3.503.574l.024 1.075c0 .717.6 1.218 1.32 1.147l2.448-.263c.72-.072 1.295-.717 1.271-1.41l-.024-1.075c1.2-.31 2.352-.74 3.431-1.267l.576.885c.36.573 2.448.788 3.071.358l.792-1.482c.6-.406.816-1.218.456-1.792l-.576-.932a20.112 20.112 0 002.424-2.724l1.031.478c.624.287 2.424.359 2.76-.286l.168-2.557c.336-.645.12-1.41-.504-1.697l-1.08-.501c.384-1.1.648-2.246.792-3.393l1.296-.12c.695-.072 1.271-.693 1.271-1.386l-.024-2.39c0-.692-.6-1.218-1.295-1.17l-1.368.12a15.497 15.497 0 00-.96-3.155l1.224-.812c.6-.406.816-1.195.432-1.792l.12-2.39c-.36-.573-2.52-.31-3.12.096l-1.271.86a13.532 13.532 0 00-2.424-2.103l.744-1.385c.336-.646.12-1.41-.504-1.72l-.96-1.267c-.623-.31-2.567.19-2.927.836l-.767 1.41a15.829 15.829 0 00-3.24-.574l-.024-1.577c0-.717-.6-1.242-1.32-1.17l-2.447.19c-.72.048-1.296.694-1.296 1.386l.025 1.578a16.743 16.743 0 00-3.24 1.123l.408-1.697c-.384-.597-2.4-.334-3.023.072l-2.135 1.386c-.624.406-.84 1.218-.456 1.816l.791 1.266a16.152 16.152 0 00-2.399 2.557l.024-.837c-.648-.31-2.807.168-3.167.837l-1.224 2.222c-.36.645-.12 1.434.504 1.744l1.272.598a17.915 17.915 0 00-.912 3.369l-1.416.12c-.672.143-1.272.764-1.248 1.48zm9.142.645c-.072-5.4 4.295-10.155 9.742-10.61 5.422-.477 9.862 3.465 9.933 8.818.072 5.328-4.223 10.083-9.645 10.609-5.447.502-9.958-3.417-10.03-8.817z" fill="#455571"/><path d="M65.712 19.188l.048 2.461c0 .717.623 1.243 1.343 1.171l1.344-.12c.192 1.148.504 2.27.912 3.298l-1.104.74c-.624.43-.84 1.243-.456 1.817l1.272 2.007c.384.597 1.2.717 1.823.287l1.032-.693c.768.86 1.632 1.625 2.567 2.27l-.575 1.051c-.36.645-.12 1.434.503 1.72l2.16 1.004c.624.287 1.44 0 1.8-.645l.551-1.004c1.128.31 2.28.526 3.504.574l.023 1.075c0 .717.6 1.219 1.32 1.147l2.448-.263c.72-.072 1.295-.717 1.271-1.41l-.024-1.075c1.2-.31 2.352-.74 3.431-1.266l.576.884c.36.573 1.152.717 1.776.286l2.087-1.41c.6-.406.816-1.218.456-1.791l-.576-.932a20.106 20.106 0 002.424-2.724l1.032.478c.623.286 1.391 0 1.751-.645l1.176-2.199c.336-.645.12-1.41-.504-1.696l-1.08-.502c.384-1.1.648-2.246.792-3.393l1.296-.12c.696-.071 1.271-.693 1.271-1.386l-.024-2.389c0-.693-.599-1.219-1.295-1.17l-1.368.119c-.216-1.1-.528-2.15-.96-3.154l1.224-.813c.6-.406.816-1.195.432-1.792l-1.248-1.983c-.36-.574-1.151-.717-1.751-.31l-1.272.86a13.531 13.531 0 00-2.424-2.103l.744-1.386c.336-.645.12-1.41-.504-1.72l-2.135-1.028c-.624-.31-1.416-.024-1.752.621l-.767 1.41a15.826 15.826 0 00-3.24-.574V1.195c0-.716-.6-1.242-1.32-1.17l-2.447.19c-.72.049-1.295.694-1.295 1.387l.024 1.577a16.74 16.74 0 00-3.24 1.123l-.815-1.29c-.384-.598-1.176-.741-1.8-.335l-2.135 1.386c-.624.406-.84 1.218-.456 1.816l.791 1.266a16.162 16.162 0 00-2.399 2.557l-1.344-.645c-.647-.31-1.44-.024-1.8.621L67.584 11.9c-.36.645-.12 1.434.504 1.745l1.272.597a17.913 17.913 0 00-.912 3.369l-1.416.12c-.744.095-1.32.74-1.32 1.457zm9.141.645c-.072-5.4 4.295-10.155 9.742-10.609 5.423-.478 9.862 3.465 9.934 8.817.072 5.329-4.223 10.084-9.646 10.61-5.423.501-9.934-3.442-10.03-8.818z" fill="url(#paint0_linear)"/><path d="M41.337 64.54l.048 3.034a1.495 1.495 0 001.68 1.457l1.655-.143c.24 1.434.624 2.796 1.152 4.086l-1.367.908c-.792.526-1.032 1.53-.576 2.27l1.583 2.485c.456.717 2.568 1.075 3.335.55l.192-1.052a18.667 18.667 0 003.168 2.82l-.696 1.314c-.432.812-.168 1.768.624 2.126l2.687 1.243c.792.358 3.287.31 3.719-.502l-.816-1.553c1.392.406 2.831.645 4.343.717l.024 1.338c.024.884.744 1.53 1.656 1.434l3.047-.31c.888-.097 1.608-.885 1.584-1.77l-.024-1.337a22.309 22.309 0 004.27-1.577l.696 1.099c.456.717 3.048.98 3.815.454l.984-1.864c.768-.526 1.008-1.505.552-2.222l-.72-1.147a23.752 23.752 0 003-3.393l1.271.597c.768.359 3 .454 3.431-.334l.192-3.178c.432-.789.144-1.745-.624-2.103l-1.343-.645c.48-1.362.792-2.772.983-4.23l1.608-.143c.888-.072 1.584-.86 1.56-1.72l-.048-2.987c-.024-.884-.744-1.505-1.608-1.434l-1.68.144a19.548 19.548 0 00-1.2-3.92l1.513-1.003c.743-.501 1.007-1.505.551-2.222l.144-2.963c-.456-.717-3.119-.382-3.863.12l-1.583 1.051a17.492 17.492 0 00-3-2.628l.912-1.72c.432-.79.144-1.745-.624-2.127l-1.2-1.553c-.767-.383-3.19.238-3.622 1.05l-.96 1.745a19.782 19.782 0 00-4.007-.717l-.024-1.959c-.024-.884-.744-1.53-1.632-1.458l-3.047.24c-.888.071-1.608.86-1.608 1.72l.024 1.96a20.883 20.883 0 00-4.007 1.385l.504-2.079c-.456-.74-2.975-.43-3.767.096l-2.64 1.744c-.767.502-1.031 1.505-.575 2.246l.984 1.577c-1.104.956-2.088 2.031-3 3.178l.024-1.027c-.791-.383-3.479.215-3.91 1.027l-1.512 2.772c-.456.812-.168 1.768.648 2.15l1.583.741a22.416 22.416 0 00-1.128 4.182l-1.751.167c-.864.096-1.608.884-1.584 1.792zm11.35.788c-.096-6.69 5.326-12.593 12.093-13.166 6.718-.574 12.213 4.3 12.308 10.92.096 6.618-5.23 12.496-11.949 13.165-6.766.646-12.357-4.229-12.453-10.92z" fill="#455571"/><path d="M43.377 64.395l.048 3.035a1.495 1.495 0 001.68 1.457l1.655-.143a19.06 19.06 0 001.152 4.086l-1.368.908c-.792.526-1.032 1.53-.576 2.27l1.584 2.485c.456.717 1.487.884 2.255.359l1.296-.86a18.674 18.674 0 003.167 2.819l-.696 1.314c-.432.813-.168 1.768.624 2.127l2.687 1.242c.792.359 1.776 0 2.232-.812l.672-1.243c1.391.407 2.831.645 4.343.717l.024 1.338c.024.884.743 1.53 1.655 1.434l3.047-.31c.888-.096 1.608-.885 1.584-1.769l-.024-1.338a22.311 22.311 0 004.271-1.577l.696 1.099c.456.717 1.44.884 2.207.358l2.592-1.768c.767-.525 1.007-1.505.552-2.222l-.72-1.147a23.758 23.758 0 002.999-3.393l1.272.597c.767.359 1.727 0 2.16-.788l1.463-2.724c.432-.789.144-1.744-.624-2.103l-1.344-.645c.48-1.362.792-2.772.984-4.23l1.608-.143c.887-.071 1.583-.86 1.56-1.72l-.049-2.987c-.024-.884-.744-1.505-1.607-1.434l-1.68.144a19.532 19.532 0 00-1.2-3.919l1.512-1.003c.744-.502 1.008-1.506.552-2.223l-1.536-2.46c-.456-.718-1.44-.885-2.183-.383l-1.584 1.051a17.5 17.5 0 00-3-2.628l.913-1.72c.431-.79.144-1.745-.624-2.127l-2.64-1.29c-.767-.383-1.751-.024-2.183.764l-.96 1.744a19.787 19.787 0 00-4.007-.716l-.024-1.96c-.024-.884-.744-1.529-1.631-1.457l-3.048.239c-.887.071-1.607.86-1.607 1.72l.024 1.96a20.885 20.885 0 00-4.007 1.385l-1.008-1.6c-.456-.741-1.464-.909-2.232-.407l-2.639 1.744c-.768.502-1.032 1.506-.576 2.246l.984 1.578c-1.104.955-2.087 2.03-3 3.178l-1.655-.789c-.792-.382-1.8-.024-2.231.788l-1.512 2.844c-.456.812-.168 1.768.648 2.15l1.584.741a22.4 22.4 0 00-1.128 4.182l-1.752.167c-.912.096-1.631.884-1.631 1.768zm11.349.789c-.096-6.69 5.327-12.593 12.093-13.166 6.718-.574 12.213 4.3 12.309 10.92.096 6.618-5.23 12.497-11.95 13.166-6.765.669-12.356-4.23-12.452-10.92z" fill="url(#paint1_linear)"/></g><ellipse opacity=".5" cx="97.222" cy="108.112" rx="59.889" ry="4.263" fill="url(#paint2_radial)"/><g clip-path="url(#clip1)"><path d="M134.64 63.722c-1.248 0-2.72.496-2.009 1.577 3.631 5.54-.549 10.768-3.93 11.03-1.996.148-4.005-.336-5.44-1.491a96.186 96.186 0 00-3.144 3.639 4.433 4.433 0 01-.287 3.415c-3.195 6.21-7.399 4.67-9.782 3.031-.787-.534-1.847.075-1.847 1.056v13.7l36.795-1.43V62.704l-10.356 1.019z" fill="url(#paint3_linear)"/><path d="M68.522 62.53l11.591-.026c1.31 0 2.11-1.39 1.523-2.558-.687-1.341-1.323-3.155-1.323-5.303 0-4.733 6.301-5.8 8.322-5.937 1.822-.125 9.046 3.303 4.58 11.165-.65 1.143.162 2.571 1.447 2.571l12.851-.024v-12.11c0-1.006 1.111-1.565 1.897-.956 3.705 2.831 8.933.434 9.807-1.64 1.048-2.46 1.322-7.514-3.993-9.104-2.807-.845-4.854-.161-6.176.683-.786.497-1.809-.112-1.809-1.068L69.832 25.269l-1.31.385v36.875z" fill="url(#paint4_linear)"/><path d="M110.046 84.923c2.383 1.64 6.588 3.192 9.782-3.03 1.66-3.217-.948-7.117-5.515-7.502-2.283-.186-3.967.373-5.09.994-.774.422-1.71-.174-1.71-1.081V62.405l-12.851.025c-1.298 0-2.096-1.428-1.448-2.57 4.467-7.863-2.757-11.29-4.579-11.167-2.02.137-8.322 1.193-8.322 5.937 0 2.149.624 3.962 1.323 5.304.599 1.167-.212 2.558-1.522 2.558l-11.592.038v37.397l1.31 1.292 38.367-15.24c0-.981 1.074-1.602 1.847-1.056z" fill="#154B93"/><path d="M111.356 84.923c2.383 1.64 6.588 3.192 9.782-3.03 1.659-3.217-.949-7.117-5.515-7.502-2.283-.186-3.968.373-5.091.994-.773.422-1.709-.174-1.709-1.08v-11.9l-12.852.025c-1.297 0-2.096-1.428-1.447-2.57 4.467-7.863-2.757-11.29-4.58-11.167-2.02.137-8.321 1.193-8.321 5.937 0 2.149.623 3.962 1.322 5.304.6 1.167-.212 2.558-1.522 2.558l-11.591.038v38.701l39.677-1.54V85.98c0-.981 1.061-1.602 1.847-1.056z" fill="#00D0CD"/><path opacity=".6" d="M124.83 57.027l-2.919-.012c-.375 0-.674-.323-.674-.708v-7.191c0-5.117-3.98-9.353-8.934-9.452l-5.627-.112c-5.053-.1-9.196 4.062-9.196 9.303v7.365c0 .398-.312.72-.71.72l-3.083-.012a.715.715 0 01-.71-.733v-7.402c0-7.813 6.175-13.985 13.711-13.8l5.628.137c7.336.187 13.2 6.459 13.2 14.023v7.166c-.012.398-.312.708-.686.708zm1.684 1.379l-34.623-.062c-1.71 0-3.095 1.404-3.095 3.142v17.476c0 7.092 5.64 12.68 12.527 12.47l16.233-.497c6.575-.199 11.841-5.887 11.841-12.706V61.437c0-1.665-1.285-3.03-2.883-3.03zM112.79 82.253l-6.613.15 1.759-7.776c-1.585-.621-2.695-2.198-2.695-4.061 0-2.435 1.909-4.422 4.255-4.434 2.333-.013 4.229 1.925 4.229 4.347 0 1.85-1.11 3.44-2.67 4.098l1.735 7.676z" fill="#fff"/><path opacity=".3" d="M71.616 99.306V64.368l9.807-.037c1.248 0 2.37-.646 3.007-1.714a3.566 3.566 0 00.112-3.515c-.736-1.441-1.11-2.944-1.11-4.46 0-3.576 6.3-4.11 6.625-4.135.536.012 2.608.795 3.593 2.546.886 1.565.662 3.552-.673 5.9a3.558 3.558 0 000 3.527 3.399 3.399 0 002.994 1.751l11.117-.05V74.33c0 .82.312 1.577.886 2.149a2.786 2.786 0 002.021.82 2.86 2.86 0 001.31-.348c.949-.522 2.059-.808 3.269-.82.287 0 .574 0 .874.025 1.884.149 3.469 1.08 4.167 2.422.3.584.549 1.49.038 2.509-1.186 2.297-2.558 3.49-4.105 3.527-1.223.025-2.433-.621-3.232-1.18a2.755 2.755 0 00-1.634-.497c-1.597.038-2.908 1.416-2.908 3.08v11.949l-36.158 1.341z" fill="#fff"/><path d="M69.832 62.53l11.591-.026c1.31 0 2.109-1.39 1.522-2.558-.686-1.341-1.322-3.155-1.322-5.303 0-4.733 6.3-5.8 8.322-5.937 1.822-.125 9.046 3.303 4.579 11.165-.649 1.143.162 2.571 1.447 2.571l12.852-.024v-12.11c0-1.006 1.11-1.565 1.896-.956 3.706 2.831 8.934.434 9.807-1.64 1.048-2.46 1.323-7.514-3.992-9.104-2.808-.845-4.854-.161-6.177.683-.786.497-1.809-.112-1.809-1.068V26.548l-38.716-1.28V62.53z" fill="#986BD1"/><g opacity=".7" fill="#fff"><path opacity=".6" d="M124.83 57.027l-2.919-.012c-.375 0-.674-.323-.674-.708v-7.192c0-5.117-3.98-9.352-8.934-9.452l-5.627-.111c-5.053-.1-9.196 4.061-9.196 9.303v7.365c0 .397-.312.72-.71.72l-3.083-.012a.715.715 0 01-.71-.733v-7.403c0-7.812 6.175-13.985 13.711-13.799l5.628.137c7.336.186 13.2 6.459 13.2 14.023v7.166c-.012.398-.312.708-.686.708z"/><path opacity=".7" d="M126.514 58.406l-34.623-.062c-1.71 0-3.095 1.403-3.095 3.142v17.475c0 7.092 5.64 12.681 12.527 12.47l16.233-.497c6.575-.198 11.841-5.887 11.841-12.706V61.436c0-1.664-1.285-3.03-2.883-3.03zM112.79 82.253l-6.613.149 1.759-7.775c-1.585-.621-2.695-2.199-2.695-4.062 0-2.434 1.909-4.421 4.255-4.434 2.333-.012 4.229 1.925 4.229 4.347 0 1.85-1.11 3.44-2.67 4.099l1.735 7.676z"/></g><path opacity=".3" d="M72.265 60.095V27.777l33.988 1.044v9.327c0 .981.374 1.913 1.06 2.608a3.474 3.474 0 002.396 1.044 3.311 3.311 0 001.834-.522 4.775 4.775 0 012.645-.733 7.011 7.011 0 011.747.286c1.335.397 2.196 1.056 2.633 2 .561 1.23.362 2.856-.088 3.912-.237.46-1.921 1.59-3.917 1.565-.974-.012-1.822-.298-2.533-.844a3.409 3.409 0 00-2.034-.72c-1.909-.026-3.456 1.552-3.456 3.526v9.788h-9.495c1.984-4.136 1.21-7.18.15-9.067-1.772-3.155-5.316-4.67-7.15-4.683-.1 0-.2 0-.287.013-5.215.323-10.543 3.018-10.543 8.309 0 1.863.387 3.701 1.135 5.465h-8.085z" fill="#fff"/><path d="M146.305 62.703l-11.08.025c-1.248 0-1.996 1.49-1.285 2.584 3.631 5.54-.549 10.768-3.931 11.029-3.917.298-7.873-1.888-7.498-6.645.162-2.062.711-3.714 1.285-4.918.524-1.106-.25-2.398-1.423-2.398l-13.55.025v11.886c0 .907.924 1.503 1.71 1.081 1.123-.62 2.807-1.18 5.09-.993 4.579.384 7.175 4.284 5.515 7.501-3.194 6.21-7.399 4.67-9.782 3.03-.786-.533-1.847.075-1.847 1.057v13.7l36.796-1.43V62.704z" fill="url(#paint5_linear)"/><path opacity=".7" d="M124.833 57.027l-2.92-.012c-.374 0-.673-.323-.673-.708v-7.191c0-5.117-3.981-9.353-8.934-9.452l-5.627-.112c-5.053-.1-9.196 4.062-9.196 9.303v7.365c0 .398-.312.72-.711.72l-3.082-.012a.715.715 0 01-.711-.733v-7.402c0-7.813 6.176-13.985 13.712-13.8l5.628.137c7.336.187 13.2 6.459 13.2 14.023v7.166c-.012.398-.312.708-.686.708z" fill="#fff"/><path opacity=".6" d="M126.748 58.437l-34.624-.062c-1.71 0-3.095 1.404-3.095 3.142v17.476c0 7.092 5.64 12.68 12.527 12.47l16.233-.497c6.576-.199 11.841-5.887 11.841-12.706V61.468c0-1.665-1.285-3.03-2.882-3.03zm-13.725 23.847l-6.613.15 1.759-7.776c-1.584-.62-2.695-2.198-2.695-4.061 0-2.435 1.909-4.422 4.255-4.434 2.333-.013 4.23 1.925 4.23 4.347 0 1.85-1.111 3.44-2.671 4.098l1.735 7.676z" fill="#fff"/><path opacity=".3" d="M111.767 97.257v-9.402c1.273.596 2.545.882 3.781.844 2.121-.062 5.14-1.105 7.523-5.75 1.036-2.013 1.023-4.323-.012-6.36l-.038-.074c1.66 1.416 3.956 2.186 6.439 2.136.224 0 .449-.012.673-.037 2.608-.199 5.216-2.236 6.513-5.068 1.236-2.707 1.111-5.775-.336-8.557l7.885-.037v31.1l-32.428 1.205zm9.42-23.015c-1.41-1.217-3.281-1.987-5.365-2.174-.412-.037-.836-.05-1.248-.05a11.07 11.07 0 00-3.493.585V64.74l10.331-.05a16.787 16.787 0 00-1.111 4.819c-.137 1.751.163 3.353.886 4.732z" fill="#fff"/><path d="M118.629 38.831c1.435-.832 2.995-1.627 5.69-.795 5.115 1.578 4.142 6.558 2.77 8.993-1.161 2.05-6.152 4.235-9.483 1.44-.711-.596-2.445.137-2.57 1.13l-1.473 11.477.724.472 12.689-.025c1.173 0 1.785 1.267 1.111 2.36a15.388 15.388 0 00-1.947 4.856c-1.01 4.695 2.646 6.856 6.613 6.558 3.407-.248 8.298-5.415 5.415-10.88-.561-1.068.387-2.546 1.635-2.546l11.08-.025 4.691-34.466-36.77-1.23-.911.621-1.522 10.88c-.125.957 1.397 1.677 2.258 1.18z" fill="#299194"/><path d="M118.916 38.707c1.435-.832 3.581-1.503 6.276-.67 5.115 1.577 4.142 6.557 2.77 8.992-1.161 2.05-6.7 4.421-10.032 1.627-.711-.596-1.884-.05-2.021.944l-1.622 11.948 13.562-.025c1.173 0 1.785 1.267 1.111 2.36a15.365 15.365 0 00-1.946 4.856c-1.011 4.695 2.645 6.856 6.612 6.558 3.407-.248 8.298-5.415 5.415-10.88-.561-1.068.387-2.546 1.635-2.546l11.08-.025 4.691-34.466-37.643-1.23-1.56 11.501c-.137.957.811 1.553 1.672 1.056z" fill="#00D0CD"/><path opacity=".3" d="M133.351 73.062c-1.647.025-3.056-.522-3.768-1.441-.524-.696-.661-1.577-.411-2.708.312-1.44.848-2.782 1.609-4.011.749-1.218.886-2.633.35-3.801-.537-1.167-1.647-1.863-2.97-1.863h-11.292l1.048-7.738c1.011.472 2.159.72 3.394.733 3.444.025 7.199-1.85 8.547-4.26 1.085-1.925 1.934-4.956 1.06-7.651-.486-1.503-1.721-3.503-4.853-4.484a9.808 9.808 0 00-2.833-.472 9.743 9.743 0 00-3.481.56l.999-7.391 33.264 1.006-4.093 30.07h-8.971c-1.385 0-2.757.795-3.581 2.086-.823 1.28-.936 2.82-.312 4 1.123 2.123.587 3.85-.062 4.918-.886 1.478-2.321 2.347-3.219 2.41-.138.024-.287.024-.425.037z" fill="#fff"/></g><defs><linearGradient id="paint0_linear" x1="65.073" y1="18.815" x2="104.434" y2="18.815" gradientUnits="userSpaceOnUse"><stop stop-color="#B4CCE7"/><stop offset="1" stop-color="#DBECFF"/></linearGradient><linearGradient id="paint1_linear" x1="42.585" y1="63.876" x2="91.398" y2="63.876" gradientUnits="userSpaceOnUse"><stop stop-color="#B4CCE7"/><stop offset="1" stop-color="#DBECFF"/></linearGradient><linearGradient id="paint3_linear" x1="188.996" y1="-15.978" x2="69.57" y2="192.484" gradientUnits="userSpaceOnUse"><stop stop-color="#311944"/><stop offset="1" stop-color="#893976"/></linearGradient><linearGradient id="paint4_linear" x1="68.47" y1="43.877" x2="85.76" y2="44.368" gradientUnits="userSpaceOnUse"><stop stop-color="#40447E"/><stop offset=".996" stop-color="#3C3B6B"/></linearGradient><linearGradient id="paint5_linear" x1="184.998" y1="-19.015" x2="65.572" y2="189.447" gradientUnits="userSpaceOnUse"><stop stop-color="#FFC444"/><stop offset=".996" stop-color="#F36F56"/></linearGradient><clipPath id="clip0"><path fill="#fff" d="M41.335 0h62.073v87.072H41.335z"/></clipPath><clipPath id="clip1"><path fill="#fff" d="M68.522 25.269h87.889v75.95H68.522z"/></clipPath><radialGradient id="paint2_radial" cx="0" cy="0" r="1" gradientUnits="userSpaceOnUse" gradientTransform="matrix(0 4.2625 -59.8889 0 97.222 108.112)"><stop stop-color="#7A9DC4"/><stop offset="1" stop-color="#7A9DC4" stop-opacity="0"/></radialGradient></defs></svg>