<svg width="36" height="36" fill="none" xmlns="http://www.w3.org/2000/svg"><path d="M32.585 21.148V5.951H4.05v15.197h6.54v1.672H4.05v3.828h9.27v1.895h-1.542v1.672h13.08v-1.672h-1.542v-1.895h9.27V22.82h-6.54v-1.672h6.54zm-8.667 1.672H12.716v-6.829h1.678v-2.568A3.928 3.928 0 0118.317 9.5a3.934 3.934 0 013.923 3.895v2.597h1.678v6.828z" fill="#00D0CD"/><path d="M20.569 13.407a2.257 2.257 0 00-2.251-2.235 2.254 2.254 0 00-2.252 2.251v2.569h4.503v-2.585zm-1.413 4.257v1.73h-1.672v-1.73H14.39v3.484h7.858v-3.484h-3.093z" fill="#00D0CD"/></svg>