<svg width="36" height="36" fill="none" xmlns="http://www.w3.org/2000/svg"><path d="M10.386 25.564H8.46l-.839-1.452 2.032-3.52c-.031-.46-.053-.926-.066-1.398H2a16.407 16.407 0 004.812 10.72 16.412 16.412 0 008.512 4.537c-2.203-1.581-3.97-4.777-4.938-8.887zM30.188 6.537A16.411 16.411 0 0021.676 2c3.246 2.328 5.545 8.162 5.737 15.257H35a16.407 16.407 0 00-4.812-10.72zm-23.376.001A16.407 16.407 0 002 17.257h7.587C9.779 10.163 12.078 4.329 15.324 2a16.41 16.41 0 00-8.512 4.538zm20.601 12.656c-.012.472-.035.938-.066 1.399l2.032 3.518-.839 1.453h-1.926c-.968 4.11-2.735 7.306-4.938 8.886a16.41 16.41 0 008.512-4.537A16.408 16.408 0 0035 19.193h-7.587zM23.255 7.09C21.942 4.395 20.21 2.849 18.5 2.849s-3.444 1.546-4.757 4.243c-1.33 2.73-2.107 6.31-2.219 10.166h.055L17.66 6.722h1.677l6.083 10.535h.054c-.112-3.856-.89-7.436-2.219-10.166zM12.38 25.564c.354 1.384.81 2.663 1.362 3.796 1.313 2.697 3.047 4.243 4.756 4.243 1.71 0 3.444-1.547 4.757-4.243.552-1.133 1.008-2.412 1.361-3.796H12.381z" fill="#fff"/><path d="M18.501 9.143L10.14 23.627h16.725L18.5 9.143zm1.395 5.363l-.465 4.463h-1.86l-.464-4.463h2.789zM18.5 21.841c-.806 0-1.363-.558-1.363-1.24 0-.692.557-1.219 1.363-1.219.806 0 1.364.527 1.364 1.22 0 .681-.558 1.239-1.364 1.239z" fill="#fff"/></svg>