<svg width="180" height="100" fill="none" xmlns="http://www.w3.org/2000/svg"><g clip-path="url(#clip0)" fill="#023470"><path d="M124.524 49.037H78.24c-.043.407-.13.792-.15 1.199-.345 5.308 1.333 9.931 4.968 13.805 2.688 2.868 6 4.666 9.872 5.415 3.613.707 7.119.322 10.517-1.048.172-.065.366-.086.559-.129 0 .022.022.043.022.064-.086.065-.151.107-.237.172-2.043 1.263-4.28 2.033-6.646 2.461-1.85.343-3.72.407-5.592.257-3.484-.321-6.71-1.391-9.657-3.296-4.624-2.997-7.656-7.15-9.076-12.457-.516-1.905-.71-3.875-.645-5.844v-.45h-1.549c-.495 6.914 2.323 16.032 10.97 21.833 8.516 5.715 20.883 5.929 30.196-2.226-.129.15-.258.3-.409.428-4.108 4.152-9.033 6.72-14.775 7.748a26.51 26.51 0 01-6.883.343c-5.807-.471-10.99-2.526-15.485-6.207-4.582-3.746-7.614-8.498-9.141-14.213a26.337 26.337 0 01-.882-5.929c-.022-.514 0-1.049 0-1.562 0-.15-.022-.236-.215-.236-.387.022-.774 0-1.162 0-.602 8.926 3.291 21.704 16.131 28.639 6.861 3.703 14.152 4.645 21.744 2.847 7.593-1.798 13.572-6.015 18.131-12.286-.064.085-.107.192-.172.278a32.31 32.31 0 01-6.99 7.62c-4.43 3.51-9.442 5.758-14.99 6.806a32.5 32.5 0 01-5.205.535c-7.14.172-13.722-1.669-19.68-5.607-6.302-4.174-10.668-9.868-13.163-16.974a31.018 31.018 0 01-1.634-7.663c-.108-1.412-.215-2.825-.172-4.216.193-7.02 2.301-13.4 6.474-19.071 4.323-5.865 9.958-9.932 16.905-12.2a32.59 32.59 0 017.312-1.477 33.628 33.628 0 015.872-.022c7.226.62 13.636 3.232 19.142 7.92 5.764 4.901 9.442 11.109 11.141 18.45a32.51 32.51 0 01.817 6.1c.021.022.021.086.021.193zm-14.689-4.752c-2.345-7.94-10.109-16.203-21.615-17.102-6.087-.47-11.636 1.092-16.54 4.688-4.904 3.596-8.044 8.369-9.506 14.32v-.13c.064-.32.107-.62.172-.941 1.183-5.715 3.871-10.616 8.173-14.598 5.742-5.308 12.582-7.748 20.41-7.427 2.689.107 5.291.6 7.808 1.52 7.872 2.847 13.421 8.133 16.647 15.839.408 1.006.688 2.055 1.032 3.082.022.086.108.214.172.214.387-.021.753-.064 1.14-.086-3.033-13.805-17.034-25.77-34.498-23.244-16.561 2.375-25.896 16.395-26.24 28.617.258-.021.517-.021.775-.043 1.247-.107 2.516-.235 3.764-.342.171-.022.236-.086.236-.257.022-.279.086-.557.108-.814h.021c-.021.322-.043.664-.086 1.006h.172c1.7-.15 3.398-.32 5.076-.492.065 0 .172-.128.194-.192.064-.279.107-.557.15-.835 1.29-6.272 4.667-11.066 10.195-14.32 3.656-2.14 7.613-3.018 11.85-2.782a21.34 21.34 0 015.57 1.07 21.183 21.183 0 018.582 5.5c1.42 1.478 2.603 3.126 3.463 4.967.409.856.71 1.755 1.054 2.632.022.086.108.193.172.193.559.021 1.054-.021 1.549-.043zm-8.001.75c-1.871-5.373-8.41-12.051-18.045-11.345-9.076.685-15.163 7.813-16.174 14.405 11.42-1.027 22.82-2.055 34.219-3.06z"/><path d="M110.632 57.32c-.301-.192-.603-.364-.861-.6-1.032-.877-.924-3.038.71-3.723 1.226-.514 2.473-.514 3.678 0 1.398.62 1.807 2.418.774 3.51-.258.278-.624.47-.946.685.064.021.15.085.236.107.968.45 1.484 1.177 1.463 2.247-.022 1.07-.473 1.927-1.506 2.333-1.312.514-2.645.535-3.935 0-1.442-.599-1.936-2.483-1.033-3.66.301-.385.71-.642 1.162-.834.086 0 .172-.043.258-.065zm.064 2.312c-.021.47.086.92.387 1.306.624.834 2.022.791 2.452-.086.387-.75.366-1.541-.043-2.29-.495-.878-1.785-1.006-2.409-.279-.322.386-.387.857-.387 1.349zm2.904-4.345c-.022-.407-.086-.792-.323-1.135-.516-.77-1.721-.77-2.129.022-.366.706-.344 1.434.043 2.119.258.45.688.62 1.204.578.538-.043.904-.343 1.054-.835.086-.236.108-.492.151-.75zm-11.271 2.033c-.28-.192-.581-.342-.817-.556-1.119-.963-.925-2.868.387-3.639.796-.47 1.677-.556 2.559-.47.452.042.903.15 1.312.32.903.364 1.377 1.07 1.398 2.055.022.985-.473 1.67-1.376 2.076l-.172.086c.129.064.236.128.365.171.925.45 1.42 1.177 1.398 2.205-.021 1.049-.43 1.905-1.441 2.311-1.333.557-2.71.557-4.065 0-.903-.385-1.355-1.113-1.398-2.097-.043-1.028.43-1.734 1.312-2.226l.258-.129c.108-.021.194-.064.28-.107zm.15 2.29c.022.471.108.9.388 1.285.344.492.838.685 1.441.62.516-.042.903-.3 1.097-.77.301-.75.301-1.498-.087-2.205-.279-.513-.903-.813-1.484-.727-.666.085-1.053.428-1.225 1.07-.087.257-.108.492-.13.728zm.216-4.58c.021.45.043.9.301 1.284.279.407.688.578 1.161.557.495-.022.86-.278 1.054-.75.237-.599.215-1.22-.043-1.819-.258-.556-.796-.813-1.463-.706-.537.086-.903.45-.989 1.027-.021.15-.021.279-.021.407zm20.239-.45c-.215-.192-.451-.406-.71-.599-.967-.706-2.193-.407-2.71.664-.365.749-.451 1.54-.494 2.397.064-.043.086-.064.129-.086.925-.899 2.022-.984 3.183-.578.688.236 1.097.792 1.29 1.456.237.813.259 1.627.022 2.461-.301 1.05-.989 1.713-2.065 1.97-.731.17-1.441.192-2.172-.022-1.011-.278-1.678-.963-2-1.926-.559-1.691-.602-3.403.043-5.073.666-1.734 2.237-2.675 4.108-2.461.408.042.817.15 1.226.235.064.021.172.107.172.171-.022.493-.022.985-.022 1.392zm-.989 4.945c-.086-.45-.108-.856-.237-1.22-.129-.471-.473-.75-.968-.856-.645-.129-1.161.128-1.613.535-.172.15-.258.32-.215.556.043.214.022.45.065.664.086.578.193 1.134.516 1.627.301.449.731.642 1.269.577.495-.064.817-.363.968-.791.086-.343.129-.75.215-1.092zm-25.228-6.657h1.914c-.108 3.061-.108 6.1 0 9.161h-1.914v-9.16zM46.366 66.76c.968-.386 1.85-.75 2.71-1.092.13.3.258.556.387.856a911.597 911.597 0 00-5.678 1.97c-.172-.472-.365-.964-.537-1.456l-.388-1.156c-.107-.343-.064-.663.13-1.006.3-.514.71-.75 1.268-.77.581-.022.99.32 1.312.77.086.128.172.235.301.407.646-1.006 1.248-1.97 1.85-2.911.065.064.13.15.237.257.086.214.193.47.28.727.02.107.02.236-.044.321-.172.257-.387.493-.559.75-.43.642-.86 1.305-1.29 1.969-.022.085.021.214.021.364zm-.344.17c-.065-.128-.086-.213-.13-.278-.279-.513-.494-1.07-1.117-1.284-.087-.021-.172-.064-.237-.042-.258.107-.516.214-.774.342-.215.128-.323.342-.345.6-.021.449.065.855.216 1.284.064.15.129.213.3.15.452-.172.904-.343 1.377-.514.237-.086.452-.15.71-.257zm36.154 26.392c.43.086.817.171 1.269.257-.065.556-.15 1.156-.215 1.755-.086.813-.15 1.627-.194 2.462-.043.92.624 1.583 1.549 1.54h.021c.839.129 1.248-.406 1.463-1.07.236-.685.3-1.412.43-2.14.107-.62.15-1.263.236-1.884 0-.064.022-.128.043-.17.194.042.387.063.603.106a8.484 8.484 0 01-.108.728c-.108.899-.172 1.798-.344 2.675-.108.535-.258 1.07-.538 1.52-.322.535-.882.835-1.527.878-.774.064-1.527-.022-2.194-.45-.602-.385-1.01-.877-1.01-1.67-.022-1.112.215-2.182.344-3.253.043-.428.107-.856.172-1.284zM47.335 59.675c-.043 2.054-1.334 3.189-3.162 3.296-1.204.064-2.473-.514-2.86-1.99-.15-.579-.28-1.178-.301-1.777-.086-1.648.774-2.419 2.108-2.868 1.096-.386 2.753.064 3.355.877.451.6.86 1.691.86 2.462zm-2.624-2.462c0-.021 0-.043-.021-.064-.56.128-1.14.193-1.657.407-.408.15-.817.428-1.118.749-.387.407-.516.984-.495 1.52 0 .363.13.727.28 1.07.258.578.731.963 1.355 1.048.366.043.774-.042 1.161-.042.84 0 1.527-.343 2.13-.9.774-.727.925-1.968.28-2.825-.474-.642-1.098-1.027-1.915-.963zm.58-26.391c.13.043.215.064.301.086.495.085.925.278 1.377.492.86.407 1.742.749 2.624 1.134l.193.065c-.107.214-.215.406-.344.642-.602-.321-1.183-.642-1.764-.942-.408-.214-.86-.385-1.29-.6-.774-.363-1.548-.749-2.323-1.113-.215-.085-.193-.213-.193-.385 0-.192.15-.15.258-.192.43-.15.839-.3 1.269-.428.838-.257 1.699-.471 2.538-.728.408-.129.795-.321 1.204-.471.194-.086.409-.129.688-.236-1.44-.642-2.817-1.241-4.172-1.84.086-.193.172-.407.28-.642.559.3 1.14.642 1.72.941.688.343 1.398.664 2.086.985.194.086.366.214.538.3.301.128.602.278.925.385.15.064.193.128.193.278 0 .129-.021.214-.172.257a7.623 7.623 0 00-.666.171l-1.162.385-3.936 1.349a.392.392 0 01-.172.107zM92.759 6.207c-.13-.021-.28-.064-.409-.064-.15-.021-.28 0-.409 0 .151-2.012.302-4.002.452-6.014.108 0 .172-.022.237 0 .494.192 1.01.107 1.527.085.516 0 1.01.129 1.462.343.258.107.516.342.516.706 0 .086.022.171.043.257.237 1.006-.3 1.54-1.204 1.755-.215.043-.409.086-.688.15.688 1.027 1.333 1.99 2.022 3.04h-1.054c-.065 0-.108-.086-.151-.15-.473-.793-.925-1.585-1.398-2.377a4.687 4.687 0 00-.366-.535c-.043-.064-.15-.085-.258-.15-.064 1.05-.15 2.013-.215 2.976-.064 0-.086 0-.107-.022zm.215-5.736l-.065 2.205c0 .128 0 .214.172.214.301 0 .624.042.904-.022.817-.214 1.183-.513 1.053-1.348-.042-.343-.215-.664-.516-.814-.451-.214-.946-.342-1.548-.235zM45.872 34.525a63.47 63.47 0 01-.323 1.049c-.021.064-.021.128-.043.192-.15.514-.322 1.006-.473 1.52-.13.428-.108.428.28.6.086.042.15.085.236.106.344.129.71.236 1.054.364.344.107.71.214 1.054.321-.108.257-.215.535-.323.77-.946-.256-1.892-.534-2.839-.791a138.13 138.13 0 00-2.839-.728c.108-.364.237-.706.344-1.049.667.214 1.355.428 2.044.643.344.107.344.107.451-.236.323-.942.667-1.905 1.011-2.932-.903-.193-1.742-.386-2.58-.557l.365-1.091c1.85.684 3.7 1.39 5.613 1.797-.064.322-.129.621-.193.942-.925-.278-1.85-.599-2.84-.92zm91.02 24.037c-.602.3-1.14.556-1.656.835-.452.235-.882.513-1.333.77-.086.043-.194 0-.258 0 .043-.343.086-.642.15-.942.022-.064.065-.15.129-.171.667-.321 1.334-.62 2-.963.323-.171.624-.386.925-.578a.37.37 0 00.129-.257c0-.043-.129-.107-.215-.128-.903-.15-1.785-.3-2.688-.428.064-.257.129-.557.172-.857 1.957.343 3.936.707 5.914 1.05a4.265 4.265 0 00-.107.513c-.043.278-.065.556-.086.835-.065.47-.108.941-.215 1.412-.043.193-.215.364-.344.514-.775.835-2.065.3-2.388-.407a1.17 1.17 0 01-.107-.47c-.043-.215-.022-.45-.022-.728zm1.613.963c.689 0 .968-.171 1.14-.792.086-.257.065-.535.108-.813.021-.15-.043-.215-.194-.236-.602-.128-1.183-.257-1.763-.385-.323-.064-.581.021-.603.278-.021.3-.021.6.043.9.043.192.129.406.237.577.279.364.645.535 1.032.47zm-35.209 38.249c.043.257.086.471.129.707-1.075.235-2.151.492-3.269.727-.452-1.969-.925-3.938-1.377-5.929 1.14-.257 2.259-.492 3.377-.727.022.256.065.47.086.727-.624.107-1.29.214-1.979.321.151.642.28 1.263.43 1.905a110.36 110.36 0 001.872-.513c.043.235.064.45.107.684-.602.15-1.226.3-1.871.45.172.75.344 1.456.538 2.247a29.612 29.612 0 001.957-.599zm23.486-22.496c1.613 1.22 3.205 2.44 4.839 3.682-.344.385-.71.792-1.097 1.199-.215.256-.43.513-.666.749-.517.578-1.506.62-2.087-.022-.559-.578-.537-1.198-.322-1.862.043-.107.086-.193.129-.342h-3.312c.193-.236.344-.471.537-.664.043-.064.194-.043.301-.043 1.011.022 2.044.065 3.055.086.043 0 .086.021.129 0a.878.878 0 00.236-.15c.022-.021-.043-.15-.107-.193-.667-.492-1.334-.984-2.001-1.455-.086-.064-.172-.107-.258-.193.237-.278.43-.556.624-.792zm3.828 4.153c-.301-.257-.602-.535-.903-.792-.237-.214-.495-.407-.731-.62-.151-.13-.215-.044-.301.085a6.668 6.668 0 00-.366.663c-.064.129-.129.257-.15.407a4.76 4.76 0 000 .792c.021.342.193.6.516.728.322.15.623.128.946-.065.473-.278.71-.727.989-1.198zm6.088-10.21c-.237.535-.516.985-1.161 1.092-.065 0-.13.085-.151.128-.065.15-.151.171-.301.107-.624-.278-.817-.856-.774-1.434 0-.128 0-.257-.043-.407-.108.15-.215.3-.345.45-.408.535-1.118.792-1.677.514-.495-.236-.882-.621-.968-1.178-.086-.642 0-1.284.28-1.905.215-.513.387-1.027.58-1.54 1.742.898 3.657 1.476 5.506 2.31-.344.643-.645 1.264-.946 1.863.086-.278.172-.578.28-.92-.71-.279-1.42-.557-2.151-.856-.108.363-.237.684-.301 1.027-.151.792.731 1.562 1.505 1.263.258-.086.452-.343.667-.514zm-5.14-1.52c-.022.45.193.814.537.964.344.15.753.15 1.119.15.172 0 .408-.108.494-.236.28-.428.517-.878.775-1.306.021-.042-.022-.171-.086-.192a63.73 63.73 0 00-2.173-.856c-.064-.022-.172.02-.215.064-.193.45-.451.899-.451 1.412zM74.261 96.704c-.107.214-.215.407-.322.6-1.011-.407-2.022-.835-3.054-1.264a617.942 617.942 0 012.344-5.608c1.032.429 2.043.835 3.054 1.263-.107.214-.215.407-.322.6-.581-.279-1.162-.535-1.786-.835a47.28 47.28 0 01-.774 1.84c.645.215 1.248.429 1.893.643-.108.214-.215.45-.301.642-.602-.257-1.226-.514-1.871-.792-.302.728-.581 1.434-.882 2.183.71.257 1.355.493 2.022.728zM72.196 4.795c0 .599.172 1.113.366 1.626.366.92.71 1.841 1.054 2.761-.237.043-.452.107-.688.15A695.79 695.79 0 0071.25 3.49c.194.043.387.064.56.107.279.107.58.214.86.342.516.257 1.01.536 1.505.835.56.321 1.097.685 1.656.985.452.235.925.364 1.441.556-.516-1.434-1.054-2.825-1.57-4.238.215-.043.409-.107.56-.128.666 1.883 1.354 3.767 2.021 5.672a.795.795 0 01-.645-.15c-.258-.192-.56-.32-.839-.47-.624-.322-1.248-.664-1.893-.985-.839-.386-1.677-.75-2.538-1.135l-.172-.085zm61.019 18.771c.215.407-.022.706-.151 1.027-.129.3-.215.621-.301.942a24.427 24.427 0 01-1.183 3.682c-.065.15-.108.32-.151.492-.021.043-.021.086-.021.128l.064.065c1.312-.75 2.624-1.499 3.915-2.248.086.15.193.321.301.492-1.85.9-3.592 1.97-5.398 3.04.021-.193.021-.385.086-.535.258-.792.559-1.584.817-2.398.365-1.134.71-2.268 1.054-3.381a.35.35 0 000-.257c-1.312.813-2.624 1.648-3.893 2.44-.086-.214-.194-.428-.301-.642a228.87 228.87 0 015.162-2.847zM78.347 92.873a198.77 198.77 0 01-1.57-.322c.065-.256.108-.47.172-.727 1.506.385 2.969.77 4.453 1.156-.065.256-.108.492-.173.749a42.982 42.982 0 01-1.505-.535c-.495 1.797-.99 3.574-1.484 5.393-.43-.128-.839-.235-1.29-.363.473-1.798.924-3.553 1.397-5.352zm44.113-8.563c-.216.236-.452.45-.667.686a.468.468 0 00.064.107c-.064-.064-.107-.129-.172-.171l-1.29-1.349c-.043-.043-.086-.193-.043-.235.451-.685.839-1.456 1.398-2.055.839-.9 1.914-1.263 3.14-.878.602.193 1.054.6 1.505 1.05 1.011 1.048.818 2.396.323 3.274-.624 1.113-1.484 1.99-2.688 2.461-.022 0-.043.022-.065.022-.15-.3-.301-.6-.495-.92.237.042.452.064.646.085.344.043.666-.064.946-.257.624-.45 1.118-1.006 1.269-1.798.107-.556 0-1.091-.28-1.52-.559-.834-1.29-1.498-2.344-1.669-.731-.128-1.398.043-1.957.535-.258.236-.495.535-.71.814-.151.192-.151.385.043.577.301.279.559.578.86.856.194.172.431.322.646.471a.323.323 0 01-.129-.085zm-15.076 13.015c-.43.15-.839.278-1.269.428-.602-1.734-1.204-3.446-1.828-5.223-.495.214-.989.407-1.441.6-.086-.215-.194-.429-.301-.685 1.419-.471 2.839-.964 4.258-1.456.108.214.216.385.323.578-.495.15-1.011.3-1.548.45.623 1.776 1.204 3.531 1.806 5.308zm-60.48-22.839c.258-.15.495-.278.775-.45-.151.536-.13 1.05 0 1.563.064.193.15.386.258.578.086.15.193.257.3.386.517.77 1.248.899 2.066.684 1.29-.342 2.258-1.091 2.602-2.418.064-.257.043-.578 0-.856-.043-.236-.15-.45-.237-.685-.193-.514-.602-.814-1.053-1.07-.108-.065-.216-.108-.323-.172v-.064c.064 0 .15-.043.193-.021 1.119.62 1.915 1.477 2.151 2.782.15.792-.043 1.499-.538 2.14-.58.728-1.333 1.178-2.236 1.392-.882.214-1.678-.086-2.366-.642-.753-.62-1.226-1.413-1.506-2.312-.043-.257-.043-.556-.086-.835zm9.721-54.516c.13.129.258.278.366.428.043.064.065.15.043.236-.108.792-.516 1.455-1.01 2.033-.861 1.027-2.001 1.434-3.292 1.027-1.268-.406-2.172-1.262-2.408-2.632-.108-.578.064-1.156.322-1.691.28-.557.645-1.07 1.162-1.434.258-.193.473-.428.73-.642.087-.086.216-.15.324-.214.171.256.344.47.537.749-.064.021-.15.064-.215.064-1.161-.021-1.914.75-2.215 1.712-.172.557-.022 1.07.258 1.52.58.92 1.376 1.541 2.495 1.734.666.107 1.269-.064 1.742-.493.258-.235.452-.599.602-.941.13-.236.15-.535.237-.792.086-.193.193-.407.322-.664zm72.116-2.419c.108.107.215.236.344.364-.946 1.948-1.914 3.896-2.817 5.715-.194-.15-.409-.32-.624-.47-.129-.086-.129-.172-.043-.322.344-.6.667-1.241.99-1.84.086-.15.043-.257-.065-.364l-1.355-1.413a.336.336 0 00-.258-.064c-.688.235-1.355.47-2.043.706-.172.064-.237-.021-.323-.128a2.016 2.016 0 01-.236-.386c2.172-.599 4.301-1.198 6.43-1.798zm-1.978 2.804c.365-.706.688-1.39 1.075-2.119-.774.257-1.484.493-2.237.75.387.449.753.877 1.162 1.37zM68.606 4.944c.237-.128.452-.214.667-.32.56 1.177 1.118 2.332 1.656 3.51.495 1.048.387 2.033-.602 2.89-.731.62-1.549.834-2.474.684-.58-.085-1.032-.47-1.311-.963-.56-.963-1.076-1.97-1.614-2.954-.064-.128-.172-.214-.236-.32-.086-.13-.13-.236.064-.322.237-.107.452-.235.689-.364.322.642.623 1.284.968 1.905.344.642.666 1.284 1.075 1.862.624.942 1.785.835 2.516.172.15-.15.301-.3.43-.471.43-.578.41-1.178.087-1.798-.28-.535-.517-1.113-.796-1.67-.13-.257-.323-.47-.452-.706-.237-.364-.452-.75-.667-1.135zm66.738 68.001c-.172.3-.344.578-.495.835-.839-.556-1.656-1.113-2.516-1.627-.624-.364-1.248-.749-2-.684-.129.02-.28.02-.366.085-.71.471-1.204 1.135-1.032 2.034.086.513.408.877.817 1.198.688.557 1.527.835 2.301 1.242.387.214.775.428 1.162.62-.086.193-.194.364-.28.578-.387-.235-.753-.47-1.14-.685-.667-.385-1.355-.77-2.022-1.177-.58-.342-1.032-.813-1.29-1.434-.258-.664-.043-1.306.301-1.884.323-.535.71-.963 1.291-1.241.516-.236 1.01-.278 1.548-.086.151.043.258.172.387.257.108.064.194.15.28.214.43.257.882.493 1.312.75.452.256.903.535 1.376.791.129.107.258.172.366.214zM98.65 98.716c.022.278.044.535.065.835-1.054.128-2.129.278-3.226.406-.258-2.012-.495-4.002-.731-5.971.43-.065.839-.108 1.269-.172.215 1.734.408 3.51.623 5.33.689-.129 1.334-.278 2-.428zM88.306 2.74h2.172v.45h-1.979v2.482c.753-.043 1.506-.085 2.302-.128v.535h-3.399V.02H90.5v.43h-2.258c0 .77.022 1.54.065 2.29zM57.808 20.334c-.065-.15-.086-.278-.15-.385-.28-.75-.582-1.52-.861-2.27-.43-1.134-.86-2.268-1.27-3.402-.02-.065-.02-.15.022-.193.086-.128.172-.236.237-.3 2 .835 3.979 1.67 5.828 2.44-.15.193-.322.407-.494.642-.086.108-.15.108-.28.043a168.68 168.68 0 01-2.086-.984c-.473.578-.968 1.155-1.42 1.733a.294.294 0 000 .193c.237.6.474 1.199.753 1.755.13.257.13.428-.107.6-.065 0-.108.042-.172.128zm-.753-3.06c.473-.429.925-.836 1.376-1.285a236.84 236.84 0 00-2.236-.942c.3.77.58 1.477.86 2.226zm.603 69.819c.581.471 1.162.964 1.764 1.477a83.8 83.8 0 011.162-1.434c-.646-.492-1.27-.963-1.893-1.434.129-.15.258-.278.344-.385.58.45 1.14.899 1.72 1.348.646-.578 1.205-1.156 1.592-1.862.043-.064 0-.214-.064-.257a38.77 38.77 0 00-1.463-1.134l-.193-.129a5.57 5.57 0 00.344-.385c.839.685 1.699 1.392 2.516 2.055-1.226 1.52-2.495 3.06-3.72 4.602-.797-.664-1.592-1.37-2.41-2.055.065-.171.194-.3.301-.407zm43.208-85.509l-.258.45a.212.212 0 01-.065-.022c-.344-.706-.99-.877-1.699-.835-.495.022-.731.428-.817.942-.086.535.3.792.645 1.049.301.235.645.385.946.6 1.097.706 1.119 2.033.366 2.739a2.072 2.072 0 01-1.807.556 5.124 5.124 0 01-.989-.235c-.194-.064-.366-.193-.538-.3-.172-.128-.236-.256-.107-.47.107-.193.15-.407.258-.685.064.128.107.192.129.256.28.643.774.92 1.462.964.43.021.732-.086 1.011-.407.28-.343.28-.942 0-1.284-.322-.407-.817-.535-1.226-.835-.28-.214-.602-.364-.774-.728-.323-.706-.237-1.82.667-2.269.903-.428 2.215-.192 2.796.514zm37.339 64.148c-.236-.107-.43-.193-.602-.3-.086-.064-.129-.192-.194-.278.086-.043.173-.107.259-.107.559-.043 1.161-.92.924-1.498-.193-.45-.473-.728-.967-.77-.13 0-.28.02-.388.085-.301.15-.602.278-.731.62-.064.172-.236.322-.366.45-.301.321-.58.642-.903.92-.301.236-.667.257-1.032.022-.301-.214-.71-.3-.904-.642-.129-.214-.301-.45-.322-.685-.129-1.006.129-1.905.925-2.633.279.15.537.321.838.492a1.452 1.452 0 01-.172.065c-.688.214-1.161.899-1.182 1.584-.022.663.86 1.198 1.376 1.027.559-.171.796-.62 1.161-.963.194-.193.323-.45.495-.642.301-.343.882-.621 1.398-.45.28.086.581.236.817.407.581.428.56 1.07.474 1.69-.129.621-.517 1.135-.904 1.606zm.989-24.529c-.215 0-.366-.021-.495.021-.537.193-1.01.086-1.505-.235-.796-.514-1.076-1.306-1.205-2.205-.903.15-1.785.493-2.667.792-.064-.32-.107-.62-.172-.899 1.915-.428 3.85-.856 5.829-1.284l.064.193c.173.749.345 1.477.495 2.226.108.599-.021 1.049-.344 1.391zm-2.86-2.419c.043.172.086.321.15.45.086.214.215.407.301.62.366.835 1.054.728 1.656.407.689-.385.861-1.263.473-1.926-.086-.15-.15-.193-.322-.15-.559.171-1.14.3-1.721.45a6.274 6.274 0 00-.537.15zM80.672.942h1.204c.022.021.043.085.086.15.452.834.882 1.67 1.334 2.483.193.342.451.663.645 1.006a.674.674 0 01.086.342c0 .235.065.45.258.642.58-1.712.882-3.446 1.119-5.222h.752c-.107.406-.236.813-.344 1.22L84.78 5.736c-.022.043-.022.107-.043.15-.043.343-.108.685-.602.557-.043-.022-.108.043-.15.043-1.205-1.713-1.937-3.768-3.313-5.544zm30.863 94.798c-.193.065-.344.108-.516.172-.15.064-.301.15-.43.257-.194.128-.323.128-.387-.043-.796-1.798-1.57-3.617-2.366-5.458.172-.064.344-.107.495-.193.15-.064.322-.171.451-.257.194-.128.301-.128.387.086.796 1.798 1.57 3.596 2.366 5.437zm-.948-84.974c-.301-.107-.602-.235-.946-.364.365-.642.709-1.305 1.054-1.947.064-.129.107-.3.107-.45-.043-.706-.129-1.434-.194-2.14-.043-.578-.107-1.156-.15-1.798.215.107.323.171.452.214.15.064.301.128.473.193.15.042.172.15.172.278 0 .685.021 1.37.043 2.055.021.406.064.834.107 1.327.323-.193.646-.364.925-.557.581-.428 1.162-.856 1.699-1.327.172-.15.323-.128.473-.043.151.065.28.15.431.236-.258.15-.495.3-.753.45-.559.342-1.119.684-1.656 1.07-.366.278-.71.62-1.054.92-.022.021-.065.064-.108.064-.279-.043-.344.15-.43.343-.193.47-.43.963-.645 1.476zM46.109 40.24c.129.043.193.107.258.107.452.021.58.32.645.706.086.77.15 1.563-.107 2.312-.366 1.049-1.097 1.69-2.216 1.883-.946.172-1.806-.042-2.602-.556-.796-.514-1.162-1.306-1.248-2.226-.107-1.113.302-2.098.904-3.061.3.15.58.278.882.428-.301.236-.56.428-.775.642-.839.9-.968 2.376.043 3.34.882.834 2.56 1.005 3.57.32.667-.45 1.054-1.07 1.076-1.905.021-.577-.15-1.113-.301-1.648a1.95 1.95 0 01-.13-.342zm88.352 2.547c2.065.043 4.065-.385 6.087-.62.15 1.048.301 2.075.451 3.145h-.494v-.3c-.043-.534-.065-1.07-.108-1.604-.021-.215-.107-.343-.344-.3-.065.021-.129 0-.215 0-.366 0-.731-.043-1.076.021-.344.043-.666.214-1.032.321.043.343.065.685.108 1.028.043.342.107.685.172 1.049h-.495v-.3c-.043-.492-.064-.985-.108-1.477-.021-.15-.086-.235-.258-.214-.236.043-.473.064-.709.128-.495.086-.968.193-1.527.3.129.75.258 1.477.387 2.205h-.366c-.15-1.135-.301-2.248-.473-3.382zm-91.665 3.938h.473v1.99h2.172c.194 0 .237-.063.237-.235v-2.076h.452v3.382c-2.065-.428-4.108-.492-6.13-.45V46.17h.538c-.172.642-.043 1.284-.086 1.926v.278h1.376c.215 0 .387.043.56.214.085.107.236.15.408.279v-2.14zm97.859 8.776h-.495c.387-.706.172-1.456.237-2.205h-1.377c-.236 0-.408-.042-.58-.214-.086-.107-.237-.17-.409-.278-.043.407-.086.77-.108 1.113a4.72 4.72 0 000 .77c.022.258-.086.322-.301.279-.064 0-.129-.022-.215-.022.043-.428.108-.834.151-1.24 0-.022.021-.022.021-.044.151-.578.043-.706-.537-.706h-1.592c-.086 0-.194 0-.301.021v2.29h-.452v-3.403c2.065.493 4.108.514 6.173.45a162.55 162.55 0 01-.215 3.189zM52.647 79.067c.086-.107.193-.236.322-.364.43.556.84 1.113 1.27 1.67l2.064-1.477c-.516-.578-1.01-1.156-1.527-1.755a2.68 2.68 0 00.28-.364c.688.792 1.376 1.605 2.086 2.418-.28.193-.538.364-.774.535-.194.15-.409.279-.603.428-.559.45-1.118.878-1.656 1.349-.365.3-.71.663-1.054.984-.086.086-.15.172-.236.257-.323.3-.344.3-.58-.064-.13-.214-.302-.385-.453-.6-.129-.17-.215-.342-.344-.513l-.645-.835a2.56 2.56 0 00-.236-.257c.129-.15.258-.278.365-.406.43.6.86 1.177 1.312 1.82.323-.215.602-.386.86-.579.28-.192.538-.406.882-.642-.408-.492-.86-1.027-1.333-1.605zm88.03-28.039c-.065 0-.108.02-.151.02h-.452v-1.861h-5.635v-.963h5.657c.151 0 .194-.065.194-.193-.065-.492-.108-.963-.173-1.456 0-.085-.021-.17-.043-.256h.603v4.709zm-100.505-.065h.58v1.927c1.893-.065 3.764-.129 5.614-.45v1.156c-.086 0-.172.021-.236.021-.646-.021-1.291-.085-1.936-.064a44.65 44.65 0 00-2.388.15l-.795.064c-.215.022-.28.129-.258.343.064.535.129 1.07.193 1.626h-.58c-.108-1.626.172-3.21-.194-4.773zm91.408-16.588c-.129-.278-.236-.535-.365-.813.064-.022.15-.043.215-.086l1.936-.77c.774-.321 1.57-.621 2.344-.942.323-.129.624-.278.946-.428-.236-.6-.451-1.177-.666-1.755a4.4 4.4 0 00.322-.279c.516 1.456 1.033 2.933 1.549 4.41-.129.085-.28.17-.452.278-.194-.557-.409-1.113-.624-1.734-.881.343-1.763.685-2.624 1.027-.86.386-1.72.75-2.581 1.092zM62.97 15.176c.58-.514 1.16-1.028 1.741-1.563.13.107.258.236.409.343-.925.684-1.828 1.37-2.71 2.033-1.161-1.541-2.344-3.125-3.527-4.688.215-.17.473-.363.774-.599a391.618 391.618 0 003.312 4.474zm54.5-5.095c.839-.128 1.463.75 1.441 1.413-.043.899-.58 1.413-1.548 1.413-.839 0-1.334-.557-1.334-1.541 0-.728.603-1.285 1.441-1.285zm.537 76.969c.753-.106 1.484.664 1.441 1.478-.043.791-.623 1.37-1.462 1.39-.71.022-1.484-.62-1.441-1.519.021-.642.645-1.434 1.462-1.348zm-53.919 3.126c-.129-.728.646-1.499 1.527-1.434.796.064 1.29.599 1.334 1.476.043.75-.71 1.456-1.441 1.392-.796-.064-1.463-.493-1.42-1.434zM104.996 8.54c.71-1.69 1.527-3.339 2.086-5.158-.645-.171-1.269-.343-1.892-.492.086-.15.172-.3.236-.45 1.398.514 2.839 1.028 4.259 1.541-.065.15-.151.279-.215.407-.517-.214-1.054-.45-1.656-.706-.646 1.798-1.291 3.531-1.936 5.308-.28-.171-.559-.3-.882-.45zm19.443 4.945c-.28-.043-.559-.107-.861.042-.365.172-.537.407-.537.814-.022.578.193 1.07.516 1.52.43.62.473 1.262.129 1.904-.323.578-.86.878-1.527.878-1.011 0-1.936-.62-2.301-1.541-.065-.15-.108-.278-.172-.428.215-.171.43-.343.688-.557 0 .107.021.193 0 .236-.237.984.839 2.076 1.763 1.969.538-.064.925-.6.861-1.134-.065-.578-.43-1.006-.667-1.499-.624-1.284.301-2.461 1.463-2.44.172.022.408.171.645.236zM45.464 71.511a540.961 540.961 0 015.011-2.461c.086.214.215.47.323.728-1.635.813-3.27 1.626-4.925 2.44.28.556.559 1.113.86 1.67-.064.063-.194.17-.301.277-.71-1.39-1.398-2.782-2.086-4.152.086-.064.215-.171.344-.278.258.599.495 1.177.774 1.776zM59.937 82.02c-1.355 1.306-2.904 2.548-4.108 4.153-.13-.15-.237-.278-.366-.385-.107-.107-.236-.214-.365-.321 1.312-1.22 2.645-2.44 3.957-3.66-.56-.6-1.118-1.178-1.699-1.777.064-.086.172-.214.258-.321l2.323 2.312zm20.69-74.593c-.128 0-.3-.021-.451 0-.15.022-.28.107-.387.171-.495-1.969-.99-3.96-1.484-5.928.322-.065.645-.129.989-.193.43 1.948.882 3.938 1.334 5.95zm21.702.343a48.641 48.641 0 00-.817-.193c.516-1.926 1.054-3.874 1.591-5.822.086.043.237.107.366.171.15.065.301.086.452.15a448.261 448.261 0 01-1.592 5.694zm24.691 17.423c-.172-.257-.344-.471-.473-.685a955.932 955.932 0 014.925-3.34c.151.193.301.429.473.686-1.634 1.091-3.29 2.226-4.925 3.339zm-79.17-1.37c.172-.236.322-.45.494-.664l4.904 3.147c-.194.257-.409.513-.624.792-.623-.45-1.247-.92-1.87-1.392-.582-.406-1.162-.834-1.743-1.22-.366-.256-.774-.45-1.161-.663zm44.972 72.11c.108-.47.194-.899.301-1.327.108-.492.108-.47.624-.535.108 0 .194-.021.344-.043-.172.578-.322 1.135-.494 1.67a.37.37 0 01-.13.128 3.126 3.126 0 01-.645.107zm19.057-4.965c-.064-.621-.129-1.2-.193-1.777 0-.064.043-.15.086-.171.193-.086.387-.171.623-.257.043.62.065 1.199.108 1.798 0 .043-.043.107-.086.128-.172.107-.344.172-.538.279zm-.752-1.67c.064.578.15 1.113.193 1.67 0 .064-.043.15-.107.17a5.795 5.795 0 01-.517.258c-.086-.45-.172-.878-.236-1.306-.086-.492-.086-.492.387-.685a1.89 1.89 0 01.28-.107zM91.662 96.04c.065-.599.13-1.177.215-1.776.28-.043.538-.064.839-.107-.107.45-.215.877-.323 1.305-.129.535-.129.535-.73.578zm32.777-82.555c.538.214.947.556 1.162 1.113.043.107.129.214.193.342.086.15.129.278-.107.364-.086.043-.172.107-.258.15-.108-.086-.215-.15-.344-.236.279-.749-.108-1.262-.646-1.733z"/><path d="M51.206 72.068c-.13.043-.258.085-.409.15-.043-.107-.064-.193-.129-.343.215.064.387.086.538.129v.064z"/></g><defs><clipPath id="clip0"><path fill="#fff" transform="translate(40)" d="M0 0h101v100H0z"/></clipPath></defs></svg>