<svg width="180" height="100" fill="none" xmlns="http://www.w3.org/2000/svg"><path d="M71.565 33.664h5.02v8.441h10.753v-8.418h5.02v8.418h10.753v-8.418h5.019v14.788h-9.08l-1.65 14.9H82.317l-1.65-14.9h-9.059v-14.81h-.044zm5.912 18.33l1.65 14.9h21.44l1.651-14.9h9.46V30.123H99.541v8.419h-3.636v-8.419H83.79v8.419h-3.636v-8.419H68.018v21.87h9.459z" fill="#23408F"/><path d="M109.917 12.016l-2.431-2.428-.224.223L97 20.056l2.432 2.428 10.485-10.468zM80.288 22.484l2.432-2.428L72.234 9.588l-2.431 2.428.2.223 10.285 10.245zM91.51 5h-3.457v14.811h3.458V5z" fill="#4BBCA9"/><path d="M71.832 92.305l-.357.357h-1.673l-.335-.357v-3.92l.357-.356h1.651l.357.357v3.92zm-2.81-5.99l-1.473 1.47v5.1l1.472 1.47h3.213l1.472-1.47v-5.1l-1.472-1.47H69.02zm5.734 8.04h1.896V91.37h2.856v-1.693h-2.856V88.03h3.793v-1.715h-5.69v8.04zm13.274-2.05l-.356.357H86l-.334-.357v-3.92l.357-.356h1.65l.358.357v3.92zm-2.788-5.99l-1.473 1.47v5.1l1.473 1.47h3.213l1.472-1.47v-5.1l-1.472-1.47h-3.213zm14.881-.001h-1.896v8.04h5.198v-1.692h-3.302v-6.348zm-4.953 5.925l-.358.356h-1.65l-.358-.356v-5.925h-1.896v6.57l1.473 1.47h3.212l1.473-1.47v-6.57h-1.897v5.925zm13.206 0l-.357.356h-1.65l-.357-.356v-5.925h-1.897v6.57l1.473 1.47h3.212l1.473-1.47v-6.57h-1.897v5.925zM70.115 84.11h2.075v-8.04h-1.897l.112 5.077-3.034-5.078h-2.053v8.04h1.897l-.134-5.078 3.034 5.078zm5.131-8.04H73.35v8.04h1.896v-8.04zm4.284 6.347h-.044l-1.763-6.348h-1.918l2.253 8.04h2.9l2.254-8.04h-1.92l-1.762 6.348zm10.173-4.633V76.07h-5.912v8.04h5.912v-1.692h-4.016V80.88h3.08v-1.693h-3.08v-1.403h4.016zm5.31 1.515l-.335.356h-2.03v-1.87h2.008l.357.356v1.158zm1.896.601v-2.36l-1.472-1.47h-4.685v8.04h1.896v-2.762h1.071l1.406 2.761h2.03l-1.495-2.962 1.25-1.247zm2.79-1.002v-.757l.357-.357h3.525V76.07h-4.306l-1.472 1.47v1.871l.847 1.025 3.191.868v.757l-.357.357h-3.837v1.692h4.618l1.472-1.47v-1.87l-.848-1.003-3.19-.868zm6.805-2.828h-1.897v8.04h1.897v-8.04zm.779 1.714h2.253v6.325h1.897v-6.325h2.253V76.07h-6.403v1.715zm12.293-1.714l-1.807 3.719h-.045l-1.807-3.72h-2.142l2.968 5.568v2.472h2.007v-2.472l2.968-5.568h-2.142zm-57.315 5.924l-.357.356h-1.65l-.358-.356v-5.925H58v6.57l1.472 1.47h3.213l1.472-1.47v-6.57h-1.896v5.925z" fill="#23408F"/></svg>