<svg width="180" height="100" fill="none" xmlns="http://www.w3.org/2000/svg"><path d="M151.531 74.505c.553 1.074 1.106 2.059 1.659 3.222-.738.09-1.475.269-2.12.269-.184 0-.461-.269-.553-.448l-.829-1.88c-.184-.268-.461-.536-.645-.715-.092.09-.184.09-.276.179v2.774h-2.304v-7.518c1.566 0 3.133-.18 4.699 0 1.751.268 2.304 2.148 1.198 3.49-.184.09-.461.359-.829.627zm-2.672-.805c.645-.269 1.105-.448 1.474-.806.184-.179.184-.806 0-.895-.369-.268-.921-.358-1.474-.626V73.7zm6.829.933v3.555h-2.403V70.02h2.403v2.979c.096 0 .192 0 .192.096.288-.576.672-1.057.961-1.633.961-1.73.961-1.73 2.979-1.058-.481.77-.865 1.538-1.442 2.21-.673.77-.48 1.346.096 2.115.673.96 1.346 1.922 2.018 2.979 0 .096.096.096.096.192s-.096.192-.096.192c-2.21.48-2.21.48-3.459-1.537-.385-.673-.769-1.25-1.153-1.922-.096-.096-.096 0-.192 0zM29.355 9c1.543.192 3.183.288 4.63.673 4.243.96 8.39 2.018 12.633 3.075.193 0 .386.096.675.192V9.769h23.725c0 .48.097.865.097 1.249v78.413c0 .961-.193 1.345-1.254 1.345h-48.8c-.386 0-.675 0-1.061-.096V9.577c1.06-.193 2.122-.385 3.183-.48C25.208 9 27.233 9 29.355 9zm19.77 6.438c-1.735-.672-3.182-1.249-4.725-1.73-6.944-2.306-13.984-3.555-21.314-2.882-.964.096-1.543.288-1.543 1.441v75.434c0 .385 0 .865.097 1.25h47.739V11.114H49.126v4.324zm58.642 75.435c-.289-1.25-.675-2.403-1.447-3.364-.096 0-.193.096-.289.096v2.98h-2.508v-8.169c1.544 0 2.99-.096 4.437 0 .868.096 1.736.48 2.025 1.442.386 1.249 0 2.306-1.254 3.17.579 1.058 1.061 2.019 1.736 3.268.675-1.538 1.158-2.787 1.736-4.132.29-.673.579-1.442.868-2.114.772-1.826.772-1.826 2.797-1.538 1.061 2.691 2.025 5.382 3.183 8.264-.868 0-1.543.097-2.122 0-.289-.096-.675-.576-.772-.96-.192-.673-.482-1.058-1.253-.961-.772.096-1.833-.385-2.122.96-.193.865-.772 1.058-1.543 1.058-.675 0-1.447.096-2.122.192-.579-.192-.964-.192-1.35-.192zm-1.736-4.613c.579-.288 1.157-.384 1.447-.673.192-.192.192-.96 0-1.153-.29-.288-.868-.384-1.447-.576v2.402zm8.583-1.538h-.193c-.289.865-.482 1.73-.771 2.595h1.736c-.386-.865-.579-1.73-.772-2.594zm15.911 6.151c-2.025-.577-2.7-2.019-2.604-4.037.096-1.44 0-2.882 0-4.42h2.508v3.46c0 .672-.097 1.441.096 2.017.096.481.675 1.058 1.061 1.058.386 0 .964-.48 1.254-.865.192-.385.192-.865.192-1.346v-4.324h2.219c-.097 2.114-.097 4.228-.29 6.342-.096 1.25-1.35 1.634-2.411 2.115h-2.025zm-7.423 0c-.193-.096-.289-.193-.482-.289-2.508-.768-3.761-2.786-3.375-4.9.482-2.21 2.603-3.652 5.015-3.46.578 0 1.157.192 1.736.288.096 1.442-.772 1.442-1.736 1.442-1.544 0-2.508.96-2.508 2.594 0 1.538.868 2.499 2.315 2.595 0 0 .096 0 .193-.096 0-.577.096-1.153.096-1.922h2.411c0 .769-.096 1.634 0 2.402.193 1.346-1.061.961-1.543 1.346h-2.122zm-.578-15.472c.289-1.825.675-3.651 1.061-5.573.771.096 1.35.096 2.122.192-.386 1.634-.772 3.171-1.158 4.805-.096.48-.289 1.057-.386 1.537-.482 2.018-.771 2.21-2.796 1.826a1.16 1.16 0 01-.675-.672 195.63 195.63 0 01-1.447-4.133c-.482 1.442-.965 2.691-1.254 4.036-.386 1.442-1.447.77-2.218.865-.772.192-.964-.288-1.157-.96a407.59 407.59 0 00-1.833-7.304c.868-.096 1.64-.192 2.508-.288.385 1.922.771 3.748 1.157 5.958.579-1.73 1.061-3.171 1.447-4.613.193-.672.385-1.25 1.35-1.25.964 0 1.35.385 1.543 1.25.386 1.442.964 2.883 1.447 4.324h.289zm17.069-17.297c-.482 1.442-1.833.385-2.604 1.057V65.6h-2.508v-6.63c-.771-.097-1.543-.097-2.314-.193 0-.385 0-.865-.097-1.345.483 0 .868-.096 1.254-.096 2.7 0 5.401-.097 8.101-.097.29 0 .675.289.772.577.386.865.675 1.826 1.157 2.979.289-.769.579-1.345.772-1.922.675-1.73.675-1.73 2.7-1.441-1.157 2.594-3.279 4.9-2.411 8.168h-2.7c.771-2.787-.772-5.093-2.122-7.496zM86.258 85.972v4.708h-1.832v-8.168c1.06-.288 1.929-.096 2.604.865.771 1.153 1.736 2.306 2.797 3.652v-4.517h1.928v8.072c-1.06.288-1.736.096-2.41-.769-.965-1.249-1.93-2.402-3.087-3.843zm29.221-28.54h3.568c1.157 0 2.411.096 2.893 1.345.482 1.25.097 2.402-1.157 3.267a123.61 123.61 0 011.736 3.556c-.868.096-1.543.192-2.315.192-.193 0-.482-.288-.578-.577-.29-.576-.483-1.249-.772-1.922-.096-.288-.386-.576-.579-.864-.096 0-.193.096-.289.096V65.6h-2.507v-8.168zm2.507 1.537v2.018c.772.096 1.543.096 1.64-.96.096-.962-.579-1.058-1.64-1.058zm27.294 15.087c0 2.499-1.736 4.324-4.05 4.42-2.508 0-4.244-1.73-4.244-4.324 0-2.498 1.736-4.324 4.147-4.324 2.315-.096 4.147 1.73 4.147 4.228zm-2.507 0c-.097-.384-.097-.865-.193-1.25-.193-.768-.482-1.248-1.35-1.345-.868 0-1.35.577-1.447 1.346-.096.865-.193 1.826.097 2.594.096.48.771 1.057 1.35 1.154.771.192 1.254-.481 1.446-1.154 0-.384 0-.864.097-1.345zm-53.814 0c0 2.499-1.736 4.324-4.147 4.324-2.411 0-4.244-1.825-4.244-4.324 0-2.498 1.833-4.324 4.147-4.324 2.411 0 4.244 1.922 4.244 4.324zm-2.604.096c-.097-.48-.097-.96-.193-1.441-.193-.673-.579-1.25-1.447-1.25-.868 0-1.253.577-1.35 1.25-.096.865-.096 1.826.097 2.69.096.48.868 1.057 1.35 1.057.386 0 .964-.576 1.254-1.057.289-.192.192-.768.289-1.249zm17.939.096V70.02h1.736v8.168c-.964.288-1.736.096-2.315-.769-.868-1.249-1.928-2.402-2.989-3.747v4.612h-1.93v-8.072c1.158-.384 1.93 0 2.605.961.771 1.153 1.736 2.21 2.604 3.364l.289-.289zm-9.837-16.72h1.929v8.168c-1.061.384-1.736 0-2.411-.865-.868-1.25-1.93-2.403-2.99-3.748v4.709h-1.833V57.72c1.158-.384 1.93-.096 2.604.865.772 1.153 1.736 2.21 2.797 3.555-.096-1.73-.096-3.075-.096-4.612zm-13.601 0h2.411v3.747c0 .577 0 1.154.097 1.73.096.673.385 1.441 1.253 1.153.482-.192 1.061-.769 1.157-1.249.193-1.153.097-2.402.193-3.652v-1.633h2.122c0 1.922.097 3.747 0 5.67-.193 1.73-1.543 2.69-3.568 2.786-2.025 0-3.472-.865-3.569-2.594-.289-2.114-.096-4.036-.096-5.958zM98.603 90.68h-2.507v-8.168c1.543 0 2.99-.096 4.436 0 1.157.096 2.025.673 2.315 1.922.193 1.057-.386 2.306-1.543 2.787-.675.288-1.447.384-2.219.576-.096-.864-.289-1.44.675-1.73.386-.191.772-1.056.676-1.44-.193-.385-.965-.577-1.736-1.058-.097 2.595-.097 4.805-.097 7.111zm1.735-33.152c.964-.096 1.639-.192 2.604-.289.579 1.922 1.157 3.94 1.736 5.862.096 0 .096 0 .193.096.675-1.922 1.253-3.94 1.929-5.958.675.097 1.35.193 2.121.193a734.22 734.22 0 01-3.182 8.168c-2.315.192-2.315.192-3.086-1.826-.868-2.018-1.544-4.036-2.315-6.246zm6.943 12.492h4.919v1.441h-2.411v1.634c.771 0 1.543.096 2.411.096v1.442h-1.447c-.771-.096-1.061.192-1.061.96 0 .77.193 1.154 1.061 1.057.675-.096 1.254 0 2.025 0 0 .481.097.865.097 1.442h-5.497c-.097-2.595-.097-5.285-.097-8.072zm33.757 17.105h-2.218c-.482 1.922-.386 2.018 1.35 2.018h1.543c0 .48 0 .865.097 1.345h-5.498V82.32h4.919v1.442h-2.411v1.633h2.315c-.097.769-.097 1.153-.097 1.73zm-29.222-26.426h2.411c0 .48 0 .865.097 1.441-.868.096-1.64.096-2.508.193v2.017h2.893v1.442h-5.4v-8.168h4.918v1.345c-.771 0-1.543.096-2.411.096V60.7zm21.217 12.684c.386-.864.579-1.441.772-1.922.868-2.018.385-1.633 2.604-1.345-1.061 2.595-3.28 4.9-2.412 8.072h-2.7c.772-3.075-1.157-5.381-2.315-8.072.772-.096 1.447-.192 2.122-.192.193 0 .579.288.675.576.482.77.868 1.73 1.254 2.883zm-10.222-8.263c.192-.385.385-.77.675-1.154 0 .096.096.192.096.384.772-.096 1.929 0 2.218-.48.579-.961-.578-1.345-1.061-1.922 0 0-.096 0-.096-.096-1.447-1.25-1.736-2.114-1.254-3.075.579-1.153 2.122-1.73 3.665-1.345.386.096.772.288 1.254.384-.193.48-.386.769-.579 1.25-.193 0-.289-.097-.482-.097-.482.096-.965.192-1.447.192.29.385.482.865.772 1.153.482.577 1.157 1.057 1.543 1.634.964 1.345.386 2.979-1.061 3.652a4.452 4.452 0 01-4.243-.48zm-30.574 6.342v2.017c.772 0 1.543.097 2.411.097v1.345c-.771.096-1.543.096-2.41.192v2.979h-2.412v-8.168h4.919v1.345c-.868.192-1.543.192-2.508.192zm-11.38 10.954h2.315v8.168h-2.315v-8.168zm16.684-24.888h2.315v8.168H97.54v-8.168zm34.043 8.168h-2.314v-8.168h2.314v8.168z" fill="#0A1F5E"/><path d="M58.867 28.796h-2.508c-.964 0-1.35-.577-1.06-1.442.192-.768.481-1.537.77-2.594-1.06.48-1.832.864-2.603 1.153-.965.384-1.64.192-2.122-.769-.386-.673-.675-1.345-1.157-2.21-.29.865-.482 1.345-.579 1.826-.386 1.249-1.447 1.73-2.7 1.057-.675-.385-1.254-.673-2.122-1.25.193.77.386 1.442.482 2.018.29 1.25-.193 1.922-1.543 1.826H41.41c.483.48.772.961 1.158 1.25.578.48 1.254 1.153.868 1.921-.193.48-.868.673-1.35.961-2.122-1.825-2.99-3.94-3.472-6.438-.483-3.171-.676-6.438-2.122-9.513-.097-.192-.097-.385-.193-.577-.29-1.73.096-2.21 1.736-1.73 3.665 1.057 7.33 2.21 10.994 3.364.579.192 1.254.48 1.93.672v-4.9h15.816v37.092c0 1.634-.868 2.595-1.929 3.652-.868-4.805-3.954-7.784-7.812-10.09-.193-.096-.386-.673-.386-.865.965-2.114.386-4.132-.578-6.054-.483-1.153-.097-2.499 1.06-2.98.772-.287 1.64-.48 2.797-.864-.964-.384-1.64-.769-2.41-.865-.772-.192-.869-.769-.869-1.249 0-.384.386-.769.675-1.057.483-.384 1.061-.673 1.544-.961.096-.192 0-.288 0-.384zM24.148 69.444V13.035h5.112c.386 0 .771.096 1.157.096 1.833.096 2.026.096 1.93 1.826-.29 4.708 1.06 9.225 1.831 13.838.193 1.44-.096 2.69-.964 3.94-.771 1.249-1.543 2.498-2.122 3.94-.578 1.44-.096 2.882.965 4.035a7.24 7.24 0 011.06 1.346c.194.288.194.96 0 1.057-.77.672-.482 1.345-.289 2.114.579 1.825 1.254 3.747 1.736 5.67.193.864.193 1.825.193 2.786 0 2.018-.29 4.132 1.061 5.958.29.384.29.96.193 1.441-.675 2.499-1.35 4.997-2.122 7.496-.096.288-.482.768-.771.768-2.99.097-5.98.097-8.97.097zm15.624 8.552v9.129h-3.858V71.75c1.736.576 3.472 1.153 5.208 1.633 0-.672.096-1.153.096-1.73h3.569v15.472H41.41v-7.592c0-1.441-.096-1.537-1.64-1.537zm-15.719-6.342h3.76v10.09c0 .384-.095.865.097 1.249.193.384.579.672.965.769.29 0 .771-.385.868-.673.193-.48.096-1.057.096-1.634v-9.801H33.6v10.57c0 2.979-1.832 5.093-4.532 5.19-2.7.095-4.919-1.827-5.015-4.805-.097-3.556 0-7.208 0-10.955zm37.035 11.627v3.844H57.23V71.653c2.219 0 4.533-.096 6.848.097 1.254.096 1.929 1.249 2.411 2.402.771 2.018.868 4.132.193 6.246-.675 2.114-1.832 2.98-4.147 2.98-.386-.097-.868-.097-1.447-.097zm0-3.556l.29.289c.482-.288 1.253-.48 1.446-.961.579-.961.579-2.114-.096-3.075-.29-.385-.965-.385-1.64-.673v4.42zm-8.104 7.495H49.32v-8.936c0-1.153-.192-2.21-.771-3.171-.675-.96-1.157-2.018-1.929-3.267 1.736.288 3.376-.769 4.533 1.345 1.06-2.018 2.797-1.25 4.533-1.345-.675 1.249-1.447 2.306-1.93 3.46a5.152 5.152 0 00-.77 2.69c-.097 2.979 0 6.054 0 9.225z" fill="#0A1F5E"/><path d="M44.017 36.002c-1.158-.192-1.447-1.057-1.64-2.018 1.447-.192 1.832.289 1.64 2.018z" fill="#0A1F5E"/></svg>