<svg width="180" height="100" fill="none" xmlns="http://www.w3.org/2000/svg"><path d="M91.343 99h-1.98a14.626 14.626 0 01-.18-2.002 3.891 3.891 0 00-1.301-3.54c-1.21-1.04-.893-2.657.181-4.048a4.196 4.196 0 00.95-2.454c-.226-6.605-.554-13.21-.905-19.803a11.218 11.218 0 00-.644-3.088c-.736-2.07-2.443-2.555-4.219-1.3-2.635 1.866-4.297 1.233-5.202-1.877a1.74 1.74 0 00-1.402-.826c-2.455.08-3.653-1.13-3.178-3.574.215-1.13-.181-1.459-1.131-1.741a2.5 2.5 0 01-1.629-4.004c.577-.973.385-1.425-.452-2.024-1.617-1.131-1.753-2.726-.35-4.241.712-.78.61-1.233-.091-1.912-1.482-1.39-1.482-2.476-.294-4.116a1.968 1.968 0 00.158-1.674c-1.074-2.194-.554-3.732 1.764-4.331 1.131-.294 1.278-.735.928-1.753-.668-1.923-.193-2.85 1.617-3.732a5.529 5.529 0 001.063-.916 7.822 7.822 0 01-1.03-.77 3.981 3.981 0 01-.915-1.21c-2.025-5.168-4.015-10.336-6.028-15.516a3.879 3.879 0 013.336-5.485c2.352-.226 2.737 0 3.088 2.262 1.311 8.391 2.759 16.76 4.218 25.13a5.27 5.27 0 01-.77 3.935 19.226 19.226 0 00-.813 19.678 10.495 10.495 0 005.496 5.35c2.77 1.13 4.999 0 5.79-2.85a6.19 6.19 0 00.317-1.799 1647.33 1647.33 0 00-.633-18.32 4.92 4.92 0 00-3.167-4.525 2.94 2.94 0 01-.588-4.523c3.03-2.715 10.936-2.703 13.967 0a2.838 2.838 0 01-.622 4.523 5.169 5.169 0 00-3.234 4.84c-.204 4.381-.37 8.765-.498 13.154a33.267 33.267 0 00.113 5.813c.577 3.89 3.393 5.202 6.786 3.234 4.048-2.33 5.654-6.254 6.525-10.563a18.52 18.52 0 00-2.624-13.831 5.77 5.77 0 01-.757-4.4c1.447-8.199 2.77-16.42 4.116-24.643.396-2.454 1.504-3.12 3.913-2.261 2.409.86 3.393 2.838 2.5 5.304l-5.949 15.358c-.272.69-.317 1.56-1.448 1.413-.158 0-.531.464-.52.69a1.131 1.131 0 00.566.724c2.589 1.64 2.567 1.617 1.911 4.41a1.384 1.384 0 00.644 1.132c2.997 1.063 3.246 1.673 2.002 4.738a1.787 1.787 0 00.373 1.391c1.131 1.55 1.131 2.726-.248 4.094-.713.69-.781 1.131-.091 1.911 1.482 1.652 1.323 2.986-.475 4.32-.803.589-.859 1.041-.35 1.912 1.13 1.889.441 3.393-1.731 4.06-1.131.317-1.233.837-1.006 1.832a2.604 2.604 0 01-2.986 3.393c-1.131-.124-1.606.09-1.776 1.278a2.73 2.73 0 01-1.662 2.372 2.737 2.737 0 01-2.861-.45c-2.952-1.877-4.716-1.21-5.112 2.443-.554 5.18-.77 10.405-1.131 15.618a54.28 54.28 0 00-.09 5.836 4.24 4.24 0 00.904 2.262c1.131 1.436 1.391 3.212.057 4.32a3.393 3.393 0 00-1.131 3.076c.045.735-.045 1.425-.08 2.296z" fill="#000"/><path d="M95.937 15.176c1.584 2.951 2.262 5.745.566 8.64a1.9 1.9 0 01-1.504.645 68.256 68.256 0 01-6.074-.668 1.9 1.9 0 01-1.368-.972 7.034 7.034 0 01.746-5.926c.894-1.47 1.923-2.85 2.907-4.253 1.39-1.945 2.77-3.856 4.264-5.937a8.674 8.674 0 01-.215 5.813c-.713 1.674-1.72 3.223-2.556 4.84a6.548 6.548 0 00-1.052 2.568c0 .69.678 1.877 1.21 1.979 1.131.215 1.527-.928 1.29-1.81-.589-2.07.87-3.234 1.786-4.92zm14.238 12.711c-1.821-1.311-1.38-2.714-.724-4.309a587.654 587.654 0 005.711-14.702c.486-1.289 1.221-1.38 2.262-.995a3.596 3.596 0 011.968 5.655l-8.007 12.44-1.21 1.911zm-39.413.509c-3.574-5.576-6.786-10.665-10.088-15.743a2.477 2.477 0 01.656-3.393 11.117 11.117 0 013.314-1.606c.102 0 .52.487.644.815 2.183 5.62 4.4 11.173 6.435 16.794.238.724-.531 1.81-.961 3.133zm-3.56 6.627c-4.92-2.85-9.884-5.654-14.804-8.595-1.402-.825-1.13-2.262-.791-3.393a3.676 3.676 0 012.691-2.94c.283-.068.747.373 1.052.667 3.71 3.517 7.362 7.102 11.128 10.552 1.244 1.153 1.73 2.183.724 3.71zm46.23.012c-1.131-1.73-.249-2.737.882-3.79a681.119 681.119 0 0010.947-10.483 1.422 1.422 0 011.622-.516c.192.066.368.173.516.313a3.745 3.745 0 01-.113 6.48l-13.854 7.995zM68.058 37.41c-.373 1.401-1.131 1.48-2.262 1.13a504.593 504.593 0 00-15.313-4.433c-1.685-.441-1.81-1.572-1.798-2.918a3.755 3.755 0 012.013-3.563c.17-.09.532 0 .746.159l16.614 9.624zm44.504.011l16.535-9.579c.226-.135.565-.294.757-.215a3.389 3.389 0 012.07 3.156c.079 1.232.283 2.691-1.357 3.189-5.349 1.583-10.721 3.087-16.082 4.693-1.187.35-1.561-.26-1.923-1.244zm-42.173-6.593c-.77.814-1.335.826-2.126.056-4.015-3.913-8.098-7.746-12.158-11.614a2.522 2.522 0 01-.328-3.393 12.031 12.031 0 012.794-2.567c.101-.08.837.396 1.063.758 3.585 5.552 7.147 11.128 10.755 16.76zm-2.793 13.435c0 1.843-.882 2.33-2.42 2.578-4.524.724-8.946 1.629-13.402 2.51-1.312.261-2.375.238-3.065-1.13-.69-1.368-.848-3.653 0-4.433.393-.273.87-.398 1.346-.35 5.836.237 11.637.53 17.54.825zm42.672-13.458c3.607-5.655 7.17-11.174 10.698-16.75a1.263 1.263 0 01.836-.726 1.258 1.258 0 011.087.218 3.804 3.804 0 012.207 2.871 3.796 3.796 0 01-1.201 3.417c-3.856 3.675-7.713 7.34-11.524 11.06-.769.77-1.334.815-2.103-.09zm2.833 13.458c5.926-.283 11.852-.6 17.778-.826a1.793 1.793 0 011.312.882 4.405 4.405 0 01-.973 4.75 2.045 2.045 0 01-1.481.362c-5.135-.893-10.269-1.798-15.369-2.861-.656-.136-1.131-1.199-1.663-1.832l.396-.475zm.182-1.651c0-1.674.803-2.262 2.149-2.601a474.501 474.501 0 0014.849-4.32c1.244-.385 1.9 0 2.138 1.04a9.31 9.31 0 01.181 3.234c-.147 1.222-.917 1.787-2.262 1.832-5.689.193-11.344.532-17.055.815zm-45.948 0c-5.96-.294-11.83-.577-17.688-.927a1.618 1.618 0 01-1.221-.826 9.25 9.25 0 01-.396-3.517c.294-1.82.905-2.058 2.646-1.55 4.84 1.414 9.658 2.873 14.521 4.23 1.301.43 2.183.905 2.138 2.59zm1.209 7.113l-11.309 4.682a35.534 35.534 0 01-3.698 1.46c-.622.18-1.798.169-1.99-.17a10.485 10.485 0 01-1.2-3.574c0-.305.996-.995 1.618-1.131 4.885-.984 9.782-1.911 14.702-2.726.61-.101 1.346.622 2.024.973l-.147.486zm43.62 0c.441-1.459 1.244-1.696 2.646-1.402 4.728.995 9.478 1.855 14.239 2.67a1.515 1.515 0 011.481 1.673c.147 2.612-1.707 3.97-4.06 2.997l-12.61-5.202c-.61-.238-1.153-.498-1.696-.736zm-43.978 1.923c1.13 1.979.135 2.827-1.278 3.698-3.393 2.104-6.696 4.32-10.043 6.48-1.199.78-2.262.362-3.11-1.221-.848-1.583-.633-2.748.656-3.291 4.591-1.9 9.183-3.789 13.775-5.666zm43.64 2.375l.43-2.342c.407.125.814.215 1.187.374 4.207 1.726 8.396 3.453 12.565 5.18 1.516.621 1.821 1.684.803 3.392-1.018 1.708-1.923 2.126-3.246 1.21-3.811-2.725-7.803-5.236-11.739-7.815z" fill="#000"/><path d="M89.103 2c.87 2.149 1.764 4.275 2.556 6.446a1.717 1.717 0 01-.306 1.312c-.757 1.131-1.617 2.115-2.409 3.19-3.302 4.523-3.675 5.982-2.86 11.24-1.2.996-2.037.713-2.647-.7a7.407 7.407 0 01.418-7.453 71.763 71.763 0 012.488-3.393 6.979 6.979 0 001.617-5.666A6.514 6.514 0 0189.103 2zM71.641 56.534c-3.687 3.528-7.294 7.045-11.004 10.427-.373.34-1.572.17-2.126-.181-2.058-1.312-2.013-2.782 0-4.049 3.246-2.137 6.582-4.184 9.817-6.446a2.262 2.262 0 013.313.249zm37.404.045a2.08 2.08 0 013.178-.396c3.517 2.432 7.125 4.739 10.732 7.012 1.527.961.702 1.945 0 2.748-.701.803-1.707 2.262-2.985 1.074-3.676-3.381-7.261-6.932-10.925-10.438zM76.481 61.94c-1.798 3.992-3.506 7.916-5.327 11.727a1.99 1.99 0 01-1.617.848c-2.612-.26-3.314-1.798-1.889-3.868l5.09-7.373c1.244-1.866 1.244-1.866 3.743-1.335zm27.708 0c1.844-1.041 2.805-.25 3.766 1.288 1.731 2.771 3.642 5.429 5.565 8.064a1.373 1.373 0 01.215 1.83 1.377 1.377 0 01-.509.432c-1.878 1.583-3.246 1.312-4.253-.928-1.583-3.528-3.166-7.056-4.784-10.687zm-32.466-3.156l1.075 1.584c-2.398 3.472-4.796 6.977-7.272 10.438a1.72 1.72 0 01-1.516.362c-2.522-.724-2.929-2.262-1.13-3.97a593.492 593.492 0 018.843-8.414zm37.324.046c3.212 3.064 6.447 6.095 9.602 9.217a1.716 1.716 0 01.102 1.628c-1.357 2.07-2.997 2.047-4.388 0-1.833-2.646-3.608-5.326-5.508-7.916-.792-1.018-1.052-1.866.192-2.93zm-5.66 5.27c1.572 3.483 3.11 6.977 4.727 10.438.656 1.414-.317 1.877-1.255 2.137-.939.26-2.466.95-2.884-.757a128.899 128.899 0 01-2.115-9.919c-.102-.622.577-1.38.893-2.08l.634.18zm-26.078-.046a1.877 1.877 0 011.425 2.601c-.735 3.009-1.357 6.05-1.968 9.048-.385 1.877-1.742 1.233-2.748.995-1.007-.237-2.149-.588-1.436-2.149 1.594-3.438 3.132-6.955 4.727-10.495zm20.293.996l2.397.508c.724 3.45 1.414 6.922 2.205 10.371.34 1.504-.825 1.651-1.628 1.697-.803.045-2.262-.385-2.341-.713-.328-3.89-.498-7.803-.633-11.863zm-14.512-.42c-.226 4.445-.35 8.268-.633 12.08-.102 1.334-1.357 1.13-2.205.983-.849-.147-2.15-.203-1.821-1.742.69-3.257 1.278-6.525 2.137-9.737.204-.6 1.335-.882 2.522-1.583z" fill="#000"/></svg>