<svg width="180" height="100" fill="none" xmlns="http://www.w3.org/2000/svg"><g clip-path="url(#clip0)"><path d="M63.274 44.017c-2.39-2.614-4.714-5.199-7.091-7.734-5.839-6.207-3.375-17.594 5.032-21.428 3.435-1.567 7.01-2.37 10.583-1.1 2.158.765 4.144 2.23 5.968 3.685 2.188 1.75 4.12 3.821 6.382 5.965 1.571-1.657 3.156-3.25 4.664-4.914.843-.928 1.47-1.077 2.397-.034 1.678 1.896 3.495 3.669 5.255 5.495 2.745-2.539 5.404-4.865 7.911-7.344 6.587-6.515 18.234-3.754 21.99 4.792 2.58 5.846 2.301 11.221-2.284 16.03-2.248 2.346-4.446 4.735-7.022 7.499l6.73 6.23-6.206 5.945c2.404 2.611 4.526 5.074 6.813 7.37 6.18 6.19 4.055 17.948-4.999 21.941-5.746 2.536-11.147 2.227-15.914-2.32-2.109-2.017-4.26-3.976-6.674-6.246-1.571 1.657-3.146 3.27-4.641 4.948-.83.93-1.463.911-2.298 0-1.717-1.856-3.508-3.646-5.305-5.511-2.708 2.498-5.268 4.758-7.711 7.138-5.968 5.822-16.61 4.026-21-3.367-2.277-3.831-3.355-7.99-1.783-12.341.633-1.76 1.777-3.413 2.984-4.868 2.042-2.456 4.31-4.716 6.707-7.29-1.714-1.674-3.428-3.457-5.245-5.114-1.065-.971-1.138-1.684-.034-2.688 1.675-1.51 3.223-3.164 4.791-4.739zm28.937.332c.49.487.925.905 1.346 1.326 7.999 8.145 15.993 16.295 23.983 24.45 2.251 2.32 2.085 5.464-.216 7.641a5.599 5.599 0 01-7.754-.162c-2.079-2.038-4.187-4.05-6.074-5.87l-5.358 4.972c2.321 2.15 4.599 4.222 6.817 6.362 3.478 3.357 7.499 3.791 11.952 2.473 9.183-2.721 12.412-14.051 5.805-20.434-1.293-1.246-2.427-2.651-3.69-3.934a11510.83 11510.83 0 00-20.605-20.768c-.371-.374-.799-.699-1.21-1.057l-4.996 5zm24.338-1.372c2.32-2.535 4.482-4.97 6.73-7.29a10.245 10.245 0 002.901-8.766c-.663-5.22-3.133-9.299-8.216-11.287-4.817-1.886-9.157-1.024-12.91 2.651-5.5 5.405-11.066 10.747-16.576 16.129-3.117 3.022-6.194 6.061-9.224 9.033l5.053 5.22c.282-.255.527-.46.756-.686 8.291-8.136 16.557-16.291 24.895-24.374a6.566 6.566 0 013.1-1.657c2.32-.467 4.522.816 5.596 2.91a5.503 5.503 0 01-.928 6.416c-2.079 2.17-4.178 4.324-6.081 6.296l4.904 5.405zM64.696 58.072c-2.24 2.422-4.402 4.775-6.58 7.111-3.293 3.533-3.7 7.6-2.209 11.997 2.288 6.75 8.72 10.3 15.4 8.573 2.769-.716 4.642-2.708 6.571-4.57 6.648-6.449 13.202-12.99 19.823-19.47 1.482-1.45 3.083-2.78 4.502-4.052l-5.444-5.597a11.803 11.803 0 01-1.094 1.464 12780.435 12780.435 0 01-24.68 24.218 5.043 5.043 0 01-6.216.54c-3.215-2.197-3.554-6.153-.789-8.967 1.966-1.988 3.91-4.033 5.885-6.078l-5.168-5.17zm24.133-1.379a16.56 16.56 0 01-1.326-1.097A16619.858 16619.858 0 0163.5 31.143c-2.387-2.449-2.298-5.398.07-7.738 2.114-2.091 5.46-2.048 7.734.113 2.02 1.915 4.031 3.84 5.875 5.6l5.215-5.07c-2.046-1.912-4.121-3.801-6.14-5.743-4.327-4.175-9.18-4.239-14.346-1.886-7.21 3.284-9.836 13.372-3.995 19.29 8.594 8.706 17.088 17.508 25.661 26.31l5.255-5.326zm21.043-19.727c2.39-2.532 4.913-5.028 7.207-7.722 1.104-1.292.517-3.526-.859-4.759-1.296-1.16-3.159-1.431-4.359-.364-2.619 2.32-5.119 4.785-7.702 7.22l5.713 5.624zM71.699 64.743c-2.4 2.17-4.844 4.241-7.099 6.485-1.236 1.223-.938 3.705.332 4.97 1.343 1.326 3.408 1.7 4.641.597 2.5-2.24 4.894-4.593 7.354-6.926l-5.228-5.126zm4.233-33.514c-2.148-2.366-4.144-4.725-6.322-6.906-1.27-1.273-3.647-.968-4.953.368-1.366 1.392-1.638 3.43-.428 4.782 2.119 2.37 4.35 4.623 6.525 6.893l5.178-5.137zm34.42 33.755l-5.364 5.246c2.052 2.18 4.041 4.46 6.22 6.545 1.349 1.293 3.67 1.038 4.973-.245 1.385-1.359 1.724-3.466.573-4.752-2.092-2.336-4.303-4.567-6.402-6.794zM71.341 62.03l4.704-4.869-5.06-5.2-4.78 4.886 5.136 5.183zm30.411 8.225l-4.804-4.971-4.767 4.596 4.91 5.16 4.661-4.785zM83.538 26.112l-4.791 4.6 4.658 5.07 4.973-4.824-4.84-4.845zm26.576 22.72l4.681-4.576-4.874-5.074-4.767 4.706 4.96 4.945z" fill="#000"/><path d="M92.22 44.36l4.974-5.018c.414.358.838.683 1.21 1.057 6.885 6.92 13.761 13.85 20.628 20.792 1.263 1.279 2.4 2.687 3.69 3.933 6.607 6.38 3.378 17.713-5.805 20.434-4.456 1.325-8.474.884-11.952-2.473-2.218-2.14-4.506-4.208-6.816-6.362l5.357-4.971c1.887 1.823 3.979 3.83 6.074 5.869a5.6 5.6 0 007.755.162c2.304-2.177 2.469-5.328.215-7.642a4450.346 4450.346 0 00-23.983-24.45c-.421-.424-.856-.845-1.346-1.332z" fill="#CC3"/><path d="M116.559 42.99l-4.91-5.447c1.903-1.969 4.001-4.12 6.08-6.297a5.497 5.497 0 00.915-6.409c-1.074-2.094-3.269-3.373-5.596-2.91a6.57 6.57 0 00-3.1 1.658c-8.335 8.085-16.603 16.238-24.892 24.377-.228.225-.477.434-.755.685l-5.043-5.202c3.027-2.983 6.107-6.012 9.207-9.03 5.526-5.382 11.09-10.724 16.576-16.13 3.757-3.688 8.093-4.55 12.91-2.65 5.083 1.988 7.543 6.067 8.216 11.287a10.24 10.24 0 01-2.881 8.775c-2.241 2.336-4.396 4.759-6.727 7.294zm-51.86 15.079l5.169 5.163c-1.99 2.045-3.92 4.073-5.885 6.078-2.765 2.813-2.427 6.77.789 8.967a5.044 5.044 0 006.22-.527A7080.835 7080.835 0 0095.67 53.532c.402-.459.768-.949 1.094-1.464l5.437 5.587c-1.419 1.272-3.02 2.601-4.502 4.053-6.63 6.478-13.175 13.02-19.823 19.469-1.92 1.862-3.806 3.854-6.57 4.57-6.678 1.723-13.11-1.83-15.397-8.577-1.492-4.397-1.08-8.463 2.208-11.996 2.175-2.336 4.34-4.69 6.58-7.105z" fill="#CC3"/><path d="M88.83 56.684l-5.252 5.332c-8.573-8.799-17.067-17.604-25.66-26.31-5.842-5.918-3.216-16.005 3.994-19.293 5.166-2.35 10.02-2.286 14.346 1.89 2.019 1.944 4.095 3.837 6.137 5.745l-5.212 5.067c-1.843-1.76-3.856-3.685-5.875-5.6-2.274-2.16-5.62-2.204-7.735-.113-2.363 2.34-2.456 5.302-.07 7.738A5105.154 5105.154 0 0087.5 55.587c.424.388.868.754 1.33 1.097z" fill="#CC3"/><path d="M109.874 36.956l-5.712-5.633c2.579-2.436 5.083-4.895 7.702-7.221 1.2-1.067 3.066-.796 4.359.364 1.376 1.233 1.96 3.466.859 4.759-2.294 2.7-4.817 5.196-7.208 7.731zM71.702 64.74l5.212 5.13c-2.463 2.32-4.857 4.685-7.353 6.926-1.23 1.103-3.296.742-4.642-.597-1.27-1.266-1.568-3.748-.331-4.97 2.27-2.248 4.714-4.319 7.114-6.49zm4.233-33.514l-5.178 5.137c-2.175-2.27-4.406-4.523-6.525-6.886-1.21-1.352-.955-3.39.428-4.782 1.326-1.326 3.683-1.64 4.953-.368 2.178 2.18 4.177 4.54 6.322 6.9zm34.42 33.756c2.112 2.227 4.31 4.46 6.405 6.793 1.151 1.286.809 3.394-.573 4.752-1.306 1.283-3.627 1.538-4.973.245-2.178-2.084-4.168-4.367-6.22-6.544l5.361-5.246zm-39.011-2.956l-5.135-5.183 4.78-4.882 5.057 5.197-4.702 4.868zm30.412 8.228l-4.661 4.782-4.904-5.163 4.768-4.596 4.797 4.977z" fill="#fff"/><path d="M95.616 76.547l-4.668 4.782-4.903-5.16 4.767-4.596 4.804 4.974zM69.246 50.65l-4.665 4.768-4.903-5.15 4.767-4.596 4.8 4.977z" fill="#936"/><path d="M82.437 63.51l-4.672 4.782-4.9-5.16 4.768-4.6 4.804 4.978zM95.284 50.6l-4.668 4.781-4.903-5.163 4.767-4.596 4.804 4.977zm12.67 13.573l-4.668 4.782-4.903-5.163 4.767-4.596 4.804 4.977zM81.697 37.384l-4.668 4.778-4.9-5.16 4.767-4.596 4.801 4.978z" fill="#099"/><path d="M94.837 24.98l-4.671 4.782-4.9-5.163 4.767-4.597 4.804 4.978z" fill="#936"/><path d="M107.954 38.046l-4.671 4.78-4.9-5.16 4.767-4.597 4.804 4.977z" fill="#099"/><path d="M121.11 50.98l-4.668 4.77-4.903-5.164 4.784-4.583 4.787 4.977z" fill="#936"/><path d="M83.54 26.11l4.841 4.845-4.973 4.825-4.658-5.07 4.79-4.6zm26.578 22.72l-4.973-4.938 4.78-4.712 4.874 5.073-4.681 4.577z" fill="#fff"/></g><defs><clipPath id="clip0"><path fill="#fff" transform="translate(53 13)" d="M0 0h75v75H0z"/></clipPath></defs></svg>