<svg width="180" height="100" fill="none" xmlns="http://www.w3.org/2000/svg"><path d="M136.793 100H45V0h91.793v100zM135.76 1.033H46.033v97.934h89.727V1.033z" fill="#000"/><path d="M135.76 1.033v97.934H46.033V1.033h89.727zM62.112 94.711h58.754c-.76-14.924-2.948-29.483-8.541-43.678-.334.76-.578 1.247-.79 1.733-2.098 4.65-4.56 9.058-8.298 12.584-6.505 6.17-14.955 6.443-21.824.699-4.407-3.709-7.203-8.572-9.635-13.678-.213-.486-.456-.942-.73-1.55-4.407 8.936-9.27 32.857-8.936 43.89zm58.541-89.696H62.416c-.699 7.842 5.289 37.386 8.784 43.01.335-.7.639-1.338.943-1.946 2.766-5.35 5.927-10.395 10.942-13.951 5.684-4.073 11.824-4.043 17.507 0 3.739 2.674 6.444 6.261 8.693 10.212 1.064 1.854 2.007 3.8 3.162 5.958 4.984-14.195 7.264-28.572 8.206-43.283zM90.836 30.67c-2.128 0-4.772 1.094-7.143 2.826-5.532 4.073-8.784 9.818-11.52 15.928-.152.334-.06.911.091 1.276 2.25 4.803 4.924 9.301 8.724 13.07 2.431 2.37 5.136 4.286 8.571 4.894 4.65.85 8.572-.882 12.006-3.83 4.468-3.86 7.325-8.875 9.696-14.164.152-.304.152-.821 0-1.125-2.34-5.35-5.137-10.456-9.483-14.498-2.857-2.645-6.08-4.408-10.942-4.377zM49.863 42.523v14.255c5.806 0 11.52 0 17.204-.03.304 0 .73-.456.85-.82.852-2.159 2.19-4.317 2.31-6.536.092-1.854-1.215-3.8-1.884-5.684-.03-.06-.03-.091-.03-.152-.152-.85-.669-1.094-1.49-1.064-2.461.061-4.954.03-7.416.03h-9.544zm82.006 14.255V42.523h-13.86c-2.614 0-2.371.091-3.465 2.523-1.398 3.07-1.398 5.836.03 8.905 1.277 2.706 1.064 2.827 4.043 2.827h13.252zM67.067 40.03c-.821-3.373-1.58-6.656-2.493-9.939-.09-.364-.82-.82-1.276-.82-2.645-.092-5.259-.03-7.903-.03h-5.532v10.79h17.204zm-3.131 30.396c.912-3.618 1.793-7.143 2.705-10.76H49.893v10.76h14.043zm67.933-30.365v-10.7h-13.131c-.851 3.618-1.702 7.113-2.553 10.7h15.684zM116.55 59.666c.669 2.735 1.337 5.35 1.976 7.994.638 2.766.608 2.796 3.495 2.796h9.909v-10.79h-15.38zM49.924 16.505v9.179h13.738c-.516-3.13-1.003-6.14-1.459-9.18h-12.28zm13.343 57.568H49.893v9.149H61.9c.455-3.07.911-6.049 1.367-9.149zm57.508-57.599c-.456 3.07-.912 6.08-1.368 9.27 3.891 0 7.568-.06 11.246.031 1.186.03 1.459-.425 1.429-1.52-.061-1.671-.031-3.343-.031-5.015v-2.796c-3.921.03-7.568.03-11.276.03zm11.276 66.778c0-2.918.031-5.684-.03-8.45 0-.273-.486-.79-.76-.82-3.769-.061-7.568-.03-11.489-.03.456 3.19.881 6.2 1.307 9.3h10.972zM49.833 12.371h11.823c-.243-2.493-.456-4.833-.699-7.265H49.833v7.265zm-.061 74.924c0 1.094-.03 2.036 0 2.979.06 1.428-.334 3.343.395 4.194.669.73 2.644.274 4.042.274 2.189.03 4.408 0 6.687 0 .183-2.614.335-4.985.517-7.447H49.772zm82.158-74.863V5.015c-3.192 0-6.322 0-9.423.03-.243 0-.638.396-.668.609-.243 2.218-.395 4.468-.578 6.778h10.669zm-10.456 74.893c.152 2.493.304 4.894.486 7.325h9.97v-7.325h-10.456z" fill="#fff"/><path d="M62.114 94.711c-.334-11.033 4.529-34.924 8.936-43.86.274.608.517 1.064.73 1.55 2.431 5.107 5.197 9.97 9.635 13.678 6.87 5.745 15.319 5.471 21.824-.699 3.738-3.556 6.2-7.964 8.297-12.584.213-.486.456-.972.791-1.732 5.592 14.194 7.781 28.723 8.541 43.678-19.605-.03-39.119-.03-58.754-.03zm58.539-89.696c-.942 14.742-3.222 29.088-8.206 43.252-1.155-2.158-2.098-4.103-3.162-5.957-2.279-3.92-4.954-7.538-8.693-10.213-5.683-4.042-11.793-4.073-17.507 0-5.015 3.587-8.176 8.602-10.942 13.952-.335.608-.608 1.246-.943 1.945-3.495-5.593-9.513-35.137-8.784-42.979h58.237z" fill="#000"/><path d="M90.838 30.669c4.863 0 8.115 1.732 10.912 4.376 4.346 4.043 7.142 9.15 9.483 14.499.152.304.152.82 0 1.125-2.371 5.288-5.228 10.303-9.696 14.164-3.435 2.978-7.325 4.68-12.006 3.83-3.405-.639-6.14-2.523-8.572-4.894-3.8-3.739-6.474-8.268-8.723-13.07-.183-.365-.243-.942-.091-1.277 2.705-6.109 5.988-11.854 11.52-15.927 2.4-1.763 5.045-2.857 7.173-2.826zM78.832 43.434v12.402h3.951V51.58c1.854-.182 3.587-.182 5.228-.547 2.006-.456 2.979-2.066 2.857-4.073-.121-2.006-1.185-3.313-3.313-3.465-2.857-.212-5.745-.06-8.723-.06zm7.538 12.371c.334.061.486.122.638.122 2.128 0 4.255.03 6.383 0 3.13 0 4.377-1.277 4.438-4.438.03-1.307 0-2.614.06-3.951.061-1.034.547-1.641 1.703-1.702 2.158-.091 2.218-.183 1.732-2.462-2.28 0-4.62-.091-6.9.03-1.398.091-2.249 1.034-2.34 2.523-.06.851-.091 1.733-.213 2.553-.273 2.097-1.337 3.252-3.434 3.678-.67.152-1.338.243-2.007.365-.06 1.215-.06 2.218-.06 3.282zm15.045-8.632c-1.155-.243-2.188-.273-2.249 1.064-.122 2.34-.03 4.711-.03 7.082h2.249a38.54 38.54 0 00.213-1.945c1.398 2.34 1.489 2.37 4.194 1.854-1.033-1.611-.881-3.8-2.918-4.894.578-1.003 1.186-2.006 1.915-3.252-2.219-.213-1.976 2.036-3.252 2.644a76.39 76.39 0 00-.122-2.553zm-8.51-4.529h-3.283a76.024 76.024 0 011.672 1.885 56.638 56.638 0 001.61-1.885zm-43.041-.121h9.514c2.462 0 4.954.03 7.416-.03.852-.031 1.338.242 1.49 1.063 0 .061.03.091.03.152.669 1.885 2.006 3.83 1.885 5.684-.122 2.219-1.46 4.377-2.31 6.535-.122.334-.578.82-.851.82-5.715.062-11.398.031-17.204.031.03-4.772.03-9.392.03-14.255zm82.007 14.255h-13.283c-3.009 0-2.766-.122-4.042-2.827-1.459-3.07-1.429-5.836-.031-8.906 1.094-2.431.882-2.522 3.465-2.522h13.86c.031 4.772.031 9.392.031 14.255zM67.067 40.03H49.863V29.24h5.532c2.645 0 5.259-.03 7.903.03.456 0 1.185.457 1.276.821.882 3.283 1.672 6.596 2.493 9.94zm-3.131 30.396H49.924v-10.76H66.67c-.942 3.617-1.823 7.112-2.735 10.76zm67.931-30.366h-15.683c.851-3.586 1.702-7.112 2.553-10.698h13.13V40.06zm-15.318 19.606h15.38v10.79h-9.909c-2.888 0-2.857 0-3.495-2.796-.639-2.614-1.307-5.259-1.976-7.994zM49.923 16.505h12.25c.485 3.009.972 6.048 1.458 9.179H49.893c.03-3.01.03-6.018.03-9.18zm13.343 57.568c-.456 3.1-.911 6.079-1.367 9.149H49.893v-9.15h13.373zm57.508-57.599h11.277v2.796c0 1.672-.061 3.344.03 5.016.03 1.063-.213 1.52-1.429 1.52-3.677-.061-7.355-.031-11.246-.031.456-3.191.912-6.2 1.368-9.3zm11.277 66.778h-10.973c-.425-3.07-.851-6.11-1.307-9.3 3.921 0 7.69-.031 11.49.03.273 0 .76.517.76.82.03 2.766.03 5.532.03 8.45zM49.834 12.37V5.107h11.125c.243 2.432.455 4.772.699 7.265H49.834zm-.064 74.925h11.672c-.152 2.462-.334 4.832-.516 7.447-2.31 0-4.499.03-6.687 0-1.398 0-3.404.455-4.043-.274-.76-.82-.334-2.736-.395-4.195-.06-.942-.03-1.884-.03-2.978zm82.16-74.863h-10.668c.182-2.31.364-4.53.577-6.778.031-.244.426-.608.669-.608 3.1-.03 6.231-.03 9.422-.03v7.416zm-10.455 74.893h10.456v7.325h-9.97a529.002 529.002 0 01-.486-7.325z" fill="red"/><path d="M78.83 43.435c2.978 0 5.835-.152 8.692.06 2.128.152 3.192 1.46 3.313 3.466.122 2.006-.85 3.647-2.857 4.072-1.641.365-3.374.365-5.228.548v4.255H78.8c.03-4.134.03-8.237.03-12.401z" fill="#fff"/><path d="M86.37 55.805v-3.221c.668-.122 1.337-.213 2.005-.365 2.097-.456 3.161-1.58 3.435-3.678a24.12 24.12 0 00.213-2.553c.09-1.49.912-2.432 2.34-2.523 2.31-.152 4.62-.03 6.9-.03.486 2.28.456 2.37-1.733 2.462-1.155.03-1.641.668-1.702 1.702-.06 1.307-.03 2.614-.06 3.951-.031 3.161-1.308 4.438-4.438 4.438h-6.383c-.091-.061-.243-.122-.578-.183z" fill="#fff"/><path d="M101.414 47.173c.03.851.091 1.702.122 2.584 1.276-.608 1.033-2.857 3.252-2.645-.73 1.247-1.338 2.25-1.915 3.253 2.036 1.094 1.884 3.282 2.918 4.893-2.705.517-2.796.487-4.195-1.854a46.37 46.37 0 00-.212 1.945h-2.25c0-2.37-.09-4.71.03-7.082.062-1.367 1.095-1.337 2.25-1.094zm-8.512-4.529c-.578.669-1.094 1.277-1.611 1.885-.517-.578-1.094-1.216-1.672-1.885h3.283z" fill="#fff"/></svg>