<svg width="180" height="100" fill="none" xmlns="http://www.w3.org/2000/svg"><path d="M38.483 26l.654.15a3.758 3.758 0 012.822 2.325c0 .045 0 .104.052.15a.242.242 0 01-.117.367c-.21.105-.23.275-.197.484a2.869 2.869 0 01-.975 2.717 3.633 3.633 0 01-4.97-.144 2.913 2.913 0 01-.818-2.71c.06-.301.046-.334-.248-.38a15.586 15.586 0 00-3.038-.236 4.85 4.85 0 00-1.133.21 2.868 2.868 0 00-2.068 2.52c-.05.325-.064.655-.04.982a2.245 2.245 0 00.976 1.643 7.49 7.49 0 003.031 1.421c.729.14 1.453.288 2.173.445.236.059.468.133.694.223.408.135.76.4 1.002.753a.962.962 0 00.583.412.29.29 0 01.118.04c.31.22.68.343 1.06.353.238.046.47.117.694.21a.23.23 0 01.167.235.23.23 0 01-.03.098.347.347 0 00.145.472c.216.157.432.307.654.438.223.131.655.328.95.518.208.125.4.277.57.451a.418.418 0 010 .655 1.524 1.524 0 00-.158.334c-.098.255-.19.517-.295.772a.302.302 0 01-.36.19 16.96 16.96 0 00-.818-.078 1.474 1.474 0 00-.314 0c-.282.039-.367.183-.236.445.107.194.225.382.354.563.032.052.085.098.117.15.125.184.118.223-.052.373a.879.879 0 00-.157.151.883.883 0 01-.792.393 1.722 1.722 0 01-1.25-.354.353.353 0 00-.118-.045.346.346 0 00-.118.38c.055.282.006.575-.138.824a.76.76 0 000 .78c.057.113.096.234.118.36.275 1.138.57 2.278.812 3.43.18.86.43 1.706.746 2.527.177.451.34.91.485 1.374.316.948.26 1.98-.158 2.888a1.966 1.966 0 00-.052 1.348c.295 1.179.57 2.364.845 3.548a22.197 22.197 0 001.034 3.53c.138.333.32.654.484.961a1.434 1.434 0 001.127.753c.418.072.837.125 1.256.197.26.045.516.108.766.19.149.053.286.133.406.235a.655.655 0 01.066 1.08 5.877 5.877 0 01-.524.511.485.485 0 01-.282.098h-5.106a.426.426 0 01-.478-.314v-.092a9.397 9.397 0 00-.923-1.964c-.478-.923-.91-1.865-1.362-2.795a15.33 15.33 0 00-.589-1.126c-.216-.367-.4-.596-.609-.89-.104-.144-.229-.282-.34-.42a1.924 1.924 0 01-.452-1.309 6.147 6.147 0 00-.039-.654c-.1.03-.196.069-.288.117-.319.19-.62.41-.897.655a6.756 6.756 0 01-3.044 1.63c-1.899.576-3.823 1.028-5.755 1.447l-2.265.478-.203.033.144-.242c.439-.655.897-1.31 1.31-1.965.307-.46.53-.972.654-1.512.02-.082.032-.165.04-.249.039-.654-.216-1.014-.845-1.08a9.292 9.292 0 00-1.866 0c-2.052.226-4.079.64-6.055 1.238l-.21.072-.072.085.897-.19a38.88 38.88 0 013.993-.733 11.165 11.165 0 012.377-.092c.223.017.442.061.655.13a.693.693 0 01.517.747 2.314 2.314 0 01-.164.766 7.53 7.53 0 01-.596 1.12 9.967 9.967 0 01-1.813 2.081c-.655.583-1.31 1.192-1.964 1.794-.118.112-.223.242-.34.373a.657.657 0 00.563.164l2.284-.098c1.45-.105 2.908.041 4.308.432.453.154.891.35 1.31.583a.694.694 0 01.248 1.139c-.052.078-.118.15-.177.222a1.107 1.107 0 01-.955.432H8.19a1.092 1.092 0 01-.052-.229 2.01 2.01 0 00-.419-1.014c-.21-.321-.393-.655-.59-.976a.86.86 0 00-.13-.137v-.125c.183-.04.157-.21.196-.327a31.903 31.903 0 011.14-3.202 11.784 11.784 0 015.46-6.062c.975-.51 1.963-1.008 2.926-1.538.792-.432 1.558-.897 2.337-1.349.1-.065.196-.135.288-.21l-.183-.176c-.25-.2-.485-.418-.7-.655a11.336 11.336 0 00-.714-.883 1.525 1.525 0 01-.485-1.31.576.576 0 00-.19-.452 1.237 1.237 0 01-.098-1.531.347.347 0 000-.432 1.205 1.205 0 01-.21-.97.543.543 0 00-.137-.569 13.323 13.323 0 01-2.344-3.758 5.636 5.636 0 01-.471-2.193 1.21 1.21 0 01.23-.812.452.452 0 00.058-.543c-.196-.524-.4-1.047-.556-1.584a1.71 1.71 0 01.242-1.545.406.406 0 000-.439 4.39 4.39 0 01-.295-1.002 2.579 2.579 0 01.655-2.376c-.052-.19-.111-.386-.157-.576a3.345 3.345 0 010-1.755.772.772 0 01.38-.523.903.903 0 00.53-.786c.076-.386.27-.738.556-1.008a4.916 4.916 0 011.408-1.021.537.537 0 01.334-.06c.445.158.923.282 1.126.793 0 0 .052.033.085.052.268-.196.523-.406.798-.576.701-.432.655-.471 1.5-.033a.919.919 0 01.465.537c.242.7.517 1.388.752 2.095a12.028 12.028 0 002.141 3.928c.655.786 1.31 1.571 1.964 2.344a556.76 556.76 0 002.887 3.385 1.355 1.355 0 01.42 1.02c.002.095.013.19.032.282.11 1.225.343 2.435.694 3.614 0 .105.072.21.105.32h.078v-2.232c0-.982.052-1.964.072-2.952a1.06 1.06 0 01.183-.53c.146-.234.266-.482.36-.74a1.415 1.415 0 00-.523-1.774c-.301-.236-.655-.426-.95-.655a2.316 2.316 0 01-.432-.32 4.668 4.668 0 01-1.139-2.01 4.93 4.93 0 01.19-2.783 2.866 2.866 0 011.748-1.82 5.118 5.118 0 011.107-.275 10.893 10.893 0 012.474 0c.38 0 .76.052 1.14.092a.295.295 0 00.34-.203 3.567 3.567 0 012.677-1.964c.184-.033.367-.092.55-.131l.439-.059zm-23.68 13.984a1.558 1.558 0 00-.229 1.309 7.14 7.14 0 00.655 1.964 14.29 14.29 0 002.147 3.326.504.504 0 01.131.57 1.527 1.527 0 000 .968.393.393 0 01-.052.327 1.166 1.166 0 00.118 1.421.654.654 0 01.144.498.845.845 0 00.13.576c.151.229.322.445.485.654.164.21.21.236.295.367.3.466.715.847 1.204 1.106a.295.295 0 00.236.033c.417-.194.758-.521.969-.93-.157-.17-.32-.32-.458-.49a1.468 1.468 0 01-.406-1.166.603.603 0 00-.184-.484 1.237 1.237 0 01-.098-1.558.347.347 0 000-.433 1.2 1.2 0 01-.196-.942.654.654 0 00-.197-.655 14.139 14.139 0 01-1.885-2.782 7.594 7.594 0 01-.838-2.455 1.84 1.84 0 01.354-1.683c-.053-.144-.112-.281-.164-.419-.17-.477-.354-.955-.504-1.44a1.5 1.5 0 01.091-1.31 1.02 1.02 0 00.06-1.014 2.947 2.947 0 01.484-3.11 4.229 4.229 0 01-.242-1.754 1.31 1.31 0 01.687-1.264.439.439 0 00.21-.255c.163-.615.157-.615-.236-1.113l-.138-.17c-.235-.262-.366-.288-.654-.085a1.834 1.834 0 00-.89 1.623.426.426 0 01-.256.459c-.23.115-.408.314-.498.556a3.712 3.712 0 00-.274 1.886.968.968 0 01-.131.831.582.582 0 00-.085.203 6.742 6.742 0 00-.25 2.795c.053.445.19.884.302 1.362a.644.644 0 01-.059.092 1.362 1.362 0 00-.183 1.518c.137.34.262.695.406 1.068zm23.568-10.946h-2.147a.517.517 0 00-.582.49 1.856 1.856 0 000 .655 3.103 3.103 0 001.963 2.193 2.082 2.082 0 001.578 0 3.274 3.274 0 001.532-1.309c.305-.425.449-.945.406-1.466a.557.557 0 00-.602-.583l-2.148.02zm94.022 39.81h-1.415c-.137 0-.163-.092-.183-.21l-.373-2.193a404.85 404.85 0 01-.517-3.07 1.59 1.59 0 00-.105-.249c-.059.157-.098.249-.131.347l-1.709 5.021a.713.713 0 01-.078.21c-.046.059-.118.13-.183.13h-1.31l-1.885-5.656h-.072c-.03.07-.054.143-.072.216-.301 1.72-.6 3.44-.897 5.16-.046.268-.059.28-.321.28h-1.309a2.98 2.98 0 010-.327c.222-1.309.445-2.566.654-3.85.262-1.51.522-3.021.78-4.536.052-.294.058-.314.366-.314h1.015c.314 0 .314 0 .419.314l1.859 5.604c.039.118.085.236.138.367.157-.085.157-.223.196-.328.498-1.462.991-2.926 1.479-4.392l.439-1.31c.092-.268.092-.268.386-.275h1.048c.255 0 .275 0 .321.288l.687 4.072.759 4.51c.009.064.014.127.014.19zM76.12 38.046h-1.604a2.585 2.585 0 01-.04-.334v-8.668h1.284a.445.445 0 01.438.236c.819 1.263 1.644 2.52 2.462 3.784l1.08 1.65c.059.091.131.176.236.314.05-.345.065-.694.046-1.041V29.07c.093-.016.187-.027.281-.032h1.08c.282 0 .295 0 .308.314v8.726h-1.486a.32.32 0 01-.197-.137c-.11-.15-.209-.314-.314-.478l-3.273-5.002-.21-.3c-.124.11-.085.235-.085.34v5.152l-.006.393zm89.196-7.607l-1.133 1.165-.248-.223a3.56 3.56 0 00-3.424-.857 3.137 3.137 0 00-2.233 2.92 3.215 3.215 0 003.169 3.26c.296.003.592-.02.884-.072a2.395 2.395 0 001.735-1.349.468.468 0 000-.092.403.403 0 000-.085 3.548 3.548 0 00-.832-.032h-1.656c-.088-.495-.101-1-.039-1.5.222-.065 4-.085 4.432 0 .05.395.034.796-.046 1.185a4.251 4.251 0 01-2.94 3.34 5.02 5.02 0 01-3.718-.263 4.484 4.484 0 01-2.619-3.64 4.547 4.547 0 011.964-4.583 4.458 4.458 0 012.468-.811 5.73 5.73 0 012.462.386 4.877 4.877 0 011.774 1.25zm-61.279 38.389h-1.558c-.066-.255-.086-8.563 0-8.95a.646.646 0 01.17-.045h1.204c.203 0 .269.13.36.262l2.829 4.34.694 1.067c.058.086.124.164.183.25h.065v-5.343c0-.596 0-.55.557-.55h.956a.295.295 0 01.085 0c.065.23.091 8.373 0 8.936a.497.497 0 01-.138.046h-1.27c-.17 0-.242-.098-.321-.216l-1.545-2.37-1.964-3.03c-.059-.093-.131-.184-.196-.282-.144.085-.105.203-.105.3v5.18c.013.143 0 .261-.006.405zm-4.129-24.366h1.277a.469.469 0 01.464.255 384.995 384.995 0 003.365 5.165l.341.504c.137-.118.098-.255.098-.366v-5.375a.17.17 0 01.183-.177h1.382c.085.255.104 8.609 0 8.995a2.266 2.266 0 01-.236 0h-1.047a.438.438 0 01-.433-.242 107.4 107.4 0 00-2.009-3.09l-1.493-2.285c-.065-.098-.131-.183-.203-.288-.137.098-.098.223-.098.334v5.538h-1.591c-.046-.229-.072-8.432 0-8.968zm.787 19.908a4.82 4.82 0 01-4.541 4.888 4.82 4.82 0 114.462-5.68c.033.268.052.53.079.792zm-7.752 0c0 .262.046.53.099.785a3.05 3.05 0 101.047-3.273 3.09 3.09 0 00-1.152 2.475l.006.013zm-33.949 4.779a4.688 4.688 0 01-4.714-4.786 4.753 4.753 0 014.727-4.707 4.799 4.799 0 014.68 4.786 4.68 4.68 0 01-4.693 4.707zm-3.057-4.746c0 .229.039.464.078.694a3.03 3.03 0 005.89.252c.148-.51.16-1.051.035-1.568a2.92 2.92 0 00-2.023-2.364 2.874 2.874 0 00-3.038.655 3.102 3.102 0 00-.949 2.304l.007.027zm64.824-.033a4.798 4.798 0 11-.118-1.008c.059.334.079.667.118 1.008zm-4.726-3.156a2.952 2.952 0 00-2.868 2.095 3.642 3.642 0 00-.105 1.663 3.039 3.039 0 004.642 2.023 3.172 3.172 0 001.263-3.499 3.166 3.166 0 00-2.932-2.288v.006zm22.119-28.15l.491.301a2.292 2.292 0 011.126 2.324 2.424 2.424 0 01-1.597 2.147c-.346.13-.711.2-1.08.21h-2.73a1.319 1.319 0 01-.171 0V29.05c.101-.006.201-.006.302 0 .733 0 1.459 0 2.193.059.456.014.903.13 1.309.34a2.12 2.12 0 011.029 2.61c-.117.321-.311.61-.564.84l-.308.164zm-2.35 2.2v.982c0 .117 0 .248.177.248a3.967 3.967 0 001.597-.19.87.87 0 00.537-.654 1.174 1.174 0 00-.105-.907 1.168 1.168 0 00-.727-.553 5.846 5.846 0 00-1.158-.15c-.282 0-.315 0-.321.3-.007.302 0 .622 0 .924zm0-4.636v1.801a.169.169 0 00.112.167.17.17 0 00.071.01 2.03 2.03 0 00.995-.15.961.961 0 00.531-.937.9.9 0 00-.655-.838 2.874 2.874 0 00-1.021-.053h-.033zm-13.857 7.418h-1.591c-.065-.242-.091-8.465 0-8.995.087-.018.174-.029.262-.033.871 0 1.735 0 2.619.059.284.013.566.063.838.15a2.185 2.185 0 011.558 1.906c.056.366.056.74 0 1.106a2.128 2.128 0 01-1.31 1.63l-.379.183c.687 1.343 1.407 2.62 2.121 4.02h-1.499a.42.42 0 01-.445-.262c-.57-1.1-1.159-2.186-1.742-3.273a1.134 1.134 0 00-.124-.216.202.202 0 00-.157-.072c-.04 0-.085.085-.092.137a1.36 1.36 0 000 .256v3.018a1.279 1.279 0 00-.059.386zm.039-5.506c.511.087 1.034.06 1.532-.078a.754.754 0 00.406-.334.952.952 0 00.038-.903.964.964 0 00-.732-.531 5.571 5.571 0 00-.654-.052h-.583l-.007 1.898zm27.843-3.483a1.35 1.35 0 01.222-.032c.891 0 1.781 0 2.671.059.253.012.504.056.747.13a2.173 2.173 0 011.512 1.506c.173.539.189 1.116.046 1.663a2.208 2.208 0 01-1.244 1.48l-.314.15-.066.079 2.088 3.928a1.535 1.535 0 01-.229.039h-1.27a.4.4 0 01-.419-.249 297.83 297.83 0 00-1.741-3.273 1.337 1.337 0 00-.164-.268.13.13 0 00-.229.079c-.007.084-.007.17 0 .254v3.444h-1.571c-.098-.242-.124-8.524-.039-8.989zm1.623 1.598v1.911c.465.068.938.048 1.395-.059a.768.768 0 00.654-.772.88.88 0 00-.589-.976 2.314 2.314 0 00-.589-.098c-.275-.026-.557-.013-.877-.013l.006.007zm-21.367 22.782h-1.578a1.503 1.503 0 010-.19v-8.615a.597.597 0 01.033-.118c.098-.006.196-.006.294 0h2.383c.276.016.549.053.819.111a2.235 2.235 0 011.761 2.042c.041.327.041.657 0 .983a2.153 2.153 0 01-1.257 1.65l-.341.163-.046.072c.197.42.446.851.655 1.31.21.458.465.877.701 1.309l.648 1.283h-1.506a.398.398 0 01-.419-.255 322.36 322.36 0 00-1.741-3.274 1.262 1.262 0 00-.144-.242.214.214 0 00-.164-.046c-.033 0-.072.079-.079.118a1.977 1.977 0 000 .288v2.992c-.019.131-.019.262-.019.419zm0-6.429v.76c0 .117.039.21.176.216.465.04.933-.005 1.382-.131a.72.72 0 00.438-.386.94.94 0 00.001-.87.947.947 0 00-.708-.505 7.549 7.549 0 00-1.04-.053c-.203 0-.236.04-.249.243-.013.203 0 .49 0 .733v-.007zm-60.649-8.942h-1.545c-.157 0-.19-.105-.235-.217l-.518-1.361c-.117-.301-.117-.301-.432-.308h-3.142a.38.38 0 00-.42.288c-.163.458-.36.904-.53 1.362a.314.314 0 01-.346.242h-1.434c.033-.13.052-.223.085-.308l3.273-8.471c.105-.268.105-.268.387-.275h1.113c.3 0 .3 0 .412.288l1.886 4.884 1.342 3.496c.02.105.052.216.104.38zm-3.083-3.555a.646.646 0 000-.112 540.9 540.9 0 00-1.093-2.834.572.572 0 00-.112-.131 22.571 22.571 0 00-1.178 3.103c.793.077 1.592.068 2.383-.026zm8.417 18.926h-1.564c-.138 0-.177-.098-.21-.203l-.465-1.218c0-.072-.059-.137-.078-.21a.314.314 0 00-.347-.255h-3.274a.328.328 0 00-.346.25c-.164.438-.34.863-.511 1.309-.046.104-.092.21-.144.32h-1.663c.01-.07.025-.14.046-.21l3.273-8.51a.36.36 0 01.4-.275h1.047c.347 0 .373 0 .504.34l2.285 5.834.969 2.52c.006.092.032.19.078.308zm-5.564-3.496h1.676c.269.027.54.012.805-.046a20.207 20.207 0 00-1.237-3.083l-1.244 3.129zm19.766 16.288l1.08 1.126a.762.762 0 01-.079.124 5.107 5.107 0 01-3.155 1.578 5.415 5.415 0 01-2.41-.262 4.386 4.386 0 01-2.952-3.692 4.93 4.93 0 01.157-2.265 4.452 4.452 0 013.352-3.084 5.015 5.015 0 014.962 1.395l.131.144a.832.832 0 01.06.111l-1.127 1.074-.248-.23a3.784 3.784 0 00-1.965-1.001 3.156 3.156 0 10-1.106 6.213 3.274 3.274 0 002.619-.655c.21-.177.432-.373.68-.576zm56.725 1.146a5.237 5.237 0 01-3.273 1.676 5.32 5.32 0 01-2.704-.374 4.342 4.342 0 01-2.619-3.417 4.884 4.884 0 01.426-3.155 4.58 4.58 0 013.358-2.429 5.047 5.047 0 014.635 1.44c.072.072.138.157.236.262l-1.139 1.087-.282-.249a3.786 3.786 0 00-1.924-.982 3.129 3.129 0 00-3.712 3.568 3.007 3.007 0 002.546 2.618 3.27 3.27 0 002.514-.53c.282-.203.55-.432.838-.654.206.152.39.33.55.53.17.196.347.419.55.609zm.23-38.344c.536-.03 1.074-.03 1.61 0v6.036c.001.329-.025.657-.078.982a2.774 2.774 0 01-2.318 2.187 4.122 4.122 0 01-1.518-.06 2.914 2.914 0 01-1.519-.935 2.478 2.478 0 01-.563-1.395c-.046-.4-.07-.802-.072-1.204v-5.624a13.483 13.483 0 011.643 0v5.453c0 .315 0 .655.039.95a1.32 1.32 0 00.527 1 1.31 1.31 0 001.11.217 1.224 1.224 0 001.074-1.23c0-.53.039-1.061.039-1.591V29.43c.006-.091.019-.216.026-.399zm-54.252 15.45c.081-.022.164-.037.248-.046h1.113c.242 0 .275.04.288.275.014.236 0 .295 0 .445v5.663a1.178 1.178 0 00.786 1.192 1.473 1.473 0 001.571-.295c.212-.2.337-.475.347-.766 0-.366.052-.74.052-1.113v-5.119c0-.255 0-.282.269-.282h1.113c.229 0 .249.033.255.269.007.235 0 .55 0 .825v5.237a2.816 2.816 0 01-.903 2.16c-.431.398-.976.65-1.558.72a3.83 3.83 0 01-1.421-.065 2.658 2.658 0 01-2.121-2.468 19.658 19.658 0 01-.066-1.526v-4.74l.027-.366zm34.945-.026v1.565h-3.215v1.708c.543.033 1.067 0 1.598 0h1.59c.055.254.071.514.046.773v.766a3.476 3.476 0 01-.38.046h-2.867v2.454h3.228v1.67h-4.858v-8.799a.184.184 0 01.006-.08.165.165 0 01.042-.07.174.174 0 01.148-.053h4.295l.367.02zm-40.156.007v1.57h-3.221v1.716c.543.033 1.067 0 1.597 0h1.591c.056.253.071.514.046.772v.766a3.537 3.537 0 01-.38.046h-2.815a13.024 13.024 0 000 2.455h3.175v1.65H81.58v-8.674c0-.308 0-.328.32-.328h4.263c.085 0 .177.013.3.026zm20.047-8.046v1.597h-4.799c-.072-.235-.092-8.51 0-9.008.524-.04 1.061 0 1.597 0h3.228v1.565h-2.822c-.124 0-.249 0-.406.039v1.453c0 .21 0 .236.243.242.242.007.405 0 .602 0h2.389v1.539c-.137 0-.261.04-.379.04h-2.416c-.137 0-.268 0-.419.032v2.121c0 .32 0 .334.347.334h2.887l-.052.046zm7.147 1.624c-.072-.282-.079-8.675 0-8.963a47.465 47.465 0 014.825 0v1.532h-3.208a16.729 16.729 0 000 1.676c.351.027.703.027 1.054 0h2.167v1.538c-.144 0-.262.04-.386.04h-2.841v2.553c.348.022.698.022 1.047 0h2.115c.081.518.092 1.044.032 1.564-.222.099-4.301.125-4.805.06zM80.113 59.853v1.538c-.125 0-.249.033-.367.033h-2.848v1.702H80.1v1.578c-.53.052-1.054 0-1.585 0h-1.57a11.982 11.982 0 000 2.461h3.168v1.604H75.28c0-.124-.032-.236-.032-.347v-8.458a.184.184 0 01.203-.196h4.327c.092.059.196.072.334.085zm32.045-15.424h1.375c.308 0 .308 0 .412.288l.976 2.75 1.093 3.083c.033.092.079.183.125.275h.072c.045-.125.104-.242.144-.367l2.036-5.676c.131-.36.131-.36.517-.36h1.296c-.033.131-.046.223-.079.308l-3.044 8.452c-.098.268-.098.268-.386.268h-1.015c-.314 0-.32 0-.425-.301l-1.31-3.738-1.61-4.55c-.085-.111-.118-.23-.177-.432zM94.562 29.05c.076-.016.152-.027.23-.032.877 0 1.754 0 2.618.059.275.015.548.064.812.144a2.252 2.252 0 011.604 2.069c.016.306.001.613-.046.916a2.35 2.35 0 01-2.043 1.899c-.389.047-.78.073-1.171.078-.413 0-.42 0-.42.439v3.411h-1.558c-.072-.23-.098-8.485-.026-8.982zm1.637 3.523a3.803 3.803 0 001.571-.124.753.753 0 00.465-.596.917.917 0 00-.819-1.159 6.983 6.983 0 00-.883-.059c-.34 0-.36 0-.367.354-.006.353 0 .844 0 1.263 0 .098.013.197.026.32h.007zm55.842 28.445l-1.198 1.06-.242-.261a1.717 1.717 0 00-.969-.622 1.072 1.072 0 00-.373 0 .655.655 0 00-.386 1.152c.242.253.498.493.766.72.458.406.936.792 1.394 1.205.236.213.455.445.655.694a2.504 2.504 0 01.478 2.16 2.463 2.463 0 01-2.082 1.918 3.82 3.82 0 01-1.172 0 3.14 3.14 0 01-2.324-1.86l1.368-.824.21.288c.169.262.392.485.654.655a1.207 1.207 0 001.31.046.841.841 0 00.471-.892.838.838 0 00-.131-.333 1.843 1.843 0 00-.334-.419c-.275-.262-.569-.504-.857-.76-.446-.392-.891-.778-1.31-1.19a3.834 3.834 0 01-.576-.714 2.208 2.208 0 011.427-3.378 2.73 2.73 0 012.37.504c.314.252.599.537.851.85zM59.59 45.581l-1.218 1.074-.23-.262a1.67 1.67 0 00-.968-.655 1.202 1.202 0 00-.498 0 .654.654 0 00-.34 1.048c.148.18.313.346.49.497.511.445 1.035.877 1.54 1.31.327.285.627.6.896.942a2.515 2.515 0 01-1.774 4.013 3.535 3.535 0 01-1.355-.078 3.16 3.16 0 01-2.01-1.807l1.368-.832.184.275c.176.292.418.54.707.72a1.198 1.198 0 001.348 0 .805.805 0 00.282-1.008 1.738 1.738 0 00-.34-.451 23.3 23.3 0 00-1.022-.904 29.061 29.061 0 01-1.388-1.31 2.513 2.513 0 01-.687-1.309 1.965 1.965 0 01.314-1.544 2.384 2.384 0 011.964-1.08 2.803 2.803 0 012.088.765c.216.184.42.4.648.596zm79.601 1.099l-.32-.346a1.717 1.717 0 00-.878-.537.92.92 0 00-.7.124.572.572 0 00-.288.366.593.593 0 00.072.46c.079.137.181.26.301.366.596.53 1.198 1.04 1.787 1.578.322.276.617.58.884.91a2.517 2.517 0 01.198 2.841 2.532 2.532 0 01-.669.746 2.902 2.902 0 01-1.833.517 3.014 3.014 0 01-2.737-1.813.897.897 0 01-.039-.125l1.348-.818.203.288c.166.278.389.517.655.7a1.235 1.235 0 001.401-.052.797.797 0 00.249-1.047 1.963 1.963 0 00-.393-.53c-.321-.308-.655-.583-1.002-.884-.451-.413-.91-.825-1.348-1.257a2.525 2.525 0 01-.701-1.277 2.142 2.142 0 011.041-2.33 2.656 2.656 0 012.619-.092c.531.277.991.673 1.342 1.159l-.576.51-.616.544zM54.154 36.357l1.342-.812.184.268c.165.28.389.52.654.707a1.224 1.224 0 001.244.072.844.844 0 00.373-1.309 2.814 2.814 0 00-.497-.57c-.393-.353-.812-.654-1.205-1.034s-.654-.654-1.001-.969a2.619 2.619 0 01-.694-1.309 1.964 1.964 0 01.334-1.532 2.382 2.382 0 011.964-1.087 2.788 2.788 0 012.068.734c.23.203.439.425.655.654l-1.211 1.067-.242-.255a1.729 1.729 0 00-.937-.615 1.124 1.124 0 00-.438 0 .655.655 0 00-.367 1.145c.172.188.356.365.55.53.471.413.95.819 1.42 1.225.371.304.697.66.97 1.054a2.507 2.507 0 01-1.86 3.928c-.315.03-.633.03-.949 0a2.951 2.951 0 01-2.357-1.892zm72.596.013l1.368-.825c.063.105.133.205.21.301.196.24.415.458.654.655a1.161 1.161 0 001.31.078.838.838 0 00.474-.533.834.834 0 00-.114-.704 2.953 2.953 0 00-.537-.622c-.393-.36-.812-.655-1.205-1.034-.392-.38-.766-.733-1.119-1.12a2.165 2.165 0 01-.55-1.159 2.238 2.238 0 011.735-2.52 2.76 2.76 0 012.402.504c.32.247.61.53.865.845l-1.198 1.06-.243-.262a1.835 1.835 0 00-.936-.615.921.921 0 00-.654.092.605.605 0 00-.347.648.59.59 0 00.098.242c.073.117.164.223.268.314.576.51 1.172 1.015 1.742 1.532.352.305.676.64.968 1.002a2.51 2.51 0 01.29 2.564 2.518 2.518 0 01-2.123 1.468c-.422.05-.85.024-1.263-.078a3.16 3.16 0 01-2.095-1.833zM65.413 59.872h4.432c.035.53.035 1.061 0 1.591h-2.73a1.31 1.31 0 00-.059.249v1.237c0 .236.04.262.295.269h2.5a9.432 9.432 0 010 1.57H67.41c-.34 0-.36 0-.36.36v3.713a.654.654 0 01-.144.039h-1.27c-.164 0-.236-.066-.23-.23v-8.425l.007-.373zm89.456-6.435h-1.611c0-.137-.039-.268-.039-.4v-3.116a1.437 1.437 0 00-.17-.7c-.773-1.484-1.543-2.968-2.311-4.452-.046-.091-.085-.183-.144-.307.079-.02.16-.032.242-.04h1.178a.464.464 0 01.485.315c.438.87.89 1.728 1.342 2.618.052.105.111.203.164.301.163 0 .183-.157.235-.255.452-.864.904-1.722 1.31-2.619a.528.528 0 01.589-.353h1.322a7.1 7.1 0 01-.17.366c-.759 1.48-1.521 2.957-2.285 4.432a1.37 1.37 0 00-.157.655v3.116l.02.439zm-44.224-22.75V38a5.894 5.894 0 01-1.663 0v-6.946c0-.419 0-.425-.425-.425h-.923c-.256 0-.282 0-.288-.269v-1.113c0-.216.032-.235.235-.249h4.734v1.572c-.138 0-.249.032-.36.039h-.917a1.434 1.434 0 01-.393.078zm-26.08.007c-.537-.111-1.06 0-1.584-.085v-1.526a46.321 46.321 0 014.91 0v1.127c0 .445 0 .445-.433.445H86.26v7.365h-1.67v-6.953l-.025-.373zm65.323 13.768v1.544c-.11.02-.221.033-.333.04h-1.297v7.339a5.792 5.792 0 01-1.669.039v-7.339c-.157 0-.282-.033-.399-.04h-.923c-.249 0-.282-.032-.288-.274v-1.048c0-.347.032-.288.301-.288h4.229c.105 0 .229.013.379.026zm-87.662 1.623c-.17 0-.308 0-.439-.033h-.923c-.203 0-.242-.039-.249-.248V44.69c0-.203.04-.236.242-.25h4.675v1.546c-.111 0-.223.04-.334.04h-.884c-.124 0-.249 0-.406.032v7.332a6.156 6.156 0 01-1.67 0v-6.907l-.012-.399zm14.711-.045h-1.545a5.813 5.813 0 010-1.585h4.557a.655.655 0 01.222 0c.06 0 .138.085.144.137v1.46H78.68c0 .19-.033.34-.033.498v6.848a5.42 5.42 0 01-1.65.039v-6.874a3.999 3.999 0 01-.059-.524zm-4.521-7.988H70.85c0-.124-.033-.235-.033-.347v-8.608a4.51 4.51 0 011.572-.033c.026.229.065 8.596.026 8.988zm71.356 6.397v8.988h-1.552c-.065-.255-.078-8.576 0-8.969a9.644 9.644 0 011.552-.02zm-33.009 8.988h-1.584c0-.131-.033-.242-.033-.354v-8.288a.693.693 0 010-.222c0-.06.085-.138.138-.144.488-.03.978-.03 1.466 0l.013 9.008zm24.608 15.398h-1.525v-8.8a.49.49 0 01.039-.117 11.701 11.701 0 011.519 0c.013.183.033 8.445-.033 8.917zM89.252 34.04h2.704c.327 0 .34 0 .347.34.006.34 0 .595 0 .89 0 .295-.04.242-.25.242h-2.572c-.13 0-.229-.045-.229-.196v-1.277z" fill="#008889"/></svg>