<svg width="180" height="100" fill="none" xmlns="http://www.w3.org/2000/svg"><path d="M91.857 65.45c-4.888-1.352-9.559-3.447-14.272-5.28C61.13 53.928 44.764 47.6 28.353 41.315A12.83 12.83 0 0127 40.704c.175-.83.873-.83 1.353-1.004C47.6 31.931 66.892 24.162 86.139 16.35c1.091-.437 2.008-.48 3.099-.044 4.496 1.79 9.035 3.492 14.141 5.456A18751.085 18751.085 0 0050.961 42.93 88409.298 88409.298 0 0191.77 58.424c.044 2.357.044 4.714.088 7.027z" fill="#56D186"/><path d="M91.857 65.45c-.044-2.356-.044-4.67-.088-7.026 14.534-5.892 29.025-11.74 43.558-17.633.044-.218.088-.436.088-.654-5.543-2.139-11.086-4.234-16.673-6.373 2.444-1.178 4.889-2.182 7.464-3.011 5.019 1.397 9.776 3.623 14.664 5.368 3.143 1.135 6.242 2.357 9.34 3.535.699.262 1.397.612 2.706 1.223a8209.831 8209.831 0 00-24.615 10.038c-2.357.96-4.758 1.746-6.94 3.011-4.67 1.354-9.035 3.536-13.574 5.238-5.281 2.095-10.43 4.626-15.93 6.285z" fill="#44A76A"/><path d="M53.145 61.435c-.699-.261-1.179-.392-1.528-.261v6.677c.611 1.048 1.92 1.572 4.714 2.619.393.175.83.305 1.222.48C68.944 75.315 80.336 79.635 91.727 84c0-2.575.044-5.106.044-7.682-12.876-4.931-25.75-9.863-38.626-14.883z" fill="#56D186"/><path d="M126.25 30.84a55.525 55.525 0 00-7.463 3.012c-5.107 2.051-10.257 4.015-15.363 6.154-1.528.654-2.837.654-4.365 0-2.095-.96-4.32-1.702-6.59-2.575.48-.655 1.09-.742 1.615-.96a4356.717 4356.717 0 0021.429-8.555c1.31-.524 2.488-.611 3.754 0 2.313 1.004 4.844 1.484 6.983 2.924z" fill="#A8D0B7"/><path d="M91.727 84c0-2.575.043-5.106.043-7.682a1981.004 1981.004 0 0017.065-6.983c1.31-.567 1.746-.13 1.615 1.135v.218c.175 5.805.175 5.849-5.237 7.987A966.074 966.074 0 0191.727 84z" fill="#44A76A"/><path d="M121.405 54.016c2.182-1.266 4.626-2.051 6.94-3.012 0 5.587 0 11.13.043 16.716 0 1.222-.393 1.834-1.527 2.226-1.746.611-3.448 1.353-5.5 2.139.044-6.241.044-12.133.044-18.07z" fill="#A8D0B7"/></svg>