<svg width="180" height="100" fill="none" xmlns="http://www.w3.org/2000/svg"><path d="M58.04 63.204h-.026v1.566c0 6.365-.021 12.728-.012 19.093 0 3.163 2.27 5.84 5.418 5.971 4.378.186 8.772.072 13.16.072 3.193 0 5.976-2.88 5.889-6.512-.1-4.073.058-8.15.095-12.227l.149-16.626c.011-1.014.16-1.208 1.123-1.465a14.24 14.24 0 016.74-.226c4.113.874 7.119 4.034 7.56 8.197.219 2.069.233 4.16.264 6.251.08 5.466.123 10.935.178 16.405.037 3.626 2.662 6.26 6.297 6.277 3.913.018 7.829.024 11.747.017 3.699 0 6.34-2.588 6.348-6.276.024-11.238.033-22.475.029-33.711 0-.174 0-.349-.014-.52-.103-1.183-.567-2.194-1.605-2.794a9.02 9.02 0 00-2.324-.97 25.104 25.104 0 00-9.657-.407c-2.485.377-4.937.977-7.403 1.476-3.243.652-6.508.927-9.81.593-4.26-.428-7.94-2.221-11.396-4.604a105.083 105.083 0 00-4.999-3.277c-2.071-1.265-4.392-1.683-6.788-1.819-2.567-.14-5.135-.206-7.666.376-1.974.45-3.006 1.6-3.232 3.589-.046.42-.07.843-.069 1.266a31895 31895 0 01.003 20.285zm12.213-28.705a12.31 12.31 0 006.834-2.046 12.259 12.259 0 004.54-5.487 12.217 12.217 0 00-2.633-13.36 12.32 12.32 0 00-13.388-2.681 12.278 12.278 0 00-5.523 4.504 12.224 12.224 0 00-2.08 6.805 12.236 12.236 0 003.581 8.658 12.31 12.31 0 008.67 3.607zm52.441-5.952a12.228 12.228 0 00-2.052-6.814 12.285 12.285 0 00-5.505-4.529 12.323 12.323 0 00-13.402 2.624 12.22 12.22 0 00-2.693 13.35 12.26 12.26 0 004.516 5.51 12.317 12.317 0 006.826 2.077 12.32 12.32 0 008.688-3.572c2.307-2.29 3.61-5.4 3.622-8.646z" fill="#F93933"/></svg>