<svg width="180" height="100" fill="none" xmlns="http://www.w3.org/2000/svg"><path fill-rule="evenodd" clip-rule="evenodd" d="M49.998 36.175a2.868 2.868 0 01-2.865 2.865 2.868 2.868 0 01-2.865-2.865 2.868 2.868 0 012.865-2.865 2.868 2.868 0 012.865 2.865zm128.187 46.353c-.441-.22-.808-.22-1.102-.073-.294.147-.588.44-.808.808l-3.159 4.922-3.232-4.922a2.284 2.284 0 00-.882-.808c-.367-.147-.734-.073-1.175.147-.735.514-.735 1.249-.147 2.13l4.04 5.803v4.849c0 .367.147.734.368.955.22.22.587.367.955.367.44 0 .734-.147.955-.367.22-.22.367-.588.367-.955v-4.995l3.967-5.95c.22-.368.367-.662.367-1.029a1.04 1.04 0 00-.514-.882zm-14.251-.22h-9.771c-.367 0-.661.073-.881.294-.22.22-.367.514-.367.881 0 .368.147.661.367.882.22.22.514.367.881.367h3.6v10.652c0 .367.147.734.367.955.221.22.588.367.955.367.441 0 .735-.147.955-.367.221-.22.368-.588.368-.955V84.659h3.599c.367 0 .735-.147.955-.368.22-.22.367-.514.367-.881s-.147-.661-.367-.882a2.346 2.346 0 00-1.028-.22zm-14.692 0c-.441 0-.735.147-.955.367-.221.22-.368.588-.368.955v11.68c0 .368.147.735.368.955.22.22.587.368.955.368.44 0 .734-.147.955-.368.22-.22.367-.587.367-.955V83.63c0-.367-.147-.734-.367-.955-.221-.22-.515-.367-.955-.367zm-5.877 6.758c-.514-.294-1.102-.514-1.763-.808-.588-.22-1.175-.44-1.763-.587a3.727 3.727 0 01-1.322-.662c-.368-.293-.515-.66-.515-1.028 0-.955.661-1.396 1.984-1.396.808 0 1.616.22 2.497.588 1.029.44 1.763.367 2.057-.294.368-.735.147-1.396-.734-1.836-1.029-.588-2.204-.882-3.673-.882-1.543 0-2.792.367-3.6 1.029-.808.734-1.249 1.69-1.249 2.865 0 .954.294 1.762.735 2.424a4.245 4.245 0 001.836 1.395c.735.294 1.396.515 2.131.735.661.22 1.322.514 1.763.882.441.367.734.808.734 1.322 0 .587-.22.955-.661 1.249-.44.293-1.028.44-1.763.44-.955 0-1.983-.22-3.085-.734-.955-.368-1.616-.294-1.91.294-.22.367-.22.734-.073 1.102.146.367.514.66.954.954 1.102.588 2.425.882 3.967.882 1.69 0 3.012-.44 3.894-1.175.881-.808 1.322-1.91 1.322-3.233 0-.808-.22-1.469-.514-2.056-.221-.735-.735-1.176-1.249-1.47zm-18.512-4.407c.661-.074 1.175-.147 1.469-.147 1.91 0 2.865.734 2.865 2.13 0 .808-.22 1.396-.734 1.763-.515.367-1.249.588-2.278.588-.44 0-.955 0-1.322-.074v-4.26zm4.628 5.876c.735-.293 1.396-.734 1.837-1.395a4.56 4.56 0 00.734-2.498c0-2.938-1.836-4.407-5.436-4.407-1.249 0-2.277.073-3.085.293-.808.147-1.249.662-1.249 1.543v11.386c0 .368.147.735.367.955.221.22.588.368.955.368.441 0 .735-.147.955-.368.221-.22.368-.587.368-.955V91.05c.367.073.734.073 1.101.073h.882l2.938 4.775c.368.588.808.955 1.249.955.221 0 .441-.073.735-.22.367-.22.514-.514.587-.955.074-.368-.073-.808-.293-1.176l-2.645-3.966zm-11.092 3.82h-5.877v-3.82h4.554c.368 0 .735-.146.955-.367.221-.22.368-.514.368-.881 0-.368-.147-.661-.368-.882-.22-.22-.514-.294-.955-.294h-4.554V84.66h5.656c.368 0 .661-.074.882-.294.22-.22.367-.514.367-.882 0-.367-.147-.66-.367-.881-.221-.22-.514-.294-.882-.294h-6.978c-.441 0-.735.147-1.029.367-.22.22-.367.588-.367.955v11.754c0 .367.147.734.367.955.221.22.588.367 1.029.367h7.199c.367 0 .661-.073.881-.294.221-.22.367-.514.367-.881 0-.368-.146-.661-.367-.882-.22-.22-.514-.293-.881-.293zm-11.534-11.974c-.808-.367-1.469.074-1.836 1.102l-3.453 9.403-3.746-9.476c-.367-.955-1.028-1.322-1.837-.955-.367.147-.66.44-.734.882-.074.44-.074.807.147 1.101l4.775 11.607c.293.661.734.955 1.248.955.662 0 1.102-.367 1.323-1.028l4.554-11.68c.221-.515.221-.956.147-1.25-.073-.367-.294-.514-.588-.66zm-15.5-.073c-.44 0-.734.147-.955.367-.22.22-.367.588-.367.955v11.68c0 .368.147.735.367.955.22.22.588.368.955.368.441 0 .735-.147.955-.368.22-.22.368-.587.368-.955V83.63c0-.367-.147-.734-.368-.955-.22-.22-.514-.367-.955-.367zm-6.317 0c-.808 0-1.175.44-1.175 1.396v8.3l-6.685-8.961c-.368-.441-.808-.735-1.322-.735-.809 0-1.25.44-1.25 1.396v11.68c0 .881.368 1.322 1.176 1.322.808 0 1.249-.44 1.249-1.322v-8.228l6.758 8.962c.367.441.735.662 1.175.662.368 0 .662-.147.955-.368.22-.22.368-.587.368-.955V83.63c-.074-.881-.441-1.322-1.25-1.322zm-15.5 0c-.44 0-.735.147-.955.367-.22.22-.294.588-.294.955v7.273c0 2.424-.955 3.6-2.938 3.6-1.984 0-2.939-1.176-2.939-3.6v-7.346c0-.367-.147-.735-.367-.955-.22-.294-.588-.367-1.028-.367-.441 0-.735.147-.955.367-.22.22-.368.588-.368.955v7.199c0 1.836.441 3.306 1.323 4.407.881 1.102 2.277 1.69 4.26 1.69 1.029 0 1.91-.147 2.645-.514.734-.294 1.322-.808 1.763-1.396.367-.588.734-1.249.881-1.91.147-.661.294-1.469.294-2.35V83.63a1.84 1.84 0 00-.294-.955c-.294-.22-.587-.367-1.028-.367zM46.986 93.18c-.735.955-1.763 1.396-3.012 1.396-1.322 0-2.35-.44-3.012-1.396-.735-.955-1.102-2.13-1.102-3.673 0-1.47.367-2.718 1.102-3.673.735-.955 1.69-1.396 3.012-1.396s2.35.441 3.012 1.396c.734.955 1.102 2.13 1.102 3.673-.074 1.47-.441 2.718-1.102 3.673zM43.9 82.088c-2.204 0-3.894.734-5.07 2.13-1.175 1.396-1.762 3.159-1.762 5.29 0 2.13.587 3.966 1.763 5.362 1.175 1.395 2.865 2.056 5.069 2.056 2.203 0 3.893-.734 5.068-2.056 1.176-1.396 1.763-3.16 1.763-5.363 0-2.13-.587-3.967-1.763-5.289-1.175-1.396-2.865-2.13-5.069-2.13zm-11.24.22c-.514 0-.955.294-1.322.808l-4.04 6.538-4.114-6.538c-.367-.588-.808-.881-1.322-.881-.368 0-.662.147-.882.367-.22.22-.367.588-.367 1.028v11.754c0 .881.44 1.322 1.249 1.322.808 0 1.248-.44 1.248-1.322v-8.007l2.865 4.554c.294.514.735.735 1.25.735.513 0 .88-.294 1.175-.808l2.864-4.628v8.08c0 .368.147.735.368.955.22.22.587.368.955.368.44 0 .734-.147.955-.368.22-.22.367-.587.367-.955V83.63c0-.44-.073-.734-.294-.955-.22-.22-.514-.367-.955-.367zm-15.647 0h-9.77c-.367 0-.661.073-.881.294-.22.22-.368.514-.368.881 0 .368.147.661.368.882.22.22.514.367.881.367h3.6v10.652c0 .367.147.734.367.955.22.22.588.367.955.367.44 0 .734-.147.955-.367.22-.22.367-.588.367-.955V84.659h3.6c.367 0 .734-.147.955-.368.22-.22.367-.514.367-.881s-.147-.661-.367-.882a2.347 2.347 0 00-1.029-.22zm-14.692 0c-.44 0-.734.147-.955.367-.22.22-.367.588-.367.955v11.754c0 .367.147.734.367.955.22.22.588.367.955.367.441 0 .735-.147.955-.367.22-.22.368-.588.368-.955V83.63c0-.367-.147-.734-.368-.955-.22-.22-.514-.367-.955-.367zm144.055-70.521c0 .881-.735 1.69-1.69 1.69-.881 0-1.689-.735-1.689-1.69 0-.882.734-1.69 1.689-1.69.955 0 1.69.735 1.69 1.69zM134.182 5.69c0 .881-.734 1.69-1.689 1.69-.882 0-1.69-.735-1.69-1.69 0-.882.735-1.69 1.69-1.69s1.689.735 1.689 1.69zM97.6 11.787c0 .881-.735 1.69-1.69 1.69-.882 0-1.69-.735-1.69-1.69 0-.882.735-1.69 1.69-1.69s1.69.735 1.69 1.69zm37.758 18.291a2.869 2.869 0 01-2.865 2.865 2.868 2.868 0 01-2.865-2.865 2.869 2.869 0 012.865-2.865 2.869 2.869 0 012.865 2.865zm-1.176 12.195c0 .881-.734 1.69-1.689 1.69-.882 0-1.69-.736-1.69-1.69 0-.882.735-1.69 1.69-1.69s1.689.735 1.689 1.69zm-9.623-18.292c0 2.35-1.91 4.26-4.26 4.26a4.264 4.264 0 01-4.261-4.26c0-2.35 1.91-4.26 4.261-4.26 2.424 0 4.26 1.91 4.26 4.26zm12.195-6.097c0 2.35-1.91 4.26-4.261 4.26a4.264 4.264 0 01-4.261-4.26c0-2.35 1.91-4.26 4.261-4.26 2.424 0 4.261 1.91 4.261 4.26zM121.988 48.37c0 .881-.734 1.69-1.689 1.69-.882 0-1.69-.735-1.69-1.69 0-.882.735-1.69 1.69-1.69s1.689.735 1.689 1.69zm24.389-24.389c0 .882-.735 1.69-1.69 1.69-.881 0-1.689-.735-1.689-1.69 0-.882.734-1.69 1.689-1.69.955 0 1.69.735 1.69 1.69zM73.211 11.787c0 .881-.735 1.69-1.69 1.69-.881 0-1.69-.735-1.69-1.69 0-.882.735-1.69 1.69-1.69s1.69.735 1.69 1.69zm-24.389 0c0 .881-.734 1.69-1.69 1.69-.88 0-1.689-.735-1.689-1.69 0-.882.735-1.69 1.69-1.69s1.69.735 1.69 1.69zm36.51 42.68c0 .881-.735 1.69-1.69 1.69-.881 0-1.69-.735-1.69-1.69s.735-1.69 1.69-1.69 1.69.735 1.69 1.69zM61.017 5.69c0 .881-.735 1.69-1.69 1.69-.881 0-1.69-.735-1.69-1.69 0-.882.735-1.69 1.69-1.69s1.69.735 1.69 1.69zm0 36.51c0 .88-.735 1.689-1.69 1.689-.881 0-1.69-.735-1.69-1.69 0-.881.735-1.69 1.69-1.69s1.69.735 1.69 1.69zM36.628 30.077c0 .882-.735 1.69-1.69 1.69-.881 0-1.69-.735-1.69-1.69 0-.881.735-1.69 1.69-1.69s1.69.735 1.69 1.69zm0 12.195c0 .881-.735 1.69-1.69 1.69-.881 0-1.69-.736-1.69-1.69 0-.882.735-1.69 1.69-1.69s1.69.735 1.69 1.69zm26.96-12.195c0 2.35-1.91 4.26-4.261 4.26-2.35 0-4.26-1.91-4.26-4.26 0-2.35 1.91-4.26 4.26-4.26 2.35 0 4.26 1.91 4.26 4.26zM74.386 48.37a2.869 2.869 0 01-2.865 2.865 2.868 2.868 0 01-2.865-2.865 2.868 2.868 0 012.865-2.865 2.869 2.869 0 012.865 2.865zm12.195-30.486a2.869 2.869 0 01-2.865 2.865 2.868 2.868 0 01-2.865-2.865 2.868 2.868 0 012.865-2.865c1.616 0 2.865 1.249 2.865 2.865zm36.583 18.291a2.869 2.869 0 01-2.865 2.865 2.868 2.868 0 01-2.865-2.865 2.868 2.868 0 012.865-2.865 2.869 2.869 0 012.865 2.865zm0-24.388a2.869 2.869 0 01-2.865 2.865c-1.617 0-2.865-1.25-2.865-2.865a2.868 2.868 0 012.865-2.865c1.616 0 2.865 1.249 2.865 2.865zm-10.799 6.097c0 2.35-1.91 4.26-4.261 4.26-2.35 0-4.26-1.91-4.26-4.26 0-2.35 1.91-4.26 4.26-4.26a4.264 4.264 0 014.261 4.26zM86.581 42.273a2.868 2.868 0 01-2.865 2.864 2.868 2.868 0 01-2.865-2.864 2.868 2.868 0 012.865-2.865 2.869 2.869 0 012.865 2.864zm13.59-18.292c0 2.35-1.91 4.26-4.261 4.26-2.35 0-4.26-1.91-4.26-4.26 0-2.35 1.91-4.26 4.26-4.26 2.35 0 4.261 1.91 4.261 4.26zm12.194 6.097c0 2.35-1.91 4.26-4.261 4.26-2.35 0-4.26-1.91-4.26-4.26 0-2.35 1.91-4.26 4.26-4.26a4.264 4.264 0 014.261 4.26zm-1.396 12.195a2.869 2.869 0 01-2.865 2.864 2.869 2.869 0 01-2.865-2.864 2.869 2.869 0 012.865-2.865 2.869 2.869 0 012.865 2.864zM98.775 48.37a2.868 2.868 0 01-2.865 2.865c-1.616 0-2.865-1.25-2.865-2.865a2.868 2.868 0 012.865-2.865 2.868 2.868 0 012.865 2.865zm1.396-12.195a4.264 4.264 0 01-4.261 4.261c-2.35 0-4.26-1.91-4.26-4.26a4.264 4.264 0 014.26-4.261c2.35 0 4.261 1.91 4.261 4.26zm-24.389 0a4.264 4.264 0 01-4.26 4.261 4.264 4.264 0 01-4.261-4.26 4.264 4.264 0 014.26-4.261 4.264 4.264 0 014.261 4.26zm12.194-6.097c0 2.35-1.91 4.26-4.26 4.26a4.264 4.264 0 01-4.261-4.26c0-2.35 1.91-4.26 4.26-4.26a4.264 4.264 0 014.261 4.26zm-12.194-6.097c0 2.35-1.91 4.26-4.26 4.26a4.264 4.264 0 01-4.261-4.26c0-2.35 1.91-4.26 4.26-4.26a4.264 4.264 0 014.261 4.26zm-12.194-6.097c0 2.35-1.91 4.26-4.261 4.26-2.35 0-4.26-1.91-4.26-4.26 0-2.35 1.91-4.26 4.26-4.26 2.35 0 4.26 1.91 4.26 4.26z" fill="#2D4697"/><path fill-rule="evenodd" clip-rule="evenodd" d="M50.953 11.126c0 2.35-1.91 4.26-4.26 4.26a4.264 4.264 0 01-4.261-4.26 4.264 4.264 0 014.26-4.261 4.264 4.264 0 014.261 4.26z" fill="#E4003A"/></svg>