<svg width="36" height="36" fill="none" xmlns="http://www.w3.org/2000/svg"><path fill-rule="evenodd" clip-rule="evenodd" d="M35 3v17.574h-7.563v1.934H35v4.426H24.28v2.191h1.782v1.934H10.938v-1.934h1.784v-2.191H2v-4.426h7.563v-1.934H2V3h33zM12.023 22.508h12.954V14.61h-1.94v-3.003A4.549 4.549 0 0018.5 7.104a4.545 4.545 0 00-4.462 3.712h1.992a2.608 2.608 0 012.47-1.779 2.61 2.61 0 012.603 2.585v2.989h-5.207v-1.19h-1.933v1.19h-1.94v7.897zm7.444-5.964v2.002h-1.934v-2.002h-3.577v4.03h9.088v-4.03h-3.578z" fill="#fff"/></svg>