<svg width="22" height="23" fill="none" xmlns="http://www.w3.org/2000/svg"><g clip-path="url(#clip0)"><path d="M16.296.453L13.48.45c-3.166 0-5.212 2.099-5.212 5.347v2.466H5.434a.443.443 0 00-.443.443v3.573c0 .245.198.443.443.443h2.833v9.014c0 .245.198.443.443.443h3.697a.443.443 0 00.443-.443v-9.014h3.312a.443.443 0 00.443-.443l.002-3.573a.444.444 0 00-.444-.443H12.85v-2.09c0-1.005.24-1.515 1.548-1.515h1.898a.443.443 0 00.443-.444V.896a.443.443 0 00-.443-.443z" fill="#F4F6F9"/></g><defs><clipPath id="clip0"><path fill="#fff" transform="translate(0 .449)" d="M0 0h21.73v21.73H0z"/></clipPath></defs></svg>