<svg width="473" height="367" fill="none" xmlns="http://www.w3.org/2000/svg"><path d="M190.253 365.751c96.95 6.709 169.216-55.262 161.411-138.416-7.805-83.153-92.726-156-189.676-162.71C65.038 57.918-7.228 119.889.578 203.043c7.804 83.153 92.725 156.001 189.675 162.709z" fill="url(#paint0_radial)"/><path d="M152.827 233.152c51.232 0 92.765-41.574 92.765-92.859 0-51.284-41.533-92.858-92.765-92.858-51.233 0-92.766 41.574-92.766 92.858 0 51.285 41.533 92.859 92.766 92.859z" fill="url(#paint1_radial)"/><path opacity=".5" d="M334.758 331.318C449.723 317.361 503 275.43 453.755 237.663c-49.245-37.767-182.364-57.069-297.328-43.112C41.462 208.508-11.815 250.439 37.43 288.206c49.245 37.767 182.364 57.069 297.328 43.112z" fill="url(#paint2_radial)"/><g clip-path="url(#clip0)"><path d="M163.441 97.718c.672.98 1.247 1.837 1.821 2.693-.672.934-1.306 1.536-1.998 1.68-1.149.203-2.181-.595-3.068-2.614-.098-.124-.183-.36-.17-.47l3.415-1.289z" fill="#000"/><path d="M163.264 102.091c.582-.157 1.313-.634 1.998-1.68 5.857 8.573 10.558 14.533 14.228 17.781 1.005 1.019 2.063 1.594 2.912 2.032.098.124.222.026.32.15 3.141 2.96-1.672 6.562-2.886 5.406-2.86-2.477-4.832-4.849-6.425-6.613-6.849-7.789-10.519-12.952-11.119-15.501l.058.458c-1.41.51-3.389 1.066-5.922 1.556.757 3.131 1.482 9.412 2.533 18.66.385 1.51.542 4.006.496 7.268.02.791-.072 1.568-.052 2.359.026 1.693-.085 3.595-.124 5.843l-1.326.746c-.346.072-.718.366-1.338.856-.621.49-.895.909-1.058 1.34-1.051.327-1.535.608-1.646.595-.235.085-.457.059-.581.157.098-1.791.118-2.915.183-3.47a64.403 64.403 0 01-3.924-3.954c-.601-.634-1.188-1.378-1.9-2.025-.882-1.118-1.985-2.261-3.075-3.516-5.465-6.162-8.756-10.717-9.873-13.664l-4.838 1.909 4.753 26.58c-.568.046-1.247.079-1.802.014-.555-.065-1.123-.019-1.678-.085-.307-.261-.725-.535-1.143-.81.039-.333-.02-.791.02-1.124-.137-1.706-.888-5.849-2.155-12.307a785.233 785.233 0 00-2.703-11.47c.816-.242 1.561-.83 2.122-1.778.81-1.144 1.078-2.464.804-3.961l-.085-.235c.581-.157 1.175-.425 1.756-.582a30.04 30.04 0 003.663-1.485l.059.458c.117.915.496 1.523 1.025 1.81.529.288 1.195.366 2.233.15.568-.046.927-.229 1.162-.314l.124-.098c1.358 1.849 3.219 4.208 5.681 7.201 2.67 3.13 5.929 7.006 9.8 11.403a114.913 114.913 0 00-2.154-21.881 26.13 26.13 0 01-.529-2.203 5.568 5.568 0 001.43-1.634c.712-1.268.941-2.255.823-3.17-.046-.569-.326-1.052-.496-1.523l7.3-2.746c.098.124.196.248.17.47 1.012 1.921 2.03 2.83 3.179 2.627z" fill="#333"/><path d="M150.957 108.191c-.588-2.66-1.071-4.293-1.3-5.222l3.056-1.105c.281.484.451.954.496 1.523.229.928-.124 2.013-.822 3.17a5.597 5.597 0 01-1.43 1.634zm-17.232 3.945l-.17-.47c1.202-.648 1.959-1.347 2.37-1.975.144.693.888 2.02 2.233 3.98l-.124.098c-.235.085-.581.157-1.162.314-.927.229-1.704.138-2.233-.15-.418-.274-.797-.882-.914-1.797zm-5.504 1.831c.274 1.497.006 2.817-.803 3.961-.562.948-1.293 1.425-2.122 1.779-.418-2.19-.79-3.811-1.006-4.85 1.149-.203 2.436-.615 3.833-1.014l.098.124z" fill="#000"/><path d="M165.531 102.92c.444.053.946.562 1.41 1.405.281.484.757 1.216 1.293 2.405 1.123 1.935 2.174 3.523 3.179 4.542l3.859 4.509a106.608 106.608 0 004.205 4.437l-.124.098c-3.056-2.725-5.778-5.411-8.39-8.083-.405-.386-1.482-1.751-3.108-4.196-1.835-2.581-2.677-4.032-2.847-4.502-.045-.569.092-.778.523-.615z" fill="#666"/><path d="M153.359 108.812l.111.013c.301 1.274.712 2.562 1.097 4.071.255.706.47 1.745.758 3.131.084.235.163 1.484.359 3.647.489 2.536.763 4.032.822 4.49-.026.222.059 2.372.059 6.202.065 1.36-.033 3.151-.32 5.595-.32 3.68-.653 5.556-.888 5.641l-.333-.039-.098-.124-.157-.582c.209-1.778.366-3.111.581-3.987l.484-4.111c.117-1 .052-2.36-.098-3.954-.124-1.817-.203-3.066-.209-3.968.019-1.124-.059-2.372-.32-3.98-.248-1.719-.424-3.091-.555-3.895-.144-.693-.32-2.066-.777-3.922-.333-1.954-.633-3.228-.516-4.228z" fill="#8C8C8C"/><path d="M138.002 116.92c.47-.17.803-.131 1.195.365.209.138.391.497.685.87.098.124.281.483.549 1.078.182.359.365.719.574.856.294.372.797.882 1.469 1.862.673.981 1.163 1.601 1.456 1.974 3.618 3.692 5.936 5.992 7.039 7.136-1.365-.837-2.703-1.895-4.029-3.065-1.508-1.529-2.624-2.561-3.421-3.444-.921-.784-1.9-2.025-2.964-3.502l-1.763-2.235c-.588-.745-.869-1.229-.967-1.353.013-.111-.071-.346-.071-.346l.248-.196z" fill="#666"/><path d="M128.594 84.948c.659 1.091 1.443 2.085 2.435 3.215a17.92 17.92 0 01-1.254 1.092c-1.103.771-2.043 1.112-2.598 1.046-.555-.065-1.071-.464-1.783-1.11 1.567-1.844 2.625-3.184 3.2-4.243z" fill="#000"/><path d="M129.775 89.255c.124-.098.51-.503 1.254-1.092a82.01 82.01 0 006.203 6.587c3.434 3.333 6.32 5.587 8.56 6.639 3.101 1.378.503 4.339-1.012 3.823-.542-.176-2.547-1.313-5.766-3.606-3.846-2.705-7.221-5.58-10.349-8.651l-14.352 14.872 1.136 30.548c-1.221-.143-2.344-.163-3.285.177-.47.17-.829.354-1.201.648-.098-.124-.32-.151-.431-.164.039-.333-.033-.679.006-1.013.092-2.692.046-7.091-.136-13.196-.17-6.215-.359-11.307-.47-15.15 1.756-.582 2.69-1.824 3.121-3.575a7.337 7.337 0 00.033-3.151c-.072-.346-.144-.693-.34-.941 2.096-1.556 4.754-4.06 7.973-7.511 1.939-2.138 3.493-3.87 4.799-5.406.601.633 1.228 1.045 1.783 1.11.542.176 1.371-.177 2.474-.948z" fill="#333"/><path d="M112.975 102.938c.228.928.222 1.941-.033 3.15-.32 1.765-1.365 2.994-3.121 3.576-.059-2.372-.281-4.313-.333-5.784.927-.229 1.894-.791 3.134-1.772.196.248.268.595.353.83z" fill="#000"/><path d="M130.852 90.62c.013-.11.151-.32.151-.32.555.066 1.083.353 1.56 1.085.294.372.784.993 1.358 1.85.196.248.699.757 1.508 1.528.601.634 1.104 1.144 1.398 1.516.294.373.796.883 1.632 1.431.823.66 1.45 1.072 1.646 1.32.306.262 1.031.798 2.383 1.745 1.364.836 2.2 1.385 2.285 1.62-1.848-.555-3.434-1.417-4.982-2.613-1.423-1.294-2.553-2.215-3.265-2.862-.724-.536-1.841-1.568-3.434-3.332-1.482-1.752-2.266-2.745-2.24-2.967zm-5.099.302l.111.014c-1.795 2.83-3.251 4.686-4.394 5.791-.509.504-1.652 1.608-3.441 3.426-1.541 1.621-2.423 2.419-2.423 2.419a.488.488 0 01-.32-.151s.014-.111-.097-.124l.039-.333c.039-.333.933-1.242 2.585-2.85 1.652-1.609 2.658-2.504 2.782-2.602 1.639-1.497 2.534-2.406 2.684-2.726.548-.837 1.332-1.759 2.474-2.864z" fill="#666"/><path d="M163.408 125.764c-.647 2.627-.895 4.739-.719 6.111-.013.111.072.346.059.458.242.816.372 1.62.529 2.202-3.526 3.19-10.238 6.682-19.589 11.553-8.397 4.42-28.645 9.137-28.893 9.333-1.73.36-3.474.831-5.204 1.191-6.458.367-10.31.59-11.446.682-.68.033-1.358.065-2.148.085-.157-2.496 2.67-17.935 7.529-22.884.248-.196 22.663-.377 23.232-.423.679-.033 1.469-.052 2.148-.085 1.247-.079 2.605-.145 3.976-.321 4.088-.308 8.325-.937 12.478-1.8.333.039 15.932-5.337 18.048-6.102z" fill="#59569B"/><path d="M98.19 169.352c-.267-2.509-2.056-10.267-2.167-12.195.68-.033 1.372-.177 2.149-.085 1.247-.079 5.086-.191 11.446-.683 1.038-.216 5.55-1.262 9.605-2.25 0 0-.111-.013-.098-.124 3.486-.942 7.097-1.982 10.512-3.27l.222.026c4.244-1.642 10.258-3.976 10.382-4.074 1.411-.51 2.801-1.811 4.225-2.433 9.135-3.995 15.338-6.983 18.864-10.173.169.47.241.817.313 1.163.059.457 1.012 1.921 1.463 2.875-10.245 11.525-41.829 24.597-42.658 24.95l-5.38 1.734-18.877 4.539z" fill="#6561A3"/><path d="M97.995 169.104s35.507-9.118 68.945-32.223c.464.843-1.462 2.869-.816 4.072.477.732 1.221 2.058 1.711 2.679-1.28 1.314-21.672 18.743-53.086 32.286-.594.268-.966.562-1.077.549-.235.085-.581.157-.816.242a78.62 78.62 0 01-5.23 1.413c-.927.229-2.88.562-5.622.916-.111-.013-.111-.013-.346.072-1.365-2.751-2.736-6.405-3.663-10.006z" fill="#48438E"/><path d="M101.547 179.097c.111.013.111.013 0 0l.013-.111c.111.013.235-.085.346-.072 2.742-.354 4.695-.688 5.622-.917 9.539-1.694 40.914-20.649 43.852-22.669 2.939-2.02 11.159-7.813 12.387-8.682a104.74 104.74 0 003.702-3.733 17.106 17.106 0 001.763 2.235c1.998 2.15 3.807 3.038 5.648 2.692.235-.085.888.104 1.051-.327-4.055 10.562-52.184 45.683-52.184 45.683s-4.238 2.544-4.349 2.531c-8.057-.384-15.795-10.193-17.851-16.63z" fill="#3D3081"/><path d="M114.814 169.617c.581-.157 1.078-.549 1.502-1.288.15-.32.425-.739.575-1.059.516-1.516-1.952-5.411-2.658-5.156-.359.183-.607.379-.953.451.516.399.784.993.927 1.686.144.693-.32 1.765-1.143 3.02l-2.272.183a3.403 3.403 0 001.162 1.601c.209.138.529.288.738.425.64.301 1.417.392 2.122.137zm36.481-41.334l-1.214.758c-.346.072-.718.366-1.339.857-.509.503-.894.908-1.058 1.34-.326.863-.333 1.876-.117 2.915.228.928.581 1.758 1.28 2.516.209.137.404.385.613.523 1.241.934 2.436 1.3 3.82 1.012 1.149-.203 2.475-.948 3.964-2.125 1.736-1.373 2.598-2.961 2.559-4.543.039-.334-.045-.569-.117-.915-.144-.693-.719-1.549-1.737-2.457-.209-.138-.307-.262-.516-.399-.627-.412-1.378-.725-2.279-.718-.79.019-1.593.15-2.409.392-.718.366-1.202.648-1.45.844zm2.436 1.3l1.541.294.378.607c.288 1.386-.189 2.569-1.181 3.354-.745.588-1.476 1.065-2.403 1.294-.594.268-1.038.216-1.567-.071-.307-.262-.49-.621-.549-1.079-.143-.692-.078-1.248.444-1.862.412-.628 1.032-1.118 1.763-1.596.124-.098.359-.183.483-.281.262-.307.621-.49 1.091-.66z" fill="#F14654"/><path d="M152.53 130.23c.372-.294.731-.477 1.201-.647l1.541.294.379.607c.287 1.386-.19 2.569-1.182 3.353-.745.589-1.476 1.066-2.403 1.295-.594.268-1.038.216-1.567-.071-.307-.262-.49-.621-.549-1.079-.143-.693-.078-1.248.444-1.863.412-.627 1.032-1.117 1.763-1.595.014-.111.125-.098.373-.294z" fill="#F7C131"/><path d="M160.815 133.457c.301 1.275-.535 2.641-2.422 4.334-1.75 1.484-3.213 2.438-4.721 2.824-1.495.275-2.618.256-3.565-.306-.849-.438-1.313-1.281-1.528-2.32-.072-.346-.02-.791.268-1.32.209.137.404.385.613.523 1.241.934 2.436 1.3 3.82 1.012 1.149-.203 2.475-.948 3.964-2.125 1.736-1.373 2.598-2.962 2.559-4.543.516.398.895 1.006 1.012 1.921z" fill="#4A1B6C"/><path d="M162.677 131.986c-.013.111.072.347.059.458.241.817.372 1.62.529 2.202.169.471.241.817.313 1.163.059.458.424 1.177.875 2.131.463.843 1.025 1.81 1.671 3.013.477.732.954 1.463 1.332 2.071a17.106 17.106 0 001.763 2.235c1.998 2.15 3.807 3.039 5.648 2.692.235-.085.581-.157 1.051-.327.249-.196.399-.517.686-1.046.124-.098.15-.32.176-.543.49-1.294.503-3.32.125-5.843-.033-.68-.19-1.261-.333-1.954-.444-1.967-1.123-3.849-2.246-5.784-.379-.608-.856-1.339-1.346-1.96-2.814-3.823-5.308-5.581-7.482-5.273a15.074 15.074 0 00-2.214.641c-.646 2.627-.881 4.627-.607 6.124zm2.579-3.752c.013-.111.137-.209.15-.32.262-.308.51-.504.869-.687 1.051-.327 2.22.261 3.728 1.79s2.742 3.477 3.8 5.967c.973 2.254 1.541 4.124 1.541 6.039-.026.222.072.346.046.568.111 1.928-.353 3-1.404 3.327-.346.072-.803.131-1.123-.019-.764-.203-1.698-.876-2.593-1.882-1.397-1.516-2.742-3.476-3.8-5.966-.169-.471-.352-.83-.522-1.301-.437-1.065-.653-2.104-.868-3.143-.131-.804-.274-1.497-.196-2.164-.007-.902.085-1.68.372-2.209z" fill="#E3D7E5"/><path d="M164.858 130.665c.006-1.013.098-1.79.398-2.431.764.202 1.587.862 2.605 1.771a18.459 18.459 0 013.689 5.953c1.071 2.379 1.613 4.47 1.613 6.385l-.026.223c-.007 1.013-.098 1.79-.274 2.333-.764-.203-1.698-.876-2.592-1.882-1.398-1.516-2.743-3.476-3.801-5.966-.169-.471-.352-.83-.522-1.301-.437-1.065-.653-2.104-.868-3.143-.157-.582-.19-1.262-.222-1.942z" fill="#34134A"/><path d="M167.848 130.116c-1.006-1.02-1.842-1.568-2.606-1.771.013-.111.137-.209.151-.32.261-.307.509-.503.868-.687 1.051-.327 2.22.261 3.728 1.79 1.509 1.53 2.743 3.477 3.8 5.967.973 2.255 1.541 4.124 1.541 6.039-.026.222.072.346.046.568.111 1.928-.353 3-1.404 3.327-.346.072-.803.131-1.123-.019.3-.641.392-1.418.274-2.333l.026-.223c0-1.915-.542-4.006-1.612-6.385-.947-2.477-2.279-4.548-3.689-5.953z" fill="#48438E"/><path d="M152.672 148.158c.928-.229 1.705-.137 2.442.287.32.15.529.288.725.536.81.771 1.456 1.973 1.828 3.594.444 1.968.039 3.497-1.227 4.7-.771.811-1.724 1.262-2.997 1.563-1.274.301-2.246-.039-3.043-.921a4.275 4.275 0 01-.477-.732l2.135.025c3.69-1.706 3.716-3.843.288-6.274 0 0-.111-.013-.098-.124-.803.131-1.717.249-2.742.353.189-.653.476-1.183.861-1.588.647-.713 1.378-1.19 2.305-1.419zm-37.119-16.417c-1.345-.045-2.494.158-3.408.275-.111-.013-.235.085-.346.072-1.273.301-2.227.753-2.984 1.452-.372.294-.647.713-.797 1.033-.424.738-.516 1.516-.287 2.444-.013.111.085.236.072.347.47 1.745 2.102 3.176 4.786 4.28 2.683 1.104 5.014 1.378 7.326.861 1.619-.373 2.918-.896 3.787-1.583l.124-.098c1.019-1.006 1.495-2.19 1.123-3.81-.202-1.151-.777-2.007-1.698-2.791-.306-.261-.724-.536-1.142-.81-.209-.137-.431-.163-.529-.287-.96-.451-2.71-.882-5.335-1.529-.124.098-.457.059-.692.144zm-2.657 2.504c.359-.183.718-.366 1.175-.425.346-.072 1.149-.203 2.396-.282.862.327 1.737.542 2.377.843.32.15.64.301.849.438 1.267.712 1.952 1.581 2.168 2.62.13.804-.379 1.307-1.528 1.51-.927.229-2.468-.065-4.538-.646-2.39-.731-3.546-1.43-3.787-2.247-.157-.582.019-1.125.516-1.517.235-.085.248-.196.372-.294z" fill="#F14654"/><path d="M112.648 134.441c.124-.098.137-.209.248-.196.359-.183.718-.366 1.175-.425.346-.072 1.149-.203 2.396-.282.862.327 1.737.542 2.377.843.32.15.64.301.849.438 1.267.712 1.952 1.581 2.168 2.62.13.804-.379 1.307-1.528 1.51-.927.229-2.468-.065-4.538-.646-2.39-.731-3.546-1.43-3.787-2.247-.046-.569.13-1.111.64-1.615z" fill="#F7C131"/><path d="M107.065 140.769c-.144-.693-.052-1.47.398-2.431.026-.223.288-.53.575-1.059.47 1.745 2.102 3.176 4.786 4.28 2.683 1.104 5.014 1.378 7.326.861 1.619-.373 2.919-.896 3.787-1.583l.111.013c-.215.876-.653 1.726-1.312 2.55-1.032 1.118-2.136 1.889-3.396 2.079-1.841.347-4.159-.038-7.065-1.169-3.375-.96-4.923-2.155-5.21-3.541z" fill="#4A1B6C"/><path d="M105.53 149.037c.346-.072.777.092 1.058.575.405.386.561.967.803 1.784.228.928.137 1.706-.372 2.21-.275.418-.647.712-1.104.771-.346.072-.777-.091-1.182-.477l-.195-.248.777.091c1.351-.967 1.521-2.412.607-4.209-.333-.039-.555-.065-.875-.216.124-.098.248-.196.483-.281z" fill="#760A08"/><path d="M106.699 149.625c-.392-.496-.712-.647-1.058-.575-.235.085-.359.184-.594.269l-.222-.027c-.431-.163-.875-.215-1.208-.254.261-.307.522-.615.771-.811.496-.392.979-.673 1.56-.83.803-.131 1.554.182 2.253.94.587.745 1.064 1.477 1.169 2.503.3 1.275.058 2.373-.64 3.53-.575 1.059-1.43 1.634-2.58 1.837-.927.229-1.665-.196-2.337-1.176a4.097 4.097 0 01-.888-2.019l.098.124 1.515.516.111.013a.24.24 0 01.196.248c.515.399.835.549 1.181.477.457-.059.83-.353 1.104-.771.411-.628.49-1.295.372-2.21-.241-.816-.509-1.411-.803-1.784zM112 160.049c.581-.157 1.234.032 1.848.555l.921.784c1.103 1.144 1.75 2.346 2.05 3.621.072.346.13.804.091 1.137.072.346.033.68-.006 1.013-.901.007-1.789-.098-2.468-.065-.444-.052-.666-.078-1.012-.006.287-.53.365-1.196.111-1.902-.144-.693-.954-1.464-2.318-2.3l-2.116.765c-.02-.791.046-1.346.444-1.863.137-.209.385-.405.522-.614a3.478 3.478 0 011.933-1.125zm21.94-20.063c-2.311.516-4.231 1.53-5.635 2.942-1.541 1.621-2.194 3.347-1.737 5.203.301 1.274 1.195 2.281 2.808 2.921.111.013.32.15.431.163.431.163 5.112 1.502 10.316-3.518.125-.098.151-.321.288-.53.574-1.059.803-2.046.588-3.085-.203-1.15-1.208-2.17-3.017-3.058-1.809-.889-3.115-1.267-4.042-1.038zm3.173 3.639c.072.347-.091.778-.378 1.308l-.124.098c-.386.405-.895.908-1.613 1.275-.47.17-1.175.425-1.979.556l-2.298.405c-1.123-.019-1.75-.431-1.965-1.47-.301-1.274.15-2.235 1.24-2.896.608-.379 1.659-.706 3.265-.968 1.038-.215 1.841-.346 2.383-.17.764.202 1.254.823 1.469 1.862z" fill="#F14654"/><path d="M135.755 141.776c.764.203 1.156.699 1.371 1.738.072.347-.091.778-.379 1.308l-.124.098c-.385.405-.894.908-1.612 1.274-.471.171-1.176.426-1.979.556l-2.311.517c-1.123-.019-1.75-.431-1.966-1.47-.3-1.274.151-2.235 1.241-2.896.607-.379 1.659-.706 3.265-.968 1.149-.202 1.939-.222 2.494-.157z" fill="#F7C131"/><path d="M156.956 132.778c.412-.627.686-1.046.601-1.281.013-.111-.085-.235-.085-.235.111.013.222.026.32.15-.046 1.346-.261 2.222-.438 2.765-.574 1.059-1.678 1.83-3.519 2.177-.346.072-.555-.065-.627-.412-.059-.457.092-.777.797-1.032.94-.341 1.645-.596 1.906-.903.262-.307.647-.712 1.045-1.229zm-45.066 6.193c-1.365-.837-2.148-1.83-2.337-3.091-.275-1.497.098-1.791 1.103-.772.157.582.411 1.288.888 2.02.281.483.992 1.13 2.285 1.62 1.809.889 2.88 1.352 3.187 1.614-2.024-.013-3.663-.431-5.126-1.391zm23.12 9.139c-.209-.138-.307-.262-.293-.373-.072-.346.659-.824 2.082-1.445.125-.098.484-.281.993-.784.496-.393.953-.451 1.286-.412-.339.974-.764 1.712-1.149 2.118-.509.503-1.339.856-2.266 1.085-.333-.039-.555-.065-.653-.189zm-29.597.012c.509-.503 1.051-.327 1.665.196.503.51.796.882.855 1.34.085.235.059.457-.065.555l-.111-.013c-.17-.47-.575-.856-1.313-1.28-.75-.314-1.07-.464-1.057-.575l.026-.223zm6.829 12.744c.098.124.098.124 0 0 .568-.046 1.221.144 1.946.679.614.523.908.896.966 1.353.157.582.02.791-.215.876-.111-.013-.235.085-.222-.026-.183-.36-.686-.869-1.397-1.516-.712-.647-1.117-1.033-1.117-1.033l.039-.333zm38.694-11.335l.137-.209c.816-.242 1.496-.275 2.011.124.307.261.614.522 1.104 1.143l.215 1.039-.444-.052c-.196-.248-.28-.484-.365-.719-.196-.248-.281-.483-.49-.621-.098-.124-.431-.163-1.084-.352-.542-.177-.986-.229-1.084-.353z" fill="#fff"/><path d="M121.07 152.779l-.026.222-.105.889c-1.711 1.151-3.167 1.092-4.244-.273.039-.334-.033-.68-.02-.791l.013-.111.405-1.53s.111.013.124-.098c0 0 .497-2.307 1.267-6.948.425-2.654.699-4.987.823-7 .268-3.235.412-6.373.32-9.425l-20.803-4.923c-3.297 7.948-5.236 13.916-5.818 17.903 2.84-.23 4.793-.563 5.968-.989l.542.177c-.47.17-.731.477-.796 1.033l-.053.444c.927 1.686 2.122 2.052 3.513.751.372-.294.758-.7 1.032-1.118l2.35 4.895 7.999 17.162.999 2.032c-.725 1.379-1.496 2.19-2.201 2.445-.705.255-1.645.595-1.913 0-.999-2.032-3.722-6.633-3.722-6.633l-6.144-11.874.013-.111.013-.111c-.071-.347-.254-.706-.326-1.053l-1.436-3.097c-3.383.053-5.655.236-6.817.55-.562.948-.927 2.144-1.208 3.575-.196 1.667-.464 2.987-.803 3.961-.543 1.739-1.091 4.491-1.881 8.341-.79 3.849-1.567 7.588-2.358 11.438 0 0-.783 8.582-5.158 7.504-2.736-.659-2.174-3.522-1.71-4.594 1.077-2.464 2.135-5.72 3.519-9.837.529-1.628 1.07-3.367 1.639-5.328.163-.431.202-.764.366-1.196.555-1.849.81-3.059.986-3.601 1.293-5.255 2.168-8.87 2.612-10.733-7.679.224-12.974.278-15.802.396-.49 3.209-1.867 10.144-4.244 20.791-1.456 7.602-2.625 14.674-3.507 21.217-.418 3.555-.823 7-.98 10.248-.091.778-.992 2.7-1.6 3.079-.607.379-1.077.549-1.547.719-.47.17-1.273.301-2.298.406-1.025.105-1.378-.725-1.071-2.379.268-1.32.83-4.183 1.77-8.353 1.116-4.713 2.213-10.216 3.376-16.275 2.494-13.563 3.768-23.439 3.598-29.654.333.039.568-.046.803-.131 1.508-.386 2.664-1.602 3.317-3.328 6.615.215 12.935.056 18.714-.278.973-3.491 2.507-9.844 4.838-19.145l.124-.098.099.124c.28.484 1.28.601 2.898.228 1.607-.261 2.501-1.17 2.45-2.641.032-1.235 0-1.915.025-2.137l.013-.111c.098.124.764.202 1.959.568 1.195.366 4.264 1.065 9.181 2.318 4.916 1.254 8.527 2.129 10.721 2.613-.418 1.64-.575 2.973-.248 4.026.411 1.287 1.208 2.169 2.611 2.672.751.314 1.528.405 2.305.497-.502 1.405-1.521 6.242-3.154 14.386-.104.889-.307 1.653-.522 2.529-.268 1.321-.549 2.752-.731 4.308.156.581-.007 1.013-.059 1.457z" fill="#333"/><path d="M120.855 123.015c.431.163.986.228 1.43.28l3.637 6.398s-.124.098-.163.432c-.888-.105-1.665-.196-2.305-.497-1.404-.503-2.312-1.398-2.612-2.672-.45-.954-.405-2.301.013-3.941zm-21.861-5.499c.085.235-.006 1.013-.039 2.248.052 1.471-.83 2.269-2.448 2.642-1.62.372-2.619.255-2.9-.229l-.097-.124 5.347-4.328c-.098-.124.026-.222.137-.209zm4.44 23.502a4.95 4.95 0 01-1.032 1.118c-1.502 1.288-2.599 1.046-3.513-.751l.053-.444c.052-.445.437-.85.796-1.033l3.696 1.11zm-37.016 3.76c-.235.085-.581.157-.803.131-.052-1.471-.144-2.608-.36-3.647 1.568.071 3.024.13 4.48.188-.764 1.713-1.907 2.818-3.317 3.328z" fill="#000"/><path d="M113.253 164.702c-.653-.189-1.508-1.529-2.801-3.934-1.887-4.052-3.055-6.555-3.604-7.633-.829-1.562-1.684-2.902-2.331-4.104-1.306-2.294-2.024-3.843-2.181-4.424-.241-.817-.176-1.373.17-1.445.124-.098.235-.085.235-.085l-.013.111c.712 2.562 2.161 5.549 4.473 8.862.391.497 1.547 3.111 3.663 8.091.365.719.829 1.562 1.364 2.751.157.582.34.941.634 1.314.457-.059.43.163.391.496zm10.18-33.949c.072.346-.006 1.013-.274 2.333-.229.987-.32 1.765-.607 2.294-.15.32-.255 1.209-.523 2.53-.143 1.222-.235 2-.359 2.098-.15.32-.281 1.431-.575 2.974-.182 1.555-.411 2.542-.698 3.072-.15.32-.268 1.32-.464 2.987-.196 1.666-.424 2.653-.575 2.974-.052-1.471.053-2.36.105-2.804.046-1.347.274-2.334.588-3.085.287-.53.418-1.641.627-3.419l.352-3c.346-1.987.542-3.653.81-4.974.287-2.444.666-3.751 1.136-3.921.124-.099.248-.197.457-.059-.111-.013-.111-.013 0 0z" fill="#fff"/><path d="M155.802 155.059l-.026.223c-.719 4.196-2.612 4.987-5.792 2.36l-.901-1.908-2.435-5.13-6.758-14.312-1.117.882a31.225 31.225 0 01-3.709 2.831c-.483.281-1.227.87-2.331 1.641-4.427 3.197-7.874 5.721-10.342 7.571-7.346 6.008-11.29 8.924-11.858 8.97-.19 2.568.75 9.888 2.585 22.045.633 3.228 1.43 7.94 2.501 14.149.156.582.202 1.151.359 1.732.633 3.229 2.135 7.686-1.117 8.543-4.662 1.367-3.839-3.718-4.068-8.476-.261-5.438-1.299-12.882-3.003-22.32-1.155-6.444-1.939-11.267-2.363-14.359a20.737 20.737 0 01-.412-3.202c.138-.209 1.13-.994 3.076-2.229.111.013.124-.099.235-.085.966-.563 3.545-2.4 7.835-5.388s8.123-5.916 11.401-8.911c.372-.294.758-.699 1.13-.993 1.266-1.203 2.135-1.89 2.396-2.197 1.143-1.105 1.789-1.817 2.037-2.013a69.626 69.626 0 003.539-3.302c.771-.81 1.43-1.634 2.064-2.235l.222.026c-.026.222.032.679-.02 1.124.203 1.15.542 2.091 1.032 2.712.391.497.698.758 1.129.921.431.164 1.012.007 1.633-.484.496-.392 1.142-1.104 1.841-2.261l.411-.628c.072.346.131.804.386 1.51.241.817.581 1.758 1.005 2.934.607 1.536 1.286 3.418 2.259 5.673.281.483.438 1.065.607 1.536 1.946 4.509 3.774 8.103 5.459 11.005.156.582.633 1.313 1.11 2.045z" fill="#333"/><path d="M144.754 130.33a5.405 5.405 0 00-.424.739c-.699 1.157-1.358 1.98-1.979 2.471-.62.49-1.312.634-1.854.457-.431-.163-.849-.437-1.227-1.045-.588-.745-1.026-1.81-1.202-3.183-.045-.568-.104-1.026-.065-1.359.973.339 2.057.692 3.389.849l1.332.156c.666.079 1.443.17 2.233.15-.248.196-.274.419-.203.765z" fill="#000"/><path d="M152.628 153.335c-.614-.523-1.019-.909-1.325-1.17-.882-1.118-1.894-3.039-3.134-5.888-1.156-2.614-1.665-4.026-1.763-4.15a199.969 199.969 0 00-2.155-4.647c-1.045-2.601-1.443-3.999-1.182-4.307.235-.085.359-.183.47-.17.209.138.379.608.745 1.327.352.83.522 1.301.633 1.314 0 0 .438 1.065 1.188 3.293.862 2.242 1.287 3.418 1.469 3.778.085.235.268.595.634 1.313.085.236.183.36.17.471-.04.333.032.68.326 1.052.196.248.464.843 1.038 1.699.196.249.451.954.764 2.118.535 1.189 1.084 2.267 1.867 3.261.098.124.307.261.503.509.196.249.49.621.771 1.105-.111-.013-.418-.275-1.019-.908z" fill="#fff"/><path d="M136.729 132.541c.124-.098.483-.281.718-.366l.098.124c-.398.516-1.417 1.523-2.958 3.144-1.789 1.817-3.056 3.02-3.676 3.511l-6.588 5.308c-.124.098-1.104.772-2.952 2.132-2.083 1.444-3.558 2.51-4.551 3.295a463.12 463.12 0 00-7.333 5.897l-1.116.882c-.731.477-1.3.523-1.482.164l-.196-.248.013-.112.372-.294c.966-.562 1.698-1.039 2.181-1.321.881-.797 1.639-1.497 2.024-1.902 1.241-.981 2.618-2.17 4.342-3.432 1.241-.981 3.311-2.315 6.138-4.348 2.814-1.922 5.021-3.465 6.634-4.74.496-.392 2.122-1.778 4.558-4.308 2.507-2.183 3.761-3.275 3.774-3.386z" fill="#B3B3B3"/><path d="M152.905 148.435c8.053.947 15.351-4.821 16.298-12.883.948-8.062-4.813-15.365-12.866-16.312-8.054-.946-15.351 4.822-16.299 12.884-.948 8.061 4.813 15.364 12.867 16.311z" fill="url(#paint3_radial)"/><path opacity=".52" d="M132.318 214.39c44.434 0 80.454-8.422 80.454-18.812s-36.02-18.813-80.454-18.813c-44.433 0-80.453 8.423-80.453 18.813 0 10.39 36.02 18.812 80.453 18.812z" fill="url(#paint4_radial)"/><path opacity=".52" d="M260.403 286.438c36.475 0 66.044-8.423 66.044-18.812 0-10.39-29.569-18.813-66.044-18.813-36.475 0-66.044 8.423-66.044 18.813 0 10.389 29.569 18.812 66.044 18.812z" fill="url(#paint5_radial)"/><path opacity=".52" d="M323.645 271.228c5.084 0 9.206-1.434 9.206-3.202 0-1.769-4.122-3.202-9.206-3.202-5.085 0-9.207 1.433-9.207 3.202 0 1.768 4.122 3.202 9.207 3.202z" fill="url(#paint6_radial)"/><path opacity=".52" d="M237.988 296.845c5.085 0 9.206-1.434 9.206-3.202 0-1.769-4.121-3.202-9.206-3.202-5.084 0-9.206 1.433-9.206 3.202 0 1.768 4.122 3.202 9.206 3.202z" fill="url(#paint7_radial)"/><path opacity=".52" d="M60.27 204.784c5.085 0 9.207-1.434 9.207-3.202 0-1.769-4.122-3.202-9.207-3.202-5.084 0-9.206 1.433-9.206 3.202 0 1.768 4.122 3.202 9.206 3.202z" fill="url(#paint8_radial)"/><path opacity=".52" d="M113.106 207.986c5.084 0 9.206-1.434 9.206-3.202 0-1.769-4.122-3.202-9.206-3.202-5.085 0-9.207 1.433-9.207 3.202 0 1.768 4.122 3.202 9.207 3.202z" fill="url(#paint9_radial)"/><path opacity=".52" d="M197.161 272.028c5.085 0 9.206-1.433 9.206-3.202 0-1.768-4.121-3.202-9.206-3.202-5.084 0-9.206 1.434-9.206 3.202 0 1.769 4.122 3.202 9.206 3.202z" fill="url(#paint10_radial)"/><path opacity=".52" d="M213.973 250.414c5.084 0 9.206-1.434 9.206-3.202s-4.122-3.202-9.206-3.202c-5.085 0-9.206 1.434-9.206 3.202s4.121 3.202 9.206 3.202z" fill="url(#paint11_radial)"/><circle cx="336.099" cy="206.5" r="5.5" fill="url(#paint12_linear)"/><circle cx="360.099" cy="127.5" r="7.5" fill="url(#paint13_linear)"/><circle cx="324.099" cy="156.5" r="5.5" fill="url(#paint14_linear)"/><circle cx="307.099" cy="117.5" r="5.5" fill="url(#paint15_linear)"/><circle cx="286.099" cy="157.5" r="5.5" fill="url(#paint16_linear)"/><path d="M312.815 204.78c0 1.118.112 2.125.112 3.132-1.006.448-1.901.559-2.459.336-1.118-.448-1.453-1.567-1.23-3.692v-.448l3.577.672z" fill="#2F3563"/><path d="M310.467 208.248c.559.223 2.459.783 2.459-.336 1.453 29.2 13.971 55.827 13.971 56.051 1.006 4.028-4.694 4.587-5.141 3.021-1.006-3.469-11.959-36.584-12.965-57.729l-.112.335c-1.341-.223-3.241-.783-5.588-1.678-1.006 2.909-3.465 8.503-7.377 16.558-.447 1.454-1.564 3.468-3.241 6.265-.335.56-.782 1.231-1.229 1.902-.894 1.343-1.9 2.909-3.13 4.699h-1.453c-.335-.112-.782 0-1.453 0-.67.112-1.229.224-1.564.559a87.436 87.436 0 00-1.565-.335c-.224-.112-.335-.112-.559-.224.894-1.454 1.565-2.349 1.9-2.797-.335-1.454-.782-3.133-1.229-5.146-.224-.783-.336-1.678-.559-2.574-.224-1.342-.559-2.796-.782-4.475-1.342-7.719-1.789-13.201-1.23-16.222l-4.917-.895-9.612 24.166c-.559-.336-1.006-.56-1.565-.895-.447-.336-.894-.56-1.341-.895-.112-.448-.224-.784-.559-1.231.224-.336.447-.559.559-.895.782-1.566 2.235-5.258 4.47-11.188 1.453-4.475 2.683-8.055 3.577-10.74.782.224 1.676.112 2.682-.336 1.23-.559 2.124-1.454 2.683-2.797v-.223c.558.111 1.117.223 1.676.447 1.453.336 2.794.559 3.8.559l-.112.336c-.335.783-.335 1.454 0 2.014.336.559.783.895 1.677 1.23.447.224.894.336 1.117.336h.112c.224 2.126.559 5.147 1.006 8.727.559 3.915 1.341 8.726 2.235 14.32 3.689-6.153 6.818-12.418 9.277-19.019a47.74 47.74 0 01.671-2.126c.558 0 1.229-.224 2.011-.671 1.23-.671 2.012-1.343 2.236-2.238a3.454 3.454 0 00.335-1.454l7.376 1.342v.448c0 2.237.336 3.356 1.453 3.804z" fill="url(#paint17_radial)"/><path d="M297.279 207.017c.783-2.461 1.341-4.139 1.565-4.923l3.018.56c0 .559-.112 1.007-.336 1.454-.335.895-1.117 1.566-2.235 2.238-.671.447-1.453.671-2.012.671zm-16.206-5.482l.112-.336c1.341.112 2.347 0 2.906-.335-.224.671-.336 2.125-.112 4.363h-.112c-.223 0-.559-.112-1.118-.336-.894-.335-1.453-.783-1.676-1.23-.224-.672-.224-1.343 0-2.126zm-5.364-1.231c-.559 1.343-1.342 2.238-2.683 2.797-1.006.448-1.788.56-2.682.336.782-2.014 1.229-3.58 1.676-4.475 1.006.447 2.236.783 3.689 1.119v.223z" fill="#2F3563"/><path d="M311.809 210.038c.335.223.447.895.447 1.79 0 .559 0 1.342-.112 2.573-.112 2.126 0 3.916.335 5.37l.894 5.706c.224 1.231.559 3.132 1.23 5.818h-.112a173.003 173.003 0 01-2.794-10.853c-.112-.559-.336-2.237-.447-5.034-.224-3.021-.224-4.699 0-5.147.111-.447.335-.447.559-.223zm-12.965-1.343l.112.112c-.335 1.231-.782 2.461-1.118 3.804-.223.671-.559 1.678-1.006 2.909-.111.223-.558 1.23-1.564 3.244-.894 2.35-1.453 3.692-1.565 4.028-.112.223-1.118 1.902-3.129 5.146-.671 1.119-1.677 2.573-3.018 4.363-2.124 2.909-3.353 4.252-3.577 4.14-.111 0-.223-.112-.223-.224v-.112l.223-.559c1.118-1.343 1.9-2.35 2.459-3.021a93.647 93.647 0 002.459-3.132c.559-.784 1.229-1.902 1.9-3.357.782-1.566 1.341-2.685 1.9-3.356.559-.895 1.118-2.014 1.788-3.357.671-1.566 1.23-2.796 1.565-3.468.335-.671.782-1.79 1.341-3.58.447-1.566 1.006-2.797 1.453-3.58zm-16.542-1.119c.447 0 .783.336.894.895.112.224 0 .56.112 1.119v2.126c.112.447.224 1.119.224 2.238.111 1.118.111 1.901.223 2.349 1.118 4.811 1.9 7.943 2.235 9.398-.67-1.343-1.229-2.909-1.676-4.587-.447-2.014-.782-3.469-1.118-4.587-.335-1.119-.447-2.574-.559-4.364 0-.559-.111-1.454-.335-2.796-.112-1.007-.112-1.455-.112-1.567.112-.112.112-.224.112-.335-.112.223 0 .223 0 .111z" fill="#fff"/><path d="M289.903 183.97c0 1.231.111 2.462.335 3.916-.894.112-1.341.224-1.565.224-1.341.112-2.235-.112-2.682-.448-.335-.335-.671-.895-.894-1.79 2.347-.671 3.911-1.342 4.806-1.902z" fill="#2F3563"/><path d="M288.784 188.11c.112 0 .671-.112 1.565-.224.335 2.461.894 5.37 1.677 8.503 1.453 5.705 3.412 9.006 5.201 10.797-.801 1.601-1.201 3.602-2.002 5.203-.447-.336-3.535-5.931-5.099-9.511-1.789-4.252-3.13-8.279-4.136-12.307l-19.335 5.035-14.53 25.508c-.894-.783-1.9-1.343-2.794-1.567a2.742 2.742 0 00-1.341 0 1.568 1.568 0 01-.223-.335c.111-.224.335-.56.558-.783 1.453-2.238 3.577-5.818 6.483-10.853 3.017-5.146 5.476-9.397 7.265-12.642 1.676.336 3.129-.112 4.358-1.342.783-.783 1.23-1.678 1.565-2.573.112-.336.224-.672.224-.895 2.57-.224 5.923-.896 10.282-2.126a379.782 379.782 0 006.706-2.014c.223.895.447 1.454.894 1.79.447.336 1.341.448 2.682.336z" fill="url(#paint18_radial)"/><path d="M267.996 190.907c-.336.895-.783 1.79-1.565 2.573-1.118 1.23-2.571 1.678-4.359 1.342a136.008 136.008 0 002.683-5.034c.894.224 2.011.224 3.464.224 0 .223-.111.559-.223.895z" fill="#2F3563"/><path d="M289.008 189.788c.111-.112.223-.224.335-.224.447.336.67.895.782 1.678.112.448.112 1.231.224 2.238 0 .224.223.895.447 2.014.223.895.335 1.566.447 2.013 0 .448.223 1.119.559 2.014.335 1.007.67 1.567.67 1.902.112.336.447 1.231 1.118 2.685.671 1.343 1.006 2.238 1.118 2.462-1.23-1.455-2.124-2.909-2.795-4.587-.558-1.791-1.005-3.021-1.341-4.028-.335-.783-.67-2.238-1.117-4.475-.447-2.35-.671-3.58-.447-3.692zm-4.359-2.35c-2.794 1.455-4.918 2.238-6.37 2.574-.671.111-2.124.447-4.583 1.006-2.123.56-3.129.784-3.241.784-.112-.112-.224-.224-.224-.336v-.112c0-.112.112-.224.224-.336.224-.223 1.453-.559 3.576-1.006 2.236-.448 3.353-.672 3.577-.784 2.123-.447 3.241-.671 3.576-.783.783-.223 1.9-.671 3.465-1.007z" fill="#fff"/><path d="M298.508 227.715c-1.9 1.79-3.13 3.356-3.688 4.698 0 .112-.112.336-.112.448a49.532 49.532 0 01-.671 2.126c-4.582.895-11.735.223-21.906-.448-9.053-.671-28.165-7.048-28.388-6.936-1.677-.56-3.241-1.119-4.918-1.678-5.476-2.909-8.717-4.699-9.723-5.259-.559-.335-1.118-.671-1.789-.895 1.118-2.125 11.177-13.313 17.659-14.991.336-.112 18.777 11.075 19.336 11.411.559.336 1.229.671 1.788 1.007 1.118.559 2.235 1.231 3.353 1.79 3.576 1.79 7.265 3.468 11.176 4.811.224 0 15.871 3.468 17.883 3.916z" fill="#59569B"/><path d="M222.955 230.735c1.006-2.126 3.577-9.398 4.359-11.188.671.336 1.229.56 1.788.895 1.006.56 4.247 2.35 9.724 5.259.894.335 5.141 1.79 9.053 3.02v-.111a154.892 154.892 0 0010.282 2.685c0 .111.112.111.112.223 4.359.783 10.394 1.902 10.506 1.902 1.453.224 2.794.448 4.247.672 9.5 1.342 16.429 1.23 21.012.335-.112.448-.224 1.119-.336 1.343-.111.447-.335 2.125-.447 3.244-14.194 4.252-46.606-1.007-47.388-1.231l-5.365-1.342-17.547-5.706z" fill="#6561A3"/><path d="M223.067 230.064s33.753 10.517 72.871 8.503c-.112.895-2.682 1.566-2.682 2.909v3.02c-1.677.448-27.271 4.363-59.795-.447-.67 0-1.117-.112-1.229-.112-.224-.112-.559-.112-.783-.224-1.788-.447-3.464-1.007-5.029-1.566-.894-.336-2.571-1.007-5.029-2.126-.112 0-.112 0-.224-.112.112-2.685.894-6.377 1.9-9.845z" fill="#48438E"/><path d="M220.944 240.133v-.112c.111 0 .223.112.223.112 2.459 1.119 4.247 1.79 5.03 2.126 8.606 3.468 44.035 3.803 47.388 3.692 3.465-.224 13.188-.784 14.53-.784 1.676-.335 3.353-.783 4.917-1.118 0 1.007.112 1.902.224 2.797.559 2.796 1.676 4.475 3.241 5.034.224.112.671.559 1.006.224-8.718 6.601-65.83 10.964-65.83 10.964s-4.694-.112-4.806-.112c-6.147-4.587-7.488-16.558-5.923-22.823z" fill="#3D3081"/><path d="M243.966 236.665c.559.223 1.23.112 1.9-.224.336-.224.671-.336 1.006-.671 1.23-.895 1.118-5.482.447-5.482-.335 0-.67 0-1.005-.112.223.559.111 1.23-.112 1.79-.224.671-1.118 1.342-2.459 1.902l-1.9-1.007c-.112.671-.112 1.342.112 1.902.111.224.223.447.447.671a2.894 2.894 0 001.564 1.231zm43.366-12.978h-1.453c-.336-.112-.783 0-1.453 0-.671.112-1.23.224-1.565.559-.671.56-1.229 1.343-1.565 2.35-.335.895-.335 1.79-.223 2.685.111.224.111.559.223.783.447 1.454 1.341 2.349 2.571 2.797 1.117.336 2.57.447 4.247.336 2.123-.224 3.576-1.119 4.359-2.462.112-.224.223-.559.335-.783.224-.671.112-1.678-.223-2.909-.112-.223-.112-.447-.224-.559-.335-.671-.782-1.343-1.453-1.678-.671-.448-1.341-.672-2.123-.895-.559-.224-1.118-.336-1.453-.224zm1.341 2.237l1.117 1.007v.672c-.447 1.23-1.453 2.013-2.682 2.125-.894.112-1.788.112-2.571-.112-.558-.111-1.005-.335-1.229-.895-.112-.335-.112-.783.112-1.118.223-.672.559-1.119 1.229-1.343.671-.336 1.341-.447 2.235-.447h.559c.447 0 .783.111 1.23.111z" fill="#F14654"/><path d="M287.444 225.812c.447 0 .894.001 1.341.112l1.117 1.007v.672c-.447 1.23-1.452 2.013-2.682 2.125-.894.112-1.788.112-2.57-.112-.559-.112-1.006-.335-1.23-.895-.112-.335-.112-.783.112-1.118.223-.672.559-1.119 1.229-1.343.671-.336 1.341-.448 2.236-.448 0 .112.111.112.447 0z" fill="#F7C131"/><path d="M292.585 232.749c-.447 1.119-1.788 1.902-4.135 2.349-2.236.336-3.912.336-5.253-.112-1.342-.447-2.236-1.118-2.794-2.125-.448-.783-.448-1.79-.112-2.685.112-.224.335-.56.894-.895.112.224.112.559.223.783.447 1.454 1.342 2.349 2.571 2.797 1.118.335 2.571.447 4.247.335 2.124-.223 3.577-1.118 4.359-2.461.335.56.335 1.231 0 2.014z" fill="#4A1B6C"/><path d="M294.82 232.413c0 .112-.112.336-.112.448a49.532 49.532 0 01-.671 2.126c-.112.447-.223.783-.335 1.006-.112.448-.335 1.119-.335 2.238-.112.895-.112 2.014-.112 3.356v2.462c0 1.007.112 1.902.223 2.797.559 2.797 1.677 4.475 3.242 5.034.223.112.558.224 1.005.224.224 0 .671-.224 1.118-.56.112-.111.335-.223.447-.335 1.118-.783 2.124-2.461 3.018-4.699.223-.559.447-1.231.67-1.79.671-1.79 1.006-3.804 1.118-5.93 0-.783 0-1.454-.112-2.237-.335-4.587-1.564-7.272-3.464-8.055-.895-.336-1.677-.448-2.124-.56-1.788 1.678-3.018 3.245-3.576 4.475zm4.023-1.678c.112-.112.224-.112.335-.224.336-.111.671-.223 1.006-.111 1.006.223 1.677 1.342 2.124 3.356.447 2.014.447 4.251.112 6.824-.336 2.238-.895 4.14-1.789 5.706-.111.224-.111.336-.223.56-.894 1.678-1.9 2.237-2.906 2.013-.335-.111-.671-.335-1.006-.559-.559-.559-.894-1.566-1.229-2.797-.447-2.014-.447-4.251-.112-6.824.112-.448.112-.896.223-1.231.224-1.119.447-2.126.895-3.021.223-.783.558-1.342.894-1.902.67-.895 1.229-1.454 1.676-1.79z" fill="#E3D7E5"/><path d="M297.279 232.525c.558-.895 1.005-1.454 1.453-1.79.447.56.894 1.455 1.229 2.797.447 1.902.447 4.252 0 6.825-.335 2.461-.894 4.475-1.9 6.041 0 0 0 .112-.112.224-.447.783-.894 1.454-1.453 1.79-.559-.559-.894-1.566-1.229-2.797-.447-2.014-.447-4.251-.112-6.825.112-.447.112-.895.224-1.23.223-1.119.447-2.126.894-3.021.447-.783.67-1.454 1.006-2.014z" fill="#34134A"/><path d="M300.073 233.532c-.336-1.342-.671-2.237-1.23-2.797.112-.112.224-.112.335-.224.336-.111.671-.223 1.006-.111 1.006.223 1.677 1.342 2.124 3.356.447 2.014.447 4.251.112 6.824-.336 2.238-.894 4.14-1.789 5.706-.111.224-.111.336-.223.56-.894 1.678-1.9 2.237-2.906 2.013-.335-.111-.671-.335-1.006-.559.559-.336 1.006-.895 1.453-1.79.112-.112.112-.112.112-.224 1.006-1.566 1.565-3.58 1.9-6.041.559-2.461.559-4.811.112-6.713z" fill="#48438E"/><path d="M278.391 240.692c.894.336 1.453.784 1.9 1.455.112.224.335.559.335.783.336 1.119.224 2.349-.335 3.916-.671 1.79-1.788 2.908-3.353 3.244-1.006.224-2.123.112-3.129-.224-1.118-.447-1.789-1.23-2.012-2.349v-.783l1.788 1.119c3.8.447 4.918-1.231 3.353-5.035 0 0 0-.112-.112-.112-.782-.335-1.564-.671-2.459-1.007.448-.447.895-.671 1.565-.895.894-.447 1.677-.447 2.459-.112zm-22.018-32.332c-1.118-.672-2.124-1.231-2.906-1.455-.112 0-.224-.112-.224-.112-1.117-.335-2.235-.447-3.129-.335-.447 0-.894.224-1.23.447-.67.336-1.117 1.007-1.453 1.902 0 .112-.111.224-.111.336-.447 1.678.111 3.58 1.788 5.929 1.676 2.238 3.465 3.692 5.476 4.475 1.453.56 2.795.784 3.912.56h.112c1.341-.224 2.347-1.119 2.794-2.462.335-1.006.447-2.125 0-3.132-.112-.448-.223-.783-.559-1.231-.111-.223-.223-.335-.335-.447-.559-.783-1.677-2.126-3.577-3.916a1.343 1.343 0 00-.558-.559zm-3.465.783c.335 0 .782.112 1.229.224.336.111 1.118.447 2.124.895.559.671 1.118 1.342 1.565 1.901.223.224.335.56.447.784.67 1.23.782 2.237.447 3.244-.224.783-.894.895-2.012.448-.894-.336-2.012-1.231-3.465-2.797-1.564-1.79-2.235-3.021-2.012-3.804.224-.56.671-.895 1.23-1.007.223.224.335.112.447.112z" fill="#F14654"/><path d="M252.573 209.255c.111 0 .223-.112.335-.112.335 0 .782.112 1.229.224.336.111 1.118.447 2.124.895a132.86 132.86 0 011.565 1.902c.223.223.335.559.447.783.67 1.23.782 2.237.447 3.244-.224.783-.894.895-2.012.448-.894-.336-2.012-1.231-3.465-2.797-1.565-1.79-2.235-3.021-2.012-3.804.224-.336.671-.671 1.342-.783z" fill="#F7C131"/><path d="M244.749 211.492c.223-.671.782-1.23 1.564-1.79.224-.112.559-.335.894-.559-.447 1.678.112 3.58 1.789 5.929 1.676 2.238 3.464 3.692 5.476 4.475 1.453.56 2.794.784 3.912.56v.112c-.559.559-1.453 1.118-2.347 1.454-1.453.448-2.682.448-3.8 0-1.677-.559-3.353-2.126-5.253-4.587s-2.682-4.363-2.235-5.594z" fill="#4A1B6C"/><path d="M239.384 217.534c.336.111.559.447.671 1.007.112.559 0 1.118-.224 1.79-.335.895-.782 1.454-1.453 1.678-.447.223-.894.223-1.341.112-.335-.112-.559-.448-.67-1.007 0-.112 0-.224-.112-.336.112.112.335.224.559.448 1.564-.112 2.459-1.119 2.57-3.133-.223-.224-.447-.336-.67-.559.335-.112.447-.112.67 0z" fill="#760A08"/><path d="M240.055 218.541c-.112-.56-.335-.895-.67-1.007a.712.712 0 00-.671 0l-.112-.112c-.223-.336-.559-.56-.894-.895.447-.112.782-.224 1.006-.336.559-.112 1.118-.112 1.676.112.783.224 1.118.895 1.342 1.902.111.895.111 1.79-.224 2.685-.447 1.119-1.118 2.014-2.235 2.573-1.006.56-2.012.56-3.018.224-.782-.336-1.229-1.007-1.341-2.126-.112-.783 0-1.454.223-2.125v.111l1.006 1.231.112.112c0 .112.112.224.112.336.223.559.447.895.67 1.007.448.111.895.111 1.342-.112.67-.224 1.117-.783 1.453-1.678.223-.784.223-1.343.223-1.902zm6.483 8.838c.558.224 1.006.671 1.229 1.454.112.336.224.671.335 1.119.336 1.454.336 2.797-.111 4.028-.112.335-.336.671-.447 1.006-.112.336-.336.56-.559.896a15.761 15.761 0 01-2.012-1.343c-.335-.224-.559-.448-.782-.559.447-.336.894-.784 1.005-1.455.224-.671 0-1.678-.67-3.132l-2.124-.448c.336-.559.783-1.119 1.342-1.342.223-.112.558-.224.782-.224.559-.224 1.341-.224 2.012 0zm20.675-2.909c-2.123-.783-4.247-.895-6.147-.448-2.123.56-3.464 1.679-4.023 3.357-.447 1.119-.112 2.461.782 3.804.112.112.224.223.224.335.335.336 3.464 3.916 10.17 2.35.224 0 .336-.224.447-.336a5.095 5.095 0 002.124-2.237c.335-1.007.112-2.462-.894-4.028-.783-1.566-1.788-2.461-2.683-2.797zm.783 4.587c-.112.224-.447.559-1.006.895h-.112c-.559.224-1.229.224-2.012.112-.558-.112-1.229-.336-1.9-.559l-2.123-.784c-.894-.559-1.118-1.23-.782-2.125.447-1.231 1.229-1.79 2.458-1.678.671 0 1.677.335 3.13.895 1.006.335 1.676.671 2.012 1.006.67.56.782 1.231.335 2.238z" fill="#F14654"/><path d="M267.773 226.819c.559.448.559 1.231.223 2.238-.111.224-.447.559-1.005.895h-.112c-.559.224-1.23.224-2.012.112-.559-.112-1.229-.336-1.9-.559l-2.124-.784c-.894-.559-1.117-1.23-.782-2.125.447-1.231 1.23-1.79 2.459-1.678.671 0 1.676.335 3.129.895 1.118.335 1.789.671 2.124 1.006z" fill="#F7C131"/><path d="M289.79 230.288c.671-.224 1.006-.448 1.118-.784 0-.111.112-.223 0-.223.112.112.223.112.223.335-.782 1.119-1.341 1.679-1.788 2.014-1.006.671-2.347.671-4.023 0-.336-.112-.447-.335-.336-.671.112-.448.559-.559 1.118-.448 1.006.224 1.676.336 2.012.224.559-.112 1.117-.335 1.676-.447zm-40.123-17.789c-.67-1.342-.782-2.573-.447-3.692.447-1.342.894-1.454 1.341 0-.223.448-.223 1.231-.335 2.126 0 .559.335 1.454 1.006 2.461 1.006 1.566 1.676 2.573 1.788 2.909-1.453-1.119-2.57-2.349-3.353-3.804zm14.306 19.243c-.112-.224-.112-.336-.112-.559.112-.336.894-.336 2.459-.112.112 0 .559 0 1.23-.112.558 0 1.005.112 1.229.224-.782.671-1.453 1.007-2.012 1.119-.67.111-1.453 0-2.459-.336-.111 0-.223-.112-.335-.224zM239.72 216.75c.111 0 .111 0 0 0 .67-.111 1.006.224 1.229 1.007.112.672.112 1.119 0 1.567a1.553 1.553 0 01-.335.447h-.112c.112-.447 0-1.007-.447-1.678s-.559-1.007-.559-1.007c.112-.224.224-.336.224-.336zm6.594 11.524c.559.224 1.006.783 1.229 1.566.224.783.336 1.231.224 1.566-.224.448-.335.672-.559.56-.112 0-.223-.112-.223-.112 0-.336-.112-1.007-.448-2.014-.223-.895-.335-1.342-.335-1.454 0-.112 0-.112.112-.112zm30.065 12.642l.223-.112c.783.224 1.342.56 1.565 1.119.112.336.224.783.335 1.454l-.335.895-.335-.223v-.672c0-.335 0-.559-.112-.783-.112-.112-.335-.447-.671-.783-.335-.447-.67-.783-.67-.895z" fill="#fff"/><path d="M230.778 200.193c.113-.113.113 0 0 0z" fill="#A77935"/><path d="M252.461 219.771v.224c0 .224 0 .559-.112.895-1.676 1.119-3.017 1.119-4.135 0v-.783l.335-1.455s.112 0 .112-.111c0 0 .335-2.238.894-6.713.224-2.573.447-4.811.447-6.713.112-3.132.112-6.153-.112-9.062l-20.229-3.804c-2.794 7.832-4.471 13.649-4.806 17.453 2.682-.335 4.582-.783 5.7-1.231l.559.112c-.447.224-.671.56-.783 1.007v.448c.895 1.678 2.124 1.79 3.465.559.335-.335.671-.671 1.006-1.119l2.459 4.587 8.494 16.111 1.006 1.902c-.671 1.342-1.341 2.237-2.012 2.461-.67.224-1.565.671-1.788.112-1.006-1.902-3.8-6.265-3.912-6.265l-6.482-11.188v-.224l-.336-1.007-1.564-3.02c-3.353.223-5.477.447-6.483.783-.447 1.007-.782 2.125-1.006 3.468-.111 1.678-.335 2.909-.558 3.804-.447 1.678-.894 4.363-1.453 8.055-.559 3.692-1.118 7.384-1.677 11.188l.224 4.251v1.119c-1.677 1.119-3.353 1.79-4.918 2.014-1.565.224-2.571-.336-2.906-1.678.335-.672.671-1.567 1.006-2.574.894-2.349 1.788-5.593 2.906-9.733.447-1.566.894-3.356 1.341-5.146.112-.336.224-.783.335-1.119.448-1.79.671-2.909.783-3.468 1.006-5.035 1.676-8.615 2.012-10.517-7.377.56-12.406.895-15.2 1.119-.336 3.132-1.342 9.845-3.13 20.25a328.47 328.47 0 00-2.459 20.585c-.223 3.469-.447 6.825-.559 9.958v2.349c-.335.112-.782.336-1.341.783-.559.336-1.006.671-1.453.783-.447.112-1.229.336-2.123.448-1.006.112-1.341-.56-1.23-2.238.224-1.342.559-4.027 1.342-8.167.782-4.587 1.676-9.845 2.458-15.775 1.789-13.201 2.571-22.823 2.124-28.64.335 0 .559-.112.782-.112 1.341-.448 2.459-1.567 3.13-3.357 6.37-.112 12.406-.559 17.994-1.118.782-3.357 2.012-9.622 3.8-18.572l.112-.112.111.112c.336.447 1.23.447 2.795.112 1.564-.336 2.347-1.231 2.235-2.574 0-1.23 0-1.901-.112-2.013v-.112c.112.112.782.224 1.9.447 1.118.224 4.135.783 8.941 1.79 4.806 1.007 8.271 1.679 10.506 2.014-.335 1.566-.447 2.909 0 3.916.447 1.231 1.341 2.014 2.683 2.461.67.224 1.453.336 2.235.336-.335 1.342-1.118 6.041-2.347 13.985-.112.783-.224 1.678-.335 2.461-.224 1.342-.336 2.685-.559 4.139 0 .224 0 .672-.112 1.119z" fill="url(#paint19_radial)"/><path d="M250.896 191.13c.447.112.894.112 1.341.224l3.8 6.041s-.112.112-.223.448c-.783 0-1.565-.112-2.236-.336-1.341-.447-2.235-1.23-2.682-2.461-.335-1.007-.335-2.349 0-3.916zm-21.235-4.363c0 .224.112.895.112 2.126.112 1.342-.671 2.237-2.235 2.573-1.565.447-2.459.336-2.794-.112l-.112-.112 4.918-4.363c-.112 0 0 0 .111-.112zm5.253 22.488c-.224.335-.559.783-1.006 1.118-1.341 1.231-2.459 1.119-3.465-.559v-.448c.112-.447.336-.783.783-1.007l3.688.896zm-35.43 5.258c-.223.112-.559.112-.782.112-.112-1.343-.224-2.462-.447-3.469h4.359c-.671 1.679-1.677 2.797-3.13 3.357z" fill="#2F3563"/><path d="M245.532 231.518c-.559-.223-1.565-1.454-2.906-3.692-2.012-3.804-3.241-6.153-3.8-7.16-.894-1.454-1.788-2.685-2.459-3.804-1.341-2.125-2.124-3.58-2.347-4.139-.335-.783-.224-1.343.112-1.455.111 0 .223-.112.223-.112v.112c.782 2.462 2.347 5.259 4.694 8.279.336.448 1.677 2.909 3.912 7.608.335.671.894 1.454 1.453 2.573.224.56.447.895.671 1.231.447.112.558.336.447.559zm8.159-33.116c0 .336 0 1.007-.224 2.238-.112 1.007-.224 1.79-.447 2.238-.112.335-.224 1.118-.335 2.461-.112 1.23-.224 1.902-.224 2.014-.112.335-.223 1.342-.335 2.908-.112 1.455-.335 2.462-.559 2.909-.112.336-.224 1.343-.335 2.909-.112 1.566-.224 2.573-.447 2.909-.112-1.454-.112-2.349-.112-2.797 0-1.343.112-2.349.447-3.021.223-.559.335-1.678.447-3.356.112-1.678.224-2.685.224-2.909.223-1.902.335-3.58.558-4.811.224-2.461.559-3.692.894-3.803a.853.853 0 00.448.111z" fill="#fff"/><path d="M277.608 243.713v.224c-.559 4.027-2.347 4.922-5.477 2.573l-1.006-1.79-2.57-4.923-7.153-13.537c-.224.224-.559.448-1.118.895-.894.895-2.123 1.902-3.464 2.797-.448.336-1.118.895-2.236 1.678-4.135 3.357-7.264 5.93-9.612 7.72-6.817 6.041-10.505 9.062-11.064 9.062-.112 2.461 1.117 9.51 3.464 21.033.671 3.133 1.677 7.608 3.018 13.537.112.56.224 1.119.335 1.566.671 3.133 1.118 5.147 1.342 6.266.111.447.111.783.111.783l-.223.224a9.476 9.476 0 01-1.9 1.118c-1.23.56-2.459.895-3.8.895.112-1.342 0-4.251-.447-8.95-.447-5.258-1.789-12.418-3.8-21.369-1.342-6.153-2.347-10.74-2.906-13.761-.224-1.342-.447-2.349-.559-3.02.112-.224 1.006-1.007 2.794-2.35.112 0 .112-.112.224-.112.894-.671 3.241-2.461 7.264-5.482 4.024-3.02 7.6-6.041 10.618-9.062l1.006-1.007c1.229-1.118 2.012-1.902 2.235-2.237 1.006-1.119 1.677-1.79 1.9-2.014 1.23-1.231 2.347-2.349 3.241-3.356.783-.783 1.342-1.567 1.9-2.238h.224c0 .224 0 .671.112 1.119.223 1.119.559 2.014 1.117 2.573.447.448.783.671 1.118.783.447.112 1.006-.112 1.565-.559.559-.448 1.117-1.119 1.676-2.238l.336-.671c.111.336.223.783.335 1.454.223.784.559 1.679 1.006 2.797.67 1.455 1.453 3.245 2.347 5.371.223.447.447 1.006.67 1.454 2.012 4.251 4.024 7.608 5.7 10.293a15.584 15.584 0 001.677 2.461z" fill="url(#paint20_radial)"/><path d="M265.314 220.331c-.112.223-.223.335-.335.671-.671 1.007-1.23 1.79-1.677 2.237-.558.448-1.117.672-1.564.56-.336-.112-.671-.336-1.118-.783-.447-.56-.894-1.455-1.118-2.574 0-.447-.111-.895-.111-1.118.894.223 1.788.447 2.906.447h3.017c0 .112-.112.336 0 .56z" fill="#4A1B6C"/><path d="M274.478 242.147a7.772 7.772 0 01-1.341-1.119c-.894-1.007-2.012-2.909-3.353-5.482-1.229-2.461-1.788-3.804-1.9-3.916-.894-1.678-1.676-3.132-2.235-4.363-1.118-2.461-1.565-3.804-1.23-4.028.224-.112.336-.223.448-.223.111.112.447.559.782 1.342s.559 1.231.67 1.231c0 0 .448 1.007 1.23 3.132.894 2.126 1.341 3.245 1.565 3.58.111.224.335.56.67 1.231.112.224.112.336.224.448 0 .335.111.671.335 1.007.112.223.559.783 1.006 1.566.112.224.447.895.782 2.014.559 1.118 1.118 2.125 1.9 3.02.112.112.224.224.559.448.224.336.559.671.782 1.007-.111-.112-.447-.336-.894-.895zm-16.317-19.355c.112-.112.447-.336.671-.336l.111.112c-.335.559-1.229 1.566-2.682 3.133-1.676 1.79-2.794 3.02-3.465 3.58l-6.147 5.37c-.112.112-1.006.783-2.794 2.126-1.9 1.454-3.353 2.573-4.247 3.356-1.565 1.231-3.8 3.356-6.818 6.041 0 0-.335.336-1.006.895-.67.448-1.229.56-1.453.224-.111-.112-.111-.224-.111-.224v-.112l.335-.335c1.006-.56 1.676-1.007 2.012-1.343.782-.895 1.453-1.454 1.9-1.902 1.117-1.007 2.459-2.237 4.023-3.468 1.118-1.007 3.018-2.461 5.7-4.363 2.683-2.014 4.695-3.58 6.147-4.811.559-.447 1.9-1.902 4.248-4.251 2.458-2.462 3.576-3.692 3.576-3.692zm-36.284-11.71c-3.03.863-5.268 1.203-6.758 1.239-.68-.025-2.171.011-4.692.064-2.192.121-3.223.138-3.332.115-.087-.132-.174-.264-.152-.374l.023-.109c.022-.11.154-.197.286-.284.264-.174 1.536-.256 3.706-.267 2.28.012 3.42.018 3.661-.047 2.17-.011 3.31-.005 3.661-.047.812-.062 1.996-.276 3.597-.29zm25.055-19.198c-3.148.114-5.402-.09-6.858-.411-.654-.186-2.11-.507-4.571-1.057-2.158-.406-3.163-.636-3.264-.684-.053-.149-.106-.298-.058-.399l.048-.101c.048-.101.197-.154.346-.207.298-.106 1.553.118 3.663.625 2.211.556 3.316.833 3.566.828 2.11.508 3.216.785 3.567.828.802.134 2.004.209 3.561.578z" fill="#fff"/><path d="M156.186 132.516L680.728-64.05s4.379-.9 2.548-5.604c-1.831-4.704-5.874-3.014-5.874-3.014L155.472 130.56s-.235.584.033 1.2c.226.519.681.756.681.756z" fill="url(#paint21_linear)"/><path d="M120.857 76.204c-4.956 4.956-13.108 4.956-18.063-.16-4.956-4.955-4.956-13.107.159-18.063 5.116-4.955 13.108-4.955 18.064.16 4.955 4.955 4.955 13.108-.16 18.063z" fill="#FFF066"/><path d="M120.856 76.204c-4.955 4.956-13.108 4.956-18.063-.16l18.223-17.903c4.956 4.955 4.956 13.108-.16 18.063z" fill="#FFCD40"/><path d="M119.578 74.766c-4.316 4.156-11.19 4.156-15.346-.16-4.156-4.316-4.156-11.19.16-15.346 4.316-4.156 11.19-4.156 15.346.16 4.156 4.316 4.156 11.19-.16 15.346z" fill="#FFCD40"/><path d="M119.578 74.766c-4.316 4.156-11.189 4.156-15.346-.16l15.506-15.346c4.156 4.476 4.156 11.35-.16 15.506z" fill="#FFA943"/><path d="M112.065 59.58l.16 1.598c.48.16.959.64.959 1.28 0 .798-.639 1.598-1.438 1.598-.8 0-1.599-.64-1.599-1.44 0-.639.32-1.118.799-1.438l-.159-1.598c-3.837.64-6.714 3.996-6.395 7.832.32 3.837 3.517 6.874 7.354 7.034l-.16-1.599c-.48-.16-.959-.639-.959-1.278 0-.8.639-1.599 1.438-1.599.8 0 1.599.64 1.599 1.439 0 .64-.32 1.119-.799 1.438l.16 1.6c3.836-.64 6.713-3.997 6.394-7.834-.32-3.836-3.357-6.873-7.354-7.033zm88.087 117.082c-6.04-2.553-8.909-9.622-6.217-15.718 2.553-6.04 9.621-8.909 15.718-6.217 6.096 2.691 8.909 9.621 6.217 15.717-2.553 6.041-9.621 8.909-15.718 6.218z" fill="#FFF066"/><path d="M200.152 176.661c-6.04-2.552-8.908-9.621-6.217-15.717l21.935 9.5c-2.553 6.04-9.621 8.909-15.718 6.217z" fill="#FFCD40"/><path d="M200.95 175.047c-5.122-2.28-7.541-8.24-5.261-13.362 2.279-5.122 8.239-7.541 13.361-5.261 5.123 2.28 7.541 8.239 5.262 13.362-2.28 5.122-8.24 7.541-13.362 5.261z" fill="#FFCD40"/><path d="M200.95 175.047c-5.122-2.28-7.541-8.239-5.261-13.362l18.761 8.044c-2.418 5.179-8.378 7.598-13.5 5.318z" fill="#FFA943"/><path d="M211.472 163.19l-1.33.701c.031.472-.216 1.056-.771 1.281-.693.282-1.611.008-1.892-.685-.281-.693-.008-1.611.685-1.892.554-.225 1.082-.116 1.528.187l1.33-.701c-1.904-3.102-5.827-4.415-9.041-2.788-3.214 1.627-4.722 5.468-3.511 8.851l1.33-.702c-.03-.472.217-1.056.771-1.281.693-.281 1.611-.008 1.892.685.282.693.008 1.611-.685 1.892-.554.225-1.082.117-1.528-.187l-1.33.701c1.904 3.102 5.827 4.415 9.041 2.788 3.214-1.627 4.779-5.329 3.511-8.85zm-15.8-60.05c-6.622-2.296-10.18-9.631-7.74-16.322 2.295-6.622 9.63-10.18 16.322-7.74 6.691 2.44 10.179 9.63 7.74 16.322-2.296 6.621-9.631 10.179-16.322 7.74z" fill="#FFF066"/><path d="M195.672 103.139c-6.622-2.296-10.18-9.63-7.74-16.322l24.062 8.582c-2.296 6.621-9.631 10.18-16.322 7.74z" fill="#FFCD40"/><path d="M196.408 101.361c-5.624-2.069-8.624-8.253-6.554-13.877 2.069-5.623 8.253-8.623 13.877-6.553 5.623 2.069 8.623 8.253 6.554 13.876-2.07 5.624-8.254 8.624-13.877 6.554z" fill="#FFCD40"/><path d="M196.408 101.361c-5.623-2.069-8.623-8.253-6.554-13.876l20.575 7.253c-2.213 5.693-8.398 8.693-14.021 6.623z" fill="#FFA943"/><path d="M206.792 87.974l-1.368.842c.065.5-.157 1.142-.732 1.42-.719.35-1.718.123-2.067-.596-.348-.72-.122-1.717.597-2.066.576-.28 1.147-.2 1.643.091l1.369-.842c-2.25-3.172-6.526-4.296-9.838-2.334-3.312 1.962-4.65 6.164-3.119 9.686l1.368-.842c-.065-.5.157-1.142.732-1.42.72-.35 1.718-.123 2.067.596.348.72.122 1.717-.597 2.066-.575.28-1.146.201-1.643-.091l-1.369.842c2.25 3.172 6.526 4.296 9.838 2.334 3.312-1.962 4.719-6.02 3.119-9.686z" fill="#FFF066"/><path d="M261.268 72.88l.736-1.384 2.215-3.838c-1.389 1.778-8.139.552-15.414-3.027-7.276-3.578-12.77-8.282-11.897-10.482l-1.722 4.138-.437 1.1c-1.05 2.255 3.522 8.076 11.029 11.777 7.506 3.702 13.586 3.072 15.49 1.717z" fill="#FFCD40"/><path d="M264.192 67.956c1.522-3.12-3.416-8.666-11.028-12.388-7.613-3.722-15.017-4.21-16.539-1.09-1.521 3.12 3.416 8.667 11.029 12.389 7.612 3.721 15.017 4.21 16.538 1.09z" fill="#E0B310"/><path d="M263.693 67.713c1.477-3.029-3.274-8.392-10.611-11.979-7.338-3.587-14.483-4.04-15.96-1.012-1.477 3.028 3.274 8.391 10.612 11.979 7.337 3.587 14.482 4.04 15.959 1.012z" fill="#F9EA34"/><path d="M263.196 67.469c1.432-2.937-3.132-8.116-10.195-11.57-7.062-3.452-13.948-3.87-15.38-.934-1.432 2.937 3.132 8.116 10.194 11.57 7.063 3.452 13.949 3.87 15.381.934z" fill="#C78E08"/><path d="M252.745 56.659c-6.353-3.087-12.479-3.536-14.059-1.12l.123-.23c1.295-2.717 7.598-2.322 14.181.888 6.584 3.21 10.733 7.938 9.437 10.654l-.122.231c.887-2.785-3.208-7.336-9.56-10.423z" fill="#A97607"/><path opacity=".2" d="M246.011 61.81c7.506 3.702 14.978 4.127 16.395 1.18l.123-.231c1.586 2.03 2.357 3.92 1.621 5.306-1.54 3.178-8.835 2.7-16.395-1.18-7.275-3.578-12.171-8.851-11.038-12.098 1.749 2.56 5.195 4.988 9.294 7.023z" fill="#A97607"/><path d="M239.786 55.977c-1.295 2.716 2.515 6.967 8.406 9.808 5.892 2.842 11.61 3.222 12.837.913l.122-.23c-1.172 2.485-6.945 1.928-12.836-.913-5.891-2.842-9.701-7.093-8.529-9.578z" fill="#C78E08"/><path d="M239.786 55.977c-.245.462-.314.87-.383 1.277l.123-.23c-.108-.355.015-.586.26-1.047z" fill="#C78E08"/><path d="M239.525 57.023c-.014.585-.083.993.256 1.47l.123-.232c-.285-.3-.447-.83-.379-1.238z" fill="#C78E08"/><path d="M239.727 58.315c.039.762.378 1.238.717 1.715l.122-.23c-.339-.477-.501-1.008-.839-1.485zm1.016 1.43c1.463 2.26 4.041 4.374 7.448 6.04 5.891 2.842 11.61 3.222 12.836.914l.123-.231c-1.172 2.485-6.945 1.928-12.836-.913-3.407-1.667-6.162-3.726-7.571-5.81z" fill="#C78E08"/><path d="M262.366 67.063c1.343-2.753-2.922-7.602-9.526-10.83-6.603-3.23-13.045-3.615-14.388-.862-1.342 2.753 2.923 7.602 9.526 10.831 6.604 3.229 13.045 3.614 14.388.861z" fill="#E0B310"/><path d="M249.873 59.276l-.123.231c-.122.231.216.708.909 1.077.692.368 1.276.383 1.399.152l.122-.23c-.122.23-.707.215-1.399-.153-.692-.369-1.031-.846-.908-1.077z" fill="#C78E08"/><path d="M249.872 59.276l-.123.231.054.177.069-.408z" fill="#C78E08"/><path d="M249.925 59.454l-.123.23.054.177.069-.407z" fill="#C78E08"/><path d="M249.925 59.454l-.123.23.054.177.123-.23-.054-.177z" fill="#C78E08"/><path d="M249.979 59.63l-.122.231c.231.123.515.423.8.723.692.368 1.276.383 1.399.152l.123-.23c-.123.23-.707.216-1.399-.153-.231-.123-.692-.369-.801-.723zm2.177-.47l-.122.23c2.999 1.598 4.816 3.75 4.257 5.081l.122-.23c.559-1.332-1.257-3.484-4.257-5.082z" fill="#C78E08"/><path d="M252.156 59.16l-.122.23c1.615.86 2.93 2.005 3.785 2.905l.122-.231c-.854-.9-2.17-2.044-3.785-2.905z" fill="#C78E08"/><path d="M255.766 62.117l-.123.231c.285.3.339.477.447.83l.122-.23c-.054-.177-.162-.53-.446-.83zm.623.778l-.123.23.216.708.123-.23-.216-.708z" fill="#C78E08"/><path d="M256.429 63.656l-.123.23c.054.178-.069.408-.191.64l.122-.231c.3-.285.246-.462.192-.64zM244.4 58.435l-.123.23c.559-1.33 3.534-1.08 6.656.288l.123-.231c-3.122-1.367-5.92-1.672-6.656-.287z" fill="#C78E08"/><path d="M244.4 58.435l-.123.23c.559-1.33 3.534-1.08 6.656.288l.123-.231c-3.122-1.367-5.92-1.672-6.656-.287z" fill="#C78E08"/><path d="M240.993 56.768l-.123.231c1.104-2.078 6.062-1.659 11.261.814 5.199 2.473 8.67 6.247 7.62 8.502l.123-.231c1.104-2.078-2.367-5.852-7.62-8.502-5.253-2.65-10.211-3.069-11.261-.814z" fill="#C78E08"/><path d="M240.993 56.768l-.123.231c1.104-2.078 6.062-1.659 11.261.814 2.946 1.421 5.469 3.357 6.77 5.087l.123-.23c-1.301-1.73-3.648-3.72-6.77-5.088-5.253-2.65-10.211-3.069-11.261-.814z" fill="#C78E08"/><path d="M259.023 62.67l-.122.23c.339.477.677.953.785 1.307l.123-.23c-.162-.531-.501-1.008-.786-1.308zm.787 1.307l-.123.23.324 1.062.123-.231-.324-1.061z" fill="#C78E08"/><path d="M260.133 65.037l-.123.231c.108.354-.015.585-.137.816l.122-.231c-.054-.177.015-.585.138-.816zm-10.132-1.545l-.123.23c.408.07.815.138.938-.093l.122-.23c-.176.053-.53.161-.937.093z" fill="#C78E08"/><path d="M250.001 63.492l-.123.23c.408.07.815.138.938-.093l.122-.23c-.176.053-.53.161-.937.093zm-1.546-1.268l-.123.231c-.122.23.162.53.447.83l.123-.23c-.339-.477-.447-.83-.447-.83z" fill="#C78E08"/><path d="M248.455 62.224l-.123.23.054.178.069-.408z" fill="#C78E08"/><path d="M248.455 62.224l-.123.23.054.178.069-.408s.054.177 0 0z" fill="#C78E08"/><path d="M248.508 62.401l-.123.231.054.177.123-.23-.054-.178z" fill="#C78E08"/><path d="M248.562 62.578l-.122.231c.054.177.285.3.285.3l.122-.231c-.054-.177-.054-.177-.285-.3z" fill="#C78E08"/><path d="M246.849 56.333c1.629.275 3.367.904 5.159 1.71 1.846.984 3.515 2.021 4.6 3.043.516.423.854.9 1.139 1.2.909 1.075 1.233 2.137.688 2.883-.544.747-1.374 1.194-2.719 1.218l-1.752-.045c-1.63-.276-3.368-.905-5.16-1.711-1.846-.983-3.515-2.02-4.6-3.043-.515-.422-.854-.899-1.139-1.199-.908-1.076-1.233-2.137-.688-2.884.368-.692 1.374-1.193 2.719-1.217.53-.162 1.114-.147 1.753.045zm1.808 7.183l.245-.462c-.285-.3-.57-.6-.447-.83.123-.231.707-.216 1.399.152.692.369 1.031.846.909 1.076-.123.231-.531.162-.938.093l-.245.462c3.122 1.367 5.866 1.495 6.656.287.559-1.331-1.258-3.483-4.257-5.081l-.245.462c.284.3.569.6.446.83-.122.231-.706.216-1.399-.153-.692-.368-1.031-.845-.908-1.076.123-.23.53-.162.938-.093l.245-.462c-3.122-1.366-5.866-1.495-6.656-.287-.614 1.155 1.434 3.43 4.257 5.082z" fill="#F9EA34"/><path d="M242.323 57.329l-.122.23c-.368.693-.044 1.755.688 2.885.338.476.623.776 1.139 1.199 1.085 1.022 2.754 2.06 4.6 3.042 1.846.984 3.706 1.382 5.159 1.712.584.015 1.223.206 1.753.044 1.345-.024 2.405-.347 2.719-1.217l.122-.23c-.368.692-1.374 1.192-2.719 1.217l-1.752-.045c-1.63-.276-3.368-.905-5.159-1.711-1.846-.984-3.516-2.02-4.601-3.043-.515-.423-.854-.9-1.139-1.199-.731-1.13-1.056-2.191-.688-2.884z" fill="#C78E08"/><path d="M242.325 57.328l-.123.231c-.122.231-.245.462-.137.816l.123-.231c-.108-.354.014-.585.137-.816z" fill="#C78E08"/><path d="M242.186 58.144l-.123.231c.108.354-.014.585.27.885l.123-.231c-.285-.3-.393-.654-.27-.885zm.271.885l-.123.23c.108.354.393.654.732 1.13l.123-.23c-.516-.423-.624-.777-.732-1.13z" fill="#C78E08"/><path d="M243.012 60.213l-.123.23c.339.477.624.777 1.139 1.2 1.085 1.022 2.754 2.059 4.6 3.042 1.846.983 3.707 1.382 5.16 1.712.584.014 1.222.206 1.752.044 1.345-.024 2.405-.348 2.719-1.217l.123-.231c-.368.692-1.374 1.193-2.719 1.217l-1.753-.044c-1.629-.276-3.367-.905-5.159-1.712-1.846-.983-3.515-2.02-4.6-3.042-.285-.3-.801-.723-1.139-1.2z" fill="#C78E08"/><path d="M261.612 66.713c-1.173 2.486-7.299 2.037-13.421-.928-6.122-2.964-10.217-7.515-9.044-10 1.172-2.486 7.299-2.036 13.42.928 6.176 3.141 10.217 7.515 9.045 10zm-13.284-1.743l.231.123.231.123c5.199 2.472 10.103 2.715 11.03.69 1.104-2.077-2.368-5.85-7.621-8.5-5.198-2.473-10.333-2.839-11.26-.815-.873 2.2 2.367 5.852 7.389 8.379z" fill="#F9EA34"/><path opacity=".47" d="M246.426 56.849l-.432-1.415-1.59.485 1.359-.608-2.552-.768 2.498.59-2.415-1.582 2.592 1.529-1.071-1.607 1.248 1.553.667-.978-.437 1.1 2.16.114-1.929.01 2.538 1.351-2.484-1.174 1.655 1.621-1.832-1.568.025 1.347z" fill="#fff"/><path opacity=".2" d="M246.773 61.771c6.176 3.141 12.248 3.413 13.42.928l.123-.23c1.301 1.729 1.964 3.267 1.351 4.421-1.173 2.486-7.245 2.213-13.421-.928-5.945-3.018-9.932-7.215-9.167-9.77 1.532 1.853 4.341 4.09 7.694 5.58z" fill="#A97607"/><path d="M239.022 60.514c-4.195-4.938-2.316-8.988 4.336-8.892 6.48.016 15.262 4.091 19.42 9.109 4.159 5.018 2.317 8.988-4.335 8.892-6.48-.016-15.262-4.091-19.421-9.109z" fill="#FFF066"/><path d="M239.222 60.084c-4.241-4.84-2.437-8.729 4.17-8.535l15.251 17.64c-6.434-.113-15.216-4.188-19.421-9.105z" fill="#FFCD40"/><path d="M241.054 60.193c-3.522-4.136-2-7.414 3.569-7.239 5.569.175 12.973 3.611 16.494 7.747 3.522 4.136 2.001 7.415-3.568 7.24-5.569-.176-12.973-3.612-16.495-7.748z" fill="#FFCD40"/><path d="M241.054 60.194c-3.522-4.136-2.001-7.414 3.568-7.239l13.098 15.066c-5.741-.255-13.145-3.69-16.666-7.827z" fill="#FFA943"/><path d="M259.075 64.202l-1.758-.723c-.278.149-.901.138-1.589-.182-.861-.4-1.581-1.104-1.404-1.485.177-.381 1.043-.443 1.904-.043.688.32 1.134.712 1.372 1.1l1.758.723c.16-2.15-2.819-5.2-7.022-6.965-4.204-1.765-8.183-1.759-9.204-.009l1.757.723c.279-.149.901-.138 1.59.182.861.4 1.58 1.104 1.403 1.485-.176.381-1.042.443-1.903.043-.689-.32-1.135-.712-1.373-1.1l-1.757-.723c-.16 2.15 2.819 5.2 7.022 6.965 4.203 1.765 8.147 1.835 9.204.009z" fill="#FFF066"/><path d="M179.024 38.73l-1.301-.55-4.12-1.741c1.705 1.104 1.144 7.256-1.487 14.067-2.631 6.81-6.412 12.113-8.456 11.505l4.212 1.525 1.022.304c2.106.762 6.6-4.111 9.323-11.14 2.723-7.027 2.174-12.37.807-13.97z" fill="#FFCD40"/><path d="M173.873 36.438c-2.92-1.116-7.502 3.755-10.234 10.88-2.732 7.124-2.58 13.804.34 14.92 2.92 1.117 7.502-3.754 10.234-10.878 2.732-7.125 2.58-13.805-.34-14.922z" fill="#E0B310"/><path d="M173.694 36.906c-2.833-1.084-7.266 3.604-9.899 10.471-2.634 6.867-2.471 13.313.363 14.396 2.834 1.084 7.266-3.605 9.899-10.472 2.634-6.867 2.471-13.312-.363-14.395z" fill="#F9EA34"/><path d="M173.516 37.372c-2.748-1.05-7.031 3.455-9.566 10.065-2.534 6.61-2.361 12.82.387 13.87 2.748 1.05 7.03-3.456 9.565-10.065 2.535-6.61 2.362-12.82-.386-13.87z" fill="#C78E08"/><path d="M164.651 47.607c-2.264 5.944-2.179 11.474.115 12.7l-.217-.092c-2.54-.946-2.687-6.63-.332-12.792 2.355-6.16 6.265-10.258 8.805-9.313l.217.092c-2.569-.575-6.325 3.46-8.588 9.405z" fill="#A97607"/><path opacity=".2" d="M169.808 53.236c2.722-7.028 2.508-13.763-.248-14.8l-.217-.092c1.694-1.584 3.33-2.426 4.631-1.876 2.973 1.128 3.124 7.71.247 14.8-2.63 6.81-6.97 11.622-9.973 10.864 2.157-1.772 4.06-5.057 5.56-8.896z" fill="#A97607"/><path d="M165.071 59.285c2.54.945 6.049-2.811 8.129-8.321 2.079-5.511 1.965-10.67-.203-11.587l-.217-.092c2.323.854 2.283 6.076.203 11.587-2.08 5.51-5.589 9.266-7.912 8.413z" fill="#C78E08"/><path d="M165.071 59.285c.434.183.805.212 1.176.241l-.216-.092c-.309.126-.526.034-.96-.15z" fill="#C78E08"/><path d="M166.031 59.435c.525-.033.897-.004 1.297-.346l-.217-.092a1.42 1.42 0 01-1.08.438z" fill="#C78E08"/><path d="M167.173 59.152c.68-.096 1.081-.438 1.481-.78l-.217-.092c-.4.342-.863.53-1.264.872zm1.203-1.026c1.911-1.493 3.601-3.973 4.825-7.162 2.079-5.51 1.965-10.67-.203-11.586l-.217-.092c2.323.854 2.283 6.076.203 11.587-1.224 3.189-2.851 5.823-4.608 7.253z" fill="#C78E08"/><path d="M173.217 38.15c-2.576-.986-6.586 3.226-8.956 9.406-2.37 6.18-2.203 11.99.373 12.974 2.576.985 6.586-3.226 8.956-9.407 2.371-6.18 2.203-11.989-.373-12.974z" fill="#E0B310"/><path d="M167.227 49.974l.216.091c.217.092.618-.25.893-.9.276-.65.243-1.176.026-1.267l-.217-.092c.217.092.25.617-.025 1.267-.276.65-.677.992-.893.9z" fill="#C78E08"/><path d="M167.228 49.975l.216.092.155-.063-.371-.029z" fill="#C78E08"/><path d="M167.382 49.913l.217.092.154-.063-.371-.029z" fill="#C78E08"/><path d="M167.382 49.913l.217.092.154-.063-.217-.091-.154.062z" fill="#C78E08"/><path d="M167.536 49.85l.217.092c.092-.217.338-.496.584-.775.276-.65.243-1.176.026-1.267l-.217-.092c.217.092.25.617-.026 1.267-.091.217-.275.65-.584.775zm-.596-1.915l.217.092c1.194-2.818 2.98-4.619 4.219-4.223l-.217-.092c-1.238-.395-3.024 1.405-4.219 4.223z" fill="#C78E08"/><path d="M166.94 47.935l.217.092c.643-1.517 1.566-2.789 2.304-3.627l-.217-.091c-.738.838-1.661 2.109-2.304 3.626z" fill="#C78E08"/><path d="M169.307 44.462l.216.092c.247-.28.401-.342.71-.467l-.217-.092c-.154.063-.463.188-.709.467zm.647-.621l.217.092.617-.25-.216-.092-.618.25z" fill="#C78E08"/><path d="M170.634 43.745l.217.092c.154-.063.371.029.588.12l-.217-.091c-.279-.246-.434-.183-.588-.12zm-3.726 11.205l.217.092c-1.238-.395-1.25-3.084-.272-5.993l-.217-.092c-.978 2.91-1.029 5.444.272 5.994z" fill="#C78E08"/><path d="M166.908 54.95l.217.092c-1.238-.395-1.25-3.084-.272-5.993l-.217-.092c-.978 2.91-1.029 5.444.272 5.994z" fill="#C78E08"/><path d="M165.685 58.138l.217.092c-1.952-.825-1.971-5.305-.167-10.166 1.804-4.86 4.913-8.274 7.019-7.512l-.217-.091c-1.951-.825-5.06 2.589-7.019 7.512-1.958 4.922-1.939 9.403.167 10.165z" fill="#C78E08"/><path d="M165.685 58.138l.217.092c-1.952-.825-1.971-5.305-.167-10.166 1.04-2.755 2.576-5.173 4.024-6.477l-.217-.092c-1.448 1.305-3.046 3.568-4.024 6.478-1.958 4.922-1.939 9.403.167 10.165z" fill="#C78E08"/><path d="M169.542 41.495l.217.092c.4-.342.801-.684 1.11-.809l-.217-.091c-.463.187-.864.529-1.11.808z" fill="#C78E08"/><path d="M170.652 40.687l.217.092.926-.376-.217-.091-.926.375zm.926-.376l.217.092c.309-.125.526-.033.742.058l-.216-.091c-.155.062-.526.033-.743-.059zm-.58 9.212l.217.092c.029-.371.059-.742-.158-.834l-.217-.091c.062.154.187.462.158.833z" fill="#C78E08"/><path d="M170.998 49.523l.217.092c.029-.371.059-.742-.158-.834l-.217-.091c.062.154.187.462.158.833zm-1.014 1.487l.217.092c.217.092.463-.188.709-.467l-.217-.092c-.4.342-.709.467-.709.467z" fill="#C78E08"/><path d="M169.984 51.01l.217.092.155-.063-.372-.029z" fill="#C78E08"/><path d="M169.984 51.01l.217.092.155-.063-.372-.029s.155-.062 0 0z" fill="#C78E08"/><path d="M170.139 50.949l.217.091.154-.063-.217-.091-.154.063z" fill="#C78E08"/><path d="M170.293 50.886l.217.091c.154-.062.246-.279.246-.279l-.217-.092c-.154.063-.154.063-.246.28z" fill="#C78E08"/><path d="M164.827 52.921c.118-1.484.544-3.093 1.124-4.764.735-1.734 1.533-3.314 2.363-4.369.338-.496.739-.837.985-1.117.893-.9 1.819-1.276 2.532-.846.713.429 1.18 1.137 1.309 2.341l.099 1.576c-.118 1.484-.544 3.093-1.124 4.764-.735 1.734-1.532 3.314-2.363 4.369-.338.496-.739.838-.985 1.117-.893.9-1.819 1.276-2.532.847-.65-.275-1.18-1.138-1.308-2.343-.188-.462-.221-.987-.1-1.575zm6.299-2.194l-.433-.183c-.247.28-.493.559-.71.467-.217-.092-.25-.617.026-1.267.275-.65.676-.992.893-.9.217.091.187.462.158.833l.434.183c.977-2.91.874-5.38-.273-5.993-1.238-.396-3.024 1.405-4.219 4.223l.434.183c.246-.279.493-.558.709-.467.217.092.25.617-.025 1.267-.276.65-.676.992-.893.9-.217-.09-.188-.462-.158-.833l-.434-.183c-.977 2.91-.874 5.38.272 5.993 1.085.459 2.963-1.56 4.219-4.223z" fill="#F9EA34"/><path d="M166.082 56.901l.217.092c.65.275 1.576-.1 2.532-.847.4-.342.647-.621.985-1.117.83-1.055 1.628-2.635 2.362-4.369.735-1.734.945-3.434 1.125-4.764-.034-.525.088-1.113-.1-1.575-.129-1.205-.504-2.13-1.308-2.342l-.217-.092c.65.275 1.18 1.138 1.308 2.342l.1 1.575c-.118 1.484-.544 3.093-1.124 4.765-.735 1.734-1.533 3.313-2.363 4.368-.338.496-.739.838-.985 1.117-.956.747-1.882 1.122-2.532.847z" fill="#C78E08"/><path d="M166.081 56.9l.217.091c.217.092.434.183.742.058l-.217-.091c-.308.125-.525.033-.742-.059z" fill="#C78E08"/><path d="M166.824 56.96l.217.09c.308-.124.525-.033.771-.312l-.216-.092c-.247.28-.555.405-.772.313zm.772-.314l.217.092c.308-.126.554-.405.955-.747l-.217-.091c-.338.496-.647.62-.955.746z" fill="#C78E08"/><path d="M168.613 56.054l.217.091c.401-.342.647-.62.985-1.117.83-1.055 1.628-2.634 2.363-4.368.735-1.734.944-3.435 1.124-4.765-.033-.525.088-1.112-.099-1.575-.129-1.205-.504-2.13-1.309-2.342l-.217-.092c.651.275 1.18 1.138 1.309 2.342l.099 1.576c-.117 1.484-.544 3.093-1.124 4.764-.735 1.734-1.532 3.314-2.363 4.369-.246.279-.584.775-.985 1.117z" fill="#C78E08"/><path d="M172.963 38.852c2.323.854 2.408 6.385.236 12.112-2.171 5.727-5.927 9.763-8.249 8.909-2.323-.854-2.408-6.385-.237-12.112 2.326-5.79 5.927-9.763 8.25-8.909zm-.506 12.054l.092-.217.092-.217c1.804-4.86 1.631-9.278-.258-9.948-1.952-.825-5.061 2.59-7.019 7.512-1.804 4.86-1.723 9.495.166 10.165 2.043.608 5.061-2.59 6.927-7.295z" fill="#F9EA34"/><path opacity=".47" d="M165.325 53.259l-1.235.5.562 1.388-.654-1.171-.485 2.35.331-2.288-1.228 2.293 1.165-2.447-1.356 1.088 1.294-1.242-.93-.52 1.021.303-.07-1.946.162 1.73 1.011-2.385-.856 2.322 1.323-1.613-1.261 1.767 1.206-.13z" fill="#fff"/><path opacity=".2" d="M169.713 52.557c2.326-5.79 2.086-11.258-.237-12.112l-.216-.092c1.447-1.305 2.774-2.022 3.858-1.564 2.323.854 2.563 6.322.237 12.112-2.234 5.573-5.681 9.483-8.033 9 1.539-1.521 3.322-4.218 4.391-7.344z" fill="#A97607"/><path d="M169.202 59.61c-4.095 4.156-7.877 2.793-8.321-3.181-.502-5.814 2.454-14.016 6.624-18.145 4.17-4.13 7.877-2.794 8.321 3.18.502 5.814-2.454 14.016-6.624 18.146z" fill="#FFF066"/><path d="M168.801 59.466c-4.004 4.19-7.636 2.88-7.988-3.061l14.609-15.085c.41 5.78-2.546 13.982-6.621 18.146z" fill="#FFCD40"/><path d="M168.753 57.812c-3.43 3.489-6.492 2.385-6.778-2.624-.286-5.01 2.206-11.924 5.636-15.413 3.429-3.488 6.491-2.384 6.777 2.625.287 5.01-2.206 11.924-5.635 15.412z" fill="#FFCD40"/><path d="M168.754 57.813c-3.43 3.488-6.491 2.385-6.778-2.625l12.472-12.948c.228 5.17-2.264 12.085-5.694 15.573z" fill="#FFA943"/><path d="M170.913 41.33l-.509 1.633c.156.238.196.797-.036 1.44-.29.805-.864 1.506-1.22 1.378-.356-.128-.481-.9-.191-1.704.232-.643.548-1.075.878-1.32l.508-1.633c-1.94.027-4.439 2.942-5.688 6.853-1.249 3.911-.926 7.48.725 8.257l.508-1.634c-.155-.238-.195-.797.037-1.44.29-.805.864-1.506 1.22-1.378.356.129.48.9.191 1.704-.232.643-.549 1.075-.878 1.32l-.509 1.633c1.941-.027 4.44-2.943 5.689-6.853 1.249-3.911.997-7.454-.725-8.257z" fill="#FFF066"/><path d="M175.331 212.049l.027-1.412.095-3.672c-.392 1.994-6.312 3.758-13.613 3.845-7.301.088-13.629-1.453-13.823-3.577l.149 4.477.089.261c.075 2.239 6.277 5.402 13.813 5.319 7.536-.083 12.285-3.377 13.263-5.241z" fill="#FFCD40"/><path d="M175.553 207.216c-.048-3.126-6.272-5.571-13.902-5.461-7.629.11-13.776 2.733-13.727 5.858.048 3.126 6.272 5.571 13.902 5.461 7.629-.11 13.775-2.733 13.727-5.858z" fill="#E0B310"/><path d="M175.054 207.223c-.047-3.034-6.046-5.407-13.4-5.301-7.354.106-13.277 2.651-13.231 5.684.047 3.034 6.046 5.408 13.4 5.302 7.354-.106 13.278-2.651 13.231-5.685z" fill="#F9EA34"/><path d="M174.554 207.23c-.045-2.942-5.82-5.244-12.898-5.142-7.078.102-12.779 2.569-12.734 5.511.045 2.942 5.82 5.244 12.898 5.142 7.078-.102 12.779-2.569 12.734-5.511z" fill="#C78E08"/><path d="M161.759 202.802c-6.36.107-11.463 2.24-11.748 4.825l.004-.236c-.065-2.709 5.158-4.958 11.753-5.059 6.595-.102 11.852 2.006 11.917 4.715l-.004.235c-.421-2.598-5.563-4.586-11.922-4.48z" fill="#A97607"/><path opacity=".2" d="M158.447 209.681c7.537-.083 13.711-2.783 13.65-5.727l.004-.236c2.1.985 3.49 2.19 3.463 3.602.056 3.18-5.998 5.765-13.649 5.728-7.301.087-13.38-2.155-13.792-5.224 2.447 1.344 6.203 1.891 10.324 1.857z" fill="#A97607"/><path d="M151.072 207.53c.066 2.709 4.857 4.572 10.746 4.456 5.888-.116 10.636-2.139 10.682-4.493l.004-.235c.07 2.474-4.793 4.377-10.682 4.493-5.889.116-10.68-1.747-10.75-4.221z" fill="#C78E08"/><path d="M151.072 207.53c-.009.471.101.826.212 1.182l.005-.236c-.231-.24-.226-.475-.217-.946zm.217.947c.226.475.337.831.803 1.076l.005-.236a1.425 1.425 0 01-.808-.84z" fill="#C78E08"/><path d="M151.976 209.432c.342.596.808.841 1.275 1.086l.004-.236c-.466-.244-.812-.605-1.279-.85zm1.399.735c2.096 1.22 5.026 1.868 8.441 1.82 5.889-.116 10.637-2.139 10.682-4.493l.005-.235c.07 2.473-4.793 4.376-10.682 4.492-3.415.049-6.466-.484-8.446-1.584z" fill="#C78E08"/><path d="M173.721 207.242c-.042-2.757-5.442-4.916-12.061-4.821-6.618.096-11.949 2.408-11.907 5.166.043 2.758 5.442 4.917 12.061 4.821 6.619-.095 11.95-2.408 11.907-5.166z" fill="#E0B310"/><path d="M160.517 206.074l-.004.235c-.005.235.462.48 1.168.494.706.015 1.181-.211 1.186-.446l.004-.236c-.004.236-.48.461-1.186.447-.706-.014-1.172-.259-1.168-.494z" fill="#C78E08"/><path d="M160.516 206.074l-.004.236.115.12-.111-.356zm.116.121l-.005.235.116.12-.111-.355z" fill="#C78E08"/><path d="M160.632 206.195l-.005.235.116.12.004-.235-.115-.12z" fill="#C78E08"/><path d="M160.747 206.315l-.005.235c.236.005.587.13.937.255.706.014 1.182-.212 1.186-.447l.005-.236c-.005.236-.48.462-1.186.447-.236-.005-.706-.014-.937-.254zm1.558-1.265l-.005.235c3.06.062 5.395 1.052 5.488 2.348l.004-.235c-.092-1.297-2.428-2.286-5.487-2.348z" fill="#C78E08"/><path d="M162.305 205.05l-.005.235c1.648.034 3.171.418 4.223.792l.004-.235c-1.052-.375-2.575-.759-4.222-.792z" fill="#C78E08"/><path d="M166.408 205.957l-.005.235c.351.125.467.245.698.485l.004-.235c-.115-.12-.346-.361-.697-.485zm.816.37l-.004.236.462.48.004-.236-.462-.48z" fill="#C78E08"/><path d="M167.567 206.923l-.005.235c.116.12.111.355.107.591l.004-.236c.125-.35.009-.47-.106-.59zm-11.789.703l-.004.236c-.093-1.297 2.399-2.306 5.463-2.48l.005-.235c-3.065.173-5.436 1.067-5.464 2.479z" fill="#C78E08"/><path d="M155.778 207.626l-.004.236c-.093-1.297 2.399-2.306 5.463-2.48l.005-.235c-3.065.173-5.436 1.067-5.464 2.479z" fill="#C78E08"/><path d="M152.364 207.674l-.004.235c.041-2.118 4.193-3.8 9.376-3.93 5.183-.13 9.507 1.488 9.582 3.726l.005-.235c.04-2.119-4.284-3.737-9.582-3.726-5.298.01-9.451 1.692-9.377 3.93z" fill="#C78E08"/><path d="M152.364 207.674l-.004.235c.041-2.118 4.193-3.8 9.376-3.93 2.944-.058 5.76.47 7.509 1.329l.005-.235c-1.75-.859-4.445-1.503-7.509-1.329-5.298.01-9.451 1.692-9.377 3.93z" fill="#C78E08"/><path d="M169.249 205.073l-.005.236c.467.245.933.489 1.164.73l.004-.236c-.346-.36-.812-.605-1.163-.73z" fill="#C78E08"/><path d="M170.412 205.804l-.005.235.693.721.004-.236-.692-.72z" fill="#C78E08"/><path d="M171.105 206.524l-.005.235c.231.24.227.476.222.711l.005-.235c-.116-.12-.227-.476-.222-.711zm-8.768 2.883l-.005.236c.356-.111.711-.221.715-.457l.005-.235c-.12.115-.36.346-.715.456z" fill="#C78E08"/><path d="M162.337 209.407l-.005.236c.356-.111.711-.221.715-.457l.005-.235c-.12.115-.36.346-.715.456zm-1.757-.389l-.005.236c-.004.235.347.36.697.485l.005-.235c-.466-.245-.697-.486-.697-.486z" fill="#C78E08"/><path d="M160.58 209.018l-.005.235.116.121-.111-.356z" fill="#C78E08"/><path d="M160.58 209.018l-.005.235.116.121-.111-.356s.115.12 0 0z" fill="#C78E08"/><path d="M160.694 209.139l-.004.235.115.12.005-.235-.116-.12z" fill="#C78E08"/><path d="M160.81 209.259l-.004.235c.115.12.351.125.351.125l.004-.235c-.115-.12-.115-.12-.351-.125z" fill="#C78E08"/><path d="M156.89 204.94c1.422-.442 3.074-.644 4.841-.726 1.883.039 3.646.192 4.934.571.586.13 1.052.375 1.403.5 1.168.494 1.86 1.215 1.727 2.036-.134.821-.618 1.518-1.689 2.085l-1.426.677c-1.421.443-3.073.645-4.84.726-1.883-.038-3.646-.191-4.934-.57-.586-.13-1.052-.375-1.403-.5-1.168-.494-1.86-1.215-1.727-2.036.014-.706.618-1.518 1.689-2.085.359-.346.835-.572 1.425-.678zm4.377 5.034l.009-.471c-.351-.125-.701-.25-.697-.485.005-.235.48-.461 1.186-.447.706.014 1.172.259 1.168.495-.005.235-.36.346-.715.456l-.009.471c3.064-.174 5.32-1.187 5.463-2.48-.093-1.296-2.428-2.286-5.488-2.348l-.009.471c.351.125.701.25.697.485-.005.236-.48.461-1.186.447-.706-.014-1.172-.259-1.168-.495.005-.235.36-.345.715-.456l.009-.471c-3.064.174-5.32 1.188-5.463 2.48-.023 1.177 2.548 2.17 5.488 2.348z" fill="#F9EA34"/><path d="M153.661 207.583l-.005.236c-.013.706.679 1.426 1.727 2.036.466.245.817.37 1.403.499 1.288.38 3.051.533 4.934.571 1.883.039 3.539-.399 4.841-.726.475-.225 1.066-.331 1.426-.677 1.07-.567 1.79-1.259 1.688-2.085l.004-.235c-.013.706-.617 1.518-1.688 2.085l-1.426.677c-1.421.442-3.073.644-4.841.726-1.882-.038-3.645-.192-4.933-.571-.586-.13-1.053-.374-1.403-.499-1.048-.61-1.741-1.331-1.727-2.037z" fill="#C78E08"/><path d="M153.663 207.582l-.005.235c-.004.236-.009.471.222.711l.004-.235c-.23-.24-.226-.476-.221-.711z" fill="#C78E08"/><path d="M153.883 208.294l-.004.235c.231.24.226.476.577.601l.004-.236c-.35-.125-.581-.365-.577-.6z" fill="#C78E08"/><path d="M154.46 208.894l-.005.235c.231.241.582.365 1.048.61l.005-.235c-.587-.13-.817-.37-1.048-.61z" fill="#C78E08"/><path d="M155.389 209.619l-.005.235c.466.245.817.37 1.403.5 1.288.379 3.051.533 4.934.571 1.883.038 3.539-.399 4.841-.726.475-.226 1.065-.332 1.425-.678 1.071-.567 1.79-1.259 1.689-2.085l.004-.235c-.013.706-.618 1.518-1.688 2.085l-1.426.677c-1.421.442-3.073.644-4.841.726-1.883-.038-3.646-.191-4.933-.571-.351-.124-.937-.254-1.403-.499z" fill="#C78E08"/><path d="M172.975 207.268c.07 2.474-5.034 4.607-11.158 4.718-6.124.112-11.266-1.876-11.336-4.35-.07-2.474 5.034-4.607 11.158-4.718 6.239.008 11.266 1.876 11.336 4.35zm-11.38 4.008l.236.004.235.005c5.183-.13 9.22-1.932 9.141-3.935.041-2.118-4.284-3.737-9.582-3.726-5.182.13-9.455 1.927-9.376 3.93.194 2.123 4.284 3.737 9.346 3.722z" fill="#F9EA34"/><path opacity=".47" d="M156.762 205.527l-.924-.961-1.079 1.038.844-1.042-2.363.423 2.247-.543-2.584-.288 2.704.172-1.514-.855 1.634.74.138-1.057.098 1.062 1.781-.788-1.546.792 2.589.053-2.473.068 1.989.629-2.109-.514.568 1.071z" fill="#fff"/><path opacity=".2" d="M159.043 209.34c6.24.009 11.228-2.245 11.157-4.718l.005-.236c1.749.86 2.908 1.825 2.885 3.002.071 2.474-4.917 4.727-11.157 4.719-6.004-.004-10.915-1.752-11.34-4.115 1.984.864 5.15 1.517 8.45 1.348z" fill="#A97607"/><path d="M152.305 211.486c-5.381-2.259-5.52-6.276-.138-8.907 5.211-2.626 13.924-2.928 19.307-.591 5.384 2.338 5.52 6.276.138 8.908-5.211 2.625-13.924 2.927-19.307.59z" fill="#FFF066"/><path d="M152.29 211.06c-5.378-2.162-5.511-6.019-.126-8.554l19.433 7.96c-5.215 2.529-13.928 2.831-19.307.594z" fill="#FFCD40"/><path d="M153.807 210.401c-4.513-1.889-4.625-5.141-.081-7.268 4.544-2.126 11.89-2.381 16.403-.492 4.512 1.888 4.625 5.141.081 7.267-4.545 2.127-11.891 2.381-16.403.493z" fill="#FFCD40"/><path d="M153.806 210.402c-4.512-1.888-4.625-5.141-.08-7.268l16.654 6.769c-4.715 2.133-12.061 2.387-16.574.499z" fill="#FFA943"/><path d="M169.912 206.284l-1.705.135c-.163.233-.668.477-1.351.501-.855.03-1.719-.243-1.732-.621-.013-.379.657-.781 1.511-.81.683-.024 1.201.11 1.551.325l1.705-.135c-.746-1.792-4.381-3.029-8.475-2.736-4.095.294-7.289 1.919-7.397 3.74l1.706-.134c.163-.233.668-.478 1.351-.502.854-.029 1.719.244 1.732.622.013.378-.657.78-1.511.81-.684.023-1.201-.11-1.551-.325l-1.706.135c.747 1.791 4.381 3.028 8.476 2.735 4.095-.293 7.291-1.843 7.396-3.74z" fill="#FFF066"/><path transform="matrix(-1 0 0 1 385.599 -12)" fill="url(#paint22_linear)" d="M0 0h54v117H0z"/></g><defs><radialGradient id="paint0_radial" cx="0" cy="0" r="1" gradientUnits="userSpaceOnUse" gradientTransform="rotate(-177.514 90.74 106.216) scale(210.609 147.531)"><stop stop-color="#515AA5"/><stop offset="1" stop-color="#243248" stop-opacity="0"/></radialGradient><radialGradient id="paint1_radial" cx="0" cy="0" r="1" gradientUnits="userSpaceOnUse" gradientTransform="matrix(-92.7954 0 0 -92.8891 152.857 140.324)"><stop stop-color="#F9EA34"/><stop offset="1" stop-color="#EBCD24" stop-opacity="0"/></radialGradient><radialGradient id="paint2_radial" cx="0" cy="0" r="1" gradientUnits="userSpaceOnUse" gradientTransform="matrix(-246.88279 32.84472 -10.3306 -77.65173 246.885 263.324)"><stop stop-color="#515AA5"/><stop offset="1" stop-color="#243248" stop-opacity="0"/></radialGradient><radialGradient id="paint3_radial" cx="0" cy="0" r="1" gradientUnits="userSpaceOnUse" gradientTransform="rotate(-173.296 81.233 62.396) scale(14.6803 14.6951)"><stop stop-color="#fff"/><stop offset="1" stop-color="#FFE610" stop-opacity="0"/></radialGradient><radialGradient id="paint4_radial" cx="0" cy="0" r="1" gradientUnits="userSpaceOnUse" gradientTransform="rotate(-179.975 66.178 97.8) scale(110.575 17.2372)"><stop stop-color="#05060A"/><stop offset="1" stop-color="#33425A" stop-opacity="0"/></radialGradient><radialGradient id="paint5_radial" cx="0" cy="0" r="1" gradientUnits="userSpaceOnUse" gradientTransform="rotate(-179.969 130.236 133.802) scale(90.7707 17.2371)"><stop stop-color="#05060A"/><stop offset="1" stop-color="#2B384E" stop-opacity="0"/></radialGradient><radialGradient id="paint6_radial" cx="0" cy="0" r="1" gradientUnits="userSpaceOnUse" gradientTransform="matrix(-12.6529 -.0084 .00195 -2.93398 323.644 268.034)"><stop stop-color="#05060A"/><stop offset="1" stop-color="#2B384E" stop-opacity="0"/></radialGradient><radialGradient id="paint7_radial" cx="0" cy="0" r="1" gradientUnits="userSpaceOnUse" gradientTransform="matrix(-12.6529 -.0084 .00195 -2.934 237.988 293.651)"><stop stop-color="#05060A"/><stop offset="1" stop-color="#2B384E" stop-opacity="0"/></radialGradient><radialGradient id="paint8_radial" cx="0" cy="0" r="1" gradientUnits="userSpaceOnUse" gradientTransform="matrix(-12.6529 -.0084 .00195 -2.934 60.27 201.59)"><stop stop-color="#05060A"/><stop offset="1" stop-color="#2B384E" stop-opacity="0"/></radialGradient><radialGradient id="paint9_radial" cx="0" cy="0" r="1" gradientUnits="userSpaceOnUse" gradientTransform="rotate(-179.962 56.586 102.377) scale(12.6529 2.93397)"><stop stop-color="#05060A"/><stop offset="1" stop-color="#2B384E" stop-opacity="0"/></radialGradient><radialGradient id="paint10_radial" cx="0" cy="0" r="1" gradientUnits="userSpaceOnUse" gradientTransform="rotate(-179.962 98.625 134.385) scale(12.6529 2.93397)"><stop stop-color="#05060A"/><stop offset="1" stop-color="#2B384E" stop-opacity="0"/></radialGradient><radialGradient id="paint11_radial" cx="0" cy="0" r="1" gradientUnits="userSpaceOnUse" gradientTransform="matrix(-12.6529 -.0084 .00195 -2.93397 213.972 247.22)"><stop stop-color="#05060A"/><stop offset="1" stop-color="#2B384E" stop-opacity="0"/></radialGradient><radialGradient id="paint17_radial" cx="0" cy="0" r="1" gradientUnits="userSpaceOnUse" gradientTransform="matrix(0 101.721 -98.3959 0 294.4 210.766)"><stop stop-color="#986BD1"/><stop offset=".383" stop-color="#515AA5"/><stop offset=".682" stop-color="#251538"/></radialGradient><radialGradient id="paint18_radial" cx="0" cy="0" r="1" gradientUnits="userSpaceOnUse" gradientTransform="scale(77.1945 52.8618) rotate(90 -.04 3.582)"><stop stop-color="#986BD1"/><stop offset=".383" stop-color="#515AA5"/><stop offset=".682" stop-color="#251538"/></radialGradient><radialGradient id="paint19_radial" cx="0" cy="0" r="1" gradientUnits="userSpaceOnUse" gradientTransform="scale(94.8844 124.26) rotate(90 .377 1.987)"><stop stop-color="#986BD1"/><stop offset=".383" stop-color="#515AA5"/><stop offset=".682" stop-color="#251538"/></radialGradient><radialGradient id="paint20_radial" cx="0" cy="0" r="1" gradientUnits="userSpaceOnUse" gradientTransform="scale(73.831 112.794) rotate(90 .691 2.736)"><stop stop-color="#986BD1"/><stop offset=".383" stop-color="#515AA5"/><stop offset=".682" stop-color="#251538"/></radialGradient><linearGradient id="paint12_linear" x1="336.099" y1="201" x2="336.112" y2="207.792" gradientUnits="userSpaceOnUse"><stop stop-color="#52658C"/><stop offset="1" stop-color="#33425A"/></linearGradient><linearGradient id="paint13_linear" x1="360.099" y1="120" x2="360.117" y2="129.262" gradientUnits="userSpaceOnUse"><stop stop-color="#52658C"/><stop offset="1" stop-color="#33425A"/></linearGradient><linearGradient id="paint14_linear" x1="324.099" y1="151" x2="324.112" y2="157.792" gradientUnits="userSpaceOnUse"><stop stop-color="#52658C"/><stop offset="1" stop-color="#33425A"/></linearGradient><linearGradient id="paint15_linear" x1="307.099" y1="112" x2="307.112" y2="118.792" gradientUnits="userSpaceOnUse"><stop stop-color="#52658C"/><stop offset="1" stop-color="#33425A"/></linearGradient><linearGradient id="paint16_linear" x1="286.099" y1="152" x2="286.112" y2="158.792" gradientUnits="userSpaceOnUse"><stop stop-color="#52658C"/><stop offset="1" stop-color="#33425A"/></linearGradient><linearGradient id="paint21_linear" x1="286.979" y1="87.343" x2="646.889" y2="-126.91" gradientUnits="userSpaceOnUse"><stop stop-color="#fff"/><stop offset="1" stop-color="#fff" stop-opacity=".5"/></linearGradient><linearGradient id="paint22_linear" x1=".85" y1="117" x2="53.182" y2="117" gradientUnits="userSpaceOnUse"><stop stop-color="#243248"/><stop offset="1" stop-color="#243248" stop-opacity="0"/></linearGradient><clipPath id="clip0"><path fill="#fff" d="M49.599 0h336v305h-336z"/></clipPath></defs></svg>