<svg width="890" height="557" fill="none" xmlns="http://www.w3.org/2000/svg"><path d="M237.871 556.349c121.107 8.38 211.38-69.033 201.63-172.906-9.749-103.873-115.83-194.872-236.937-203.252C81.456 171.811-8.816 249.223.934 353.096c9.75 103.874 115.83 194.873 236.937 203.253z" fill="url(#paint0_radial)"/><path d="M191.12 390.709c63.998 0 115.88-51.933 115.88-115.996 0-64.063-51.882-115.997-115.88-115.997-63.999 0-115.88 51.934-115.88 115.997s51.881 115.996 115.88 115.996z" fill="url(#paint1_radial)"/><path opacity=".5" d="M419.861 511.372c143.284-19.946 208.908-73.482 146.576-119.576-62.332-46.093-229.016-67.29-372.3-47.343C50.853 364.399-14.771 417.935 47.561 464.029c62.332 46.093 229.017 67.29 372.3 47.343z" fill="url(#paint2_radial)"/><path d="M440.145 197.246c.72-.045 1.287-.284 1.268-.534-.019-.249-.618-.415-1.338-.37-.719.044-1.287.283-1.268.533.02.25.619.416 1.338.371z" fill="#fff" opacity=".34"/><path d="M227.378 213.257c.84 1.224 1.557 2.294 2.275 3.363-.84 1.168-1.631 1.919-2.496 2.099-1.435.253-2.724-.743-3.833-3.265-.123-.155-.229-.449-.212-.588l4.266-1.609z" fill="#000"/><path d="M227.157 218.719c.726-.196 1.64-.792 2.496-2.099 7.316 10.71 13.189 18.155 17.773 22.212 1.256 1.273 2.577 1.991 3.637 2.538.123.155.278.033.4.188 3.923 3.698-2.088 8.197-3.605 6.753-3.573-3.094-6.036-6.057-8.026-8.261-8.556-9.73-13.14-16.179-13.89-19.363l.073.571c-1.762.637-4.233 1.332-7.398 1.945.946 3.911 1.852 11.756 3.164 23.309.482 1.886.677 5.005.62 9.079.025.987-.09 1.959-.065 2.947.032 2.115-.106 4.49-.155 7.299l-1.656.931c-.432.09-.897.458-1.672 1.07-.775.613-1.118 1.135-1.322 1.674-1.313.409-1.916.76-2.055.743-.294.107-.571.074-.726.197.122-2.238.147-3.642.229-4.336a80.114 80.114 0 01-4.902-4.938c-.751-.792-1.485-1.723-2.374-2.531-1.101-1.396-2.479-2.824-3.841-4.391-6.827-7.698-10.938-13.388-12.333-17.07l-6.044 2.386 5.938 33.203c-.71.058-1.558.099-2.252.017-.693-.081-1.403-.024-2.096-.106-.383-.326-.905-.669-1.427-1.012.049-.416-.025-.988.024-1.404-.171-2.131-1.109-7.307-2.691-15.373-1.395-6.074-2.52-10.85-3.376-14.328 1.019-.302 1.949-1.037 2.65-2.221 1.012-1.429 1.346-3.079 1.004-4.948l-.106-.294c.726-.196 1.468-.531 2.194-.727 1.9-.621 3.385-1.291 4.576-1.855l.073.572c.147 1.143.62 1.902 1.281 2.261.66.359 1.492.457 2.789.187.71-.057 1.158-.286 1.452-.392l.155-.122c1.696 2.31 4.021 5.257 7.096 8.995 3.336 3.91 7.406 8.751 12.242 14.245-.032-9.291-.929-18.403-2.691-27.334-.301-1.021-.481-1.886-.66-2.752a6.977 6.977 0 001.786-2.041c.889-1.584 1.175-2.817 1.028-3.96-.057-.71-.408-1.314-.62-1.902l9.119-3.431c.122.155.245.31.212.588 1.264 2.4 2.537 3.534 3.972 3.281z" fill="#333"/><path d="M211.782 226.339c-.734-3.322-1.337-5.363-1.623-6.523l3.818-1.38c.35.604.562 1.192.62 1.902.285 1.159-.155 2.515-1.028 3.96a6.98 6.98 0 01-1.787 2.041zm-21.525 4.928l-.212-.587c1.501-.809 2.447-1.683 2.961-2.467.18.866 1.109 2.523 2.79 4.972l-.155.122c-.294.107-.726.196-1.452.393-1.159.286-2.129.171-2.79-.188-.522-.342-.995-1.102-1.142-2.245zm-6.876 2.288c.343 1.869.008 3.519-1.003 4.948-.702 1.184-1.615 1.78-2.651 2.221-.522-2.735-.987-4.76-1.256-6.058 1.436-.253 3.042-.768 4.788-1.266l.122.155z" fill="#000"/><path d="M229.988 219.755c.554.065 1.182.702 1.762 1.755.35.604.946 1.519 1.614 3.004 1.403 2.417 2.716 4.4 3.973 5.674l4.82 5.632a132.437 132.437 0 005.252 5.543l-.154.122c-3.818-3.403-7.219-6.758-10.481-10.097-.506-.481-1.852-2.188-3.883-5.241-2.292-3.224-3.344-5.036-3.556-5.624-.057-.711.114-.972.653-.768z" fill="#666"/><path d="M214.784 227.115l.139.016c.375 1.592.889 3.2 1.37 5.086.318.882.587 2.18.946 3.911.106.293.204 1.853.449 4.555.611 3.168.954 5.037 1.027 5.609-.032.278.074 2.964.073 7.748.082 1.698-.04 3.935-.399 6.989-.4 4.597-.816 6.94-1.11 7.046l-.416-.049-.122-.155-.196-.727c.261-2.22.457-3.886.726-4.98l.604-5.136c.147-1.249.065-2.947-.122-4.939-.155-2.27-.253-3.829-.261-4.956.024-1.404-.074-2.964-.4-4.972-.31-2.147-.53-3.862-.693-4.866-.179-.865-.4-2.58-.971-4.898-.416-2.441-.791-4.033-.644-5.282z" fill="#8C8C8C"/><path d="M195.6 237.243c.587-.213 1.003-.164 1.492.456.261.172.49.621.857 1.086.122.155.35.604.685 1.347.228.449.457.898.718 1.069.367.466.995 1.102 1.835 2.327.84 1.224 1.451 2 1.819 2.465 4.518 4.612 7.414 7.485 8.792 8.914-1.705-1.045-3.377-2.367-5.032-3.828-1.885-1.91-3.279-3.2-4.274-4.302-1.15-.979-2.374-2.53-3.703-4.375l-2.202-2.792c-.735-.931-1.085-1.535-1.208-1.69.017-.139-.089-.432-.089-.432l.31-.245z" fill="#666"/><path d="M183.847 197.305c.824 1.363 1.802 2.604 3.042 4.016-.791.751-1.411 1.241-1.566 1.364-1.378.963-2.553 1.388-3.246 1.307-.694-.082-1.338-.58-2.227-1.388 1.958-2.303 3.279-3.977 3.997-5.299z" fill="#000"/><path d="M185.323 202.685c.155-.123.637-.629 1.567-1.364a102.494 102.494 0 007.748 8.228c4.29 4.163 7.895 6.979 10.693 8.293 3.874 1.722.628 5.421-1.264 4.776-.677-.22-3.181-1.64-7.202-4.505-4.805-3.379-9.021-6.971-12.928-10.807l-17.929 18.578 1.419 38.16c-1.525-.179-2.928-.203-4.103.222-.587.212-1.036.441-1.501.808-.122-.155-.399-.187-.538-.204.049-.416-.041-.849.008-1.265.115-3.364.058-8.859-.171-16.484-.212-7.765-.448-14.125-.587-18.925 2.195-.728 3.361-2.279 3.899-4.467.302-1.372.31-2.637.041-3.935-.089-.433-.179-.866-.424-1.176 2.618-1.944 5.938-5.071 9.959-9.383 2.423-2.67 4.364-4.834 5.995-6.753.751.791 1.534 1.306 2.227 1.387.677.22 1.713-.221 3.091-1.184z" fill="#333"/><path d="M164.337 219.777c.285 1.16.277 2.425-.041 3.936-.4 2.204-1.705 3.739-3.899 4.466-.074-2.963-.351-5.388-.416-7.225 1.158-.286 2.365-.989 3.915-2.214.245.311.335.743.441 1.037z" fill="#000"/><path d="M186.669 204.391c.017-.139.188-.4.188-.4.693.081 1.354.44 1.949 1.355.367.465.979 1.24 1.697 2.31.244.31.872.947 1.884 1.91.75.792 1.378 1.428 1.745 1.894.367.465.995 1.102 2.039 1.787 1.028.825 1.811 1.339 2.056 1.649.383.326 1.288.996 2.977 2.179 1.705 1.045 2.749 1.731 2.855 2.024-2.309-.693-4.291-1.77-6.224-3.264-1.778-1.616-3.189-2.767-4.078-3.575-.905-.67-2.3-1.959-4.29-4.163-1.852-2.188-2.83-3.429-2.798-3.706zm-6.37.377l.139.016c-2.243 3.536-4.062 5.855-5.49 7.235-.636.629-2.063 2.009-4.298 4.279-1.925 2.025-3.026 3.021-3.026 3.021-.277-.032-.4-.187-.4-.187s.016-.139-.122-.155l.049-.417c.049-.416 1.166-1.551 3.23-3.56 2.063-2.009 3.32-3.128 3.475-3.25 2.047-1.87 3.164-3.006 3.352-3.406.685-1.045 1.664-2.196 3.091-3.576z" fill="#666"/><path d="M227.336 248.29c-.807 3.283-1.117 5.92-.897 7.634-.016.139.09.433.073.572.302 1.02.465 2.025.661 2.751-4.404 3.985-12.789 8.347-24.47 14.432-10.489 5.521-35.782 11.413-36.092 11.658-2.162.45-4.339 1.038-6.501 1.488-8.067.459-12.879.737-14.298.852-.848.041-1.697.082-2.684.107-.195-3.119 3.337-22.404 9.405-28.586.31-.245 28.311-.472 29.021-.529.848-.041 1.835-.066 2.684-.107 1.557-.098 3.254-.18 4.967-.401 5.106-.385 10.399-1.169 15.587-2.248.416.049 19.902-6.667 22.544-7.623z" fill="#59569B"/><path d="M145.869 302.74c-.335-3.135-2.569-12.826-2.708-15.234.848-.041 1.713-.221 2.684-.107 1.557-.098 6.353-.238 14.298-.852 1.297-.27 6.933-1.577 11.998-2.811 0 0-.139-.016-.122-.155 4.355-1.177 8.866-2.476 13.132-4.085l.277.032c5.302-2.05 12.814-4.966 12.969-5.089 1.762-.637 3.499-2.262 5.277-3.038 11.411-4.991 19.16-8.724 23.564-12.709.212.588.302 1.021.392 1.453.073.572 1.264 2.4 1.827 3.592-12.798 14.397-52.251 30.726-53.287 31.167l-6.721 2.165-23.58 5.671z" fill="#6561A3"/><path d="M145.624 302.43s44.355-11.391 86.125-40.253c.579 1.053-1.827 3.585-1.02 5.087.596.914 1.526 2.571 2.137 3.347-1.598 1.641-27.071 23.413-66.312 40.33-.743.335-1.208.703-1.346.686-.294.107-.726.196-1.02.303a98.544 98.544 0 01-6.533 1.765c-1.158.286-3.597.702-7.023 1.144-.139-.016-.139-.016-.432.09-1.705-3.437-3.418-8-4.576-12.499z" fill="#48438E"/><path d="M150.061 314.913c.138.016.138.016 0 0l.016-.139c.139.016.294-.107.432-.09 3.426-.442 5.865-.859 7.023-1.145 11.917-2.117 51.109-25.794 54.779-28.318 3.671-2.523 13.94-9.759 15.473-10.845 1.583-1.503 3.181-3.144 4.625-4.663.718 1.069 1.452 2 2.202 2.792 2.496 2.685 4.755 3.795 7.056 3.362.293-.106 1.109.13 1.313-.409-5.066 13.195-65.188 57.068-65.188 57.068s-5.293 3.177-5.432 3.16c-10.065-.479-19.73-12.732-22.299-20.773z" fill="#3D3081"/><path d="M166.635 303.07c.726-.196 1.346-.686 1.876-1.608.187-.4.53-.923.718-1.323.644-1.894-2.439-6.76-3.32-6.441-.449.229-.758.474-1.191.563.645.498.979 1.241 1.158 2.107.18.865-.399 2.204-1.427 3.772l-2.839.229a4.254 4.254 0 001.452 2c.261.171.661.359.922.531.799.375 1.77.489 2.651.17zm45.571-51.633l-1.517.947c-.432.09-.897.458-1.672 1.07-.636.629-1.117 1.135-1.321 1.674-.408 1.078-.416 2.344-.147 3.642.285 1.159.726 2.196 1.599 3.143.261.171.505.481.766.653 1.55 1.167 3.043 1.624 4.772 1.264 1.435-.253 3.091-1.184 4.951-2.654 2.169-1.715 3.246-3.699 3.197-5.675.049-.417-.057-.711-.147-1.143-.179-.866-.897-1.935-2.169-3.07-.261-.171-.383-.326-.644-.498-.783-.514-1.721-.905-2.847-.897a11.61 11.61 0 00-3.01.49c-.897.458-1.501.809-1.811 1.054zm3.043 1.624l1.925.367.473.759c.359 1.731-.237 3.209-1.477 4.189-.929.735-1.843 1.331-3.001 1.617-.743.335-1.297.27-1.958-.089-.383-.327-.612-.776-.685-1.347-.179-.866-.098-1.56.555-2.327.514-.784 1.289-1.397 2.202-1.993.155-.122.449-.228.604-.351.326-.384.775-.612 1.362-.825z" fill="#F14654"/><path d="M213.748 253.87c.465-.368.913-.597 1.501-.809l1.925.367.473.759c.359 1.731-.237 3.209-1.477 4.189-.93.735-1.843 1.331-3.001 1.617-.743.335-1.297.27-1.958-.089-.383-.327-.612-.776-.685-1.347-.179-.866-.098-1.56.555-2.327.514-.784 1.288-1.397 2.202-1.993.016-.139.155-.122.465-.367z" fill="#F7C131"/><path d="M224.098 257.901c.375 1.592-.669 3.298-3.026 5.413-2.186 1.854-4.013 3.047-5.897 3.529-1.868.343-3.271.319-4.454-.383-1.06-.547-1.639-1.6-1.908-2.898-.09-.433-.025-.988.334-1.649.261.171.506.481.767.653 1.55 1.167 3.042 1.624 4.772 1.264 1.435-.253 3.091-1.184 4.951-2.654 2.169-1.715 3.246-3.7 3.197-5.675.644.498 1.117 1.257 1.264 2.4z" fill="#4A1B6C"/><path d="M226.423 256.063c-.016.139.09.433.073.572.302 1.02.465 2.024.661 2.751a9.55 9.55 0 01.391 1.453c.074.572.531 1.47 1.093 2.661.579 1.054 1.281 2.262 2.088 3.764.596.914 1.191 1.828 1.664 2.588a21.35 21.35 0 002.202 2.791c2.496 2.686 4.756 3.796 7.056 3.363.293-.107.726-.196 1.313-.409.31-.245.497-.645.856-1.306.155-.123.188-.4.221-.678.611-1.617.628-4.148.155-7.299-.041-.849-.237-1.576-.416-2.441-.555-2.458-1.403-4.809-2.806-7.225-.473-.759-1.068-1.674-1.68-2.449-3.515-4.776-6.631-6.971-9.347-6.587-1.297.27-2.178.588-2.765.801-.808 3.282-1.102 5.781-.759 7.65zm3.222-4.687c.016-.139.171-.261.188-.4a3.267 3.267 0 011.084-.858c1.314-.408 2.774.326 4.658 2.237 1.884 1.91 3.425 4.342 4.747 7.453 1.215 2.816 1.924 5.151 1.924 7.543-.032.278.09.433.057.711.139 2.408-.44 3.747-1.753 4.156-.433.09-1.004.163-1.403-.025-.955-.252-2.121-1.093-3.238-2.35-1.746-1.894-3.426-4.343-4.747-7.453-.212-.588-.441-1.037-.653-1.625-.546-1.331-.815-2.629-1.084-3.927-.164-1.004-.343-1.869-.245-2.702-.008-1.127.106-2.099.465-2.76z" fill="#E3D7E5"/><path d="M229.147 254.413c.008-1.265.123-2.237.498-3.037.954.253 1.982 1.077 3.254 2.212a23.077 23.077 0 014.608 7.437c1.338 2.971 2.015 5.584 2.015 7.976l-.033.278c-.008 1.265-.122 2.237-.342 2.914-.955-.252-2.121-1.093-3.238-2.35-1.746-1.894-3.426-4.343-4.747-7.453-.212-.588-.441-1.037-.653-1.625-.546-1.331-.815-2.629-1.085-3.927-.195-.726-.236-1.575-.277-2.425z" fill="#34134A"/><path d="M232.883 253.727c-1.256-1.274-2.3-1.959-3.254-2.212.016-.139.171-.261.187-.4a3.28 3.28 0 011.085-.858c1.313-.408 2.773.326 4.657 2.236 1.885 1.91 3.426 4.343 4.747 7.454 1.216 2.816 1.925 5.151 1.925 7.543-.032.278.09.433.057.71.139 2.409-.44 3.748-1.753 4.156-.433.09-1.004.164-1.403-.024.375-.8.489-1.772.342-2.915l.033-.277c0-2.392-.677-5.005-2.015-7.976-1.182-3.094-2.846-5.682-4.608-7.437z" fill="#48438E"/><path d="M213.927 276.265c1.158-.286 2.129-.172 3.05.358.4.188.661.359.906.67 1.011.963 1.819 2.465 2.283 4.49.555 2.457.049 4.368-1.533 5.87-.963 1.013-2.153 1.576-3.744 1.952-1.59.376-2.806-.048-3.801-1.15-.122-.155-.367-.465-.595-.914l2.667.032c4.608-2.132 4.641-4.802.359-7.838 0 0-.139-.017-.122-.155-1.004.163-2.146.31-3.426.441.236-.816.595-1.478 1.077-1.984.807-.89 1.721-1.486 2.879-1.772zm-46.37-20.508c-1.68-.056-3.115.197-4.257.344-.139-.016-.294.106-.433.09-1.59.376-2.781.94-3.727 1.813-.465.368-.808.89-.995 1.291-.53.922-.645 1.894-.359 3.053-.017.139.106.294.09.433.587 2.18 2.626 3.967 5.978 5.346s6.264 1.722 9.152 1.076c2.022-.466 3.646-1.119 4.73-1.977l.155-.122c1.273-1.258 1.868-2.736 1.403-4.76-.252-1.437-.97-2.507-2.12-3.486-.384-.327-.906-.67-1.428-1.012-.261-.172-.538-.204-.66-.359-1.199-.563-3.385-1.102-6.664-1.909-.155.122-.571.073-.865.179zm-3.319 3.128c.448-.229.897-.457 1.468-.531.432-.09 1.435-.253 2.993-.352 1.077.408 2.17.678 2.969 1.053.4.188.799.375 1.06.547 1.583.889 2.439 1.975 2.708 3.273.163 1.004-.473 1.633-1.908 1.886-1.159.286-3.083-.081-5.669-.807-2.985-.913-4.429-1.787-4.731-2.807-.195-.727.025-1.404.645-1.894.293-.107.31-.245.465-.368z" fill="#F14654"/><path d="M163.928 259.13c.155-.123.171-.261.31-.245.448-.229.897-.457 1.468-.531.432-.09 1.436-.253 2.993-.352 1.077.408 2.17.677 2.969 1.053.4.188.8.375 1.061.547 1.582.889 2.438 1.975 2.708 3.273.163 1.004-.474 1.633-1.909 1.886-1.158.286-3.083-.081-5.669-.807-2.985-.913-4.429-1.787-4.73-2.807-.058-.711.163-1.388.799-2.017z" fill="#F7C131"/><path d="M156.954 267.035c-.18-.866-.065-1.837.497-3.037.033-.278.359-.662.718-1.323.588 2.18 2.627 3.967 5.979 5.346 3.352 1.379 6.264 1.722 9.151 1.076 2.023-.466 3.646-1.119 4.731-1.977l.139.016c-.269 1.095-.816 2.156-1.64 3.185-1.288 1.396-2.667 2.36-4.241 2.597-2.3.433-5.196-.048-8.825-1.459-4.217-1.2-6.15-2.693-6.509-4.424z" fill="#4A1B6C"/><path d="M155.037 277.363c.432-.09.971.114 1.321.718.506.482.702 1.208 1.004 2.229.285 1.159.171 2.131-.465 2.76-.343.522-.808.89-1.379.963-.432.09-.97-.114-1.476-.595l-.245-.311.971.115c1.688-1.209 1.9-3.014.758-5.259-.416-.048-.693-.081-1.093-.269.155-.122.31-.245.604-.351z" fill="#760A08"/><path d="M156.497 278.098c-.49-.621-.889-.808-1.322-.718-.293.106-.448.228-.742.334l-.277-.032c-.538-.204-1.093-.269-1.509-.318.326-.384.652-.768.962-1.013.62-.49 1.224-.841 1.95-1.037 1.003-.164 1.941.228 2.814 1.175.734.931 1.329 1.845 1.46 3.127.375 1.592.073 2.963-.8 4.409-.718 1.322-1.786 2.041-3.222 2.294-1.158.286-2.079-.244-2.92-1.469-.611-.775-.946-1.518-1.109-2.522l.123.155 1.892.645.138.016c.139.016.261.171.245.31.645.498 1.044.686 1.476.596.571-.074 1.036-.441 1.379-.964.514-.784.612-1.617.465-2.76-.302-1.02-.636-1.763-1.003-2.228zm6.623 13.021c.726-.196 1.542.04 2.308.693l1.15.98c1.379 1.428 2.186 2.93 2.561 4.522.09.433.163 1.004.115 1.421.089.433.04.849-.009 1.265-1.125.009-2.235-.122-3.083-.081-.554-.065-.832-.097-1.264-.008.359-.661.457-1.494.139-2.375-.18-.866-1.191-1.829-2.896-2.874l-2.643.956c-.024-.988.058-1.682.555-2.327.171-.261.481-.506.653-.767.652-.768 1.549-1.225 2.414-1.405zm27.406-25.063c-2.887.646-5.285 1.912-7.039 3.675-1.925 2.026-2.741 4.181-2.17 6.5.375 1.592 1.493 2.849 3.507 3.649.139.016.4.187.539.204.538.204 6.386 1.876 12.887-4.396.155-.122.188-.4.359-.661.718-1.323 1.003-2.556.734-3.854-.253-1.437-1.509-2.71-3.768-3.82-2.259-1.11-3.891-1.583-5.049-1.297zm3.964 4.547c.09.432-.114.971-.473 1.633l-.155.122c-.481.506-1.118 1.135-2.015 1.593-.587.212-1.468.531-2.471.694l-2.871.507c-1.403-.024-2.186-.538-2.455-1.836-.376-1.592.187-2.793 1.549-3.618.759-.473 2.072-.882 4.079-1.209 1.297-.27 2.3-.433 2.977-.213.954.253 1.566 1.029 1.835 2.327z" fill="#F14654"/><path d="M192.794 268.293c.954.252 1.443.873 1.712 2.171.09.433-.114.972-.473 1.633l-.155.122c-.481.507-1.117 1.136-2.014 1.593-.588.212-1.469.531-2.472.694l-2.887.646c-1.403-.024-2.186-.538-2.455-1.836-.375-1.592.187-2.793 1.55-3.618.758-.473 2.071-.882 4.078-1.209 1.435-.253 2.422-.278 3.116-.196z" fill="#F7C131"/><path d="M219.278 257.053c.513-.784.856-1.307.75-1.601.016-.139-.106-.294-.106-.294.139.017.277.033.4.188-.058 1.682-.327 2.776-.547 3.454-.718 1.323-2.096 2.286-4.396 2.719-.433.09-.694-.081-.783-.514-.074-.571.114-.971.995-1.29 1.174-.425 2.055-.743 2.381-1.127.327-.384.808-.89 1.306-1.535zm-56.297 7.735c-1.704-1.044-2.683-2.285-2.919-3.861-.343-1.869.122-2.237 1.378-.964a8.714 8.714 0 001.109 2.523c.351.604 1.24 1.412 2.855 2.024 2.259 1.11 3.597 1.689 3.98 2.016-2.528-.016-4.576-.538-6.403-1.738zm28.883 11.416c-.261-.171-.384-.326-.367-.465-.09-.433.823-1.029 2.601-1.805.155-.122.604-.351 1.24-.98.62-.49 1.191-.564 1.607-.515-.424 1.217-.954 2.14-1.435 2.646-.637.629-1.673 1.07-2.831 1.356-.416-.049-.693-.082-.815-.237zm-36.974.016c.636-.629 1.313-.408 2.08.245.628.636.995 1.102 1.068 1.673.106.294.074.572-.081.694l-.139-.016c-.212-.588-.718-1.07-1.639-1.6-.938-.392-1.338-.579-1.322-.718l.033-.278zm8.532 15.919c.122.155.122.155 0 0 .709-.057 1.525.179 2.43.849.767.653 1.134 1.118 1.208 1.69.195.726.024.987-.27 1.094-.138-.017-.293.106-.277-.033-.228-.449-.856-1.086-1.745-1.894-.889-.808-1.395-1.289-1.395-1.289l.049-.417zm48.335-14.159l.172-.261c1.019-.303 1.868-.344 2.512.154.383.327.767.653 1.378 1.429l.269 1.298-.554-.065c-.245-.311-.351-.605-.457-.898-.245-.311-.351-.605-.612-.776-.122-.155-.538-.204-1.354-.441-.677-.22-1.231-.285-1.354-.44z" fill="#fff"/><path d="M174.449 282.037l-.032.278-.131 1.11c-2.137 1.438-3.956 1.364-5.301-.342.049-.416-.041-.849-.025-.988l.016-.138.506-1.911s.139.016.155-.122c0 0 .62-2.883 1.583-8.68.53-3.314.873-6.229 1.028-8.744.334-4.041.514-7.96.4-11.773l-25.987-6.151c-4.119 9.929-6.542 17.384-7.268 22.364 3.548-.286 5.987-.703 7.455-1.234l.677.22c-.587.213-.913.596-.995 1.29l-.065.556c1.158 2.106 2.651 2.563 4.388.938a6.22 6.22 0 001.289-1.397l2.936 6.115 9.991 21.438 1.248 2.538c-.905 1.723-1.868 2.736-2.749 3.054-.881.319-2.055.744-2.389.001-1.248-2.539-4.649-8.286-4.649-8.286l-7.675-14.833.016-.139.016-.139c-.089-.432-.318-.881-.408-1.314l-1.794-3.87c-4.225.067-7.063.296-8.515.688-.702 1.184-1.159 2.678-1.509 4.466-.245 2.082-.579 3.731-1.004 4.948-.677 2.172-1.362 5.609-2.349 10.418-.987 4.81-1.958 9.48-2.945 14.289 0 0-.979 10.72-6.443 9.374-3.418-.824-2.716-4.4-2.137-5.739 1.346-3.078 2.667-7.145 4.396-12.289a213.471 213.471 0 002.048-6.654c.204-.539.253-.955.456-1.494.694-2.311 1.012-3.821 1.232-4.499 1.615-6.565 2.708-11.08 3.263-13.407-9.592.28-16.207.346-19.739.494-.611 4.009-2.333 12.672-5.302 25.972-1.819 9.496-3.279 18.33-4.38 26.503-.523 4.442-1.028 8.745-1.224 12.802-.114.972-1.24 3.373-1.999 3.846-.758.474-1.345.686-1.933.899-.587.212-1.59.376-2.87.507-1.281.131-1.722-.906-1.338-2.972.334-1.649 1.036-5.225 2.21-10.435 1.395-5.886 2.766-12.761 4.218-20.33 3.116-16.942 4.706-29.279 4.495-37.043.416.049.709-.057 1.003-.164 1.884-.482 3.328-2.001 4.143-4.156 8.263.267 16.158.07 23.377-.348 1.215-4.36 3.132-12.296 6.044-23.915l.155-.123.123.155c.35.605 1.598.751 3.621.285 2.007-.327 3.124-1.462 3.059-3.299.041-1.543 0-2.392.032-2.669l.017-.139c.122.155.954.253 2.447.71 1.492.456 5.326 1.329 11.468 2.895 6.141 1.567 10.652 2.66 13.392 3.263-.522 2.05-.717 3.715-.31 5.03.514 1.608 1.509 2.71 3.263 3.338.938.392 1.908.506 2.879.62-.628 1.756-1.901 7.798-3.94 17.971-.13 1.11-.383 2.066-.652 3.16-.335 1.649-.686 3.437-.914 5.38.196.727-.008 1.266-.074 1.821z" fill="#333"/><path d="M174.181 244.856c.539.204 1.232.286 1.787.351l4.543 7.992s-.155.123-.204.539c-1.11-.13-2.08-.245-2.88-.62-1.753-.628-2.887-1.747-3.262-3.339-.563-1.191-.506-2.873.016-4.923zm-27.308-6.868c.106.294-.008 1.265-.049 2.808.066 1.837-1.035 2.834-3.058 3.299-2.023.466-3.271.319-3.622-.285l-.122-.155 6.68-5.406c-.122-.155.033-.278.171-.261zm5.546 29.358a6.19 6.19 0 01-1.289 1.396c-1.876 1.609-3.246 1.307-4.388-.938l.066-.555c.065-.555.546-1.061.995-1.29l4.616 1.387zm-46.239 4.696c-.293.106-.726.196-1.003.163-.065-1.837-.179-3.257-.449-4.555 1.958.089 3.777.162 5.596.235-.955 2.14-2.382 3.52-4.144 4.157z" fill="#000"/><path d="M164.686 296.931c-.816-.237-1.884-1.91-3.499-4.914-2.357-5.062-3.817-8.188-4.502-9.535-1.036-1.951-2.105-3.625-2.912-5.127-1.631-2.865-2.528-4.8-2.724-5.527-.302-1.02-.22-1.714.212-1.804.155-.123.294-.106.294-.106l-.017.138c.889 3.201 2.7 6.932 5.587 11.07.49.621 1.933 3.886 4.576 10.107.457.898 1.036 1.951 1.704 3.437.196.726.425 1.175.792 1.641.571-.074.538.204.489.62zm12.716-42.409c.09.433-.008 1.266-.342 2.915-.286 1.233-.4 2.204-.759 2.866-.187.4-.318 1.51-.652 3.16-.18 1.526-.294 2.498-.449 2.621-.188.4-.351 1.788-.718 3.715-.228 1.943-.514 3.176-.873 3.837-.187.4-.334 1.649-.579 3.731-.245 2.082-.53 3.315-.718 3.715-.065-1.837.066-2.947.131-3.502.057-1.682.342-2.915.734-3.854.359-.661.522-2.049.783-4.27l.441-3.748c.432-2.482.677-4.564 1.011-6.213.359-3.054.832-4.687 1.419-4.899.155-.123.31-.245.571-.074-.138-.016-.138-.016 0 0z" fill="#fff"/><path d="M217.834 284.886l-.033.277c-.897 5.242-3.263 6.23-7.235 2.949l-1.125-2.384-3.042-6.408-8.442-17.878-1.395 1.102a39.154 39.154 0 01-4.633 3.536c-.603.351-1.533 1.086-2.912 2.05-5.53 3.994-9.836 7.146-12.92 9.457-9.176 7.505-14.102 11.148-14.812 11.205-.237 3.209.938 12.353 3.229 27.538.792 4.033 1.786 9.92 3.124 17.676.196.726.253 1.437.449 2.163.791 4.033 2.666 9.601-1.395 10.671-5.824 1.708-4.796-4.644-5.082-10.588-.326-6.793-1.622-16.092-3.751-27.881-1.444-8.05-2.422-14.075-2.952-17.936a25.983 25.983 0 01-.514-4.001c.171-.261 1.411-1.241 3.842-2.785.138.017.155-.122.293-.106 1.207-.702 4.429-2.997 9.788-6.73 5.359-3.732 10.147-7.391 14.242-11.131.464-.367.946-.874 1.411-1.241 1.582-1.503 2.667-2.36 2.993-2.744 1.428-1.38 2.235-2.27 2.545-2.515 1.721-1.486 3.148-2.867 4.421-4.124.962-1.013 1.786-2.042 2.577-2.793l.278.033c-.033.277.04.849-.025 1.404.253 1.437.677 2.612 1.289 3.388.489.62.873.947 1.411 1.151.538.204 1.264.008 2.039-.605.62-.49 1.427-1.38 2.3-2.825l.514-.784c.09.433.163 1.004.481 1.886.302 1.02.726 2.196 1.256 3.665.759 1.919 1.607 4.27 2.822 7.087.351.604.547 1.33.759 1.918 2.43 5.633 4.714 10.123 6.818 13.747.196.727.791 1.641 1.387 2.556z" fill="#333"/><path d="M204.034 253.994c-.171.262-.342.523-.53.923-.873 1.445-1.696 2.474-2.471 3.087-.775.612-1.64.792-2.317.572-.538-.204-1.06-.547-1.533-1.306-.734-.931-1.281-2.262-1.501-3.976-.057-.71-.13-1.282-.081-1.698 1.215.424 2.569.865 4.233 1.06l1.664.196c.832.098 1.802.212 2.789.187-.31.245-.342.523-.253.955z" fill="#000"/><path d="M213.87 282.731c-.767-.653-1.272-1.134-1.656-1.461-1.101-1.396-2.365-3.796-3.915-7.355-1.443-3.266-2.079-5.029-2.202-5.184a246.992 246.992 0 00-2.691-5.805c-1.305-3.249-1.803-4.996-1.476-5.38.293-.106.448-.228.587-.212.261.171.473.759.93 1.657.44 1.037.652 1.625.791 1.641 0 0 .546 1.331 1.484 4.115 1.077 2.8 1.607 4.269 1.835 4.718.106.294.335.743.791 1.641.107.294.229.449.213.588-.049.416.04.849.407 1.314.245.311.579 1.053 1.297 2.123.245.31.563 1.192.954 2.645.669 1.486 1.354 2.833 2.333 4.073.122.156.383.327.628.637s.612.776.963 1.38c-.139-.017-.522-.343-1.273-1.135z" fill="#fff"/><path d="M194.01 256.756c.155-.123.603-.351.897-.457l.122.155c-.497.645-1.77 1.902-3.695 3.928-2.234 2.27-3.817 3.772-4.592 4.385l-8.23 6.631c-.155.123-1.378.964-3.687 2.663-2.601 1.804-4.445 3.136-5.685 4.116-2.014 1.592-5.114 4.042-9.16 7.366l-1.394 1.102c-.914.597-1.623.654-1.852.205l-.244-.31.016-.139.465-.368c1.207-.702 2.12-1.298 2.724-1.649 1.101-.997 2.047-1.87 2.529-2.377 1.549-1.225 3.27-2.711 5.424-4.287 1.549-1.225 4.135-2.891 7.667-5.431 3.515-2.401 6.272-4.329 8.287-5.921.62-.49 2.651-2.222 5.693-5.382 3.132-2.727 4.699-4.091 4.715-4.23z" fill="#B3B3B3"/><path d="M214.216 276.611c10.061 1.182 19.176-6.023 20.36-16.094 1.184-10.07-6.012-19.193-16.073-20.375-10.06-1.183-19.176 6.022-20.359 16.093-1.184 10.071 6.012 19.193 16.072 20.376z" fill="url(#paint3_radial)"/><path opacity=".52" d="M188.5 359c55.505 0 100.5-10.521 100.5-23.5S244.005 312 188.5 312 88 322.521 88 335.5 132.995 359 188.5 359z" fill="url(#paint4_radial)"/><path opacity=".52" d="M348.5 449c45.564 0 82.5-10.521 82.5-23.5 0-12.978-36.936-23.5-82.5-23.5-45.563 0-82.5 10.522-82.5 23.5 0 12.979 36.937 23.5 82.5 23.5z" fill="url(#paint5_radial)"/><path opacity=".52" d="M427.5 430c6.351 0 11.5-1.791 11.5-4s-5.149-4-11.5-4-11.5 1.791-11.5 4 5.149 4 11.5 4z" fill="url(#paint6_radial)"/><path opacity=".52" d="M320.5 462c6.351 0 11.5-1.791 11.5-4s-5.149-4-11.5-4-11.5 1.791-11.5 4 5.149 4 11.5 4z" fill="url(#paint7_radial)"/><path opacity=".52" d="M98.5 347c6.351 0 11.5-1.791 11.5-4s-5.149-4-11.5-4-11.5 1.791-11.5 4 5.149 4 11.5 4z" fill="url(#paint8_radial)"/><path opacity=".52" d="M164.5 351c6.351 0 11.5-1.791 11.5-4s-5.149-4-11.5-4-11.5 1.791-11.5 4 5.149 4 11.5 4z" fill="url(#paint9_radial)"/><path opacity=".52" d="M269.5 431c6.351 0 11.5-1.791 11.5-4s-5.149-4-11.5-4-11.5 1.791-11.5 4 5.149 4 11.5 4z" fill="url(#paint10_radial)"/><path opacity=".52" d="M290.5 404c6.351 0 11.5-1.791 11.5-4s-5.149-4-11.5-4-11.5 1.791-11.5 4 5.149 4 11.5 4z" fill="url(#paint11_radial)"/><circle cx="462.5" cy="346.5" r="5.5" fill="url(#paint12_linear)"/><circle cx="486.5" cy="267.5" r="7.5" fill="url(#paint13_linear)"/><circle cx="450.5" cy="296.5" r="5.5" fill="url(#paint14_linear)"/><circle cx="400.5" cy="236.5" r="5.5" fill="url(#paint15_linear)"/><circle cx="412.5" cy="297.5" r="5.5" fill="url(#paint16_linear)"/><path d="M413.971 346.995c0 1.397.14 2.655.14 3.913-1.257.559-2.374.698-3.072.419-1.396-.559-1.815-1.957-1.535-4.612v-.559l4.467.839z" fill="#2F3563"/><path d="M411.039 351.327c.698.279 3.072.978 3.072-.419 1.815 36.476 17.451 69.737 17.451 70.017 1.257 5.031-5.863 5.73-6.422 3.773-1.256-4.332-14.938-45.7-16.195-72.113l-.14.419c-1.675-.279-4.048-.978-6.98-2.096-1.257 3.633-4.328 10.621-9.215 20.683-.558 1.817-1.954 4.333-4.049 7.827-.419.699-.977 1.537-1.535 2.376-1.117 1.677-2.374 3.633-3.91 5.869h-1.815c-.418-.139-.977 0-1.815 0-.837.14-1.535.28-1.954.699a108.88 108.88 0 00-1.955-.419c-.279-.14-.419-.14-.698-.28 1.117-1.817 1.955-2.935 2.374-3.494-.419-1.816-.978-3.913-1.536-6.428-.279-.979-.419-2.097-.698-3.215-.279-1.677-.698-3.494-.978-5.59-1.675-9.643-2.233-16.491-1.535-20.264l-6.143-1.118-12.007 30.187c-.698-.42-1.257-.699-1.955-1.118-.558-.42-1.117-.699-1.675-1.118-.14-.559-.279-.979-.698-1.538.279-.419.558-.698.698-1.118.977-1.956 2.792-6.568 5.584-13.975 1.815-5.59 3.351-10.063 4.468-13.417.977.28 2.094.14 3.351-.419 1.536-.699 2.653-1.817 3.351-3.494v-.279c.698.139 1.396.279 2.094.559 1.815.419 3.49.698 4.747.698l-.14.42c-.419.978-.419 1.817 0 2.515.419.699.977 1.118 2.094 1.538.559.279 1.117.419 1.396.419h.14c.279 2.655.698 6.429 1.257 10.901.698 4.891 1.675 10.901 2.792 17.888 4.607-7.686 8.516-15.512 11.588-23.758.279-.978.558-1.817.837-2.655.699 0 1.536-.28 2.514-.839 1.535-.838 2.513-1.677 2.792-2.795a4.312 4.312 0 00.419-1.817l9.214 1.677v.559c0 2.795.419 4.193 1.815 4.752z" fill="url(#paint17_radial)"/><path d="M394.565 349.79c.977-3.075 1.675-5.171 1.955-6.15l3.769.699c0 .699-.139 1.258-.419 1.817-.419 1.118-1.396 1.957-2.792 2.795-.838.559-1.815.839-2.513.839zm-20.244-6.848l.139-.42c1.676.14 2.932 0 3.63-.419-.279.839-.419 2.655-.139 5.45h-.14c-.279 0-.698-.139-1.396-.419-1.117-.419-1.815-.978-2.094-1.537-.279-.839-.279-1.677 0-2.655zm-6.702-1.538c-.698 1.677-1.675 2.795-3.351 3.494-1.256.559-2.234.699-3.351.419.978-2.515 1.536-4.472 2.095-5.59 1.256.559 2.792.979 4.607 1.398v.279z" fill="#2F3563"/><path d="M412.715 353.563c.418.279.558 1.118.558 2.236 0 .699 0 1.677-.14 3.214-.139 2.656 0 4.892.419 6.709l1.117 7.127c.279 1.537.698 3.913 1.536 7.267h-.14c-1.396-4.751-2.513-9.223-3.49-13.556-.14-.699-.419-2.795-.558-6.289-.28-3.773-.28-5.869 0-6.428.139-.56.418-.56.698-.28zm-16.196-1.677l.14.14c-.419 1.537-.977 3.074-1.396 4.751-.279.839-.698 2.097-1.257 3.634-.139.28-.698 1.537-1.954 4.053-1.117 2.935-1.815 4.612-1.955 5.031-.14.28-1.396 2.376-3.909 6.429-.838 1.397-2.094 3.214-3.77 5.45-2.652 3.634-4.188 5.311-4.467 5.171-.14 0-.28-.14-.28-.279v-.14l.28-.699c1.396-1.677 2.373-2.935 3.071-3.773a115.563 115.563 0 003.072-3.913c.698-.979 1.535-2.376 2.373-4.193.977-1.957 1.675-3.354 2.374-4.193.698-1.118 1.396-2.515 2.233-4.192.838-1.957 1.536-3.494 1.955-4.333.419-.838.977-2.236 1.675-4.472.559-1.956 1.257-3.494 1.815-4.472zm-20.663-1.398c.559 0 .978.42 1.117 1.118.14.28 0 .699.14 1.398v2.655c.14.559.279 1.398.279 2.795.14 1.398.14 2.376.279 2.935 1.397 6.01 2.374 9.923 2.793 11.74-.838-1.677-1.536-3.634-2.095-5.73-.558-2.516-.977-4.333-1.396-5.73-.419-1.398-.558-3.215-.698-5.451 0-.698-.139-1.816-.419-3.494-.139-1.257-.139-1.816-.139-1.956.139-.14.139-.28.139-.419-.139.279 0 .279 0 .139z" fill="#fff"/><path d="M385.351 321c0 1.538.139 3.075.418 4.892-1.116.139-1.675.279-1.954.279-1.676.14-2.792-.14-3.351-.559-.419-.419-.838-1.118-1.117-2.236 2.932-.838 4.887-1.677 6.004-2.376z" fill="#2F3563"/><path d="M383.954 326.171c.14 0 .838-.14 1.955-.279.419 3.074 1.117 6.708 2.094 10.621 1.815 7.128 4.263 11.251 6.497 13.487-1 2-1.5 4.5-2.5 6.5-.558-.419-4.416-7.409-6.37-11.881-2.234-5.311-3.91-10.342-5.166-15.373l-24.153 6.289-18.15 31.864c-1.117-.978-2.374-1.677-3.491-1.957a3.416 3.416 0 00-1.675 0c-.14-.139-.279-.419-.279-.419.139-.279.419-.699.698-.978 1.815-2.795 4.468-7.267 8.098-13.556 3.769-6.429 6.841-11.74 9.074-15.793 2.095.42 3.91-.14 5.445-1.677.978-.978 1.536-2.096 1.955-3.214.14-.419.279-.839.279-1.118 3.211-.28 7.4-1.118 12.845-2.656a470.38 470.38 0 008.377-2.515c.279 1.118.558 1.817 1.116 2.236.559.419 1.676.559 3.351.419z" fill="url(#paint18_radial)"/><path d="M357.986 329.665c-.419 1.118-.977 2.236-1.955 3.215-1.396 1.537-3.211 2.096-5.445 1.677 1.397-2.516 2.513-4.612 3.351-6.289 1.117.279 2.513.279 4.328.279 0 .28-.139.699-.279 1.118z" fill="#2F3563"/><path d="M384.234 328.268c.139-.14.279-.28.418-.28.559.419.838 1.118.978 2.096.139.559.139 1.538.279 2.795 0 .28.279 1.118.558 2.516.28 1.118.419 1.957.559 2.516 0 .559.279 1.397.698 2.515.419 1.258.838 1.957.838 2.376.139.419.558 1.537 1.396 3.354.837 1.677 1.256 2.795 1.396 3.075-1.536-1.817-2.653-3.634-3.49-5.73-.699-2.236-1.257-3.774-1.676-5.031-.419-.979-.838-2.795-1.396-5.591-.558-2.934-.838-4.472-.558-4.611zm-5.445-2.935c-3.491 1.816-6.143 2.795-7.958 3.214-.838.14-2.653.559-5.725 1.258-2.652.698-3.909.978-4.048.978-.14-.14-.28-.28-.28-.419v-.14c0-.14.14-.28.28-.419.279-.28 1.815-.699 4.467-1.258 2.792-.559 4.189-.839 4.468-.978 2.653-.559 4.049-.839 4.467-.979.978-.279 2.374-.838 4.329-1.257z" fill="#fff"/><path d="M396.1 375.644c-2.373 2.237-3.909 4.193-4.607 5.87 0 .14-.14.419-.14.559-.279.978-.558 1.817-.837 2.656-5.725 1.118-14.66.279-27.365-.559-11.308-.839-35.182-8.805-35.462-8.665-2.094-.699-4.049-1.398-6.143-2.097-6.841-3.633-10.89-5.869-12.146-6.568-.698-.419-1.396-.839-2.234-1.118 1.396-2.655 13.961-16.631 22.059-18.727.419-.14 23.455 13.835 24.153 14.255.698.419 1.536.838 2.234 1.258 1.396.698 2.792 1.537 4.189 2.236 4.467 2.236 9.074 4.332 13.961 6.009.279 0 19.825 4.332 22.338 4.891z" fill="#59569B"/><path d="M301.722 379.418c1.256-2.655 4.467-11.74 5.445-13.976.837.42 1.535.699 2.233 1.118 1.257.699 5.306 2.935 12.147 6.569 1.117.419 6.422 2.236 11.309 3.773v-.139a193.052 193.052 0 0012.844 3.354c0 .139.14.139.14.279 5.445.978 12.984 2.376 13.123 2.376 1.815.28 3.491.559 5.306.839 11.867 1.677 20.523 1.537 26.247.419-.139.559-.279 1.397-.419 1.677-.139.559-.418 2.655-.558 4.053-17.731 5.31-58.219-1.258-59.196-1.538l-6.702-1.677-21.919-7.127z" fill="#6561A3"/><path d="M301.861 378.579s42.163 13.137 91.028 10.622c-.139 1.118-3.351 1.956-3.351 3.633v3.774c-2.094.559-34.065 5.45-74.693-.559-.838 0-1.396-.14-1.536-.14-.279-.14-.698-.14-.977-.28-2.234-.559-4.328-1.257-6.283-1.956-1.117-.419-3.211-1.258-6.282-2.656-.14 0-.14 0-.28-.139.14-3.354 1.117-7.966 2.374-12.299z" fill="#48438E"/><path d="M299.209 391.157v-.14c.139 0 .279.14.279.14 3.071 1.398 5.305 2.236 6.283 2.655 10.75 4.333 55.007 4.752 59.196 4.612 4.328-.279 16.474-.978 18.15-.978 2.094-.419 4.188-.978 6.143-1.397 0 1.257.139 2.375.279 3.493.698 3.494 2.094 5.591 4.049 6.289.279.14.837.699 1.256.28-10.89 8.245-82.232 13.696-82.232 13.696s-5.864-.14-6.004-.14c-7.679-5.73-9.354-20.684-7.399-28.51z" fill="#3D3081"/><path d="M327.969 386.825c.698.279 1.536.14 2.373-.28.419-.279.838-.419 1.257-.838 1.536-1.118 1.396-6.848.558-6.848-.418 0-.837 0-1.256-.14.279.699.139 1.537-.14 2.236-.279.839-1.396 1.677-3.071 2.376l-2.374-1.258c-.139.839-.139 1.677.14 2.376.14.279.279.559.558.838.419.699 1.117 1.258 1.955 1.538zm54.17-16.212h-1.815c-.419-.139-.977 0-1.815 0-.837.14-1.536.28-1.954.699-.838.699-1.536 1.677-1.955 2.935-.419 1.118-.419 2.236-.279 3.354.139.28.139.699.279.978.558 1.817 1.675 2.935 3.211 3.494 1.396.419 3.211.559 5.305.419 2.653-.279 4.468-1.397 5.445-3.074.14-.28.28-.699.419-.978.28-.839.14-2.097-.279-3.634-.14-.28-.14-.559-.279-.699-.419-.838-.977-1.677-1.815-2.096-.838-.559-1.676-.839-2.653-1.118-.698-.28-1.396-.419-1.815-.28zm1.676 2.795l1.396 1.258v.839c-.559 1.537-1.815 2.515-3.351 2.655-1.117.14-2.234.14-3.211-.14-.698-.139-1.257-.419-1.536-1.118-.14-.419-.14-.978.14-1.397.279-.839.698-1.398 1.535-1.677.838-.42 1.676-.559 2.793-.559h.698c.558 0 .977.139 1.536.139z" fill="#F14654"/><path d="M382.279 373.269c.558 0 1.117 0 1.675.139l1.396 1.258v.839c-.558 1.537-1.815 2.515-3.35 2.655-1.117.14-2.234.14-3.211-.14-.698-.14-1.257-.419-1.536-1.118-.14-.419-.14-.978.139-1.397.28-.839.699-1.398 1.536-1.677.838-.42 1.676-.559 2.792-.559 0 .139.14.139.559 0z" fill="#F7C131"/><path d="M388.701 381.933c-.558 1.398-2.234 2.376-5.166 2.935-2.792.42-4.886.42-6.562-.139-1.675-.559-2.792-1.398-3.49-2.656-.558-.978-.558-2.236-.14-3.354.14-.279.419-.699 1.117-1.118.14.28.14.699.28.978.558 1.817 1.675 2.935 3.211 3.494 1.396.419 3.211.559 5.305.419 2.653-.279 4.468-1.397 5.445-3.074.419.699.419 1.537 0 2.515z" fill="#4A1B6C"/><path d="M391.493 381.514c0 .14-.139.419-.139.559-.28.978-.559 1.817-.838 2.656-.14.559-.279.978-.419 1.257-.14.559-.419 1.398-.419 2.795-.139 1.118-.139 2.516-.139 4.193v3.075c0 1.257.139 2.376.279 3.494.698 3.493 2.094 5.59 4.049 6.289.279.139.698.279 1.256.279.279 0 .838-.279 1.396-.699.14-.139.419-.279.559-.419 1.396-.978 2.652-3.075 3.769-5.87.28-.698.559-1.537.838-2.236.838-2.236 1.257-4.751 1.396-7.407 0-.978 0-1.817-.139-2.795-.419-5.73-1.955-9.084-4.329-10.062-1.116-.42-2.094-.559-2.652-.699-2.234 2.096-3.77 4.053-4.468 5.59zm5.026-2.096c.14-.14.28-.14.419-.28.419-.139.838-.279 1.257-.139 1.256.279 2.094 1.677 2.652 4.192.559 2.516.559 5.311.14 8.525-.419 2.795-1.117 5.171-2.234 7.128-.139.279-.14.419-.279.699-1.117 2.096-2.374 2.795-3.63 2.515-.419-.14-.838-.419-1.257-.699-.698-.698-1.117-1.956-1.535-3.493-.559-2.516-.559-5.311-.14-8.526.14-.559.14-1.118.279-1.537.279-1.397.559-2.655 1.117-3.773.279-.979.698-1.677 1.117-2.376.838-1.118 1.536-1.817 2.094-2.236z" fill="#E3D7E5"/><path d="M394.565 381.654c.698-1.118 1.256-1.817 1.814-2.236.559.699 1.117 1.817 1.536 3.494.559 2.376.559 5.31 0 8.525-.419 3.074-1.117 5.59-2.373 7.547 0 0 0 .139-.14.279-.558.978-1.117 1.817-1.815 2.236-.698-.699-1.117-1.956-1.536-3.494-.558-2.515-.558-5.31-.139-8.525.139-.559.139-1.118.279-1.537.279-1.398.559-2.655 1.117-3.773.558-.979.838-1.817 1.257-2.516z" fill="#34134A"/><path d="M398.055 382.912c-.419-1.677-.838-2.795-1.536-3.494.14-.14.28-.14.419-.28.419-.139.838-.279 1.257-.139 1.256.279 2.094 1.677 2.652 4.192.559 2.516.559 5.311.14 8.525-.419 2.795-1.117 5.171-2.234 7.128-.139.279-.139.419-.279.699-1.117 2.096-2.374 2.795-3.63 2.515-.419-.14-.838-.419-1.257-.699.698-.419 1.257-1.118 1.815-2.236.14-.139.14-.14.14-.279 1.257-1.957 1.955-4.472 2.373-7.547.699-3.075.699-6.009.14-8.385z" fill="#48438E"/><path d="M370.97 391.856c1.117.419 1.815.978 2.374 1.817.139.279.418.699.418.978.419 1.398.28 2.935-.418 4.892-.838 2.236-2.234 3.633-4.189 4.052-1.256.28-2.653.14-3.909-.279-1.396-.559-2.234-1.537-2.513-2.935v-.978l2.234 1.397c4.747.559 6.143-1.537 4.188-6.289 0 0 0-.139-.139-.139a68.482 68.482 0 00-3.072-1.258c.558-.559 1.117-.839 1.955-1.118 1.117-.559 2.094-.559 3.071-.14zm-27.504-40.389c-1.396-.839-2.653-1.537-3.63-1.817-.14 0-.279-.14-.279-.14-1.396-.419-2.792-.559-3.909-.419-.559 0-1.117.28-1.536.559-.838.419-1.396 1.258-1.815 2.376 0 .14-.14.279-.14.419-.558 2.096.14 4.472 2.234 7.407 2.094 2.795 4.328 4.612 6.841 5.59 1.815.699 3.491.979 4.887.699h.139c1.676-.279 2.932-1.397 3.491-3.075.419-1.257.558-2.655 0-3.913-.14-.559-.28-.978-.698-1.537-.14-.279-.28-.419-.419-.559-.698-.978-2.094-2.655-4.468-4.891a1.68 1.68 0 00-.698-.699zm-4.328.978c.419 0 .977.14 1.536.28.419.139 1.396.559 2.652 1.118.699.838 1.397 1.677 1.955 2.375.279.28.419.699.558.979.838 1.537.978 2.795.559 4.053-.279.978-1.117 1.118-2.513.559-1.117-.42-2.513-1.538-4.328-3.494-1.955-2.236-2.792-3.774-2.513-4.752.279-.699.837-1.118 1.536-1.258.279.28.418.14.558.14z" fill="#F14654"/><path d="M338.719 352.585c.14 0 .28-.14.419-.14.419 0 .978.14 1.536.28.419.139 1.396.559 2.653 1.118.698.838 1.396 1.677 1.954 2.375.28.28.419.699.559.979.837 1.537.977 2.795.558 4.053-.279.978-1.117 1.118-2.513.559-1.117-.42-2.513-1.538-4.328-3.494-1.954-2.236-2.792-3.774-2.513-4.752.279-.419.838-.838 1.675-.978z" fill="#F7C131"/><path d="M328.946 355.38c.279-.839.977-1.537 1.955-2.236.279-.14.698-.419 1.117-.699-.559 2.096.139 4.472 2.233 7.407 2.095 2.795 4.329 4.612 6.842 5.59 1.815.699 3.49.979 4.886.699v.14c-.698.699-1.815 1.397-2.932 1.817-1.815.559-3.351.559-4.747 0-2.094-.699-4.188-2.656-6.562-5.73-2.373-3.075-3.35-5.451-2.792-6.988z" fill="#4A1B6C"/><path d="M322.245 362.927c.418.14.698.559.837 1.258.14.698 0 1.397-.279 2.236-.419 1.118-.977 1.817-1.815 2.096-.558.28-1.117.28-1.675.14-.419-.14-.698-.559-.838-1.258 0-.14 0-.28-.14-.419.14.139.419.279.699.559 1.954-.14 3.071-1.398 3.211-3.913-.28-.28-.559-.42-.838-.699.419-.14.558-.14.838 0z" fill="#760A08"/><path d="M323.082 364.185c-.139-.699-.418-1.118-.837-1.258a.889.889 0 00-.838 0l-.139-.14c-.28-.419-.699-.699-1.117-1.118.558-.14.977-.279 1.256-.419.698-.14 1.396-.14 2.094.14.978.279 1.396 1.118 1.676 2.375.139 1.118.139 2.236-.28 3.354-.558 1.398-1.396 2.516-2.792 3.215-1.256.699-2.513.699-3.769.279-.978-.419-1.536-1.257-1.676-2.655-.139-.978 0-1.817.279-2.655v.139l1.257 1.538.14.139c0 .14.139.28.139.42.279.699.559 1.118.838 1.258.558.139 1.117.139 1.675-.14.838-.28 1.396-.979 1.815-2.097.279-.978.279-1.677.279-2.375zm8.098 11.04c.698.28 1.256.839 1.536 1.817.139.419.279.838.419 1.397.418 1.817.418 3.494-.14 5.032-.14.419-.419.838-.559 1.257-.139.42-.418.699-.698 1.119-.977-.559-1.815-1.119-2.513-1.678-.419-.279-.698-.559-.977-.698.558-.42 1.117-.979 1.257-1.817.279-.839 0-2.096-.838-3.913l-2.653-.559c.419-.699.977-1.398 1.676-1.677.279-.14.698-.28.977-.28.698-.279 1.675-.279 2.513 0zm25.829-3.633c-2.653-.979-5.306-1.118-7.679-.559-2.653.698-4.328 2.096-5.026 4.192-.559 1.398-.14 3.075.977 4.752.14.14.279.279.279.419.419.419 4.328 4.892 12.705 2.935.28 0 .419-.28.559-.419 1.256-.699 2.094-1.677 2.652-2.795.419-1.258.14-3.075-1.116-5.032-.978-1.956-2.234-3.074-3.351-3.493zm.977 5.73c-.14.279-.558.698-1.256 1.118h-.14c-.698.279-1.536.279-2.513.139-.698-.139-1.536-.419-2.374-.698l-2.652-.979c-1.117-.699-1.396-1.537-.978-2.655.559-1.537 1.536-2.236 3.072-2.096.838 0 2.094.419 3.909 1.118 1.257.419 2.094.838 2.513 1.257.838.699.978 1.538.419 2.796z" fill="#F14654"/><path d="M357.706 374.526c.699.559.699 1.538.28 2.795-.14.28-.559.699-1.257 1.118h-.139c-.699.28-1.536.28-2.514.14-.698-.139-1.535-.419-2.373-.699l-2.653-.978c-1.117-.699-1.396-1.537-.977-2.655.559-1.537 1.536-2.236 3.072-2.096.837 0 2.094.419 3.909 1.118 1.396.419 2.234.838 2.652 1.257z" fill="#F7C131"/><path d="M385.211 378.859c.837-.28 1.256-.559 1.396-.978 0-.14.139-.28 0-.28.139.14.279.14.279.419-.977 1.398-1.675 2.097-2.234 2.516-1.256.838-2.932.838-5.026 0-.419-.14-.558-.419-.419-.839.14-.559.698-.698 1.396-.559 1.257.28 2.094.42 2.513.28.698-.14 1.396-.419 2.095-.559zm-50.122-22.221c-.837-1.677-.977-3.215-.558-4.612.558-1.677 1.117-1.817 1.675 0-.279.559-.279 1.537-.419 2.655 0 .699.419 1.817 1.257 3.075 1.257 1.956 2.094 3.214 2.234 3.633-1.815-1.397-3.211-2.934-4.189-4.751zm17.871 24.038c-.14-.28-.14-.42-.14-.699.14-.419 1.117-.419 3.072-.14.139 0 .698 0 1.536-.14.698 0 1.256.14 1.535.28-.977.838-1.815 1.258-2.513 1.397-.837.14-1.815 0-3.071-.419-.14 0-.279-.14-.419-.279zm-30.296-18.727c.139 0 .139 0 0 0 .837-.14 1.256.279 1.535 1.257.14.839.14 1.398 0 1.957a1.922 1.922 0 01-.419.559h-.139c.139-.559 0-1.258-.559-2.096-.558-.839-.698-1.258-.698-1.258.14-.28.28-.419.28-.419zm8.237 14.394c.698.28 1.256.978 1.536 1.957.279.978.418 1.537.279 1.956-.279.559-.419.839-.698.699-.14 0-.279-.14-.279-.14 0-.419-.14-1.257-.559-2.515-.279-1.118-.419-1.677-.419-1.817 0-.14 0-.14.14-.14zm37.556 15.792l.279-.139c.978.279 1.676.699 1.955 1.397.14.42.279.979.419 1.817l-.419 1.118-.419-.279v-.839c0-.419 0-.699-.14-.978-.139-.14-.418-.559-.837-.978-.419-.56-.838-.979-.838-1.119z" fill="#fff"/><path d="M311.495 341.265c.139-.14.139 0 0 0z" fill="#A77935"/><path d="M338.58 365.722v.279c0 .28 0 .699-.14 1.118-2.094 1.398-3.77 1.398-5.166 0v-.978l.419-1.817s.14 0 .14-.139c0 0 .419-2.796 1.117-8.386.279-3.214.558-6.009.558-8.385.14-3.913.14-7.687-.14-11.32l-25.27-4.752c-3.49 9.783-5.584 17.05-6.003 21.802 3.351-.419 5.724-.978 7.12-1.537l.698.139c-.558.28-.837.699-.977 1.258v.559c1.117 2.096 2.653 2.236 4.328.699.419-.419.838-.839 1.257-1.398l3.071 5.73 10.611 20.125 1.256 2.376c-.837 1.677-1.675 2.795-2.513 3.074-.837.28-1.954.839-2.234.14-1.256-2.376-4.747-7.826-4.886-7.826l-8.098-13.976v-.279l-.419-1.258-1.954-3.773c-4.189.279-6.841.559-8.098.978-.558 1.258-.977 2.655-1.256 4.332-.14 2.097-.419 3.634-.698 4.752-.559 2.096-1.117 5.451-1.815 10.062-.698 4.612-1.397 9.224-2.095 13.976l.28 5.311v1.397c-2.095 1.398-4.189 2.236-6.143 2.516-1.955.279-3.212-.419-3.63-2.097.418-.838.837-1.956 1.256-3.214 1.117-2.935 2.234-6.988 3.63-12.159.559-1.956 1.117-4.192 1.676-6.428.139-.42.279-.979.418-1.398.559-2.236.838-3.633.978-4.332 1.256-6.289 2.094-10.761 2.513-13.137-9.215.699-15.497 1.118-18.988 1.397-.419 3.913-1.675 12.299-3.909 25.296a410.53 410.53 0 00-3.071 25.715c-.28 4.332-.559 8.525-.699 12.438v2.935c-.418.14-.977.419-1.675.978-.698.42-1.256.839-1.815.979-.558.139-1.536.419-2.653.559-1.256.139-1.675-.699-1.535-2.796.279-1.677.698-5.031 1.675-10.202.977-5.73 2.094-12.298 3.072-19.705 2.233-16.491 3.211-28.51 2.652-35.777.419 0 .698-.14.978-.14 1.675-.559 3.071-1.957 3.909-4.193 7.958-.14 15.497-.699 22.478-1.397.977-4.193 2.513-12.019 4.746-23.2l.14-.139.14.139c.419.559 1.535.559 3.49.14 1.955-.419 2.932-1.537 2.792-3.214 0-1.538 0-2.376-.139-2.516v-.14c.139.14.977.28 2.373.559 1.396.28 5.166.979 11.169 2.236 6.004 1.258 10.332 2.097 13.124 2.516-.419 1.957-.558 3.634 0 4.891.558 1.538 1.675 2.516 3.351 3.075.837.28 1.815.419 2.792.419-.419 1.677-1.396 7.547-2.932 17.47-.14.978-.279 2.096-.419 3.074-.279 1.677-.419 3.354-.698 5.171 0 .28 0 .839-.139 1.398z" fill="url(#paint19_radial)"/><path d="M336.625 329.945c.558.139 1.117.139 1.675.279l4.747 7.547s-.14.14-.279.559c-.978 0-1.955-.14-2.793-.419-1.675-.559-2.792-1.538-3.35-3.075-.419-1.258-.419-2.935 0-4.891zm-26.526-5.451c0 .28.139 1.118.139 2.655.14 1.678-.838 2.796-2.792 3.215-1.955.559-3.072.419-3.49-.14l-.14-.14 6.143-5.45c-.14 0 0 0 .14-.14zm6.561 28.091c-.279.419-.698.978-1.256 1.397-1.676 1.538-3.072 1.398-4.328-.698v-.559c.139-.559.419-.979.977-1.258l4.607 1.118zm-44.258 6.568c-.279.14-.698.14-.977.14-.139-1.677-.279-3.075-.558-4.332h5.445c-.838 2.096-2.095 3.494-3.91 4.192z" fill="#2F3563"/><path d="M329.924 380.396c-.698-.279-1.955-1.817-3.63-4.612-2.513-4.751-4.049-7.686-4.747-8.944-1.117-1.817-2.234-3.354-3.072-4.752-1.675-2.655-2.652-4.472-2.932-5.171-.418-.978-.279-1.677.14-1.817.14 0 .279-.139.279-.139v.139c.978 3.075 2.932 6.569 5.864 10.342.419.559 2.094 3.634 4.887 9.504.418.838 1.116 1.816 1.815 3.214.279.699.558 1.118.837 1.537.559.14.698.42.559.699zm10.191-41.367c0 .419 0 1.257-.279 2.795-.14 1.258-.279 2.236-.558 2.795-.14.419-.28 1.397-.419 3.074-.14 1.538-.279 2.376-.279 2.516-.14.419-.28 1.677-.419 3.634-.14 1.817-.419 3.074-.698 3.633-.14.42-.28 1.677-.419 3.634-.14 1.956-.279 3.214-.559 3.634-.139-1.817-.139-2.935-.139-3.494 0-1.677.139-2.935.558-3.774.279-.698.419-2.096.559-4.192.139-2.097.279-3.354.279-3.634.279-2.376.419-4.472.698-6.009.279-3.075.698-4.612 1.117-4.752.279.14.419.14.558.14z" fill="#fff"/><path d="M369.993 395.629v.28c-.698 5.031-2.932 6.149-6.841 3.214l-1.257-2.236-3.211-6.149-8.935-16.91c-.28.279-.698.559-1.396 1.118-1.117 1.118-2.653 2.375-4.328 3.493-.559.42-1.397 1.119-2.793 2.097-5.166 4.192-9.075 7.407-12.007 9.643-8.516 7.547-13.123 11.32-13.821 11.32-.14 3.075 1.396 11.879 4.328 26.274.837 3.913 2.094 9.503 3.769 16.91.14.699.279 1.398.419 1.957.838 3.913 1.396 6.429 1.675 7.826.14.559.14.978.14.978l-.279.28c-.559.419-1.396.978-2.374 1.398-1.535.698-3.071 1.118-4.746 1.118.139-1.677 0-5.311-.559-11.181-.558-6.568-2.234-15.513-4.747-26.693-1.675-7.687-2.932-13.416-3.63-17.19-.279-1.677-.558-2.935-.698-3.773.14-.28 1.257-1.258 3.491-2.935.139 0 .139-.14.279-.14 1.117-.838 4.049-3.074 9.075-6.848 5.026-3.773 9.493-7.547 13.263-11.32l1.257-1.258c1.535-1.397 2.513-2.376 2.792-2.795a63.088 63.088 0 012.373-2.515c1.536-1.538 2.932-2.935 4.049-4.193.977-.978 1.675-1.957 2.373-2.795h.28c0 .279 0 .838.139 1.397.28 1.398.698 2.516 1.396 3.215.559.559.978.838 1.397.978.558.14 1.256-.14 1.954-.699.698-.559 1.396-1.397 2.094-2.795l.419-.838c.14.419.279.978.419 1.816.279.979.698 2.097 1.257 3.494a224.143 224.143 0 012.932 6.708c.279.56.558 1.258.837 1.817 2.513 5.311 5.026 9.504 7.121 12.858a19.452 19.452 0 002.094 3.074z" fill="url(#paint20_radial)"/><path d="M354.635 366.421c-.14.279-.279.419-.419.838-.838 1.258-1.536 2.236-2.094 2.795-.698.559-1.396.839-1.955.699-.419-.14-.837-.419-1.396-.978-.558-.699-1.117-1.817-1.396-3.215 0-.559-.14-1.118-.14-1.397 1.117.279 2.234.559 3.63.559h3.77c0 .14-.14.419 0 .699z" fill="#4A1B6C"/><path d="M366.083 393.673c-.838-.559-1.256-.979-1.675-1.398-1.117-1.258-2.513-3.633-4.189-6.848-1.535-3.074-2.233-4.751-2.373-4.891-1.117-2.097-2.094-3.913-2.792-5.451-1.397-3.074-1.955-4.751-1.536-5.031.279-.14.419-.279.558-.279.14.139.559.698.978 1.677.418.978.698 1.537.837 1.537 0 0 .559 1.258 1.536 3.913 1.117 2.656 1.675 4.053 1.955 4.472.139.28.419.699.837 1.538.14.279.14.419.28.559 0 .419.139.838.418 1.257.14.28.698.979 1.257 1.957.14.28.558 1.118.977 2.516.698 1.397 1.396 2.655 2.374 3.773.139.14.279.28.698.559.279.419.698.839.977 1.258-.14-.14-.558-.419-1.117-1.118zM345.7 369.495c.14-.14.558-.419.838-.419l.139.14c-.419.698-1.536 1.956-3.351 3.913-2.094 2.236-3.49 3.773-4.328 4.472l-7.678 6.708c-.14.14-1.257.978-3.491 2.656-2.373 1.816-4.188 3.214-5.305 4.192-1.955 1.538-4.747 4.193-8.517 7.547 0 0-.418.419-1.256 1.118-.838.559-1.536.699-1.815.28-.14-.14-.14-.28-.14-.28v-.14l.419-.419c1.257-.699 2.094-1.258 2.513-1.677.978-1.118 1.815-1.817 2.374-2.376 1.396-1.258 3.071-2.795 5.026-4.332 1.396-1.258 3.769-3.075 7.12-5.451 3.351-2.515 5.864-4.472 7.679-6.009.698-.559 2.373-2.376 5.305-5.311 3.072-3.074 4.468-4.612 4.468-4.612zm-45.326-14.627c-3.784 1.077-6.58 1.502-8.442 1.547-.848-.031-2.711.014-5.86.081-2.739.15-4.026.171-4.163.143-.108-.165-.217-.33-.189-.467l.028-.137c.028-.137.193-.245.358-.354.33-.218 1.918-.319 4.629-.333 2.848.014 4.272.021 4.574-.06 2.71-.013 4.134-.006 4.573-.059 1.013-.077 2.493-.344 4.492-.361zm31.298-23.982c-3.932.142-6.748-.113-8.567-.513-.817-.233-2.636-.634-5.71-1.321-2.696-.507-3.951-.794-4.077-.854-.066-.186-.132-.373-.072-.499l.06-.126c.06-.126.246-.193.432-.259.372-.132 1.939.148 4.575.782 2.762.693 4.143 1.04 4.455 1.034 2.636.634 4.017.98 4.455 1.034 1.003.167 2.504.261 4.449.722z" fill="#fff"/><path d="M218.314 256.725L873.559 11.18s5.47-1.124 3.183-7c-2.287-5.876-7.337-3.765-7.337-3.765L217.422 254.28s-.293.73.042 1.5c.283.648.85.944.85.944z" fill="url(#paint21_linear)"/><path d="M174.182 186.382c-6.19 6.19-16.374 6.19-22.564-.2-6.19-6.19-6.19-16.374.2-22.564 6.39-6.19 16.374-6.19 22.564.2 6.19 6.19 6.19 16.374-.2 22.564z" fill="#FFF066"/><path d="M174.182 186.382c-6.19 6.19-16.374 6.19-22.564-.2l22.764-22.364c6.19 6.19 6.19 16.374-.2 22.564z" fill="#FFCD40"/><path d="M172.585 184.585c-5.391 5.192-13.978 5.192-19.169-.2-5.192-5.391-5.192-13.978.199-19.169 5.392-5.192 13.978-5.192 19.17.199 5.192 5.392 5.192 13.978-.2 19.17z" fill="#FFCD40"/><path d="M172.585 184.585c-5.391 5.192-13.978 5.192-19.169-.2l19.369-19.169c5.192 5.591 5.192 14.177-.2 19.369z" fill="#FFA943"/><path d="M163.201 165.615l.199 1.997c.599.2 1.198.799 1.198 1.598 0 .998-.798 1.996-1.797 1.996-.998 0-1.997-.798-1.997-1.797 0-.799.4-1.398.999-1.797l-.2-1.997c-4.792.799-8.387 4.992-7.987 9.785.399 4.792 4.393 8.586 9.185 8.786l-.199-1.997c-.599-.2-1.199-.799-1.199-1.597 0-.999.799-1.997 1.798-1.997.998 0 1.996.798 1.996 1.797 0 .799-.399 1.398-.998 1.797l.2 1.997c4.792-.799 8.386-4.992 7.987-9.785-.399-4.792-4.193-8.586-9.185-8.786zm110.035 146.256c-7.545-3.189-11.129-12.019-7.766-19.635 3.188-7.545 12.018-11.128 19.634-7.766 7.615 3.362 11.129 12.019 7.767 19.634-3.189 7.545-12.019 11.129-19.635 7.767z" fill="#FFF066"/><path d="M273.236 311.87c-7.545-3.189-11.129-12.019-7.767-19.634l27.401 11.867c-3.188 7.546-12.018 11.129-19.634 7.767z" fill="#FFCD40"/><path d="M274.232 309.853c-6.399-2.847-9.42-10.292-6.572-16.691 2.848-6.398 10.292-9.42 16.691-6.572 6.399 2.848 9.42 10.293 6.572 16.691-2.848 6.399-10.292 9.42-16.691 6.572z" fill="#FFCD40"/><path d="M274.232 309.853c-6.398-2.847-9.42-10.292-6.572-16.691l23.436 10.049c-3.02 6.469-10.465 9.49-16.864 6.642z" fill="#FFA943"/><path d="M287.377 295.042l-1.661.876c.038.589-.271 1.319-.964 1.6-.865.352-2.012.011-2.363-.855-.352-.866-.01-2.013.855-2.364.693-.281 1.353-.145 1.91.233l1.661-.875c-2.379-3.874-7.28-5.515-11.294-3.483-4.015 2.033-5.899 6.831-4.386 11.056l1.661-.876c-.038-.589.271-1.32.964-1.601.865-.351 2.012-.01 2.363.856.352.866.01 2.012-.855 2.364-.693.281-1.353.145-1.91-.234l-1.661.876c2.379 3.874 7.28 5.515 11.294 3.482 4.015-2.032 5.969-6.657 4.386-11.055zm-19.737-75.013c-8.272-2.868-12.716-12.031-9.669-20.389 2.868-8.271 12.03-12.716 20.389-9.669 8.358 3.048 12.716 12.031 9.669 20.389-2.868 8.271-12.031 12.716-20.389 9.669z" fill="#FFF066"/><path d="M267.64 220.028c-8.271-2.868-12.716-12.03-9.669-20.389l30.058 10.721c-2.868 8.271-12.031 12.716-20.389 9.668z" fill="#FFCD40"/><path d="M268.56 217.808c-7.025-2.585-10.772-10.311-8.187-17.335 2.584-7.024 10.31-10.772 17.334-8.187 7.025 2.585 10.772 10.31 8.187 17.335-2.585 7.024-10.31 10.771-17.334 8.187z" fill="#FFCD40"/><path d="M268.56 217.808c-7.025-2.585-10.772-10.311-8.187-17.335l25.701 9.06c-2.765 7.112-10.49 10.859-17.514 8.275z" fill="#FFA943"/><path d="M281.531 201.085l-1.709 1.051c.081.626-.196 1.426-.915 1.775-.898.436-2.145.153-2.581-.745-.436-.899-.153-2.146.746-2.581.718-.349 1.432-.251 2.052.114l1.71-1.052c-2.81-3.963-8.152-5.367-12.29-2.916-4.137 2.451-5.808 7.701-3.896 12.1l1.71-1.052c-.082-.626.195-1.426.914-1.775.898-.436 2.145-.153 2.581.746.436.898.153 2.145-.745 2.581-.719.348-1.432.25-2.053-.114l-1.709 1.051c2.81 3.963 8.151 5.367 12.289 2.916s5.895-7.521 3.896-12.099z" fill="#FFF066"/><path d="M349.581 182.23l.919-1.73 2.767-4.794c-1.735 2.221-10.166.69-19.255-3.781-9.088-4.47-15.951-10.346-14.86-13.095L317 164l-.545 1.374c-1.312 2.817 4.399 10.088 13.776 14.712 9.377 4.624 16.971 3.837 19.35 2.144z" fill="#FFCD40"/><path d="M353.234 176.079c1.901-3.898-4.267-10.826-13.776-15.476-9.51-4.649-18.759-5.258-20.66-1.361-1.901 3.898 4.267 10.826 13.777 15.476 9.509 4.649 18.758 5.258 20.659 1.361z" fill="#E0B310"/><path d="M352.611 175.774c1.845-3.783-4.09-10.482-13.256-14.963-9.165-4.481-18.091-5.047-19.936-1.264-1.844 3.783 4.09 10.482 13.256 14.963 9.165 4.481 18.091 5.047 19.936 1.264z" fill="#F9EA34"/><path d="M351.989 175.47c1.789-3.668-3.913-10.139-12.735-14.452-8.822-4.313-17.423-4.836-19.212-1.167-1.789 3.668 3.912 10.138 12.734 14.451 8.822 4.313 17.424 4.836 19.213 1.168z" fill="#C78E08"/><path d="M338.933 161.966c-7.935-3.856-15.588-4.417-17.561-1.398l.153-.289c1.618-3.393 9.491-2.899 17.715 1.111s13.406 9.915 11.788 13.308l-.153.289c1.109-3.48-4.006-9.164-11.942-13.021z" fill="#A97607"/><path opacity=".2" d="M330.523 168.401c9.376 4.624 18.709 5.155 20.48 1.473l.153-.288c1.982 2.535 2.945 4.898 2.025 6.629-1.924 3.969-11.036 3.371-20.48-1.474-9.088-4.47-15.203-11.057-13.788-15.113 2.184 3.198 6.489 6.231 11.61 8.773z" fill="#A97607"/><path d="M322.745 161.114c-1.618 3.394 3.142 8.704 10.501 12.253 7.359 3.55 14.503 4.024 16.035 1.14l.153-.288c-1.465 3.105-8.676 2.409-16.035-1.14-7.359-3.55-12.118-8.86-10.654-11.965z" fill="#C78E08"/><path d="M322.745 161.115c-.307.576-.392 1.086-.478 1.595l.153-.288c-.135-.442.018-.731.325-1.307z" fill="#C78E08"/><path d="M322.42 162.421c-.018.731-.104 1.24.319 1.835l.154-.288c-.356-.374-.559-1.037-.473-1.547z" fill="#C78E08"/><path d="M322.672 164.035c.05.952.473 1.547.896 2.142l.154-.288c-.424-.595-.626-1.258-1.05-1.854zm1.27 1.787c1.828 2.823 5.048 5.463 9.304 7.545 7.359 3.549 14.502 4.024 16.034 1.14l.154-.288c-1.465 3.105-8.676 2.409-16.035-1.14-4.256-2.082-7.697-4.655-9.457-7.257z" fill="#C78E08"/><path d="M350.951 174.963c1.678-3.439-3.65-9.496-11.899-13.529-8.249-4.033-16.296-4.515-17.973-1.076-1.677 3.439 3.651 9.496 11.9 13.529 8.249 4.033 16.295 4.515 17.972 1.076z" fill="#E0B310"/><path d="M335.347 165.236l-.153.289c-.153.288.27.883 1.134 1.344.865.46 1.595.479 1.748.191l.153-.289c-.153.289-.883.27-1.747-.191-.865-.46-1.288-1.055-1.135-1.344z" fill="#C78E08"/><path d="M335.345 165.236l-.153.289.068.221.085-.51z" fill="#C78E08"/><path d="M335.412 165.457l-.154.289.068.221.086-.51z" fill="#C78E08"/><path d="M335.412 165.457l-.154.289.068.221.153-.289-.067-.221zm.068.221l-.153.289c.288.153.644.528.999.902.865.461 1.595.479 1.748.191l.153-.288c-.153.288-.883.269-1.747-.191-.289-.154-.865-.461-1-.903zm2.718-.588l-.153.288c3.747 1.996 6.016 4.684 5.318 6.347l.153-.288c.699-1.663-1.571-4.352-5.318-6.347z" fill="#C78E08"/><path d="M338.198 165.09l-.153.288c2.018 1.075 3.661 2.505 4.728 3.628l.154-.288c-1.067-1.123-2.711-2.554-4.729-3.628z" fill="#C78E08"/><path d="M342.707 168.785l-.153.288c.356.374.423.595.558 1.037l.153-.288c-.067-.221-.202-.663-.558-1.037zm.778.971l-.153.288.27.884.153-.289-.27-.883z" fill="#C78E08"/><path d="M343.535 170.707l-.153.288c.067.221-.086.509-.239.798l.153-.289c.374-.355.306-.576.239-.797zm-15.026-6.523l-.153.289c.698-1.663 4.414-1.349 8.315.358l.153-.288c-3.9-1.707-7.396-2.089-8.315-.359z" fill="#C78E08"/><path d="M328.509 164.184l-.153.289c.698-1.663 4.414-1.349 8.315.358l.153-.288c-3.9-1.707-7.396-2.089-8.315-.359z" fill="#C78E08"/><path d="M324.254 162.103l-.153.288c1.379-2.596 7.572-2.072 14.067 1.017 6.494 3.089 10.83 7.804 9.519 10.62l.153-.288c1.379-2.596-2.957-7.31-9.519-10.62-6.562-3.31-12.755-3.834-14.067-1.017z" fill="#C78E08"/><path d="M324.254 162.103l-.153.288c1.379-2.596 7.572-2.072 14.067 1.017 3.679 1.775 6.832 4.194 8.457 6.354l.153-.288c-1.625-2.161-4.557-4.647-8.457-6.354-6.562-3.31-12.755-3.834-14.067-1.017z" fill="#C78E08"/><path d="M346.777 169.474l-.153.288c.423.596.847 1.191.982 1.633l.153-.288c-.203-.663-.626-1.258-.982-1.633z" fill="#C78E08"/><path d="M347.759 171.107l-.153.289.405 1.325.153-.288-.405-1.326z" fill="#C78E08"/><path d="M348.164 172.432l-.154.289c.135.442-.018.73-.171 1.018l.153-.288c-.067-.221.018-.73.172-1.019zm-12.658-1.931l-.153.289c.509.086 1.018.172 1.171-.116l.154-.289c-.221.068-.663.203-1.172.116z" fill="#C78E08"/><path d="M335.506 170.501l-.153.289c.509.086 1.018.172 1.171-.116l.154-.289c-.221.068-.663.203-1.172.116zm-1.931-1.583l-.153.288c-.153.289.203.663.558 1.038l.154-.289c-.424-.595-.559-1.037-.559-1.037z" fill="#C78E08"/><path d="M333.575 168.918l-.153.289.067.22.086-.509z" fill="#C78E08"/><path d="M333.575 168.918l-.153.289.067.22.086-.509c.068.221 0 0 0 0z" fill="#C78E08"/><path d="M333.642 169.139l-.154.289.068.221.153-.289-.067-.221zm.068.221l-.153.289c.067.221.355.374.355.374l.154-.288c-.068-.221-.068-.221-.356-.375z" fill="#C78E08"/><path d="M331.569 161.558c2.035.345 4.206 1.131 6.445 2.138 2.305 1.228 4.391 2.524 5.746 3.801.644.528 1.067 1.123 1.423 1.498 1.135 1.344 1.54 2.67.859 3.602-.68.933-1.716 1.491-3.396 1.521l-2.189-.056c-2.036-.344-4.207-1.13-6.445-2.138-2.306-1.228-4.391-2.523-5.747-3.8-.644-.528-1.067-1.124-1.423-1.498-1.134-1.344-1.539-2.67-.859-3.603.46-.865 1.716-1.49 3.397-1.52.662-.203 1.391-.184 2.189.055zm2.258 8.973l.307-.576c-.356-.375-.712-.749-.558-1.038.153-.288.882-.27 1.747.191.865.461 1.288 1.056 1.135 1.344-.153.289-.662.203-1.171.117l-.307.576c3.9 1.708 7.328 1.868 8.315.359.699-1.663-1.571-4.352-5.318-6.347l-.306.576c.355.375.711.749.558 1.038-.153.288-.883.27-1.748-.191-.864-.461-1.288-1.056-1.134-1.344.153-.289.662-.203 1.171-.117l.306-.576c-3.9-1.708-7.328-1.868-8.314-.359-.767 1.442 1.791 4.284 5.317 6.347z" fill="#F9EA34"/><path d="M325.914 162.804l-.153.288c-.46.865-.055 2.191.859 3.603.424.595.779.97 1.423 1.497 1.356 1.277 3.441 2.573 5.747 3.801 2.305 1.228 4.63 1.726 6.445 2.138.729.018 1.526.258 2.189.056 1.68-.03 3.004-.435 3.396-1.521l.154-.289c-.46.866-1.717 1.491-3.397 1.521l-2.189-.056c-2.036-.344-4.207-1.13-6.445-2.137-2.306-1.228-4.391-2.524-5.747-3.801-.644-.528-1.067-1.123-1.423-1.498-.913-1.412-1.319-2.737-.859-3.602z" fill="#C78E08"/><path d="M325.917 162.803l-.154.288c-.153.289-.306.577-.171 1.019l.153-.288c-.135-.442.018-.731.172-1.019z" fill="#C78E08"/><path d="M325.744 163.822l-.153.288c.135.442-.018.73.337 1.105l.154-.288c-.356-.375-.491-.817-.338-1.105zm.339 1.104l-.154.289c.135.442.491.816.914 1.411l.154-.288c-.644-.528-.779-.97-.914-1.412z" fill="#C78E08"/><path d="M326.775 166.405l-.153.289c.423.595.779.97 1.423 1.498 1.356 1.277 3.441 2.572 5.747 3.8 2.305 1.228 4.629 1.726 6.445 2.138.729.019 1.526.258 2.189.056 1.68-.03 3.004-.435 3.396-1.521l.153-.288c-.459.865-1.716 1.49-3.396 1.521l-2.189-.056c-2.036-.345-4.207-1.131-6.445-2.138-2.306-1.228-4.391-2.524-5.747-3.801-.355-.374-.999-.902-1.423-1.498z" fill="#C78E08"/><path d="M350.01 174.526c-1.465 3.105-9.117 2.544-16.764-1.159-7.648-3.703-12.763-9.388-11.298-12.493 1.465-3.104 9.117-2.543 16.764 1.159 7.715 3.924 12.763 9.388 11.298 12.493zm-16.593-2.178l.288.153.289.154c6.494 3.089 12.62 3.392 13.778.864 1.379-2.596-2.957-7.31-9.519-10.62-6.495-3.089-12.909-3.545-14.067-1.017-1.091 2.749 2.957 7.31 9.231 10.466z" fill="#F9EA34"/><path opacity=".47" d="M331.041 162.203l-.54-1.767-1.987.607 1.699-.761-3.189-.958 3.121.737-3.017-1.977 3.238 1.91-1.337-2.007 1.558 1.939.833-1.221-.545 1.375 2.698.142-2.41.011 3.171 1.689-3.103-1.468 2.067 2.026-2.288-1.958.031 1.681z" fill="#fff"/><path opacity=".2" d="M331.473 168.352c7.715 3.924 15.3 4.264 16.765 1.159l.153-.288c1.625 2.161 2.454 4.082 1.687 5.524-1.464 3.105-9.049 2.765-16.764-1.159-7.427-3.771-12.407-9.013-11.451-12.204 1.914 2.314 5.422 5.108 9.61 6.968z" fill="#A97607"/><path d="M321.792 166.782c-5.242-6.169-2.894-11.227 5.416-11.107 8.094.019 19.064 5.11 24.259 11.378s2.894 11.227-5.416 11.108c-8.095-.02-19.064-5.111-24.259-11.379z" fill="#FFF066"/><path d="M322.04 166.245c-5.298-6.047-3.044-10.904 5.209-10.662l19.052 22.037c-8.037-.142-19.007-5.233-24.261-11.375z" fill="#FFCD40"/><path d="M324.33 166.381c-4.399-5.166-2.499-9.262 4.458-9.043 6.956.219 16.205 4.511 20.605 9.678 4.399 5.167 2.498 9.262-4.458 9.043-6.957-.219-16.206-4.511-20.605-9.678z" fill="#FFCD40"/><path d="M324.329 166.383c-4.399-5.167-2.498-9.262 4.458-9.043l16.362 18.82c-7.172-.319-16.421-4.611-20.82-9.777z" fill="#FFA943"/><path d="M346.84 171.389l-2.195-.903c-.348.186-1.126.172-1.986-.227-1.075-.499-1.974-1.379-1.753-1.856.221-.476 1.302-.553 2.378-.054.86.4 1.417.89 1.715 1.375l2.195.903c.2-2.685-3.521-6.495-8.772-8.701-5.251-2.205-10.221-2.197-11.497-.011l2.195.903c.348-.186 1.126-.172 1.986.227 1.075.499 1.974 1.38 1.753 1.856-.221.476-1.302.553-2.378.054-.86-.4-1.417-.889-1.715-1.375l-2.195-.903c-.2 2.685 3.521 6.496 8.772 8.701s10.177 2.292 11.497.011z" fill="#FFF066"/><path d="M246.843 139.57l-1.625-.687-5.147-2.175c2.131 1.379 1.429 9.064-1.857 17.572-3.287 8.508-8.01 15.132-10.563 14.372l5.262 1.905 1.276.379c2.631.953 8.245-5.135 11.646-13.914 3.401-8.779 2.716-15.453 1.008-17.452z" fill="#FFCD40"/><path d="M240.408 136.708c-3.647-1.395-9.371 4.689-12.784 13.589-3.413 8.9-3.223 17.245.425 18.64 3.647 1.394 9.371-4.69 12.784-13.59 3.413-8.9 3.223-17.245-.425-18.639z" fill="#E0B310"/><path d="M240.185 137.291c-3.54-1.354-9.076 4.503-12.366 13.081-3.29 8.578-3.087 16.63.453 17.983 3.54 1.354 9.077-4.503 12.367-13.081 3.289-8.578 3.086-16.63-.454-17.983z" fill="#F9EA34"/><path d="M239.962 137.873c-3.433-1.312-8.783 4.317-11.949 12.574-3.167 8.256-2.951 16.013.482 17.326 3.433 1.312 8.783-4.317 11.949-12.573 3.166-8.257 2.95-16.014-.482-17.327z" fill="#C78E08"/><path d="M228.889 150.659c-2.828 7.425-2.721 14.333.144 15.863l-.271-.114c-3.173-1.181-3.357-8.283-.415-15.978 2.942-7.696 7.826-12.815 10.999-11.634l.271.114c-3.209-.717-7.901 4.324-10.728 11.749z" fill="#A97607"/><path opacity=".2" d="M235.33 157.691c3.401-8.779 3.134-17.192-.309-18.488l-.271-.114c2.116-1.979 4.159-3.032 5.784-2.345 3.715 1.41 3.904 9.631.31 18.488-3.287 8.508-8.708 14.518-12.459 13.571 2.695-2.213 5.073-6.317 6.945-11.112z" fill="#A97607"/><path d="M229.414 165.247c3.172 1.181 7.556-3.511 10.154-10.394 2.598-6.884 2.455-13.329-.254-14.474l-.271-.114c2.902 1.066 2.852 7.59.254 14.473-2.598 6.884-6.982 11.576-9.883 10.509z" fill="#C78E08"/><path d="M229.414 165.247c.542.229 1.005.266 1.469.302l-.271-.115c-.386.157-.656.042-1.198-.187z" fill="#C78E08"/><path d="M230.612 165.435c.656-.042 1.12-.006 1.62-.433l-.271-.114c-.307.349-.886.583-1.349.547z" fill="#C78E08"/><path d="M232.039 165.08c.85-.12 1.35-.547 1.85-.974l-.27-.114c-.501.427-1.079.661-1.58 1.088zm1.502-1.281c2.387-1.864 4.499-4.963 6.027-8.946 2.598-6.883 2.455-13.329-.254-14.474l-.271-.114c2.902 1.066 2.852 7.59.254 14.474-1.528 3.983-3.562 7.274-5.756 9.06z" fill="#C78E08"/><path d="M239.589 138.845c-3.218-1.231-8.227 4.03-11.188 11.751-2.96 7.72-2.752 14.976.467 16.207 3.218 1.23 8.227-4.031 11.188-11.751 2.96-7.721 2.752-14.977-.467-16.207z" fill="#E0B310"/><path d="M232.107 153.616l.271.114c.271.114.771-.313 1.115-1.125.345-.812.303-1.468.032-1.583l-.27-.114c.27.114.312.77-.032 1.583-.345.812-.845 1.239-1.116 1.125z" fill="#C78E08"/><path d="M232.108 153.617l.271.115.193-.078-.464-.037z" fill="#C78E08"/><path d="M232.3 153.54l.271.114.193-.078-.464-.036z" fill="#C78E08"/><path d="M232.3 153.54l.271.114.193-.078-.271-.114-.193.078z" fill="#C78E08"/><path d="M232.493 153.461l.271.115c.115-.271.422-.62.73-.969.344-.812.303-1.468.032-1.582l-.271-.115c.271.115.312.771-.032 1.583-.115.271-.344.812-.73.968zm-.744-2.392l.271.115c1.492-3.52 3.723-5.77 5.27-5.276l-.271-.114c-1.547-.494-3.778 1.755-5.27 5.275z" fill="#C78E08"/><path d="M231.749 151.069l.271.115c.803-1.896 1.955-3.484 2.878-4.531l-.271-.114c-.922 1.047-2.075 2.635-2.878 4.53z" fill="#C78E08"/><path d="M234.705 146.731l.271.114c.307-.349.5-.427.886-.583l-.271-.115c-.193.079-.579.235-.886.584zm.809-.776l.271.115.771-.313-.271-.114-.771.312z" fill="#C78E08"/><path d="M236.362 145.835l.271.114c.193-.078.464.037.735.151l-.271-.114c-.349-.307-.542-.229-.735-.151zm-4.653 13.998l.271.114c-1.548-.494-1.562-3.852-.341-7.487l-.271-.114c-1.22 3.634-1.284 6.8.341 7.487z" fill="#C78E08"/><path d="M231.709 159.833l.271.114c-1.548-.494-1.562-3.852-.341-7.487l-.271-.114c-1.22 3.634-1.284 6.8.341 7.487z" fill="#C78E08"/><path d="M230.18 163.814l.271.115c-2.438-1.03-2.462-6.627-.208-12.699 2.254-6.071 6.137-10.336 8.768-9.384l-.271-.114c-2.438-1.03-6.321 3.235-8.768 9.384-2.446 6.149-2.423 11.746.208 12.698z" fill="#C78E08"/><path d="M230.18 163.814l.271.115c-2.438-1.03-2.462-6.627-.208-12.699 1.299-3.441 3.218-6.461 5.026-8.092l-.271-.114c-1.808 1.63-3.805 4.458-5.026 8.092-2.446 6.149-2.423 11.746.208 12.698z" fill="#C78E08"/><path d="M234.999 143.024l.27.115c.501-.427 1.001-.854 1.387-1.01l-.271-.115c-.578.234-1.079.662-1.386 1.01z" fill="#C78E08"/><path d="M236.385 142.015l.271.114 1.157-.468-.271-.115-1.157.469zm1.157-.469l.271.114c.385-.156.656-.042.927.073l-.271-.115c-.193.078-.656.042-.927-.072zm-.725 11.507l.271.114c.037-.463.074-.927-.197-1.041l-.271-.114c.078.192.234.577.197 1.041z" fill="#C78E08"/><path d="M236.817 153.053l.271.114c.037-.463.074-.927-.197-1.041l-.271-.114c.078.192.234.577.197 1.041zm-1.266 1.858l.271.114c.271.115.579-.234.886-.583l-.271-.115c-.5.427-.886.584-.886.584z" fill="#C78E08"/><path d="M235.551 154.911l.271.115.193-.078-.464-.037z" fill="#C78E08"/><path d="M235.551 154.911l.271.115.193-.078-.464-.037c.193-.078 0 0 0 0zm.193-.078l.271.115.193-.078-.271-.115-.193.078zm.193-.078l.271.114c.193-.078.308-.349.308-.349l-.271-.114c-.193.078-.193.078-.308.349z" fill="#C78E08"/><path d="M229.109 157.297c.147-1.853.679-3.863 1.405-5.951.918-2.166 1.914-4.14 2.951-5.457.422-.62.923-1.047 1.23-1.396 1.116-1.124 2.273-1.593 3.163-1.057.891.536 1.474 1.421 1.635 2.925l.124 1.968c-.147 1.854-.679 3.864-1.404 5.952-.918 2.166-1.914 4.139-2.952 5.457-.422.619-.922 1.046-1.23 1.395-1.115 1.125-2.272 1.594-3.163 1.058-.813-.344-1.474-1.421-1.635-2.926-.234-.578-.275-1.234-.124-1.968zm7.869-2.74l-.542-.229c-.307.349-.615.698-.886.583-.271-.114-.312-.77.032-1.583.344-.812.845-1.239 1.116-1.124.271.114.234.577.197 1.041l.542.229c1.221-3.635 1.092-6.722-.341-7.487-1.547-.494-3.778 1.755-5.269 5.275l.541.229c.308-.349.615-.697.886-.583.271.114.313.77-.032 1.583-.344.812-.844 1.239-1.115 1.125-.271-.115-.234-.578-.198-1.042l-.541-.229c-1.221 3.635-1.092 6.722.34 7.487 1.354.573 3.7-1.948 5.27-5.275z" fill="#F9EA34"/><path d="M230.677 162.27l.271.114c.812.344 1.969-.125 3.163-1.057.5-.427.808-.776 1.23-1.396 1.038-1.317 2.034-3.291 2.952-5.457.918-2.166 1.179-4.29 1.404-5.951-.041-.656.11-1.39-.124-1.968-.161-1.505-.629-2.661-1.635-2.926l-.271-.114c.813.343 1.474 1.421 1.635 2.925l.124 1.968c-.147 1.854-.679 3.864-1.404 5.952-.918 2.166-1.914 4.139-2.952 5.457-.422.619-.922 1.046-1.23 1.395-1.194.932-2.35 1.401-3.163 1.058z" fill="#C78E08"/><path d="M230.676 162.268l.271.114c.271.115.542.229.927.073l-.271-.114c-.385.156-.656.041-.927-.073z" fill="#C78E08"/><path d="M231.604 162.342l.27.114c.386-.156.657-.042.964-.391l-.27-.114c-.308.349-.694.505-.964.391zm.963-.392l.271.115c.386-.156.694-.505 1.194-.932l-.271-.115c-.422.62-.808.776-1.194.932z" fill="#C78E08"/><path d="M233.839 161.21l.271.115c.5-.427.808-.776 1.23-1.396 1.037-1.317 2.034-3.291 2.952-5.457.917-2.166 1.179-4.29 1.404-5.951-.042-.656.11-1.39-.124-1.968-.161-1.505-.63-2.66-1.635-2.926l-.271-.114c.813.343 1.474 1.421 1.635 2.926l.124 1.968c-.147 1.853-.679 3.863-1.404 5.951-.918 2.166-1.914 4.139-2.952 5.457-.307.349-.73.968-1.23 1.395z" fill="#C78E08"/><path d="M239.273 139.723c2.901 1.066 3.007 7.975.295 15.129-2.713 7.155-7.404 12.196-10.306 11.129-2.901-1.067-3.008-7.975-.295-15.13 2.905-7.232 7.404-12.195 10.306-11.128zm-.633 15.057l.115-.271.115-.271c2.254-6.071 2.037-11.59-.323-12.427-2.437-1.031-6.321 3.234-8.767 9.384-2.254 6.071-2.152 11.86.207 12.698 2.553.76 6.322-3.235 8.653-9.113z" fill="#F9EA34"/><path opacity=".47" d="M229.73 157.719l-1.543.625.703 1.734-.817-1.463-.606 2.936.413-2.858-1.533 2.864 1.455-3.057-1.694 1.36 1.616-1.552-1.162-.651 1.277.38-.088-2.431.202 2.16 1.263-2.978-1.07 2.9 1.653-2.015-1.575 2.208 1.506-.162z" fill="#fff"/><path opacity=".2" d="M235.211 156.842c2.906-7.232 2.607-14.063-.295-15.13l-.271-.114c1.809-1.63 3.466-2.526 4.821-1.954 2.901 1.067 3.2 7.898.295 15.13-2.791 6.962-7.097 11.846-10.035 11.243 1.923-1.901 4.15-5.27 5.485-9.175z" fill="#A97607"/><path d="M234.574 165.653c-5.117 5.192-9.84 3.489-10.395-3.974-.627-7.262 3.066-17.507 8.275-22.666 5.208-5.159 9.84-3.49 10.394 3.973.627 7.263-3.066 17.508-8.274 22.667z" fill="#FFF066"/><path d="M234.072 165.473c-5.002 5.233-9.538 3.598-9.978-3.824l18.249-18.844c.513 7.221-3.18 17.466-8.271 22.668z" fill="#FFCD40"/><path d="M234.012 163.407c-4.284 4.358-8.109 2.979-8.466-3.278-.358-6.258 2.756-14.895 7.04-19.253 4.284-4.357 8.108-2.978 8.466 3.279.358 6.257-2.756 14.895-7.04 19.252z" fill="#FFCD40"/><path d="M234.013 163.408c-4.284 4.358-8.108 2.979-8.466-3.278l15.579-16.175c.285 6.458-2.829 15.096-7.113 19.453z" fill="#FFA943"/><path d="M236.711 142.817l-.635 2.041c.194.297.244.996-.046 1.8-.362 1.004-1.079 1.88-1.524 1.72-.445-.16-.6-1.124-.238-2.129.29-.803.685-1.342 1.096-1.647l.636-2.041c-2.425.034-5.546 3.675-7.106 8.561-1.56 4.885-1.157 9.343.905 10.313l.635-2.041c-.194-.297-.244-.995.046-1.799.362-1.004 1.08-1.881 1.525-1.72.444.16.599 1.124.237 2.128-.289.804-.684 1.342-1.096 1.648l-.635 2.041c2.424-.034 5.546-3.676 7.106-8.561 1.559-4.885 1.245-9.311-.906-10.314z" fill="#FFF066"/><path d="M242.231 356.076l.034-1.765.118-4.586c-.489 2.49-7.885 4.693-17.005 4.803-9.12.109-17.024-1.816-17.267-4.468l.186 5.592.111.326c.093 2.796 7.841 6.747 17.255 6.644 9.414-.103 15.346-4.218 16.568-6.546z" fill="#FFCD40"/><path d="M242.508 350.038c-.06-3.905-7.835-6.959-17.366-6.821-9.53.137-17.208 3.413-17.148 7.317.06 3.905 7.835 6.959 17.366 6.822 9.531-.138 17.208-3.414 17.148-7.318z" fill="#E0B310"/><path d="M241.884 350.047c-.059-3.789-7.553-6.754-16.739-6.622-9.187.132-16.586 3.311-16.528 7.101.058 3.789 7.553 6.754 16.739 6.622 9.186-.132 16.586-3.311 16.528-7.101z" fill="#F9EA34"/><path d="M241.26 350.056c-.057-3.675-7.27-6.551-16.112-6.424-8.842.128-15.964 3.21-15.907 6.884.056 3.675 7.27 6.551 16.112 6.424 8.842-.127 15.964-3.21 15.907-6.884z" fill="#C78E08"/><path d="M225.276 344.525c-7.944.133-14.319 2.798-14.675 6.026l.006-.294c-.082-3.384 6.443-6.193 14.681-6.32 8.238-.127 14.805 2.506 14.887 5.89l-.006.294c-.526-3.246-6.949-5.729-14.893-5.596z" fill="#A97607"/><path opacity=".2" d="M221.14 353.118c9.414-.104 17.126-3.477 17.05-7.155l.006-.294c2.623 1.229 4.359 2.735 4.325 4.499.071 3.973-7.492 7.202-17.05 7.155-9.12.109-16.713-2.692-17.228-6.526 3.056 1.68 7.749 2.363 12.897 2.321z" fill="#A97607"/><path d="M211.927 350.431c.081 3.384 6.066 5.712 13.422 5.567 7.356-.145 13.287-2.672 13.344-5.613l.006-.294c.087 3.091-5.988 5.468-13.344 5.613-7.356.145-13.341-2.183-13.428-5.273z" fill="#C78E08"/><path d="M211.926 350.431c-.011.588.128 1.032.266 1.476l.006-.294c-.288-.3-.283-.594-.272-1.182zm.272 1.182c.282.594.421 1.038 1.003 1.344l.006-.294c-.438-.156-.871-.606-1.009-1.05z" fill="#C78E08"/><path d="M213.057 352.807c.427.744 1.009 1.05 1.592 1.356l.005-.294c-.582-.306-1.014-.756-1.597-1.062zm1.747.918c2.618 1.524 6.279 2.333 10.545 2.273 7.356-.145 13.287-2.672 13.344-5.612l.005-.294c.088 3.09-5.987 5.467-13.343 5.612-4.266.06-8.077-.605-10.551-1.979z" fill="#C78E08"/><path d="M240.22 350.071c-.053-3.445-6.798-6.141-15.066-6.022-8.268.119-14.927 3.008-14.874 6.453.053 3.445 6.798 6.142 15.066 6.023 8.268-.119 14.927-3.009 14.874-6.454z" fill="#E0B310"/><path d="M223.727 348.611l-.006.294c-.006.294.577.6 1.459.618.882.018 1.475-.264 1.481-.558l.006-.294c-.006.294-.6.576-1.482.558-.882-.018-1.464-.324-1.458-.618z" fill="#C78E08"/><path d="M223.725 348.612l-.006.294.145.15-.139-.444z" fill="#C78E08"/><path d="M223.869 348.763l-.006.294.144.15-.138-.444z" fill="#C78E08"/><path d="M223.869 348.763l-.006.294.144.15.006-.294-.144-.15zm.144.15l-.006.294c.294.006.733.162 1.171.317.882.018 1.476-.264 1.481-.558l.006-.294c-.006.294-.599.576-1.481.558-.295-.005-.883-.017-1.171-.317zm1.944-1.58l-.005.294c3.822.077 6.739 1.313 6.855 2.933l.006-.294c-.116-1.62-3.033-2.856-6.856-2.933z" fill="#C78E08"/><path d="M225.957 347.333l-.005.294c2.058.041 3.96.521 5.275.989l.006-.294c-1.315-.468-3.217-.948-5.276-.989z" fill="#C78E08"/><path d="M231.083 348.465l-.005.294c.438.156.582.306.87.606l.006-.294c-.144-.15-.432-.45-.871-.606zm1.021.463l-.006.294.577.6.006-.294-.577-.6z" fill="#C78E08"/><path d="M232.531 349.672l-.006.294c.145.15.139.444.133.738l.006-.294c.155-.438.011-.588-.133-.738zm-14.725.879l-.006.294c-.115-1.62 2.997-2.881 6.825-3.098l.006-.294c-3.828.217-6.791 1.333-6.825 3.098z" fill="#C78E08"/><path d="M217.806 350.551l-.006.294c-.115-1.62 2.997-2.881 6.825-3.098l.006-.294c-3.828.217-6.791 1.333-6.825 3.098z" fill="#C78E08"/><path d="M213.542 350.611l-.006.294c.051-2.647 5.239-4.747 11.712-4.91 6.474-.163 11.877 1.858 11.97 4.654l.006-.294c.051-2.646-5.352-4.667-11.97-4.654-6.618.013-11.806 2.113-11.712 4.91z" fill="#C78E08"/><path d="M213.542 350.611l-.006.294c.051-2.647 5.239-4.747 11.712-4.91 3.678-.073 7.195.587 9.381 1.661l.005-.295c-2.185-1.073-5.552-1.877-9.38-1.66-6.618.013-11.806 2.113-11.712 4.91z" fill="#C78E08"/><path d="M234.634 347.362l-.006.294c.582.306 1.165.612 1.453.912l.006-.294c-.433-.45-1.015-.756-1.453-.912z" fill="#C78E08"/><path d="M236.086 348.274l-.005.294.865.9.005-.294-.865-.9z" fill="#C78E08"/><path d="M236.951 349.174l-.005.294c.288.3.282.594.277.888l.005-.294c-.144-.15-.282-.594-.277-.888zm-10.953 3.601l-.005.294c.444-.138.888-.276.893-.57l.006-.294c-.15.144-.45.432-.894.57z" fill="#C78E08"/><path d="M225.998 352.775l-.005.294c.444-.138.888-.276.893-.57l.006-.294c-.15.144-.45.432-.894.57zm-2.195-.485l-.005.294c-.006.294.432.45.87.606l.006-.294c-.582-.306-.871-.606-.871-.606z" fill="#C78E08"/><path d="M223.803 352.29l-.006.294.144.15-.138-.444z" fill="#C78E08"/><path d="M223.803 352.29l-.006.294.144.15-.138-.444c.144.15 0 0 0 0zm.144.15l-.006.294.144.15.006-.294-.144-.15zm.144.15l-.005.294c.144.15.438.156.438.156l.005-.294c-.144-.15-.144-.15-.438-.156z" fill="#C78E08"/><path d="M219.195 347.196c1.775-.553 3.839-.805 6.047-.907 2.352.047 4.554.239 6.163.713.732.162 1.314.468 1.752.624 1.459.617 2.324 1.517 2.157 2.543-.166 1.027-.771 1.897-2.109 2.605l-1.781.846c-1.775.553-3.839.805-6.047.907-2.352-.048-4.554-.239-6.163-.713-.732-.162-1.314-.468-1.752-.624-1.459-.618-2.324-1.518-2.157-2.544.017-.882.771-1.896 2.109-2.604.449-.432 1.043-.714 1.781-.846zm5.467 6.287l.011-.588c-.438-.156-.876-.312-.87-.606.005-.294.599-.576 1.481-.558.882.018 1.464.324 1.459.618-.006.294-.45.432-.894.57l-.011.588c3.828-.217 6.646-1.483 6.825-3.097-.116-1.62-3.034-2.856-6.856-2.933l-.011.588c.438.156.876.312.871.606-.006.294-.6.576-1.482.558-.882-.018-1.464-.324-1.459-.618.006-.294.45-.432.894-.57l.011-.588c-3.828.216-6.646 1.483-6.824 3.097-.029 1.47 3.183 2.712 6.855 2.933z" fill="#F9EA34"/><path d="M215.16 350.498l-.006.294c-.017.882.848 1.782 2.157 2.544.583.306 1.021.462 1.753.624 1.609.473 3.811.665 6.163.713 2.352.047 4.421-.499 6.047-.907.594-.282 1.331-.414 1.781-.846 1.337-.709 2.236-1.573 2.109-2.605l.006-.294c-.017.882-.772 1.896-2.109 2.605l-1.781.846c-1.776.552-3.84.804-6.047.907-2.353-.048-4.555-.24-6.163-.713-.733-.162-1.315-.468-1.753-.624-1.309-.762-2.174-1.662-2.157-2.544z" fill="#C78E08"/><path d="M215.161 350.496l-.005.294c-.006.294-.012.588.277.888l.005-.294c-.288-.3-.282-.594-.277-.888z" fill="#C78E08"/><path d="M215.438 351.385l-.006.294c.288.3.283.594.721.75l.005-.294c-.438-.156-.726-.456-.72-.75z" fill="#C78E08"/><path d="M216.159 352.134l-.006.294c.288.3.726.456 1.309.762l.006-.294c-.733-.162-1.021-.462-1.309-.762z" fill="#C78E08"/><path d="M217.318 353.04l-.005.294c.582.306 1.02.462 1.752.624 1.609.474 3.811.665 6.163.713 2.352.048 4.422-.499 6.047-.907.594-.282 1.332-.414 1.781-.846 1.338-.708 2.237-1.573 2.109-2.605l.006-.294c-.017.882-.772 1.897-2.109 2.605l-1.781.846c-1.775.552-3.839.805-6.047.907-2.352-.048-4.554-.239-6.163-.713-.438-.156-1.17-.318-1.753-.624z" fill="#C78E08"/><path d="M239.287 350.103c.087 3.09-6.288 5.755-13.938 5.894-7.65.14-14.073-2.344-14.16-5.434-.088-3.09 6.287-5.755 13.937-5.894 7.794.011 14.073 2.344 14.161 5.434zm-14.215 5.006l.294.006.294.006c6.474-.163 11.518-2.413 11.419-4.916.051-2.646-5.352-4.667-11.97-4.654-6.474.163-11.811 2.408-11.712 4.91.243 2.652 5.351 4.667 11.675 4.648z" fill="#F9EA34"/><path opacity=".47" d="M219.034 347.928l-1.154-1.2-1.348 1.296 1.054-1.302-2.951.529 2.807-.679-3.228-.359 3.378.215-1.891-1.068 2.041.924.172-1.32.122 1.326 2.225-.984-1.931.99 3.234.066-3.09.084 2.485.786-2.635-.642.71 1.338z" fill="#fff"/><path opacity=".2" d="M221.884 352.692c7.794.011 14.025-2.804 13.937-5.895l.006-.294c2.185 1.074 3.633 2.28 3.604 3.75.088 3.09-6.143 5.905-13.937 5.894-7.5-.005-13.635-2.188-14.166-5.14 2.479 1.08 6.434 1.895 10.556 1.685z" fill="#A97607"/><path d="M213.467 355.372c-6.721-2.821-6.895-7.84-.172-11.127 6.51-3.279 17.394-3.656 24.119-.737 6.724 2.92 6.895 7.84.171 11.127-6.509 3.28-17.393 3.657-24.118.737z" fill="#FFF066"/><path d="M213.448 354.84c-6.717-2.7-6.884-7.519-.156-10.685l24.274 9.944c-6.514 3.158-17.398 3.535-24.118.741z" fill="#FFCD40"/><path d="M215.343 354.017c-5.637-2.359-5.777-6.422-.101-9.079 5.677-2.656 14.853-2.974 20.49-.615 5.637 2.359 5.778 6.422.101 9.078-5.676 2.657-14.853 2.975-20.49.616z" fill="#FFCD40"/><path d="M215.343 354.018c-5.637-2.359-5.778-6.422-.101-9.078l20.805 8.455c-5.891 2.664-15.067 2.982-20.704.623z" fill="#FFA943"/><path d="M235.462 348.874l-2.13.169c-.204.291-.834.596-1.688.626-1.067.037-2.147-.304-2.164-.777-.016-.472.821-.974 1.888-1.011.854-.03 1.501.137 1.937.406l2.131-.169c-.932-2.238-5.472-3.783-10.588-3.417-5.115.367-9.104 2.397-9.239 4.672l2.131-.168c.204-.291.834-.597 1.688-.626 1.067-.037 2.147.304 2.163.776.016.472-.821.974-1.888 1.011-.853.03-1.5-.137-1.937-.405l-2.131.168c.933 2.238 5.473 3.784 10.588 3.417 5.115-.366 9.108-2.302 9.239-4.672z" fill="#FFF066"/><defs><radialGradient id="paint0_radial" cx="0" cy="0" r="1" gradientUnits="userSpaceOnUse" gradientTransform="matrix(-262.8394 -11.41147 7.99367 -184.11755 221.052 369.618)"><stop stop-color="#515AA5"/><stop offset="1" stop-color="#243248" stop-opacity="0"/></radialGradient><radialGradient id="paint1_radial" cx="0" cy="0" r="1" gradientUnits="userSpaceOnUse" gradientTransform="matrix(-115.918 0 0 -116.035 191.158 274.751)"><stop stop-color="#F9EA34"/><stop offset="1" stop-color="#EBCD24" stop-opacity="0"/></radialGradient><radialGradient id="paint2_radial" cx="0" cy="0" r="1" gradientUnits="userSpaceOnUse" gradientTransform="rotate(171.419 138.242 225.762) scale(311.117 97.8551)"><stop stop-color="#515AA5"/><stop offset="1" stop-color="#243248" stop-opacity="0"/></radialGradient><radialGradient id="paint3_radial" cx="0" cy="0" r="1" gradientUnits="userSpaceOnUse" gradientTransform="matrix(-18.21291 -2.14081 2.14297 -18.23129 216.366 258.389)"><stop stop-color="#fff"/><stop offset="1" stop-color="#FFE610" stop-opacity="0"/></radialGradient><radialGradient id="paint4_radial" cx="0" cy="0" r="1" gradientUnits="userSpaceOnUse" gradientTransform="matrix(-138.12799 -.06027 .0094 -21.5322 188.494 335.561)"><stop stop-color="#05060A"/><stop offset="1" stop-color="#33425A" stop-opacity="0"/></radialGradient><radialGradient id="paint5_radial" cx="0" cy="0" r="1" gradientUnits="userSpaceOnUse" gradientTransform="rotate(-179.969 174.305 212.733) scale(113.388 21.5322)"><stop stop-color="#05060A"/><stop offset="1" stop-color="#2B384E" stop-opacity="0"/></radialGradient><radialGradient id="paint6_radial" cx="0" cy="0" r="1" gradientUnits="userSpaceOnUse" gradientTransform="matrix(-15.8056 -.01048 .00243 -3.66505 427.499 426.011)"><stop stop-color="#05060A"/><stop offset="1" stop-color="#2B384E" stop-opacity="0"/></radialGradient><radialGradient id="paint7_radial" cx="0" cy="0" r="1" gradientUnits="userSpaceOnUse" gradientTransform="matrix(-15.8056 -.01048 .00243 -3.66505 320.499 458.011)"><stop stop-color="#05060A"/><stop offset="1" stop-color="#2B384E" stop-opacity="0"/></radialGradient><radialGradient id="paint8_radial" cx="0" cy="0" r="1" gradientUnits="userSpaceOnUse" gradientTransform="matrix(-15.8056 -.01048 .00243 -3.66505 98.5 343.011)"><stop stop-color="#05060A"/><stop offset="1" stop-color="#2B384E" stop-opacity="0"/></radialGradient><radialGradient id="paint9_radial" cx="0" cy="0" r="1" gradientUnits="userSpaceOnUse" gradientTransform="matrix(-15.8056 -.01048 .00243 -3.66505 164.499 347.011)"><stop stop-color="#05060A"/><stop offset="1" stop-color="#2B384E" stop-opacity="0"/></radialGradient><radialGradient id="paint10_radial" cx="0" cy="0" r="1" gradientUnits="userSpaceOnUse" gradientTransform="matrix(-15.8056 -.01048 .00243 -3.66505 269.499 427.011)"><stop stop-color="#05060A"/><stop offset="1" stop-color="#2B384E" stop-opacity="0"/></radialGradient><radialGradient id="paint11_radial" cx="0" cy="0" r="1" gradientUnits="userSpaceOnUse" gradientTransform="matrix(-15.8056 -.01048 .00243 -3.66505 290.499 400.011)"><stop stop-color="#05060A"/><stop offset="1" stop-color="#2B384E" stop-opacity="0"/></radialGradient><radialGradient id="paint17_radial" cx="0" cy="0" r="1" gradientUnits="userSpaceOnUse" gradientTransform="scale(122.914 127.067) rotate(90 .195 2.985)"><stop stop-color="#986BD1"/><stop offset=".383" stop-color="#515AA5"/><stop offset=".682" stop-color="#251538"/></radialGradient><radialGradient id="paint18_radial" cx="0" cy="0" r="1" gradientUnits="userSpaceOnUse" gradientTransform="scale(96.4294 66.0336) rotate(90 -.61 4.393)"><stop stop-color="#986BD1"/><stop offset=".383" stop-color="#515AA5"/><stop offset=".682" stop-color="#251538"/></radialGradient><radialGradient id="paint19_radial" cx="0" cy="0" r="1" gradientUnits="userSpaceOnUse" gradientTransform="matrix(0 155.222 -118.527 0 303.43 341.178)"><stop stop-color="#986BD1"/><stop offset=".383" stop-color="#515AA5"/><stop offset=".682" stop-color="#251538"/></radialGradient><radialGradient id="paint20_radial" cx="0" cy="0" r="1" gradientUnits="userSpaceOnUse" gradientTransform="scale(92.2277 140.9) rotate(90 .494 3.186)"><stop stop-color="#986BD1"/><stop offset=".383" stop-color="#515AA5"/><stop offset=".682" stop-color="#251538"/></radialGradient><linearGradient id="paint12_linear" x1="462.5" y1="341" x2="462.513" y2="347.792" gradientUnits="userSpaceOnUse"><stop stop-color="#52658C"/><stop offset="1" stop-color="#33425A"/></linearGradient><linearGradient id="paint13_linear" x1="486.5" y1="260" x2="486.518" y2="269.262" gradientUnits="userSpaceOnUse"><stop stop-color="#52658C"/><stop offset="1" stop-color="#33425A"/></linearGradient><linearGradient id="paint14_linear" x1="450.5" y1="291" x2="450.513" y2="297.792" gradientUnits="userSpaceOnUse"><stop stop-color="#52658C"/><stop offset="1" stop-color="#33425A"/></linearGradient><linearGradient id="paint15_linear" x1="400.5" y1="231" x2="400.513" y2="237.792" gradientUnits="userSpaceOnUse"><stop stop-color="#52658C"/><stop offset="1" stop-color="#33425A"/></linearGradient><linearGradient id="paint16_linear" x1="412.5" y1="292" x2="412.513" y2="298.792" gradientUnits="userSpaceOnUse"><stop stop-color="#52658C"/><stop offset="1" stop-color="#33425A"/></linearGradient><linearGradient id="paint21_linear" x1="381.698" y1="200.296" x2="831.288" y2="-67.343" gradientUnits="userSpaceOnUse"><stop stop-color="#fff"/><stop offset="1" stop-color="#fff" stop-opacity=".5"/></linearGradient></defs></svg>