<svg width="488" height="419" fill="none" xmlns="http://www.w3.org/2000/svg"><path d="M419.301 270.4c-38.101 88.05-137.507 129.78-222.03 93.205-84.522-36.574-122.154-137.603-84.053-225.653 38.101-88.05 137.507-129.78 222.03-93.206C419.77 81.321 457.402 182.35 419.301 270.4z" fill="url(#paint0_radial)"/><path opacity=".4" d="M348.59 42.142c90.567 42.934 129.181 151.158 86.247 241.724-42.934 90.567-151.158 129.181-241.725 86.247-90.566-42.934-129.18-151.158-86.246-241.724C149.8 37.822 258.024-.791 348.59 42.142z" fill="url(#paint1_linear)"/><path opacity=".52" d="M233 419c80.081 0 145-10.521 145-23.5S313.081 372 233 372 88 382.521 88 395.5 152.919 419 233 419z" fill="url(#paint2_radial)"/><g clip-path="url(#clip0)"><path d="M38.665 91.62l-6.982-3.116-3.186 7.137 6.982 3.117 3.186-7.138z" fill="url(#paint3_linear)"/><path d="M88.032 116.751L72.905 110 66 125.471l15.127 6.752 6.905-15.472z" fill="url(#paint4_linear)"/><path d="M249.5 381.5l36.998-82.5-34.998-14-36.5 81.5 34.5 15z" fill="url(#paint5_linear)"/><path d="M257.742 192.751c6.239-10.17 5.676-21.865-1.26-26.122-6.935-4.258-17.616.535-23.856 10.704-6.24 10.169-5.676 21.865 1.259 26.122 6.936 4.257 17.617-.535 23.857-10.704z" fill="#191818"/><path opacity=".5" d="M241.293 183.623c4.139-8.785 5.393-16.897 2.8-18.119-2.593-1.223-8.051 4.908-12.19 13.693-4.14 8.784-5.394 16.897-2.801 18.119 2.593 1.223 8.051-4.908 12.191-13.693z" fill="#19A1A2"/><path d="M240.451 183.272c4.141-8.784 5.396-16.897 2.803-18.12-2.593-1.222-8.052 4.908-12.193 13.693-4.14 8.784-5.395 16.897-2.802 18.12 2.593 1.222 8.052-4.908 12.192-13.693z" fill="#17A5BA"/><path d="M237.354 180.539c3.234-6.86 4.228-13.189 2.22-14.135-2.007-.947-6.256 3.847-9.49 10.708-3.234 6.86-4.228 13.189-2.22 14.135 2.007.947 6.256-3.847 9.49-10.708z" fill="#191818"/><path d="M291.271 127.81l-12.836 32.528-3.671-.311 13.255-33.5 3.252 1.283z" fill="url(#paint6_linear)"/><path d="M275.335 159.235l2.765 1.074c.654.224 1.349-.053 1.573-.707.223-.653-.054-1.349-.707-1.572l-2.78-.908c-.653-.223-1.349.054-1.572.707-.209.487.068 1.182.721 1.406z" fill="url(#paint7_linear)"/><path d="M276.632 155.815l2.766 1.074c.653.224 1.349-.053 1.572-.707.223-.653-.054-1.349-.707-1.572l-2.766-1.075c-.653-.223-1.348.054-1.572.707-.056.668.221 1.364.707 1.573z" fill="url(#paint8_linear)"/><path d="M278.096 152.41l2.765 1.074c.653.224 1.349-.053 1.572-.707.224-.653-.053-1.349-.707-1.572l-2.765-1.075c-.653-.223-1.349.054-1.572.707-.224.654.053 1.349.707 1.573z" fill="url(#paint9_linear)"/><path d="M279.394 148.99l2.766 1.074c.653.224 1.348-.054 1.572-.707.223-.653-.054-1.349-.707-1.573l-2.766-1.074c-.653-.223-1.349.054-1.572.707-.223.653.054 1.349.707 1.573z" fill="url(#paint10_linear)"/><path d="M280.695 145.57l2.765 1.075c.654.223 1.349-.054 1.573-.707.223-.654-.054-1.35-.707-1.573l-2.766-1.074c-.653-.224-1.349.053-1.572.707-.057.667.22 1.363.707 1.572z" fill="url(#paint11_linear)"/><path d="M282.157 142.165l2.766 1.074c.653.224 1.349-.054 1.572-.707.223-.653-.054-1.349-.707-1.572l-2.766-1.075c-.653-.223-1.348.054-1.572.707-.223.654.054 1.349.707 1.573z" fill="url(#paint12_linear)"/><path d="M283.456 138.745l2.765 1.075c.653.223 1.349-.054 1.572-.707.224-.654-.053-1.35-.707-1.573l-2.765-1.074c-.653-.224-1.349.053-1.572.707-.224.653.053 1.349.707 1.572z" fill="url(#paint13_linear)"/><path d="M284.753 135.326l2.765 1.075c.654.223 1.349-.054 1.573-.708.223-.653-.054-1.349-.707-1.572l-2.766-1.075c-.653-.223-1.349.054-1.572.708-.057.667.22 1.363.707 1.572z" fill="url(#paint14_linear)"/><path d="M286.22 131.921l2.765 1.074c.654.224 1.349-.054 1.572-.707.224-.653-.053-1.349-.707-1.572l-2.765-1.075c-.653-.223-1.349.054-1.572.707-.224.654.053 1.349.707 1.573z" fill="url(#paint15_linear)"/><path d="M289.781 129.533a3.181 3.181 0 003.438-2.902 3.18 3.18 0 10-6.34-.537 3.182 3.182 0 002.902 3.439z" fill="url(#paint16_linear)"/><path d="M237.231 198.362c-16.226 40.812-2.145 84.863 31.514 98.133 33.66 13.271 74.028-9.025 90.254-49.837 16.227-40.812 2.146-84.863-31.514-98.133-33.645-13.438-74.027 9.025-90.254 49.837z" fill="#fff"/><path fill-rule="evenodd" clip-rule="evenodd" d="M251.529 284.749c33.566 12.888 73.64-9.391 89.793-50.017 13.011-32.723 6.536-67.53-13.893-86.881.156.06.311.121.466.183 33.659 13.271 47.74 57.322 31.514 98.134-16.227 40.811-56.191 63.832-90.254 49.837-6.673-2.631-12.576-6.471-17.626-11.256z" fill="#BDBDBD"/><path d="M276.385 253.948c-2.588.789-4.938.758-7.217-.107 0 0-26.802-14.875-28.134-17.005l-1.332-2.129c-2.927-5.122-2.958-12.688-.182-19.68l3.195-7.965c.447-1.307.306.362 1.086-.917l22.691-39.76c3.15-5.448 7.674-9.266 12.32-10.554 2.407-.636 4.575-.452 6.702.232l7.643 3 7.644 3c2.112.852 3.835 2.342 5.014 4.291 2.511 4.078 3.184 10.017 1.66 16.107l-10.822 44.463c-.28 1.321-.741 2.794-1.355 4.087l-3.195 7.965c-2.79 7.159-8.123 12.59-13.646 14.307l-2.072.665z" fill="url(#paint17_radial)"/><path d="M238.728 214.455c-2.986 7.479-2.997 15.545.235 21.029l1.332 2.13c1.471 2.477 3.346 4.149 5.625 5.014l22.815 12.353c2.279.865 4.962.924 7.55.135l2.42-.804c6.037-1.841 11.565-7.592 14.551-15.07l3.195-7.965c.628-1.46 1.075-2.767 1.369-4.254l10.822-44.463c1.567-6.59.908-12.697-1.742-17.123-1.332-2.13-3.207-3.801-5.319-4.652l-15.44-6.182c-2.113-.851-4.629-.896-7.036-.259-4.979 1.259-9.699 5.397-13.044 11.164l-22.691 39.76c-1.142 1.584-4.642 9.187-4.642 9.187zm5.864-7.739l22.691-39.76c2.955-5.128 7.117-8.641 11.415-9.79a9.955 9.955 0 016.202.189l15.439 6.182c1.946.837 3.515 2.146 4.695 4.095 2.358 3.897 2.907 9.322 1.578 15.092l-10.823 44.463c-.28 1.321-.712 2.461-1.159 3.767l-3.195 7.965c-2.581 6.673-7.552 11.798-12.727 13.377l-2.42.803c-2.407.637-4.59.62-6.702-.231l-22.801-12.52c-1.945-.837-3.668-2.327-5-4.457l-1.332-2.129c-2.788-4.774-2.862-11.84-.113-18.498.166.014 3.486-7.436 4.252-8.548z" fill="url(#paint18_linear)"/><path d="M240.631 233.609l1.332 2.129c1.165 2.116 2.887 3.606 4.999 4.458l22.815 12.352c1.946.837 4.296.868 6.702.231l2.42-.803c5.175-1.579 10.146-6.704 12.728-13.376l3.195-7.965c.446-1.307.879-2.447 1.159-3.768l10.822-44.463c1.329-5.77.78-11.194-1.578-15.092-1.179-1.948-2.916-3.272-4.694-4.095l-15.44-6.181c-1.946-.837-4.129-.854-6.201-.189-4.299 1.148-8.461 4.661-11.416 9.789l-22.691 39.761c-.599 1.125-4.085 8.562-4.085 8.562-2.93 6.81-2.856 13.876-.067 18.65zm1.114-1.25c-2.497-4.246-2.628-10.643-.089-16.815 0 0 3.292-7.117 3.891-8.242l22.691-39.76c2.579-4.656 6.379-7.864 10.343-9.041 2.059-.498 3.908-.509 5.687.314l15.44 6.181c1.793.656 3.195 1.952 4.222 3.719 2.22 3.55 2.644 8.46 1.358 13.729l-10.823 44.463c-.266 1.154-.698 2.294-1.131 3.434l-3.195 7.965c-2.358 6.018-6.786 10.686-11.613 12.126l-2.42.803c-2.073.665-4.256.648-6.035-.175l-22.634-12.505c-1.793-.656-3.348-2.132-4.527-4.081l-1.165-2.115z" fill="url(#paint19_linear)"/><path opacity=".1" d="M266.114 166.857l18.505 83.082c-1.809 1.528-3.924 2.693-5.997 3.358l-2.421.804c-2.587.789-4.937.758-7.216-.107l-6.569-5.767-12.315-54.994 16.013-26.376zm12.527-11.04c1.377-.388 2.559-.456 3.894-.343l15.259 67.849-.993 3.781c-.28 1.321-.74 2.795-1.354 4.088l-3.195 7.964c-.223.654-.614 1.293-.851 2.113l-18.395-82.4c1.809-1.527 3.743-2.54 5.635-3.052z" fill="#fff"/><path opacity=".5" d="M265.405 199.067c-3.014 7.812-1.162 15.7 4.217 17.669 5.378 1.968 12.156-2.669 15.17-10.481 3.014-7.812 1.162-15.7-4.217-17.668-5.364-2.135-12.156 2.668-15.17 10.48z" fill="#363C54"/><path d="M265.771 196.745c-3.014 7.812-1.162 15.7 4.217 17.669 5.378 1.968 12.156-2.669 15.17-10.481 3.014-7.812 1.162-15.7-4.217-17.668-5.378-1.968-12.156 2.668-15.17 10.48z" fill="#646989"/><path d="M283.633 188.174l-19.42 17.012c-.068-1.183.031-2.351.144-3.686l17.068-15.025c.973.418 1.598.975 2.208 1.699zm2.514 11.978l-16.344 14.414c-1.626-.642-3.029-1.937-3.903-3.523l20.159-17.79c.497 2.059.466 4.41.088 6.899z" fill="#7F86A8"/><path d="M268.213 197.625c-2.177 5.866-.822 11.695 3.083 13.202 3.905 1.508 9.083-2.088 11.246-7.787 2.177-5.866.822-11.695-3.083-13.203-4.072-1.521-9.083 2.089-11.246 7.788z" fill="#D0D3DD"/><path d="M270.007 198.281c-1.716 4.392-.568 8.691 2.365 9.78 2.932 1.089 6.676-1.451 8.392-5.844 1.716-4.393.568-8.692-2.35-9.947-2.947-.922-6.705 1.785-8.407 6.011z" fill="#1C2033"/><path d="M271.301 198.895c-1.298 3.419-.399 6.689 1.88 7.554 2.279.865 5.147-1.245 6.43-4.498 1.298-3.419.413-6.856-1.88-7.554-2.265-1.032-5.133 1.078-6.43 4.498z" fill="#17A5BA"/><path d="M278.705 201.664c1.057-2.665.451-5.406-1.354-6.122-1.805-.717-4.125.863-5.183 3.528-1.057 2.665-.451 5.407 1.354 6.123 1.805.716 4.125-.863 5.183-3.529z" fill="#1C2033"/><path d="M274.562 200.011c-.224.654-.127 1.502.359 1.711.486.21 1.196-.234 1.434-1.055.223-.653.127-1.502-.36-1.711-.667-.056-1.21.402-1.433 1.055z" fill="#fff"/><path d="M282.115 200.146l-11.382-4.493s1.148-5.617 7.819-3.035c-.167-.015 5.517 2.316 3.563 7.528zm-13.474.372l11.382 4.493s-.506 3.991-7.163 1.242c.167.015-5.531-2.149-4.219-5.735z" fill="#D0D3DD"/><path d="M278.185 206.873l-5.83 3.372-2.653-2.41-.452-4.576 4.21 1.869 4.725 1.745zm-6.533-12.15l6.317-3.163 3.139 2.619.619 4.59-4.863-2.093-5.212-1.953z" fill="#D0D3DD"/><path opacity=".5" d="M279.461 189.837c2.279.866 3.749 3.343 4.177 6.237-.736-1.239-1.819-2.339-3.125-2.786-3.905-1.507-9.083 2.088-11.246 7.787-.879 2.447-1.244 4.769-.927 6.981-1.457-2.645-1.632-6.525-.125-10.431 2.163-5.7 7.174-9.309 11.246-7.788z" fill="#646989"/><path d="M228.796 185.673c5.302-1.635 8.276-7.259 6.642-12.563-1.634-5.303-7.257-8.277-12.559-6.643-5.302 1.635-8.276 7.259-6.642 12.562 1.634 5.304 7.257 8.278 12.559 6.644z" fill="#252528"/><path opacity=".5" d="M232.096 181.624c-5.342 1.565-10.817-1.252-12.547-6.608-.804-2.421-.592-4.925.44-7.19-3.396 2.401-5.112 6.794-3.797 11.107 1.564 5.343 7.206 8.173 12.547 6.609 2.769-.942 4.94-2.775 6.167-5.36-.905.763-1.781 1.193-2.81 1.442z" fill="#444344"/><path d="M197.974 159.911c-1.736-1.324-2.039-3.703-.882-5.453l.571-.792c1.323-1.737 3.701-2.04 5.452-.883l21.197 15.577c1.737 1.323 2.039 3.702.883 5.453l-.571.792c-1.324 1.736-3.702 2.039-5.452.883l-21.198-15.577z" fill="#252528"/><path opacity=".5" d="M201.369 161.543c1.323-1.737 3.701-2.04 5.452-.883l18.183 13.472.18-.152c1.324-1.737.854-4.13-.882-5.453l-21.197-15.577c-1.737-1.324-4.129-.854-5.452.883l-.572.792c-1.323 1.736-.853 4.129.883 5.453l3 2.271.405-.806z" fill="#444344"/><path d="M201.575 160.373a8.373 8.373 0 10-11.776-1.224 8.37 8.37 0 0011.776 1.224z" fill="#252528"/><path opacity=".5" d="M198.113 154.376c1.665 2.158 2.288 4.732 1.575 7.193.696-.278 1.239-.736 1.781-1.194 3.606-2.888 4.058-8.228 1.171-11.834-2.888-3.606-8.226-4.058-11.832-1.17-1.447 1.222-2.423 2.82-2.912 4.627 3.659-1.539 7.788-.685 10.217 2.378z" fill="#444344"/><path d="M161.507 138.167c-4.556-3.748-5.145-10.688-1.398-15.245l1.128-1.417c3.747-4.557 10.686-5.146 15.242-1.399l21.958 18.499c4.556 3.747 5.144 10.688 1.398 15.245l-1.129 1.417c-3.746 4.556-10.685 5.145-15.241 1.398l-21.958-18.498z" fill="#17A5BA"/><path opacity=".5" d="M161.892 131.644l1.128-1.417c3.747-4.556 10.686-5.145 15.242-1.398l21.958 18.498a7.148 7.148 0 011.847 2.006c.825-3.796-.337-7.928-3.643-10.561l-21.958-18.499c-4.556-3.747-11.328-3.144-15.242 1.399l-1.128 1.417c-3.175 3.765-3.308 9.3-.602 13.058.475-1.64 1.284-3.252 2.398-4.503z" fill="#444344"/><path d="M167.889 128.358c2.396-3.955 2.479-8.288.186-9.678-2.294-1.39-6.095.689-8.491 4.644s-2.48 8.288-.186 9.678c2.293 1.39 6.095-.689 8.491-4.644z" fill="#252528"/><path opacity=".5" d="M167.24 126.047c-2.356 4.002-6.224 6.028-8.628 4.648-.319-.195-.624-.557-.944-.753.054 1.35.622 2.574 1.748 3.174 2.403 1.38 6.105-.66 8.627-4.648 1.965-3.363 2.443-7.02.93-8.997.178 1.864-.353 4.172-1.733 6.576z" fill="#4D1518"/><path d="M164.846 129.333a8.373 8.373 0 10-11.776-1.224 8.37 8.37 0 0011.776 1.224z" fill="#252528"/><path opacity=".5" d="M163.51 120.521c2.123 2.701 2.494 6.262.905 9.153l.362-.306c3.605-2.888 4.224-8.214 1.17-11.834-2.887-3.606-8.226-4.058-11.831-1.17-.905.764-1.643 1.542-2.062 2.515 3.744-2.54 8.735-1.95 11.456 1.642z" fill="#444344"/><path d="M195.047 152.562l-9.276 1.376.295 1.988 9.275-1.376-.294-1.988zm-3.594-3.162l-9.275 1.376.295 1.988 9.275-1.376-.295-1.988zm-3.59-3.176l-9.275 1.376.295 1.988 9.275-1.376-.295-1.988zm-3.6-3.161l-9.275 1.374.294 1.988 9.275-1.374-.294-1.988z" fill="#fff"/><path d="M295.506 299.937c-8.998 1.087-18.145-.024-26.762-3.442-8.616-3.419-16.048-8.923-21.85-15.801l48.612 19.243z" fill="url(#paint20_linear)"/><path d="M288.75 300.374c-6.716-.064-13.5-1.311-20.004-3.879-6.504-2.567-12.241-6.247-17.213-11.037l37.217 14.916z" fill="#17A5BA"/><path d="M333.344 186.502l-2.834-2.257 12.837-32.527 3.252 1.283-13.255 33.501z" fill="url(#paint21_linear)"/><path d="M333.594 185.513l-2.765-1.074c-.654-.224-.931-.92-.707-1.573.223-.653.919-.931 1.572-.707l2.765 1.074c.654.224.931.92.707 1.573-.39.639-1.085.916-1.572.707z" fill="url(#paint22_linear)"/><path d="M334.893 182.094l-2.765-1.075c-.653-.223-.93-.919-.707-1.572.223-.654.919-.931 1.572-.708l2.766 1.075c.653.223.93.919.707 1.573-.391.639-.919.93-1.573.707z" fill="url(#paint23_linear)"/><path d="M336.189 178.674l-2.766-1.074c-.653-.224-.93-.919-.707-1.573.224-.653.919-.93 1.572-.707l2.766 1.075c.653.223.93.919.707 1.572-.223.653-.919.931-1.572.707z" fill="url(#paint24_linear)"/><path d="M337.653 175.269l-2.765-1.075c-.654-.223-.931-.919-.707-1.573.223-.653.919-.93 1.572-.707l2.765 1.075c.654.223.931.919.707 1.572-.39.64-1.085.917-1.572.708z" fill="url(#paint25_linear)"/><path d="M338.954 171.849l-2.766-1.074c-.653-.224-.93-.92-.707-1.573.224-.653.919-.931 1.573-.707l2.765 1.074c.653.224.931.92.707 1.573-.39.639-.919.93-1.572.707z" fill="url(#paint26_linear)"/><path d="M340.253 168.429l-2.765-1.074c-.653-.224-.931-.919-.707-1.573.223-.653.919-.93 1.572-.707l2.766 1.075c.653.223.93.919.707 1.572-.224.654-.919.931-1.573.707z" fill="url(#paint27_linear)"/><path d="M341.716 165.024l-2.766-1.075c-.653-.223-.93-.919-.707-1.572.224-.654.919-.931 1.572-.707l2.766 1.074c.653.224.93.919.707 1.573-.39.639-1.086.916-1.572.707z" fill="url(#paint28_linear)"/><path d="M343.011 161.604l-2.765-1.074c-.654-.223-.931-.919-.707-1.573.223-.653.919-.93 1.572-.707l2.765 1.075c.654.223.931.919.707 1.572-.39.639-.919.931-1.572.707z" fill="url(#paint29_linear)"/><path d="M344.31 158.185l-2.765-1.075c-.653-.223-.93-.919-.707-1.572.223-.653.919-.931 1.572-.707l2.766 1.074c.653.224.93.919.707 1.573-.224.653-.919.93-1.573.707z" fill="url(#paint30_linear)"/><path d="M345.107 154.723a3.181 3.181 0 003.438-2.902 3.181 3.181 0 10-3.438 2.902z" fill="url(#paint31_linear)"/><path opacity=".34" d="M84.363 83.392c1.017.006 1.843-.288 1.846-.658.002-.37-.82-.675-1.837-.682-1.018-.007-1.844.287-1.847.657-.002.37.82.676 1.838.683z" fill="#2999C5"/><path d="M425.075 300.747c-1.111-.766-2.822-.407-3.588.705-.767 1.111-.407 2.822.704 3.589l4.14 2.703c1.111.767 2.822.408 3.588-.704.767-1.112.407-2.823-.704-3.589l-4.14-2.704z" fill="#1C1C1D"/><path d="M431.172 306.138c-.221-1.364-1.47-2.478-2.833-2.257-1.363.221-2.477 1.471-2.257 2.834l.591 4.924c.221 1.363 1.471 2.478 2.834 2.257 1.363-.221 2.477-1.471 2.256-2.834l-.591-4.924z" fill="#252528"/><path d="M432.27 305.054c-.221-1.363-1.471-2.477-2.834-2.256-1.363.22-2.477 1.471-2.256 2.834l.591 4.924c.221 1.363 1.471 2.477 2.834 2.257 1.363-.221 2.477-1.471 2.256-2.834l-.591-4.925z" fill="#17A5BA"/><path d="M431.854 306.027c-.11-.681-.735-1.238-1.417-1.128-.681.11-1.238.735-1.128 1.417l.303 2.379c.11.681.735 1.238 1.417 1.128.681-.11 1.238-.735 1.128-1.417l-.303-2.379z" fill="#252528"/><path opacity=".5" d="M429.608 308.695l-.302-2.379c-.111-.681.446-1.307 1.128-1.417.333.028.667.057.973.419l-.167-.015c-.682.111-1.239.736-1.129 1.418l.303 2.378c-.028.334.125.515.444.71-.667-.056-1.139-.433-1.25-1.114z" fill="#4D1518"/><path opacity=".5" d="M429.342 311.866c1.363-.221 2.477-1.471 2.256-2.835l-.591-4.924c.029-.334-.11-.681-.415-1.043.805.404 1.416 1.128 1.498 2.143l.592 4.925c.22 1.363-.894 2.613-2.257 2.834-1.015.082-1.988-.337-2.418-1.213l1.335.113z" fill="#4D1518"/><path d="M400.727 290.618c.235 1.197 1.527 1.81 2.556 1.561 1.196-.235 1.81-1.527 1.561-2.557l-8.881-34.03c-.234-1.196-1.527-1.81-2.556-1.561-1.196.235-1.81 1.527-1.561 2.557l8.881 34.03zm-39.419-37.8c8.115.596 15.403-8.566 16.277-20.465.875-11.899-4.995-22.029-13.111-22.625-8.115-.596-15.403 8.566-16.277 20.465-.874 11.899 4.996 22.029 13.111 22.625z" fill="#191818"/><path opacity=".5" d="M376.942 234.26c1.77-9.548.92-17.713-1.898-18.236-2.819-.522-6.539 6.795-8.309 16.344-1.77 9.549-.92 17.713 1.899 18.236 2.818.522 6.538-6.795 8.308-16.344z" fill="#19A1A2"/><path d="M377.999 234.397c1.769-9.549.918-17.713-1.9-18.236-2.819-.522-6.538 6.796-8.307 16.344-1.769 9.549-.919 17.714 1.9 18.236 2.818.522 6.537-6.795 8.307-16.344z" fill="#17A5BA"/><path d="M379.765 233.64c1.381-7.458.732-13.831-1.45-14.235-2.182-.404-5.071 5.313-6.453 12.77-1.381 7.457-.732 13.831 1.45 14.235 2.182.404 5.071-5.313 6.453-12.77z" fill="#191818"/><path d="M387.04 239.353c5-2.405 7.104-8.409 4.7-13.41-2.405-5.001-8.408-7.106-13.408-4.7-5 2.405-7.104 8.409-4.699 13.41 2.404 5.001 8.407 7.105 13.407 4.7z" fill="#252528"/><path opacity=".5" d="M381.939 238.606c4.912-2.442 7.089-8.308 4.662-13.387-1.151-2.283-3.025-3.954-5.29-4.986 4.074-.496 8.438 1.555 10.281 5.576 2.441 4.913.25 10.946-4.662 13.387-2.63 1.29-5.647 1.203-8.093.324 1.196-.235 2.226-.484 3.102-.914z" fill="#444344"/><path d="M399.331 255.541a3.8 3.8 0 005.52.3l.724-.611a3.801 3.801 0 00.299-5.521l-17.479-19.8a3.8 3.8 0 00-5.52-.3l-.724.611a3.801 3.801 0 00-.299 5.521l17.479 19.8z" fill="#252528"/><path opacity=".5" d="M397.426 252.187a3.8 3.8 0 00.299-5.521l-15.021-17.071.181-.153c1.628-1.375 3.964-1.177 5.519.299l17.479 19.8c1.375 1.629 1.177 3.966-.299 5.521l-.724.611c-1.629 1.375-3.964 1.177-5.52-.299l-2.443-2.896.529-.291z" fill="#444344"/><path d="M408.01 261.347a8.374 8.374 0 003.916-11.175 8.369 8.369 0 00-11.172-3.917 8.374 8.374 0 007.256 15.092z" fill="#252528"/><path opacity=".5" d="M404.673 251.96c-1.137-2.449-3.36-3.982-5.834-4.528.543-.458 1.086-.916 1.781-1.194 4.202-1.997 9.094-.238 11.091 3.965 1.997 4.203.238 9.096-3.964 11.093-1.753.86-3.617 1.038-5.424.549 3.063-2.43 4.069-6.378 2.35-9.885z" fill="#444344"/><path d="M403.813 291.888c1.535 5.676 7.454 9.203 13.129 7.666l1.725-.526c5.675-1.536 9.201-7.456 7.665-13.133l-7.234-27.672c-1.536-5.676-7.454-9.203-13.13-7.666l-1.725.526c-5.675 1.536-9.201 7.456-7.665 13.133l7.235 27.672z" fill="#17A5BA"/><path opacity=".5" d="M409.828 294.247l1.725-.527c5.676-1.536 9.201-7.456 7.666-13.132l-7.235-27.673c-.263-.862-.526-1.725-1.123-2.616 3.795.826 7.073 3.793 8.083 7.744l7.234 27.672c1.536 5.676-1.99 11.596-7.665 13.133l-1.725.526c-4.813 1.273-9.83-1.001-12.174-5.065 1.807.489 3.49.464 5.214-.062z" fill="#444344"/><path d="M416.498 299.916c4.599-.481 8.101-3.034 7.822-5.702-.279-2.667-4.232-4.44-8.831-3.96-4.599.481-8.101 3.034-7.822 5.702.278 2.667 4.232 4.44 8.831 3.96z" fill="#252528"/><path opacity=".5" d="M417.26 291.85c-4.575.453-8.152 3.007-7.878 5.719-.028.334.111.682.416 1.044-1.278-.78-2.041-1.685-2.109-2.868-.275-2.712 3.135-5.281 7.877-5.719 3.894-.343 7.327.788 8.492 2.904-1.778-.823-4.267-1.202-6.798-1.08z" fill="#4D1518"/><path d="M420.357 307.765a8.374 8.374 0 003.916-11.175 8.37 8.37 0 00-11.173-3.917 8.374 8.374 0 00-3.916 11.175 8.37 8.37 0 0011.173 3.917z" fill="#252528"/><path opacity=".5" d="M420.64 297.515c-1.581-3.159-4.623-4.93-8.002-4.711.166.014.181-.153.347-.139 4.202-1.997 9.094-.238 11.091 3.964 1.997 4.203.238 9.096-3.964 11.094-1.043.415-2.087.831-3.255.732 4.202-1.997 5.794-6.904 3.783-10.94z" fill="#444344"/><path d="M420.243 304.204c-.916-1.086-2.585-1.227-3.671-.311-1.085.917-1.227 2.585-.31 3.671l3.206 3.801c.917 1.086 2.585 1.228 3.671.311 1.086-.916 1.227-2.585.311-3.671l-3.207-3.801z" fill="#1C1C1D"/><path d="M424.53 311.122c.28-1.321-.608-2.741-2.095-3.035-1.321-.28-2.74.609-3.034 2.096l-.911 4.797c-.279 1.321.609 2.741 2.096 3.035 1.321.28 2.74-.608 3.034-2.096l.91-4.797z" fill="#252528"/><path d="M425.923 310.568c.28-1.321-.608-2.741-2.096-3.035-1.32-.28-2.74.609-3.034 2.096l-.91 4.797c-.28 1.321.608 2.741 2.096 3.035 1.32.28 2.74-.608 3.034-2.096l.91-4.797z" fill="#17A5BA"/><path d="M425.015 311.331c.056-.667-.388-1.377-1.055-1.434-.667-.056-1.377.388-1.434 1.055l-.364 2.322c-.057.668.387 1.378 1.055 1.434.667.057 1.377-.387 1.433-1.055l.365-2.322z" fill="#252528"/><path opacity=".5" d="M422.178 313.107l.365-2.322c.056-.667.766-1.112 1.433-1.055a.92.92 0 01.792.571l-.167-.014c-.667-.056-1.377.388-1.434 1.055l-.364 2.322c-.028.334-.043.501.096.849-.486-.209-.778-.738-.721-1.406z" fill="#4D1518"/><path opacity=".5" d="M421.089 316.041c1.32.279 2.74-.609 3.034-2.097l.91-4.797c.028-.333.071-.834-.068-1.182a2.93 2.93 0 01.97 2.435l-.91 4.797c-.28 1.321-1.547 2.39-3.034 2.096-.987-.251-1.765-.989-2.028-1.852.306.362.792.571 1.126.6z" fill="#4D1518"/><path d="M409.166 302.089c.78-1.278 2.324-1.652 3.602-.871 1.278.78 1.652 2.325.871 3.603l-2.55 4.322c-.781 1.279-2.325 1.652-3.603.872-1.278-.781-1.651-2.325-.871-3.604l2.551-4.322z" fill="#1C1C1D"/><path d="M405.996 309.721c-.388-1.378.24-2.837 1.617-3.225 1.377-.388 2.836.24 3.224 1.618l1.62 4.675c.388 1.377-.24 2.837-1.617 3.224-1.377.388-2.836-.24-3.224-1.617l-1.62-4.675z" fill="#252528"/><path d="M404.524 309.259c-.388-1.377.24-2.836 1.617-3.224 1.377-.388 2.837.24 3.224 1.617l1.62 4.676c.388 1.377-.24 2.837-1.617 3.224-1.377.388-2.836-.24-3.224-1.617l-1.62-4.676z" fill="#17A5BA"/><path d="M406.849 309.624c-.278-.696.113-1.335.808-1.612.696-.277 1.335.113 1.612.809l.817 2.254c.278.696-.113 1.335-.808 1.612-.696.277-1.335-.113-1.612-.809l-.817-2.254z" fill="#252528"/><path opacity=".5" d="M409.931 310.894l-.818-2.254c-.277-.696-.93-.92-1.611-.809-.348.138-.71.444-.738.778l.181-.153c.695-.277 1.334.113 1.611.809l.818 2.254c.138.348.124.515-.071.834.682-.11.905-.763.628-1.459z" fill="#4D1518"/><path opacity=".5" d="M410.163 314.107c-1.378.387-2.837-.24-3.224-1.618l-1.621-4.675c-.138-.348-.11-.682-.068-1.182-.557.625-.808 1.612-.559 2.642l1.62 4.675c.388 1.377 2.014 2.019 3.224 1.617 1.043-.416 1.614-1.208 1.699-2.209-.362.306-.724.611-1.071.75z" fill="#444344"/><path d="M403.39 254.279l-5.199 7.804 1.672 1.115 5.199-7.805-1.672-1.114zm1.426 4.57l-5.201 7.804 1.672 1.114 5.201-7.803-1.672-1.115zm1.304 4.666l-5.2 7.804 1.672 1.115 5.2-7.805-1.672-1.114zm1.305 4.705l-5.198 7.805 1.672 1.114 5.198-7.804-1.672-1.115z" fill="#fff"/><path d="M216.397 148.502c1.218-2.609.972-6.281-.123-8.919-14.097-38.597-1.878-49.18-7.436-59.19-7.157-12.63-14.956-24.343-23.008-34.822-2.822-3.413-22.699-27.917-26.719-26.827-4.935 1.346-9.871 2.693-14.749 3.87 4.168-1.04 23.954 23.244 26.719 26.826 3.906 5.105 24.317 32.434 24.703 41.065.091.22.034.39.068.778-.028 3.013-1.686 8.872-1.121 20.397 1.272 28.008 11.155 32.119 6.687 41.369-10.991 23.089-28.568 48.475-54.665 55.479l14.749-3.869c24.265-6.494 44.773-32.207 54.895-56.157z" fill="url(#paint32_linear)"/><path d="M134.668 27.48c-.538-.37-1.19-.403-1.751-.216l-14.749 3.87c.561-.188 1.007-.036 1.751.216 4.083 2.142 8.098 3.505 13.182 2.21l14.75-3.87c-4.936 1.347-8.951-.017-13.183-2.21z" fill="url(#paint33_linear)"/><path d="M120.599 31.766c9.481 5.296 18.987 1.724 25.54-9.272 1.252-2.22 3.175-2.51 4.97-.957 8.138 7.296 16.171 15.88 23.892 25.867 8.202 10.53 16.001 22.244 23.008 34.823 1.301 2.519 1.902 6.123 1.519 9.204-2.589 15.931-.501 34.206 5.611 48.936l.456 1.099c1.185 2.858 1.283 6.48.123 8.919l-.437.797c-14.356 30.068-39.844 64.101-80.534 55.951-.95-.134-1.876-.826-2.687-1.857-.811-1.031-1.507-2.4-1.939-4.058-19.576-69.355-13.346-128.248-4.667-165.533l.196-1.067c.68-2.98 2.445-4.27 4.263-3.274l.686.422z" fill="#fff"/><path d="M150.454 26.417c-1.051-1.301-2.471-1.028-3.103.835-.633 1.863-.339 4.418.861 5.77 1.051 1.301 2.47 1.028 3.103-.835.575-1.694.281-4.249-.861-5.77zm50.737 115.823c-1.051-1.301-2.471-1.028-3.103.835-.633 1.863-.339 4.418.86 5.77 1.051 1.301 2.471 1.028 3.104-.835.575-1.694.281-4.249-.861-5.77zm-4.886-56.44c-1.051-1.301-2.47-1.028-3.103.835s-.339 4.418.861 5.77c1.051 1.301 2.47 1.028 3.103-.835.575-1.694.133-4.3-.861-5.77zm-75.794-48.396c-1.051-1.3-2.47-1.027-3.103.835-.632 1.864-.339 4.419.861 5.77 1.051 1.302 2.471 1.028 3.103-.835.633-1.863.339-4.418-.861-5.77zm5.591 156.971c-1.051-1.301-2.471-1.027-3.104.835-.632 1.863-.339 4.419.861 5.77 1.051 1.302 2.471 1.028 3.103-.835.427-1.744.133-4.299-.86-5.77z" fill="#00D0CD"/><path d="M127.273 190.429c33.426 5.116 55.434-21.598 68.387-47.043-5.628-16.644-7.726-35.867-5.717-53.506-6.096-10.38-12.719-20.184-19.538-28.922-6.34-8.197-13.116-15.597-19.642-21.78-7.594 10.644-17.661 14.403-27.866 10.749-7.092 33.101-11.167 82.715 4.376 140.502z" fill="url(#paint34_linear)"/><path d="M267.756 225.509L259.394 221 258 223.706l8.363 4.96 1.393-3.157z" fill="#986BD1"/><ellipse cx="133.174" cy="111.157" rx="99.835" ry="112.44" transform="rotate(23.4 133.174 111.157)" fill="url(#paint35_radial)"/><ellipse cx="140.682" cy="112.227" rx="3.689" ry="6.447" transform="rotate(15.498 140.682 112.227)" fill="#fff"/><path d="M189.291 144.115c-20.129 46.517-64.841 71.939-99.869 56.782-35.027-15.157-47.105-65.154-26.976-111.67 20.13-46.518 64.842-71.94 99.869-56.783 35.027 15.157 47.105 65.154 26.976 111.671z" fill="url(#paint36_radial)"/><path d="M249.5 382.5l36.998-82.5-34.998-14-36.5 81.5 34.5 15z" fill="url(#paint37_linear)"/></g><defs><linearGradient id="paint1_linear" x1="72.5" y1="92" x2="376.588" y2="323.885" gradientUnits="userSpaceOnUse"><stop stop-color="#00D0CD"/><stop offset="1" stop-color="#243248"/></linearGradient><linearGradient id="paint3_linear" x1="-13081.9" y1="-14024.5" x2="-13232.2" y2="-14091.6" gradientUnits="userSpaceOnUse"><stop stop-color="#06EDE1"/><stop offset="1" stop-color="#06EDE1" stop-opacity="0"/></linearGradient><linearGradient id="paint4_linear" x1="-29890.7" y1="-32641.4" x2="-30596.7" y2="-32956.5" gradientUnits="userSpaceOnUse"><stop stop-color="#06EDE1"/><stop offset="1" stop-color="#06EDE1" stop-opacity="0"/></linearGradient><linearGradient id="paint5_linear" x1="286.5" y1="249.5" x2="249.739" y2="360.394" gradientUnits="userSpaceOnUse"><stop stop-color="#00D0CD"/><stop offset="1" stop-color="#00D0CD" stop-opacity="0"/></linearGradient><linearGradient id="paint6_linear" x1="284.748" y1="144.581" x2="281.561" y2="143.316" gradientUnits="userSpaceOnUse"><stop stop-color="#fff"/><stop offset="1" stop-color="#B7B6B6"/></linearGradient><linearGradient id="paint7_linear" x1="279.819" y1="159.65" x2="274.817" y2="157.665" gradientUnits="userSpaceOnUse"><stop stop-color="#242424"/><stop offset="1" stop-color="#555"/></linearGradient><linearGradient id="paint8_linear" x1="281.172" y1="156.238" x2="276.17" y2="154.253" gradientUnits="userSpaceOnUse"><stop stop-color="#242424"/><stop offset="1" stop-color="#555"/></linearGradient><linearGradient id="paint9_linear" x1="282.524" y1="152.827" x2="277.522" y2="150.842" gradientUnits="userSpaceOnUse"><stop stop-color="#242424"/><stop offset="1" stop-color="#555"/></linearGradient><linearGradient id="paint10_linear" x1="283.878" y1="149.415" x2="278.876" y2="147.43" gradientUnits="userSpaceOnUse"><stop stop-color="#242424"/><stop offset="1" stop-color="#555"/></linearGradient><linearGradient id="paint11_linear" x1="285.235" y1="146.004" x2="280.233" y2="144.019" gradientUnits="userSpaceOnUse"><stop stop-color="#242424"/><stop offset="1" stop-color="#555"/></linearGradient><linearGradient id="paint12_linear" x1="286.586" y1="142.592" x2="281.584" y2="140.608" gradientUnits="userSpaceOnUse"><stop stop-color="#242424"/><stop offset="1" stop-color="#555"/></linearGradient><linearGradient id="paint13_linear" x1="287.94" y1="139.181" x2="282.938" y2="137.196" gradientUnits="userSpaceOnUse"><stop stop-color="#242424"/><stop offset="1" stop-color="#555"/></linearGradient><linearGradient id="paint14_linear" x1="289.293" y1="135.77" x2="284.291" y2="133.785" gradientUnits="userSpaceOnUse"><stop stop-color="#242424"/><stop offset="1" stop-color="#555"/></linearGradient><linearGradient id="paint15_linear" x1="290.649" y1="132.359" x2="285.647" y2="130.374" gradientUnits="userSpaceOnUse"><stop stop-color="#242424"/><stop offset="1" stop-color="#555"/></linearGradient><linearGradient id="paint16_linear" x1="293.091" y1="127.465" x2="287.22" y2="125.136" gradientUnits="userSpaceOnUse"><stop stop-color="#242424"/><stop offset="1" stop-color="#555"/></linearGradient><linearGradient id="paint18_linear" x1="302.982" y1="215.115" x2="247.37" y2="193.05" gradientUnits="userSpaceOnUse"><stop stop-color="#B7B6B6"/><stop offset="1" stop-color="#fff"/></linearGradient><linearGradient id="paint19_linear" x1="301.282" y1="214.442" x2="249.063" y2="193.723" gradientUnits="userSpaceOnUse"><stop stop-color="#575757"/><stop offset="1" stop-color="#BBB"/></linearGradient><linearGradient id="paint20_linear" x1="294.379" y1="303.048" x2="245.671" y2="283.723" gradientUnits="userSpaceOnUse"><stop stop-color="#B7B6B6"/><stop offset="1" stop-color="#fff"/></linearGradient><linearGradient id="paint21_linear" x1="340.084" y1="169.735" x2="336.897" y2="168.47" gradientUnits="userSpaceOnUse"><stop stop-color="#fff"/><stop offset="1" stop-color="#B7B6B6"/></linearGradient><linearGradient id="paint22_linear" x1="335.155" y1="184.802" x2="330.152" y2="182.818" gradientUnits="userSpaceOnUse"><stop stop-color="#555"/><stop offset="1" stop-color="#242424"/></linearGradient><linearGradient id="paint23_linear" x1="336.51" y1="181.391" x2="331.507" y2="179.406" gradientUnits="userSpaceOnUse"><stop stop-color="#555"/><stop offset="1" stop-color="#242424"/></linearGradient><linearGradient id="paint24_linear" x1="337.861" y1="177.98" x2="332.859" y2="175.995" gradientUnits="userSpaceOnUse"><stop stop-color="#555"/><stop offset="1" stop-color="#242424"/></linearGradient><linearGradient id="paint25_linear" x1="339.214" y1="174.568" x2="334.212" y2="172.584" gradientUnits="userSpaceOnUse"><stop stop-color="#555"/><stop offset="1" stop-color="#242424"/></linearGradient><linearGradient id="paint26_linear" x1="340.57" y1="171.157" x2="335.568" y2="169.172" gradientUnits="userSpaceOnUse"><stop stop-color="#555"/><stop offset="1" stop-color="#242424"/></linearGradient><linearGradient id="paint27_linear" x1="341.926" y1="167.745" x2="336.923" y2="165.761" gradientUnits="userSpaceOnUse"><stop stop-color="#555"/><stop offset="1" stop-color="#242424"/></linearGradient><linearGradient id="paint28_linear" x1="343.277" y1="164.334" x2="338.275" y2="162.349" gradientUnits="userSpaceOnUse"><stop stop-color="#555"/><stop offset="1" stop-color="#242424"/></linearGradient><linearGradient id="paint29_linear" x1="344.628" y1="160.923" x2="339.626" y2="158.938" gradientUnits="userSpaceOnUse"><stop stop-color="#555"/><stop offset="1" stop-color="#242424"/></linearGradient><linearGradient id="paint30_linear" x1="345.983" y1="157.512" x2="340.981" y2="155.527" gradientUnits="userSpaceOnUse"><stop stop-color="#555"/><stop offset="1" stop-color="#242424"/></linearGradient><linearGradient id="paint31_linear" x1="348.426" y1="152.619" x2="342.555" y2="150.289" gradientUnits="userSpaceOnUse"><stop stop-color="#555"/><stop offset="1" stop-color="#242424"/></linearGradient><linearGradient id="paint32_linear" x1="117.09" y1="63.38" x2="193.285" y2="142.068" gradientUnits="userSpaceOnUse"><stop stop-color="#00D0CD"/><stop offset="1" stop-color="#515AA5"/></linearGradient><linearGradient id="paint33_linear" x1="109.834" y1="22.539" x2="161.34" y2="40.028" gradientUnits="userSpaceOnUse"><stop stop-color="#03D9FE"/><stop offset="1" stop-color="#5A54CE"/></linearGradient><linearGradient id="paint34_linear" x1="104.754" y1="103.125" x2="198.54" y2="134.97" gradientUnits="userSpaceOnUse"><stop stop-color="#F7DA5C"/><stop offset="1" stop-color="#F15DAB"/></linearGradient><linearGradient id="paint37_linear" x1="286.5" y1="250.5" x2="249.739" y2="361.394" gradientUnits="userSpaceOnUse"><stop stop-color="#00D0CD"/><stop offset="1" stop-color="#00D0CD" stop-opacity="0"/></linearGradient><radialGradient id="paint0_radial" cx="0" cy="0" r="1" gradientUnits="userSpaceOnUse" gradientTransform="rotate(-154.947 215.753 83.223) scale(240.501 251.508)"><stop offset=".57" stop-color="#fff" stop-opacity="0"/><stop offset="1" stop-color="#fff" stop-opacity=".5"/></radialGradient><radialGradient id="paint2_radial" cx="0" cy="0" r="1" gradientUnits="userSpaceOnUse" gradientTransform="matrix(-199.28899 -.0626 .00676 -21.5322 232.991 395.561)"><stop stop-color="#05060A"/><stop offset="1" stop-color="#2B384E" stop-opacity="0"/></radialGradient><radialGradient id="paint17_radial" cx="0" cy="0" r="1" gradientUnits="userSpaceOnUse" gradientTransform="matrix(28.85682 11.4567 -16.82079 42.36775 274.475 204.59)"><stop stop-color="#333"/><stop offset="1" stop-color="#333"/></radialGradient><radialGradient id="paint35_radial" cx="0" cy="0" r="1" gradientUnits="userSpaceOnUse" gradientTransform="matrix(-89.74783 11.58454 -13.0504 -101.10421 133.174 111.157)"><stop stop-color="#fff"/><stop offset="1" stop-color="#fff" stop-opacity="0"/></radialGradient><radialGradient id="paint36_radial" cx="0" cy="0" r="1" gradientUnits="userSpaceOnUse" gradientTransform="matrix(-60.7697 -15.99365 21.11022 -80.21066 125.869 116.671)"><stop stop-color="#fff"/><stop offset="1" stop-color="#fff" stop-opacity="0"/></radialGradient><clipPath id="clip0"><path fill="#fff" d="M0 0h488v419H0z"/></clipPath></defs></svg>