<svg width="328" height="249" fill="none" xmlns="http://www.w3.org/2000/svg"><path d="M193.729 237.804c70.046-27.117 102.257-99.9 71.945-162.565-30.311-62.664-111.666-91.48-181.712-64.364C13.917 37.993-18.294 110.776 12.017 173.44c30.312 62.665 111.667 91.481 181.712 64.364z" fill="url(#paint0_radial)"/><g clip-path="url(#clip0)"><path d="M142.376 149.975c5.012 1.455 10.812-3.351 12.956-10.735 2.143-7.383-.182-14.548-5.194-16.003s-10.812 3.351-12.956 10.734c-2.143 7.384.182 14.549 5.194 16.004z" fill="#191818"/><path opacity=".5" d="M147.355 149.535c1.707.707 5.035-3.418 7.434-9.212 2.399-5.793 2.959-11.063 1.252-11.77-1.707-.707-5.035 3.417-7.434 9.211-2.398 5.794-2.959 11.064-1.252 11.771z" fill="#19A1A2"/><path d="M147.957 149.843c1.707.707 5.035-3.417 7.434-9.211 2.398-5.794 2.959-11.064 1.252-11.771-1.707-.707-5.036 3.417-7.434 9.211-2.399 5.794-2.959 11.064-1.252 11.771z" fill="#17A5BA"/><path d="M150.851 147.54c1.327.549 3.913-2.656 5.778-7.16 1.864-4.503 2.3-8.599.974-9.148-1.327-.55-3.913 2.656-5.778 7.16-1.864 4.503-2.3 8.599-.974 9.148z" fill="#191818"/><path d="M153.558 89.815l-9.904 20.238 1.685 1.585 10.206-20.854-1.987-.969z" fill="url(#paint1_linear)"/><path d="M145.518 110.991l-1.762-.861a.753.753 0 01.661-1.352l1.761.861a.752.752 0 01-.086 1.387.757.757 0 01-.574-.035z" fill="url(#paint2_linear)"/><path d="M146.555 108.868l-1.762-.861a.753.753 0 01.661-1.352l1.761.861a.753.753 0 01-.66 1.352z" fill="url(#paint3_linear)"/><path d="M147.595 106.74l-1.762-.861a.753.753 0 01.661-1.352l1.761.861a.755.755 0 01.346 1.006.755.755 0 01-1.006.346z" fill="url(#paint4_linear)"/><path d="M148.636 104.621l-1.762-.862a.753.753 0 01.661-1.352l1.761.861a.76.76 0 01.381.432.753.753 0 01-1.041.921z" fill="url(#paint5_linear)"/><path d="M149.676 102.494l-1.762-.861a.756.756 0 01-.346-1.006.76.76 0 01.432-.381.76.76 0 01.575.035l1.761.861a.758.758 0 01.346 1.007.756.756 0 01-1.006.345z" fill="url(#paint6_linear)"/><path d="M150.713 100.372l-1.762-.861a.759.759 0 01-.345-1.007.753.753 0 011.006-.346l1.761.862a.757.757 0 01.346 1.006.752.752 0 01-1.006.346z" fill="url(#paint7_linear)"/><path d="M151.754 98.251l-1.762-.86a.758.758 0 01-.345-1.007.754.754 0 011.006-.346l1.761.861a.757.757 0 01.346 1.007.753.753 0 01-1.006.345z" fill="url(#paint8_linear)"/><path d="M152.793 96.126l-1.762-.862a.759.759 0 01-.345-1.006.753.753 0 011.006-.346l1.762.861a.758.758 0 01.345 1.007.754.754 0 01-1.006.346z" fill="url(#paint9_linear)"/><path d="M153.831 94.003l-1.761-.862a.756.756 0 01-.346-1.006.754.754 0 011.006-.346l1.762.861a.759.759 0 01.345 1.007.753.753 0 01-1.006.346z" fill="url(#paint10_linear)"/><path d="M154.082 92.046a2.042 2.042 0 101.796-3.669 2.042 2.042 0 00-1.796 3.669z" fill="url(#paint11_linear)"/><path d="M82.968 173.667c20.923 10.241 47.981-2.085 60.435-27.531 12.454-25.446 5.588-54.376-15.336-64.617-20.923-10.24-47.981 2.086-60.435 27.532s-5.588 54.376 15.335 64.616z" fill="#fff"/><path d="M99.906 151.609a6.944 6.944 0 003.173 3.332s18.688 6.382 20.341 6.023l1.604-.348c3.673-.796 7.311-4.045 9.488-8.477l2.408-4.916c.402-.819-.313-.029-.036-.885l9.111-27.994c1.252-3.845 1.144-7.685-.292-10.421a6.852 6.852 0 00-3.054-3.061l-4.801-2.353-4.801-2.353a6.857 6.857 0 00-4.279-.523c-3.054.531-6.137 2.816-8.408 6.163l-16.514 24.363a19.33 19.33 0 00-1.364 2.358l-2.408 4.916c-2.162 4.396-2.497 9.278-.878 12.665l.71 1.511z" fill="url(#paint12_radial)"/><path d="M137.452 146.45l9.11-27.994c1.339-4.116 1.226-8.159-.306-11.094a7.337 7.337 0 00-3.234-3.254l-9.605-4.702a7.336 7.336 0 00-4.553-.559c-3.258.585-6.52 2.979-8.95 6.561l-16.519 24.36a20.908 20.908 0 00-1.445 2.5l-2.401 4.923c-2.303 4.706-2.66 9.875-.93 13.486l.712 1.481a7.41 7.41 0 003.377 3.547l15.762 5.561a7.412 7.412 0 004.872.491l1.604-.348c3.913-.848 7.78-4.3 10.083-9.007-.013.014 2.128-5.041 2.423-5.952zm-3.494 5.451c-2.022 4.134-5.416 7.168-8.858 7.916l-1.604.348a6.522 6.522 0 01-4.282-.43l-15.762-5.561a6.517 6.517 0 01-2.97-3.117l-.706-1.488c-1.528-3.181-1.207-7.718.815-11.852l2.408-4.916c.375-.764.803-1.501 1.28-2.206l16.518-24.359c2.132-3.143 4.999-5.251 7.865-5.765a6.44 6.44 0 014.003.517l9.605 4.702a6.44 6.44 0 012.838 2.86c1.35 2.573 1.448 6.128.27 9.747l-9.111 27.994c-.263.767-2.309 5.61-2.309 5.61z" fill="url(#paint13_linear)"/><path d="M133.958 151.901s2.046-4.843 2.305-5.639l9.101-27.991c1.178-3.619 1.076-7.171-.27-9.747a6.44 6.44 0 00-2.838-2.86l-9.605-4.702a6.44 6.44 0 00-4.003-.517c-2.875.531-5.727 2.615-7.865 5.765l-16.518 24.359a18.29 18.29 0 00-1.28 2.206l-2.39 4.951c-2.022 4.135-2.336 8.678-.815 11.853l.712 1.481a6.522 6.522 0 002.97 3.117l15.755 5.554a6.516 6.516 0 004.282.43l1.604-.348c3.435-.747 6.833-3.777 8.855-7.912zm-10.352 7.187a5.915 5.915 0 01-3.879-.401l-15.762-5.561a5.906 5.906 0 01-2.694-2.829l-.729-1.483c-1.381-2.884-1.095-7.005.742-10.761l2.408-4.916c.34-.693.728-1.362 1.162-2.002l16.518-24.359c1.939-2.861 4.532-4.755 7.14-5.233a5.845 5.845 0 013.629.443l9.605 4.703a5.84 5.84 0 012.579 2.594c1.225 2.335 1.314 5.562.247 8.848l-9.114 27.998c-.235.722-2.217 5.42-2.217 5.42-1.837 3.756-4.919 6.509-8.045 7.185l-1.59.354z" fill="url(#paint14_linear)"/><path opacity=".05" d="M145.845 118.717l-47.663 27.122a11.066 11.066 0 001 4.285l.713 1.481a6.938 6.938 0 003.174 3.333l5.602.587 31.57-17.973 5.604-18.835zm-.169-10.78a7.34 7.34 0 00-1.504-1.979l-38.939 22.168-1.397 2.063a19.2 19.2 0 00-1.364 2.358l-2.409 4.916c-.216.44-.392.871-.576 1.309l47.264-26.897a10.564 10.564 0 00-1.075-3.938z" fill="#fff"/><path d="M130.803 132.961c-2.409 4.807-7.029 7.361-10.295 5.672s-3.951-6.963-1.526-11.786c2.425-4.824 7.029-7.361 10.298-5.675 3.269 1.685 3.934 6.946 1.523 11.789z" fill="#363C54" opacity=".5"/><path d="M131.806 131.86c-2.409 4.807-7.029 7.361-10.295 5.672s-3.952-6.962-1.531-11.789c2.422-4.827 7.033-7.364 10.295-5.672 3.263 1.693 3.946 6.963 1.531 11.789z" fill="#646989"/><path d="M128.124 119.547l.287 16.615a11.792 11.792 0 001.666-1.655l-.251-14.635a4.739 4.739 0 00-1.702-.325zm-6.78 4.025l.237 13.994a5.062 5.062 0 003.389.344l-.291-17.356a11.359 11.359 0 00-3.335 3.018z" fill="#7F86A8"/><path d="M130.301 131.084c-1.804 3.589-5.236 5.485-7.673 4.227-2.437-1.258-2.943-5.187-1.137-8.779 1.806-3.593 5.236-5.485 7.673-4.227 2.436 1.258 2.936 5.187 1.137 8.779z" fill="#D0D3DD"/><path d="M129.179 130.504c-1.345 2.676-3.89 4.071-5.72 3.152-1.83-.918-2.18-3.857-.845-6.548 1.334-2.692 3.906-4.089 5.72-3.153 1.814.936 2.187 3.87.845 6.549z" fill="#1C2033"/><path d="M128.432 130.116c-1.039 2.07-3.018 3.159-4.419 2.434-1.401-.726-1.701-2.995-.658-5.056 1.043-2.06 3.021-3.162 4.419-2.44 1.397.722 1.694 2.995.658 5.062z" fill="#17A5BA"/><path d="M124.452 131.784c1.122.549 2.684-.34 3.489-1.985.806-1.646.549-3.425-.573-3.974-1.122-.549-2.684.34-3.489 1.986-.806 1.645-.549 3.424.573 3.973z" fill="#1C2033"/><path d="M126.442 129.087c-.216.44-.638.688-.956.527-.318-.161-.366-.647-.144-1.094.223-.446.639-.687.957-.526.318.161.366.647.143 1.093z" fill="#fff"/><path d="M123.076 125.578l7.1 3.476s2.203-2.999-1.951-5.014c.006-.013-3.541-1.752-5.149 1.538zm5.664 6.466l-7.1-3.476s-1.684 1.944 2.457 3.973c0 0 3.547 1.738 4.643-.497z" fill="#D0D3DD"/><path d="M121.517 130.288l.953 4.228 2.382.241 2.308-1.706-2.723-1.267-2.92-1.496zm8.675-2.149l-1.213-4.354-2.596-.349-2.436 1.643 3.013 1.41 3.232 1.65z" fill="#D0D3DD"/><path d="M129.159 122.301c-1.428-.737-3.185-.397-4.783.751a3.784 3.784 0 012.662.257c2.434 1.255 2.944 5.187 1.141 8.782a9.558 9.558 0 01-2.886 3.473c1.875-.454 3.807-2.086 5.007-4.48 1.8-3.592 1.289-7.524-1.141-8.783z" fill="#646989" opacity=".5"/><path d="M161.649 147.722a6.433 6.433 0 10-5.466-11.647 6.433 6.433 0 005.466 11.647z" fill="#252528"/><path d="M153.56 141.373a6.434 6.434 0 009.438 2.586 6.434 6.434 0 002.315-2.83 6.43 6.43 0 01-9.991 6.116 6.428 6.428 0 01-2.322-7.82 6.46 6.46 0 00.56 1.948z" fill="#444344" opacity=".5"/><path d="M178.735 148.198a2.496 2.496 0 001.885-.357 2.488 2.488 0 001.071-1.592l.123-.608a2.492 2.492 0 00-1.951-2.933l-16.689-3.335a2.484 2.484 0 00-2.932 1.95l-.124.609a2.49 2.49 0 001.951 2.933l16.666 3.333z" fill="#252528"/><path d="M176.455 147.273a2.491 2.491 0 00-1.954-2.929l-14.309-2.872.031-.158a2.486 2.486 0 012.933-1.95l16.689 3.335a2.492 2.492 0 011.951 2.933l-.107.618a2.49 2.49 0 01-1.961 1.954 2.484 2.484 0 01-.972-.003l-2.385-.487.084-.441z" fill="#444344" opacity=".5"/><path d="M182.62 151.788a5.396 5.396 0 10-.602-10.774 5.396 5.396 0 00.602 10.774z" fill="#252528"/><path d="M181.322 145.756a5.364 5.364 0 00-4.121 2.306 5.397 5.397 0 015.927-6.994 5.398 5.398 0 013.64 8.414 5.403 5.403 0 00-5.446-3.726z" fill="#444344" opacity=".5"/><path d="M204.875 156.144a6.943 6.943 0 007.809-5.939l.15-1.141a6.911 6.911 0 00-1.351-5.134 6.92 6.92 0 00-4.587-2.674l-18.325-2.492a6.93 6.93 0 00-7.805 5.935l-.151 1.141a6.943 6.943 0 005.939 7.809l18.321 2.495z" fill="#17A5BA"/><path d="M207.855 153.11l.154-1.138a6.934 6.934 0 00-5.938-7.809l-18.322-2.495a6.912 6.912 0 00-1.789-.01 6.93 6.93 0 016.609-2.89l18.325 2.492a6.938 6.938 0 014.587 2.674 6.929 6.929 0 011.351 5.135l-.15 1.141a6.941 6.941 0 01-6.012 5.941 6.902 6.902 0 001.185-3.041z" fill="#444344" opacity=".5"/><path d="M208.259 154.876c1.684.5 3.737-1.411 4.584-4.268.847-2.857.169-5.578-1.516-6.078-1.684-.499-3.737 1.412-4.584 4.269-.847 2.857-.168 5.578 1.516 6.077z" fill="#252528"/><path d="M208.24 148.16c-.844 2.853-.182 5.594 1.515 6.076.247.07.505.092.76.065a2.538 2.538 0 01-2.24.57c-1.682-.499-2.363-3.219-1.516-6.076.724-2.44 2.329-4.189 3.834-4.334a7.247 7.247 0 00-2.353 3.699z" fill="#4D1518" opacity=".5"/><path d="M213.322 155.885a5.39 5.39 0 10-.603-10.765 5.39 5.39 0 00.603 10.765z" fill="#252528"/><path d="M212.449 147.509a5.394 5.394 0 00-4.779 3.572l-.024-.284a5.392 5.392 0 0110.747-.832 5.388 5.388 0 01-.28 2.345 5.39 5.39 0 00-5.664-4.801z" fill="#444344" opacity=".5"/><path d="M183.455 146.421l-1.037.695 3.35 4.996 1.036-.695-3.349-4.996zm3.092.36l-1.032.692 3.349 4.997 1.032-.692-3.349-4.997zm3.091.342l-1.033.693 3.35 4.996 1.033-.693-3.35-4.996zm3.092.328l-1.033.693 3.351 4.995 1.032-.692-3.35-4.996z" fill="#fff"/><path d="M265.575 169.815c.179-.165-.023-.676-.451-1.141-.429-.465-.921-.708-1.1-.543-.18.165.022.676.451 1.141.428.465.921.708 1.1.543z" fill="#2999C5" opacity=".34"/><path d="M268.512 146.786l-5.401-1.674-.933 3.012 5.4 1.673.934-3.011z" fill="#17A5BA"/><path d="M267.723 149.331l-5.401-1.673-.144.466 5.4 1.673.145-.466zm.786-2.546l-5.401-1.674-.144.466 5.4 1.674.145-.466z" fill="#8A475A" opacity=".15"/><path d="M269.358 147.916l-7.264-2.251-.21.676 7.265 2.252.209-.677z" fill="#2999C5" opacity=".19"/><path d="M261.479 139.57l2.688.834a1.534 1.534 0 011.012 1.919l-2.874 9.273a1.535 1.535 0 01-1.919 1.011l-2.689-.833 3.782-12.204z" fill="#583880"/><path d="M264.513 140.515l-3.038-.942-3.782 12.204 3.038.941 3.782-12.203z" fill="#8A475A" opacity=".21"/><path d="M198.656 118.629a3.035 3.035 0 00-1.26-.113l-2.716.333a3.91 3.91 0 00-2.036.883 3.906 3.906 0 00-1.23 1.847l-2.16 6.958a2.436 2.436 0 001.603 3.045l14.339 4.445 4.347-14.021-10.887-3.377zm4.913 14.855l-10.542-3.267a1.786 1.786 0 01-1.181-2.237l1.587-5.115a2.88 2.88 0 012.4-2.004l1.996-.246c.311-.037.627-.008.926.086l8.006 2.48-3.192 10.303z" fill="#F14654"/><path d="M195.834 120.862l1.996-.247c.311-.037.627-.008.926.086l8.006 2.48.216-.702-8.006-2.48a2.2 2.2 0 00-.926-.085l-1.996.246a2.878 2.878 0 00-2.399 2.004l-.217.702a2.884 2.884 0 012.4-2.004zm-4.754 10.018a2.43 2.43 0 01-1.431-1.191 2.431 2.431 0 01-.172-1.854l-.216.702a2.436 2.436 0 001.603 3.045l14.339 4.445.217-.702-14.34-4.445z" fill="#8A475A" opacity=".35"/><path d="M214.073 138.916l9.165 2.84-2.55 8.228a3.371 3.371 0 01-4.221 2.224l-5.942-1.842 3.548-11.45z" fill="#F14654"/><path d="M215.239 144.112l1.076-1.766-17.651-5.471-19.334 31.714a2.253 2.253 0 00-.183 1.965 2.244 2.244 0 001.437 1.352l13.222 4.097a2.245 2.245 0 002.586-.978l10.937-17.979 26.921 8.356a2.42 2.42 0 001.496-.018l4.401-1.497a2.425 2.425 0 001.532-1.574l2.827-9.124-29.267-9.077zm20.998 13.043a1.743 1.743 0 01-1.098 1.126l-2.678.913a1.738 1.738 0 01-1.072.016l-17.742-5.498a1.818 1.818 0 01-1.123-1.004l-1.058-2.425 3.643-5.99 22.917 7.103-1.789 5.759z" fill="#17A5BA"/><path d="M193.391 174.081l-10.703-3.32a1.82 1.82 0 01-1.016-2.685l14.983-24.576a1.655 1.655 0 011.903-.717l11.035 3.418a1.644 1.644 0 011.067.994 1.642 1.642 0 01-.137 1.451l-15.027 24.65a1.813 1.813 0 01-.917.756c-.382.143-.8.153-1.188.029z" fill="#444344" opacity=".21"/><path d="M220.799 148.798a6.25 6.25 0 00.745-1.581l.261-.846-6.686-2.074-1.403 2.302 7.083 2.199z" fill="#8A475A" opacity=".21"/><path d="M211.61 150.611l-.141-.324.141.324zm.051.11l.867 1.99-.867-1.99zm-.052-.11l.051.111-.051-.111z" fill="#2CA3C9"/><path d="M239.383 152.336l-1.491-.463-.062.205-.564 1.82-.068.225-.941 3.039a1.73 1.73 0 01-1.097 1.126l-2.678.912a1.73 1.73 0 01-1.072.017l-17.762-5.504a1.81 1.81 0 01-1.123-1.004l-.863-1.987-.386-.122-.962 1.573.791 1.81a2 2 0 001.243 1.109l19.645 6.082c.387.121.801.116 1.185-.014l2.961-1.009a1.921 1.921 0 001.212-1.243l1.341-4.326.068-.224 4.927 1.528.615-2.042-4.919-1.508z" fill="#444344" opacity=".21"/><path d="M211.469 150.287l-.198.316.39.119-.051-.111-.141-.324z" fill="#2CA3C9"/><path d="M213.291 141.433l-14.642-4.54-.729 1.199a13.878 13.878 0 007.728 6.013l4.053 1.255 1.293.401.873.273 1.851.572 1.402-2.302.103-.173 1.077-1.766-3.009-.932z" fill="#2CA3C9" opacity=".39"/><path d="M226.219 133.68l-5.401-1.674-.933 3.012 5.4 1.674.934-3.012z" fill="#17A5BA"/><path d="M225.429 136.225l-5.401-1.673-.144.466 5.4 1.673.145-.466zm.786-2.546l-5.401-1.673-.144.466 5.4 1.674.145-.467z" fill="#8A475A" opacity=".15"/><path d="M227.068 134.802l-7.264-2.252-.21.677 7.265 2.251.209-.676z" fill="#2999C5" opacity=".19"/><path d="M222.684 133.829a6.394 6.394 0 017.976-4.208l32.02 9.891 2.216-7.157-50.711-15.725a13.885 13.885 0 00-17.371 9.152 13.883 13.883 0 009.127 17.379l50.71 15.726 2.216-7.157-31.997-9.915a6.394 6.394 0 01-4.186-7.986z" fill="#583880"/><path d="M227.73 130.059l34.553 10.708-2.997 9.672-34.553-10.709a1.777 1.777 0 01-1.049-.872 1.778 1.778 0 01-.126-1.358l1.944-6.275a1.785 1.785 0 012.228-1.166z" fill="#F14654"/><path d="M228.584 138.388a5.06 5.06 0 01-3.562-5.127 5.04 5.04 0 002.828 7.455l31.44 9.737.724-2.337-31.43-9.728z" fill="#8A475A" opacity=".21"/><path d="M260.51 143.529l-31.61-9.78a.766.766 0 01-.269-.146.796.796 0 01-.281-.53.8.8 0 01.177-.573.778.778 0 01.531-.28.78.78 0 01.304.031l31.598 9.794-.45 1.484z" fill="#fff" opacity=".29"/><path opacity=".42" d="M192.967 172.336l-8.486-2.632a1.437 1.437 0 01-.924-.869 1.461 1.461 0 01-.087-.645 1.46 1.46 0 01.205-.618l13.829-22.471a1.31 1.31 0 011.509-.57l8.752 2.712a1.305 1.305 0 01.914 1.387c-.021.2-.088.392-.195.562l-13.873 22.519a1.452 1.452 0 01-1.644.625z" fill="#2CA3C9"/><path d="M197.197 124.647a14.33 14.33 0 00-.412 1.141c-.062.199-.117.399-.168.6a9.623 9.623 0 00-.137.583 13.881 13.881 0 009.461 16.191l50.71 15.726.724-2.337-50.71-15.726a13.883 13.883 0 01-9.468-16.178z" fill="#583880" opacity=".33"/><path d="M197.717 123.522a13.883 13.883 0 008.224 19.64l50.71 15.726 1.448-4.675-50.711-15.726a13.889 13.889 0 01-9.671-14.965z" fill="#8A475A" opacity=".16"/><path d="M198.27 122.538a13.9 13.9 0 00-.509 13.835 13.885 13.885 0 008.179 6.788l50.71 15.726 2.101-6.777-50.711-15.726a13.888 13.888 0 01-9.77-13.846z" fill="#8A475A" opacity=".21"/><path d="M264.442 133.817l-56.772-17.603a13.89 13.89 0 00-3.345 1.029l59.529 18.455.588-1.881z" fill="#fff" opacity=".16"/><path d="M263.498 136.853l-60.664-18.799c-.162.099-.328.202-.487.31l61.034 18.911.117-.422z" fill="#fff" opacity=".29"/><path d="M254.575 161.818a2.464 2.464 0 01-1.452-1.201 2.45 2.45 0 01-.172-1.876l8.794-28.358a2.464 2.464 0 011.201-1.452 2.456 2.456 0 011.877-.172 2.456 2.456 0 011.624 3.077l-8.779 28.347a2.452 2.452 0 01-3.093 1.635z" fill="#17A5BA"/><path d="M266.264 129.965l-8.806 28.391a1.738 1.738 0 01-.845 1.027 1.725 1.725 0 01-1.92-.198 1.74 1.74 0 01-.617-1.178 1.73 1.73 0 01.074-.674l8.8-28.384a2.453 2.453 0 00-1.202 1.445l-8.778 28.347a2.446 2.446 0 00.173 1.87 2.452 2.452 0 004.515-.416l8.779-28.347a2.443 2.443 0 00-.173-1.883z" fill="#444344" opacity=".21"/><path d="M230.802 145.084a1.142 1.142 0 01-.667-.554 1.13 1.13 0 01-.079-.863l4.058-13.097a1.124 1.124 0 01.554-.667 1.12 1.12 0 01.863-.079 1.123 1.123 0 01.667.553c.069.132.112.276.126.424.013.148-.003.297-.047.439l-4.059 13.097a1.122 1.122 0 01-.553.667 1.13 1.13 0 01-.863.08z" fill="#17A5BA"/><path d="M236.189 130.364l-4.061 13.107A.8.8 0 11230.6 143l4.065-13.104a1.12 1.12 0 00-.557.668l-4.058 13.097a1.125 1.125 0 00.079.863 1.142 1.142 0 001.106.6 1.15 1.15 0 00.767-.404 1.13 1.13 0 00.21-.389l4.059-13.097a1.127 1.127 0 00-.082-.87z" fill="#8A475A" opacity=".15"/><path d="M235.421 130.491c.225.183.465.261.535.175.07-.087-.055-.305-.281-.488-.225-.183-.464-.262-.535-.175-.07.086.056.305.281.488z" fill="#2999C5" opacity=".34"/><path d="M238.981 147.597a1.128 1.128 0 01-.667-.554 1.128 1.128 0 01-.079-.863l4.059-13.097a1.14 1.14 0 01.554-.667 1.139 1.139 0 01.863-.079 1.126 1.126 0 01.792.977c.014.148-.002.297-.046.439l-4.059 13.098a1.126 1.126 0 01-.977.792 1.13 1.13 0 01-.44-.046z" fill="#17A5BA"/><path d="M244.366 132.899l-4.062 13.108a.802.802 0 01-1 .528.802.802 0 01-.528-1l4.062-13.107a1.122 1.122 0 00-.557.668l-4.058 13.097a1.128 1.128 0 00.357 1.206 1.142 1.142 0 00.828.257 1.15 1.15 0 00.767-.404c.095-.114.166-.246.21-.388l4.059-13.098a1.134 1.134 0 00-.078-.867z" fill="#8A475A" opacity=".15"/><path d="M243.599 133.029c.225.183.464.261.535.175.07-.087-.056-.305-.281-.488-.225-.183-.465-.261-.535-.175-.07.087.055.305.281.488z" fill="#2999C5" opacity=".34"/><path d="M247.146 150.14a1.126 1.126 0 01-.792-.977 1.125 1.125 0 01.046-.439l4.066-13.091a1.122 1.122 0 01.553-.667 1.13 1.13 0 011.656.898c.014.148-.002.297-.046.439l-4.063 13.094a1.133 1.133 0 01-.98.791 1.13 1.13 0 01-.44-.048z" fill="#2999C5"/><path d="M252.561 135.447l-4.062 13.107a.797.797 0 01-1 .528.8.8 0 01-.528-1l4.062-13.107a1.137 1.137 0 00-.556.668l-4.076 13.081a1.13 1.13 0 00.746 1.417 1.125 1.125 0 00.863-.08 1.124 1.124 0 00.553-.666l4.059-13.097c.092-.281.07-.587-.061-.851z" fill="#17A5BA"/><path d="M251.78 135.563c.226.184.465.262.535.175.071-.086-.055-.305-.28-.488-.225-.183-.465-.261-.535-.174-.071.086.055.304.28.487z" fill="#2999C5" opacity=".34"/><path d="M271.374 149.338a2.998 2.998 0 01-3.752 1.97c-1.582-.489.199-6.218 1.775-5.722a2.998 2.998 0 011.977 3.752z" fill="#F14654"/><path d="M269.156 148.459a2.768 2.768 0 01-.28-2.821c-1.407.659-2.649 5.223-1.252 5.67a2.994 2.994 0 003.594-1.587 3.201 3.201 0 01-2.062-1.262z" fill="#8A475A" opacity=".21"/><path d="M271.014 147.048c.356.287.735.408.845.271.111-.138-.087-.482-.443-.769-.356-.287-.734-.408-.845-.271-.111.138.087.482.443.769z" fill="#fff" opacity=".34"/><path d="M85.235 174.815c-21.838-8.547-31.175-36.943-20.88-63.484 10.297-26.54 36.316-40.33 58.168-31.77l.142.054c-18.166.288-36.384 13.007-44.606 34.199-10.275 26.483-1 54.815 20.728 63.44a35.481 35.481 0 01-13.552-2.439z" fill="#BDBDBD"/><path d="M116.411 147.593l6.538-.366.006-2.047-6.39.065-.154 2.348z" fill="#986BD1"/><path d="M116.811 147.709l-4.259-4.973 1.474-1.421 4.374 4.659-1.589 1.735z" fill="#986BD1"/><path d="M107.37 95.178l2.284.36 9.908-20.241-1.985-.966-10.207 20.847z" fill="url(#paint15_linear)"/><path d="M107.772 94.64l1.761.862a.757.757 0 001.007-.346.758.758 0 00-.346-1.007l-1.762-.86a.755.755 0 00-1.006.345.757.757 0 00.346 1.007z" fill="url(#paint16_linear)"/><path d="M108.809 92.517l1.761.862a.756.756 0 001.007-.346.754.754 0 00-.346-1.007l-1.762-.86a.754.754 0 00-1.006.345.753.753 0 00.346 1.006z" fill="url(#paint17_linear)"/><path d="M109.847 90.402l1.761.861a.757.757 0 001.007-.345.753.753 0 00-.346-1.007l-1.761-.861a.756.756 0 00-1.007.346.754.754 0 00.346 1.006z" fill="url(#paint18_linear)"/><path d="M110.89 88.272l1.761.86a.757.757 0 001.007-.345.754.754 0 00-.346-1.006l-1.762-.862a.754.754 0 00-1.006.346.754.754 0 00.346 1.007z" fill="url(#paint19_linear)"/><path d="M111.931 86.144l1.761.861a.757.757 0 001.007-.346.753.753 0 00-.346-1.006l-1.762-.861a.754.754 0 00-1.006.345.754.754 0 00.346 1.007z" fill="url(#paint20_linear)"/><path d="M112.967 84.023l1.761.86a.757.757 0 001.007-.345.754.754 0 00-.346-1.007l-1.761-.86a.757.757 0 00-1.007.345.754.754 0 00.346 1.007z" fill="url(#paint21_linear)"/><path d="M114.022 81.908l1.761.862a.757.757 0 001.007-.346.758.758 0 00-.346-1.007l-1.762-.861a.754.754 0 00-1.041.92.757.757 0 00.381.432z" fill="url(#paint22_linear)"/><path d="M115.047 79.775l1.762.861a.754.754 0 001.006-.346.754.754 0 00-.346-1.006l-1.761-.862a.757.757 0 00-1.007.346.754.754 0 00.346 1.007z" fill="url(#paint23_linear)"/><path d="M116.099 77.639l1.761.861a.757.757 0 001.007-.346.754.754 0 00-.346-1.006l-1.762-.862a.754.754 0 00-1.006.346.754.754 0 00.346 1.007z" fill="url(#paint24_linear)"/><path d="M117.962 76.08a2.037 2.037 0 101.79-3.66 2.037 2.037 0 00-1.79 3.66z" fill="url(#paint25_linear)"/><path opacity=".34" d="M277.067 166.471c.162-.175-.099-.68-.586-1.127-.488-.446-1.011-.663-1.174-.488-.163.176.102.684.586 1.127.485.444 1.014.667 1.174.488z" fill="#2999C5"/><path d="M539.503 243.151L277.45 146.572s-3.065-1.84-5.259 2.543c-2.194 4.383 1.224 5.471 1.224 5.471l264.549 95.916 1.539-7.351z" fill="url(#paint26_linear)"/><path d="M212.156 147.117a2.26 2.26 0 00-2.474 1.966 2.261 2.261 0 001.967 2.474l4.245.488a2.259 2.259 0 002.474-1.966 2.261 2.261 0 00-1.967-2.474l-4.245-.488z" fill="#1C1C1D"/><path d="M217.214 147.658a2.25 2.25 0 00-2.356 2.129c-.066 1.234.896 2.29 2.101 2.33l4.263.236a2.253 2.253 0 002.357-2.13c.066-1.234-.897-2.29-2.102-2.33l-4.263-.235z" fill="#252528"/><path d="M216.5 146.508c-1.234-.066-2.29.896-2.329 2.101a2.253 2.253 0 002.13 2.357l4.264.236c1.178.068 2.234-.894 2.3-2.128.066-1.234-.897-2.29-2.131-2.357l-4.234-.209z" fill="#17A5BA"/><path d="M217.248 147.097a1.033 1.033 0 00-1.11 1.02 1.034 1.034 0 001.021 1.11l2.048.121a1.034 1.034 0 001.11-1.02 1.034 1.034 0 00-1.021-1.11l-2.048-.121z" fill="#252528"/><path opacity=".5" d="M219.18 149.376l-2.047-.121a1.062 1.062 0 01-1.021-1.11c.016-.309.201-.623.418-.799.002.056-.023.141-.021.196a1.035 1.035 0 001.021 1.111l2.048.12c.252.019.501-.074.691-.221-.093.507-.557.832-1.089.824z" fill="#4D1518"/><path opacity=".5" d="M221.806 149.98c.066-1.234-.896-2.29-2.101-2.33l-4.264-.235a1.683 1.683 0 00-.973.175c.423-.687 1.164-1.078 2.004-1.053l4.264.236a2.253 2.253 0 012.13 2.357c-.052.869-.611 1.645-1.383 1.954.182-.371.309-.739.323-1.104z" fill="#4D1518"/><path d="M210.121 152.621a2.26 2.26 0 00-2.474 1.966 2.263 2.263 0 001.967 2.475l4.244.488a2.26 2.26 0 002.475-1.966 2.262 2.262 0 00-1.967-2.475l-4.245-.488z" fill="#1C1C1D"/><path d="M215.151 153.136a2.25 2.25 0 00-2.356 2.129c-.066 1.234.897 2.291 2.102 2.33l4.263.236a2.252 2.252 0 002.356-2.13c.066-1.234-.896-2.29-2.101-2.33l-4.264-.235z" fill="#252528"/><path d="M214.437 151.987c-1.234-.067-2.29.895-2.33 2.1-.066 1.234.897 2.29 2.131 2.357l4.263.236c1.234.066 2.29-.896 2.329-2.101.067-1.234-.896-2.29-2.13-2.357l-4.263-.235z" fill="#17A5BA"/><path d="M215.215 152.602a1.033 1.033 0 00-1.11 1.02 1.034 1.034 0 001.021 1.11l2.048.121a1.032 1.032 0 001.109-1.02 1.033 1.033 0 00-1.02-1.11l-2.048-.121z" fill="#252528"/><path opacity=".5" d="M217.175 154.853l-2.048-.121a1.062 1.062 0 01-1.021-1.11c.017-.309.201-.623.418-.799.002.056-.023.141-.02.197a1.033 1.033 0 001.02 1.11l2.048.12c.253.019.501-.074.692-.221-.15.509-.584.861-1.089.824z" fill="#4D1518"/><path opacity=".5" d="M219.77 155.43c.066-1.234-.897-2.29-2.102-2.33l-4.263-.235a1.682 1.682 0 00-.973.176c.423-.688 1.164-1.079 2.004-1.054l4.263.236c1.234.067 2.197 1.123 2.131 2.357-.052.869-.611 1.646-1.383 1.954a3.58 3.58 0 00.323-1.104z" fill="#4D1518"/><path d="M192.132 140.014a2.281 2.281 0 012.211-2.265 2.283 2.283 0 012.265 2.212l.019 4.282c-.01 1.232-.952 2.246-2.211 2.264a2.283 2.283 0 01-2.265-2.212l-.019-4.281z" fill="#1C1C1D"/><path d="M193.177 147.029c-.952-.777-1.089-2.199-.284-3.124.777-.952 2.199-1.089 3.125-.283l3.292 2.734c.952.777 1.089 2.199.283 3.125-.776.952-2.198 1.088-3.151.311l-3.265-2.763z" fill="#252528"/><path d="M191.874 147.384c-.952-.776-1.089-2.199-.283-3.124.776-.952 2.198-1.088 3.124-.282l3.292 2.734c.952.776 1.089 2.199.284 3.124-.777.952-2.199 1.088-3.125.283l-3.292-2.735z" fill="#17A5BA"/><path d="M192.884 147.46c-.462-.375-.515-1.073-.141-1.534.375-.462 1.073-.515 1.535-.14l1.588 1.313c.461.375.515 1.072.14 1.534-.374.462-1.072.515-1.534.14l-1.588-1.313z" fill="#252528"/><path opacity=".5" d="M195.839 147.128l-1.588-1.314c-.462-.375-1.131-.294-1.534.141-.216.231-.286.598-.22.875.054-.058.052-.114.106-.172.375-.461 1.072-.515 1.534-.14l1.588 1.313c.203.189.323.408.387.63a1.073 1.073 0 00-.273-1.333z" fill="#4D1518"/><path opacity=".5" d="M198.156 148.47a2.25 2.25 0 01-3.152.311l-3.321-2.761c-.261-.242-.466-.486-.588-.762-.138.789.116 1.619.779 2.127l3.292 2.734c.952.777 2.348.669 3.124-.283.59-.693.64-1.618.305-2.362-.044.338-.199.679-.439.996z" fill="#4D1518"/><path d="M73.312 229.659l22.928-52.528-22.273-8.651-22.618 51.891 21.963 9.288z" fill="url(#paint27_linear)"/><path d="M101.388 177.096a33.288 33.288 0 01-16.352-1.937c-5.28-2.034-9.848-5.347-13.431-9.509l29.783 11.446z" fill="url(#paint28_linear)"/><path d="M97.269 177.404a34.093 34.093 0 01-12.231-2.244c-3.985-1.528-7.51-3.738-10.572-6.631l22.803 8.875z" fill="#17A5BA"/><path d="M77.883 109.099c5.296-5.574 6.52-13.007 2.737-16.601-3.784-3.594-11.144-1.99-16.439 3.585-5.295 5.574-6.52 13.007-2.736 16.601 3.784 3.594 11.143 1.989 16.438-3.585z" fill="#191818"/><path opacity=".5" d="M59.3 108.153c1.471 1.118 5.74-2.024 9.533-7.017 3.794-4.993 5.677-9.947 4.206-11.064-1.472-1.118-5.74 2.023-9.533 7.016-3.794 4.994-5.677 9.947-4.206 11.065z" fill="#19A1A2"/><path d="M58.75 107.779c1.471 1.118 5.74-2.024 9.533-7.017 3.794-4.993 5.677-9.947 4.206-11.064-1.471-1.118-5.74 2.023-9.533 7.016-3.794 4.993-5.677 9.947-4.206 11.065z" fill="#17A5BA"/><path d="M59.283 104.109c1.143.869 4.46-1.573 7.409-5.454 2.948-3.881 4.412-7.731 3.27-8.6-1.144-.868-4.46 1.574-7.41 5.455-2.949 3.88-4.413 7.731-3.27 8.599z" fill="#191818"/><path d="M64.755 98.798a6.433 6.433 0 10-3.671-12.33 6.433 6.433 0 003.671 12.33z" fill="#252528"/><path d="M59.285 96.603a6.432 6.432 0 018.934-7.64 6.434 6.434 0 00-11.527 2.085 6.431 6.431 0 003.47 7.382 6.445 6.445 0 01-.877-1.827z" fill="#444344" opacity=".5"/><path d="M43.68 95.65a2.488 2.488 0 01-2.531-2.446l.003-.637a2.492 2.492 0 012.446-2.53l17.008-.29a2.487 2.487 0 012.53 2.447l-.003.638a2.491 2.491 0 01-2.447 2.53l-17.007.288z" fill="#252528"/><path d="M46.088 95.148a2.491 2.491 0 012.446-2.53l14.595-.25-.002-.163a2.485 2.485 0 00-2.53-2.446l-17.015.289a2.492 2.492 0 00-2.446 2.53l-.003.638a2.487 2.487 0 002.53 2.446l2.416-.043.009-.471z" fill="#444344" opacity=".5"/><path d="M43.853 97.665a5.396 5.396 0 10-3.08-10.342 5.396 5.396 0 003.08 10.342z" fill="#252528"/><path d="M43.061 91.546a5.378 5.378 0 014.66.775 5.396 5.396 0 10-8.513 4.566 5.4 5.4 0 013.853-5.34z" fill="#444344" opacity=".5"/><path d="M50.814 127.325a1.726 1.726 0 012.164-1.113 1.722 1.722 0 011.113 2.164l-1.01 3.144a1.718 1.718 0 01-.85 1.015 1.733 1.733 0 01-1.32.111 1.722 1.722 0 01-1.114-2.164l1.017-3.157z" fill="#1C1C1D"/><path d="M49.886 132.703a1.709 1.709 0 01-.218-1.301 1.727 1.727 0 011.397-1.311 1.708 1.708 0 011.284.3c.184.132.34.298.459.491l1.753 2.792a1.723 1.723 0 01-.553 2.371 1.728 1.728 0 01-1.926-.036 1.734 1.734 0 01-.467-.49l-1.729-2.816z" fill="#252528"/><path d="M48.855 132.656a1.723 1.723 0 012.928-1.821l1.726 2.784a1.724 1.724 0 01-.553 2.371 1.72 1.72 0 01-2.372-.553l-1.73-2.781z" fill="#17A5BA"/><path d="M49.544 132.939a.83.83 0 01.264-1.14.83.83 0 011.14.263l.84 1.35a.83.83 0 01-.264 1.14.825.825 0 01-1.14-.263l-.84-1.35z" fill="#252528"/><path d="M51.797 133.409l-.84-1.35a.83.83 0 00-1.31-.12.826.826 0 00-.212.452.737.737 0 01.117-.11.825.825 0 011.14.263l.84 1.35a.824.824 0 01.121.555.829.829 0 00.144-1.04z" fill="#4D1518" opacity=".5"/><path d="M53.164 134.956a1.725 1.725 0 01-2.375-.55l-1.745-2.798a1.737 1.737 0 01-.249-.71 1.723 1.723 0 00.043 1.748l1.746 2.805a1.72 1.72 0 003.17-1.112 1.717 1.717 0 01-.59.617z" fill="#4D1518" opacity=".5"/><path d="M58.265 113.824a7.203 7.203 0 01-3.674 9.499l-1.1.482a7.206 7.206 0 01-5.51.132 7.195 7.195 0 01-3.988-3.806l-7.747-17.561a7.2 7.2 0 013.674-9.5l1.096-.485a7.202 7.202 0 019.499 3.674l7.75 17.565z" fill="#17A5BA"/><path d="M56.093 117.669l-1.102.485a7.206 7.206 0 01-5.511.132 7.195 7.195 0 01-3.988-3.806l-7.73-17.564a7.177 7.177 0 01-.524-1.782 7.192 7.192 0 00-.986 7.423l7.746 17.561a7.2 7.2 0 009.5 3.674l1.098-.482a7.197 7.197 0 004.205-7.71 7.16 7.16 0 01-2.708 2.069z" fill="#444344" opacity=".5"/><path d="M57.956 117.558c-.982-1.537-3.89-1.433-6.497.232-2.607 1.665-3.924 4.26-2.942 5.797.981 1.536 3.89 1.432 6.496-.232 2.607-1.665 3.924-4.261 2.943-5.797z" fill="#252528"/><path d="M51.265 119.47c2.603-1.662 5.514-1.765 6.486-.225.14.223.236.472.282.731a2.63 2.63 0 00-.076-2.399c-.983-1.537-3.886-1.434-6.486.225-2.221 1.428-3.51 3.524-3.245 5.075a7.53 7.53 0 013.04-3.407z" fill="#4D1518" opacity=".5"/><path d="M60.418 122.355a5.595 5.595 0 10-10.91 2.485 5.595 5.595 0 0010.91-2.485z" fill="#252528"/><path d="M51.805 123.843a5.604 5.604 0 012.19-5.787l-.294.057a5.604 5.604 0 00-3.752 2.968 5.597 5.597 0 006.006 7.989 5.593 5.593 0 002.26-.952 5.598 5.598 0 01-6.41-4.275z" fill="#444344" opacity=".5"/><path d="M54.798 127.125a1.726 1.726 0 012.401-1.562 1.718 1.718 0 011.043 1.605l-.043 3.302a1.724 1.724 0 01-1.743 1.701 1.727 1.727 0 01-1.7-1.744l.042-3.302z" fill="#1C1C1D"/><path d="M55.489 132.529a1.736 1.736 0 01-.589-1.182 1.729 1.729 0 01.42-1.251 1.726 1.726 0 012.416-.152l2.49 2.169a1.712 1.712 0 01.59 1.181 1.725 1.725 0 01-.42 1.252 1.723 1.723 0 01-2.43.165l-2.477-2.182z" fill="#252528"/><path d="M54.471 132.787a1.731 1.731 0 01-.587-1.181 1.72 1.72 0 01.955-1.661 1.73 1.73 0 011.317-.091c.214.072.413.186.584.335l2.487 2.165a1.723 1.723 0 01-.38 2.834 1.731 1.731 0 01-1.318.091 1.734 1.734 0 01-.584-.334l-2.474-2.158z" fill="#17A5BA"/><path d="M55.227 132.863a.834.834 0 01-.08-1.17.817.817 0 01.902-.236c.104.037.2.095.28.169l1.201 1.044a.832.832 0 01.08 1.17.832.832 0 01-1.17.08l-1.213-1.057z" fill="#252528"/><path d="M57.516 132.655l-1.187-1.029a.828.828 0 00-1.361.764.838.838 0 01.662-.412.833.833 0 01.6.203l1.2 1.044c.145.126.24.3.27.489a.832.832 0 00-.184-1.059z" fill="#4D1518" opacity=".5"/><path d="M59.291 133.72a1.712 1.712 0 01-1.178.587 1.728 1.728 0 01-1.248-.419l-2.491-2.169a1.668 1.668 0 01-.445-.605 1.721 1.721 0 00.556 1.659l2.49 2.169a1.716 1.716 0 002.8-.852 1.71 1.71 0 00-.093-1.141 1.719 1.719 0 01-.391.771z" fill="#4D1518" opacity=".5"/><path d="M59.763 121.452a1.717 1.717 0 00-1.323.037 1.716 1.716 0 00-.907.964 1.725 1.725 0 00.987 2.229l3.08 1.191a1.742 1.742 0 001.319-.032 1.719 1.719 0 001.026-1.618 1.722 1.722 0 00-1.103-1.567l-3.08-1.204z" fill="#1C1C1D"/><path d="M64.522 124.109a1.721 1.721 0 00-1.529-1.155 1.734 1.734 0 00-1.246.434 1.727 1.727 0 00-.482 1.854l1.086 3.114a1.721 1.721 0 001.529 1.155 1.733 1.733 0 001.246-.434 1.728 1.728 0 00.482-1.854l-1.086-3.114z" fill="#252528"/><path d="M65.132 123.265a1.721 1.721 0 00-1.528-1.155 1.733 1.733 0 00-1.654.964c-.2.41-.23.882-.084 1.314l1.09 3.117a1.719 1.719 0 002.776.732 1.72 1.72 0 00.48-1.851l-1.08-3.121z" fill="#17A5BA"/><path d="M64.036 124.347a.834.834 0 00-1.056-.509.83.83 0 00-.513 1.053l.53 1.51a.824.824 0 00.735.555.832.832 0 00.32-.046.836.836 0 00.49-.422.826.826 0 00.037-.645l-.543-1.496z" fill="#252528"/><path d="M63.003 126.407l-.529-1.51a.833.833 0 01.512-1.053c.116-.04.24-.054.361-.04a.81.81 0 01.343.119.82.82 0 00-.593.388.827.827 0 00-.075.705l.529 1.51a.834.834 0 00.356.434.832.832 0 01-.904-.553z" fill="#4D1518" opacity=".5"/><path d="M64.22 128.079a1.72 1.72 0 00.989-.878 1.728 1.728 0 00.075-1.321l-1.082-3.117a1.72 1.72 0 00-.395-.638 1.72 1.72 0 011.335 1.13l1.086 3.121a1.724 1.724 0 01-2.858 1.768c.284.05.576.028.85-.065z" fill="#444344" opacity=".5"/><path d="M49.049 97.958l-1.092-.605-2.916 5.26 1.091.605 2.917-5.26zm1.091 2.916l-1.087-.603-2.917 5.26 1.087.603 2.917-5.26zm1.107 2.907l-1.088-.603-2.916 5.261 1.087.602 2.917-5.26z" fill="#fff"/><path transform="matrix(-1 0 0 1 328 113)" fill="url(#paint29_linear)" d="M0 0h54v117H0z"/></g><defs><linearGradient id="paint1_linear" x1="148.25" y1="101.726" x2="150.24" y2="102.701" gradientUnits="userSpaceOnUse"><stop stop-color="#fff"/><stop offset="1" stop-color="#B7B6B6"/></linearGradient><linearGradient id="paint2_linear" x1="143.188" y1="110.633" x2="146.312" y2="112.162" gradientUnits="userSpaceOnUse"><stop stop-color="#242424"/><stop offset="1" stop-color="#555"/></linearGradient><linearGradient id="paint3_linear" x1="-566.488" y1="2523.64" x2="-548.185" y2="2540.64" gradientUnits="userSpaceOnUse"><stop stop-color="#242424"/><stop offset="1" stop-color="#555"/></linearGradient><linearGradient id="paint4_linear" x1="-558.341" y1="2513.86" x2="-540.038" y2="2530.86" gradientUnits="userSpaceOnUse"><stop stop-color="#242424"/><stop offset="1" stop-color="#555"/></linearGradient><linearGradient id="paint5_linear" x1="-550.197" y1="2504.1" x2="-531.894" y2="2521.1" gradientUnits="userSpaceOnUse"><stop stop-color="#242424"/><stop offset="1" stop-color="#555"/></linearGradient><linearGradient id="paint6_linear" x1="-542.053" y1="2494.32" x2="-523.75" y2="2511.32" gradientUnits="userSpaceOnUse"><stop stop-color="#242424"/><stop offset="1" stop-color="#555"/></linearGradient><linearGradient id="paint7_linear" x1="-533.906" y1="2484.55" x2="-515.603" y2="2501.55" gradientUnits="userSpaceOnUse"><stop stop-color="#242424"/><stop offset="1" stop-color="#555"/></linearGradient><linearGradient id="paint8_linear" x1="-525.763" y1="2474.78" x2="-507.46" y2="2491.78" gradientUnits="userSpaceOnUse"><stop stop-color="#242424"/><stop offset="1" stop-color="#555"/></linearGradient><linearGradient id="paint9_linear" x1="-517.62" y1="2465.01" x2="-499.317" y2="2482.01" gradientUnits="userSpaceOnUse"><stop stop-color="#242424"/><stop offset="1" stop-color="#555"/></linearGradient><linearGradient id="paint10_linear" x1="-509.475" y1="2455.23" x2="-491.172" y2="2472.23" gradientUnits="userSpaceOnUse"><stop stop-color="#242424"/><stop offset="1" stop-color="#555"/></linearGradient><linearGradient id="paint11_linear" x1="-381.937" y1="4177.33" x2="-350.133" y2="4192.9" gradientUnits="userSpaceOnUse"><stop stop-color="#242424"/><stop offset="1" stop-color="#555"/></linearGradient><linearGradient id="paint13_linear" x1="106.599" y1="123.664" x2="141.325" y2="140.661" gradientUnits="userSpaceOnUse"><stop stop-color="#B7B6B6"/><stop offset="1" stop-color="#fff"/></linearGradient><linearGradient id="paint14_linear" x1="107.655" y1="124.181" x2="140.264" y2="140.142" gradientUnits="userSpaceOnUse"><stop stop-color="#575757"/><stop offset="1" stop-color="#BBB"/></linearGradient><linearGradient id="paint15_linear" x1="-15050" y1="19577.7" x2="-15020.2" y2="19605.4" gradientUnits="userSpaceOnUse"><stop stop-color="#fff"/><stop offset="1" stop-color="#B7B6B6"/></linearGradient><linearGradient id="paint16_linear" x1="107.101" y1="95.101" x2="110.224" y2="96.63" gradientUnits="userSpaceOnUse"><stop stop-color="#555"/><stop offset="1" stop-color="#242424"/></linearGradient><linearGradient id="paint17_linear" x1="-814.767" y1="2322.46" x2="-796.464" y2="2339.46" gradientUnits="userSpaceOnUse"><stop stop-color="#555"/><stop offset="1" stop-color="#242424"/></linearGradient><linearGradient id="paint18_linear" x1="-806.625" y1="2312.69" x2="-788.322" y2="2329.69" gradientUnits="userSpaceOnUse"><stop stop-color="#555"/><stop offset="1" stop-color="#242424"/></linearGradient><linearGradient id="paint19_linear" x1="-798.479" y1="2302.92" x2="-780.176" y2="2319.92" gradientUnits="userSpaceOnUse"><stop stop-color="#555"/><stop offset="1" stop-color="#242424"/></linearGradient><linearGradient id="paint20_linear" x1="-790.334" y1="2293.14" x2="-772.031" y2="2310.14" gradientUnits="userSpaceOnUse"><stop stop-color="#555"/><stop offset="1" stop-color="#242424"/></linearGradient><linearGradient id="paint21_linear" x1="-782.192" y1="2283.37" x2="-763.889" y2="2300.37" gradientUnits="userSpaceOnUse"><stop stop-color="#555"/><stop offset="1" stop-color="#242424"/></linearGradient><linearGradient id="paint22_linear" x1="-774.033" y1="2273.61" x2="-755.729" y2="2290.61" gradientUnits="userSpaceOnUse"><stop stop-color="#555"/><stop offset="1" stop-color="#242424"/></linearGradient><linearGradient id="paint23_linear" x1="-765.902" y1="2263.82" x2="-747.599" y2="2280.82" gradientUnits="userSpaceOnUse"><stop stop-color="#555"/><stop offset="1" stop-color="#242424"/></linearGradient><linearGradient id="paint24_linear" x1="-757.743" y1="2254.03" x2="-739.44" y2="2271.04" gradientUnits="userSpaceOnUse"><stop stop-color="#555"/><stop offset="1" stop-color="#242424"/></linearGradient><linearGradient id="paint25_linear" x1="-731.74" y1="4026.43" x2="-699.989" y2="4041.97" gradientUnits="userSpaceOnUse"><stop stop-color="#555"/><stop offset="1" stop-color="#242424"/></linearGradient><linearGradient id="paint26_linear" x1="613.808" y1="266.303" x2="285.446" y2="156.355" gradientUnits="userSpaceOnUse"><stop stop-color="#fff" stop-opacity="0"/><stop offset="1" stop-color="#fff"/></linearGradient><linearGradient id="paint27_linear" x1="95.926" y1="145.755" x2="73.329" y2="216.28" gradientUnits="userSpaceOnUse"><stop stop-color="#00D0CD"/><stop offset="1" stop-color="#00D0CD" stop-opacity="0"/></linearGradient><linearGradient id="paint28_linear" x1="100.719" y1="179.002" x2="70.877" y2="167.506" gradientUnits="userSpaceOnUse"><stop stop-color="#B7B6B6"/><stop offset="1" stop-color="#fff"/></linearGradient><linearGradient id="paint29_linear" x1=".85" y1="117" x2="53.182" y2="117" gradientUnits="userSpaceOnUse"><stop stop-color="#243248"/><stop offset="1" stop-color="#243248" stop-opacity="0"/></linearGradient><radialGradient id="paint0_radial" cx="0" cy="0" r="1" gradientUnits="userSpaceOnUse" gradientTransform="rotate(158.837 58.146 75.525) scale(135.9 103.275)"><stop stop-color="#CEACF9"/><stop offset="1" stop-color="#986BD1" stop-opacity="0"/></radialGradient><radialGradient id="paint12_radial" cx="0" cy="0" r="1" gradientUnits="userSpaceOnUse" gradientTransform="matrix(-17.87214 -8.68673 12.78695 -26.30797 126.656 132.341)"><stop stop-color="#333"/><stop offset="1" stop-color="#333"/></radialGradient><clipPath id="clip0"><path fill="#fff" d="M24 62h304v168H24z"/></clipPath></defs></svg>