<svg width="894" height="428" fill="none" xmlns="http://www.w3.org/2000/svg"><path d="M242.623 397.501c118.429 3.904 210.144-81.851 204.851-191.539C442.182 96.275 341.887 4.192 223.458.289 105.03-3.615 13.315 82.14 18.608 191.828c5.291 109.687 105.587 201.77 224.015 205.673z" fill="url(#paint0_radial)"/><g clip-path="url(#clip0)"><path d="M238.207 239.39c7.883 2.375 17.109-5.115 20.607-16.728 3.498-11.614-.057-22.953-7.94-25.327-7.883-2.375-17.109 5.115-20.607 16.728-3.498 11.613.057 22.953 7.94 25.327z" fill="#191818"/><path opacity=".5" d="M246.068 238.775c2.682 1.142 7.997-5.311 11.873-14.413 3.875-9.102 4.842-17.406 2.161-18.548-2.682-1.142-7.997 5.311-11.873 14.413-3.875 9.102-4.843 17.407-2.161 18.548z" fill="#19A1A2"/><path d="M247.011 239.27c2.682 1.142 7.998-5.311 11.873-14.413 3.875-9.102 4.843-17.406 2.161-18.548-2.682-1.141-7.997 5.312-11.872 14.414-3.876 9.101-4.843 17.406-2.162 18.547z" fill="#17A5BA"/><path d="M251.615 235.684c2.083.887 6.214-4.129 9.227-11.204 3.012-7.074 3.765-13.529 1.681-14.416-2.084-.887-6.215 4.129-9.227 11.204-3.012 7.074-3.765 13.529-1.681 14.416z" fill="#191818"/><path d="M256.796 144.666l-15.944 31.769 2.633 2.526 16.431-32.735-3.12-1.56z" fill="url(#paint1_linear)"/><path d="M243.777 177.944l-2.765-1.386a1.193 1.193 0 01-.529-1.594 1.193 1.193 0 011.593-.529l2.765 1.386a1.19 1.19 0 01-.158 2.187 1.193 1.193 0 01-.906-.064z" fill="url(#paint2_linear)"/><path d="M245.447 174.612l-2.765-1.387a1.193 1.193 0 01-.529-1.593 1.19 1.19 0 011.593-.53l2.765 1.387a1.194 1.194 0 01.53 1.593 1.192 1.192 0 01-1.594.53z" fill="url(#paint3_linear)"/><path d="M247.122 171.271l-2.765-1.386a1.193 1.193 0 01-.53-1.593 1.192 1.192 0 011.594-.53l2.765 1.386a1.193 1.193 0 01.529 1.594 1.193 1.193 0 01-1.593.529z" fill="url(#paint4_linear)"/><path d="M248.798 167.944l-2.765-1.386a1.19 1.19 0 01.158-2.187 1.19 1.19 0 01.905.064l2.765 1.386a1.19 1.19 0 01-.157 2.187 1.193 1.193 0 01-.906-.064z" fill="url(#paint5_linear)"/><path d="M250.472 164.607l-2.765-1.387a1.19 1.19 0 01-.53-1.593 1.19 1.19 0 011.593-.53l2.765 1.387a1.19 1.19 0 01.53 1.593 1.19 1.19 0 01-1.593.53z" fill="url(#paint6_linear)"/><path d="M252.143 161.274l-2.765-1.386a1.19 1.19 0 01-.53-1.593 1.19 1.19 0 011.593-.53l2.765 1.386a1.19 1.19 0 01-.158 2.187 1.19 1.19 0 01-.905-.064z" fill="url(#paint7_linear)"/><path d="M253.817 157.946l-2.766-1.387a1.193 1.193 0 01-.529-1.593 1.194 1.194 0 011.593-.529l2.765 1.386a1.19 1.19 0 01.53 1.593 1.19 1.19 0 01-1.593.53z" fill="url(#paint8_linear)"/><path d="M255.49 154.609l-2.765-1.386a1.19 1.19 0 01-.529-1.593 1.193 1.193 0 011.593-.53l2.765 1.386a1.193 1.193 0 01.529 1.594 1.194 1.194 0 01-1.593.529z" fill="url(#paint9_linear)"/><path d="M257.161 151.276l-2.765-1.386a1.193 1.193 0 01-.529-1.593 1.192 1.192 0 011.593-.53l2.765 1.386a1.193 1.193 0 01.529 1.594 1.193 1.193 0 01-1.593.529z" fill="url(#paint10_linear)"/><path d="M257.588 148.194a3.222 3.222 0 102.89-5.76 3.222 3.222 0 00-2.89 5.76z" fill="url(#paint11_linear)"/><path d="M144.114 275.826c32.845 16.485 75.723-2.532 95.772-42.476 20.048-39.943 9.674-85.688-23.171-102.173s-75.723 2.531-95.771 42.475c-20.049 39.944-9.675 85.688 23.17 102.174z" fill="#fff"/><path d="M171.185 241.296a10.944 10.944 0 004.954 5.307s29.378 10.364 31.992 9.822l2.536-.523c5.805-1.198 11.596-6.264 15.1-13.222l3.877-7.717c.646-1.285-.493-.05-.043-1.397l14.814-44.016c2.037-6.044 1.927-12.104-.295-16.443a10.815 10.815 0 00-4.769-4.877l-7.537-3.787-7.536-3.788a10.82 10.82 0 00-6.741-.892c-4.827.789-9.727 4.345-13.361 9.589l-26.437 38.171a30.604 30.604 0 00-2.188 3.698l-3.877 7.716c-3.48 6.9-4.085 14.597-1.585 19.965l1.096 2.394z" fill="url(#paint12_radial)"/><path d="M230.494 233.752l14.814-44.016c2.177-6.472 2.063-12.851-.308-17.505a11.569 11.569 0 00-5.05-5.184l-15.078-7.569a11.566 11.566 0 00-7.172-.955c-5.15.872-10.333 4.597-14.224 10.21l-26.442 38.165a32.804 32.804 0 00-2.319 3.921l-3.866 7.727c-3.708 7.388-4.353 15.536-1.681 21.26l1.1 2.348a11.693 11.693 0 005.272 5.649l24.777 9.021a11.694 11.694 0 007.677.852l2.536-.524c6.186-1.276 12.34-6.661 16.047-14.049-.02.022 3.437-7.919 3.917-9.351zm-5.598 8.543c-3.255 6.491-8.657 11.222-14.098 12.347l-2.536.524c-2.269.523-4.648.26-6.748-.746l-24.777-9.021a10.286 10.286 0 01-4.636-4.964l-1.089-2.359c-2.361-5.041-1.783-12.193 1.472-18.684l3.877-7.716a28.683 28.683 0 012.054-3.459l26.442-38.165c3.412-4.925 7.968-8.204 12.498-8.97a10.169 10.169 0 016.306.878l15.078 7.57a10.165 10.165 0 014.431 4.556c2.089 4.08 2.187 9.69.272 15.381l-14.814 44.016c-.428 1.205-3.732 8.812-3.732 8.812z" fill="url(#paint13_linear)"/><path d="M224.896 242.295s3.303-7.607 3.725-8.859l14.799-44.01c1.915-5.691 1.812-11.295-.272-15.381a10.165 10.165 0 00-4.431-4.556l-15.078-7.57a10.169 10.169 0 00-6.306-.878c-4.545.792-9.075 4.035-12.498 8.969l-26.442 38.166a28.683 28.683 0 00-2.054 3.459l-3.849 7.773c-3.255 6.491-3.822 13.653-1.472 18.684l1.099 2.348a10.282 10.282 0 004.636 4.964l24.766 9.011a10.282 10.282 0 006.748.746l2.536-.524c5.43-1.125 10.838-5.851 14.093-12.342zm-16.444 11.175a9.331 9.331 0 01-6.113-.695l-24.777-9.021a9.324 9.324 0 01-4.204-4.505l-1.126-2.352c-2.134-4.571-1.617-11.067 1.34-16.963l3.877-7.717a26.243 26.243 0 011.863-3.139l26.442-38.166c3.105-4.481 7.225-7.429 11.348-8.142a9.222 9.222 0 015.716.758l15.078 7.569a9.226 9.226 0 014.027 4.133c1.896 3.703 1.985 8.795.249 13.962l-14.818 44.021c-.384 1.136-3.583 8.516-3.583 8.516-2.957 5.896-7.863 10.19-12.805 11.207l-2.514.534z" fill="url(#paint14_linear)"/><path opacity=".05" d="M244.172 190.137l-75.617 42.03a17.452 17.452 0 001.512 6.777l1.1 2.347a10.944 10.944 0 004.954 5.307l8.828 1.014 50.086-27.852 9.137-29.623zm-.095-17.008a11.638 11.638 0 00-2.341-3.147l-61.776 34.355-2.238 3.233a30.82 30.82 0 00-2.189 3.698l-3.876 7.717c-.348.689-.634 1.367-.929 2.056l74.982-41.683a16.68 16.68 0 00-1.633-6.229z" fill="#fff"/><path d="M220.22 212.369c-3.877 7.543-11.205 11.499-16.33 8.784-5.126-2.716-6.124-11.046-2.223-18.617 3.902-7.57 11.205-11.499 16.335-8.789 5.131 2.711 6.097 11.02 2.218 18.622z" fill="#363C54" opacity=".5"/><path d="M221.817 210.648c-3.876 7.544-11.204 11.5-16.33 8.784-5.125-2.716-6.124-11.045-2.227-18.621 3.896-7.576 11.209-11.505 16.33-8.784 5.12 2.721 6.113 11.046 2.227 18.621z" fill="#646989"/><path d="M216.206 191.166l.191 26.215a18.737 18.737 0 002.653-2.585l-.164-23.09a7.466 7.466 0 00-2.68-.54zm-10.76 6.242l.153 22.08a7.98 7.98 0 005.341.595l-.185-27.383a17.938 17.938 0 00-5.309 4.708z" fill="#7F86A8"/><path d="M219.456 209.399c-2.901 5.633-8.346 8.57-12.17 6.547-3.824-2.024-4.561-8.229-1.655-13.867 2.906-5.639 8.346-8.57 12.17-6.547 3.824 2.023 4.551 8.229 1.655 13.867z" fill="#D0D3DD"/><path d="M217.696 208.467c-2.165 4.199-6.202 6.36-9.074 4.882-2.872-1.478-3.379-6.119-1.23-10.344 2.148-4.225 6.226-6.387 9.073-4.882 2.847 1.504 3.39 6.139 1.231 10.344z" fill="#1C2033"/><path d="M216.523 207.843c-1.672 3.249-4.81 4.935-7.009 3.769-2.199-1.166-2.635-4.751-.958-7.985 1.678-3.233 4.815-4.941 7.009-3.78 2.193 1.161 2.625 4.752.958 7.996z" fill="#17A5BA"/><path d="M210.219 210.411c1.761.884 4.24-.493 5.536-3.076 1.297-2.583.92-5.394-.841-6.278-1.761-.883-4.239.494-5.536 3.077-1.296 2.583-.92 5.393.841 6.277z" fill="#1C2033"/><path d="M213.399 206.188c-.348.69-1.018 1.075-1.517.816-.499-.259-.567-1.027-.209-1.727.359-.701 1.019-1.075 1.518-.816.499.259.567 1.027.208 1.727z" fill="#fff"/><path d="M208.144 200.599l11.146 5.596s3.523-4.696-2.999-7.94c.01-.021-5.557-2.82-8.147 2.344zm8.836 10.291l-11.145-5.597s-2.688 3.041 3.813 6.306c0 0 5.568 2.799 7.332-.709z" fill="#D0D3DD"/><path d="M205.612 208.005l1.436 6.684 3.754.418 3.667-2.654-4.274-2.042-4.583-2.406zm13.719-3.253l-1.845-6.887-4.089-.592-3.869 2.554 4.731 2.271 5.072 2.654z" fill="#D0D3DD"/><path d="M217.795 195.527c-2.241-1.186-5.018-.677-7.557 1.109a5.965 5.965 0 014.195.447c3.819 2.018 4.562 8.229 1.661 13.872a15.071 15.071 0 01-4.609 5.433c2.966-.687 6.04-3.23 7.97-6.989 2.896-5.638 2.153-11.849-1.66-13.872z" fill="#646989" opacity=".5"/><path d="M268.646 236.142c5.097-2.331 7.34-8.352 5.01-13.449-2.33-5.097-8.351-7.34-13.448-5.01-5.097 2.33-7.341 8.351-5.01 13.448 2.33 5.098 8.351 7.341 13.448 5.011z" fill="#252528"/><path d="M255.984 225.998a10.145 10.145 0 0018.545-.199 10.137 10.137 0 01-3.032 8.443 10.149 10.149 0 01-16.365-11.326c.12 1.066.408 2.106.852 3.082z" fill="#444344" opacity=".5"/><path d="M295.589 237.161a3.93 3.93 0 002.979-.532 3.925 3.925 0 001.714-2.495l.205-.958a3.933 3.933 0 00-3.031-4.657l-26.274-5.525a3.921 3.921 0 00-4.657 3.031l-.205.958a3.93 3.93 0 003.031 4.657l26.238 5.521z" fill="#252528"/><path d="M292.008 235.667a3.93 3.93 0 00-3.035-4.651l-22.526-4.757.051-.248a3.915 3.915 0 011.699-2.482 3.935 3.935 0 012.958-.548l26.274 5.525a3.93 3.93 0 013.031 4.657l-.178.973a3.922 3.922 0 01-4.657 3.031l-3.755-.805.138-.695z" fill="#444344" opacity=".5"/><path d="M301.662 242.887a8.512 8.512 0 10-.78-17.006 8.512 8.512 0 00.78 17.006z" fill="#252528"/><path d="M299.711 233.35a8.475 8.475 0 00-6.538 3.574 8.506 8.506 0 011.688-8.101 8.511 8.511 0 0113.382 10.492 8.526 8.526 0 00-8.532-5.965z" fill="#444344" opacity=".5"/><path d="M336.702 250.11a10.946 10.946 0 0012.412-9.244l.255-1.798a10.951 10.951 0 00-5.22-10.982 10.952 10.952 0 00-4.024-1.43l-28.868-4.22a10.94 10.94 0 00-12.406 9.239l-.256 1.798a10.948 10.948 0 009.245 12.412l28.862 4.225z" fill="#17A5BA"/><path d="M341.448 245.371l.261-1.792a10.936 10.936 0 00-9.245-12.412l-28.862-4.226a10.89 10.89 0 00-2.823-.044 10.915 10.915 0 014.611-3.697 10.924 10.924 0 015.861-.757l28.868 4.22a10.927 10.927 0 017.193 4.29 10.936 10.936 0 012.051 8.122l-.256 1.797a10.942 10.942 0 01-9.578 9.278 10.875 10.875 0 001.919-4.779z" fill="#444344" opacity=".5"/><path d="M342.059 248.164c2.649.815 5.917-2.168 7.298-6.661 1.382-4.493.354-8.796-2.295-9.611-2.649-.815-5.916 2.168-7.298 6.661-1.382 4.493-.354 8.796 2.295 9.611z" fill="#252528"/><path d="M342.133 237.568c-1.376 4.487-.375 8.822 2.295 9.609.388.115.794.154 1.197.114a4.003 4.003 0 01-3.542.865c-2.645-.814-3.677-5.116-2.295-9.609 1.18-3.838 3.74-6.572 6.117-6.777a11.45 11.45 0 00-3.772 5.798z" fill="#4D1518" opacity=".5"/><path d="M350.028 249.836a8.504 8.504 0 008.106-8.885 8.504 8.504 0 00-8.885-8.106 8.504 8.504 0 00-8.106 8.885 8.504 8.504 0 008.885 8.106z" fill="#252528"/><path d="M348.783 236.608a8.507 8.507 0 00-7.594 5.56l-.033-.449a8.506 8.506 0 0113.265-7.402 8.512 8.512 0 013.7 6.259 8.492 8.492 0 01-.478 3.695 8.502 8.502 0 00-8.86-7.663z" fill="#444344" opacity=".5"/><path d="M303.063 234.434l-1.646 1.08 5.205 7.934 1.646-1.08-5.205-7.934zm4.872.617l-1.64 1.075 5.204 7.935 1.64-1.076-5.204-7.934zm4.871.588l-1.64 1.076 5.205 7.934 1.64-1.076-5.205-7.934zm4.872.566l-1.64 1.076 5.207 7.933 1.639-1.076-5.206-7.933z" fill="#fff"/><path d="M432.236 272.635c.285-.257-.026-1.066-.694-1.807-.668-.74-1.442-1.131-1.727-.874-.285.258.026 1.067.694 1.807.669.74 1.442 1.132 1.727.874z" fill="#2999C5" opacity=".34"/><path d="M437.235 236.353l-8.493-2.725-1.52 4.736 8.493 2.725 1.52-4.736z" fill="#17A5BA"/><path d="M435.949 240.357l-8.493-2.725-.235.733 8.492 2.725.236-.733zm1.281-4.005l-8.493-2.725-.235.733 8.493 2.725.235-.733z" fill="#8A475A" opacity=".15"/><path d="M438.551 238.15l-11.424-3.667-.342 1.065 11.425 3.666.341-1.064z" fill="#2999C5" opacity=".19"/><path d="M426.253 224.86l4.229 1.357a2.422 2.422 0 011.565 3.044l-4.68 14.582a2.422 2.422 0 01-3.044 1.565l-4.229-1.357 6.159-19.191z" fill="#583880"/><path d="M431.023 226.398l-4.778-1.533-6.159 19.19 4.779 1.534 6.158-19.191z" fill="#8A475A" opacity=".21"/><path d="M327.482 190.833a4.765 4.765 0 00-1.985-.198l-4.29.482a6.18 6.18 0 00-5.195 4.255l-3.518 10.942a3.84 3.84 0 002.48 4.829l22.551 7.238 7.079-22.049-17.122-5.499zm7.516 23.511l-16.578-5.32a2.795 2.795 0 01-.963-.533 2.83 2.83 0 01-.865-3.014l2.585-8.044a4.542 4.542 0 013.817-3.123l3.153-.357a3.501 3.501 0 011.459.149l12.591 4.039-5.199 16.203z" fill="#F14654"/><path d="M322.994 194.31l3.153-.357a3.501 3.501 0 011.459.149l12.591 4.04.352-1.104-12.59-4.039a3.49 3.49 0 00-1.46-.15l-3.153.357a4.543 4.543 0 00-3.816 3.124l-.353 1.103a4.547 4.547 0 013.817-3.123zm-7.657 15.729a3.841 3.841 0 01-2.48-4.829l-.353 1.104a3.839 3.839 0 002.48 4.829l22.551 7.238.353-1.104-22.551-7.238z" fill="#8A475A" opacity=".35"/><path d="M351.481 223.078l14.413 4.625-4.153 12.94a5.32 5.32 0 01-6.693 3.441l-9.345-2.999 5.778-18.007z" fill="#F14654"/><path d="M353.237 231.294l1.726-2.769-27.758-8.91-31.001 49.723a3.55 3.55 0 00.554 4.434 3.53 3.53 0 001.373.818l20.792 6.673a3.546 3.546 0 004.096-1.503l17.536-28.188 42.335 13.607a3.81 3.81 0 002.361-.006l6.965-2.291a3.826 3.826 0 002.442-2.459l4.604-14.349-46.025-14.78zm32.917 20.907a2.73 2.73 0 01-1.748 1.759l-4.24 1.397a2.73 2.73 0 01-1.691.009l-27.901-8.953a2.847 2.847 0 01-1.755-1.603l-1.632-3.841 5.843-9.392 36.038 11.567-2.914 9.057z" fill="#17A5BA"/><path d="M318.299 278.224l-16.831-5.407a2.867 2.867 0 01-1.817-1.745 2.874 2.874 0 01.258-2.507l24.024-38.53a2.608 2.608 0 013.012-1.102l17.354 5.566a2.602 2.602 0 011.667 1.585 2.61 2.61 0 01-.238 2.288l-24.095 38.647a2.87 2.87 0 01-3.334 1.205z" fill="#444344" opacity=".21"/><path d="M361.936 238.774a9.92 9.92 0 001.201-2.482l.425-1.331-10.515-3.378-2.249 3.61 11.138 3.581z" fill="#8A475A" opacity=".21"/><path d="M347.411 241.488l-.218-.513.218.513zm.079.175l1.336 3.153-1.336-3.153zm-.079-.175l.078.177-.078-.177z" fill="#2CA3C9"/><path d="M391.195 244.648l-2.345-.753-.102.322-.918 2.862-.11.354-1.532 4.779a2.73 2.73 0 01-1.749 1.759l-4.24 1.397a2.737 2.737 0 01-1.691.008l-27.932-8.962a2.859 2.859 0 01-1.755-1.602l-1.33-3.148-.608-.198-1.541 2.465 1.218 2.868c.178.418.443.792.779 1.097.335.306.732.535 1.164.673l30.895 9.904a3.015 3.015 0 001.869-.003l4.686-1.545a3.027 3.027 0 001.933-1.942l2.184-6.802.11-.354 7.748 2.489 1.003-3.21-7.736-2.458z" fill="#444344" opacity=".21"/><path d="M347.193 240.975l-.316.496.612.193-.078-.176-.218-.513z" fill="#2CA3C9"/><path d="M350.207 227.036l-23.026-7.392-1.169 1.879a21.896 21.896 0 0012.095 9.608l6.375 2.043 2.033.653 1.373.444 2.91.933 2.249-3.61.165-.272 1.727-2.769-4.732-1.517z" fill="#2CA3C9" opacity=".39"/><path d="M370.724 215.01l-8.493-2.725-1.519 4.736 8.492 2.725 1.52-4.736z" fill="#17A5BA"/><path d="M369.438 219.014l-8.493-2.726-.235.733 8.493 2.725.235-.732zm1.28-4.004l-8.492-2.726-.236.733 8.493 2.726.235-.733z" fill="#8A475A" opacity=".15"/><path d="M372.048 216.794l-11.424-3.666-.342 1.064 11.425 3.666.341-1.064z" fill="#2999C5" opacity=".19"/><path d="M365.146 215.19a10.084 10.084 0 0112.648-6.513l50.354 16.11 3.609-11.254-79.746-25.609a21.902 21.902 0 00-27.547 14.163 21.906 21.906 0 001.355 16.704 21.908 21.908 0 0012.767 10.855l79.746 25.609 3.609-11.254-50.319-16.147a10.084 10.084 0 01-6.476-12.664z" fill="#583880"/><path d="M373.166 209.323l54.338 17.438-4.881 15.209-54.337-17.438a2.812 2.812 0 01-1.819-3.538l3.166-9.867a2.812 2.812 0 013.533-1.804z" fill="#F14654"/><path d="M374.382 222.476a7.986 7.986 0 01-5.538-8.145 7.96 7.96 0 001.249 9.974 7.96 7.96 0 003.094 1.831l49.442 15.857 1.179-3.676-49.426-15.841z" fill="#8A475A" opacity=".21"/><path d="M424.663 231.09l-49.711-15.928a1.225 1.225 0 01-.722-.611 1.232 1.232 0 01.532-1.666 1.238 1.238 0 01.944-.078l49.69 15.949-.733 2.334z" fill="#fff" opacity=".29"/><path opacity=".42" d="M317.659 275.464l-13.345-4.285a2.288 2.288 0 01-1.57-2.405c.036-.344.149-.677.333-.971l22.17-35.229a2.066 2.066 0 012.39-.876l13.762 4.417c.302.096.577.261.805.482.228.22.402.49.508.788.107.298.144.617.107.932a2.055 2.055 0 01-.316.883l-22.241 35.304a2.283 2.283 0 01-2.603.96z" fill="#2CA3C9"/><path d="M325.086 200.303c-.098.233-.192.46-.28.693-.137.36-.266.726-.389 1.099-.1.314-.191.629-.273.945a14.77 14.77 0 00-.227.917 21.902 21.902 0 0014.669 25.691l79.746 25.608 1.179-3.675-79.746-25.609a21.897 21.897 0 01-12.325-9.984 21.898 21.898 0 01-2.354-15.685z" fill="#583880" opacity=".33"/><path d="M325.922 198.536a21.9 21.9 0 0012.663 31.111l79.746 25.609 2.358-7.351-79.747-25.609a21.91 21.91 0 01-15.02-23.76z" fill="#8A475A" opacity=".16"/><path d="M326.813 196.993a21.94 21.94 0 00-2.403 5.106 21.889 21.889 0 001.381 16.71 21.893 21.893 0 0012.793 10.837l79.747 25.609 3.421-10.657-79.747-25.609a21.91 21.91 0 01-15.192-21.996z" fill="#8A475A" opacity=".21"/><path d="M431.019 215.832l-89.279-28.668a21.923 21.923 0 00-5.293 1.572l93.614 30.053.958-2.957z" fill="#fff" opacity=".16"/><path d="M429.482 220.605l-95.4-30.613c-.257.154-.52.313-.772.482l95.98 30.796.192-.665z" fill="#fff" opacity=".29"/><path d="M415.011 259.846a3.873 3.873 0 01-2.513-4.88l14.322-44.595a3.873 3.873 0 014.88-2.513 3.873 3.873 0 012.513 4.88l-14.296 44.579a3.865 3.865 0 01-1.923 2.292 3.862 3.862 0 01-2.983.237z" fill="#17A5BA"/><path d="M433.955 209.784l-14.341 44.647a2.73 2.73 0 11-5.202-1.666l14.331-44.637a3.861 3.861 0 00-1.918 2.261l-14.296 44.578a3.874 3.874 0 001.182 4.137 3.874 3.874 0 005.457-.449c.329-.387.578-.836.733-1.32l14.296-44.578a3.852 3.852 0 00-.242-2.973z" fill="#444344" opacity=".21"/><path d="M377.773 233.072a1.78 1.78 0 01-1.155-2.246l6.61-20.597a1.78 1.78 0 012.246-1.154 1.794 1.794 0 011.044.883 1.79 1.79 0 01.111 1.363l-6.61 20.597a1.776 1.776 0 01-.884 1.043 1.782 1.782 0 01-1.362.111z" fill="#17A5BA"/><path d="M386.503 209.937l-6.614 20.613a1.262 1.262 0 01-2.403-.768l6.62-20.608a1.78 1.78 0 00-.888 1.045l-6.61 20.597a1.786 1.786 0 103.401 1.092l6.61-20.597a1.78 1.78 0 00-.116-1.374z" fill="#8A475A" opacity=".15"/><path d="M385.29 210.125c.353.292.729.42.842.284.112-.135-.083-.482-.435-.774-.353-.292-.729-.419-.842-.284-.112.135.083.482.435.774z" fill="#2999C5" opacity=".34"/><path d="M390.637 237.166a1.8 1.8 0 01-1.044-.884 1.791 1.791 0 01-.111-1.363l6.61-20.596a1.771 1.771 0 011.554-1.235 1.782 1.782 0 011.302.418 1.783 1.783 0 01.545 1.909l-6.61 20.596a1.794 1.794 0 01-.883 1.044 1.79 1.79 0 01-1.363.111z" fill="#17A5BA"/><path d="M399.363 214.067l-6.614 20.612a1.277 1.277 0 01-.624.737 1.263 1.263 0 01-1.699-.543 1.266 1.266 0 01-.08-.962l6.614-20.612a1.788 1.788 0 00-.888 1.044l-6.609 20.597a1.784 1.784 0 001.847 2.326 1.791 1.791 0 001.215-.625 1.79 1.79 0 00.339-.609l6.609-20.597a1.78 1.78 0 00-.11-1.368z" fill="#8A475A" opacity=".15"/><path d="M398.151 214.259c.352.292.729.419.841.284.112-.135-.083-.482-.435-.774-.352-.292-.729-.42-.841-.284-.112.135.082.482.435.774z" fill="#2999C5" opacity=".34"/><path d="M403.478 241.308a1.8 1.8 0 01-1.044-.884 1.791 1.791 0 01-.111-1.363l6.62-20.586a1.8 1.8 0 01.884-1.044 1.791 1.791 0 012.406.773 1.79 1.79 0 01.112 1.363l-6.616 20.591a1.77 1.77 0 01-.887 1.043 1.77 1.77 0 01-.671.189 1.767 1.767 0 01-.693-.082z" fill="#2999C5"/><path d="M412.25 218.214l-6.614 20.612a1.262 1.262 0 01-2.403-.768l6.614-20.612a1.776 1.776 0 00-.888 1.045l-6.637 20.571a1.8 1.8 0 00.112 1.362 1.798 1.798 0 001.043.884 1.784 1.784 0 002.247-1.154l6.609-20.597a1.782 1.782 0 00-.083-1.343z" fill="#17A5BA"/><path d="M411.017 218.386c.352.292.729.419.841.284.112-.135-.082-.482-.435-.774-.352-.292-.729-.42-.841-.284-.112.135.082.482.435.774z" fill="#2999C5" opacity=".34"/><path d="M441.709 240.425a4.729 4.729 0 01-5.95 3.049c-2.487-.797.412-9.807 2.89-8.999a4.737 4.737 0 013.27 4.116 4.73 4.73 0 01-.21 1.834z" fill="#F14654"/><path d="M438.223 239.003a4.371 4.371 0 01-.397-4.455c-2.229 1.018-4.262 8.198-2.064 8.925a4.72 4.72 0 005.693-2.446 5.056 5.056 0 01-3.232-2.024z" fill="#8A475A" opacity=".21"/><path d="M441.177 236.807c.557.458 1.152.656 1.329.44.177-.215-.13-.761-.687-1.219-.557-.458-1.152-.656-1.329-.44-.177.215.131.761.687 1.219z" fill="#fff" opacity=".34"/><path d="M147.673 277.672c-34.315-13.828-48.594-58.77-31.933-100.474C132.401 135.493 173.664 114.151 208 128l.222.088c-28.661.167-57.599 19.942-70.905 53.243-16.627 41.614-2.444 86.454 31.695 100.402a55.969 55.969 0 01-21.339-4.061z" fill="#BDBDBD"/><path d="M197.285 235.223l10.319-.474.042-3.229-10.081.002-.28 3.701z" fill="#986BD1"/><path d="M197.913 235.412l-6.639-7.913 2.348-2.217 6.826 7.418-2.535 2.712z" fill="#986BD1"/><path d="M183.85 152.395l3.598.605 15.948-31.774-3.115-1.555-16.431 32.724z" fill="url(#paint15_linear)"/><path d="M184.493 151.554l2.765 1.387a1.192 1.192 0 001.593-.53 1.188 1.188 0 00-.53-1.593l-2.765-1.387a1.194 1.194 0 00-1.593.53 1.192 1.192 0 00.53 1.593z" fill="url(#paint16_linear)"/><path d="M186.163 148.222l2.765 1.386a1.193 1.193 0 001.593-.529 1.188 1.188 0 00-.53-1.593l-2.765-1.387a1.19 1.19 0 00-1.593.53 1.19 1.19 0 00.53 1.593z" fill="url(#paint17_linear)"/><path d="M187.833 144.901l2.765 1.386a1.19 1.19 0 001.593-.529 1.192 1.192 0 00-.53-1.593l-2.765-1.387a1.19 1.19 0 00-1.593.53 1.19 1.19 0 00.53 1.593z" fill="url(#paint18_linear)"/><path d="M189.512 141.557l2.765 1.386a1.193 1.193 0 001.594-.529 1.19 1.19 0 00-.53-1.593l-2.765-1.387a1.188 1.188 0 00-1.064 2.123z" fill="url(#paint19_linear)"/><path d="M191.188 138.217l2.765 1.387a1.19 1.19 0 001.593-.53 1.193 1.193 0 00-.529-1.593l-2.765-1.387a1.193 1.193 0 00-1.593.53 1.193 1.193 0 00.529 1.593z" fill="url(#paint20_linear)"/><path d="M192.856 134.887l2.765 1.386a1.193 1.193 0 001.593-.529 1.193 1.193 0 00-.529-1.594l-2.765-1.386a1.188 1.188 0 00-1.064 2.123z" fill="url(#paint21_linear)"/><path d="M194.553 131.568l2.765 1.386a1.193 1.193 0 001.594-.529 1.19 1.19 0 00-.53-1.593l-2.765-1.387a1.188 1.188 0 00-1.064 2.123z" fill="url(#paint22_linear)"/><path d="M196.207 128.219l2.765 1.387a1.19 1.19 0 001.593-.53 1.192 1.192 0 00-.53-1.593l-2.765-1.387a1.194 1.194 0 00-1.593.53 1.192 1.192 0 00.53 1.593z" fill="url(#paint23_linear)"/><path d="M197.897 124.866l2.765 1.386a1.193 1.193 0 001.593-.529 1.193 1.193 0 00-.529-1.594l-2.765-1.386a1.188 1.188 0 00-1.064 2.123z" fill="url(#paint24_linear)"/><path d="M200.862 122.437a3.212 3.212 0 102.882-5.74 3.212 3.212 0 00-2.882 5.74z" fill="url(#paint25_linear)"/><path d="M640.028 361.39l-6.982-3.117-3.186 7.138 6.982 3.116 3.186-7.137z" fill="url(#paint26_linear)"/><path opacity=".34" d="M450.417 267.542c.259-.274-.144-1.074-.907-1.787-.763-.713-1.584-1.062-1.843-.788-.26.274.149 1.08.906 1.787.758.707 1.589 1.067 1.844.788z" fill="#2999C5"/><path d="M863.195 392.652L451.338 236.158s-4.807-2.951-8.337 3.929c-3.53 6.879 1.844 8.649 1.844 8.649L860.65 404.223l2.545-11.571z" fill="url(#paint27_linear)"/><path d="M348.33 235.986a3.565 3.565 0 00-3.934 3.062 3.569 3.569 0 003.064 3.935l6.688.837a3.566 3.566 0 003.934-3.062 3.569 3.569 0 00-3.064-3.935l-6.688-.837z" fill="#1C1C1D"/><path d="M356.302 236.92c-1.946-.125-3.627 1.377-3.751 3.322-.124 1.946 1.379 3.627 3.279 3.709l6.721.439c1.946.125 3.627-1.377 3.751-3.322.124-1.946-1.379-3.627-3.279-3.709l-6.721-.439z" fill="#252528"/><path d="M355.193 235.096c-1.946-.125-3.627 1.377-3.708 3.277-.124 1.945 1.378 3.627 3.324 3.751l6.721.439c1.857.127 3.538-1.374 3.662-3.32.124-1.945-1.378-3.627-3.324-3.751l-6.675-.396z" fill="#17A5BA"/><path d="M356.365 236.036c-.973-.062-1.748.665-1.767 1.592-.062.973.665 1.748 1.593 1.768l3.228.223c.973.062 1.748-.665 1.767-1.592.062-.973-.665-1.748-1.593-1.768l-3.228-.223z" fill="#252528"/><path opacity=".5" d="M359.377 239.662l-3.228-.223c-.973-.063-1.657-.883-1.593-1.768.031-.486.327-.979.673-1.253.002.088-.038.221-.036.309-.062.973.665 1.748 1.593 1.768l3.228.223c.398.033.792-.11 1.094-.338-.155.798-.891 1.303-1.731 1.282z" fill="#4D1518"/><path opacity=".5" d="M363.508 240.658c.124-1.945-1.378-3.627-3.278-3.709l-6.721-.438a2.654 2.654 0 00-1.538.261c.677-1.077 1.852-1.682 3.178-1.629l6.721.439c1.946.124 3.448 1.806 3.324 3.751-.095 1.371-.99 2.587-2.213 3.061.294-.582.499-1.161.527-1.736z" fill="#4D1518"/><path d="M345.033 244.636a3.566 3.566 0 00-3.935 3.062 3.569 3.569 0 003.064 3.935l6.688.837a3.565 3.565 0 003.934-3.062 3.569 3.569 0 00-3.064-3.935l-6.687-.837z" fill="#1C1C1D"/><path d="M352.96 245.527c-1.946-.124-3.627 1.377-3.751 3.323-.124 1.945 1.378 3.627 3.279 3.708l6.721.439c1.945.125 3.626-1.376 3.75-3.322.124-1.945-1.378-3.627-3.278-3.709l-6.721-.439z" fill="#252528"/><path d="M351.85 243.703c-1.946-.124-3.627 1.377-3.708 3.277-.124 1.946 1.378 3.627 3.324 3.752l6.721.439c1.946.124 3.627-1.377 3.708-3.277.124-1.946-1.378-3.627-3.324-3.752l-6.721-.439z" fill="#17A5BA"/><path d="M353.067 244.687c-.972-.063-1.747.664-1.766 1.592-.062.972.665 1.747 1.592 1.767l3.229.223c.972.062 1.747-.665 1.766-1.592.062-.973-.665-1.748-1.592-1.767l-3.229-.223z" fill="#252528"/><path opacity=".5" d="M356.123 248.268l-3.228-.223c-.973-.062-1.657-.882-1.593-1.767.031-.486.327-.98.672-1.254.003.088-.038.222-.035.31-.062.973.665 1.748 1.592 1.767l3.229.223c.398.034.791-.109 1.094-.338-.243.801-.935 1.349-1.731 1.282z" fill="#4D1518"/><path opacity=".5" d="M360.209 249.22c.124-1.946-1.378-3.627-3.278-3.709l-6.721-.439a2.655 2.655 0 00-1.538.262c.677-1.078 1.853-1.683 3.178-1.63l6.721.439c1.946.125 3.448 1.806 3.324 3.752-.095 1.371-.989 2.586-2.212 3.06.25-.536.455-1.115.526-1.735z" fill="#4D1518"/><path d="M316.856 224.464a3.598 3.598 0 013.524-3.537 3.603 3.603 0 013.538 3.526l-.038 6.754c-.036 1.943-1.538 3.528-3.524 3.537a3.6 3.6 0 01-3.538-3.525l.038-6.755z" fill="#1C1C1D"/><path d="M318.392 235.547c-1.491-1.241-1.684-3.487-.399-4.933 1.24-1.49 3.486-1.682 4.933-.397l5.15 4.365c1.491 1.241 1.684 3.487.399 4.934-1.24 1.489-3.486 1.681-4.976.441l-5.107-4.41z" fill="#252528"/><path d="M316.332 236.087c-1.491-1.24-1.684-3.486-.399-4.933 1.24-1.49 3.486-1.682 4.933-.396l5.15 4.365c1.491 1.24 1.684 3.486.399 4.933-1.24 1.489-3.486 1.682-4.933.396l-5.15-4.365z" fill="#17A5BA"/><path d="M317.923 236.222c-.722-.599-.796-1.7-.198-2.422.599-.723 1.7-.796 2.423-.197l2.484 2.096c.723.599.797 1.701.198 2.423-.598.722-1.7.796-2.422.197l-2.485-2.097z" fill="#252528"/><path opacity=".5" d="M322.59 235.745l-2.484-2.097c-.723-.599-1.779-.482-2.423.197-.343.362-.46.939-.36 1.378.086-.091.084-.179.17-.269.598-.722 1.7-.796 2.422-.197l2.485 2.096c.317.301.503.649.6 1a1.694 1.694 0 00-.41-2.108z" fill="#4D1518"/><path opacity=".5" d="M326.223 237.899c-1.24 1.489-3.486 1.681-4.976.441l-5.195-4.408c-.408-.386-.727-.775-.916-1.211-.231 1.242.158 2.556 1.195 3.367l5.15 4.365c1.49 1.24 3.693 1.093 4.933-.397.942-1.084 1.035-2.543.517-3.721-.074.531-.324 1.068-.708 1.564z" fill="#4D1518"/><path opacity=".3" d="M752.162 338.725L682 314m36.151 63.466l31.686 11.167" stroke="#06EDE1"/><path transform="scale(-1 1) rotate(70.587 -614.598 -293.805)" fill="url(#paint28_linear)" d="M0 0h15.95v15.598H0z"/><path transform="scale(-1 1) rotate(70.587 -635.036 -379.863)" fill="url(#paint29_linear)" d="M0 0h15.95v15.598H0z"/><path transform="scale(-1 1) rotate(70.587 -586.48 -306.472)" fill="url(#paint30_linear)" d="M0 0h7.362v7.199H0z"/><path opacity=".3" d="M634.242 286.581l-70.162-24.725m18.924 56.769l31.686 11.167" stroke="#06EDE1"/><path transform="scale(-1 1) rotate(70.587 -570.705 -356.88)" fill="url(#paint31_linear)" d="M0 0h11.042v10.799H0z"/><path transform="scale(-1 1) rotate(70.587 -559.69 -349.082)" fill="url(#paint32_linear)" d="M0 0h7.362v7.199H0z"/><path d="M128 364l36.998-82.5-34.998-14L93.5 349l34.5 15z" fill="url(#paint33_linear)"/><path d="M173.121 281.527c-8.663 1.046-17.47-.024-25.766-3.315-8.295-3.292-15.45-8.59-21.037-15.212l46.803 18.527z" fill="url(#paint34_linear)"/><path d="M166.616 281.947c-6.466-.062-12.997-1.263-19.259-3.735-6.262-2.472-11.786-6.014-16.572-10.626l35.831 14.361z" fill="#17A5BA"/><path d="M137.118 173.889c8.441-8.709 10.491-20.415 4.579-26.144-5.912-5.73-17.548-3.314-25.989 5.395-8.44 8.71-10.491 20.415-4.579 26.145 5.913 5.729 17.548 3.314 25.989-5.396z" fill="#191818"/><path opacity=".5" d="M107.816 172.103c2.303 1.787 9.085-3.102 15.149-10.918 6.064-7.817 9.112-15.601 6.809-17.388-2.303-1.786-9.085 3.102-15.149 10.918-6.063 7.817-9.112 15.602-6.809 17.388z" fill="#19A1A2"/><path d="M106.957 171.504c2.303 1.786 9.085-3.102 15.149-10.918 6.063-7.817 9.112-15.601 6.809-17.388-2.303-1.786-9.085 3.102-15.149 10.918-6.064 7.817-9.112 15.601-6.809 17.388z" fill="#17A5BA"/><path d="M107.853 165.724c1.789 1.388 7.061-2.412 11.774-8.487 4.713-6.076 7.083-12.126 5.294-13.514-1.79-1.388-7.061 2.411-11.774 8.487-4.713 6.075-7.083 12.126-5.294 13.514z" fill="#191818"/><path d="M116.572 157.432c5.387-1.546 8.501-7.166 6.956-12.553-1.546-5.387-7.166-8.501-12.553-6.956-5.387 1.546-8.501 7.166-6.956 12.553 1.546 5.387 7.166 8.501 12.553 6.956z" fill="#252528"/><path d="M107.975 153.883a10.143 10.143 0 013.238-10.574 10.153 10.153 0 0110.976-1.337 10.143 10.143 0 00-7.794-4.44 10.156 10.156 0 00-10.422 7.547 10.14 10.14 0 001.786 8.791 10.158 10.158 0 003.571 2.908 10.146 10.146 0 01-1.355-2.895z" fill="#444344" opacity=".5"/><path d="M83.373 152.133a3.92 3.92 0 01-3.953-3.899l.015-1.005a3.93 3.93 0 013.899-3.953l26.833-.186a3.919 3.919 0 013.953 3.899l-.015 1.005a3.93 3.93 0 01-3.899 3.953l-26.833.186z" fill="#252528"/><path d="M87.18 151.378a3.93 3.93 0 013.9-3.953l23.027-.162-.002-.257a3.927 3.927 0 00-1.168-2.769 3.92 3.92 0 00-2.785-1.13l-26.844.186a3.934 3.934 0 00-3.899 3.953l-.015 1.006a3.922 3.922 0 003.953 3.899l3.811-.029.022-.744z" fill="#444344" opacity=".5"/><path d="M83.615 155.314a8.511 8.511 0 005.834-10.529 8.51 8.51 0 00-10.529-5.834 8.511 8.511 0 00-5.834 10.529 8.51 8.51 0 0010.529 5.834z" fill="#252528"/><path d="M82.461 145.649a8.48 8.48 0 017.339 1.295 8.508 8.508 0 00-4.178-7.152 8.505 8.505 0 00-8.28-.214 8.511 8.511 0 00-1.044 14.436 8.52 8.52 0 016.163-8.365z" fill="#444344" opacity=".5"/><path d="M94.126 202.211a2.718 2.718 0 013.431-1.721 2.72 2.72 0 011.722 3.431l-1.642 4.943a2.707 2.707 0 01-1.359 1.588 2.727 2.727 0 01-2.084.155 2.72 2.72 0 01-1.722-3.431l1.654-4.965z" fill="#1C1C1D"/><path d="M92.578 210.681a2.707 2.707 0 01.122-3.02c.211-.288.477-.532.783-.717a2.713 2.713 0 013.732.91l2.721 4.432a2.721 2.721 0 01-.91 3.732 2.714 2.714 0 01-2.064.352 2.73 2.73 0 01-1.703-1.22l-2.681-4.469z" fill="#252528"/><path d="M90.953 210.591a2.718 2.718 0 01.91-3.732 2.721 2.721 0 013.738.905l2.678 4.419a2.72 2.72 0 01-.91 3.733 2.72 2.72 0 01-3.732-.911l-2.684-4.414z" fill="#17A5BA"/><path d="M92.035 211.047a1.305 1.305 0 012.227-1.36l1.303 2.143a1.305 1.305 0 01-2.226 1.36l-1.304-2.143z" fill="#252528"/><path d="M95.582 211.825l-1.304-2.143a1.302 1.302 0 00-1.379-.595 1.307 1.307 0 00-1.027 1.095c.056-.064.118-.121.186-.172a1.308 1.308 0 011.794.433l1.303 2.143c.164.261.229.572.184.877a1.306 1.306 0 00.243-1.638z" fill="#4D1518" opacity=".5"/><path d="M97.715 214.287a2.717 2.717 0 01-3.738-.905l-2.71-4.442a2.734 2.734 0 01-.38-1.124 2.722 2.722 0 00.04 2.758l2.71 4.453a2.71 2.71 0 003.195 1.169 2.71 2.71 0 001.823-2.873 2.7 2.7 0 01-.94.964z" fill="#4D1518" opacity=".5"/><path d="M106.092 181.032a11.362 11.362 0 01-5.946 14.927l-1.74.743a11.37 11.37 0 01-8.697.121 11.351 11.351 0 01-6.23-6.067l-11.942-27.825a11.353 11.353 0 015.945-14.927l1.736-.748a11.361 11.361 0 0114.927 5.945l11.947 27.831z" fill="#17A5BA"/><path d="M102.609 187.063l-1.747.748a11.353 11.353 0 01-14.927-5.945l-11.915-27.83a11.334 11.334 0 01-.799-2.819 11.344 11.344 0 00-1.673 11.693l11.942 27.825a11.346 11.346 0 006.23 6.068 11.354 11.354 0 008.697-.122l1.741-.743a11.36 11.36 0 006.755-12.096 11.296 11.296 0 01-4.304 3.221z" fill="#444344" opacity=".5"/><path d="M105.547 186.917c-1.524-2.44-6.114-2.322-10.252.264-4.138 2.585-6.257 6.658-4.733 9.098 1.524 2.439 6.114 2.321 10.252-.264 4.138-2.585 6.257-6.658 4.733-9.098z" fill="#252528"/><path d="M94.962 189.828c4.133-2.581 8.725-2.697 10.235-.253.218.355.365.748.434 1.159a4.166 4.166 0 00-.083-3.787c-1.526-2.44-6.108-2.323-10.235.253-3.526 2.218-5.593 5.503-5.199 7.954a11.875 11.875 0 014.848-5.326z" fill="#4D1518" opacity=".5"/><path d="M109.356 194.523a8.825 8.825 0 00-10.5-6.75 8.826 8.826 0 00-6.75 10.5 8.826 8.826 0 0010.5 6.75 8.825 8.825 0 006.75-10.5z" fill="#252528"/><path d="M95.745 196.734a8.833 8.833 0 013.546-9.094l-.465.086a8.818 8.818 0 00-6.918 8.371 8.827 8.827 0 0013.88 7.482 8.825 8.825 0 01-10.043-6.845z" fill="#444344" opacity=".5"/><path d="M100.415 201.96a2.72 2.72 0 014.681-1.818 2.723 2.723 0 01.751 1.94l-.12 5.208a2.719 2.719 0 01-2.776 2.655 2.72 2.72 0 01-2.655-2.777l.119-5.208z" fill="#1C1C1D"/><path d="M101.417 210.494a2.724 2.724 0 01-.764-2.925c.117-.338.3-.649.537-.916a2.716 2.716 0 013.813-.201l3.895 3.461a2.712 2.712 0 01.91 1.873 2.725 2.725 0 01-.683 1.968 2.724 2.724 0 01-3.836.222l-3.872-3.482z" fill="#252528"/><path d="M99.81 210.885a2.713 2.713 0 01.624-4.477 2.724 2.724 0 012.995.414l3.89 3.455a2.721 2.721 0 01-.646 4.465 2.715 2.715 0 01-2.995-.414l-3.868-3.443z" fill="#17A5BA"/><path d="M101 211.017a1.31 1.31 0 01.808-2.284 1.305 1.305 0 01.952.351l1.876 1.665a1.313 1.313 0 01.108 1.847 1.316 1.316 0 01-1.847.108L101 211.017z" fill="#252528"/><path d="M104.614 210.726l-1.855-1.643a1.312 1.312 0 00-1.499-.172 1.3 1.3 0 00-.661 1.356c.042-.072.092-.139.149-.201a1.297 1.297 0 01.901-.438c.171-.01.343.014.505.071.163.056.312.144.441.259l1.876 1.665c.226.202.373.477.416.777a1.313 1.313 0 00-.273-1.674z" fill="#4D1518" opacity=".5"/><path d="M107.398 212.433a2.709 2.709 0 01-3.83.228l-3.895-3.461a2.645 2.645 0 01-.691-.961 2.712 2.712 0 00.85 2.625l3.895 3.461a2.715 2.715 0 004.431-1.3 2.718 2.718 0 00-.131-1.802 2.699 2.699 0 01-.629 1.21z" fill="#4D1518" opacity=".5"/><path d="M108.334 193.089a2.718 2.718 0 00-3.533 1.544 2.715 2.715 0 00.632 2.955c.256.249.558.445.89.577l4.84 1.926a2.723 2.723 0 003.533-1.522 2.723 2.723 0 00-1.522-3.532l-4.84-1.948z" fill="#1C1C1D"/><path d="M115.802 197.355a2.719 2.719 0 10-5.155 1.737l1.664 4.929a2.71 2.71 0 001.369 1.568 2.71 2.71 0 002.077.141 2.719 2.719 0 001.709-3.446l-1.664-4.929z" fill="#252528"/><path d="M116.776 196.033a2.719 2.719 0 00-3.446-1.709 2.72 2.72 0 00-1.725 3.429l1.67 4.935a2.713 2.713 0 002.393 1.864 2.729 2.729 0 002.623-1.505 2.703 2.703 0 00.138-2.074l-1.653-4.94z" fill="#17A5BA"/><path d="M115.031 197.722a1.31 1.31 0 00-1.659-.819 1.31 1.31 0 00-.825 1.653l.811 2.391a1.299 1.299 0 001.152.886c.172.011.344-.011.507-.067a1.313 1.313 0 00.778-.657 1.315 1.315 0 00.069-1.017l-.833-2.37z" fill="#252528"/><path d="M113.368 200.957l-.81-2.39a1.313 1.313 0 011.395-1.712c.191.024.376.09.539.193a1.319 1.319 0 00-.942.604 1.297 1.297 0 00-.13 1.111l.81 2.39c.101.287.297.531.556.69a1.315 1.315 0 01-1.418-.886z" fill="#4D1518" opacity=".5"/><path d="M115.261 203.613a2.727 2.727 0 001.574-1.37 2.713 2.713 0 00.141-2.081l-1.658-4.935a2.71 2.71 0 00-.613-1.013 2.715 2.715 0 012.088 1.804l1.664 4.94a2.717 2.717 0 01-4.537 2.744 2.7 2.7 0 001.341-.089z" fill="#444344" opacity=".5"/><path d="M91.806 155.859l-1.712-.972-4.684 8.253 1.713.971 4.683-8.252zm1.675 4.616l-1.706-.968-4.684 8.251 1.705.969 4.685-8.252zm1.699 4.602l-1.705-.968-4.684 8.253 1.706.968 4.683-8.253z" fill="#fff"/></g><defs><linearGradient id="paint1_linear" x1="248.234" y1="163.372" x2="251.359" y2="164.94" gradientUnits="userSpaceOnUse"><stop stop-color="#fff"/><stop offset="1" stop-color="#B7B6B6"/></linearGradient><linearGradient id="paint2_linear" x1="240.109" y1="177.343" x2="245.012" y2="179.803" gradientUnits="userSpaceOnUse"><stop stop-color="#242424"/><stop offset="1" stop-color="#555"/></linearGradient><linearGradient id="paint3_linear" x1="-917.536" y1="3972.6" x2="-888.932" y2="3999.71" gradientUnits="userSpaceOnUse"><stop stop-color="#242424"/><stop offset="1" stop-color="#555"/></linearGradient><linearGradient id="paint4_linear" x1="-904.529" y1="3957.3" x2="-875.925" y2="3984.41" gradientUnits="userSpaceOnUse"><stop stop-color="#242424"/><stop offset="1" stop-color="#555"/></linearGradient><linearGradient id="paint5_linear" x1="-891.527" y1="3942.03" x2="-862.923" y2="3969.14" gradientUnits="userSpaceOnUse"><stop stop-color="#242424"/><stop offset="1" stop-color="#555"/></linearGradient><linearGradient id="paint6_linear" x1="-878.527" y1="3926.74" x2="-849.922" y2="3953.84" gradientUnits="userSpaceOnUse"><stop stop-color="#242424"/><stop offset="1" stop-color="#555"/></linearGradient><linearGradient id="paint7_linear" x1="-865.518" y1="3911.45" x2="-836.914" y2="3938.56" gradientUnits="userSpaceOnUse"><stop stop-color="#242424"/><stop offset="1" stop-color="#555"/></linearGradient><linearGradient id="paint8_linear" x1="-852.521" y1="3896.17" x2="-823.917" y2="3923.28" gradientUnits="userSpaceOnUse"><stop stop-color="#242424"/><stop offset="1" stop-color="#555"/></linearGradient><linearGradient id="paint9_linear" x1="-839.52" y1="3880.88" x2="-810.915" y2="3907.99" gradientUnits="userSpaceOnUse"><stop stop-color="#242424"/><stop offset="1" stop-color="#555"/></linearGradient><linearGradient id="paint10_linear" x1="-826.517" y1="3865.58" x2="-797.913" y2="3892.69" gradientUnits="userSpaceOnUse"><stop stop-color="#242424"/><stop offset="1" stop-color="#555"/></linearGradient><linearGradient id="paint11_linear" x1="-652.548" y1="6584.19" x2="-602.624" y2="6609.25" gradientUnits="userSpaceOnUse"><stop stop-color="#242424"/><stop offset="1" stop-color="#555"/></linearGradient><linearGradient id="paint13_linear" x1="182.184" y1="197.32" x2="236.695" y2="224.681" gradientUnits="userSpaceOnUse"><stop stop-color="#B7B6B6"/><stop offset="1" stop-color="#fff"/></linearGradient><linearGradient id="paint14_linear" x1="183.842" y1="198.153" x2="235.03" y2="223.846" gradientUnits="userSpaceOnUse"><stop stop-color="#575757"/><stop offset="1" stop-color="#BBB"/></linearGradient><linearGradient id="paint15_linear" x1="-24034.6" y1="30646.2" x2="-23988" y2="30690.3" gradientUnits="userSpaceOnUse"><stop stop-color="#fff"/><stop offset="1" stop-color="#B7B6B6"/></linearGradient><linearGradient id="paint16_linear" x1="183.427" y1="152.27" x2="188.33" y2="154.731" gradientUnits="userSpaceOnUse"><stop stop-color="#555"/><stop offset="1" stop-color="#242424"/></linearGradient><linearGradient id="paint17_linear" x1="-1306.01" y1="3651.31" x2="-1277.41" y2="3678.42" gradientUnits="userSpaceOnUse"><stop stop-color="#555"/><stop offset="1" stop-color="#242424"/></linearGradient><linearGradient id="paint18_linear" x1="-1293.01" y1="3636.03" x2="-1264.41" y2="3663.14" gradientUnits="userSpaceOnUse"><stop stop-color="#555"/><stop offset="1" stop-color="#242424"/></linearGradient><linearGradient id="paint19_linear" x1="-1280.01" y1="3620.74" x2="-1251.4" y2="3647.85" gradientUnits="userSpaceOnUse"><stop stop-color="#555"/><stop offset="1" stop-color="#242424"/></linearGradient><linearGradient id="paint20_linear" x1="-1267.01" y1="3605.45" x2="-1238.4" y2="3632.56" gradientUnits="userSpaceOnUse"><stop stop-color="#555"/><stop offset="1" stop-color="#242424"/></linearGradient><linearGradient id="paint21_linear" x1="-1254.01" y1="3590.17" x2="-1225.4" y2="3617.27" gradientUnits="userSpaceOnUse"><stop stop-color="#555"/><stop offset="1" stop-color="#242424"/></linearGradient><linearGradient id="paint22_linear" x1="-1240.98" y1="3574.89" x2="-1212.38" y2="3602" gradientUnits="userSpaceOnUse"><stop stop-color="#555"/><stop offset="1" stop-color="#242424"/></linearGradient><linearGradient id="paint23_linear" x1="-1228" y1="3559.59" x2="-1199.39" y2="3586.7" gradientUnits="userSpaceOnUse"><stop stop-color="#555"/><stop offset="1" stop-color="#242424"/></linearGradient><linearGradient id="paint24_linear" x1="-1214.98" y1="3544.28" x2="-1186.37" y2="3571.39" gradientUnits="userSpaceOnUse"><stop stop-color="#555"/><stop offset="1" stop-color="#242424"/></linearGradient><linearGradient id="paint25_linear" x1="-1201.97" y1="6340.61" x2="-1152.13" y2="6365.63" gradientUnits="userSpaceOnUse"><stop stop-color="#555"/><stop offset="1" stop-color="#242424"/></linearGradient><linearGradient id="paint26_linear" x1="-12480.6" y1="-13754.7" x2="-12630.9" y2="-13821.8" gradientUnits="userSpaceOnUse"><stop stop-color="#06EDE1"/><stop offset="1" stop-color="#06EDE1" stop-opacity="0"/></linearGradient><linearGradient id="paint27_linear" x1="980.044" y1="430.349" x2="463.796" y2="251.717" gradientUnits="userSpaceOnUse"><stop stop-color="#fff" stop-opacity="0"/><stop offset="1" stop-color="#fff"/></linearGradient><linearGradient id="paint28_linear" x1="8.588" y1="-8.399" x2="8.588" y2="23.397" gradientUnits="userSpaceOnUse"><stop stop-color="#06EDE1"/><stop offset="1" stop-color="#06EDE1" stop-opacity="0"/></linearGradient><linearGradient id="paint29_linear" x1="8.588" y1="-8.399" x2="8.588" y2="23.397" gradientUnits="userSpaceOnUse"><stop stop-color="#06EDE1"/><stop offset="1" stop-color="#06EDE1" stop-opacity="0"/></linearGradient><linearGradient id="paint30_linear" x1="3.964" y1="-3.876" x2="3.964" y2="10.799" gradientUnits="userSpaceOnUse"><stop stop-color="#06EDE1"/><stop offset="1" stop-color="#06EDE1" stop-opacity="0"/></linearGradient><linearGradient id="paint31_linear" x1="5.946" y1="-5.815" x2="5.946" y2="16.198" gradientUnits="userSpaceOnUse"><stop stop-color="#06EDE1"/><stop offset="1" stop-color="#06EDE1" stop-opacity="0"/></linearGradient><linearGradient id="paint32_linear" x1="3.964" y1="-3.876" x2="3.964" y2="10.799" gradientUnits="userSpaceOnUse"><stop stop-color="#06EDE1"/><stop offset="1" stop-color="#06EDE1" stop-opacity="0"/></linearGradient><linearGradient id="paint33_linear" x1="165" y1="232" x2="128.239" y2="342.894" gradientUnits="userSpaceOnUse"><stop stop-color="#00D0CD"/><stop offset="1" stop-color="#00D0CD" stop-opacity="0"/></linearGradient><linearGradient id="paint34_linear" x1="172.036" y1="284.522" x2="125.142" y2="265.916" gradientUnits="userSpaceOnUse"><stop stop-color="#B7B6B6"/><stop offset="1" stop-color="#fff"/></linearGradient><radialGradient id="paint0_radial" cx="0" cy="0" r="1" gradientUnits="userSpaceOnUse" gradientTransform="rotate(-178.112 118.552 98.218) scale(214.391 162.923)"><stop stop-color="#CEACF9"/><stop offset="1" stop-color="#986BD1" stop-opacity="0"/></radialGradient><radialGradient id="paint12_radial" cx="0" cy="0" r="1" gradientUnits="userSpaceOnUse" gradientTransform="matrix(-28.05565 -13.98558 20.58691 -41.29818 213.687 211.325)"><stop stop-color="#333"/><stop offset="1" stop-color="#333"/></radialGradient><clipPath id="clip0"><path fill="#fff" d="M0 23h894v405H0z"/></clipPath></defs></svg>