<svg width="309" height="306" fill="none" xmlns="http://www.w3.org/2000/svg"><path opacity=".52" d="M164.028 305.296c52.64 0 95.313-6.916 95.313-15.447 0-8.531-42.673-15.447-95.313-15.447-52.639 0-95.312 6.916-95.312 15.447 0 8.531 42.673 15.447 95.312 15.447z" fill="url(#paint0_radial)"/><path d="M286.49 210.617c-25.045 57.878-90.388 85.308-145.947 61.267-55.559-24.042-80.296-90.451-55.25-148.329 25.044-57.878 90.387-85.308 145.946-61.266 55.559 24.041 80.296 90.45 55.251 148.328z" fill="url(#paint1_radial)"/><path opacity=".4" d="M240.008 60.577c59.532 28.221 84.914 99.36 56.692 158.892-28.221 59.532-99.36 84.914-158.892 56.692s-84.914-99.36-56.692-158.892c28.221-59.532 99.36-84.914 158.892-56.692z" fill="url(#paint2_linear)"/><g clip-path="url(#clip0)"><path d="M36.285 93.1l-4.59-2.048-2.094 4.691 4.59 2.049 2.094-4.692z" fill="url(#paint3_linear)"/><path d="M68.736 109.62l-9.943-4.438-4.54 10.17 9.944 4.438 4.54-10.17z" fill="url(#paint4_linear)"/><path d="M174.874 283.646l24.32-54.229-23.005-9.203-23.993 53.573 22.678 9.859z" fill="url(#paint5_linear)"/><path d="M180.291 159.576c4.101-6.685 3.731-14.372-.828-17.171-4.559-2.798-11.58.352-15.682 7.037-4.101 6.684-3.731 14.372.828 17.17 4.559 2.799 11.58-.351 15.682-7.036z" fill="#191818"/><path opacity=".5" d="M169.477 153.577c2.722-5.775 3.546-11.107 1.841-11.911-1.704-.803-5.292 3.226-8.013 9.001-2.721 5.774-3.545 11.107-1.841 11.91 1.705.804 5.292-3.226 8.013-9z" fill="#19A1A2"/><path d="M168.925 153.346c2.722-5.775 3.546-11.107 1.842-11.911-1.704-.804-5.293 3.226-8.014 9-2.722 5.775-3.547 11.107-1.843 11.911 1.705.804 5.293-3.226 8.015-9z" fill="#17A5BA"/><path d="M166.888 151.549c2.126-4.509 2.779-8.669 1.46-9.292-1.32-.622-4.113 2.529-6.238 7.039-2.126 4.51-2.78 8.67-1.46 9.292 1.32.622 4.112-2.529 6.238-7.039z" fill="#191818"/><path d="M202.332 116.889l-8.438 21.381-2.413-.205 8.713-22.02 2.138.844z" fill="url(#paint6_linear)"/><path d="M191.856 137.545l1.817.706c.43.147.887-.035 1.034-.465.147-.429-.036-.887-.465-1.033l-1.827-.597c-.429-.147-.887.035-1.034.465-.137.32.045.777.475.924z" fill="url(#paint7_linear)"/><path d="M192.708 135.297l1.818.706c.429.147.886-.035 1.033-.465.147-.429-.035-.887-.464-1.033l-1.818-.707c-.43-.147-.887.036-1.034.465-.037.439.145.896.465 1.034z" fill="url(#paint8_linear)"/><path d="M193.671 133.059l1.818.706c.43.147.887-.035 1.034-.465.147-.429-.036-.887-.465-1.034l-1.818-.706c-.429-.147-.887.035-1.033.465-.147.429.035.887.464 1.034z" fill="url(#paint9_linear)"/><path d="M194.524 130.81l1.818.707c.429.146.886-.036 1.033-.465.147-.43-.035-.887-.464-1.034l-1.818-.706c-.43-.147-.887.035-1.034.465-.147.429.036.886.465 1.033z" fill="url(#paint10_linear)"/><path d="M195.379 128.563l1.818.706c.429.147.886-.035 1.033-.465.147-.429-.035-.887-.465-1.033l-1.817-.707c-.43-.147-.887.036-1.034.465-.037.439.145.896.465 1.034z" fill="url(#paint11_linear)"/><path d="M196.34 126.324l1.818.707c.43.147.887-.036 1.034-.465.147-.43-.036-.887-.465-1.034l-1.818-.706c-.429-.147-.887.035-1.033.465-.147.429.035.887.464 1.033z" fill="url(#paint12_linear)"/><path d="M197.194 124.076l1.818.707c.429.147.886-.036 1.033-.465.147-.43-.035-.887-.465-1.034l-1.817-.706c-.43-.147-.887.035-1.034.465-.147.429.035.887.465 1.033z" fill="url(#paint13_linear)"/><path d="M198.048 121.829l1.818.706c.429.147.886-.035 1.033-.465.147-.429-.035-.887-.465-1.033l-1.818-.707c-.429-.147-.886.036-1.033.465-.037.439.145.896.465 1.034z" fill="url(#paint14_linear)"/><path d="M199.011 119.591l1.818.706c.43.147.887-.035 1.034-.465.146-.429-.036-.887-.465-1.034l-1.818-.706c-.429-.147-.887.035-1.033.465-.147.429.035.887.464 1.034z" fill="url(#paint15_linear)"/><path d="M201.352 118.021a2.092 2.092 0 10.351-4.17 2.092 2.092 0 00-.351 4.17z" fill="url(#paint16_linear)"/><path d="M166.809 163.264c-10.666 26.827-1.41 55.783 20.715 64.506 22.126 8.724 48.661-5.933 59.327-32.759 10.666-26.827 1.41-55.783-20.715-64.506-22.116-8.833-48.66 5.933-59.327 32.759z" fill="#fff"/><path fill-rule="evenodd" clip-rule="evenodd" d="M176.207 220.049c22.064 8.472 48.407-6.172 59.025-32.877 8.552-21.51 4.296-44.389-9.132-57.109.102.039.203.079.305.12 22.125 8.723 31.381 37.679 20.715 64.505-10.666 26.827-36.936 41.959-59.327 32.76a35.976 35.976 0 01-11.586-7.399z" fill="#BDBDBD"/><path d="M192.545 199.802c-1.701.519-3.245.499-4.743-.07 0 0-17.618-9.778-18.494-11.177l-.875-1.4c-1.924-3.367-1.945-8.34-.12-12.936l2.1-5.236c.294-.859.201.238.714-.602l14.916-26.136c2.07-3.581 5.044-6.091 8.098-6.937 1.582-.419 3.007-.298 4.405.152l5.024 1.972 5.025 1.972a6.803 6.803 0 013.295 2.82c1.651 2.681 2.094 6.585 1.092 10.588l-7.114 29.227a12.517 12.517 0 01-.89 2.686l-2.1 5.236c-1.835 4.706-5.34 8.276-8.97 9.404l-1.363.437z" fill="url(#paint17_radial)"/><path d="M167.792 173.843c-1.963 4.916-1.97 10.218.155 13.823l.875 1.4c.967 1.628 2.2 2.727 3.698 3.296l14.997 8.119c1.498.569 3.262.608 4.962.089l1.592-.528c3.968-1.211 7.602-4.991 9.564-9.906l2.1-5.236c.413-.959.707-1.818.9-2.796l7.114-29.227c1.03-4.332.596-8.346-1.145-11.255-.876-1.4-2.108-2.499-3.497-3.058l-10.149-4.064c-1.388-.559-3.043-.589-4.625-.17-3.273.827-6.375 3.548-8.574 7.339l-14.915 26.135c-.751 1.041-3.052 6.039-3.052 6.039zm3.855-5.087l14.915-26.136c1.943-3.37 4.679-5.68 7.504-6.435a6.537 6.537 0 014.076.125l10.149 4.063a6.5 6.5 0 013.086 2.692c1.55 2.561 1.911 6.127 1.037 9.92l-7.114 29.227c-.184.868-.468 1.617-.762 2.476l-2.1 5.236c-1.697 4.386-4.964 7.755-8.366 8.793l-1.591.528c-1.582.418-3.017.407-4.405-.152l-14.988-8.23c-1.278-.55-2.41-1.53-3.286-2.93l-.876-1.399c-1.832-3.139-1.881-7.783-.074-12.159.109.009 2.291-4.888 2.795-5.619z" fill="url(#paint18_linear)"/><path d="M169.043 186.433l.876 1.4c.766 1.391 1.898 2.37 3.286 2.93l14.997 8.12c1.279.55 2.824.57 4.405.152l1.592-.529c3.401-1.037 6.669-4.406 8.365-8.792l2.101-5.236c.293-.859.578-1.608.762-2.476l7.114-29.227c.873-3.793.512-7.359-1.038-9.92-.775-1.281-1.916-2.151-3.086-2.692l-10.149-4.064c-1.278-.55-2.713-.561-4.076-.124-2.825.755-5.561 3.065-7.503 6.435l-14.916 26.136c-.394.74-2.686 5.628-2.686 5.628-1.925 4.477-1.876 9.121-.044 12.259zm.733-.822c-1.642-2.79-1.727-6.996-.058-11.052 0 0 2.163-4.678 2.557-5.418l14.915-26.136c1.696-3.06 4.194-5.169 6.8-5.942 1.353-.327 2.568-.335 3.738.206l10.149 4.063c1.178.431 2.1 1.283 2.775 2.445 1.459 2.333 1.738 5.56.892 9.024l-7.114 29.227c-.174.758-.459 1.508-.743 2.257l-2.1 5.236c-1.55 3.956-4.461 7.024-7.634 7.97l-1.591.529c-1.362.437-2.797.425-3.967-.115l-14.877-8.22c-1.179-.432-2.201-1.402-2.976-2.683l-.766-1.391z" fill="url(#paint19_linear)"/><path opacity=".1" d="M185.793 142.556l12.165 54.612c-1.19 1.004-2.58 1.77-3.943 2.207l-1.591.528c-1.7.519-3.245.498-4.743-.07l-4.318-3.791-8.095-36.149 10.525-17.337zm8.235-7.258c.905-.254 1.682-.299 2.559-.225l10.03 44.599-.652 2.486a12.517 12.517 0 01-.89 2.686l-2.1 5.236c-.147.429-.404.849-.56 1.389l-12.092-54.164c1.19-1.004 2.461-1.67 3.705-2.007z" fill="#fff"/><path opacity=".5" d="M185.327 163.728c-1.981 5.135-.764 10.32 2.772 11.614 3.535 1.294 7.99-1.754 9.972-6.889 1.981-5.135.763-10.32-2.772-11.614-3.526-1.403-7.991 1.754-9.972 6.889z" fill="#363C54"/><path d="M185.569 162.202c-1.982 5.135-.764 10.32 2.772 11.614 3.535 1.293 7.99-1.754 9.972-6.889 1.981-5.135.763-10.321-2.772-11.614-3.536-1.294-7.991 1.754-9.972 6.889z" fill="#646989"/><path d="M197.31 156.568l-12.765 11.182c-.045-.777.02-1.545.094-2.423l11.22-9.877c.639.275 1.05.642 1.451 1.118zm1.651 7.873l-10.743 9.475c-1.069-.422-1.991-1.273-2.565-2.316l13.251-11.694c.327 1.354.306 2.899.057 4.535z" fill="#7F86A8"/><path d="M187.174 162.78c-1.431 3.856-.541 7.687 2.026 8.678 2.567.991 5.97-1.372 7.392-5.119 1.431-3.856.541-7.687-2.026-8.678-2.677-1-5.97 1.372-7.392 5.119z" fill="#D0D3DD"/><path d="M188.353 163.211c-1.128 2.887-.374 5.713 1.554 6.429 1.927.715 4.388-.954 5.516-3.842 1.129-2.887.374-5.713-1.544-6.538-1.937-.606-4.408 1.173-5.526 3.951z" fill="#1C2033"/><path d="M189.202 163.614c-.853 2.248-.262 4.397 1.237 4.966 1.498.569 3.383-.818 4.226-2.956.853-2.248.272-4.507-1.236-4.966-1.489-.679-3.374.708-4.227 2.956z" fill="#17A5BA"/><path d="M194.071 165.435c.695-1.752.296-3.554-.89-4.025-1.187-.47-2.712.568-3.407 2.32-.695 1.752-.297 3.554.89 4.025 1.186.47 2.712-.568 3.407-2.32z" fill="#1C2033"/><path d="M191.346 164.348c-.147.43-.083.988.236 1.125.32.138.787-.154.943-.693.147-.43.083-.988-.236-1.125-.439-.037-.796.264-.943.693z" fill="#fff"/><path d="M196.311 164.437l-7.482-2.953s.755-3.693 5.14-1.996c-.11-.009 3.626 1.523 2.342 4.949zm-8.857.244l7.481 2.954s-.332 2.623-4.708.817c.11.009-3.636-1.413-2.773-3.771z" fill="#D0D3DD"/><path d="M193.729 168.859l-3.832 2.216-1.744-1.584-.298-3.008 2.768 1.229 3.106 1.147zm-4.295-7.987l4.153-2.079 2.063 1.722.407 3.017-3.197-1.375-3.426-1.285z" fill="#D0D3DD"/><path opacity=".5" d="M194.567 157.661c1.498.569 2.465 2.197 2.746 4.099-.484-.814-1.196-1.537-2.054-1.831-2.567-.991-5.971 1.373-7.392 5.119-.578 1.608-.818 3.135-.61 4.588-.957-1.738-1.073-4.289-.082-6.856 1.422-3.746 4.715-6.119 7.392-5.119z" fill="#646989"/><path d="M161.265 154.924a6.607 6.607 0 004.366-8.258 6.604 6.604 0 10-12.622 3.891 6.604 6.604 0 008.256 4.367z" fill="#252528"/><path opacity=".5" d="M163.433 152.262c-3.511 1.029-7.11-.823-8.248-4.344-.528-1.591-.388-3.237.29-4.726a6.573 6.573 0 00-2.496 7.301c1.028 3.512 4.736 5.373 8.247 4.344 1.82-.619 3.248-1.824 4.054-3.523a4.298 4.298 0 01-1.847.948z" fill="#444344"/><path d="M141.004 137.989c-1.142-.87-1.341-2.433-.581-3.584l.376-.521c.87-1.141 2.433-1.34 3.584-.58l13.933 10.239c1.142.87 1.341 2.434.58 3.584l-.375.521c-.87 1.142-2.433 1.341-3.584.58l-13.933-10.239z" fill="#252528"/><path opacity=".5" d="M143.235 139.062c.87-1.142 2.433-1.341 3.584-.58l11.952 8.856.119-.101c.87-1.141.561-2.714-.58-3.584l-13.934-10.239c-1.141-.87-2.713-.561-3.583.58l-.376.521c-.87 1.141-.561 2.714.58 3.584l1.973 1.493.265-.53z" fill="#444344"/><path d="M143.371 138.294a5.506 5.506 0 00.805-7.743 5.503 5.503 0 00-7.741-.805 5.503 5.503 0 106.936 8.548z" fill="#252528"/><path opacity=".5" d="M141.095 134.351c1.095 1.419 1.504 3.111 1.036 4.728.457-.182.814-.483 1.171-.784 2.37-1.899 2.667-5.409.769-7.779-1.898-2.371-5.407-2.668-7.777-.769a5.961 5.961 0 00-1.914 3.041c2.405-1.011 5.119-.45 6.715 1.563z" fill="#444344"/><path d="M117.034 123.696c-2.995-2.463-3.382-7.025-.919-10.02l.742-.932c2.462-2.995 7.024-3.382 10.018-.919l14.434 12.159c2.995 2.464 3.382 7.026.919 10.021l-.742.932c-2.463 2.995-7.024 3.382-10.018.919l-14.434-12.16z" fill="#17A5BA"/><path opacity=".5" d="M117.287 119.409l.742-.931c2.462-2.996 7.024-3.383 10.018-.92l14.434 12.16c.521.376.922.851 1.214 1.318.543-2.495-.222-5.211-2.395-6.942l-14.433-12.16c-2.995-2.463-7.447-2.066-10.019.92l-.742.931c-2.087 2.475-2.174 6.113-.395 8.584.312-1.078.844-2.138 1.576-2.96z" fill="#444344"/><path d="M121.23 117.249c1.575-2.6 1.63-5.448.122-6.362-1.507-.913-4.006.453-5.581 3.053-1.575 2.6-1.63 5.448-.122 6.362 1.507.914 4.006-.453 5.581-3.053z" fill="#252528"/><path opacity=".5" d="M120.802 115.73c-1.548 2.63-4.091 3.962-5.671 3.055-.21-.129-.411-.367-.621-.495.035.887.409 1.692 1.149 2.086 1.58.907 4.013-.433 5.671-3.055 1.291-2.211 1.605-4.615.611-5.914.117 1.225-.232 2.742-1.139 4.323z" fill="#4D1518"/><path d="M119.229 117.89a5.506 5.506 0 00.804-7.743 5.505 5.505 0 10-.804 7.743z" fill="#252528"/><path opacity=".5" d="M118.35 112.098c1.396 1.775 1.639 4.116.595 6.016l.238-.201c2.369-1.898 2.776-5.399.769-7.779-1.898-2.37-5.407-2.667-7.777-.769-.595.502-1.08 1.013-1.355 1.653 2.461-1.67 5.741-1.281 7.53 1.08z" fill="#444344"/><path d="M139.08 133.159l-6.097.904.194 1.307 6.097-.904-.194-1.307zm-2.362-2.079l-6.097.905.194 1.307 6.097-.905-.194-1.307zm-2.36-2.087l-6.097.904.193 1.307 6.097-.904-.193-1.307zm-2.367-2.078l-6.096.903.193 1.307 6.097-.903-.194-1.307z" fill="#fff"/><path d="M205.114 230.033a35.878 35.878 0 01-17.592-2.263c-5.663-2.248-10.548-5.865-14.363-10.386l31.955 12.649z" fill="url(#paint20_linear)"/><path d="M200.673 230.32a36.733 36.733 0 01-13.149-2.55c-4.276-1.688-8.047-4.106-11.315-7.255l24.464 9.805z" fill="#17A5BA"/><path d="M229.985 155.468l-1.862-1.483 8.437-21.381 2.138.843-8.713 22.021z" fill="url(#paint21_linear)"/><path d="M230.15 154.819l-1.817-.707c-.43-.147-.612-.604-.465-1.033.147-.43.604-.612 1.033-.465l1.818.706c.43.147.612.604.465 1.034-.257.42-.714.602-1.034.465z" fill="url(#paint22_linear)"/><path d="M231.004 152.571l-1.818-.706c-.429-.147-.612-.605-.465-1.034.147-.43.604-.612 1.034-.465l1.818.706c.429.147.611.605.464 1.034-.256.42-.604.612-1.033.465z" fill="url(#paint23_linear)"/><path d="M231.855 150.323l-1.818-.706c-.43-.147-.612-.604-.465-1.034.147-.429.604-.612 1.033-.465l1.818.707c.43.146.612.604.465 1.033-.147.43-.604.612-1.033.465z" fill="url(#paint24_linear)"/><path d="M232.818 148.085l-1.817-.707c-.43-.147-.612-.604-.465-1.033.147-.43.604-.612 1.033-.465l1.818.706c.43.147.612.604.465 1.034-.257.42-.714.602-1.034.465z" fill="url(#paint25_linear)"/><path d="M233.673 145.837l-1.818-.707c-.429-.146-.612-.604-.465-1.033.147-.43.604-.612 1.034-.465l1.818.706c.429.147.611.604.464 1.034-.256.42-.604.612-1.033.465z" fill="url(#paint26_linear)"/><path d="M234.526 143.589l-1.817-.706c-.43-.147-.612-.605-.465-1.034.147-.43.604-.612 1.033-.465l1.818.706c.43.147.612.605.465 1.034-.147.43-.604.612-1.034.465z" fill="url(#paint27_linear)"/><path d="M235.489 141.35l-1.818-.706c-.429-.147-.611-.604-.464-1.034.146-.429.604-.611 1.033-.465l1.818.707c.429.147.612.604.465 1.033-.257.421-.714.603-1.034.465z" fill="url(#paint28_linear)"/><path d="M236.339 139.103l-1.818-.707c-.429-.146-.612-.604-.465-1.033.147-.43.604-.612 1.034-.465l1.818.706c.429.147.611.604.464 1.034-.256.42-.604.612-1.033.465z" fill="url(#paint29_linear)"/><path d="M237.193 136.855l-1.817-.706c-.43-.147-.612-.604-.465-1.034.147-.429.604-.612 1.033-.465l1.818.706c.43.147.612.605.465 1.034-.147.43-.604.612-1.034.465z" fill="url(#paint30_linear)"/><path d="M237.718 134.579a2.09 2.09 0 10.353-4.166 2.09 2.09 0 00-.353 4.166z" fill="url(#paint31_linear)"/><path opacity=".34" d="M66.324 87.691c.669.004 1.212-.19 1.213-.432.002-.243-.539-.444-1.207-.449-.669-.004-1.212.19-1.214.433-.001.243.54.444 1.208.448z" fill="#2999C5"/><path d="M290.283 230.565c-.731-.503-1.855-.267-2.359.463-.504.731-.268 1.856.463 2.36l2.721 1.777c.731.504 1.855.267 2.359-.463.504-.731.267-1.856-.463-2.36l-2.721-1.777z" fill="#1C1C1D"/><path d="M294.29 234.109c-.145-.897-.967-1.629-1.863-1.484-.896.145-1.628.967-1.483 1.863l.389 3.237c.145.896.966 1.628 1.862 1.483.896-.145 1.628-.967 1.483-1.863l-.388-3.236z" fill="#252528"/><path d="M295.011 233.397c-.145-.896-.966-1.629-1.862-1.484-.896.145-1.628.967-1.483 1.863l.388 3.237c.145.896.967 1.629 1.863 1.483.896-.145 1.628-.966 1.483-1.863l-.389-3.236z" fill="#17A5BA"/><path d="M294.739 234.036c-.073-.448-.484-.814-.932-.742-.448.073-.814.484-.741.932l.199 1.563c.072.448.483.815.931.742.448-.072.814-.483.742-.931l-.199-1.564z" fill="#252528"/><path opacity=".5" d="M293.263 235.789l-.199-1.563c-.073-.448.293-.859.741-.932.22.019.439.037.64.275l-.11-.009c-.448.073-.814.484-.742.932l.199 1.563c-.018.22.082.339.292.467-.438-.037-.749-.285-.821-.733z" fill="#4D1518"/><path opacity=".5" d="M293.086 237.874c.896-.145 1.628-.967 1.483-1.863l-.388-3.237c.018-.219-.073-.448-.273-.686.529.266.931.742.985 1.409l.388 3.237c.145.896-.587 1.718-1.483 1.863-.667.054-1.307-.221-1.589-.798l.877.075z" fill="#4D1518"/><path d="M274.277 223.907c.155.787 1.004 1.19 1.681 1.026.786-.154 1.189-1.004 1.026-1.68l-5.838-22.369c-.154-.787-1.004-1.19-1.68-1.027-.787.155-1.19 1.005-1.026 1.681l5.837 22.369zm-25.911-24.847c5.334.392 10.124-5.631 10.699-13.452.575-7.822-3.284-14.48-8.618-14.872-5.335-.392-10.125 5.631-10.7 13.452-.574 7.822 3.284 14.48 8.619 14.872z" fill="#191818"/><path opacity=".5" d="M258.642 186.862c1.164-6.277.605-11.644-1.248-11.987-1.852-.344-4.298 4.466-5.461 10.743-1.164 6.276-.605 11.643 1.248 11.987 1.852.343 4.298-4.467 5.461-10.743z" fill="#19A1A2"/><path d="M259.336 186.951c1.163-6.276.604-11.643-1.249-11.986-1.852-.344-4.297 4.466-5.46 10.743-1.163 6.277-.604 11.643 1.249 11.987 1.853.343 4.298-4.467 5.46-10.744z" fill="#17A5BA"/><path d="M260.498 186.454c.908-4.902.481-9.091-.953-9.357s-3.333 3.492-4.241 8.394c-.909 4.902-.482 9.091.952 9.357 1.435.266 3.334-3.493 4.242-8.394z" fill="#191818"/><path d="M265.281 190.209a6.606 6.606 0 003.09-8.815 6.603 6.603 0 00-8.813-3.089 6.606 6.606 0 00-3.09 8.815 6.603 6.603 0 008.813 3.089z" fill="#252528"/><path opacity=".5" d="M261.927 189.718c3.229-1.605 4.66-5.461 3.065-8.8-.757-1.5-1.989-2.599-3.478-3.277 2.679-.326 5.547 1.022 6.759 3.666 1.604 3.229.164 7.195-3.065 8.799-1.729.848-3.712.791-5.32.213.787-.155 1.463-.318 2.039-.601z" fill="#444344"/><path d="M273.36 200.85a2.497 2.497 0 003.628.197l.476-.402a2.498 2.498 0 00.197-3.629l-11.49-13.015a2.497 2.497 0 00-3.628-.197l-.476.402a2.499 2.499 0 00-.197 3.629l11.49 13.015z" fill="#252528"/><path opacity=".5" d="M272.108 198.645a2.498 2.498 0 00.197-3.629l-9.874-11.221.119-.101c1.07-.903 2.606-.773 3.628.197l11.49 13.015c.903 1.071.773 2.607-.197 3.629l-.476.402c-1.071.904-2.606.774-3.628-.197l-1.607-1.903.348-.192z" fill="#444344"/><path d="M279.065 204.666a5.504 5.504 0 10-4.771-9.92 5.504 5.504 0 004.771 9.92z" fill="#252528"/><path opacity=".5" d="M276.872 198.496c-.747-1.61-2.208-2.618-3.835-2.976.357-.301.714-.603 1.171-.785 2.763-1.313 5.978-.157 7.291 2.606 1.312 2.763.156 5.979-2.606 7.292-1.152.565-2.377.682-3.565.361 2.013-1.597 2.674-4.193 1.544-6.498z" fill="#444344"/><path d="M276.307 224.742c1.009 3.731 4.9 6.049 8.63 5.039l1.134-.346c3.73-1.01 6.048-4.901 5.039-8.632l-4.756-18.19c-1.009-3.731-4.9-6.049-8.63-5.039l-1.134.345c-3.731 1.01-6.048 4.902-5.039 8.633l4.756 18.19z" fill="#17A5BA"/><path opacity=".5" d="M280.261 226.292l1.134-.346c3.73-1.009 6.048-4.901 5.038-8.632l-4.755-18.19c-.173-.567-.346-1.134-.738-1.719 2.494.542 4.649 2.492 5.313 5.09l4.755 18.189c1.009 3.732-1.308 7.623-5.039 8.633l-1.134.346c-3.163.837-6.461-.658-8.002-3.329 1.188.321 2.294.304 3.428-.042z" fill="#444344"/><path d="M284.646 230.019c3.022-.316 5.324-1.994 5.141-3.748-.183-1.753-2.782-2.919-5.805-2.603-3.023.316-5.325 1.994-5.142 3.748.184 1.753 2.783 2.919 5.806 2.603z" fill="#252528"/><path opacity=".5" d="M285.146 224.717c-3.008.298-5.359 1.977-5.178 3.76-.019.219.072.448.273.686-.84-.514-1.342-1.108-1.387-1.886-.18-1.782 2.061-3.471 5.178-3.759 2.56-.225 4.816.518 5.582 1.909-1.169-.541-2.805-.79-4.468-.71z" fill="#4D1518"/><path d="M287.181 235.178a5.504 5.504 0 10-4.771-9.92 5.504 5.504 0 004.771 9.92z" fill="#252528"/><path opacity=".5" d="M287.367 228.441c-1.039-2.077-3.039-3.241-5.261-3.097.11.009.119-.101.229-.092 2.762-1.312 5.978-.156 7.29 2.606 1.313 2.763.157 5.98-2.605 7.292-.686.274-1.372.547-2.14.482a5.296 5.296 0 002.487-7.191z" fill="#444344"/><path d="M287.107 232.838a1.728 1.728 0 00-2.413-.205 1.728 1.728 0 00-.204 2.414l2.107 2.498a1.727 1.727 0 002.413.204 1.728 1.728 0 00.205-2.413l-2.108-2.498z" fill="#1C1C1D"/><path d="M289.923 237.385c.184-.868-.399-1.802-1.377-1.995-.868-.184-1.801.4-1.994 1.378l-.599 3.153c-.184.868.4 1.802 1.378 1.995.868.184 1.801-.4 1.994-1.378l.598-3.153z" fill="#252528"/><path d="M290.84 237.021c.184-.868-.399-1.802-1.377-1.995-.868-.184-1.801.4-1.994 1.378l-.599 3.153c-.184.868.4 1.802 1.378 1.995.868.184 1.801-.4 1.994-1.378l.598-3.153z" fill="#17A5BA"/><path d="M290.243 237.523c.037-.439-.255-.906-.693-.943-.439-.037-.906.255-.943.694l-.24 1.526c-.037.439.255.905.694.943.438.037.905-.255.942-.694l.24-1.526z" fill="#252528"/><path opacity=".5" d="M288.378 238.69l.24-1.527c.037-.438.504-.73.942-.693.22.019.43.147.521.375l-.11-.009c-.439-.037-.905.255-.942.694l-.24 1.526c-.019.219-.028.329.063.558-.32-.138-.511-.485-.474-.924z" fill="#4D1518"/><path opacity=".5" d="M287.662 240.618c.868.184 1.801-.4 1.994-1.378l.598-3.153c.019-.219.047-.549-.044-.777.411.366.693.942.637 1.601l-.598 3.153c-.184.868-1.017 1.571-1.994 1.378-.649-.166-1.16-.651-1.333-1.218.201.238.52.375.74.394z" fill="#4D1518"/><path d="M279.826 231.448c.513-.841 1.528-1.086 2.368-.573.84.513 1.085 1.528.572 2.368l-1.676 2.841c-.513.841-1.528 1.086-2.368.573-.84-.513-1.086-1.528-.573-2.368l1.677-2.841z" fill="#1C1C1D"/><path d="M277.741 236.464c-.254-.906.158-1.865 1.063-2.12.906-.254 1.865.158 2.119 1.064l1.066 3.073c.254.905-.158 1.865-1.064 2.119-.905.255-1.864-.158-2.119-1.063l-1.065-3.073z" fill="#252528"/><path d="M276.773 236.161c-.254-.906.158-1.865 1.064-2.12.905-.255 1.864.158 2.119 1.063l1.065 3.074c.255.905-.158 1.864-1.063 2.119-.905.255-1.865-.158-2.119-1.063l-1.066-3.073z" fill="#17A5BA"/><path d="M278.302 236.4c-.182-.457.075-.877.532-1.059.457-.183.877.074 1.059.531l.538 1.482c.182.457-.075.878-.532 1.06-.457.182-.877-.074-1.059-.532l-.538-1.482z" fill="#252528"/><path opacity=".5" d="M280.328 237.235l-.537-1.482c-.182-.457-.612-.604-1.06-.531-.228.091-.466.292-.485.511l.119-.1c.457-.183.877.074 1.06.531l.537 1.482c.091.229.082.338-.047.548.448-.072.595-.502.413-.959z" fill="#4D1518"/><path opacity=".5" d="M280.48 239.347c-.905.255-1.864-.158-2.119-1.063l-1.065-3.073c-.091-.229-.072-.448-.045-.777-.366.41-.531 1.059-.368 1.736l1.066 3.073c.254.906 1.323 1.327 2.119 1.063.686-.273 1.061-.794 1.117-1.452-.238.201-.476.402-.705.493z" fill="#444344"/><path d="M276.028 200.02l-3.418 5.13 1.099.733 3.418-5.13-1.099-.733zm.938 3.004l-3.419 5.13 1.099.732 3.419-5.129-1.099-.733zm.856 3.067l-3.418 5.13 1.099.733 3.418-5.131-1.099-.732zm.859 3.093l-3.417 5.131 1.099.732 3.417-5.13-1.099-.733z" fill="#fff"/><path d="M153.114 130.49c.8-1.715.638-4.129-.081-5.863-9.267-25.37-1.235-32.327-4.889-38.906-4.704-8.302-9.83-16.002-15.123-22.89-1.855-2.244-14.921-18.351-17.563-17.634-3.244.885-6.489 1.77-9.695 2.543 2.74-.684 15.746 15.28 17.563 17.634 2.567 3.355 15.984 21.32 16.238 26.993.06.145.022.256.044.512-.018 1.98-1.108 5.831-.736 13.407.836 18.411 7.332 21.113 4.395 27.193-7.224 15.177-18.778 31.864-35.933 36.468l9.695-2.543c15.951-4.269 29.431-21.171 36.085-36.914z" fill="url(#paint32_linear)"/><path d="M99.391 50.94a1.292 1.292 0 00-1.151-.143l-9.695 2.543c.369-.123.662-.023 1.15.143 2.685 1.408 5.324 2.304 8.666 1.452l9.695-2.543c-3.244.885-5.883-.012-8.665-1.453z" fill="url(#paint33_linear)"/><path d="M90.142 53.756c6.232 3.482 12.481 1.134 16.789-6.094.822-1.46 2.087-1.65 3.266-.63 5.349 4.797 10.63 10.438 15.705 17.004 5.391 6.92 10.518 14.621 15.124 22.89.855 1.656 1.25 4.025.999 6.05-1.702 10.472-.33 22.484 3.688 32.167l.299.723c.78 1.878.844 4.259.081 5.862l-.287.524c-9.436 19.765-26.191 42.135-52.937 36.778-.625-.088-1.233-.543-1.766-1.22-.533-.678-.991-1.578-1.275-2.668-12.868-45.589-8.773-84.301-3.068-108.81l.13-.7c.446-1.96 1.606-2.807 2.802-2.153l.45.277z" fill="#fff"/><path d="M109.766 50.24c-.691-.855-1.624-.675-2.04.55-.416 1.224-.223 2.903.566 3.792.691.855 1.624.676 2.04-.549.378-1.113.185-2.793-.566-3.793zm33.352 76.134c-.691-.855-1.625-.676-2.04.549-.416 1.224-.223 2.904.565 3.792.691.856 1.625.676 2.04-.548.378-1.114.185-2.793-.565-3.793zm-3.211-37.1c-.691-.855-1.624-.675-2.04.55-.416 1.224-.223 2.903.566 3.792.69.855 1.624.676 2.039-.549.378-1.113.088-2.826-.565-3.793zM90.084 57.462c-.69-.855-1.624-.675-2.04.55-.415 1.224-.222 2.903.566 3.792.691.855 1.624.675 2.04-.549.416-1.224.223-2.904-.566-3.793zm3.676 103.182c-.69-.855-1.624-.675-2.04.549-.415 1.225-.223 2.904.566 3.793.69.855 1.624.675 2.04-.549.28-1.147.087-2.826-.566-3.793z" fill="#00D0CD"/><path d="M94.53 158.05c21.972 3.363 36.439-14.197 44.953-30.923-3.7-10.94-5.079-23.576-3.758-35.17-4.007-6.824-8.361-13.269-12.843-19.012-4.168-5.388-8.621-10.252-12.911-14.316-4.992 6.996-11.61 9.467-18.317 7.065-4.662 21.758-7.34 54.371 2.876 92.356z" fill="url(#paint34_linear)"/><path d="M186.874 181.109l-5.497-2.964-.916 1.779 5.497 3.26.916-2.075z" fill="#986BD1"/><ellipse cx="98.409" cy="105.942" rx="65.624" ry="73.91" transform="rotate(23.4 98.41 105.942)" fill="url(#paint35_radial)"/><ellipse cx="103.345" cy="106.646" rx="2.425" ry="4.238" transform="rotate(15.498 103.345 106.646)" fill="#fff"/><ellipse cx="93.607" cy="109.567" rx="45.425" ry="60.326" transform="rotate(23.4 93.607 109.567)" fill="url(#paint36_radial)"/><path d="M174.874 284.304l24.32-54.23-23.005-9.202-23.993 53.572 22.678 9.86z" fill="url(#paint37_linear)"/><path opacity=".3" d="M35.956 61.617l-46.12-16.252m23.762 41.718l20.828 7.34" stroke="#06EDE1"/><path transform="scale(-1 1) rotate(70.587 -61.015 50.186)" fill="url(#paint38_linear)" d="M0 0h10.484v10.253H0z"/><path transform="scale(-1 1) rotate(70.587 -74.449 -6.382)" fill="url(#paint39_linear)" d="M0 0h10.484v10.253H0z"/><path transform="scale(-1 1) rotate(70.587 -32.163 8.725)" fill="url(#paint40_linear)" d="M0 0h7.258v7.098H0z"/><path transform="scale(-1 1) rotate(70.587 -24.922 13.85)" fill="url(#paint41_linear)" d="M0 0h4.839v4.732H0z"/><path d="M101.192 105.008l-145.47-62.433s-1.666-1.14-3.152 1.328c-1.486 2.467.42 3.182.42 3.182l146.937 62.117 1.265-4.194z" fill="url(#paint42_linear)"/><path fill="url(#paint43_linear)" d="M0 22h54v117H0z"/></g><defs><linearGradient id="paint2_linear" x1="58.526" y1="93.35" x2="258.411" y2="245.774" gradientUnits="userSpaceOnUse"><stop stop-color="#00D0CD"/><stop offset="1" stop-color="#243248"/></linearGradient><linearGradient id="paint3_linear" x1="-8588.26" y1="-9185.82" x2="-8687.06" y2="-9229.92" gradientUnits="userSpaceOnUse"><stop stop-color="#06EDE1"/><stop offset="1" stop-color="#06EDE1" stop-opacity="0"/></linearGradient><linearGradient id="paint4_linear" x1="-19637.1" y1="-21423.3" x2="-20101.2" y2="-21630.4" gradientUnits="userSpaceOnUse"><stop stop-color="#06EDE1"/><stop offset="1" stop-color="#06EDE1" stop-opacity="0"/></linearGradient><linearGradient id="paint5_linear" x1="199.195" y1="196.879" x2="175.031" y2="269.773" gradientUnits="userSpaceOnUse"><stop stop-color="#00D0CD"/><stop offset="1" stop-color="#00D0CD" stop-opacity="0"/></linearGradient><linearGradient id="paint6_linear" x1="198.044" y1="127.912" x2="195.948" y2="127.081" gradientUnits="userSpaceOnUse"><stop stop-color="#fff"/><stop offset="1" stop-color="#B7B6B6"/></linearGradient><linearGradient id="paint7_linear" x1="194.803" y1="137.818" x2="191.515" y2="136.513" gradientUnits="userSpaceOnUse"><stop stop-color="#242424"/><stop offset="1" stop-color="#555"/></linearGradient><linearGradient id="paint8_linear" x1="195.692" y1="135.575" x2="192.404" y2="134.27" gradientUnits="userSpaceOnUse"><stop stop-color="#242424"/><stop offset="1" stop-color="#555"/></linearGradient><linearGradient id="paint9_linear" x1="196.582" y1="133.333" x2="193.294" y2="132.028" gradientUnits="userSpaceOnUse"><stop stop-color="#242424"/><stop offset="1" stop-color="#555"/></linearGradient><linearGradient id="paint10_linear" x1="197.472" y1="131.09" x2="194.183" y2="129.785" gradientUnits="userSpaceOnUse"><stop stop-color="#242424"/><stop offset="1" stop-color="#555"/></linearGradient><linearGradient id="paint11_linear" x1="198.363" y1="128.848" x2="195.075" y2="127.543" gradientUnits="userSpaceOnUse"><stop stop-color="#242424"/><stop offset="1" stop-color="#555"/></linearGradient><linearGradient id="paint12_linear" x1="199.252" y1="126.605" x2="195.964" y2="125.301" gradientUnits="userSpaceOnUse"><stop stop-color="#242424"/><stop offset="1" stop-color="#555"/></linearGradient><linearGradient id="paint13_linear" x1="200.142" y1="124.363" x2="196.854" y2="123.058" gradientUnits="userSpaceOnUse"><stop stop-color="#242424"/><stop offset="1" stop-color="#555"/></linearGradient><linearGradient id="paint14_linear" x1="201.032" y1="122.121" x2="197.744" y2="120.816" gradientUnits="userSpaceOnUse"><stop stop-color="#242424"/><stop offset="1" stop-color="#555"/></linearGradient><linearGradient id="paint15_linear" x1="201.923" y1="119.878" x2="198.635" y2="118.574" gradientUnits="userSpaceOnUse"><stop stop-color="#242424"/><stop offset="1" stop-color="#555"/></linearGradient><linearGradient id="paint16_linear" x1="203.528" y1="116.662" x2="199.669" y2="115.131" gradientUnits="userSpaceOnUse"><stop stop-color="#242424"/><stop offset="1" stop-color="#555"/></linearGradient><linearGradient id="paint18_linear" x1="210.029" y1="174.277" x2="173.473" y2="159.773" gradientUnits="userSpaceOnUse"><stop stop-color="#B7B6B6"/><stop offset="1" stop-color="#fff"/></linearGradient><linearGradient id="paint19_linear" x1="208.911" y1="173.834" x2="174.586" y2="160.215" gradientUnits="userSpaceOnUse"><stop stop-color="#575757"/><stop offset="1" stop-color="#BBB"/></linearGradient><linearGradient id="paint20_linear" x1="204.373" y1="232.078" x2="172.356" y2="219.375" gradientUnits="userSpaceOnUse"><stop stop-color="#B7B6B6"/><stop offset="1" stop-color="#fff"/></linearGradient><linearGradient id="paint21_linear" x1="234.416" y1="144.447" x2="232.321" y2="143.616" gradientUnits="userSpaceOnUse"><stop stop-color="#fff"/><stop offset="1" stop-color="#B7B6B6"/></linearGradient><linearGradient id="paint22_linear" x1="231.176" y1="154.351" x2="227.888" y2="153.047" gradientUnits="userSpaceOnUse"><stop stop-color="#555"/><stop offset="1" stop-color="#242424"/></linearGradient><linearGradient id="paint23_linear" x1="232.066" y1="152.109" x2="228.778" y2="150.805" gradientUnits="userSpaceOnUse"><stop stop-color="#555"/><stop offset="1" stop-color="#242424"/></linearGradient><linearGradient id="paint24_linear" x1="232.953" y1="149.867" x2="229.665" y2="148.562" gradientUnits="userSpaceOnUse"><stop stop-color="#555"/><stop offset="1" stop-color="#242424"/></linearGradient><linearGradient id="paint25_linear" x1="233.844" y1="147.624" x2="230.556" y2="146.32" gradientUnits="userSpaceOnUse"><stop stop-color="#555"/><stop offset="1" stop-color="#242424"/></linearGradient><linearGradient id="paint26_linear" x1="234.735" y1="145.382" x2="231.447" y2="144.077" gradientUnits="userSpaceOnUse"><stop stop-color="#555"/><stop offset="1" stop-color="#242424"/></linearGradient><linearGradient id="paint27_linear" x1="235.626" y1="143.139" x2="232.338" y2="141.835" gradientUnits="userSpaceOnUse"><stop stop-color="#555"/><stop offset="1" stop-color="#242424"/></linearGradient><linearGradient id="paint28_linear" x1="236.515" y1="140.897" x2="233.227" y2="139.592" gradientUnits="userSpaceOnUse"><stop stop-color="#555"/><stop offset="1" stop-color="#242424"/></linearGradient><linearGradient id="paint29_linear" x1="237.402" y1="138.655" x2="234.114" y2="137.35" gradientUnits="userSpaceOnUse"><stop stop-color="#555"/><stop offset="1" stop-color="#242424"/></linearGradient><linearGradient id="paint30_linear" x1="238.293" y1="136.412" x2="235.005" y2="135.108" gradientUnits="userSpaceOnUse"><stop stop-color="#555"/><stop offset="1" stop-color="#242424"/></linearGradient><linearGradient id="paint31_linear" x1="239.9" y1="133.196" x2="236.041" y2="131.665" gradientUnits="userSpaceOnUse"><stop stop-color="#555"/><stop offset="1" stop-color="#242424"/></linearGradient><linearGradient id="paint32_linear" x1="87.836" y1="74.537" x2="137.921" y2="126.261" gradientUnits="userSpaceOnUse"><stop stop-color="#00D0CD"/><stop offset="1" stop-color="#515AA5"/></linearGradient><linearGradient id="paint33_linear" x1="83.067" y1="47.691" x2="116.923" y2="59.187" gradientUnits="userSpaceOnUse"><stop stop-color="#03D9FE"/><stop offset="1" stop-color="#5A54CE"/></linearGradient><linearGradient id="paint34_linear" x1="79.728" y1="100.663" x2="141.376" y2="121.595" gradientUnits="userSpaceOnUse"><stop stop-color="#F7DA5C"/><stop offset="1" stop-color="#F15DAB"/></linearGradient><linearGradient id="paint37_linear" x1="199.195" y1="197.536" x2="175.031" y2="270.43" gradientUnits="userSpaceOnUse"><stop stop-color="#00D0CD"/><stop offset="1" stop-color="#00D0CD" stop-opacity="0"/></linearGradient><linearGradient id="paint38_linear" x1="5.645" y1="-5.521" x2="5.645" y2="15.38" gradientUnits="userSpaceOnUse"><stop stop-color="#06EDE1"/><stop offset="1" stop-color="#06EDE1" stop-opacity="0"/></linearGradient><linearGradient id="paint39_linear" x1="5.645" y1="-5.521" x2="5.645" y2="15.38" gradientUnits="userSpaceOnUse"><stop stop-color="#06EDE1"/><stop offset="1" stop-color="#06EDE1" stop-opacity="0"/></linearGradient><linearGradient id="paint40_linear" x1="3.908" y1="-3.822" x2="3.908" y2="10.647" gradientUnits="userSpaceOnUse"><stop stop-color="#06EDE1"/><stop offset="1" stop-color="#06EDE1" stop-opacity="0"/></linearGradient><linearGradient id="paint41_linear" x1="2.606" y1="-2.548" x2="2.606" y2="7.098" gradientUnits="userSpaceOnUse"><stop stop-color="#06EDE1"/><stop offset="1" stop-color="#06EDE1" stop-opacity="0"/></linearGradient><linearGradient id="paint42_linear" x1="142.658" y1="120.274" x2="-37.726" y2="42.678" gradientUnits="userSpaceOnUse"><stop stop-color="#fff" stop-opacity="0"/><stop offset="1" stop-color="#fff"/></linearGradient><linearGradient id="paint43_linear" x1=".85" y1="139" x2="53.182" y2="139" gradientUnits="userSpaceOnUse"><stop stop-color="#243248"/><stop offset="1" stop-color="#243248" stop-opacity="0"/></linearGradient><radialGradient id="paint0_radial" cx="0" cy="0" r="1" gradientUnits="userSpaceOnUse" gradientTransform="rotate(-179.982 82.034 144.932) scale(130.998 14.1537)"><stop stop-color="#05060A"/><stop offset="1" stop-color="#2B384E" stop-opacity="0"/></radialGradient><radialGradient id="paint1_radial" cx="0" cy="0" r="1" gradientUnits="userSpaceOnUse" gradientTransform="matrix(-143.21452 -66.94338 70.00709 -149.76883 258.004 197.193)"><stop offset=".57" stop-color="#fff" stop-opacity="0"/><stop offset="1" stop-color="#fff" stop-opacity=".5"/></radialGradient><radialGradient id="paint17_radial" cx="0" cy="0" r="1" gradientUnits="userSpaceOnUse" gradientTransform="rotate(21.654 -341.895 583.788) scale(20.4087 29.9641)"><stop stop-color="#333"/><stop offset="1" stop-color="#333"/></radialGradient><radialGradient id="paint35_radial" cx="0" cy="0" r="1" gradientUnits="userSpaceOnUse" gradientTransform="matrix(-58.99377 7.61484 -8.57845 -66.45904 98.41 105.942)"><stop stop-color="#fff"/><stop offset="1" stop-color="#fff" stop-opacity="0"/></radialGradient><radialGradient id="paint36_radial" cx="0" cy="0" r="1" gradientUnits="userSpaceOnUse" gradientTransform="matrix(-40.83563 6.21518 -8.2035 -53.89949 93.607 109.567)"><stop stop-color="#fff"/><stop offset="1" stop-color="#fff" stop-opacity="0"/></radialGradient><clipPath id="clip0"><path fill="#fff" d="M0 0h306v305H0z"/></clipPath></defs></svg>