<svg width="36" height="36" fill="none" xmlns="http://www.w3.org/2000/svg"><path d="M12.398 8.917l.58-.58a.82.82 0 00-.158-1.283L8.426 4.417a2.917 2.917 0 00-3.569.44 2.917 2.917 0 00-.44 3.569l2.637 4.393a.82.82 0 001.283.158l.58-.58 4.439 4.431 3.476-3.476-4.434-4.435z" fill="#fff"/><path d="M31.44 7.267a.82.82 0 00-1.32-.227l-2.122 2.122a.84.84 0 01-1.16 0 .821.821 0 010-1.16l2.123-2.122a.82.82 0 00-.227-1.32 5.748 5.748 0 00-6.536 1.122 5.753 5.753 0 00-1.35 5.989l-9.178 9.177a5.754 5.754 0 00-5.989 1.35 5.751 5.751 0 00-1.122 6.536.82.82 0 001.32.227l2.122-2.122a.821.821 0 011.16 1.16L7.04 30.12a.82.82 0 00.227 1.32 5.747 5.747 0 006.535-1.122 5.752 5.752 0 001.35-5.99l9.178-9.177a5.758 5.758 0 005.99-1.35 5.751 5.751 0 001.122-6.535z" fill="#fff"/><path d="M30.789 25.064c-2.785-2.775-4.311-3.877-7.576-6.416l-4.639 4.64c2.295 2.945 3.684 4.845 6.29 7.452.852.852 1.985 1.25 3.1 1.25.817 0 1.625-.194 2.303-.682a4.123 4.123 0 001.71-3.012 4.097 4.097 0 00-1.188-3.232zm-2.363 3.366c-.326.297-.835.268-1.148-.044l-3.248-3.249a.834.834 0 01-.044-1.147.82.82 0 011.187-.029l3.282 3.281c.33.33.32.87-.029 1.188z" fill="#fff"/></svg>