<svg width="56" height="56" fill="none" xmlns="http://www.w3.org/2000/svg"><path d="M23.431 24.857h-1.572v1.571h1.572a.787.787 0 000-1.571zM11.309 42.166c8.786 10.467 24.92 10.424 33.673 0a.492.492 0 00-.378-.807H11.686a.491.491 0 00-.377.806zm33.673-28.332c-8.786-10.467-24.92-10.424-33.673 0a.492.492 0 00.377.807h32.918a.492.492 0 00.378-.807z" fill="#fff"/><path d="M3 20.142v15.716a2.357 2.357 0 002.357 2.358h45.579a2.357 2.357 0 002.357-2.358V20.142a2.357 2.357 0 00-2.357-2.358H5.358A2.357 2.357 0 003 20.142zm41.65 6.286a1.571 1.571 0 110 3.144h-2.358v1.571h3.929a1.571 1.571 0 110 3.144H40.72a1.571 1.571 0 01-1.572-1.572v-9.43c0-.868.704-1.572 1.572-1.572h5.5a1.571 1.571 0 110 3.144h-3.928v1.571h2.357zM8.5 32.715v-9.43c0-.868.704-1.572 1.572-1.572h5.501a1.571 1.571 0 110 3.144h-3.929v1.571h2.358a1.571 1.571 0 110 3.144h-2.358v3.143a1.571 1.571 0 11-3.143 0zm25.933-6.287a1.571 1.571 0 110 3.144h-2.357v1.571h3.929a1.571 1.571 0 110 3.144h-5.5a1.571 1.571 0 01-1.572-1.572v-9.43c0-.868.703-1.572 1.571-1.572h5.5a1.571 1.571 0 110 3.144h-3.928v1.571h2.357zm-7.072 3.93v2.357a1.571 1.571 0 11-3.143 0v-2.358a.787.787 0 00-.786-.785H21.86v3.143a1.571 1.571 0 11-3.143 0v-9.43c0-.868.703-1.572 1.571-1.572h3.144c3.253 0 5.067 3.73 3.141 6.287.495.657.788 1.473.788 2.358z" fill="#fff"/></svg>