<svg width="36" height="36" fill="none" xmlns="http://www.w3.org/2000/svg"><path d="M9.105 20.173a1.558 1.558 0 003.114 0 1.558 1.558 0 00-3.114 0z" fill="#00D0CD"/><path d="M23.35 13.038h-2.737v-2.98h-1.795V7.807c0-.857.698-1.555 1.555-1.555s1.555.698 1.555 1.555v1.236a3.127 3.127 0 003.123 3.123h.027A3.127 3.127 0 0028.2 9.042v-4.36h-1.568v4.36c0 .857-.698 1.555-1.555 1.555h-.027a1.557 1.557 0 01-1.555-1.555V7.806a3.127 3.127 0 00-3.123-3.123 3.127 3.127 0 00-3.123 3.123v2.253h-1.735v2.98h-2.738c-4.464 0-8.095 3.631-8.095 8.095v4.927a5.262 5.262 0 005.255 5.256 5.262 5.262 0 005.256-5.256v-.581h5.742v.581a5.262 5.262 0 005.256 5.256 5.262 5.262 0 005.255-5.256v-4.927c0-4.464-3.631-8.096-8.095-8.096zm3.283 4.69a1.17 1.17 0 01-1.168 1.167 1.17 1.17 0 01-1.168-1.168 1.17 1.17 0 011.168-1.167 1.17 1.17 0 011.168 1.168zM24.359 20a1.169 1.169 0 11-1.168-1.168A1.17 1.17 0 0124.359 20zm1.106 1.106a1.17 1.17 0 011.168 1.168 1.17 1.17 0 01-2.336 0 1.17 1.17 0 011.168-1.168zM26.571 20a1.169 1.169 0 111.168 1.168A1.169 1.169 0 0126.57 20zm-12.787.172a3.129 3.129 0 01-3.125 3.125 3.129 3.129 0 01-3.125-3.125 3.129 3.129 0 013.125-3.125 3.129 3.129 0 013.125 3.125z" fill="#00D0CD"/></svg>