<svg width="211" height="164" fill="none" xmlns="http://www.w3.org/2000/svg"><g clip-path="url(#clip0)"><ellipse cx="126" cy="136" rx="75" ry="52" fill="url(#paint0_radial)"/><g opacity=".7"><path opacity=".74" d="M-10.81 147.91c2.613 1.628 5.772 1.117 7.079-1.16l55.193-96.18c1.307-2.276.173-5.294-2.531-6.763L-69.671-20.439c-2.327-1.251-5.217-.584-6.42 1.51l-51.09 89.03c-1.202 2.095-.364 4.942 1.912 6.345l114.46 71.464z" fill="#fff"/><path d="M-68.588-22.203L50.031 41.86c3.994 2.151 5.666 6.599 3.746 9.944l-2.482 4.325-131.582-72.114 2.3-4.005c1.763-3.073 5.957-4.077 9.4-2.213z" fill="url(#paint1_radial)"/><path d="M41.31 44.249c-.626 1.093-.087 2.525 1.218 3.247 1.278.707 2.85.402 3.478-.691.627-1.093.088-2.525-1.217-3.248-1.305-.722-2.85-.401-3.478.692zm-8.149-4.456c-.614 1.07-.088 2.525 1.203 3.21 1.279.706 2.824.385 3.438-.685.614-1.07.088-2.525-1.203-3.21-1.278-.706-2.824-.385-3.438.685zm-8.081-4.387c-.615 1.07-.075 2.503 1.176 3.194 1.25.691 2.796.37 3.41-.7.615-1.07.075-2.502-1.176-3.194-1.251-.69-2.796-.37-3.41.7zm-50.638-7.546l62.205 34.625-1.75 3.05-62.154-34.716 1.699-2.959zM17.53 65.525l13.117 7.412 1.816-3.164-13.13-7.39-1.802 3.142zM-52.494 26L9.18 60.803l1.79-3.117-61.74-34.69L-52.494 26zM-6.66 58.884l12.767 7.272 1.79-3.118-12.781-7.25-1.777 3.096zm-3.047 5.308l12.754 7.294 1.79-3.118-12.768-7.271-1.776 3.095zM8.286 81.63l13.051 7.526 1.816-3.163-13.064-7.504-1.803 3.141zm-69.632-40.207L-.026 76.84l1.803-3.14-61.4-35.28-1.724 3.003zm54.228 67.042l12.934 7.731 1.815-3.164-12.946-7.708-1.803 3.141z" fill="#fff"/></g><g opacity=".6"><path d="M-63.896 3.526L54.757 67.62c3.995 2.153 5.669 6.603 3.748 9.95L3.247 173.863c-1.908 3.324-6.574 4.089-10.425 1.686l-114.395-71.578c-3.286-2.077-4.514-6.24-2.75-9.315l51.024-88.915c1.764-3.074 5.96-4.08 9.403-2.215z" fill="url(#paint2_radial)"/><path opacity=".74" d="M-6.08 173.637c2.612 1.627 5.77 1.116 7.078-1.161l55.193-96.18c1.306-2.276.172-5.294-2.532-6.762L-64.943 5.287c-2.327-1.25-5.217-.584-6.419 1.51l-51.09 89.03c-1.202 2.095-.364 4.942 1.911 6.345l114.46 71.465z" fill="#fff"/><path d="M-63.86 3.523L54.76 67.586c3.993 2.151 5.666 6.6 3.746 9.945l-2.482 4.324L-75.558 9.742l2.299-4.006c1.763-3.072 5.957-4.077 9.4-2.213z" fill="url(#paint3_radial)"/><path d="M46.04 69.975c-.628 1.093-.088 2.526 1.217 3.248 1.278.707 2.85.401 3.477-.692.627-1.093.088-2.525-1.217-3.247-1.305-.723-2.85-.402-3.478.691zm-8.15-4.455c-.614 1.07-.088 2.525 1.203 3.209 1.278.706 2.823.386 3.438-.685.614-1.07.087-2.525-1.204-3.209-1.278-.707-2.823-.386-3.437.684zm-8.082-4.387c-.614 1.07-.075 2.502 1.176 3.193 1.251.692 2.797.37 3.411-.7.614-1.07.075-2.502-1.176-3.193-1.252-.691-2.797-.37-3.411.7zm-50.638-7.546L41.376 88.21l-1.75 3.05-62.154-34.716 1.698-2.958zM22.26 91.25l13.116 7.413L37.19 95.5l-13.13-7.39-1.802 3.14zm-70.025-39.523L13.909 86.53l1.789-3.118-61.74-34.689-1.723 3.004zM-1.932 84.61l12.767 7.272 1.79-3.118-12.78-7.249-1.777 3.096zm-3.047 5.308l12.755 7.295 1.79-3.118-12.768-7.272-1.777 3.095zm17.993 17.438l13.052 7.527 1.815-3.164-13.064-7.503-1.803 3.14zM-56.618 67.15l61.32 35.416 1.803-3.14-61.399-35.28-1.724 3.003zm45.558 33.361l12.703 7.385 1.79-3.118-12.716-7.362-1.777 3.095zm-3.033 5.285l12.676 7.431 1.79-3.118-12.69-7.408-1.776 3.095zm11.703 28.395l12.934 7.731 1.816-3.163-12.947-7.709-1.802 3.141zm-9.231 16.083l12.855 7.868 1.816-3.164-12.869-7.845-1.802 3.141z" fill="#fff"/></g><g opacity=".7"><path d="M-56.465 38.73l118.653 64.095c3.995 2.152 5.668 6.602 3.748 9.949l-55.259 96.293c-1.907 3.325-6.573 4.089-10.424 1.686l-114.395-71.578c-3.286-2.077-4.515-6.241-2.751-9.315l51.025-88.915c1.764-3.074 5.959-4.08 9.403-2.215z" fill="#515AA5"/><path opacity=".74" d="M1.35 208.841c2.613 1.628 5.772 1.116 7.079-1.161l55.193-96.179c1.306-2.277.172-5.295-2.532-6.763l-118.6-64.246c-2.327-1.252-5.218-.585-6.42 1.51l-51.09 89.029c-1.202 2.095-.364 4.942 1.911 6.346L1.35 208.841z" fill="#fff"/><path d="M-56.428 38.727L62.19 102.79c3.994 2.152 5.667 6.599 3.747 9.945l-2.482 4.324-131.582-72.113 2.3-4.006c1.763-3.072 5.956-4.077 9.399-2.213z" fill="url(#paint4_radial)"/><path d="M53.47 105.179c-.627 1.093-.087 2.526 1.218 3.248 1.278.707 2.85.401 3.477-.692.628-1.093.088-2.525-1.217-3.247-1.305-.722-2.85-.402-3.477.691zm-8.15-4.455c-.613 1.07-.087 2.525 1.204 3.209 1.278.707 2.824.386 3.438-.684.614-1.071.088-2.526-1.204-3.21-1.278-.707-2.823-.386-3.437.685zm-8.081-4.387c-.614 1.07-.075 2.503 1.176 3.194 1.252.691 2.797.37 3.411-.7.614-1.07.075-2.502-1.176-3.194-1.251-.691-2.797-.37-3.411.7zm-50.638-7.547l62.206 34.625-1.75 3.05-62.154-34.716 1.698-2.958zm43.089 37.665l13.117 7.413 1.816-3.164-13.13-7.39-1.803 3.141zm-70.024-39.524l61.674 34.803 1.79-3.118-61.74-34.689-1.724 3.004zm45.833 32.884l12.768 7.272 1.789-3.119-12.78-7.249-1.777 3.096zm-3.047 5.308l12.755 7.294 1.79-3.118-12.768-7.272-1.777 3.096zm17.994 17.438l13.05 7.526 1.816-3.164-13.064-7.503-1.802 3.141zm-69.633-40.207l61.321 35.416 1.802-3.14-61.399-35.28-1.724 3.004zm45.559 33.361l12.702 7.386 1.79-3.118-12.716-7.363-1.776 3.095zM-6.662 141l12.676 7.431 1.79-3.118-12.69-7.408L-6.661 141zm-3.048 5.308l12.651 7.477 1.79-3.119-12.664-7.453-1.776 3.095z" fill="#fff"/></g><rect width="17.797" height="17.405" rx="8.702" transform="matrix(-1 0 0 1 186.797 48)" fill="url(#paint5_linear)"/><rect width="12.321" height="12.05" rx="6.025" transform="matrix(-1 0 0 1 95.321 18)" fill="url(#paint6_linear)"/><rect width="9" height="9" rx="4.5" transform="matrix(-1 0 0 1 79 41)" fill="url(#paint7_linear)"/><path d="M175.359 128.451l-18.931-10.291c-.042-.042-.084-.042-.126-.084a3.372 3.372 0 00-1.302-.711c-2.896-.711-3.442-.083-3.4.377 0 .209.126.376.294.502.21.167.63.544.798.878.294.502.42 1.046.42 1.046 0 .042.042.042.042.084l-.714 1.129a.328.328 0 01-.168.168c-6.716 5.564-21.324 8.827-32.531 10.584-3.904.627-9.025 1.506-14.23 2.259l-14.23-8.116-.167.084a1.47 1.47 0 00-1.302-.419c-1.007.126-4.7.67-10.787 2.97-4.24 1.59-8.731 5.104-8.815 8.451 0 .92.336 1.757 1.05 2.426.335.335.923.921 2.602 1.423.042 0 .084.041.126.041l18.175 9.873c.126.084.294.126.42.084l41.178-3.138c.042 0 .084 0 .126-.042l34.714-8.785a.768.768 0 00.419-.292l4.66-3.598c1.049 1.757 1.217-2.678 1.259-2.678l.713-3.221c.21-.293.084-.795-.293-1.004z" fill="url(#paint8_linear)"/><path d="M112.521 138.742l-21.45-12.383-.167.084a1.467 1.467 0 00-1.301-.418c-1.008.125-4.702.669-10.788 2.97-4.24 1.59-8.731 5.104-8.815 8.45a3.23 3.23 0 001.05 2.427c.335.334.923.92 2.602 1.422.042 0 .084.042.126.042l18.175 9.873c.126.083.294.125.42.083l9.948-10.207 10.2-2.343z" fill="url(#paint9_linear)"/><path d="M127.003 42.4l11.837-20.206-3.148-11.714L123.938 5l.63 2.134c.504 2.635.588 7.53-3.064 14.098-5.541 9.998-23.339 24.765-25.521 32.002-4.45 14.851 15.447 26.523 15.447 26.523l11.711 5.438-12.509-16.608 1.259-11.964 15.112-14.224z" fill="url(#paint10_linear)"/><path d="M147.696 41.228l16.077-11.797-9.319-3.933-.084-.167c-.042.042-4.449 2.217-9.444 5.271-6.758 4.1-11.334 7.698-13.642 10.71-4.24 5.563-5.373 10.75-3.4 15.855.629 1.631 1.511 2.844 2.56 4.267 1.133 1.547 2.435 3.346 3.736 6.107 2.309 4.937-2.267 11.002-2.309 11.044l-2.686 3.556 9.109 3.933 5.456-5.773 2.897-7.363-4.366-9.957-1.259-9.245 2.393-8.66 4.281-3.848z" fill="url(#paint11_linear)"/><path d="M183.124 95.11c0-.21-.042-.419-.084-.628-.336-2.05-1.301-3.556-2.812-4.518-3.484-2.175-9.193-.92-12.299 0-.252.084-.42.335-.336.586.084.25.294.418.546.418 2.014-.167 4.785 0 6.464 1.673 1.175 1.214 1.679 3.054 1.469 5.48-.42 4.435-8.479 12.049-11.921 15.145-.252.209-.294.585-.126.878a.613.613 0 00.546.293h.084l7.471 3.347 7.514-6.15 11.543-13.47-8.059-3.054z" fill="#515AA5"/><path d="M122.554 49.47c29.551-28.657 13.138-39.032 13.138-39.032s3.148 6.192-2.434 16.232c-5.583 9.998-23.339 24.765-25.521 32.003-4.45 14.85 15.447 26.522 15.447 26.522s-6.591-9.496-9.655-17.026c-2.015-4.978 2.183-12.048 9.025-18.7z" fill="url(#paint12_linear)"/><path d="M164.068 30.31l-.588-1.005c-.042.042-4.449 2.218-9.444 5.271-6.759 4.1-11.334 7.698-13.643 10.71-4.239 5.564-5.372 10.751-3.4 15.855.63 1.631 1.512 2.844 2.561 4.267 1.133 1.548 2.435 3.346 3.736 6.108 2.308 4.936-2.267 11.002-2.309 11.044l-2.686 3.555 3.526-2.719c.126-.083 2.812-2.175 5.373-5.229 3.483-4.183 4.911-7.948 4.197-11.17-.714-3.179-2.225-5.02-3.61-6.61-.629-.71-1.217-1.422-1.637-2.175-1.259-2.133-1.679-5.062-1.301-6.526 2.518-9.705 19.057-21.293 19.225-21.377z" fill="url(#paint13_linear)"/><path d="M138.881 116.068l-2.98-2.049s-7.765 3.179-14.523 4.518c-3.82.794-7.724 1.296-10.83 1.464l-4.366-2.97-.461-.251c-.084-.042-2.099-1.172-4.869.502-1.26.753-1.973 1.966-1.931 3.346.042 1.59 1.05 3.054 2.686 3.933l13.474 8.576 30.642-2.72 9.739-3.765-16.581-10.584z" fill="url(#paint14_linear)"/><path d="M148.788 123.766l-.126.042c-.042.041-5.541 2.259-12.299 3.597-7.766 1.59-15.825 2.05-16.958 1.004-.21-.167-.294-.376-.252-.585.084-.67 1.133-1.423 1.511-1.674l.42-.251-.462-.251c-.084-.042-2.099-1.171-4.869.502-1.259.753-1.973 1.966-1.931 3.347.042 1.59 1.049 3.054 2.686 3.932 1.805.963 3.694 1.967 8.815 1.967 1.763 0 3.946-.126 6.674-.419 13.475-1.38 23.171-7.948 23.297-7.99l.462-.293-6.968-2.928z" fill="url(#paint15_linear)"/><path d="M148.663 123.849l-11.082-7.028 3.946.879 14.271 9.036-7.135-2.887zm24.135 5.773l-21.24-11.88s-.252-.963 2.393-.586c1.847.251 2.77.92 2.77.92l20.82 11.546h-4.743z" fill="#515AA5"/><path d="M141.778 104.313c-4.785 2.008-17.462 6.317-31.482 4.267l-5.457-3.263c-.084-.042-1.972-1.255-4.785.418-1.301.753-2.015 2.009-1.973 3.473 0 .836.294 1.673.798 2.342.462.628 1.05 1.13 1.805 1.548.671.335 11.711 5.815 11.711 5.815l25.185-1.841 19.351-5.02c.042 0-14.691-7.948-15.153-7.739z" fill="url(#paint16_linear)"/><path d="M149.921 109.208l-.126.041c-.042.042-5.541 2.259-12.299 3.598-7.346 1.506-21.072 2.134-22.247 1.004-.21-.167-.294-.376-.252-.586.084-.669 1.134-1.422 1.511-1.673l.42-.251-.42-.251c-.084-.042-1.973-1.255-4.785.418-1.301.753-2.015 2.008-1.973 3.473.042 1.589 1.008 3.053 2.603 3.89 1.385.753 4.113 1.339 7.429 1.673 1.47.126 3.4.251 5.751.251 2.183 0 4.743-.125 7.556-.418 13.474-1.38 23.17-7.948 23.296-7.99l.462-.293-6.926-2.886z" fill="url(#paint17_linear)"/><path d="M149.795 109.249l-8.017-4.936 3.904.92 11.249 6.903-7.136-2.887z" fill="#515AA5"/><path d="M176.198 94.608l-8.437-3.724s-2.057-1.631 6.254-2.05c4.114-.209 6.213 1.172 6.213 1.172l8.101 3.64-12.131.962z" fill="url(#paint18_linear)"/><path d="M191.142 98.122c-.336-2.05-1.302-3.556-2.813-4.518-3.484-2.176-9.192-.92-12.299 0-.252.083-.419.334-.335.585.083.251.293.419.545.419 2.015-.168 4.785 0 6.464 1.673 1.176 1.213 1.679 3.054 1.47 5.48-.42 4.435-8.479 12.048-11.921 15.144-.252.209-.294.586-.126.879a.61.61 0 00.545.292c.084 0 .21-.041.294-.083 5.961-2.929 19.729-10.71 18.176-19.871z" fill="url(#paint19_linear)"/><path d="M151.6 90.006c-.965-.586-1.973.21-5.457 1.59-5.414 2.133-16.496 2.51-24.219 2.76l.167-1.84-8.898-6.484a.578.578 0 00-.168-.126l-.168-.125h-.042c-.252-.084-.504-.126-.756-.084-3.064.586-10.578 2.05-14.103 3.138-5.457 1.631-6.59 4.183-6.549 6.024 0 .795.336 1.464.84 2.008.294.293.671.544 1.091.795l8.647 6.358 30.055-1.338 24.975-3.975 3.61-3.597-9.025-5.104z" fill="url(#paint20_linear)"/><path d="M160.415 95.068c-1.763.586-1.301.753-4.281 1.673-1.973.586-3.61.962-4.785 1.339-12.635 3.849-32.448 2.803-32.657 2.803h-.126c-4.03.083-8.186-.377-9.235-1.088 1.091-.753 5.205-2.51 12.341-4.853.671-.209 1.091-.962.923-1.673-.168-.711-.881-1.13-1.595-1.004-3.064.586-10.578 2.05-14.104 3.138-5.456 1.631-6.59 4.183-6.548 6.024.042 2.97 4.072 3.932 8.563 4.35.63.042 1.302.126 1.931.126 2.603.167 6.464.209 11.753.125 21.953-.293 32.363-4.894 36.351-6.86.252-.126.462-.251.672-.335 1.133-2.636 1.343-3.932.797-3.765z" fill="url(#paint21_linear)"/><path d="M176.072 128.869c-3.862-.92-3.526.419-3.274.795 0 0 2.519 1.883.84 3.138-6.884 5.313-21.492 9.078-32.867 10.877-12.719 2.008-23.716 2.593-23.8 2.593h-.042c-4.911.419-9.361.293-12.089-.125-1.134-.168-1.427-1.674-.42-2.259 1.595-.921 4.03-2.092 7.22-3.263a1.61 1.61 0 001.007-1.925 1.695 1.695 0 00-1.805-1.255c-1.007.126-4.701.67-10.787 2.971-4.24 1.589-8.731 5.103-8.815 8.45 0 .92.336 1.757 1.05 2.426.67.67 2.434 2.385 11.71 2.385.756 0 1.595 0 2.435-.042 3.694-.084 9.151-.502 16.664-1.255 32.993-3.263 46.845-11.379 51.378-14.014 2.645-1.548 4.03-3.431 4.156-5.606.126-2.343-1.344-3.598-2.561-3.891z" fill="url(#paint22_linear)"/></g><defs><linearGradient id="paint5_linear" x1="9.583" y1="-9.372" x2="9.583" y2="26.107" gradientUnits="userSpaceOnUse"><stop stop-color="#06EDE1"/><stop offset="1" stop-color="#06EDE1" stop-opacity="0"/></linearGradient><linearGradient id="paint6_linear" x1="6.635" y1="-6.488" x2="6.635" y2="18.074" gradientUnits="userSpaceOnUse"><stop stop-color="#06EDE1"/><stop offset="1" stop-color="#06EDE1" stop-opacity="0"/></linearGradient><linearGradient id="paint7_linear" x1="4.846" y1="-4.846" x2="4.846" y2="13.5" gradientUnits="userSpaceOnUse"><stop stop-color="#06EDE1"/><stop offset="1" stop-color="#06EDE1" stop-opacity="0"/></linearGradient><linearGradient id="paint8_linear" x1="70.125" y1="134.173" x2="175.763" y2="134.173" gradientUnits="userSpaceOnUse"><stop stop-color="#03D9FE"/><stop offset="1" stop-color="#515AA5"/></linearGradient><linearGradient id="paint9_linear" x1="91.251" y1="125.997" x2="91.251" y2="151.321" gradientUnits="userSpaceOnUse"><stop stop-color="#03D9FE"/><stop offset="1" stop-color="#515AA5"/></linearGradient><linearGradient id="paint10_linear" x1="95.342" y1="45.107" x2="138.826" y2="45.107" gradientUnits="userSpaceOnUse"><stop stop-color="#941800"/><stop offset="1" stop-color="red"/></linearGradient><linearGradient id="paint11_linear" x1="126.921" y1="55.737" x2="163.779" y2="55.737" gradientUnits="userSpaceOnUse"><stop stop-color="#941800"/><stop offset="1" stop-color="red"/></linearGradient><linearGradient id="paint12_linear" x1="107.067" y1="47.833" x2="140.235" y2="47.833" gradientUnits="userSpaceOnUse"><stop stop-color="#FF772A"/><stop offset="1" stop-color="red"/></linearGradient><linearGradient id="paint13_linear" x1="136.021" y1="57.706" x2="164.074" y2="57.706" gradientUnits="userSpaceOnUse"><stop stop-color="#FF772A"/><stop offset="1" stop-color="red"/></linearGradient><linearGradient id="paint14_linear" x1="98.904" y1="123.608" x2="155.442" y2="123.608" gradientUnits="userSpaceOnUse"><stop stop-color="#03D9FE"/><stop offset=".999" stop-color="#515AA5"/></linearGradient><linearGradient id="paint15_linear" x1="113.911" y1="129.616" x2="155.787" y2="129.616" gradientUnits="userSpaceOnUse"><stop stop-color="#ABFFFF"/><stop offset="1" stop-color="#38B5F2"/></linearGradient><linearGradient id="paint16_linear" x1="98.093" y1="111.607" x2="156.981" y2="111.607" gradientUnits="userSpaceOnUse"><stop stop-color="#03D9FE"/><stop offset="1" stop-color="#515AA5"/></linearGradient><linearGradient id="paint17_linear" x1="109.824" y1="115.026" x2="156.924" y2="115.026" gradientUnits="userSpaceOnUse"><stop stop-color="#ABFFFF"/><stop offset="1" stop-color="#38B5F2"/></linearGradient><linearGradient id="paint18_linear" x1="167.551" y1="91.693" x2="188.327" y2="91.693" gradientUnits="userSpaceOnUse"><stop stop-color="#03D9FE"/><stop offset="1" stop-color="#515AA5"/></linearGradient><linearGradient id="paint19_linear" x1="171.98" y1="105.229" x2="191.274" y2="105.229" gradientUnits="userSpaceOnUse"><stop stop-color="#ABFFFF"/><stop offset="1" stop-color="#38B5F2"/></linearGradient><linearGradient id="paint20_linear" x1="91.482" y1="93.453" x2="160.164" y2="99.779" gradientUnits="userSpaceOnUse"><stop stop-color="#03D9FE"/><stop offset="1" stop-color="#515AA5"/></linearGradient><linearGradient id="paint21_linear" x1="100.683" y1="97.316" x2="160.024" y2="102.782" gradientUnits="userSpaceOnUse"><stop stop-color="#ABFFFF"/><stop offset="1" stop-color="#38B5F2"/></linearGradient><linearGradient id="paint22_linear" x1="91.252" y1="141.113" x2="178.658" y2="141.113" gradientUnits="userSpaceOnUse"><stop stop-color="#ABFFFF"/><stop offset="1" stop-color="#38B5F2"/></linearGradient><radialGradient id="paint0_radial" cx="0" cy="0" r="1" gradientUnits="userSpaceOnUse" gradientTransform="matrix(75.0733 0 0 38.8992 125.959 135.971)"><stop stop-color="#35A6FA"/><stop offset="1" stop-color="#515AA5" stop-opacity="0"/></radialGradient><radialGradient id="paint1_radial" cx="0" cy="0" r="1" gradientUnits="userSpaceOnUse" gradientTransform="rotate(119.854 -7.556 2.653) scale(22.553 225.741)"><stop stop-color="#986BD1"/><stop offset=".383" stop-color="#515AA5"/><stop offset="1" stop-color="#33425A"/></radialGradient><radialGradient id="paint2_radial" cx="0" cy="0" r="1" gradientUnits="userSpaceOnUse" gradientTransform="matrix(-93.2066 162.41909 -195.85905 -112.39663 -12.869 51.19)"><stop stop-color="#986BD1"/><stop offset=".383" stop-color="#515AA5"/><stop offset="1" stop-color="#33425A"/></radialGradient><radialGradient id="paint3_radial" cx="0" cy="0" r="1" gradientUnits="userSpaceOnUse" gradientTransform="rotate(119.854 -12.64 16.885) scale(22.553 225.741)"><stop stop-color="#986BD1"/><stop offset=".383" stop-color="#515AA5"/><stop offset="1" stop-color="#33425A"/></radialGradient><radialGradient id="paint4_radial" cx="0" cy="0" r="1" gradientUnits="userSpaceOnUse" gradientTransform="rotate(119.854 -19.117 36.639) scale(22.553 225.741)"><stop stop-color="#986BD1"/><stop offset=".383" stop-color="#515AA5"/><stop offset="1" stop-color="#33425A"/></radialGradient><clipPath id="clip0"><path fill="#fff" d="M0 0h211v179H0z"/></clipPath></defs></svg>