<svg width="336" height="251" fill="none" xmlns="http://www.w3.org/2000/svg"><g clip-path="url(#clip0)"><path d="M95 146.912l59.195 26.408 26.046 4.393a77.58 77.58 0 0038.176-3.152l.859-.295a11.623 11.623 0 007.775-12.184l-36.048-11.801L142.622 119 95 146.912z" fill="url(#paint0_linear)"/><rect width="4" height="4" rx="2" transform="matrix(-1 0 0 1 190 176)" fill="url(#paint1_linear)"/><path d="M167.219 165.936a9.992 9.992 0 007.135-7.159l6.497-24.247 42.35 4.134 3.635 25.904c.502 3.634-2.646 7.043-6.107 8.161l-18.196 5.839a23.09 23.09 0 01-10.471.866l-37.328-5.52a2.348 2.348 0 01-1.985-2.181c-.051-1.124-.759-2.409.317-2.676l14.153-3.121z" fill="url(#paint2_linear)"/><path d="M166.869 164.1a10.017 10.017 0 007.13-7.068l6.447-23.947 41.326 4.041 3.655 25.601a7.411 7.411 0 01-5.104 8.103l-18.161 5.75a23.43 23.43 0 01-10.469.836l-37.3-5.488c-1.08-.157-1.903-1.056-1.984-2.182a2.366 2.366 0 011.721-2.376l12.739-3.27z" fill="url(#paint3_linear)"/><path d="M299.309 160.157c4.267.517 7.909-2.039 8.135-5.706l8.165-131.957c.227-3.666-3.097-6.71-7.363-6.777l-199.218 1.44c-3.143-.054-4.665-2.704-4.859.43l-6.944 112.227c-.192 3.106 2.189 5.95 5.311 6.34l196.773 24.003z" fill="#B7C0CE"/><path d="M297.518 160.046c4.266.517 7.908-2.039 8.135-5.705l8.164-131.958c.255-3.664-3.068-6.707-7.361-6.804l-198.032-3.656c-3.143-.054-5.852 2.419-6.046 5.553l-6.944 112.227c-.192 3.106 2.188 5.951 5.311 6.341l196.773 24.002z" fill="url(#paint4_linear)"/><path d="M102.952 123.987l193.299 21.568c2.037.239 3.771-1.002 3.88-2.766l7.359-118.943c.11-1.763-1.457-3.237-3.505-3.28l-194.339-4.775c-1.514-.038-2.826 1.173-2.919 2.685l-6.341 102.487c-.094 1.511 1.058 2.875 2.566 3.024z" fill="url(#paint5_radial)"/><path opacity=".33" d="M254.846 30.14l44.355 1.453.261-4.226-44.363-1.313-.253 4.087z" fill="#fff"/><path opacity=".36" d="M234.031 28.29l10.262.327.178-2.883-10.264-.298-.176 2.855zm-.246 3.975l10.26.354.179-2.883-10.263-.326-.176 2.855z" fill="#fff"/><path opacity=".6" d="M182.735 30.51l39.751 1.393.176-2.855-39.758-1.28-.169 2.743zm-6.769 3.6l39.352 1.48.175-2.828-39.357-1.395-.17 2.742zm-.236 3.806l39.345 1.591.175-2.826-39.35-1.508-.17 2.743z" fill="#fff"/><path opacity=".36" d="M233.537 36.267l10.259.382.178-2.883-10.259-.382-.178 2.883zm-.246 3.974l10.257.41.179-2.883-10.257-.41-.179 2.883z" fill="#fff"/><path opacity=".6" d="M149.052 45.688l27.953 1.191.175-2.468-27.956-1.143-.172 2.42zm-7.83 2.736l35.538 1.601.175-2.468-35.542-1.553-.171 2.42zm-.236 3.324l35.53 1.699.175-2.469-35.536-1.625-.169 2.395zm62.93-24.393l27.955.886.177-2.854-27.958-.831-.174 2.799zm-63.268 68.021l39.611 3.196.174-2.469-39.614-3.146-.171 2.42zm0 21.049l39.611 3.195.174-2.469-39.614-3.146-.171 2.42zm-6.743-18.248l39.211 3.271.175-2.468-39.217-3.199-.169 2.395zm0 21.048l39.211 3.272.175-2.469-39.217-3.198-.169 2.395zm-.236-17.724l39.205 3.369.175-2.468-39.21-3.296-.17 2.395zm-17.127 1.847l38.194 3.364.171-2.42-38.198-3.315-.167 2.371zm-.233 3.275l38.185 3.486.174-2.444-38.191-3.413-.168 2.371zm-.234 3.528l38.18 3.559.172-2.419-38.184-3.511-.168 2.371zm45.681-16.481l27.856 2.168.176-2.492-27.859-2.12-.173 2.445zm0 21.049l27.856 2.168.176-2.493-27.859-2.119-.173 2.444zm-18.5-56.151l39.689 2.096.175-2.469-39.694-2.022-.17 2.395zm-6.757 2.996l39.29 2.172.175-2.468-39.295-2.099-.17 2.395zm-.237 3.324l39.283 2.27.175-2.468-39.288-2.197-.17 2.395zm-.234 3.324l39.276 2.368.173-2.444-39.28-2.32-.169 2.396zm29.831 5.218l25.143 1.605.178-2.518-25.148-1.53-.173 2.444zm-12.043 2.638l27.909 1.827.174-2.469-27.911-1.778-.172 2.42zm-14.722 2.394l35.48 2.407.175-2.468-35.485-2.335-.17 2.396zm-.237 3.348l35.474 2.506.175-2.469-35.477-2.457-.172 2.42zm-8.117 2.751l35.049 2.556.173-2.444-35.052-2.507-.17 2.395zm-.237 3.324l35.042 2.654.175-2.469-35.047-2.58-.17 2.395zm33.902-31.609l27.91 1.41.176-2.493-27.913-1.36-.173 2.443z" fill="#fff"/><path opacity=".33" d="M254.45 36.55l25.396.925.258-4.17-25.4-.87-.254 4.115zm31.955 1.162l-4.766-.155.259-4.198 4.765.183-.258 4.17zm-32.319 4.715l25.389 1.037.258-4.17-25.394-.953-.253 4.086zm31.947 1.302l-4.765-.182.258-4.17 4.765.182-.258 4.17zm-32.311 4.575l25.382 1.149.258-4.17-25.387-1.065-.253 4.086zm31.938 1.442l-4.763-.21.258-4.17 4.763.21-.258 4.17zM251.139 90.06l44.238 3.327.26-4.198-44.245-3.215-.253 4.086zm-.396 6.409l25.328 2.017.258-4.17-25.332-1.961-.254 4.114zm31.87 2.534l-4.753-.378.258-4.17 4.753.378-.258 4.17zm-32.234 3.343l25.321 2.129.258-4.17-25.325-2.073-.254 4.114zm31.861 2.674l-4.75-.406.258-4.17 4.75.406-.258 4.17zm-32.225 3.203l25.315 2.241.258-4.17-25.32-2.157-.253 4.086zm31.853 2.814l-4.751-.406.258-4.17 4.751.406-.258 4.17zm-28.513-56.8l44.31 2.18.259-4.198-44.314-2.096-.255 4.114zm-.394 6.381l25.368 1.373.258-4.17-25.373-1.289-.253 4.086zm31.92 1.722l-4.761-.238.258-4.17 4.761.238-.258 4.17zm-32.284 4.155l25.361 1.485.258-4.17-25.366-1.4-.253 4.085zm31.912 1.863l-4.759-.267.258-4.17 4.759.266-.258 4.17zm-32.645 9.976l25.348 1.709.258-4.17-25.353-1.625-.253 4.086zm31.895 2.141l-4.756-.322.258-4.17 4.756.322-.258 4.17zm-32.26 3.764l25.342 1.792.258-4.17-25.346-1.736-.254 4.114zm31.887 2.254l-4.756-.322.258-4.17 4.756.322-.258 4.17zM252.232 72.4l25.356 1.57.258-4.17-25.36-1.514-.254 4.114zm31.904 1.975l-4.757-.295.258-4.17 4.757.295-.258 4.17zm-34.485 39.726l44.191 4.11.261-4.226-44.199-3.97-.253 4.086zm-.396 6.409l25.302 2.436.256-4.142-25.304-2.408-.254 4.114zm31.835 3.093l-4.747-.462.258-4.17 4.749.434-.26 4.198zm-32.199 2.784l25.296 2.548.256-4.142-25.299-2.492-.253 4.086zm31.828 3.233l-4.746-.49.258-4.17 4.747.462-.259 4.198zm-32.192 2.644l25.289 2.66.256-4.142-25.292-2.604-.253 4.086zm31.819 3.374l-4.744-.519.258-4.17 4.746.491-.26 4.198z" fill="#fff"/><path d="M224.852 159.302l-1.038-8.817-46.508-5.593-1.729 6.803 49.275 7.607z" fill="url(#paint6_linear)"/><ellipse cx="161.312" cy="214.718" rx="10.964" ry="2.727" transform="rotate(33.797 161.312 214.718)" fill="url(#paint7_linear)"/><ellipse cx="162.608" cy="196.366" rx="10.199" ry="2.727" transform="rotate(31.248 162.608 196.366)" fill="url(#paint8_linear)"/><rect x="164" y="213" width="9" height="8" rx="4" fill="url(#paint9_radial)"/><rect x="166" y="196" width="7" height="6" rx="3" fill="url(#paint10_radial)"/><ellipse cx="86.629" cy="223.156" rx="85.455" ry="39.755" transform="rotate(-10.068 86.629 223.156)" fill="url(#paint11_radial)"/><path d="M-25 186.166L41.364 221 116 199.412 54.524 169-25 186.166z" fill="url(#paint12_linear)"/><path d="M128.628 205.404l-17.343-8.855c-.038-.037-.076-.036-.115-.073a3.044 3.044 0 00-1.192-.612c-2.633-.573-3.11.008-3.061.423.005.19.123.338.277.447.194.147.582.477.742.776.277.447.404.936.404.936.001.038.039.037.04.075l-.617 1.039a.297.297 0 01-.148.156c-5.929 5.197-19.04 8.502-29.117 10.363-3.51.662-8.112 1.581-12.793 2.388l-13.045-7-.15.08a1.326 1.326 0 00-1.185-.347c-.907.138-4.229.719-9.669 2.949-3.79 1.54-7.76 4.829-7.754 7.859a2.924 2.924 0 001.006 2.17c.311.295.856.811 2.384 1.224.038-.001.077.036.115.035l16.65 8.494c.116.073.269.107.381.066l37.105-3.834c.038-.001.076-.002.113-.041l31.131-8.789a.69.69 0 00.372-.275l4.12-3.368c.99 1.565 1.035-2.452 1.072-2.453l.567-2.932c.182-.27.056-.721-.29-.901z" fill="url(#paint13_linear)"/><path d="M72.14 216.235l-19.668-10.687-.15.08a1.324 1.324 0 00-1.185-.347c-.906.138-4.228.719-9.668 2.948-3.79 1.541-7.76 4.83-7.755 7.86a2.923 2.923 0 001.007 2.17c.31.295.856.811 2.384 1.224.038-.001.077.036.114.035l16.65 8.494c.117.073.27.107.382.066l8.735-9.477 9.153-2.366z" fill="url(#paint14_linear)"/><path d="M82.88 128.707l10.2-18.57-3.127-10.523-10.745-4.675.62 1.916c.52 2.372.713 6.799-2.425 12.83-4.76 9.181-20.473 22.974-22.269 29.576-3.657 13.545 14.59 23.626 14.59 23.626l10.707 4.638-11.697-14.726.847-10.857 13.3-13.235z" fill="url(#paint15_linear)"/><path d="M101.538 127.147l14.231-11.064-8.509-3.333-.08-.149c-.037.039-3.964 2.114-8.4 4.998-6.003 3.873-10.047 7.239-12.059 10.02-3.693 5.137-4.59 9.858-2.686 14.429.608 1.461 1.434 2.537 2.416 3.799 1.06 1.373 2.279 2.97 3.52 5.437 2.205 4.411-1.78 10.01-1.816 10.049l-2.34 3.282 8.32 3.338 4.787-5.355 2.437-6.733-4.183-8.903-1.36-8.336 1.95-7.893 3.772-3.586z" fill="url(#paint16_linear)"/><path d="M134.832 175.046c-.005-.189-.048-.377-.091-.566-.353-1.846-1.261-3.186-2.649-4.02-3.198-1.884-8.322-.61-11.105.297-.225.082-.371.313-.289.539.082.225.276.371.503.365 1.815-.2 4.321-.116 5.877 1.358 1.091 1.069 1.59 2.723 1.46 4.923-.272 4.023-7.365 11.107-10.397 13.991-.223.196-.252.538-.093.798.119.187.31.257.5.252l.076-.002 6.827 2.848 6.636-5.746 10.096-12.468-7.351-2.569z" fill="#515AA5"/><path d="M79.035 135.211c25.988-26.644 10.918-35.635 10.918-35.635s2.992 5.526-1.805 14.746c-4.799 9.182-20.473 22.974-22.269 29.575-3.658 13.546 14.59 23.627 14.59 23.627s-6.18-8.434-9.13-15.174c-1.94-4.456 1.68-10.954 7.696-17.139z" fill="url(#paint17_linear)"/><path d="M116.055 116.871l-.555-.894c-.036.039-3.963 2.114-8.4 4.998-6.002 3.873-10.046 7.239-12.058 10.02-3.693 5.137-4.59 9.858-2.686 14.429.608 1.461 1.433 2.537 2.415 3.799 1.061 1.373 2.28 2.97 3.522 5.437 2.204 4.411-1.78 10.01-1.818 10.049l-2.339 3.282 3.118-2.545c.111-.079 2.486-2.037 4.724-4.862 3.045-3.87 4.242-7.311 3.52-10.209-.721-2.859-2.13-4.488-3.42-5.893-.585-.629-1.133-1.258-1.53-1.929-1.19-1.9-1.64-4.54-1.334-5.874 2.039-8.843 16.692-19.728 16.841-19.808z" fill="url(#paint18_linear)"/><path d="M95.392 195.081l-2.74-1.783s-6.936 3.064-13.005 4.439c-3.43.812-6.943 1.36-9.743 1.587l-4.014-2.582-.423-.216c-.077-.036-1.923-1.01-4.384.572-1.119.711-1.734 1.826-1.663 3.075.077 1.437 1.022 2.738 2.521 3.493l12.374 7.434 27.602-3.201 8.702-3.642-15.227-9.176z" fill="url(#paint19_linear)"/><path d="M104.523 201.806l-.113.041c-.037.039-4.948 2.178-11.018 3.553-6.973 1.626-14.239 2.237-15.287 1.318-.194-.146-.275-.333-.242-.523.06-.608.989-1.315 1.324-1.551l.373-.237-.423-.216c-.077-.036-1.924-1.01-4.385.572-1.118.711-1.733 1.826-1.662 3.075.076 1.437 1.022 2.738 2.521 3.493 1.653.827 3.383 1.69 8.007 1.566 1.592-.043 3.56-.209 6.016-.54 12.133-1.575 20.729-7.752 20.842-7.793l.409-.276-6.362-2.482z" fill="url(#paint20_linear)"/><path d="M104.411 201.885l-10.176-6.092 3.584.7 13.106 7.831-6.514-2.439zm21.934 4.64l-19.466-10.237s-.251-.864 2.146-.587c1.674.182 2.524.765 2.524.765l19.079 9.945-4.283.114z" fill="#515AA5"/><path d="M97.722 184.374c-4.272 1.932-15.613 6.138-28.322 4.622l-5.006-2.821c-.077-.036-1.812-1.088-4.31.494-1.158.713-1.772 1.866-1.698 3.19.02.757.306 1.507.777 2.1.432.557.975.997 1.667 1.357.614.287 10.715 4.979 10.715 4.979l22.696-2.274 17.351-5.011c.038-.001-13.458-6.837-13.87-6.636z" fill="url(#paint21_linear)"/><path d="M105.193 188.606l-.112.041c-.037.038-4.949 2.178-11.018 3.552-6.596 1.541-18.975 2.44-20.064 1.447-.193-.147-.274-.334-.241-.524.06-.608.989-1.315 1.324-1.551l.373-.237-.385-.217c-.077-.036-1.812-1.088-4.31.494-1.158.713-1.772 1.866-1.698 3.189.076 1.438.983 2.739 2.444 3.458 1.269.648 3.747 1.112 6.749 1.335a59.97 59.97 0 005.199.088c1.97-.053 4.28-.228 6.812-.561 12.132-1.575 20.728-7.753 20.841-7.794l.41-.276-6.324-2.444z" fill="url(#paint22_linear)"/><path d="M105.081 188.647l-7.359-4.273 3.547.738 10.325 5.974-6.513-2.439z" fill="#515AA5"/><path d="M128.567 174.759l-7.709-3.165s-1.896-1.426 5.598-2.006c3.709-.288 5.638.91 5.638.91l7.403 3.097-10.93 1.164z" fill="url(#paint23_linear)"/><path d="M142.144 177.578c-.353-1.847-1.261-3.186-2.649-4.02-3.198-1.885-8.323-.611-11.105.297-.225.082-.371.313-.289.538.082.225.275.371.503.365 1.815-.2 4.321-.115 5.877 1.358 1.091 1.07 1.59 2.723 1.459 4.924-.271 4.022-7.364 11.107-10.397 13.991-.222.195-.251.537-.092.798.119.186.31.257.5.252a.7.7 0 00.263-.083c5.311-2.794 17.554-10.168 15.93-18.42z" fill="url(#paint24_linear)"/><path d="M106.244 171.19c-.885-.507-1.776.237-4.888 1.57-4.838 2.062-14.834 2.67-21.802 3.084l.107-1.669-8.192-5.653a.523.523 0 00-.155-.109l-.155-.11-.038.001a1.42 1.42 0 00-.684-.057c-2.752.604-9.501 2.11-12.658 3.18-4.888 1.608-5.85 3.945-5.767 5.609.02.719.339 1.317.807 1.797.272.258.62.476 1.004.693l7.962 5.544 27.105-1.937 22.454-4.2 3.173-3.343-8.273-4.4z" fill="url(#paint25_linear)"/><path d="M114.327 175.557c-1.578.573-1.157.713-3.826 1.618-1.767.578-3.236.958-4.288 1.327-11.315 3.788-29.23 3.321-29.419 3.326l-.114.003c-3.636.173-7.4-.143-8.364-.761.967-.708 4.639-2.397 11.025-4.69.602-.205.962-.897.793-1.536-.168-.64-.823-1.001-1.464-.87-2.753.604-9.502 2.11-12.659 3.18-4.887 1.608-5.849 3.945-5.766 5.609.11 2.687 3.771 3.46 7.837 3.73.57.023 1.178.082 1.746.067 2.354.088 5.842.033 10.615-.171 19.816-.795 29.104-5.211 32.657-7.086.224-.12.41-.239.598-.319.959-2.413 1.118-3.591.629-3.427z" fill="url(#paint26_linear)"/><path d="M129.282 205.765c-3.509-.74-3.173.464-2.937.798 0 0 2.32 1.643.834 2.819-6.087 4.974-19.185 8.734-29.413 10.637-11.435 2.124-21.35 2.92-21.427 2.922l-.038.001c-4.424.497-8.444.491-10.918.178-1.027-.124-1.33-1.479-.434-2.034 1.418-.871 3.588-1.99 6.44-3.127a1.456 1.456 0 00.863-1.765 1.53 1.53 0 00-1.66-1.092c-.907.138-4.229.719-9.669 2.948-3.79 1.541-7.76 4.829-7.754 7.86a2.927 2.927 0 001.006 2.17c.623.589 2.256 2.099 10.632 1.874.683-.018 1.44-.038 2.197-.096 3.334-.165 8.25-.676 15.017-1.539 29.711-3.75 42.022-11.428 46.051-13.923 2.351-1.464 3.556-3.201 3.617-5.173.057-2.122-1.3-3.223-2.407-3.458z" fill="url(#paint27_linear)"/></g><defs><linearGradient id="paint0_linear" x1="168.046" y1="158.335" x2="122.985" y2="139.563" gradientUnits="userSpaceOnUse"><stop stop-color="#2B384E"/><stop offset=".927" stop-color="#2B384E" stop-opacity="0"/></linearGradient><linearGradient id="paint1_linear" x1="2.154" y1="-2.154" x2="2.154" y2="6" gradientUnits="userSpaceOnUse"><stop stop-color="#06EDE1"/><stop offset="1" stop-color="#06EDE1" stop-opacity="0"/></linearGradient><linearGradient id="paint2_linear" x1="222.43" y1="176.591" x2="223.642" y2="149.738" gradientUnits="userSpaceOnUse"><stop stop-color="#fff"/><stop offset="1" stop-color="#B7B6B6"/></linearGradient><linearGradient id="paint3_linear" x1="190.362" y1="144.396" x2="188.897" y2="168.066" gradientUnits="userSpaceOnUse"><stop stop-color="#fff"/><stop offset="1" stop-color="#787E88"/></linearGradient><linearGradient id="paint4_linear" x1="309.754" y1="88.298" x2="98.803" y2="75.246" gradientUnits="userSpaceOnUse"><stop stop-color="#fff"/><stop offset="1" stop-color="#B7B6B6"/></linearGradient><linearGradient id="paint6_linear" x1="202.03" y1="156.881" x2="203.172" y2="145.809" gradientUnits="userSpaceOnUse"><stop stop-color="#CFCECE" stop-opacity="0"/><stop offset="1" stop-color="#59606B"/></linearGradient><linearGradient id="paint7_linear" x1="150.694" y1="217.445" x2="170.774" y2="217.324" gradientUnits="userSpaceOnUse"><stop stop-color="#2B384E" stop-opacity="0"/><stop offset=".499" stop-color="#2B384E"/></linearGradient><linearGradient id="paint8_linear" x1="152.729" y1="199.093" x2="171.41" y2="198.988" gradientUnits="userSpaceOnUse"><stop stop-color="#2B384E" stop-opacity="0"/><stop offset=".499" stop-color="#2B384E"/></linearGradient><linearGradient id="paint12_linear" x1="59.224" y1="208.422" x2="22.698" y2="179.287" gradientUnits="userSpaceOnUse"><stop stop-color="#2B384E"/><stop offset="1" stop-color="#2B384E" stop-opacity="0"/></linearGradient><linearGradient id="paint13_linear" x1="33.748" y1="213.124" x2="129.132" y2="210.571" gradientUnits="userSpaceOnUse"><stop stop-color="#03D9FE"/><stop offset="1" stop-color="#515AA5"/></linearGradient><linearGradient id="paint14_linear" x1="52.626" y1="205.216" x2="53.239" y2="228.131" gradientUnits="userSpaceOnUse"><stop stop-color="#03D9FE"/><stop offset="1" stop-color="#515AA5"/></linearGradient><linearGradient id="paint15_linear" x1="54.359" y1="131.922" x2="93.622" y2="130.871" gradientUnits="userSpaceOnUse"><stop stop-color="#941800"/><stop offset="1" stop-color="red"/></linearGradient><linearGradient id="paint16_linear" x1="83.132" y1="140.778" x2="116.412" y2="139.887" gradientUnits="userSpaceOnUse"><stop stop-color="#941800"/><stop offset="1" stop-color="red"/></linearGradient><linearGradient id="paint17_linear" x1="65.012" y1="134.105" x2="94.961" y2="133.304" gradientUnits="userSpaceOnUse"><stop stop-color="#FF772A"/><stop offset="1" stop-color="red"/></linearGradient><linearGradient id="paint18_linear" x1="91.395" y1="142.339" x2="116.725" y2="141.661" gradientUnits="userSpaceOnUse"><stop stop-color="#FF772A"/><stop offset="1" stop-color="red"/></linearGradient><linearGradient id="paint19_linear" x1="59.478" y1="202.869" x2="110.528" y2="201.502" gradientUnits="userSpaceOnUse"><stop stop-color="#03D9FE"/><stop offset=".999" stop-color="#515AA5"/></linearGradient><linearGradient id="paint20_linear" x1="73.173" y1="207.943" x2="110.984" y2="206.931" gradientUnits="userSpaceOnUse"><stop stop-color="#ABFFFF"/><stop offset="1" stop-color="#38B5F2"/></linearGradient><linearGradient id="paint21_linear" x1="58.455" y1="192.03" x2="111.626" y2="190.606" gradientUnits="userSpaceOnUse"><stop stop-color="#03D9FE"/><stop offset="1" stop-color="#515AA5"/></linearGradient><linearGradient id="paint22_linear" x1="69.129" y1="194.84" x2="111.657" y2="193.701" gradientUnits="userSpaceOnUse"><stop stop-color="#ABFFFF"/><stop offset="1" stop-color="#38B5F2"/></linearGradient><linearGradient id="paint23_linear" x1="120.688" y1="172.331" x2="139.447" y2="171.829" gradientUnits="userSpaceOnUse"><stop stop-color="#03D9FE"/><stop offset="1" stop-color="#515AA5"/></linearGradient><linearGradient id="paint24_linear" x1="125.015" y1="184.472" x2="142.436" y2="184.006" gradientUnits="userSpaceOnUse"><stop stop-color="#ABFFFF"/><stop offset="1" stop-color="#38B5F2"/></linearGradient><linearGradient id="paint25_linear" x1="52.045" y1="175.763" x2="114.215" y2="179.802" gradientUnits="userSpaceOnUse"><stop stop-color="#03D9FE"/><stop offset="1" stop-color="#515AA5"/></linearGradient><linearGradient id="paint26_linear" x1="60.447" y1="179.036" x2="114.162" y2="182.526" gradientUnits="userSpaceOnUse"><stop stop-color="#ABFFFF"/><stop offset="1" stop-color="#38B5F2"/></linearGradient><linearGradient id="paint27_linear" x1="52.992" y1="218.894" x2="131.914" y2="216.781" gradientUnits="userSpaceOnUse"><stop stop-color="#ABFFFF"/><stop offset="1" stop-color="#38B5F2"/></linearGradient><radialGradient id="paint5_radial" cx="0" cy="0" r="1" gradientUnits="userSpaceOnUse" gradientTransform="matrix(-11.63938 188.09322 -301.4474 -18.65384 206.3 34.237)"><stop stop-color="#986BD1"/><stop offset=".383" stop-color="#515AA5"/><stop offset="1" stop-color="#33425A"/></radialGradient><radialGradient id="paint9_radial" cx="0" cy="0" r="1" gradientUnits="userSpaceOnUse" gradientTransform="matrix(-4.9091 -1.99997 1.8774 -4.60825 169.932 217.364)"><stop stop-color="#B1FFFB"/><stop offset="1" stop-color="#33B0B3"/></radialGradient><radialGradient id="paint10_radial" cx="0" cy="0" r="1" gradientUnits="userSpaceOnUse" gradientTransform="matrix(-3.13156 -2.00002 1.98127 -3.1022 170.42 199)"><stop stop-color="#B1FFFB"/><stop offset="1" stop-color="#33B0B3"/></radialGradient><radialGradient id="paint11_radial" cx="0" cy="0" r="1" gradientUnits="userSpaceOnUse" gradientTransform="matrix(85.5388 0 0 29.7393 86.582 223.134)"><stop stop-color="#35A6FA"/><stop offset="1" stop-color="#33425A" stop-opacity="0"/></radialGradient><clipPath id="clip0"><path fill="#fff" d="M0 0h336v251H0z"/></clipPath></defs></svg>