<svg width="366" height="208" fill="none" xmlns="http://www.w3.org/2000/svg"><g clip-path="url(#clip0)"><path opacity=".2" d="M155.555 120.276L37.5 208h-36L0 0h155.555v120.276z" fill="url(#paint0_linear)"/><ellipse cx="211.978" cy="174.558" rx="132.978" ry="63.558" fill="url(#paint1_radial)"/><g opacity=".7"><path opacity=".74" d="M63.72 174.608c3.075.147 5.583-1.841 5.612-4.466l1.253-110.884c.03-2.625-2.433-4.706-5.51-4.668l-134.873 1.785c-2.642.043-4.84 2.035-4.866 4.45l-1.16 102.641c-.027 2.415 2.094 4.492 4.765 4.606l134.78 6.536z" fill="#fff"/><path d="M-69.713 54.306l134.798-1.953c4.536-.07 8.167 2.996 8.123 6.853l-.057 4.985-150.042 1.251.053-4.618c.04-3.542 3.21-6.465 7.125-6.518z" fill="url(#paint2_radial)"/><path d="M58.64 58.693c-.015 1.26 1.155 2.247 2.647 2.24 1.46-.006 2.684-1.04 2.698-2.3.014-1.26-1.156-2.247-2.647-2.24-1.492.006-2.684 1.04-2.698 2.3zm-9.288.087c-.014 1.233 1.155 2.247 2.616 2.214 1.46-.007 2.653-1.041 2.667-2.275.014-1.234-1.156-2.247-2.616-2.214-1.46.007-2.653 1.04-2.667 2.274zm-9.195.114c-.014 1.233 1.156 2.22 2.585 2.214 1.43-.008 2.622-1.042 2.636-2.276.014-1.233-1.156-2.22-2.585-2.214-1.43.008-2.622 1.042-2.636 2.276zM-7.727 77.013l71.193-.127-.04 3.516-71.191.022.038-3.411zm55.989 11.854l15.066.07.042-3.647-15.067-.044-.04 3.62zm-80.408-.336l70.816.289.04-3.594-70.816-.158-.04 3.463zm56.052 6.342l14.693.118.04-3.594-14.692-.092-.04 3.568zm-78.418-.597l69.073.527.04-3.541-69.074-.397-.039 3.41zm78.348 6.717l14.693.144.04-3.595-14.693-.118-.04 3.569zm-78.415-.86l69.07.763.041-3.568-69.072-.606-.039 3.411zm102.629 7.303l15.065.202.041-3.648-15.064-.175-.041 3.621zm-80.399-1.123l70.807.996.041-3.62-70.808-.839-.04 3.463zm56.046 6.893l14.691.249.04-3.595-14.69-.223-.041 3.569zm-78.409-1.359l69.065 1.183.04-3.541-69.066-1.052-.04 3.41zm78.339 7.452l14.69.302.041-3.595-14.69-.275-.04 3.568zm-78.407-1.569l69.064 1.394.04-3.568-69.064-1.262-.04 3.436zm78.337 7.689l14.69.354.041-3.595-14.69-.328-.04 3.569zm-78.403-1.832l69.06 1.604.041-3.542-69.062-1.498-.04 3.436zM-.39 130.88l14.286.401.04-3.569-14.286-.349-.04 3.517zm48.087 7.495l15.062.439.041-3.648-15.062-.412-.04 3.621zm-80.385-2.409l70.795 2.125.041-3.62-70.796-1.968-.04 3.463zm56.036 7.786l14.688.485.041-3.595-14.689-.459-.04 3.569zm-78.395-2.593l69.053 2.285.041-3.568-69.055-2.154-.04 3.437zm78.325 8.686l14.689.538.04-3.595-14.688-.512-.04 3.569zm-78.392-2.829l69.051 2.495.04-3.541-69.052-2.391-.04 3.437zm102.599 9.902l15.06.596.042-3.648-15.06-.569-.042 3.621zm-80.376-3.171l70.788 2.808.041-3.621-70.79-2.65-.039 3.463zm56.03 8.337l14.687.617.04-3.595-14.687-.617-.04 3.595zm-78.388-3.354l69.047 2.942.04-3.542-69.047-2.837-.04 3.437z" fill="#fff"/></g><g opacity=".6"><path d="M-53.064 74.476L81.78 72.533c4.538-.07 8.17 2.998 8.126 6.857l-1.254 111.015c-.043 3.832-3.743 6.776-8.277 6.557l-134.778-6.667c-3.881-.21-6.985-3.245-6.945-6.789l1.157-102.51c.04-3.543 3.212-6.467 7.127-6.52z" fill="url(#paint3_radial)"/><path opacity=".74" d="M80.4 194.758c3.074.146 5.583-1.842 5.612-4.467l1.252-110.883c.03-2.625-2.432-4.706-5.509-4.669l-134.873 1.785c-2.642.044-4.84 2.036-4.867 4.45l-1.159 102.641c-.027 2.416 2.093 4.492 4.764 4.607l134.78 6.536z" fill="#fff"/><path d="M-53.033 74.455l134.798-1.953c4.536-.07 8.166 2.996 8.123 6.853l-.057 4.986-150.042 1.25.053-4.617c.04-3.543 3.21-6.466 7.125-6.519z" fill="url(#paint4_radial)"/><path d="M75.32 78.842c-.015 1.26 1.155 2.247 2.646 2.241 1.46-.006 2.684-1.04 2.698-2.3.015-1.26-1.155-2.247-2.647-2.241-1.491.006-2.683 1.04-2.698 2.3zm-9.289.087c-.013 1.234 1.156 2.247 2.617 2.214 1.46-.007 2.653-1.04 2.666-2.275.014-1.233-1.155-2.247-2.616-2.214-1.46.007-2.653 1.041-2.666 2.275zm-9.194.114c-.014 1.234 1.155 2.22 2.585 2.214 1.43-.007 2.622-1.041 2.636-2.275.014-1.234-1.156-2.221-2.586-2.214-1.429.007-2.621 1.041-2.635 2.275zM8.953 97.162l71.193-.126-.04 3.516-71.192.021.04-3.41zm55.989 11.854l15.066.071.041-3.648-15.066-.044-.04 3.621zm-80.408-.336l70.816.289.04-3.594-70.816-.157-.04 3.462zm56.052 6.343l14.693.118.04-3.595-14.693-.092-.04 3.569zm-78.418-.598l69.073.528.04-3.542-69.074-.397-.039 3.411zm78.348 6.717l14.692.145.04-3.595-14.692-.118-.04 3.568zm-78.415-.86l69.07.764.041-3.568-69.072-.606-.039 3.41zm102.629 7.303l15.065.202.04-3.647-15.064-.176-.04 3.621zm-80.4-1.123l70.808.997.04-3.621-70.808-.839-.04 3.463zm56.047 6.893l14.69.25.041-3.595-14.691-.223-.04 3.568zm-78.409-1.359l69.065 1.184.04-3.542-69.067-1.052-.038 3.41zm78.339 7.453l14.69.302.041-3.595-14.69-.276-.041 3.569zM-38.1 137.88l69.064 1.393.04-3.568-69.065-1.262-.039 3.437zm78.337 7.688l14.69.355.04-3.595-14.69-.328-.04 3.568zm-78.404-1.831l69.061 1.603.04-3.542-69.061-1.498-.04 3.437zm54.457 7.292l14.286.401.04-3.568-14.286-.349-.04 3.516zm-65.236-1.735l56.11 1.509.041-3.515-56.112-1.405-.039 3.411zm113.323 9.231l15.062.438.041-3.648-15.062-.411-.041 3.621zm-80.385-2.41l70.795 2.125.04-3.62-70.796-1.968-.04 3.463zm56.036 7.786l14.688.486.04-3.595-14.688-.46-.04 3.569zm-78.396-2.593l69.054 2.286.04-3.568-69.055-2.155-.039 3.437zm78.326 8.686l14.688.538.04-3.595-14.688-.511-.04 3.568zm-78.393-2.829l69.052 2.496.04-3.542-69.052-2.391-.04 3.437zm102.6 9.903l15.06.595.041-3.647-15.06-.57-.04 3.622zm-80.376-3.171l70.787 2.807.042-3.62-70.79-2.65-.04 3.463zm56.029 8.337l14.687.617.041-3.595-14.687-.617-.04 3.595zm-78.387-3.355l69.047 2.942.04-3.542-69.048-2.837-.039 3.437z" fill="#fff"/></g><g opacity=".7"><path d="M-29.401 101.581l134.844-1.944c4.537-.07 8.169 2.998 8.126 6.857l-1.254 111.015c-.043 3.832-3.743 6.776-8.277 6.557l-134.778-6.667c-3.882-.21-6.986-3.245-6.946-6.788l1.158-102.51c.04-3.544 3.211-6.468 7.127-6.52z" fill="#515AA5"/><path opacity=".74" d="M104.062 221.862c3.075.146 5.583-1.842 5.613-4.467l1.252-110.883c.03-2.625-2.433-4.706-5.509-4.669l-134.874 1.786c-2.641.043-4.839 2.035-4.866 4.45l-1.16 102.641c-.026 2.415 2.094 4.491 4.765 4.606l134.779 6.536z" fill="#fff"/><path d="M-29.37 101.56l134.798-1.954c4.536-.07 8.166 2.996 8.122 6.853l-.057 4.986-150.041 1.251.052-4.618c.04-3.542 3.21-6.466 7.125-6.518z" fill="url(#paint5_radial)"/><path d="M98.982 105.946c-.014 1.261 1.155 2.248 2.647 2.241 1.46-.006 2.684-1.04 2.698-2.3.014-1.26-1.155-2.247-2.647-2.241-1.491.006-2.684 1.04-2.698 2.3zm-9.288.087c-.014 1.234 1.156 2.247 2.616 2.214 1.46-.006 2.653-1.04 2.667-2.274.014-1.234-1.155-2.247-2.616-2.215-1.46.007-2.653 1.041-2.667 2.275zm-9.194.114c-.015 1.234 1.155 2.221 2.584 2.214 1.43-.007 2.622-1.041 2.636-2.275.014-1.234-1.156-2.221-2.585-2.214-1.43.007-2.622 1.041-2.636 2.275zm-47.884 18.12l71.192-.127-.04 3.516-71.191.021.039-3.41zm55.989 11.853l15.066.071.041-3.648-15.066-.044-.041 3.621zm-80.408-.335l70.815.288.041-3.594-70.817-.157-.04 3.463zm56.051 6.342l14.693.118.04-3.595-14.692-.092-.04 3.569zm-78.418-.598l69.074.528.04-3.542-69.075-.396-.038 3.41zm78.348 6.718l14.693.144.04-3.595-14.692-.118-.04 3.569zm-78.414-.861l69.07.764.04-3.568-69.071-.606-.04 3.41zm102.629 7.303l15.064.202.041-3.647-15.064-.176-.041 3.621zm-80.399-1.123l70.806.997.041-3.62-70.808-.84-.04 3.463zm56.046 6.894l14.69.249.041-3.595-14.691-.223-.04 3.569zm-78.41-1.359l69.066 1.183.04-3.542-69.067-1.052-.039 3.411zm78.34 7.452l14.69.302.04-3.595-14.69-.276-.04 3.569zm-78.407-1.569l69.063 1.393.04-3.568-69.064-1.262-.04 3.437zm78.337 7.689l14.69.354.04-3.595-14.69-.328-.04 3.569zm-78.404-1.832l69.061 1.603.04-3.541-69.062-1.499-.039 3.437zm54.457 7.292l14.285.402.04-3.569-14.285-.349-.04 3.516zm-65.236-1.735l56.11 1.51.04-3.516-56.111-1.405-.039 3.411zm113.323 9.231l15.061.438.042-3.647-15.062-.412-.041 3.621zM7.654 183.22l70.795 2.125.041-3.621-70.796-1.967-.04 3.463zm56.036 7.785l14.689.486.04-3.595-14.688-.459-.04 3.568zm-78.395-2.593l69.054 2.286.04-3.568-69.055-2.155-.04 3.437zm78.325 8.687l14.689.538.04-3.595-14.688-.512-.04 3.569zm-78.392-2.83l69.052 2.496.04-3.542-69.053-2.391-.039 3.437zm102.6 9.903l15.06.595.041-3.647-15.06-.569-.041 3.621zm-80.377-3.171l70.788 2.807.041-3.62-70.79-2.65-.039 3.463zm56.029 8.337l14.688.617.04-3.595-14.686-.617-.041 3.595zm-78.386-3.355l69.047 2.942.04-3.541-69.048-2.837-.04 3.436z" fill="#fff"/></g><path opacity=".3" d="M291.294 114.513v37.488" stroke="#06EDE1"/><rect width="17.797" height="17.405" rx="8.702" transform="matrix(-1 0 0 1 275.797 68.17)" fill="url(#paint6_linear)"/><rect width="17.797" height="17.405" rx="8.702" transform="matrix(-1 0 0 1 341.014 27.496)" fill="url(#paint7_linear)"/><rect width="12.321" height="12.05" rx="6.025" transform="matrix(-1 0 0 1 287.844 163.704)" fill="url(#paint8_linear)"/><rect width="8.214" height="8.033" rx="4.016" transform="matrix(-1 0 0 1 313.524 124.278)" fill="url(#paint9_linear)"/><rect x="139.797" y="77.405" width="17.797" height="17.405" rx="8.702" transform="rotate(-180 139.797 77.405)" fill="url(#paint10_linear)"/><rect x="146.321" y="41.049" width="12.321" height="12.05" rx="6.025" transform="rotate(-180 146.321 41.05)" fill="url(#paint11_linear)"/><rect x="177.524" y="59.722" width="8.214" height="8.033" rx="4.016" transform="rotate(-180 177.524 59.722)" fill="url(#paint12_linear)"/><path d="M249.978 160.126l-23.175-12.598c-.052-.051-.103-.051-.154-.102a4.122 4.122 0 00-1.593-.871c-3.546-.87-4.214-.102-4.163.461 0 .256.154.461.36.615.257.205.771.666.976 1.075.36.615.514 1.281.514 1.281 0 .051.052.051.052.102l-.874 1.383a.404.404 0 01-.206.205c-8.221 6.811-26.103 10.805-39.823 12.956-4.779.768-11.048 1.844-17.42 2.766l-17.42-9.936-.205.103a1.796 1.796 0 00-1.593-.512c-1.233.153-5.755.819-13.206 3.636-5.19 1.946-10.688 6.248-10.791 10.345 0 1.126.411 2.151 1.284 2.97.412.41 1.131 1.127 3.186 1.741.052 0 .103.051.155.051l22.249 12.086c.155.103.36.154.514.103l50.409-3.841c.052 0 .103 0 .155-.051l42.495-10.755a.94.94 0 00.514-.358l5.704-4.405c1.285 2.151 1.49-3.277 1.542-3.277l.873-3.943c.257-.359.103-.973-.359-1.23z" fill="url(#paint13_linear)"/><path d="M173.054 172.724l-26.258-15.158-.206.102a1.795 1.795 0 00-1.593-.512c-1.233.153-5.755.819-13.206 3.636-5.19 1.946-10.688 6.248-10.791 10.345a3.95 3.95 0 001.285 2.97c.411.41 1.13 1.127 3.186 1.741.051 0 .102.051.154.051l22.25 12.086c.154.103.359.154.513.103l12.179-12.496 12.487-2.868z" fill="url(#paint14_linear)"/><path d="M190.781 54.783l14.491-24.735-3.854-14.34L187.03 9l.771 2.612c.616 3.226.719 9.218-3.751 17.258-6.783 12.24-28.571 30.318-31.243 39.177-5.447 18.18 18.91 32.469 18.91 32.469l14.337 6.657-15.313-20.33 1.541-14.648 18.499-17.412z" fill="url(#paint15_linear)"/><path d="M216.114 53.35l19.681-14.442-11.408-4.814-.103-.205c-.051.051-5.447 2.714-11.562 6.453-8.273 5.018-13.874 9.423-16.7 13.11-5.19 6.811-6.577 13.161-4.162 19.41.771 1.997 1.85 3.482 3.134 5.223 1.388 1.895 2.981 4.097 4.574 7.477 2.826 6.043-2.775 13.469-2.826 13.52l-3.289 4.353 11.151 4.814 6.68-7.068 3.545-9.013-5.344-12.188-1.541-11.318 2.929-10.601 5.241-4.712z" fill="url(#paint16_linear)"/><path d="M259.484 119.31c0-.256-.052-.512-.103-.768-.411-2.509-1.593-4.353-3.443-5.531-4.265-2.663-11.253-1.126-15.056 0-.308.103-.514.41-.411.717.103.308.36.512.668.512 2.467-.204 5.858 0 7.913 2.049 1.439 1.485 2.056 3.738 1.799 6.709-.514 5.428-10.38 14.749-14.594 18.538-.308.256-.359.717-.154 1.076.154.256.411.358.668.358h.103l9.147 4.097 9.198-7.528 14.131-16.49-9.866-3.739z" fill="#515AA5"/><path d="M185.335 63.438c36.175-35.08 16.084-47.78 16.084-47.78s3.854 7.579-2.981 19.87c-6.834 12.24-28.57 30.317-31.242 39.177-5.447 18.18 18.91 32.468 18.91 32.468s-8.068-11.625-11.819-20.843c-2.466-6.094 2.672-14.75 11.048-22.892z" fill="url(#paint17_linear)"/><path d="M236.155 39.983l-.719-1.229c-.051.051-5.447 2.714-11.562 6.453-8.273 5.018-13.874 9.423-16.7 13.11-5.19 6.811-6.577 13.161-4.162 19.41.771 1.997 1.85 3.482 3.134 5.223 1.388 1.895 2.981 4.097 4.574 7.477 2.826 6.043-2.775 13.469-2.827 13.52l-3.288 4.353 4.316-3.329c.154-.102 3.443-2.663 6.577-6.401 4.265-5.122 6.013-9.73 5.139-13.674-.874-3.892-2.723-6.145-4.419-8.091-.771-.871-1.49-1.742-2.004-2.664-1.542-2.611-2.056-6.196-1.593-7.989 3.083-11.88 23.329-26.066 23.534-26.169z" fill="url(#paint18_linear)"/><path d="M205.323 144.968l-3.648-2.51s-9.506 3.892-17.779 5.531c-4.676.973-9.455 1.588-13.258 1.793l-5.344-3.637-.565-.307c-.103-.051-2.569-1.434-5.961.615-1.541.922-2.415 2.407-2.364 4.097.052 1.946 1.285 3.738 3.289 4.814l16.495 10.498 37.511-3.329 11.922-4.609-20.298-12.956z" fill="url(#paint19_linear)"/><path d="M217.45 154.391l-.154.051c-.051.051-6.783 2.765-15.056 4.404-9.506 1.946-19.372 2.509-20.76 1.229-.256-.205-.359-.461-.308-.717.103-.819 1.388-1.741 1.85-2.048l.514-.308-.565-.307c-.103-.051-2.57-1.434-5.961.615-1.542.921-2.415 2.407-2.364 4.097.052 1.946 1.285 3.738 3.289 4.814 2.209 1.177 4.522 2.407 10.791 2.407 2.158 0 4.83-.154 8.17-.513 16.495-1.69 28.365-9.73 28.519-9.781l.565-.359-8.53-3.584z" fill="url(#paint20_linear)"/><path d="M217.297 154.493l-13.566-8.604 4.83 1.076 17.471 11.062-8.735-3.534zm29.546 7.067l-26.001-14.544s-.308-1.178 2.929-.717c2.261.307 3.391 1.127 3.391 1.127l25.488 14.134h-5.807z" fill="#515AA5"/><path d="M208.869 130.577c-5.858 2.458-21.376 7.733-38.539 5.224l-6.68-3.995c-.103-.051-2.415-1.536-5.858.512-1.593.922-2.467 2.458-2.415 4.251a4.83 4.83 0 00.976 2.868c.565.768 1.285 1.382 2.21 1.894.822.41 14.336 7.119 14.336 7.119l30.831-2.253 23.689-6.146c.052 0-17.985-9.73-18.55-9.474z" fill="url(#paint21_linear)"/><path d="M218.838 136.569l-.154.051c-.052.051-6.783 2.765-15.056 4.404-8.993 1.844-25.796 2.612-27.235 1.229-.257-.205-.359-.461-.308-.717.103-.819 1.387-1.741 1.85-2.048l.514-.308-.514-.307c-.103-.051-2.415-1.536-5.858.512-1.593.922-2.467 2.458-2.415 4.251.051 1.946 1.233 3.738 3.186 4.763 1.695.921 5.035 1.638 9.095 2.048 1.798.154 4.162.307 7.04.307 2.672 0 5.806-.153 9.249-.512 16.495-1.69 28.365-9.73 28.519-9.781l.565-.359-8.478-3.533z" fill="url(#paint22_linear)"/><path d="M218.684 136.62l-9.815-6.043 4.779 1.127 13.771 8.45-8.735-3.534z" fill="#515AA5"/><path d="M251.006 118.696l-10.329-4.558s-2.518-1.997 7.657-2.509c5.036-.256 7.605 1.434 7.605 1.434l9.917 4.455-14.85 1.178z" fill="url(#paint23_linear)"/><path d="M269.298 122.998c-.411-2.51-1.593-4.353-3.442-5.531-4.265-2.663-11.254-1.127-15.056 0-.309.102-.514.409-.411.717.102.307.359.512.668.512 2.466-.205 5.858 0 7.913 2.048 1.439 1.485 2.055 3.739 1.798 6.709-.513 5.429-10.379 14.749-14.593 18.539-.308.256-.36.717-.154 1.075.154.256.411.359.668.359a.952.952 0 00.359-.103c7.297-3.585 24.152-13.11 22.25-24.325z" fill="url(#paint24_linear)"/><path d="M220.893 113.063c-1.182-.717-2.415.256-6.68 1.946-6.629 2.612-20.194 3.072-29.649 3.38l.205-2.254-10.893-7.937a.7.7 0 00-.206-.154l-.206-.154h-.051c-.308-.102-.617-.153-.925-.102-3.751.717-12.949 2.509-17.265 3.841-6.681 1.997-8.068 5.121-8.017 7.374 0 .973.412 1.793 1.028 2.458.36.359.822.666 1.336.973l10.586 7.785 36.792-1.639 30.574-4.865 4.419-4.404-11.048-6.248z" fill="url(#paint25_linear)"/><path d="M231.684 119.259c-2.158.717-1.593.922-5.241 2.049-2.415.717-4.419 1.178-5.858 1.639-15.467 4.711-39.721 3.431-39.978 3.431h-.154c-4.933.102-10.02-.461-11.305-1.332 1.336-.922 6.372-3.073 15.108-5.94.822-.256 1.336-1.178 1.13-2.049-.205-.87-1.079-1.383-1.953-1.229-3.751.717-12.949 2.509-17.265 3.841-6.68 1.997-8.068 5.121-8.016 7.374.051 3.637 4.984 4.814 10.482 5.327.771.051 1.593.153 2.364.153 3.186.205 7.913.256 14.388.154 26.875-.359 39.618-5.992 44.5-8.399.308-.154.565-.307.822-.41 1.388-3.226 1.644-4.814.976-4.609z" fill="url(#paint26_linear)"/><path d="M250.852 160.638c-4.728-1.126-4.317.512-4.009.973 0 0 3.084 2.305 1.028 3.841-8.427 6.504-26.309 11.113-40.235 13.315-15.569 2.459-29.032 3.176-29.135 3.176h-.052c-6.012.512-11.459.358-14.799-.154-1.387-.205-1.747-2.049-.513-2.766 1.952-1.126 4.933-2.56 8.838-3.994a1.97 1.97 0 001.233-2.356 2.072 2.072 0 00-2.21-1.536c-1.233.153-5.755.819-13.206 3.636-5.19 1.946-10.688 6.248-10.791 10.345 0 1.126.412 2.151 1.285 2.97.822.819 2.98 2.919 14.337 2.919.925 0 1.952 0 2.98-.051 4.522-.103 11.202-.615 20.4-1.537 40.389-3.994 57.346-13.929 62.896-17.156 3.237-1.894 4.933-4.199 5.087-6.862.154-2.868-1.644-4.404-3.134-4.763z" fill="url(#paint27_linear)"/></g><defs><linearGradient id="paint0_linear" x1="122.5" y1="92.5" x2="79.689" y2="4.796" gradientUnits="userSpaceOnUse"><stop stop-color="#00D0CD"/><stop offset="1" stop-color="#515AA5" stop-opacity="0"/></linearGradient><linearGradient id="paint6_linear" x1="9.583" y1="-9.372" x2="9.583" y2="26.107" gradientUnits="userSpaceOnUse"><stop stop-color="#06EDE1"/><stop offset="1" stop-color="#06EDE1" stop-opacity="0"/></linearGradient><linearGradient id="paint7_linear" x1="9.583" y1="-9.372" x2="9.583" y2="26.107" gradientUnits="userSpaceOnUse"><stop stop-color="#06EDE1"/><stop offset="1" stop-color="#06EDE1" stop-opacity="0"/></linearGradient><linearGradient id="paint8_linear" x1="6.635" y1="-6.488" x2="6.635" y2="18.074" gradientUnits="userSpaceOnUse"><stop stop-color="#06EDE1"/><stop offset="1" stop-color="#06EDE1" stop-opacity="0"/></linearGradient><linearGradient id="paint9_linear" x1="4.423" y1="-4.325" x2="4.423" y2="12.05" gradientUnits="userSpaceOnUse"><stop stop-color="#06EDE1"/><stop offset="1" stop-color="#06EDE1" stop-opacity="0"/></linearGradient><linearGradient id="paint10_linear" x1="149.381" y1="68.033" x2="149.381" y2="103.512" gradientUnits="userSpaceOnUse"><stop stop-color="#06EDE1"/><stop offset="1" stop-color="#06EDE1" stop-opacity="0"/></linearGradient><linearGradient id="paint11_linear" x1="152.956" y1="34.561" x2="152.956" y2="59.124" gradientUnits="userSpaceOnUse"><stop stop-color="#06EDE1"/><stop offset="1" stop-color="#06EDE1" stop-opacity="0"/></linearGradient><linearGradient id="paint12_linear" x1="181.947" y1="55.396" x2="181.947" y2="71.771" gradientUnits="userSpaceOnUse"><stop stop-color="#06EDE1"/><stop offset="1" stop-color="#06EDE1" stop-opacity="0"/></linearGradient><linearGradient id="paint13_linear" x1="121.153" y1="167.13" x2="250.472" y2="167.13" gradientUnits="userSpaceOnUse"><stop stop-color="#03D9FE"/><stop offset="1" stop-color="#515AA5"/></linearGradient><linearGradient id="paint14_linear" x1="147.016" y1="157.121" x2="147.016" y2="188.123" gradientUnits="userSpaceOnUse"><stop stop-color="#03D9FE"/><stop offset="1" stop-color="#515AA5"/></linearGradient><linearGradient id="paint15_linear" x1="152.023" y1="58.098" x2="205.255" y2="58.098" gradientUnits="userSpaceOnUse"><stop stop-color="#941800"/><stop offset="1" stop-color="red"/></linearGradient><linearGradient id="paint16_linear" x1="190.682" y1="71.111" x2="235.802" y2="71.111" gradientUnits="userSpaceOnUse"><stop stop-color="#941800"/><stop offset="1" stop-color="red"/></linearGradient><linearGradient id="paint17_linear" x1="166.376" y1="61.436" x2="206.98" y2="61.436" gradientUnits="userSpaceOnUse"><stop stop-color="#FF772A"/><stop offset="1" stop-color="red"/></linearGradient><linearGradient id="paint18_linear" x1="201.821" y1="73.521" x2="236.163" y2="73.521" gradientUnits="userSpaceOnUse"><stop stop-color="#FF772A"/><stop offset="1" stop-color="red"/></linearGradient><linearGradient id="paint19_linear" x1="156.384" y1="154.197" x2="225.597" y2="154.197" gradientUnits="userSpaceOnUse"><stop stop-color="#03D9FE"/><stop offset=".999" stop-color="#515AA5"/></linearGradient><linearGradient id="paint20_linear" x1="174.755" y1="161.553" x2="226.019" y2="161.553" gradientUnits="userSpaceOnUse"><stop stop-color="#ABFFFF"/><stop offset="1" stop-color="#38B5F2"/></linearGradient><linearGradient id="paint21_linear" x1="155.391" y1="139.506" x2="227.48" y2="139.506" gradientUnits="userSpaceOnUse"><stop stop-color="#03D9FE"/><stop offset="1" stop-color="#515AA5"/></linearGradient><linearGradient id="paint22_linear" x1="169.752" y1="143.691" x2="227.41" y2="143.691" gradientUnits="userSpaceOnUse"><stop stop-color="#ABFFFF"/><stop offset="1" stop-color="#38B5F2"/></linearGradient><linearGradient id="paint23_linear" x1="240.42" y1="115.128" x2="265.853" y2="115.128" gradientUnits="userSpaceOnUse"><stop stop-color="#03D9FE"/><stop offset="1" stop-color="#515AA5"/></linearGradient><linearGradient id="paint24_linear" x1="245.842" y1="131.698" x2="269.46" y2="131.698" gradientUnits="userSpaceOnUse"><stop stop-color="#ABFFFF"/><stop offset="1" stop-color="#38B5F2"/></linearGradient><linearGradient id="paint25_linear" x1="147.298" y1="117.283" x2="231.377" y2="125.027" gradientUnits="userSpaceOnUse"><stop stop-color="#03D9FE"/><stop offset="1" stop-color="#515AA5"/></linearGradient><linearGradient id="paint26_linear" x1="158.561" y1="122.011" x2="231.206" y2="128.702" gradientUnits="userSpaceOnUse"><stop stop-color="#ABFFFF"/><stop offset="1" stop-color="#38B5F2"/></linearGradient><linearGradient id="paint27_linear" x1="147.016" y1="175.627" x2="254.018" y2="175.627" gradientUnits="userSpaceOnUse"><stop stop-color="#ABFFFF"/><stop offset="1" stop-color="#38B5F2"/></linearGradient><radialGradient id="paint1_radial" cx="0" cy="0" r="1" gradientUnits="userSpaceOnUse" gradientTransform="matrix(133.108 0 0 47.5453 211.905 174.523)"><stop stop-color="#35A6FA"/><stop offset="1" stop-color="#515AA5" stop-opacity="0"/></radialGradient><radialGradient id="paint2_radial" cx="0" cy="0" r="1" gradientUnits="userSpaceOnUse" gradientTransform="rotate(90.652 -27.474 26.044) scale(22.553 225.741)"><stop stop-color="#986BD1"/><stop offset=".383" stop-color="#515AA5"/><stop offset="1" stop-color="#33425A"/></radialGradient><radialGradient id="paint3_radial" cx="0" cy="0" r="1" gradientUnits="userSpaceOnUse" gradientTransform="rotate(90.647 -37.714 52.877) scale(187.263 225.818)"><stop stop-color="#986BD1"/><stop offset=".383" stop-color="#515AA5"/><stop offset="1" stop-color="#33425A"/></radialGradient><radialGradient id="paint4_radial" cx="0" cy="0" r="1" gradientUnits="userSpaceOnUse" gradientTransform="rotate(90.652 -29.095 44.364) scale(22.553 225.741)"><stop stop-color="#986BD1"/><stop offset=".383" stop-color="#515AA5"/><stop offset="1" stop-color="#33425A"/></radialGradient><radialGradient id="paint5_radial" cx="0" cy="0" r="1" gradientUnits="userSpaceOnUse" gradientTransform="rotate(90.652 -30.663 69.614) scale(22.553 225.741)"><stop stop-color="#986BD1"/><stop offset=".383" stop-color="#515AA5"/><stop offset="1" stop-color="#33425A"/></radialGradient><clipPath id="clip0"><path fill="#fff" d="M0 0h366v208H0z"/></clipPath></defs></svg>