<svg width="366" height="208" fill="none" xmlns="http://www.w3.org/2000/svg"><g clip-path="url(#clip0)"><ellipse rx="205.5" ry="205" transform="matrix(-1 0 0 1 171.5 106)" fill="url(#paint0_radial)"/><path d="M221.412 178.049l-.066.066-.529.529s-.067 0-.067.066c-.264.264-.595.462-.926.727-.067.066-.067.066-.133.066-.331.264-.728.529-1.059.793 0 0-.066 0-.066.066-.397.264-.795.529-1.258.793-.397.265-.861.529-1.258.727-.066.066-.132.066-.198.066-.662.397-1.324.727-1.986 1.124h-.067c-.331.198-.728.397-1.059.595-.794.396-1.522.793-2.317 1.19l-.794.396c-.066.066-.133.066-.199.132-.265.133-.596.265-.86.463-.067 0-.133.066-.133.066-.265.132-.596.331-.86.463L80.01 255.91c-7.613 4.164-12.313 7.006-16.087 8.13a9.85 9.85 0 01-1.787.397l-.265 7.535c.596-.067 1.192-.265 1.787-.397 3.84-1.124 8.54-3.966 16.087-8.13l127.501-69.467c.331-.198.595-.331.993-.529 1.39-.727 2.912-1.52 4.501-2.313.133-.066.331-.132.53-.265.198-.066.397-.198.596-.33.198-.132.463-.265.662-.331.132-.066.198-.132.331-.198.264-.132.529-.264.794-.463.066 0 .132-.066.132-.066h.067c.397-.198.794-.462 1.191-.727 0 0 .066-.066.133-.066.397-.264.794-.529 1.191-.727.066 0 .066-.066.133-.066.331-.264.728-.463 1.059-.727.066 0 .066-.066.132-.066.331-.198.662-.529.927-.727l.066-.066s0-.066.066-.066c.199-.133.331-.331.53-.463l.132-.132.398-.397.066-.066s0-.066.066-.066l.132-.132c.067-.066.133-.132.133-.199.066-.066.066-.132.132-.198 0-.066.066-.132.066-.132v-.066c.133-.198.199-.331.265-.529v-.066c.066-.132.066-.198.133-.33v-.133c0-.132 0-.198.066-.264v-.198c.265-5.09-1.324-4.958-1.457-4.825z" fill="url(#paint1_linear)"/><path d="M61.14 264.635c-.198 0-.397 0-.662.066h-1.125c-.199-.066-.397-.066-.53-.066-.198-.066-.397-.066-.595-.132l-.795-.198c-.33-.066-.728-.265-1.059-.397-.728-.33-1.456-.661-2.185-1.19l-91.421-55.983c-2.251-1.388-3.575-2.314-3.575-3.437l-.199 7.535c-.066 1.123 1.324 2.049 3.575 3.437l91.422 55.983c.794.463 1.522.86 2.25 1.19.398.132.729.264 1.06.397.265.066.53.132.728.198.199.066.397.066.596.132.198.066.397.066.596.066.198 0 .33 0 .53.066h1.19c.264 0 .596-.066.86-.132l.265-7.535c-.397-.066-.662-.066-.927 0z" fill="url(#paint2_linear)"/><path d="M221.611 176.133l-.066.066c-.199.132-.331.33-.53.529l-.066.066c-.265.198-.596.462-.927.727-.066 0-.066.066-.132.066a10.22 10.22 0 01-1.059.727s-.067 0-.067.066c-.397.264-.794.529-1.257.793-.398.265-.861.529-1.258.727-.066 0-.133.066-.199.132-.662.397-1.324.728-1.986 1.058 0 0-.066 0-.066.066a7.92 7.92 0 01-1.059.529c-.795.396-1.523.793-2.317 1.19l-.795.396c-.066.066-.132.066-.198.132-.265.133-.596.331-.861.463-.066 0-.132.066-.132.066-.265.132-.596.331-.861.463L80.208 253.928c-7.613 4.164-12.313 7.006-16.086 8.13a9.85 9.85 0 01-1.788.397l-.198 7.601a8.695 8.695 0 001.787-.397c3.84-1.124 8.54-4.032 16.087-8.13l127.434-69.533c.331-.198.596-.331.927-.529 1.39-.727 2.913-1.52 4.502-2.313.132-.066.331-.199.463-.265.199-.132.397-.198.596-.33.198-.132.463-.265.662-.331.132-.066.198-.132.331-.198.265-.132.529-.264.794-.463.066-.066.133-.066.133-.066l.066-.066c.397-.264.794-.462 1.191-.727 0 0 .067-.066.133-.066.397-.264.794-.529 1.191-.727.067-.066.067-.066.133-.066.331-.264.728-.463 1.059-.727.066 0 .066-.066.132-.066.331-.265.596-.529.927-.727 0 0 .066 0 .066-.066 0 0 0-.066.066-.066.199-.133.331-.331.53-.463 0-.066.066-.066.132-.132l.398-.397.066-.066c0-.066 0-.066.066-.066.066-.066.066-.132.132-.132.067-.066.067-.132.133-.199.066-.066.066-.132.132-.132 0-.066.066-.066.066-.132v-.066c.133-.198.199-.331.265-.529v-.066c.066-.132.066-.198.133-.33v-.595c.463-5.09-1.126-4.891-1.258-4.759z" fill="url(#paint3_linear)"/><path d="M61.339 262.652h-1.722c-.198 0-.396-.066-.529-.066-.198 0-.397-.066-.596-.132-.264-.066-.53-.132-.728-.199-.33-.066-.728-.264-1.125-.396a17.811 17.811 0 01-2.185-1.19l-91.422-55.983c-2.25-1.388-3.574-2.314-3.574-3.437-.066 2.511-.133 5.023-.199 7.601-.066 1.123 1.324 2.049 3.575 3.437l91.422 55.983c.794.463 1.522.859 2.25 1.19.398.132.729.264 1.06.397l.794.198c.199.066.397.066.596.132.198.066.397.066.53.066.198 0 .33.066.529.066h.596c.198 0 .397 0 .662-.066.265 0 .596-.066.86-.132l.199-7.601c-.463.066-.728.132-.993.132z" fill="url(#paint4_linear)"/><path d="M220.551 174.744c8.01 4.891-5.561 10.443-12.976 14.475L80.009 258.753c-14.498 7.931-18.47 11.17-25.752 6.675l-91.422-55.983c-6.421-3.9-5.362-4.429 13.041-14.475l127.501-69.6c14.895-8.063 18.47-11.104 25.752-6.675l91.422 56.049z" fill="url(#paint5_linear)" stroke="#C397F2" stroke-width="1.061" stroke-miterlimit="10"/><path d="M131.443 9.503c.132-.066.331-.066.463-.132.132 0 .199-.066.331-.066.066 0 .199-.066.265-.066.132 0 .198-.066.331-.066.066 0-.927-1.388-.861-1.388.133 0-2.251-1.388-2.251-1.388-.132-.067-.198-.133-.331-.199h-.198c-.066-.066-.133-.066-.133-.066-.066 0-.132-.066-.198-.066h-.199C128.53 6 128.397 6 128.265 6h-1.125c-.067 0-.133 0-.265.066h-.133c-.066 0-.066 0-.132.066-.132.066-.265.066-.463.132-.067 0-.133.066-.199.066l-.066.067c-.265.132-.53.198-.795.396L-32.402 92.057a5.823 5.823 0 01-.662.397c-.066 0-.132.066-.198.132-.133.066-.265.198-.397.33-.067.067-.133.133-.199.133-.132.066-.265.198-.397.33l-.199.199c-.066.066-.132.066-.132.132l-.133.132-.397.397-.132.132-.133.132c-.066.066-.132.198-.264.33-.067.067-.133.133-.133.199-.066.066-.066.132-.132.132-.066.066-.133.198-.199.264s-.066.133-.132.133c-.066.132-.133.198-.199.33-.066.066-.066.132-.132.198 0 0 0 .066-.066.066-.133.199-.265.33-.331.53 0 0 0 .065-.067.065v.066c-.066.133-.198.265-.264.397-.067.066-.067.132-.133.198 0 .066-.066.132-.066.198 0 .067-.066.133-.066.199-.066.132-.199.33-.199.462 0 0 0 .067-.066.067-.066.198-.132.396-.265.594 0 .067-.066.067-.066.133s-.066.132-.066.198c0 .132-.066.198-.133.264-.066.066-.066.199-.066.265s-.066.132-.066.198-.066.132-.066.198c-.066.066-.066.199-.066.331s-.067.198-.067.33c0 .066 0 .066-.066.132 0 .067 0 .133-.066.265s-.066.33-.132.529c0 .066 0 .066-.067.132 0 .132 0 .198-.066.33v.199c0 .264-.066.462-.066.727l5.296 3.238c0-.264 0-.462.066-.727v-.264c0-.132.066-.264.066-.463.067-.198.067-.33.133-.529 0-.132.066-.264.066-.33 0-.132.066-.198.066-.331.066-.132.066-.33.133-.462 0-.066.066-.198.066-.265.066-.198.132-.33.198-.528 0-.066.067-.133.067-.199.066-.264.198-.462.33-.727 0 0 0-.066.067-.066.066-.198.198-.396.33-.595.067-.066.067-.132.067-.198.132-.198.199-.397.331-.595.066 0 .066-.066.066-.132.133-.198.265-.463.397-.661.067-.066.067-.132.133-.198.132-.132.198-.33.33-.463l.2-.198c.132-.132.198-.265.33-.33.067-.133.199-.199.265-.331l.265-.265.463-.462c.067-.132.199-.199.265-.265l.199-.198c.132-.132.264-.198.397-.33l.199-.199c.132-.132.264-.198.397-.264.066-.066.132-.066.198-.132l.596-.397 157.489-85.33.795-.397c.132 0 .198 0 .331-.066z" fill="url(#paint6_linear)"/><path d="M127.01 7.851c3.641-1.983 6.488-.264 6.421 3.834l-2.449 100.466c-.066 4.098-3.111 8.989-6.752 10.972l-157.887 85.529c-3.64 1.983-6.487-.463-6.355-4.561l2.45-99.739c.066-4.098 3.111-8.99 6.752-10.972L127.01 7.85z" fill="url(#paint7_linear)"/><path d="M124.364 14.328l-151.531 82.09c-3.31 1.785-6.024 6.279-6.157 9.981l-2.184 91.213c-.066 3.767 2.515 5.287 5.825 3.503l151.465-82.092c3.31-1.784 6.024-6.279 6.157-9.98l2.184-91.213c.133-3.702-2.515-5.288-5.759-3.503z" fill="#33425A"/><path d="M168.59 156.17l-15.756-9.65c-1.787-1.057-4.634-1.123-6.488-.198l-14.431 7.865c-1.787.992-1.854 2.644-.066 3.768l15.755 9.65c1.788 1.057 4.7 1.19 6.488.198l14.431-7.865c1.788-.992 1.854-2.71.067-3.768z" fill="url(#paint8_linear)"/><path d="M139.722 138.787c-2.184-1.322-5.759-1.454-8.01-.198l-133.194 72.64c-2.25 1.189-2.25 3.304-.066 4.626 2.185 1.322 5.76 1.455 8.01.199l133.128-72.64c2.251-1.19 2.317-3.305.132-4.627z" fill="url(#paint9_linear)"/><path d="M181.363 163.442c-2.185-1.322-5.759-1.454-8.01-.198l-133.194 72.64c-2.25 1.19-2.25 3.305-.132 4.627 2.184 1.322 5.76 1.454 8.01.198l133.26-72.64c2.184-1.19 2.251-3.305.066-4.627z" fill="url(#paint10_linear)"/><path d="M129.135 159.938c-2.185-1.322-5.76-1.454-8.01-.198L11.233 219.226c-2.25 1.19-2.317 3.305-.066 4.627 2.184 1.322 5.76 1.454 8.01.198l109.892-59.486c2.25-1.19 2.25-3.305.066-4.627z" fill="url(#paint11_linear)"/><path d="M172.362 183.403c-2.185-1.322-5.759-1.454-8.01-.199l-77.454 41.839c-2.25 1.256-2.25 3.305-.066 4.627 2.184 1.322 5.76 1.454 8.01.199l77.454-41.839c2.251-1.19 2.251-3.305.066-4.627z" fill="url(#paint12_linear)"/><path d="M142.309 169.323c-2.185-1.322-5.76-1.388-8.011-.198L25.003 228.48c-2.251 1.189-2.317 3.304-.133 4.626 2.185 1.322 5.76 1.454 8.01.199l109.362-59.355c2.185-1.19 2.251-3.239.067-4.627z" fill="url(#paint13_linear)"/><path d="M190.039 174.214c-2.185-1.322-5.76-1.454-7.944-.198l-6.223 3.371c-2.251 1.189-2.251 3.304-.066 4.626 2.184 1.322 5.759 1.454 8.01.199l6.157-3.371c2.184-1.256 2.25-3.305.066-4.627z" fill="url(#paint14_linear)"/><path d="M168.651 155.114l-15.755-9.65c-1.788-1.058-4.634-1.124-6.488-.198l-14.365 7.865c-1.788.991-1.854 2.71-.067 3.767l15.69 9.651c1.721 1.057 4.7 1.189 6.487.198l14.432-7.866c1.787-.991 1.787-2.71.066-3.767z" fill="url(#paint15_linear)"/><path d="M139.717 137.731c-2.184-1.322-5.759-1.454-8.01-.198L-1.487 210.172c-2.25 1.19-2.25 3.305-.066 4.627 2.185 1.322 5.76 1.454 8.01.199l133.194-72.64c2.251-1.256 2.251-3.305.066-4.627z" fill="url(#paint16_linear)"/><path d="M181.426 162.317c-2.185-1.322-5.76-1.454-8.011-.198L40.222 234.758c-2.251 1.19-2.317 3.305-.133 4.627 2.185 1.322 5.76 1.454 8.01.198l133.194-72.573c2.251-1.256 2.317-3.305.133-4.693z" fill="url(#paint17_linear)"/><path d="M129.187 158.882c-2.185-1.388-5.76-1.454-8.01-.198L11.285 218.171c-2.25 1.189-2.317 3.304-.066 4.626 2.184 1.322 5.76 1.454 8.01.199l109.892-59.487c2.184-1.19 2.25-3.305.066-4.627z" fill="url(#paint18_linear)"/><path d="M172.418 182.345c-2.185-1.322-5.76-1.454-8.01-.198l-77.454 41.839c-2.25 1.189-2.25 3.304-.132 4.626 2.184 1.322 5.759 1.388 8.01.199l77.453-41.839c2.251-1.256 2.317-3.305.133-4.627z" fill="url(#paint19_linear)"/><path d="M142.301 168.267c-2.185-1.322-5.76-1.454-8.01-.198L24.929 227.423c-2.251 1.19-2.251 3.305-.133 4.627 2.185 1.322 5.76 1.454 8.01.198l109.362-59.354c2.251-1.19 2.317-3.305.133-4.627z" fill="url(#paint20_linear)"/><path d="M190.031 173.092c-2.185-1.322-5.759-1.454-7.944-.198l-6.223 3.371c-2.251 1.189-2.251 3.304-.132 4.626 2.184 1.322 5.759 1.388 8.01.199l6.157-3.371c2.25-1.19 2.317-3.305.132-4.627z" fill="url(#paint21_linear)"/><path opacity=".1" d="M124.364 14.328L92.945 30.772 64.15 149.68l57.699-30.721c3.31-1.785 6.024-6.213 6.091-9.981l2.184-91.213c.133-3.701-2.449-5.221-5.759-3.437z" fill="url(#paint22_linear)"/><g opacity=".7"><g opacity=".8"><path opacity=".048" d="M146.941 184.329c-11.32 3.569-24.361 9.386-36.807 16.458-12.38 7.072-22.971 14.674-29.79 21.481-7.877 7.866-10.062 14.079-6.024 17.119 4.038 3.107 13.902 2.578 27.142-1.586a155.345 155.345 0 0013.174-4.825c7.745-3.239 15.822-7.204 23.633-11.633 12.446-7.072 23.038-14.739 29.856-21.481 7.944-7.866 10.062-14.013 6.091-17.119-3.906-3.107-13.836-2.644-27.275 1.586z" fill="#F7F6FB"/></g></g><path opacity=".3" d="M290.833 265.941v-94.744" stroke="#06EDE1"/><path transform="matrix(-1 0 0 1 298.645 142.167)" fill="url(#paint23_linear)" d="M0 0h20.314v19.866H0z"/><path transform="matrix(-1 0 0 1 251.778 21.437)" fill="url(#paint24_linear)" d="M0 0h9.376v9.169H0z"/><path opacity=".3" d="M27.953 224.331v-94.745M88.89-36.977v94.744m0 142.11v42.788" stroke="#06EDE1"/><path fill="url(#paint25_linear)" d="M118.578 14.981h20.314v19.866h-20.314z"/><path fill="url(#paint26_linear)" d="M20.141 100.556h20.314v19.866H20.141z"/><path d="M219.241 35.49c.656-.163 1.311 0 1.803.33l13.276 7.72c-.492-.329-.983-.329-1.803-.329-4.753.657-9.178.657-13.768-1.971l-13.276-7.72c4.426 2.628 8.851 2.628 13.768 1.97z" fill="url(#paint27_linear)"/><path d="M151.727 172.315l-13.276-7.72c-19.831-11.498-28.19-34.002-31.632-54.041l13.276 7.72c3.442 20.204 11.8 42.543 31.632 54.041z" fill="#9AA9AD"/><path d="M231.7 43.373c-11.145 1.807-19.34-4.106-22.126-15.604-.492-2.3-2.295-3.121-4.589-2.3-10.49 3.942-21.307 9.034-32.288 15.44a283.9 283.9 0 00-34.419 23.49c-2.131 1.806-3.934 4.763-4.589 7.555-2.786 14.619-10.981 29.895-21.963 40.9l-.819.821c-2.131 2.136-3.442 5.257-3.114 7.72l.164.822c4.097 30.387 17.865 67.509 60.806 72.437.984.164 2.131-.164 3.278-.821 1.147-.657 2.295-1.643 3.278-2.957 42.614-54.533 56.217-107.588 60.151-142.575l.164-.986c.328-2.792-.984-4.435-3.114-4.106l-.82.164z" fill="#fff"/><path d="M203.999 29.906c1.475-.822 2.787-.165 2.787 1.642s-1.148 3.942-2.787 4.764c-1.475.82-2.786.164-2.786-1.643 0-1.642 1.147-3.778 2.786-4.763z" fill="#00D0CD"/><path d="M94.52 113.512c-.327-2.628 1.148-5.749 3.115-7.72 26.879-29.403 18.357-42.215 27.207-49.278 11.309-8.87 22.946-16.754 34.419-23.488 3.933-2.136 31.796-17.576 35.402-15.44 4.425 2.628 8.85 5.256 13.276 7.72-3.77-2.136-31.469 13.14-35.402 15.44-5.573 3.285-34.911 21.025-38.189 28.416-.164.164-.164.329-.328.657-.983 2.628-1.311 8.213-5.736 18.069-10.653 23.981-21.799 24.638-20.487 34.001 3.114 23.324 11.964 50.591 35.402 64.389l-13.276-7.721c-21.799-12.812-33.435-41.228-35.402-65.045z" fill="url(#paint28_linear)"/><path d="M115.003 115.645c1.475-.821 2.786-.164 2.786 1.643s-1.147 3.942-2.786 4.764c-1.475.821-2.786.164-2.786-1.643 0-1.643 1.147-3.778 2.786-4.764zm23.762-47.635c1.475-.821 2.786-.164 2.786 1.643s-1.147 3.942-2.786 4.763c-1.475.822-2.787.165-2.787-1.642 0-1.643 1.312-3.778 2.787-4.764zm91.137-19.707c1.475-.822 2.786-.165 2.786 1.642s-1.147 3.942-2.786 4.764c-1.475.82-2.786.164-2.786-1.643s1.147-3.942 2.786-4.764zm-58.184 134.855c1.475-.821 2.786-.164 2.786 1.643s-1.147 3.942-2.786 4.763c-1.475.822-2.787.164-2.787-1.642.164-1.643 1.312-3.778 2.787-4.764z" fill="#00D0CD"/><path d="M171.876 179.38c-34.747-5.42-47.531-35.151-51.792-61.103 11.145-12.812 19.668-28.91 23.601-44.842 9.506-7.228 19.34-13.798 29.01-19.383 9.015-5.256 18.193-9.691 26.716-13.14 3.933 11.498 12.62 17.74 23.929 17.575-4.097 30.88-16.718 75.23-51.464 120.893z" fill="url(#paint29_linear)"/></g><defs><linearGradient id="paint1_linear" x1="63.096" y1="222.967" x2="221.527" y2="227.25" gradientUnits="userSpaceOnUse"><stop stop-color="#7162C8"/><stop offset=".63" stop-color="#654BB7"/><stop offset="1" stop-color="#5D3BAB"/></linearGradient><linearGradient id="paint2_linear" x1="62.689" y1="239.087" x2="-41.74" y2="236.264" gradientUnits="userSpaceOnUse"><stop stop-color="#7162C8"/><stop offset=".63" stop-color="#654BB7"/><stop offset="1" stop-color="#5D3BAB"/></linearGradient><linearGradient id="paint3_linear" x1="63.293" y1="221.02" x2="221.722" y2="225.303" gradientUnits="userSpaceOnUse"><stop stop-color="#766DD4"/><stop offset=".426" stop-color="#7265CC"/><stop offset="1" stop-color="#7162C8"/></linearGradient><linearGradient id="paint4_linear" x1="-41.545" y1="234.368" x2="62.871" y2="237.19" gradientUnits="userSpaceOnUse"><stop stop-color="#766DD4"/><stop offset=".417" stop-color="#9D82E3"/><stop offset=".786" stop-color="#B991EE"/><stop offset="1" stop-color="#C397F2"/></linearGradient><linearGradient id="paint5_linear" x1="3.373" y1="262.016" x2="179.255" y2="122.103" gradientUnits="userSpaceOnUse"><stop stop-color="#515AA5"/><stop offset=".157" stop-color="#515AA5"/><stop offset=".468" stop-color="#A79EDE"/><stop offset=".898" stop-color="#E5E3F8"/><stop offset="1" stop-color="#F5F5FF"/></linearGradient><linearGradient id="paint6_linear" x1="-37.882" y1="53.843" x2="131.45" y2="58.421" gradientUnits="userSpaceOnUse"><stop stop-color="#7162C8"/><stop offset=".63" stop-color="#654BB7"/><stop offset="1" stop-color="#5D3BAB"/></linearGradient><linearGradient id="paint7_linear" x1="-37.69" y1="105.992" x2="130.988" y2="110.552" gradientUnits="userSpaceOnUse"><stop stop-color="#CFCFFF"/><stop offset=".068" stop-color="#D4D4FF"/><stop offset=".356" stop-color="#E7E7FF"/><stop offset=".66" stop-color="#F1F1FF"/><stop offset="1" stop-color="#F5F5FF"/></linearGradient><linearGradient id="paint8_linear" x1="130.587" y1="156.555" x2="169.917" y2="157.618" gradientUnits="userSpaceOnUse"><stop stop-color="#766DD4"/><stop offset=".417" stop-color="#9D82E3"/><stop offset=".786" stop-color="#B991EE"/><stop offset="1" stop-color="#C397F2"/></linearGradient><linearGradient id="paint9_linear" x1="-2.184" y1="175.423" x2="140.302" y2="179.275" gradientUnits="userSpaceOnUse"><stop stop-color="#766DD4"/><stop offset=".417" stop-color="#9D82E3"/><stop offset=".786" stop-color="#B991EE"/><stop offset="1" stop-color="#C397F2"/></linearGradient><linearGradient id="paint10_linear" x1="39.477" y1="200.065" x2="181.96" y2="203.917" gradientUnits="userSpaceOnUse"><stop stop-color="#766DD4"/><stop offset=".417" stop-color="#9D82E3"/><stop offset=".786" stop-color="#B991EE"/><stop offset="1" stop-color="#C397F2"/></linearGradient><linearGradient id="paint11_linear" x1="10.374" y1="190.336" x2="129.925" y2="193.568" gradientUnits="userSpaceOnUse"><stop stop-color="#766DD4"/><stop offset=".417" stop-color="#9D82E3"/><stop offset=".786" stop-color="#B991EE"/><stop offset="1" stop-color="#C397F2"/></linearGradient><linearGradient id="paint12_linear" x1="85.83" y1="205.379" x2="173.408" y2="207.746" gradientUnits="userSpaceOnUse"><stop stop-color="#766DD4"/><stop offset=".417" stop-color="#9D82E3"/><stop offset=".786" stop-color="#B991EE"/><stop offset="1" stop-color="#C397F2"/></linearGradient><linearGradient id="paint13_linear" x1="24.06" y1="199.657" x2="143.051" y2="202.873" gradientUnits="userSpaceOnUse"><stop stop-color="#766DD4"/><stop offset=".417" stop-color="#9D82E3"/><stop offset=".786" stop-color="#B991EE"/><stop offset="1" stop-color="#C397F2"/></linearGradient><linearGradient id="paint14_linear" x1="174.219" y1="177.843" x2="191.581" y2="178.312" gradientUnits="userSpaceOnUse"><stop stop-color="#766DD4"/><stop offset=".417" stop-color="#9D82E3"/><stop offset=".786" stop-color="#B991EE"/><stop offset="1" stop-color="#C397F2"/></linearGradient><linearGradient id="paint15_linear" x1="130.613" y1="155.477" x2="169.94" y2="156.54" gradientUnits="userSpaceOnUse"><stop stop-color="#F5F5FF"/><stop offset=".874" stop-color="#DEDEFF"/><stop offset="1" stop-color="#DADAFF"/></linearGradient><linearGradient id="paint16_linear" x1="-2.16" y1="174.346" x2="140.322" y2="178.198" gradientUnits="userSpaceOnUse"><stop stop-color="#F5F5FF"/><stop offset=".874" stop-color="#DEDEFF"/><stop offset="1" stop-color="#DADAFF"/></linearGradient><linearGradient id="paint17_linear" x1="39.502" y1="198.982" x2="181.987" y2="202.834" gradientUnits="userSpaceOnUse"><stop stop-color="#F5F5FF"/><stop offset=".874" stop-color="#DEDEFF"/><stop offset="1" stop-color="#DADAFF"/></linearGradient><linearGradient id="paint18_linear" x1="10.39" y1="189.257" x2="129.939" y2="192.489" gradientUnits="userSpaceOnUse"><stop stop-color="#F5F5FF"/><stop offset=".874" stop-color="#DEDEFF"/><stop offset="1" stop-color="#DADAFF"/></linearGradient><linearGradient id="paint19_linear" x1="85.855" y1="204.298" x2="173.429" y2="206.665" gradientUnits="userSpaceOnUse"><stop stop-color="#F5F5FF"/><stop offset=".874" stop-color="#DEDEFF"/><stop offset="1" stop-color="#DADAFF"/></linearGradient><linearGradient id="paint20_linear" x1="24.083" y1="198.579" x2="143.076" y2="201.795" gradientUnits="userSpaceOnUse"><stop stop-color="#F5F5FF"/><stop offset=".874" stop-color="#DEDEFF"/><stop offset="1" stop-color="#DADAFF"/></linearGradient><linearGradient id="paint21_linear" x1="174.237" y1="176.767" x2="191.603" y2="177.236" gradientUnits="userSpaceOnUse"><stop stop-color="#F5F5FF"/><stop offset=".874" stop-color="#DEDEFF"/><stop offset="1" stop-color="#DADAFF"/></linearGradient><linearGradient id="paint22_linear" x1="130.114" y1="81.644" x2="64.182" y2="81.644" gradientUnits="userSpaceOnUse"><stop offset=".5" stop-color="#fff"/><stop offset="1" stop-color="#B7B6B6"/></linearGradient><linearGradient id="paint23_linear" x1="10.938" y1="-10.697" x2="10.938" y2="29.799" gradientUnits="userSpaceOnUse"><stop stop-color="#06EDE1"/><stop offset="1" stop-color="#06EDE1" stop-opacity="0"/></linearGradient><linearGradient id="paint24_linear" x1="5.048" y1="-4.937" x2="5.048" y2="13.753" gradientUnits="userSpaceOnUse"><stop stop-color="#06EDE1"/><stop offset="1" stop-color="#06EDE1" stop-opacity="0"/></linearGradient><linearGradient id="paint25_linear" x1="129.516" y1="4.284" x2="129.516" y2="44.779" gradientUnits="userSpaceOnUse"><stop stop-color="#06EDE1"/><stop offset="1" stop-color="#06EDE1" stop-opacity="0"/></linearGradient><linearGradient id="paint26_linear" x1="31.079" y1="89.859" x2="31.079" y2="130.354" gradientUnits="userSpaceOnUse"><stop stop-color="#06EDE1"/><stop offset="1" stop-color="#06EDE1" stop-opacity="0"/></linearGradient><linearGradient id="paint27_linear" x1="245.438" y1="38.526" x2="188.676" y2="38.526" gradientUnits="userSpaceOnUse"><stop stop-color="#03D9FE"/><stop offset="1" stop-color="#5A54CE"/></linearGradient><linearGradient id="paint28_linear" x1="221.21" y1="68.811" x2="125.335" y2="124.719" gradientUnits="userSpaceOnUse"><stop stop-color="#00D0CD"/><stop offset="1" stop-color="#515AA5"/></linearGradient><linearGradient id="paint29_linear" x1="223.419" y1="110.108" x2="120.062" y2="110.108" gradientUnits="userSpaceOnUse"><stop stop-color="#F7DA5C"/><stop offset="1" stop-color="#F15DAB"/></linearGradient><radialGradient id="paint0_radial" cx="0" cy="0" r="1" gradientUnits="userSpaceOnUse" gradientTransform="rotate(174.99 98.266 106.995) scale(178.158 178.401)"><stop stop-color="#00D0CD"/><stop offset="1" stop-color="#00D0CD" stop-opacity="0"/></radialGradient><clipPath id="clip0"><path fill="#fff" d="M0 0h366v208H0z"/></clipPath></defs></svg>