<svg width="211" height="179" fill="none" xmlns="http://www.w3.org/2000/svg"><g clip-path="url(#clip0)"><path d="M191.143 153.199l-.058.057-.457.456s-.057 0-.057.057c-.228.227-.514.398-.8.626-.057.057-.057.057-.114.057-.286.228-.629.455-.915.683 0 0-.057 0-.057.057a18.07 18.07 0 01-1.086.683c-.343.228-.743.456-1.086.627-.057.056-.114.056-.171.056-.571.342-1.143.627-1.714.968h-.058c-.285.171-.628.342-.914.513-.686.341-1.314.683-2 1.025l-.686.341c-.057.057-.114.057-.171.114-.229.114-.515.228-.743.399-.058 0-.115.057-.115.057-.228.114-.514.284-.743.398L69.071 220.271c-6.572 3.587-10.63 6.035-13.887 7.003a8.424 8.424 0 01-1.543.342l-.228 6.491c.514-.057 1.028-.228 1.543-.342 3.314-.968 7.372-3.416 13.887-7.003l110.07-59.841c.285-.171.514-.285.857-.455 1.2-.627 2.514-1.31 3.886-1.993.114-.057.286-.114.457-.228.172-.057.343-.171.515-.285.171-.114.4-.227.571-.284.114-.057.172-.114.286-.171.228-.114.457-.228.686-.399.057 0 .114-.057.114-.057h.057a9.936 9.936 0 001.029-.626s.057-.057.114-.057a9.936 9.936 0 011.029-.626c.057 0 .057-.057.114-.057.286-.228.629-.399.914-.626.058 0 .058-.057.115-.057.285-.171.571-.456.8-.627l.057-.057s0-.057.057-.057c.172-.113.286-.284.457-.398l.115-.114.342-.342.058-.057s0-.057.057-.057l.114-.113c.057-.057.114-.114.114-.171.058-.057.058-.114.115-.171 0-.057.057-.114.057-.114v-.057c.114-.171.171-.285.228-.455v-.057c.058-.114.058-.171.115-.285v-.114c0-.114 0-.171.057-.228v-.17c.228-4.385-1.143-4.271-1.257-4.157z" fill="url(#paint0_linear)"/><path d="M52.782 227.787c-.172 0-.343 0-.572.057h-.97c-.172-.057-.343-.057-.457-.057-.172-.057-.343-.057-.515-.114l-.686-.171c-.285-.057-.628-.228-.914-.341-.629-.285-1.257-.57-1.886-1.025l-78.923-48.226c-1.943-1.196-3.086-1.993-3.086-2.961l-.172 6.491c-.057.968 1.143 1.765 3.086 2.961l78.924 48.225a21.27 21.27 0 001.943 1.025c.343.114.628.228.914.342.229.057.457.114.629.171.171.057.343.057.514.114.172.057.343.057.514.057.172 0 .286 0 .458.057h1.028c.229 0 .515-.057.743-.114l.229-6.491c-.343-.057-.572-.057-.8 0z" fill="url(#paint1_linear)"/><path d="M191.314 151.549l-.057.057c-.172.114-.286.284-.457.455l-.058.057c-.228.171-.514.399-.8.627-.057 0-.057.056-.114.056a8.823 8.823 0 01-.914.627s-.058 0-.058.057c-.342.227-.685.455-1.085.683-.343.228-.743.455-1.086.626-.057 0-.114.057-.172.114-.571.342-1.143.626-1.714.911 0 0-.057 0-.057.057a6.836 6.836 0 01-.915.456c-.685.341-1.314.683-2 1.024l-.686.342c-.057.057-.114.057-.171.114-.229.114-.514.285-.743.398-.057 0-.114.057-.114.057-.229.114-.515.285-.743.399L69.243 218.564c-6.572 3.587-10.63 6.035-13.887 7.003a8.333 8.333 0 01-1.544.341l-.171 6.548a7.564 7.564 0 001.543-.341c3.315-.968 7.372-3.474 13.887-7.004l110.013-59.897c.286-.171.514-.285.8-.456 1.2-.626 2.515-1.309 3.886-1.993.114-.057.286-.17.4-.227.172-.114.343-.171.515-.285.171-.114.4-.228.571-.285.114-.057.172-.114.286-.171.228-.113.457-.227.686-.398.057-.057.114-.057.114-.057l.057-.057c.343-.228.686-.398 1.029-.626 0 0 .057-.057.114-.057.343-.228.686-.456 1.029-.626.057-.057.057-.057.114-.057.286-.228.629-.399.914-.627.058 0 .058-.057.115-.057.285-.227.514-.455.8-.626 0 0 .057 0 .057-.057 0 0 0-.057.057-.057.172-.114.286-.285.457-.398 0-.057.057-.057.115-.114l.343-.342.057-.057c0-.057 0-.057.057-.057.057-.057.057-.114.114-.114.057-.057.057-.114.114-.17.058-.057.058-.114.115-.114 0-.057.057-.057.057-.114v-.057c.114-.171.171-.285.228-.456v-.057c.058-.113.058-.17.115-.284v-.513c.4-4.384-.972-4.213-1.086-4.099z" fill="url(#paint2_linear)"/><path d="M52.953 226.079h-1.486c-.171 0-.343-.057-.457-.057-.171 0-.343-.057-.514-.114a9.436 9.436 0 01-.629-.171c-.285-.057-.628-.228-.971-.342a15.213 15.213 0 01-1.886-1.025l-78.923-48.225c-1.944-1.196-3.087-1.993-3.087-2.961-.057 2.164-.114 4.327-.171 6.548-.057.968 1.143 1.765 3.086 2.961l78.923 48.225c.686.399 1.315.74 1.943 1.025.343.114.629.228.915.342l.686.17c.171.057.343.057.514.114.171.057.343.057.457.057.172 0 .286.057.457.057h.515c.171 0 .343 0 .571-.057.229 0 .514-.057.743-.114l.171-6.547c-.4.057-.628.114-.857.114z" fill="url(#paint3_linear)"/><path d="M190.399 150.353c6.915 4.213-4.801 8.996-11.202 12.469L69.07 222.72c-12.515 6.832-15.944 9.622-22.23 5.75l-78.924-48.225c-5.543-3.36-4.63-3.815 11.258-12.47l110.07-59.954c12.859-6.946 15.945-9.566 22.231-5.751l78.924 48.283z" fill="url(#paint4_linear)" stroke="#C397F2" stroke-width="1.061" stroke-miterlimit="10"/><path d="M113.473 8.01c.114-.057.285-.057.4-.114.114 0 .171-.057.285-.057.058 0 .172-.057.229-.057.114 0 .172-.057.286-.057.057 0-.8-1.195-.743-1.195.114 0-1.943-1.196-1.943-1.196-.115-.057-.172-.114-.286-.17h-.171c-.058-.058-.115-.058-.115-.058-.057 0-.114-.057-.171-.057h-.172c-.114-.056-.228-.056-.343-.056h-.971c-.057 0-.114 0-.229.056h-.114c-.057 0-.057 0-.114.057-.115.057-.229.057-.4.114-.057 0-.115.057-.172.057l-.057.057c-.228.114-.457.17-.686.342L-27.972 79.124a5.034 5.034 0 01-.572.342c-.057 0-.114.057-.171.114-.114.057-.229.17-.343.285-.057.056-.114.113-.171.113-.115.057-.229.171-.343.285l-.172.17c-.057.058-.114.058-.114.115l-.114.114-.343.341-.115.114-.114.114c-.057.057-.114.17-.228.285-.058.057-.115.114-.115.17-.057.057-.057.114-.114.114-.057.057-.114.171-.171.228-.058.057-.058.114-.115.114-.057.114-.114.17-.171.285-.057.057-.057.114-.115.17 0 0 0 .058-.057.058-.114.17-.228.284-.285.455 0 0 0 .057-.058.057v.057c-.057.114-.171.228-.228.341-.057.057-.057.114-.114.171 0 .057-.058.114-.058.171 0 .057-.057.114-.057.17-.057.115-.171.286-.171.4 0 0 0 .056-.057.056a2.02 2.02 0 01-.229.513c0 .057-.057.057-.057.114s-.057.114-.057.17c0 .114-.057.171-.114.228-.058.057-.058.171-.058.228 0 .057-.057.114-.057.17 0 .058-.057.115-.057.172-.057.057-.057.17-.057.284 0 .114-.057.171-.057.285 0 .057 0 .057-.057.114 0 .057 0 .114-.058.228-.057.114-.057.284-.114.455 0 .057 0 .057-.057.114 0 .114 0 .17-.057.285v.17c0 .228-.057.4-.057.627l4.572 2.79c0-.228 0-.399.057-.627v-.227c0-.114.057-.228.057-.399.057-.17.057-.285.114-.455 0-.114.057-.228.057-.285 0-.114.057-.17.057-.285.058-.114.058-.284.115-.398 0-.057.057-.171.057-.228.057-.17.114-.285.171-.456 0-.056.058-.113.058-.17.057-.228.171-.399.285-.627 0 0 0-.057.057-.057.058-.17.172-.341.286-.512.057-.057.057-.114.057-.17.115-.172.172-.343.286-.513.057 0 .057-.057.057-.114.114-.171.229-.399.343-.57.057-.056.057-.113.114-.17.115-.114.172-.285.286-.399l.172-.17c.114-.115.171-.228.285-.285.057-.114.172-.171.229-.285l.229-.228.4-.398c.057-.114.171-.171.228-.228l.172-.171c.114-.114.228-.17.343-.285l.171-.17c.114-.114.229-.171.343-.228.057-.057.114-.057.171-.114l.515-.342L112.5 8.41l.686-.342c.114 0 .171 0 .286-.057z" fill="url(#paint5_linear)"/><path d="M109.646 6.587c3.143-1.708 5.601-.228 5.544 3.302l-2.115 86.544c-.057 3.53-2.686 7.744-5.829 9.452l-136.301 73.676c-3.144 1.709-5.601-.398-5.487-3.928l2.115-85.918c.057-3.53 2.686-7.743 5.829-9.452L109.646 6.587z" fill="url(#paint6_linear)"/><path d="M107.362 12.166L-23.453 82.882c-2.858 1.537-5.2 5.409-5.315 8.597l-1.886 78.573c-.057 3.246 2.172 4.555 5.03 3.018l130.757-70.716c2.857-1.537 5.201-5.409 5.315-8.597l1.886-78.573c.114-3.189-2.172-4.555-4.972-3.018z" fill="#33425A"/><path d="M145.541 134.353l-13.601-8.313c-1.543-.911-4.001-.968-5.601-.171l-12.458 6.776c-1.544.854-1.601 2.277-.058 3.245l13.602 8.313c1.543.911 4.058 1.025 5.601.171l12.458-6.776c1.543-.854 1.6-2.334.057-3.245z" fill="url(#paint7_linear)"/><path d="M120.621 119.378c-1.886-1.138-4.972-1.252-6.916-.17L-1.279 181.781c-1.943 1.025-1.943 2.847-.057 3.986 1.886 1.139 4.972 1.252 6.915.171l114.927-62.574c1.943-1.025 2-2.847.115-3.986z" fill="url(#paint8_linear)"/><path d="M156.568 140.617c-1.886-1.139-4.972-1.253-6.915-.171L34.669 203.02c-1.943 1.025-1.943 2.847-.115 3.985 1.886 1.139 4.972 1.253 6.915.171l115.042-62.573c1.886-1.025 1.943-2.847.057-3.986z" fill="url(#paint9_linear)"/><path d="M111.48 137.598c-1.886-1.138-4.972-1.252-6.915-.17L9.697 188.671c-1.943 1.025-2 2.847-.057 3.985 1.886 1.139 4.972 1.253 6.915.171l94.868-51.243c1.943-1.025 1.943-2.847.057-3.986z" fill="url(#paint10_linear)"/><path d="M148.798 157.811c-1.886-1.138-4.972-1.252-6.915-.17l-66.865 36.041c-1.943 1.081-1.943 2.847-.057 3.985 1.886 1.139 4.972 1.253 6.915.171l66.865-36.041c1.943-1.025 1.943-2.847.057-3.986z" fill="url(#paint11_linear)"/><path d="M122.853 145.683c-1.886-1.139-4.972-1.196-6.915-.171l-94.353 51.13c-1.944 1.024-2 2.846-.115 3.985 1.886 1.139 4.972 1.253 6.915.171l94.411-51.129c1.886-1.025 1.943-2.79.057-3.986z" fill="url(#paint12_linear)"/><path d="M164.058 149.896c-1.886-1.139-4.972-1.253-6.858-.171l-5.372 2.904c-1.943 1.025-1.943 2.847-.057 3.985 1.886 1.139 4.972 1.253 6.915.171l5.315-2.904c1.886-1.081 1.943-2.846.057-3.985z" fill="url(#paint13_linear)"/><path d="M145.594 133.443l-13.601-8.313c-1.543-.911-4.001-.968-5.601-.171l-12.401 6.776c-1.543.854-1.601 2.334-.057 3.245l13.544 8.313c1.486.911 4.058 1.025 5.601.171l12.458-6.776c1.543-.854 1.543-2.334.057-3.245z" fill="url(#paint14_linear)"/><path d="M120.616 118.469c-1.886-1.139-4.972-1.253-6.915-.171L-1.283 180.871c-1.943 1.025-1.943 2.847-.058 3.986 1.886 1.139 4.972 1.253 6.916.171l114.984-62.574c1.943-1.082 1.943-2.847.057-3.985z" fill="url(#paint15_linear)"/><path d="M156.623 139.647c-1.886-1.138-4.972-1.252-6.916-.17L34.723 202.05c-1.943 1.025-2 2.847-.114 3.986 1.885 1.139 4.971 1.253 6.915.171l114.984-62.517c1.943-1.082 2-2.847.115-4.043z" fill="url(#paint16_linear)"/><path d="M111.525 136.689c-1.886-1.196-4.972-1.253-6.915-.171L9.742 187.761c-1.943 1.025-2 2.847-.057 3.986 1.886 1.139 4.972 1.252 6.915.171l94.868-51.244c1.886-1.024 1.943-2.846.057-3.985z" fill="url(#paint17_linear)"/><path d="M148.846 156.9c-1.886-1.139-4.972-1.252-6.915-.171L75.066 192.77c-1.943 1.025-1.943 2.847-.114 3.986 1.886 1.139 4.972 1.196 6.915.171l66.865-36.041c1.943-1.082 2-2.847.114-3.986z" fill="url(#paint18_linear)"/><path d="M122.847 144.773c-1.886-1.139-4.972-1.253-6.915-.171l-94.411 51.129c-1.943 1.025-1.943 2.847-.115 3.986 1.886 1.139 4.972 1.253 6.916.171l94.41-51.129c1.943-1.025 2.001-2.847.115-3.986z" fill="url(#paint19_linear)"/><path d="M164.051 148.929c-1.885-1.138-4.972-1.252-6.857-.17l-5.373 2.903c-1.943 1.025-1.943 2.847-.114 3.986 1.886 1.139 4.972 1.196 6.915.171l5.315-2.904c1.943-1.025 2-2.847.114-3.986z" fill="url(#paint20_linear)"/><path opacity=".1" d="M107.362 12.167L80.239 26.332 55.379 128.76l49.811-26.463c2.857-1.537 5.201-5.352 5.258-8.598l1.886-78.573c.114-3.188-2.115-4.498-4.972-2.96z" fill="url(#paint21_linear)"/><g opacity=".7"><g opacity=".8"><path opacity=".048" d="M126.852 158.609c-9.772 3.075-21.031 8.085-31.775 14.178-10.687 6.092-19.83 12.64-25.717 18.504-6.8 6.776-8.687 12.128-5.2 14.747 3.486 2.676 12 2.22 23.43-1.367a134.181 134.181 0 0011.374-4.156c6.686-2.79 13.658-6.206 20.402-10.021 10.744-6.092 19.888-12.697 25.774-18.504 6.858-6.776 8.687-12.071 5.258-14.747-3.372-2.676-11.944-2.278-23.546 1.366z" fill="#F7F6FB"/></g></g><path d="M189.268 30.397c.566-.142 1.132 0 1.557.283l11.461 6.65c-.425-.283-.849-.283-1.557-.283-4.103.566-7.923.566-11.885-1.698l-11.461-6.65c3.82 2.264 7.64 2.264 11.885 1.698z" fill="url(#paint22_linear)"/><path d="M130.984 148.26l-11.46-6.65c-17.121-9.905-24.337-29.29-27.308-46.552l11.46 6.65c2.972 17.404 10.188 36.647 27.308 46.552z" fill="#9AA9AD"/><path d="M200.024 37.187c-9.621 1.556-16.696-3.538-19.101-13.442-.425-1.981-1.981-2.689-3.962-1.981-9.055 3.396-18.394 7.782-27.874 13.3a245.086 245.086 0 00-29.713 20.234c-1.84 1.556-3.396 4.103-3.962 6.509-2.405 12.593-9.48 25.752-18.96 35.232l-.707.707c-1.84 1.84-2.972 4.528-2.689 6.651l.142.707c3.537 26.177 15.422 58.155 52.493 62.4.849.141 1.84-.142 2.83-.708.991-.566 1.981-1.415 2.83-2.547 36.788-46.976 48.532-92.679 51.927-122.817l.142-.85c.283-2.405-.849-3.82-2.688-3.537l-.708.142z" fill="#fff"/><path d="M176.11 25.585c1.274-.707 2.406-.141 2.406 1.415 0 1.557-.991 3.396-2.406 4.104-1.273.707-2.405.141-2.405-1.415 0-1.415.99-3.255 2.405-4.104z" fill="#00D0CD"/><path d="M81.599 97.606c-.283-2.264.99-4.953 2.688-6.65 23.205-25.328 15.847-36.365 23.488-42.45 9.763-7.64 19.808-14.432 29.713-20.233 3.396-1.84 27.449-15.14 30.562-13.3 3.82 2.263 7.641 4.527 11.461 6.65-3.254-1.84-27.166 11.32-30.562 13.3-4.811 2.83-30.138 18.112-32.968 24.479-.141.141-.141.283-.283.566-.849 2.264-1.132 7.075-4.952 15.564-9.197 20.659-18.819 21.225-17.686 29.29 2.688 20.092 10.328 43.58 30.562 55.466l-11.461-6.65c-18.819-11.037-28.865-35.516-30.562-56.032z" fill="url(#paint23_linear)"/><path d="M99.28 99.444c1.274-.708 2.406-.142 2.406 1.415 0 1.556-.99 3.396-2.405 4.103-1.274.707-2.406.141-2.406-1.415 0-1.415.99-3.254 2.406-4.103zm20.514-41.034c1.274-.708 2.405-.142 2.405 1.415 0 1.556-.99 3.395-2.405 4.103-1.273.707-2.405.141-2.405-1.415 0-1.415 1.132-3.255 2.405-4.103zm78.678-16.977c1.273-.708 2.405-.142 2.405 1.415 0 1.556-.99 3.396-2.405 4.103-1.274.708-2.406.142-2.406-1.415 0-1.556.991-3.396 2.406-4.103zm-50.23 116.168c1.273-.708 2.405-.142 2.405 1.415 0 1.556-.99 3.396-2.405 4.103-1.273.707-2.405.141-2.405-1.415.141-1.415 1.132-3.254 2.405-4.103z" fill="#00D0CD"/><path d="M148.378 154.346c-29.996-4.669-41.032-30.279-44.711-52.636 9.621-11.036 16.979-24.903 20.375-38.628 8.206-6.226 16.696-11.885 25.044-16.696 7.782-4.528 15.706-8.348 23.063-11.32 3.396 9.905 10.895 15.282 20.658 15.14-3.537 26.601-14.432 64.805-44.429 104.14z" fill="url(#paint24_linear)"/></g><defs><linearGradient id="paint0_linear" x1="54.47" y1="191.893" x2="191.241" y2="195.598" gradientUnits="userSpaceOnUse"><stop stop-color="#7162C8"/><stop offset=".63" stop-color="#654BB7"/><stop offset="1" stop-color="#5D3BAB"/></linearGradient><linearGradient id="paint1_linear" x1="54.119" y1="205.779" x2="-36.034" y2="203.336" gradientUnits="userSpaceOnUse"><stop stop-color="#7162C8"/><stop offset=".63" stop-color="#654BB7"/><stop offset="1" stop-color="#5D3BAB"/></linearGradient><linearGradient id="paint2_linear" x1="54.64" y1="190.216" x2="191.409" y2="193.921" gradientUnits="userSpaceOnUse"><stop stop-color="#766DD4"/><stop offset=".426" stop-color="#7265CC"/><stop offset="1" stop-color="#7162C8"/></linearGradient><linearGradient id="paint3_linear" x1="-35.865" y1="201.714" x2="54.276" y2="204.156" gradientUnits="userSpaceOnUse"><stop stop-color="#766DD4"/><stop offset=".417" stop-color="#9D82E3"/><stop offset=".786" stop-color="#B991EE"/><stop offset="1" stop-color="#C397F2"/></linearGradient><linearGradient id="paint4_linear" x1="2.912" y1="225.53" x2="154.494" y2="104.687" gradientUnits="userSpaceOnUse"><stop stop-color="#515AA5"/><stop offset=".157" stop-color="#515AA5"/><stop offset=".468" stop-color="#A79EDE"/><stop offset=".898" stop-color="#E5E3F8"/><stop offset="1" stop-color="#F5F5FF"/></linearGradient><linearGradient id="paint5_linear" x1="-32.703" y1="46.206" x2="113.479" y2="50.166" gradientUnits="userSpaceOnUse"><stop stop-color="#7162C8"/><stop offset=".63" stop-color="#654BB7"/><stop offset="1" stop-color="#5D3BAB"/></linearGradient><linearGradient id="paint6_linear" x1="-32.538" y1="91.128" x2="113.08" y2="95.073" gradientUnits="userSpaceOnUse"><stop stop-color="#CFCFFF"/><stop offset=".068" stop-color="#D4D4FF"/><stop offset=".356" stop-color="#E7E7FF"/><stop offset=".66" stop-color="#F1F1FF"/><stop offset="1" stop-color="#F5F5FF"/></linearGradient><linearGradient id="paint7_linear" x1="112.734" y1="134.684" x2="146.687" y2="135.604" gradientUnits="userSpaceOnUse"><stop stop-color="#766DD4"/><stop offset=".417" stop-color="#9D82E3"/><stop offset=".786" stop-color="#B991EE"/><stop offset="1" stop-color="#C397F2"/></linearGradient><linearGradient id="paint8_linear" x1="-1.886" y1="150.938" x2="121.121" y2="154.27" gradientUnits="userSpaceOnUse"><stop stop-color="#766DD4"/><stop offset=".417" stop-color="#9D82E3"/><stop offset=".786" stop-color="#B991EE"/><stop offset="1" stop-color="#C397F2"/></linearGradient><linearGradient id="paint9_linear" x1="34.08" y1="172.165" x2="157.083" y2="175.497" gradientUnits="userSpaceOnUse"><stop stop-color="#766DD4"/><stop offset=".417" stop-color="#9D82E3"/><stop offset=".786" stop-color="#B991EE"/><stop offset="1" stop-color="#C397F2"/></linearGradient><linearGradient id="paint10_linear" x1="8.955" y1="163.784" x2="112.162" y2="166.58" gradientUnits="userSpaceOnUse"><stop stop-color="#766DD4"/><stop offset=".417" stop-color="#9D82E3"/><stop offset=".786" stop-color="#B991EE"/><stop offset="1" stop-color="#C397F2"/></linearGradient><linearGradient id="paint11_linear" x1="74.096" y1="176.742" x2="149.701" y2="178.79" gradientUnits="userSpaceOnUse"><stop stop-color="#766DD4"/><stop offset=".417" stop-color="#9D82E3"/><stop offset=".786" stop-color="#B991EE"/><stop offset="1" stop-color="#C397F2"/></linearGradient><linearGradient id="paint12_linear" x1="20.77" y1="171.813" x2="123.494" y2="174.596" gradientUnits="userSpaceOnUse"><stop stop-color="#766DD4"/><stop offset=".417" stop-color="#9D82E3"/><stop offset=".786" stop-color="#B991EE"/><stop offset="1" stop-color="#C397F2"/></linearGradient><linearGradient id="paint13_linear" x1="150.401" y1="153.022" x2="165.39" y2="153.428" gradientUnits="userSpaceOnUse"><stop stop-color="#766DD4"/><stop offset=".417" stop-color="#9D82E3"/><stop offset=".786" stop-color="#B991EE"/><stop offset="1" stop-color="#C397F2"/></linearGradient><linearGradient id="paint14_linear" x1="112.756" y1="133.755" x2="146.707" y2="134.675" gradientUnits="userSpaceOnUse"><stop stop-color="#F5F5FF"/><stop offset=".874" stop-color="#DEDEFF"/><stop offset="1" stop-color="#DADAFF"/></linearGradient><linearGradient id="paint15_linear" x1="-1.865" y1="150.01" x2="121.138" y2="153.342" gradientUnits="userSpaceOnUse"><stop stop-color="#F5F5FF"/><stop offset=".874" stop-color="#DEDEFF"/><stop offset="1" stop-color="#DADAFF"/></linearGradient><linearGradient id="paint16_linear" x1="34.101" y1="171.232" x2="157.107" y2="174.564" gradientUnits="userSpaceOnUse"><stop stop-color="#F5F5FF"/><stop offset=".874" stop-color="#DEDEFF"/><stop offset="1" stop-color="#DADAFF"/></linearGradient><linearGradient id="paint17_linear" x1="8.969" y1="162.854" x2="112.175" y2="165.65" gradientUnits="userSpaceOnUse"><stop stop-color="#F5F5FF"/><stop offset=".874" stop-color="#DEDEFF"/><stop offset="1" stop-color="#DADAFF"/></linearGradient><linearGradient id="paint18_linear" x1="74.118" y1="175.811" x2="149.719" y2="177.859" gradientUnits="userSpaceOnUse"><stop stop-color="#F5F5FF"/><stop offset=".874" stop-color="#DEDEFF"/><stop offset="1" stop-color="#DADAFF"/></linearGradient><linearGradient id="paint19_linear" x1="20.791" y1="170.884" x2="123.515" y2="173.667" gradientUnits="userSpaceOnUse"><stop stop-color="#F5F5FF"/><stop offset=".874" stop-color="#DEDEFF"/><stop offset="1" stop-color="#DADAFF"/></linearGradient><linearGradient id="paint20_linear" x1="150.416" y1="152.095" x2="165.409" y2="152.501" gradientUnits="userSpaceOnUse"><stop stop-color="#F5F5FF"/><stop offset=".874" stop-color="#DEDEFF"/><stop offset="1" stop-color="#DADAFF"/></linearGradient><linearGradient id="paint21_linear" x1="112.325" y1="70.154" x2="55.408" y2="70.154" gradientUnits="userSpaceOnUse"><stop offset=".5" stop-color="#fff"/><stop offset="1" stop-color="#B7B6B6"/></linearGradient><linearGradient id="paint22_linear" x1="211.884" y1="33.012" x2="162.881" y2="33.012" gradientUnits="userSpaceOnUse"><stop stop-color="#03D9FE"/><stop offset="1" stop-color="#5A54CE"/></linearGradient><linearGradient id="paint23_linear" x1="190.968" y1="59.099" x2="108.291" y2="107.415" gradientUnits="userSpaceOnUse"><stop stop-color="#00D0CD"/><stop offset="1" stop-color="#515AA5"/></linearGradient><linearGradient id="paint24_linear" x1="192.875" y1="94.673" x2="103.648" y2="94.673" gradientUnits="userSpaceOnUse"><stop stop-color="#F7DA5C"/><stop offset="1" stop-color="#F15DAB"/></linearGradient><clipPath id="clip0"><path fill="#fff" d="M0 0h211v179H0z"/></clipPath></defs></svg>