<svg width="336" height="251" fill="none" xmlns="http://www.w3.org/2000/svg"><g clip-path="url(#clip0)"><path d="M81.486 166.262l.05.051.407.405s.051 0 .051.051c.204.203.458.355.713.558.05.051.05.051.101.051.255.203.56.406.814.608 0 0 .051 0 .051.051.306.203.611.406.967.609a9.6 9.6 0 00.967.558c.05.05.102.05.153.05.508.305 1.017.558 1.526.863h.05c.255.152.56.304.815.456.61.304 1.17.609 1.78.913l.612.304c.05.051.101.051.152.102.204.101.458.202.662.355.05 0 .101.05.101.05.204.102.458.254.662.355l98.049 53.355c5.852 3.195 9.464 5.376 12.365 6.238.458.152.966.253 1.373.304l.204 5.782c-.458-.051-.916-.203-1.374-.304-2.951-.863-6.564-3.043-12.364-6.239l-97.999-53.303a10.41 10.41 0 00-.763-.406 207.058 207.058 0 00-3.46-1.775c-.102-.051-.254-.101-.407-.203-.153-.051-.305-.152-.458-.253a2.367 2.367 0 00-.509-.254c-.102-.051-.152-.101-.254-.152-.204-.102-.407-.203-.61-.355-.052 0-.102-.051-.102-.051h-.051a8.808 8.808 0 01-.916-.558s-.051-.051-.102-.051c-.305-.202-.61-.405-.916-.557-.05 0-.05-.051-.102-.051-.254-.203-.56-.355-.814-.558-.05 0-.05-.051-.102-.051-.254-.152-.508-.405-.712-.558l-.05-.05s0-.051-.052-.051c-.152-.102-.254-.254-.407-.355l-.102-.102a87.318 87.318 0 01-.305-.304l-.05-.051s0-.05-.052-.05l-.101-.102c-.051-.05-.102-.101-.102-.152-.051-.051-.051-.101-.102-.152 0-.051-.05-.101-.05-.101v-.051a1.518 1.518 0 01-.204-.406v-.051c-.051-.101-.051-.152-.102-.253v-.102c0-.101 0-.152-.05-.202v-.153c-.204-3.905 1.017-3.803 1.118-3.702z" fill="url(#paint0_linear)"/><path d="M204.673 232.702c.152 0 .305 0 .509.05h.865c.152-.05.305-.05.407-.05.152-.051.305-.051.458-.102l.61-.152c.255-.051.56-.203.814-.304.56-.254 1.12-.507 1.679-.913l70.268-42.957c1.73-1.066 2.748-1.776 2.748-2.638l.153 5.782c.051.862-1.018 1.572-2.748 2.637l-70.268 42.958c-.611.355-1.17.659-1.73.913-.305.101-.56.202-.814.304-.204.051-.407.101-.56.152-.152.051-.305.051-.458.101-.152.051-.305.051-.458.051-.152 0-.254 0-.407.051h-.916c-.203 0-.457-.051-.661-.102l-.204-5.781c.306-.051.509-.051.713 0z" fill="url(#paint1_linear)"/><path d="M81.333 164.792l.051.051c.153.101.255.254.407.406l.051.05c.204.153.458.355.713.558.05 0 .05.051.101.051.255.203.56.406.814.558 0 0 .051 0 .051.051.306.203.61.405.967.608.305.203.662.406.967.558.05 0 .102.051.153.102.508.304 1.017.557 1.526.811 0 0 .05 0 .05.051.255.152.56.304.815.406.61.304 1.17.608 1.78.912l.611.305c.051.05.102.05.153.101.204.102.458.254.661.355.051 0 .102.051.102.051.204.101.458.253.662.355l98.049 53.354c5.852 3.195 9.464 5.376 12.365 6.238a7.52 7.52 0 001.373.305l.153 5.832a6.711 6.711 0 01-1.374-.304c-2.951-.862-6.564-3.094-12.364-6.238l-97.948-53.355c-.254-.152-.458-.253-.712-.405a199.752 199.752 0 00-3.46-1.775c-.102-.051-.255-.153-.356-.203-.153-.102-.306-.152-.458-.254a2.414 2.414 0 00-.51-.254c-.1-.05-.152-.101-.254-.152a3.777 3.777 0 01-.61-.355c-.051-.05-.102-.05-.102-.05l-.05-.051c-.306-.203-.611-.355-.917-.558 0 0-.05-.051-.101-.051a8.994 8.994 0 00-.916-.558c-.051-.05-.051-.05-.102-.05-.254-.203-.56-.355-.814-.558-.051 0-.051-.051-.102-.051-.254-.203-.458-.406-.712-.558 0 0-.051 0-.051-.051 0 0 0-.05-.051-.05-.153-.102-.254-.254-.407-.355 0-.051-.05-.051-.102-.102l-.305-.304-.051-.051c0-.05 0-.05-.05-.05-.052-.051-.052-.102-.103-.102-.05-.051-.05-.101-.101-.152-.051-.051-.051-.101-.102-.101 0-.051-.051-.051-.051-.102v-.051a1.512 1.512 0 01-.204-.405v-.051c-.05-.101-.05-.152-.101-.254v-.456c-.357-3.905.865-3.753.966-3.652z" fill="url(#paint2_linear)"/><path d="M204.52 231.18h1.323c.153 0 .305-.051.407-.051.153 0 .305-.051.458-.102.204-.05.407-.101.56-.152.254-.05.559-.203.865-.304a13.808 13.808 0 001.679-.913l70.268-42.957c1.73-1.065 2.747-1.775 2.747-2.638l.153 5.833c.051.862-1.018 1.572-2.748 2.637l-70.268 42.958c-.61.355-1.17.659-1.73.912-.305.102-.559.203-.814.305l-.61.152c-.153.051-.306.051-.458.101-.153.051-.305.051-.407.051-.153 0-.255.051-.407.051h-.458c-.153 0-.306 0-.509-.051-.204 0-.458-.051-.662-.101l-.152-5.833c.356.051.56.102.763.102z" fill="url(#paint3_linear)"/><path d="M82.148 163.726c-6.156 3.754 4.274 8.014 9.973 11.107l98.05 53.355c11.143 6.086 14.196 8.571 19.793 5.122l70.268-42.957c4.935-2.992 4.121-3.398-10.024-11.107l-97.999-53.405c-11.448-6.188-14.196-8.521-19.793-5.123l-70.268 43.008z" fill="url(#paint4_linear)" stroke="#C397F2" stroke-width="1.061" stroke-miterlimit="10"/><path d="M279.622 188.273l-1.882-77.089 4.07-2.486 1.934 80.083c.051 1.369-1.17 2.282-1.883 2.688-.814.507-.356-1.674-.967-1.319.916-.558-1.221-.355-1.272-1.877z" fill="url(#paint5_linear)"/><path d="M150.638 36.934c-.101-.05-.254-.05-.356-.102-.102 0-.152-.05-.254-.05-.051 0-.153-.051-.204-.051-.102 0-.152-.05-.254-.05-.051 0 .712-1.066.661-1.066-.101 0 1.73-1.065 1.73-1.065.102-.05.153-.101.255-.152h.152c.051-.05.102-.05.102-.05.051 0 .102-.051.153-.051h.152c.102-.051.204-.051.306-.051h.865c.051 0 .101 0 .203.05h.102c.051 0 .051 0 .102.051.101.051.203.051.356.102.051 0 .102.05.153.05l.05.051c.204.102.407.152.611.305l121.048 65.424c.153.102.305.203.509.305.051 0 .102.05.153.101.101.051.203.152.305.254.051.05.102.101.153.101.101.051.203.152.305.254l.153.152c.05.051.101.051.101.101l.102.102.305.304.102.101.102.102c.051.051.102.152.203.253.051.051.102.102.102.153.051.05.051.101.102.101.051.051.102.152.153.203.05.051.05.101.101.101.051.102.102.153.153.254.051.051.051.101.102.152 0 0 0 .051.051.051.101.152.203.253.254.406 0 0 0 .05.051.05v.051c.051.101.153.203.203.304.051.051.051.102.102.152 0 .051.051.102.051.153 0 .05.051.101.051.152.051.101.153.253.153.355 0 0 0 .051.05.051.051.152.102.304.204.456 0 .051.051.051.051.101 0 .051.051.102.051.153 0 .101.051.152.102.202.05.051.05.153.05.203 0 .051.051.102.051.152 0 .051.051.102.051.153.051.05.051.152.051.253 0 .102.051.152.051.254 0 .05 0 .05.051.101 0 .051 0 .102.051.203.051.101.051.254.101.406 0 .05 0 .05.051.101 0 .102 0 .152.051.254v.152c0 .203.051.355.051.558l-4.07 2.485c0-.203 0-.355-.051-.558v-.203c0-.101-.051-.203-.051-.355-.051-.152-.051-.253-.102-.406 0-.101-.051-.202-.051-.253 0-.102-.051-.152-.051-.254-.051-.101-.051-.253-.101-.355 0-.05-.051-.152-.051-.203-.051-.152-.102-.253-.153-.405 0-.051-.051-.102-.051-.152-.051-.203-.153-.356-.254-.558 0 0 0-.051-.051-.051-.051-.152-.153-.304-.255-.457-.05-.05-.05-.101-.05-.152-.102-.152-.153-.304-.255-.456-.051 0-.051-.051-.051-.102-.102-.152-.203-.355-.305-.507-.051-.05-.051-.101-.102-.152-.102-.101-.152-.253-.254-.355l-.153-.152c-.102-.102-.153-.203-.254-.254-.051-.101-.153-.152-.204-.253l-.203-.203-.357-.355c-.05-.102-.152-.152-.203-.203l-.153-.152c-.101-.102-.203-.152-.305-.254l-.153-.152a1.066 1.066 0 00-.305-.203c-.051-.05-.102-.05-.153-.101l-.458-.304-121.048-65.476-.61-.304c-.102 0-.153 0-.255-.051z" fill="url(#paint6_linear)"/><path d="M154.045 35.666c-2.799-1.521-4.987-.203-4.936 2.942l1.883 77.09c.051 3.144 2.391 6.897 5.19 8.419l121.353 65.627c2.799 1.522 4.987-.355 4.885-3.499l-1.883-76.532c-.051-3.145-2.391-6.898-5.19-8.419L154.045 35.666z" fill="url(#paint7_linear)"/><path d="M155.893 40.58l116.469 62.991c2.544 1.369 4.63 4.818 4.732 7.658l1.679 69.99c.051 2.89-1.933 4.057-4.477 2.688l-116.418-62.991c-2.544-1.369-4.631-4.818-4.732-7.658l-1.679-69.99c-.102-2.84 1.933-4.057 4.426-2.688z" fill="url(#paint8_radial)"/><path d="M199.173 213.632c1.527-.964 4.071-1.014 5.648-.152l5.496 3.043c1.577.862 1.628 2.333.101 3.246-1.526.963-4.07 1.014-5.648.152l-5.495-3.043c-1.628-.862-1.628-2.333-.102-3.246z" fill="url(#paint9_linear)"/><path d="M186.353 206.936c1.526-.963 4.07-1.014 5.648-.152l5.495 3.043c1.577.862 1.628 2.333.051 3.246-1.526.964-4.071 1.015-5.648.152l-5.495-3.043c-1.578-.811-1.578-2.282-.051-3.246z" fill="url(#paint10_linear)"/><path d="M122.086 149.475l12.11-7.405c1.374-.812 3.562-.862 4.987-.152l11.092 6.035c1.374.761 1.425 2.029.051 2.891l-12.11 7.405c-1.374.811-3.613.912-4.987.152l-11.092-6.036c-1.374-.76-1.424-2.079-.051-2.89z" fill="url(#paint11_linear)"/><path d="M144.274 136.136c1.679-1.014 4.427-1.116 6.157-.152l102.374 55.738c1.73.913 1.73 2.536.051 3.55-1.679 1.014-4.427 1.116-6.157.152l-102.323-55.738c-1.73-.913-1.781-2.536-.102-3.55z" fill="url(#paint12_linear)"/><path d="M112.269 155.055c1.679-1.015 4.427-1.116 6.157-.152L220.8 210.641c1.73.912 1.73 2.535.102 3.55-1.679 1.014-4.427 1.116-6.157.152L112.32 158.605c-1.679-.913-1.73-2.536-.051-3.55z" fill="url(#paint13_linear)"/><path d="M152.412 152.366c1.679-1.015 4.426-1.116 6.156-.153l84.465 45.646c1.729.913 1.78 2.536.05 3.55-1.679 1.014-4.426 1.116-6.156.152l-84.464-45.645c-1.73-.913-1.73-2.536-.051-3.55z" fill="url(#paint14_linear)"/><path d="M119.187 170.371c1.679-1.015 4.426-1.116 6.156-.152l59.532 32.103c1.73.964 1.73 2.536.051 3.551-1.679 1.014-4.427 1.115-6.157.152l-59.531-32.104c-1.73-.913-1.73-2.536-.051-3.55z" fill="url(#paint15_linear)"/><path d="M142.285 159.567c1.68-1.014 4.427-1.065 6.157-.152l84.006 45.544c1.73.913 1.781 2.535.102 3.55-1.679 1.014-4.427 1.116-6.157.152l-84.057-45.544c-1.679-.913-1.73-2.485-.051-3.55z" fill="url(#paint16_linear)"/><path d="M105.6 163.32c1.679-1.014 4.427-1.116 6.106-.152l4.783 2.586c1.73.913 1.73 2.536.051 3.55-1.68 1.015-4.427 1.116-6.157.153l-4.732-2.587c-1.679-.964-1.73-2.536-.051-3.55z" fill="url(#paint17_linear)"/><path d="M199.178 212.771c1.526-.913 4.07-1.015 5.648-.152l5.495 3.043c1.577.862 1.628 2.333.051 3.246-1.527.963-4.071 1.014-5.648.152l-5.495-3.043c-1.578-.812-1.628-2.283-.051-3.246z" fill="url(#paint18_linear)"/><path d="M186.306 206.126c1.527-.963 4.071-1.014 5.648-.152l5.495 3.043c1.578.862 1.628 2.333.051 3.246-1.526.913-4.07 1.014-5.648.152l-5.495-3.043c-1.577-.862-1.577-2.282-.051-3.246z" fill="url(#paint19_linear)"/><path d="M122.039 148.664l12.11-7.405c1.374-.811 3.562-.862 4.986-.152l11.042 6.035c1.374.761 1.425 2.08.051 2.891l-12.059 7.405c-1.323.811-3.613.913-4.987.152l-11.092-6.035c-1.374-.761-1.374-2.08-.051-2.891z" fill="url(#paint20_linear)"/><path d="M144.278 135.326c1.68-1.014 4.427-1.116 6.157-.152l102.375 55.738c1.73.913 1.73 2.536.05 3.55-1.679 1.014-4.426 1.116-6.156.152l-102.375-55.738c-1.73-.963-1.73-2.536-.051-3.55z" fill="url(#paint21_linear)"/><path d="M112.221 154.191c1.679-1.014 4.427-1.115 6.157-.152l102.374 55.738c1.73.913 1.781 2.536.102 3.55-1.679 1.015-4.427 1.116-6.157.153l-102.374-55.688c-1.73-.963-1.781-2.535-.102-3.601z" fill="url(#paint22_linear)"/><path d="M152.372 151.556c1.679-1.065 4.427-1.116 6.157-.152l84.464 45.645c1.73.913 1.78 2.536.051 3.55-1.68 1.015-4.427 1.116-6.157.152l-84.464-45.645c-1.679-.913-1.73-2.536-.051-3.55z" fill="url(#paint23_linear)"/><path d="M119.145 169.559c1.679-1.014 4.426-1.116 6.156-.152l59.532 32.104c1.73.913 1.73 2.536.102 3.55-1.679 1.014-4.427 1.065-6.157.152l-59.532-32.104c-1.73-.963-1.78-2.536-.101-3.55z" fill="url(#paint24_linear)"/><path d="M142.292 158.757c1.679-1.014 4.427-1.116 6.157-.152l84.057 45.544c1.73.913 1.73 2.536.102 3.55-1.679 1.014-4.427 1.116-6.157.152l-84.057-45.544c-1.73-.913-1.781-2.536-.102-3.55z" fill="url(#paint25_linear)"/><path d="M105.607 162.459c1.679-1.014 4.426-1.115 6.105-.152l4.783 2.587c1.73.913 1.73 2.536.102 3.55-1.679 1.014-4.427 1.065-6.157.152l-4.732-2.587c-1.73-.912-1.781-2.535-.101-3.55z" fill="url(#paint26_linear)"/><path opacity=".1" d="M156.078 40.636l24.149 12.618 22.134 91.24-44.349-23.573c-2.544-1.369-4.63-4.767-4.681-7.658l-1.679-69.99c-.102-2.84 1.882-4.006 4.426-2.637z" fill="url(#paint27_linear)"/><g opacity=".7"><g opacity=".8"><path opacity=".048" d="M138.725 171.081c8.701 2.739 18.725 7.202 28.29 12.629 9.515 5.426 17.656 11.259 22.897 16.483 6.055 6.035 7.734 10.802 4.631 13.135-3.104 2.384-10.686 1.978-20.862-1.217a119.357 119.357 0 01-10.126-3.702c-5.953-2.485-12.16-5.528-18.164-8.926-9.566-5.427-17.707-11.31-22.948-16.484-6.106-6.035-7.734-10.752-4.681-13.135 3.002-2.384 10.634-2.029 20.963 1.217z" fill="#F7F6FB"/></g></g><g opacity=".5"><path opacity=".6" d="M187.354 88.373l39.738 23.195 1.42-2.489-39.766-23.145-1.392 2.44zm-10.555 21.968l39.739 23.194 1.42-2.489-39.767-23.145-1.392 2.44zm2.112-22.427l39.284 23.075 1.42-2.489-39.326-23-1.378 2.414zm-10.554 21.968l39.284 23.074 1.421-2.488-39.327-23.001-1.378 2.415zm8.641-18.616l39.228 23.173 1.42-2.489-39.27-23.1-1.378 2.416zm-18.802-6.66l38.176 22.66 1.392-2.439-38.204-22.611-1.364 2.39zm-1.884 3.302l38.105 22.783 1.407-2.464-38.148-22.71-1.364 2.39zm-2.013 3.564l38.063 22.858 1.392-2.44-38.091-22.808-1.364 2.39zm55.938 5.703l27.986 16.229 1.434-2.513-28.014-16.18-1.406 2.464zm-10.553 21.968l27.986 16.229 1.434-2.514-28.014-16.179-1.406 2.464zm-7.398-45.827l35.766 20.4 1.42-2.488-35.794-20.351-1.392 2.44zm-9.852-1.199l35.298 20.24 1.406-2.463-35.326-20.191-1.378 2.414zm-1.913 3.351l35.241 20.339 1.42-2.489-35.283-20.265-1.378 2.415z" fill="#fff"/></g><path opacity=".3" d="M51.27 166.645v-72.7m3.942-41.716v16.936" stroke="#06EDE1"/><path fill="url(#paint28_linear)" d="M28 20.834h8.04v7.863H28z"/><path fill="url(#paint29_linear)" d="M58.925 66.748h5.566v5.444h-5.566z"/><path fill="url(#paint30_linear)" d="M58.925 58.886h3.711v3.629h-3.711z"/><path opacity=".3" d="M270.777 182.052v-72.699M122.105-27.908v37.5m0 56.248v16.936" stroke="#06EDE1"/><path transform="matrix(-1 0 0 1 110.354 -7.343)" fill="url(#paint31_linear)" d="M0 0h8.04v7.863H0z"/><path transform="matrix(-1 0 0 1 149.317 26.528)" fill="url(#paint32_linear)" d="M0 0h8.04v7.863H0z"/><path transform="matrix(-1 0 0 1 118.393 80.36)" fill="url(#paint33_linear)" d="M0 0h5.566v5.444H0z"/><path transform="matrix(-1 0 0 1 118.393 72.499)" fill="url(#paint34_linear)" d="M0 0h3.711v3.629H0z"/><path d="M101.311 62.065a1.75 1.75 0 00-1.386.252L89.72 68.241c.378-.252.756-.252 1.385-.252 3.654.504 7.055.504 10.583-1.513l10.204-5.923c-3.402 2.016-6.803 2.016-10.582 1.512z" fill="url(#paint35_linear)"/><path d="M153.202 167.053l10.204-5.924c15.243-8.823 21.668-26.09 24.313-41.467l-10.204 5.924c-2.645 15.503-9.07 32.644-24.313 41.467z" fill="#9AA9AD"/><path d="M91.734 68.114C100.3 69.5 106.6 64.963 108.741 56.14c.378-1.764 1.763-2.395 3.527-1.764 8.062 3.024 16.377 6.932 24.817 11.847a218.224 218.224 0 0126.455 18.023c1.637 1.387 3.023 3.656 3.527 5.798 2.142 11.218 8.44 22.939 16.881 31.384l.63.63c1.637 1.638 2.645 4.033 2.393 5.924l-.126.63c-3.149 23.317-13.731 51.801-46.737 55.582-.755.126-1.637-.126-2.519-.63-.882-.504-1.764-1.26-2.52-2.268-32.753-41.845-43.209-82.555-46.232-109.401l-.126-.756c-.252-2.143.756-3.403 2.393-3.151l.63.126z" fill="#fff"/><path d="M113.025 57.78c-1.133-.631-2.141-.127-2.141 1.26 0 1.386.882 3.025 2.141 3.655 1.134.63 2.142.126 2.142-1.26 0-1.261-.882-2.9-2.142-3.656z" fill="#00D0CD"/><path d="M197.172 121.932c.252-2.017-.882-4.411-2.394-5.924-20.66-22.56-14.109-32.391-20.912-37.811-8.692-6.806-17.636-12.856-26.454-18.024-3.024-1.638-24.44-13.486-27.211-11.847-3.401 2.017-6.803 4.033-10.204 5.924 2.897-1.639 24.187 10.083 27.211 11.847 4.283 2.521 26.832 16.133 29.352 21.805.126.126.126.252.252.504.756 2.017 1.007 6.302 4.409 13.864 8.188 18.402 16.754 18.906 15.747 26.09-2.394 17.897-9.197 38.82-27.211 49.407l10.204-5.924c16.755-9.831 25.699-31.635 27.211-49.911z" fill="url(#paint36_linear)"/><path d="M181.429 123.569c-1.134-.63-2.141-.126-2.141 1.261 0 1.386.881 3.025 2.141 3.655 1.134.63 2.142.126 2.142-1.261 0-1.26-.882-2.898-2.142-3.655zm-18.262-36.551c-1.134-.63-2.142-.126-2.142 1.26 0 1.387.882 3.025 2.142 3.655 1.133.63 2.141.126 2.141-1.26 0-1.26-1.008-2.899-2.141-3.655zM93.116 71.896c-1.134-.63-2.141-.126-2.141 1.26 0 1.387.882 3.025 2.141 3.655 1.134.63 2.142.126 2.142-1.26 0-1.386-.882-3.025-2.142-3.655zm44.721 103.477c-1.133-.63-2.141-.126-2.141 1.261 0 1.386.882 3.025 2.141 3.655 1.134.63 2.142.126 2.142-1.261-.126-1.26-1.008-2.899-2.142-3.655z" fill="#00D0CD"/><path d="M137.717 172.475c26.706-4.16 36.532-26.972 39.808-46.886-8.567-9.831-15.117-22.183-18.141-34.409-7.306-5.545-14.865-10.587-22.297-14.872-6.929-4.033-13.983-7.436-20.534-10.083-3.023 8.823-9.7 13.612-18.392 13.486 3.149 23.695 12.849 57.725 39.556 92.764z" fill="url(#paint37_linear)"/></g><defs><linearGradient id="paint0_linear" x1="203.169" y1="200.728" x2="81.398" y2="204.026" gradientUnits="userSpaceOnUse"><stop stop-color="#7162C8"/><stop offset=".63" stop-color="#654BB7"/><stop offset="1" stop-color="#5D3BAB"/></linearGradient><linearGradient id="paint1_linear" x1="203.483" y1="213.098" x2="283.748" y2="210.924" gradientUnits="userSpaceOnUse"><stop stop-color="#7162C8"/><stop offset=".63" stop-color="#654BB7"/><stop offset="1" stop-color="#5D3BAB"/></linearGradient><linearGradient id="paint2_linear" x1="203.019" y1="199.235" x2="81.249" y2="202.533" gradientUnits="userSpaceOnUse"><stop stop-color="#766DD4"/><stop offset=".426" stop-color="#7265CC"/><stop offset="1" stop-color="#7162C8"/></linearGradient><linearGradient id="paint3_linear" x1="283.598" y1="209.476" x2="203.343" y2="211.65" gradientUnits="userSpaceOnUse"><stop stop-color="#766DD4"/><stop offset=".417" stop-color="#9D82E3"/><stop offset=".786" stop-color="#B991EE"/><stop offset="1" stop-color="#C397F2"/></linearGradient><linearGradient id="paint4_linear" x1="249.074" y1="230.692" x2="114.065" y2="123.112" gradientUnits="userSpaceOnUse"><stop stop-color="#515AA5"/><stop offset=".157" stop-color="#515AA5"/><stop offset=".468" stop-color="#A79EDE"/><stop offset=".898" stop-color="#E5E3F8"/><stop offset="1" stop-color="#F5F5FF"/></linearGradient><linearGradient id="paint5_linear" x1="282.924" y1="150.087" x2="278.588" y2="150.204" gradientUnits="userSpaceOnUse"><stop stop-color="#7162C8"/><stop offset=".63" stop-color="#654BB7"/><stop offset="1" stop-color="#5D3BAB"/></linearGradient><linearGradient id="paint6_linear" x1="280.784" y1="70.957" x2="150.633" y2="74.481" gradientUnits="userSpaceOnUse"><stop stop-color="#7162C8"/><stop offset=".63" stop-color="#654BB7"/><stop offset="1" stop-color="#5D3BAB"/></linearGradient><linearGradient id="paint7_linear" x1="280.635" y1="110.971" x2="150.987" y2="114.482" gradientUnits="userSpaceOnUse"><stop stop-color="#CFCFFF"/><stop offset=".068" stop-color="#D4D4FF"/><stop offset=".356" stop-color="#E7E7FF"/><stop offset=".66" stop-color="#F1F1FF"/><stop offset="1" stop-color="#F5F5FF"/></linearGradient><linearGradient id="paint9_linear" x1="211.48" y1="216.508" x2="198.086" y2="216.871" gradientUnits="userSpaceOnUse"><stop stop-color="#766DD4"/><stop offset=".417" stop-color="#9D82E3"/><stop offset=".786" stop-color="#B991EE"/><stop offset="1" stop-color="#C397F2"/></linearGradient><linearGradient id="paint10_linear" x1="198.645" y1="209.853" x2="185.245" y2="210.216" gradientUnits="userSpaceOnUse"><stop stop-color="#766DD4"/><stop offset=".417" stop-color="#9D82E3"/><stop offset=".786" stop-color="#B991EE"/><stop offset="1" stop-color="#C397F2"/></linearGradient><linearGradient id="paint11_linear" x1="151.295" y1="149.77" x2="121.066" y2="150.589" gradientUnits="userSpaceOnUse"><stop stop-color="#766DD4"/><stop offset=".417" stop-color="#9D82E3"/><stop offset=".786" stop-color="#B991EE"/><stop offset="1" stop-color="#C397F2"/></linearGradient><linearGradient id="paint12_linear" x1="253.345" y1="164.248" x2="143.829" y2="167.213" gradientUnits="userSpaceOnUse"><stop stop-color="#766DD4"/><stop offset=".417" stop-color="#9D82E3"/><stop offset=".786" stop-color="#B991EE"/><stop offset="1" stop-color="#C397F2"/></linearGradient><linearGradient id="paint13_linear" x1="221.324" y1="183.156" x2="111.811" y2="186.122" gradientUnits="userSpaceOnUse"><stop stop-color="#766DD4"/><stop offset=".417" stop-color="#9D82E3"/><stop offset=".786" stop-color="#B991EE"/><stop offset="1" stop-color="#C397F2"/></linearGradient><linearGradient id="paint14_linear" x1="243.693" y1="175.691" x2="151.805" y2="178.179" gradientUnits="userSpaceOnUse"><stop stop-color="#766DD4"/><stop offset=".417" stop-color="#9D82E3"/><stop offset=".786" stop-color="#B991EE"/><stop offset="1" stop-color="#C397F2"/></linearGradient><linearGradient id="paint15_linear" x1="185.696" y1="187.233" x2="118.383" y2="189.056" gradientUnits="userSpaceOnUse"><stop stop-color="#766DD4"/><stop offset=".417" stop-color="#9D82E3"/><stop offset=".786" stop-color="#B991EE"/><stop offset="1" stop-color="#C397F2"/></linearGradient><linearGradient id="paint16_linear" x1="233.173" y1="182.842" x2="141.715" y2="185.319" gradientUnits="userSpaceOnUse"><stop stop-color="#766DD4"/><stop offset=".417" stop-color="#9D82E3"/><stop offset=".786" stop-color="#B991EE"/><stop offset="1" stop-color="#C397F2"/></linearGradient><linearGradient id="paint17_linear" x1="117.759" y1="166.104" x2="104.414" y2="166.466" gradientUnits="userSpaceOnUse"><stop stop-color="#766DD4"/><stop offset=".417" stop-color="#9D82E3"/><stop offset=".786" stop-color="#B991EE"/><stop offset="1" stop-color="#C397F2"/></linearGradient><linearGradient id="paint18_linear" x1="211.466" y1="215.686" x2="198.069" y2="216.048" gradientUnits="userSpaceOnUse"><stop stop-color="#F5F5FF"/><stop offset=".874" stop-color="#DEDEFF"/><stop offset="1" stop-color="#DADAFF"/></linearGradient><linearGradient id="paint19_linear" x1="198.624" y1="209.026" x2="185.226" y2="209.389" gradientUnits="userSpaceOnUse"><stop stop-color="#F5F5FF"/><stop offset=".874" stop-color="#DEDEFF"/><stop offset="1" stop-color="#DADAFF"/></linearGradient><linearGradient id="paint20_linear" x1="151.276" y1="148.942" x2="121.049" y2="149.761" gradientUnits="userSpaceOnUse"><stop stop-color="#F5F5FF"/><stop offset=".874" stop-color="#DEDEFF"/><stop offset="1" stop-color="#DADAFF"/></linearGradient><linearGradient id="paint21_linear" x1="253.327" y1="163.422" x2="143.814" y2="166.387" gradientUnits="userSpaceOnUse"><stop stop-color="#F5F5FF"/><stop offset=".874" stop-color="#DEDEFF"/><stop offset="1" stop-color="#DADAFF"/></linearGradient><linearGradient id="paint22_linear" x1="221.305" y1="182.325" x2="111.79" y2="185.291" gradientUnits="userSpaceOnUse"><stop stop-color="#F5F5FF"/><stop offset=".874" stop-color="#DEDEFF"/><stop offset="1" stop-color="#DADAFF"/></linearGradient><linearGradient id="paint23_linear" x1="243.681" y1="174.863" x2="151.794" y2="177.351" gradientUnits="userSpaceOnUse"><stop stop-color="#F5F5FF"/><stop offset=".874" stop-color="#DEDEFF"/><stop offset="1" stop-color="#DADAFF"/></linearGradient><linearGradient id="paint24_linear" x1="185.678" y1="186.404" x2="118.367" y2="188.227" gradientUnits="userSpaceOnUse"><stop stop-color="#F5F5FF"/><stop offset=".874" stop-color="#DEDEFF"/><stop offset="1" stop-color="#DADAFF"/></linearGradient><linearGradient id="paint25_linear" x1="233.156" y1="182.016" x2="141.697" y2="184.492" gradientUnits="userSpaceOnUse"><stop stop-color="#F5F5FF"/><stop offset=".874" stop-color="#DEDEFF"/><stop offset="1" stop-color="#DADAFF"/></linearGradient><linearGradient id="paint26_linear" x1="117.746" y1="165.279" x2="104.398" y2="165.64" gradientUnits="userSpaceOnUse"><stop stop-color="#F5F5FF"/><stop offset=".874" stop-color="#DEDEFF"/><stop offset="1" stop-color="#DADAFF"/></linearGradient><linearGradient id="paint27_linear" x1="151.659" y1="92.289" x2="202.335" y2="92.289" gradientUnits="userSpaceOnUse"><stop offset=".5" stop-color="#fff"/><stop offset="1" stop-color="#B7B6B6"/></linearGradient><linearGradient id="paint28_linear" x1="32.33" y1="16.6" x2="32.33" y2="32.628" gradientUnits="userSpaceOnUse"><stop stop-color="#06EDE1"/><stop offset="1" stop-color="#06EDE1" stop-opacity="0"/></linearGradient><linearGradient id="paint29_linear" x1="61.923" y1="63.817" x2="61.923" y2="74.914" gradientUnits="userSpaceOnUse"><stop stop-color="#06EDE1"/><stop offset="1" stop-color="#06EDE1" stop-opacity="0"/></linearGradient><linearGradient id="paint30_linear" x1="60.923" y1="56.932" x2="60.923" y2="64.33" gradientUnits="userSpaceOnUse"><stop stop-color="#06EDE1"/><stop offset="1" stop-color="#06EDE1" stop-opacity="0"/></linearGradient><linearGradient id="paint31_linear" x1="4.329" y1="-4.234" x2="4.329" y2="11.794" gradientUnits="userSpaceOnUse"><stop stop-color="#06EDE1"/><stop offset="1" stop-color="#06EDE1" stop-opacity="0"/></linearGradient><linearGradient id="paint32_linear" x1="4.329" y1="-4.234" x2="4.329" y2="11.794" gradientUnits="userSpaceOnUse"><stop stop-color="#06EDE1"/><stop offset="1" stop-color="#06EDE1" stop-opacity="0"/></linearGradient><linearGradient id="paint33_linear" x1="2.997" y1="-2.931" x2="2.997" y2="8.165" gradientUnits="userSpaceOnUse"><stop stop-color="#06EDE1"/><stop offset="1" stop-color="#06EDE1" stop-opacity="0"/></linearGradient><linearGradient id="paint34_linear" x1="1.998" y1="-1.954" x2="1.998" y2="5.444" gradientUnits="userSpaceOnUse"><stop stop-color="#06EDE1"/><stop offset="1" stop-color="#06EDE1" stop-opacity="0"/></linearGradient><linearGradient id="paint35_linear" x1="81.175" y1="64.394" x2="124.804" y2="64.394" gradientUnits="userSpaceOnUse"><stop stop-color="#03D9FE"/><stop offset="1" stop-color="#5A54CE"/></linearGradient><linearGradient id="paint36_linear" x1="99.796" y1="87.632" x2="173.424" y2="130.639" gradientUnits="userSpaceOnUse"><stop stop-color="#00D0CD"/><stop offset="1" stop-color="#515AA5"/></linearGradient><linearGradient id="paint37_linear" x1="98.1" y1="119.32" x2="177.542" y2="119.32" gradientUnits="userSpaceOnUse"><stop stop-color="#F7DA5C"/><stop offset="1" stop-color="#F15DAB"/></linearGradient><radialGradient id="paint8_radial" cx="0" cy="0" r="1" gradientUnits="userSpaceOnUse" gradientTransform="scale(63.6556 72.2305) rotate(90 .913 2.467)"><stop stop-color="#515AA5"/><stop offset=".5" stop-color="#515AA5"/><stop offset="1" stop-color="#33425A"/></radialGradient><clipPath id="clip0"><path fill="#fff" d="M0 0h336v251H0z"/></clipPath></defs></svg>