<svg width="21" height="21" fill="none" xmlns="http://www.w3.org/2000/svg"><g clip-path="url(#clip0)" fill="#fff"><path d="M5.129 20.326A.66.66 0 014.45 21H1.355a.66.66 0 01-.678-.674V7.61a.66.66 0 01.678-.674h3a.66.66 0 01.677.674l.097 12.716zM2.903 5.78a2.897 2.897 0 002.903-2.89c0-1.596-1.3-2.89-2.903-2.89A2.897 2.897 0 000 2.89c0 1.596 1.3 2.89 2.903 2.89zM21 20.422a.66.66 0 01-.677.674h-3.29a.66.66 0 01-.678-.674V14.45c0-.867.29-3.854-2.323-3.854-2.032 0-2.42 2.023-2.516 2.987v6.84a.66.66 0 01-.677.673H7.742a.66.66 0 01-.678-.674V7.61a.66.66 0 01.678-.674h3.193a.66.66 0 01.678.674v1.06c.774-1.156 1.838-1.927 4.161-1.927C21 6.743 21 11.56 21 14.257v6.165z"/></g><defs><clipPath id="clip0"><path fill="#fff" d="M0 0h21v21H0z"/></clipPath></defs></svg>