<svg width="204" height="18" fill="none" xmlns="http://www.w3.org/2000/svg"><g opacity=".5" clip-path="url(#clip0)" fill="#fff"><path d="M28.08.313v7.122H3.468V.313H0v17.335h3.468v-7.122H28.08v7.122h3.51V.313h-3.51zm15.879 0l-9.151 17.335h4.053l8.106-15.926 8.107 15.926h4.053L49.934.313H43.96zM63.89 3.404V9c0 4.07 2.048 5.556 6.06 5.556h13.79v3.092H69.907c-6.519-.04-9.57-3.13-9.57-8.687V3.404L63.892.313H83.74v3.091H63.891zM102.167.313l-5.14 7.122h-5.766V.313h-3.468v17.335h3.468v-7.122h6.017l5.307 7.122h4.262l-6.685-8.844 6.226-8.491h-4.221zm6.979 0v3.091h6.894v14.244h3.468V3.404h6.895V.313h-17.257zM148.591 9c0-4.304-1.88-5.909-6.477-5.909h-3.384c-4.597 0-6.477 1.605-6.477 5.909 0 4.265 1.88 5.87 6.477 5.87h3.384c4.639 0 6.477-1.605 6.477-5.87zm3.636 0c-.042 5.791-2.842 9-10.113 9h-3.384c-7.229 0-10.071-3.209-10.071-9 0-5.83 2.842-9 10.071-9h3.384c7.271 0 10.113 3.17 10.113 9zm24.236 8.648l-3.552-6.065h-13.455v6.065h-3.51V8.49h16.631c2.758 0 3.343-1.213 3.343-2.543s-.543-2.544-3.343-2.544h-16.631V.313h16.631c3.844 0 6.895 1.448 6.895 5.635 0 2.582-1.212 4.148-3.009 4.97l4.137 6.769h-4.137v-.04zM199.947.313l-7.313 9.47-7.27-9.47h-4.095l9.61 12.052v5.283h3.51v-5.283L204 .313h-4.053z"/></g><defs><clipPath id="clip0"><path fill="#fff" d="M0 0h204v18H0z"/></clipPath></defs></svg>