<svg width="390" height="264" fill="none" xmlns="http://www.w3.org/2000/svg"><g clip-path="url(#clip0)"><path d="M113.369 183.091l.057.057.456.455s.057 0 .057.057c.228.227.514.398.799.626.057.056.057.057.114.057.285.227.628.455.913.682 0 0 .057 0 .057.057a18 18 0 001.084.683c.342.227.742.455 1.084.626.057.056.114.056.171.056.571.342 1.141.626 1.712.968h.057c.285.17.628.341.913.512.685.341 1.312.682 1.997 1.024l.684.341c.058.057.115.057.172.114.228.114.513.227.741.398.057 0 .114.057.114.057.229.114.514.284.742.398l109.945 59.85c6.561 3.584 10.612 6.031 13.864 6.998.514.17 1.084.284 1.541.341l.228 6.486c-.514-.057-1.027-.228-1.541-.342-3.309-.967-7.36-3.413-13.864-6.997l-109.888-59.793a11.293 11.293 0 00-.855-.455 235.19 235.19 0 00-3.88-1.992c-.114-.056-.285-.113-.457-.227-.171-.057-.342-.171-.513-.285a2.687 2.687 0 00-.571-.284c-.114-.057-.171-.114-.285-.171-.228-.114-.456-.227-.685-.398-.057 0-.114-.057-.114-.057h-.057c-.342-.171-.684-.398-1.027-.626 0 0-.057-.057-.114-.057-.342-.227-.684-.455-1.027-.625-.057 0-.057-.057-.114-.057-.285-.228-.627-.398-.913-.626-.057 0-.057-.057-.114-.057-.285-.171-.57-.455-.799-.626l-.057-.057s0-.057-.057-.057c-.171-.113-.285-.284-.456-.398l-.114-.114-.343-.341-.057-.057s0-.057-.057-.057l-.114-.113c-.057-.057-.114-.114-.114-.171-.057-.057-.057-.114-.114-.171 0-.057-.057-.114-.057-.114v-.057a1.687 1.687 0 01-.228-.455v-.057c-.057-.113-.057-.17-.114-.284v-.114c0-.114 0-.17-.058-.227v-.171c-.228-4.381 1.142-4.267 1.256-4.153zM251.5 257.616c.171 0 .342 0 .57.057h.97c.172-.057.343-.057.457-.057.171-.057.342-.057.513-.114l.685-.171c.285-.057.628-.227.913-.341.627-.285 1.255-.569 1.883-1.024l78.792-48.187c1.94-1.195 3.081-1.992 3.081-2.959l.171 6.486c.058.967-1.141 1.764-3.08 2.958l-78.793 48.188c-.685.398-1.312.739-1.94 1.024-.342.113-.628.227-.913.341-.228.057-.456.114-.627.171-.172.056-.343.057-.514.113-.171.057-.342.057-.513.057-.172 0-.286 0-.457.057h-1.027c-.228 0-.513-.057-.742-.114l-.228-6.485c.343-.057.571-.057.799 0z" fill="#7A9DC4"/><path d="M113.196 181.435l.057.057c.171.114.285.284.456.455l.057.057c.229.17.514.398.799.626.057 0 .057.056.114.056.286.228.628.456.913.626 0 0 .057 0 .057.057.343.228.685.455 1.084.683.343.227.742.455 1.084.626.057 0 .114.057.171.113.571.342 1.142.626 1.712.911 0 0 .057 0 .057.057.285.17.628.341.913.455.685.341 1.312.682 1.997 1.024l.685.341c.057.057.114.057.171.114.228.114.513.284.742.398.057 0 .114.057.114.057.228.114.513.285.741.398l109.945 59.85c6.561 3.584 10.612 6.031 13.864 6.998.514.17 1.084.284 1.541.341l.171 6.543a7.483 7.483 0 01-1.541-.342c-3.309-.967-7.36-3.47-13.864-6.997l-109.83-59.85c-.286-.171-.514-.285-.799-.455a231.268 231.268 0 00-3.88-1.992c-.114-.056-.285-.17-.399-.227-.171-.114-.343-.171-.514-.285a2.704 2.704 0 00-.57-.284c-.114-.057-.171-.114-.286-.171a4.17 4.17 0 01-.684-.398c-.057-.057-.114-.057-.114-.057l-.057-.057c-.343-.227-.685-.398-1.027-.626 0 0-.057-.056-.115-.056-.342-.228-.684-.456-1.026-.626-.058-.057-.058-.057-.115-.057-.285-.228-.627-.398-.912-.626-.058 0-.058-.057-.115-.057-.285-.227-.513-.455-.798-.626 0 0-.057 0-.057-.057 0 0 0-.056-.057-.056-.172-.114-.286-.285-.457-.399 0-.057-.057-.057-.114-.113l-.342-.342-.057-.057c0-.057 0-.057-.057-.057-.058-.056-.058-.113-.115-.113-.057-.057-.057-.114-.114-.171-.057-.057-.057-.114-.114-.114 0-.057-.057-.057-.057-.114v-.056a1.707 1.707 0 01-.228-.456v-.056c-.057-.114-.057-.171-.114-.285v-.512c-.4-4.381.97-4.21 1.084-4.096zm138.135 74.472h1.484c.171 0 .342-.057.456-.057.171 0 .343-.057.514-.114.228-.057.456-.114.627-.171.286-.057.628-.227.97-.341a15.305 15.305 0 001.883-1.024l78.793-48.187c1.94-1.195 3.081-1.991 3.081-2.959l.171 6.543c.057.967-1.141 1.764-3.081 2.958l-78.793 48.188c-.684.398-1.312.739-1.94 1.024-.342.113-.627.227-.913.341l-.684.171c-.171.056-.343.056-.514.113-.171.057-.342.057-.456.057-.171 0-.285.057-.457.057h-.513c-.171 0-.342 0-.571-.057-.228 0-.513-.057-.741-.114l-.172-6.542c.4.057.628.114.856.114z" fill="#7A9DC4"/><path d="M114.111 180.248c-6.904 4.21 4.793 8.989 11.183 12.459l109.944 59.85c12.495 6.827 15.919 9.615 22.195 5.746l78.792-48.187c5.535-3.357 4.622-3.812-11.239-12.459L215.098 137.75c-12.837-6.941-15.918-9.558-22.194-5.746l-78.793 48.244z" fill="#7A9DC4"/><path d="M335.54 207.785l-2.111-86.475 4.565-2.788 2.168 89.832c.057 1.536-1.312 2.56-2.111 3.016-.913.568-.4-1.878-1.084-1.48 1.027-.625-1.37-.398-1.427-2.105z" fill="#7A9DC4"/><path d="M190.909 38.015c-.114-.057-.285-.057-.399-.114-.114 0-.171-.056-.285-.056-.057 0-.171-.057-.229-.057-.114 0-.171-.057-.285-.057-.057 0 .799-1.195.742-1.195-.114 0 1.94-1.195 1.94-1.195.114-.056.171-.113.285-.17h.171c.057-.057.114-.057.114-.057.057 0 .114-.057.171-.057h.172c.114-.057.228-.057.342-.057h.97a.43.43 0 01.228.057h.114c.057 0 .057 0 .114.057.114.057.229.057.4.114.057 0 .114.056.171.056l.057.057c.228.114.456.171.685.342l135.733 73.39c.171.114.342.227.571.341.057 0 .114.057.171.114.114.057.228.171.342.284.057.057.114.114.171.114.114.057.228.171.343.285l.171.17c.057.057.114.057.114.114l.114.114.342.341a493797969563.6 493797969563.6 0 01.229.228c.057.057.114.17.228.284.057.057.114.114.114.171.057.057.057.114.114.114.057.057.114.17.171.227.057.057.057.114.114.114.057.114.114.171.171.285.057.056.057.113.115.17 0 0 0 .057.057.057.114.171.228.285.285.455 0 0 0 .057.057.057v.057c.057.114.171.228.228.341.057.057.057.114.114.171 0 .057.057.114.057.171 0 .057.057.114.057.17.057.114.171.285.171.399 0 0 0 .057.058.057.057.17.114.341.228.512 0 .056.057.056.057.113s.057.114.057.171c0 .114.057.171.114.228.057.056.057.17.057.227 0 .057.057.114.057.171 0 .057.057.114.057.17.057.057.057.171.057.285 0 .114.057.171.057.284 0 .057 0 .057.057.114 0 .057 0 .114.057.228s.057.284.114.455c0 .057 0 .057.058.114 0 .113 0 .17.057.284v.171c0 .227.057.398.057.626l-4.565 2.787c0-.227 0-.398-.057-.626v-.227c0-.114-.057-.228-.057-.398-.057-.171-.057-.285-.114-.455 0-.114-.057-.228-.057-.285 0-.114-.057-.171-.057-.284-.057-.114-.057-.285-.114-.399 0-.056-.057-.17-.057-.227-.057-.171-.114-.285-.171-.455 0-.057-.057-.114-.057-.171-.057-.228-.172-.398-.286-.626 0 0 0-.057-.057-.057-.057-.17-.171-.341-.285-.512-.057-.057-.057-.113-.057-.17-.114-.171-.171-.342-.285-.512-.057 0-.057-.057-.057-.114-.115-.171-.229-.398-.343-.569-.057-.057-.057-.114-.114-.171-.114-.114-.171-.284-.285-.398l-.171-.171c-.114-.113-.171-.227-.286-.284-.057-.114-.171-.171-.228-.285l-.228-.227-.399-.398c-.057-.114-.172-.171-.229-.228l-.171-.171c-.114-.113-.228-.17-.342-.284l-.171-.171c-.114-.114-.229-.17-.343-.227-.057-.057-.114-.057-.171-.114l-.513-.341-135.734-73.448-.684-.34c-.114 0-.172 0-.286-.058z" fill="#7A9DC4"/><path d="M194.727 36.585c-3.138-1.706-5.591-.227-5.534 3.3l2.111 86.475c.057 3.527 2.682 7.737 5.82 9.444l136.075 73.618c3.138 1.707 5.592-.398 5.478-3.926l-2.111-85.849c-.057-3.527-2.682-7.737-5.82-9.444L194.727 36.585z" fill="#7A9DC4"/><path d="M196.808 42.108l130.598 70.66c2.853 1.536 5.192 5.404 5.306 8.59l1.883 78.51c.057 3.243-2.168 4.552-5.021 3.016l-130.541-70.66c-2.853-1.536-5.192-5.404-5.306-8.59l-1.883-78.51c-.114-3.187 2.168-4.552 4.964-3.016zm48.52 194.111c1.712-1.08 4.565-1.137 6.333-.17l6.162 3.413c1.769.967 1.826 2.617.114 3.641-1.711 1.081-4.564 1.138-6.333.171l-6.162-3.413c-1.825-.968-1.825-2.617-.114-3.642zm-14.375-7.499c1.711-1.081 4.564-1.138 6.333-.171l6.162 3.414c1.768.967 1.825 2.617.057 3.641-1.712 1.081-4.565 1.138-6.333.171l-6.162-3.414c-1.769-.91-1.769-2.56-.057-3.641zm-72.051-64.454l13.579-8.306c1.541-.91 3.994-.967 5.592-.171l12.438 6.77c1.54.854 1.597 2.276.057 3.243l-13.579 8.306c-1.541.911-4.051 1.024-5.592.171l-12.438-6.77c-1.54-.854-1.597-2.333-.057-3.243zm24.875-14.969c1.882-1.138 4.963-1.252 6.903-.171l114.794 62.524c1.94 1.024 1.94 2.844.058 3.982-1.883 1.138-4.964 1.252-6.904.171l-114.737-62.524c-1.94-1.024-1.997-2.844-.114-3.982zm-35.888 21.222c1.883-1.138 4.964-1.252 6.904-.171l114.794 62.524c1.94 1.024 1.94 2.845.114 3.982-1.882 1.138-4.963 1.252-6.903.171l-114.852-62.524c-1.882-1.024-1.939-2.844-.057-3.982zm45.012-3.007c1.883-1.138 4.964-1.252 6.903-.171l94.711 51.202c1.94 1.024 1.997 2.845.057 3.983-1.882 1.138-4.963 1.251-6.903.17l-94.711-51.202c-1.94-1.024-1.94-2.845-.057-3.982zm-37.262 20.171c1.883-1.138 4.964-1.251 6.903-.17l66.755 36.012c1.939 1.081 1.939 2.845.057 3.982-1.883 1.138-4.964 1.252-6.904.171l-66.754-36.012c-1.94-1.024-1.94-2.845-.057-3.983zm25.911-12.104c1.883-1.137 4.964-1.194 6.904-.17l94.197 51.088c1.94 1.024 1.997 2.845.114 3.983s-4.963 1.251-6.903.17l-94.255-51.088c-1.883-1.024-1.94-2.788-.057-3.983zm-41.141 4.198c1.883-1.138 4.964-1.251 6.846-.171l5.364 2.902c1.939 1.024 1.94 2.845.057 3.982-1.883 1.138-4.964 1.252-6.904.171l-5.306-2.901c-1.883-1.081-1.94-2.845-.057-3.983z" fill="#7A9DC4"/><path d="M245.342 235.253c1.712-1.024 4.565-1.138 6.333-.17l6.162 3.413c1.769.967 1.826 2.617.057 3.641-1.711 1.081-4.564 1.138-6.333.171l-6.162-3.414c-1.768-.91-1.825-2.56-.057-3.641zm-14.438-7.436c1.712-1.081 4.564-1.138 6.333-.171l6.162 3.414c1.769.967 1.826 2.617.057 3.641-1.712 1.024-4.564 1.138-6.333.171l-6.162-3.414c-1.769-.967-1.769-2.56-.057-3.641zm-72.06-64.474l13.58-8.306c1.54-.91 3.993-.967 5.591-.171l12.381 6.77c1.54.854 1.597 2.333.057 3.243l-13.522 8.306c-1.484.911-4.051 1.024-5.592.171l-12.437-6.77c-1.541-.853-1.541-2.333-.058-3.243zm24.934-14.962c1.883-1.138 4.964-1.251 6.904-.17l114.794 62.523c1.94 1.024 1.94 2.845.057 3.983-1.882 1.138-4.963 1.251-6.903.171l-114.795-62.524c-1.939-1.081-1.939-2.845-.057-3.983zm-35.943 21.153c1.883-1.138 4.964-1.252 6.904-.171l114.794 62.524c1.94 1.024 1.997 2.845.114 3.982-1.883 1.138-4.964 1.252-6.903.171l-114.795-62.467c-1.94-1.081-1.997-2.844-.114-4.039zm45.015-2.933c1.883-1.195 4.963-1.252 6.903-.171l94.711 51.202c1.94 1.024 1.997 2.845.057 3.983-1.882 1.138-4.963 1.251-6.903.17l-94.711-51.202c-1.883-1.024-1.94-2.845-.057-3.982zm-37.252 20.17c1.883-1.137 4.964-1.251 6.904-.17l66.754 36.012c1.94 1.024 1.94 2.845.114 3.983-1.882 1.137-4.963 1.194-6.903.17l-66.754-36.012c-1.94-1.081-1.997-2.845-.115-3.983zm25.954-12.105c1.883-1.137 4.964-1.251 6.904-.17l94.254 51.088c1.94 1.024 1.94 2.845.114 3.983-1.883 1.138-4.964 1.251-6.903.17l-47.128-25.544-47.127-25.544c-1.94-1.024-1.997-2.845-.114-3.983zm-41.137 4.149c1.883-1.138 4.964-1.251 6.847-.17l5.363 2.901c1.94 1.024 1.94 2.845.114 3.982-1.883 1.138-4.964 1.195-6.904.171l-5.306-2.901c-1.94-1.024-1.997-2.845-.114-3.983zm56.596-136.65l27.078 14.154 24.819 102.348-49.729-26.442c-2.853-1.536-5.192-5.348-5.249-8.591l-1.883-78.51c-.114-3.186 2.111-4.495 4.964-2.959z" fill="#7A9DC4"/><path d="M157.639 201.35c-7.075-7.054-9.015-12.687-5.306-15.36 3.708-2.674 12.666-2.105 24.533 1.593 10.099 3.185 21.795 8.42 32.921 14.734 11.126 6.315 20.597 13.142 26.645 19.23 7.074 7.054 9.014 12.687 5.306 15.361-3.709 2.674-12.667 2.105-24.534-1.593-10.099-3.186-21.795-8.42-32.864-14.735-11.125-6.315-20.596-13.142-26.701-19.23z" fill="#7A9DC4"/><path d="M177.55 188.495c9.756 3.072 20.996 8.079 31.723 14.166 10.669 6.088 19.798 12.63 25.674 18.49 6.79 6.77 8.673 12.118 5.192 14.735-3.48 2.674-11.981 2.219-23.392-1.365a134.37 134.37 0 01-11.354-4.153c-6.676-2.788-13.636-6.202-20.369-10.013-10.726-6.088-19.855-12.687-25.732-18.49-6.846-6.77-8.672-12.061-5.249-14.735 3.367-2.674 11.925-2.276 23.507 1.365zm54.531-92.778l44.559 26.018 1.593-2.791-44.591-25.963-1.561 2.736zm-11.832 24.644l44.559 26.019 1.593-2.792-44.591-25.963-1.561 2.736zm2.366-25.156l44.05 25.884 1.592-2.792-44.097-25.8-1.545 2.708zm-11.83 24.644l44.05 25.884 1.592-2.791-44.097-25.801-1.545 2.708zm9.687-20.886l43.987 25.994 1.593-2.792-44.034-25.911-1.546 2.709zm-21.083-7.473l42.806 25.419 1.561-2.736-42.838-25.364-1.529 2.68zm-2.114 3.71l42.728 25.558 1.577-2.764-42.775-25.475-1.53 2.682zm-2.259 3.997l42.681 25.64 1.561-2.736-42.712-25.585-1.53 2.68zm62.725 6.399l31.381 18.204 1.608-2.819-31.413-18.149-1.576 2.764zm-11.832 24.637l31.381 18.204 1.608-2.819-31.413-18.149-1.576 2.764zm-8.299-51.395l40.106 22.884 1.592-2.791-40.137-22.83-1.561 2.737zm-11.044-1.352l39.58 22.705 1.577-2.764-39.612-22.65-1.545 2.71zm-2.144 3.758l39.516 22.815 1.593-2.792-39.564-22.732-1.545 2.709z" fill="#7A9DC4"/><g style="mix-blend-mode:luminosity" opacity=".5"><path d="M112.207 182.091l.057.057.456.455s.057 0 .057.057c.228.227.514.398.799.626.057.057.057.057.114.057.285.227.628.455.913.682 0 0 .057 0 .057.057a18 18 0 001.084.683c.342.227.742.455 1.084.626.057.057.114.056.171.056.571.342 1.141.626 1.712.968h.057c.285.17.628.341.913.512.684.341 1.312.682 1.997 1.024l.684.341c.057.057.114.057.172.114.228.114.513.227.741.398.057 0 .114.057.114.057.229.114.514.284.742.398l109.945 59.85c6.561 3.584 10.612 6.031 13.864 6.998a8.403 8.403 0 001.54.341l.229 6.486c-.514-.057-1.027-.228-1.541-.342-3.309-.967-7.36-3.413-13.864-6.997l-109.888-59.793a11.293 11.293 0 00-.855-.455 235.19 235.19 0 00-3.88-1.992c-.114-.056-.285-.113-.457-.227-.171-.057-.342-.171-.513-.285a2.71 2.71 0 00-.571-.284c-.114-.057-.171-.114-.285-.171-.228-.114-.456-.227-.685-.398-.057 0-.114-.057-.114-.057h-.057c-.342-.171-.684-.398-1.027-.626 0 0-.057-.057-.114-.057-.342-.227-.685-.455-1.027-.625-.057 0-.057-.057-.114-.057-.285-.228-.628-.398-.913-.626-.057 0-.057-.057-.114-.057-.285-.171-.571-.455-.799-.626l-.057-.057s0-.057-.057-.057c-.171-.113-.285-.284-.456-.398l-.114-.114a55.138 55.138 0 01-.343-.341l-.057-.057s0-.057-.057-.057l-.114-.113c-.057-.057-.114-.114-.114-.171-.057-.057-.057-.114-.114-.171 0-.057-.057-.114-.057-.114v-.057a1.687 1.687 0 01-.228-.455v-.057c-.058-.113-.058-.17-.115-.284v-.114c0-.114 0-.17-.057-.227v-.171c-.228-4.381 1.141-4.267 1.256-4.153z" fill="url(#paint0_linear)"/><path d="M250.338 256.616c.171 0 .342 0 .57.057h.97c.171-.057.343-.057.457-.057.171-.057.342-.057.513-.114l.685-.171c.285-.057.627-.227.913-.341.627-.285 1.255-.569 1.883-1.024l78.792-48.187c1.94-1.195 3.081-1.992 3.081-2.959l.171 6.486c.057.967-1.141 1.764-3.081 2.958L256.5 261.452c-.685.398-1.313.739-1.94 1.024-.342.113-.628.227-.913.341-.228.057-.456.114-.628.171-.171.057-.342.056-.513.113-.171.057-.342.057-.514.057-.171 0-.285 0-.456.057h-1.027c-.228 0-.514-.057-.742-.114l-.228-6.485c.342-.057.571-.057.799 0z" fill="url(#paint1_linear)"/><path d="M112.034 180.435l.057.057c.171.114.285.284.456.455l.057.057c.229.17.514.398.799.626.057 0 .057.056.114.056.285.228.628.456.913.626 0 0 .057 0 .057.057a18 18 0 001.084.683c.342.227.742.455 1.084.626.057 0 .114.057.171.113.571.342 1.141.626 1.712.911 0 0 .057 0 .057.057.285.17.628.341.913.455.685.341 1.312.682 1.997 1.024l.685.341c.057.057.114.057.171.114.228.114.513.284.741.398.057 0 .115.057.115.057.228.114.513.285.741.398l109.945 59.85c6.561 3.584 10.612 6.031 13.864 6.998a8.394 8.394 0 001.541.341l.171 6.543a7.483 7.483 0 01-1.541-.342c-3.309-.967-7.36-3.47-13.864-6.997l-109.83-59.85c-.286-.171-.514-.285-.799-.455a231.268 231.268 0 00-3.88-1.992c-.114-.056-.285-.17-.399-.227-.172-.114-.343-.171-.514-.285a2.704 2.704 0 00-.57-.284c-.115-.057-.172-.114-.286-.171a4.17 4.17 0 01-.684-.398c-.057-.057-.114-.057-.114-.057l-.058-.057c-.342-.227-.684-.398-1.027-.626 0 0-.057-.056-.114-.056-.342-.228-.684-.456-1.027-.626-.057-.057-.057-.057-.114-.057-.285-.228-.627-.398-.913-.626-.057 0-.057-.057-.114-.057-.285-.227-.513-.455-.798-.626 0 0-.058 0-.058-.056 0 0 0-.057-.057-.057-.171-.114-.285-.285-.456-.399 0-.057-.057-.057-.114-.113l-.342-.342-.058-.057c0-.057 0-.057-.057-.057-.057-.056-.057-.113-.114-.113-.057-.057-.057-.114-.114-.171-.057-.057-.057-.114-.114-.114 0-.057-.057-.057-.057-.114v-.056a1.707 1.707 0 01-.228-.456v-.056c-.057-.114-.057-.171-.114-.285v-.512c-.4-4.381.97-4.21 1.084-4.096z" fill="url(#paint2_linear)"/><path d="M250.169 254.907h1.484c.171 0 .342-.057.456-.057.171 0 .342-.057.514-.114.228-.057.456-.114.627-.171.286-.057.628-.227.97-.341a15.305 15.305 0 001.883-1.024l78.793-48.187c1.94-1.195 3.081-1.991 3.081-2.959l.171 6.543c.057.967-1.141 1.764-3.081 2.958l-78.793 48.187c-.684.399-1.312.74-1.94 1.025-.342.113-.627.227-.913.341l-.684.171c-.171.056-.343.056-.514.113-.171.057-.342.057-.456.057-.171 0-.285.057-.457.057h-.513c-.171 0-.342 0-.571-.057-.228 0-.513-.057-.741-.114l-.172-6.542c.4.057.628.114.856.114z" fill="url(#paint3_linear)"/><path d="M112.949 179.248c-6.904 4.21 4.793 8.989 11.183 12.459l109.944 59.85c12.495 6.827 15.919 9.615 22.195 5.746l78.792-48.187c5.535-3.357 4.622-3.812-11.239-12.459L213.936 136.75c-12.837-6.941-15.918-9.558-22.194-5.746l-78.793 48.244z" fill="url(#paint4_linear)" stroke="#C397F2" stroke-width="1.061" stroke-miterlimit="10"/><path d="M334.378 206.785l-2.111-86.475 4.565-2.788L339 207.354c.057 1.536-1.313 2.56-2.111 3.016-.913.568-.4-1.878-1.084-1.48 1.027-.625-1.37-.398-1.427-2.105z" fill="url(#paint5_linear)"/><path d="M189.747 37.015c-.114-.057-.285-.057-.399-.114-.114 0-.171-.056-.285-.056-.057 0-.172-.057-.229-.057-.114 0-.171-.057-.285-.057-.057 0 .799-1.195.742-1.195-.114 0 1.94-1.195 1.94-1.195.114-.056.171-.113.285-.17h.171c.057-.057.114-.057.114-.057.057 0 .114-.057.171-.057h.172c.114-.057.228-.057.342-.057h.97a.43.43 0 01.228.057h.114c.057 0 .057 0 .114.057.114.057.228.057.4.114.057 0 .114.056.171.056l.057.057c.228.114.456.171.685.342l135.733 73.39c.171.114.342.227.571.341.057 0 .114.057.171.114.114.057.228.171.342.284.057.057.114.114.171.114.114.057.228.171.343.285l.171.17c.057.057.114.057.114.114l.114.114.342.341.114.114.114.114c.057.057.115.17.229.284.057.057.114.114.114.171.057.057.057.114.114.114.057.057.114.17.171.227.057.057.057.114.114.114.057.114.114.171.171.285.057.056.057.113.114.17 0 0 0 .057.057.057.115.171.229.285.286.455 0 0 0 .057.057.057v.057c.057.114.171.228.228.341.057.057.057.114.114.171 0 .057.057.114.057.171 0 .057.057.114.057.17.057.114.171.285.171.399 0 0 0 .057.057.057.058.17.115.341.229.512 0 .056.057.056.057.113s.057.114.057.171c0 .114.057.171.114.228.057.056.057.17.057.227 0 .057.057.114.057.171 0 .057.057.114.057.17.057.057.057.171.057.285 0 .114.057.171.057.284 0 .057 0 .057.057.114 0 .057 0 .114.057.228s.057.284.114.455c0 .057 0 .057.057.114 0 .113 0 .17.058.284v.171c0 .227.057.398.057.626l-4.565 2.787c0-.227 0-.398-.057-.626v-.227c0-.114-.057-.228-.057-.398-.057-.171-.057-.285-.114-.455 0-.114-.057-.228-.057-.285 0-.114-.057-.171-.057-.284-.057-.114-.057-.285-.114-.399 0-.056-.057-.17-.057-.227-.057-.171-.114-.285-.171-.455 0-.057-.058-.114-.058-.171-.057-.228-.171-.398-.285-.626 0 0 0-.057-.057-.057-.057-.17-.171-.341-.285-.512-.057-.057-.057-.113-.057-.17-.114-.171-.171-.342-.285-.512-.058 0-.058-.057-.058-.114-.114-.171-.228-.398-.342-.569-.057-.057-.057-.114-.114-.171-.114-.114-.171-.284-.285-.398l-.171-.171c-.115-.113-.172-.227-.286-.284-.057-.114-.171-.171-.228-.285a48.69 48.69 0 01-.228-.227l-.399-.398c-.058-.114-.172-.171-.229-.228l-.171-.171c-.114-.113-.228-.17-.342-.284l-.171-.171c-.114-.114-.229-.17-.343-.227-.057-.057-.114-.057-.171-.114l-.513-.341-135.734-73.448-.684-.34c-.115 0-.172 0-.286-.058z" fill="url(#paint6_linear)"/><path d="M193.566 35.585c-3.138-1.706-5.592-.227-5.535 3.3l2.111 86.475c.057 3.527 2.682 7.737 5.82 9.444l136.076 73.618c3.138 1.707 5.591-.398 5.477-3.926l-2.111-85.849c-.057-3.527-2.682-7.737-5.82-9.444L193.566 35.585z" fill="url(#paint7_linear)"/><path d="M195.646 41.108l130.598 70.66c2.853 1.536 5.192 5.404 5.306 8.59l1.883 78.51c.057 3.243-2.168 4.552-5.021 3.016l-130.541-70.66c-2.853-1.536-5.192-5.404-5.306-8.59l-1.883-78.51c-.114-3.187 2.168-4.552 4.964-3.016z" fill="url(#paint8_radial)"/><path d="M244.166 235.219c1.712-1.081 4.565-1.137 6.333-.17l6.162 3.413c1.769.967 1.826 2.617.114 3.641-1.711 1.081-4.564 1.138-6.333.171l-6.162-3.414c-1.825-.967-1.825-2.617-.114-3.641z" fill="url(#paint9_linear)"/><path d="M229.79 227.72c1.712-1.081 4.565-1.138 6.333-.171l6.162 3.414c1.769.967 1.826 2.617.057 3.641-1.711 1.081-4.564 1.138-6.333.171l-6.162-3.414c-1.768-.91-1.768-2.56-.057-3.641z" fill="url(#paint10_linear)"/><path d="M157.74 163.266l13.579-8.306c1.541-.91 3.994-.967 5.591-.171l12.438 6.77c1.541.854 1.598 2.276.057 3.243l-13.579 8.306c-1.54.911-4.051 1.024-5.591.171l-12.438-6.77c-1.54-.854-1.597-2.333-.057-3.243z" fill="url(#paint11_linear)"/><path d="M182.614 148.297c1.883-1.138 4.964-1.252 6.904-.171l114.794 62.524c1.94 1.024 1.94 2.844.057 3.982-1.882 1.138-4.963 1.252-6.903.171l-114.737-62.524c-1.94-1.024-1.997-2.845-.115-3.982z" fill="url(#paint12_linear)"/><path d="M146.727 169.519c1.883-1.138 4.964-1.252 6.904-.171l114.794 62.524c1.94 1.024 1.94 2.844.114 3.982-1.883 1.138-4.964 1.252-6.903.171l-114.852-62.524c-1.883-1.024-1.94-2.844-.057-3.982z" fill="url(#paint13_linear)"/><path d="M191.739 166.511c1.882-1.137 4.963-1.251 6.903-.17l94.711 51.202c1.94 1.024 1.997 2.845.057 3.983-1.883 1.138-4.964 1.251-6.903.17l-94.711-51.202c-1.94-1.024-1.94-2.845-.057-3.983z" fill="url(#paint14_linear)"/><path d="M154.477 186.683c1.883-1.138 4.964-1.251 6.903-.17l66.755 36.012c1.939 1.081 1.939 2.845.057 3.982-1.883 1.138-4.964 1.252-6.904.171l-66.754-36.012c-1.94-1.024-1.94-2.845-.057-3.983z" fill="url(#paint15_linear)"/><path d="M180.388 174.579c1.883-1.137 4.964-1.194 6.903-.17l94.198 51.088c1.94 1.024 1.997 2.845.114 3.983s-4.964 1.251-6.904.17l-94.254-51.088c-1.883-1.024-1.94-2.788-.057-3.983z" fill="url(#paint16_linear)"/><path d="M139.247 178.777c1.883-1.138 4.963-1.252 6.846-.171l5.363 2.902c1.94 1.024 1.94 2.844.057 3.982-1.882 1.138-4.963 1.252-6.903.171l-5.306-2.901c-1.883-1.081-1.94-2.845-.057-3.983z" fill="url(#paint17_linear)"/><path d="M244.18 234.253c1.712-1.024 4.565-1.138 6.333-.17l6.162 3.413c1.769.967 1.826 2.617.057 3.641-1.711 1.081-4.564 1.138-6.333.171l-6.162-3.414c-1.768-.91-1.826-2.56-.057-3.641z" fill="url(#paint18_linear)"/><path d="M229.742 226.817c1.712-1.081 4.564-1.138 6.333-.171l6.162 3.414c1.769.967 1.826 2.617.057 3.641-1.712 1.024-4.564 1.138-6.333.171l-6.162-3.414c-1.769-.967-1.769-2.56-.057-3.641z" fill="url(#paint19_linear)"/><path d="M157.682 162.343l13.579-8.306c1.541-.91 3.994-.967 5.592-.171l12.38 6.77c1.541.854 1.598 2.333.058 3.243l-13.522 8.306c-1.484.911-4.051 1.024-5.592.171l-12.438-6.77c-1.54-.853-1.54-2.333-.057-3.243z" fill="url(#paint20_linear)"/><path d="M182.616 147.381c1.883-1.138 4.964-1.251 6.904-.17l114.794 62.523c1.94 1.024 1.94 2.845.057 3.983-1.882 1.138-4.963 1.251-6.903.171l-114.794-62.524c-1.94-1.081-1.94-2.845-.058-3.983z" fill="url(#paint21_linear)"/><path d="M146.673 168.534c1.883-1.138 4.964-1.252 6.904-.171l114.794 62.524c1.94 1.024 1.997 2.845.114 3.982-1.883 1.138-4.964 1.252-6.904.171l-114.794-62.467c-1.94-1.081-1.997-2.844-.114-4.039z" fill="url(#paint22_linear)"/><path d="M191.688 165.601c1.882-1.195 4.963-1.252 6.903-.171l94.711 51.202c1.94 1.024 1.997 2.845.057 3.983-1.883 1.137-4.964 1.251-6.903.17l-94.711-51.202c-1.883-1.024-1.94-2.845-.057-3.982z" fill="url(#paint23_linear)"/><path d="M154.436 185.771c1.883-1.137 4.964-1.251 6.904-.17l66.754 36.012c1.94 1.024 1.94 2.845.114 3.983-1.883 1.137-4.964 1.194-6.903.17l-66.755-36.012c-1.94-1.081-1.997-2.845-.114-3.983z" fill="url(#paint24_linear)"/><path d="M180.39 173.666c1.883-1.137 4.964-1.251 6.903-.17l94.255 51.088c1.94 1.024 1.94 2.845.114 3.983-1.883 1.138-4.964 1.251-6.904.17l-94.254-51.088c-1.94-1.024-1.997-2.845-.114-3.983z" fill="url(#paint25_linear)"/><path d="M139.253 177.815c1.883-1.138 4.964-1.251 6.847-.17l5.363 2.901c1.94 1.024 1.94 2.845.114 3.982-1.883 1.138-4.964 1.195-6.904.171l-5.306-2.901c-1.94-1.024-1.997-2.845-.114-3.983z" fill="url(#paint26_linear)"/><path opacity=".1" d="M195.849 41.165l27.078 14.154 24.819 102.348-49.729-26.442c-2.853-1.536-5.192-5.348-5.249-8.591l-1.883-78.51c-.114-3.186 2.111-4.495 4.964-2.959z" fill="url(#paint27_linear)"/><g opacity=".7"><g opacity=".8"><path opacity=".048" d="M176.388 187.495c9.756 3.072 20.996 8.079 31.722 14.166 10.67 6.088 19.798 12.63 25.675 18.49 6.789 6.77 8.672 12.118 5.192 14.735-3.48 2.674-11.982 2.219-23.393-1.365a134.03 134.03 0 01-11.353-4.154c-6.676-2.787-13.637-6.201-20.369-10.012-10.726-6.088-19.855-12.687-25.732-18.49-6.846-6.77-8.672-12.061-5.249-14.735 3.366-2.674 11.925-2.276 23.507 1.365z" fill="#F7F6FB"/></g></g><g opacity=".5"><path opacity=".6" d="M230.919 94.717l44.559 26.018 1.593-2.791-44.592-25.963-1.56 2.736zm-11.832 24.644l44.559 26.019 1.593-2.792-44.592-25.963-1.56 2.736zm2.366-25.156l44.05 25.884 1.592-2.792-44.097-25.8-1.545 2.708zm-11.83 24.644l44.05 25.884 1.592-2.791-44.097-25.801-1.545 2.708zm9.687-20.886l43.987 25.994 1.593-2.792-44.035-25.911-1.545 2.709zm-21.084-7.473l42.807 25.419 1.561-2.736-42.838-25.364-1.53 2.68zm-2.113 3.71l42.728 25.558 1.577-2.764-42.775-25.475-1.53 2.682zm-2.259 3.997l42.681 25.64 1.561-2.736-42.712-25.585-1.53 2.68zm62.725 6.399l31.38 18.204 1.609-2.819-31.413-18.149-1.576 2.764zm-11.832 24.637l31.38 18.204 1.609-2.819-31.413-18.149-1.576 2.764zm-8.299-51.395l40.106 22.884 1.592-2.791-40.137-22.83-1.561 2.737zm-11.044-1.352l39.58 22.705 1.577-2.764-39.612-22.65-1.545 2.71zm-2.145 3.758l39.517 22.815 1.593-2.792-39.564-22.732-1.546 2.709z" fill="#fff"/></g><path opacity=".3" d="M108.41 200.984v-75.986M77.549-1v75.986m-.003 113.976v34.316" stroke="#06EDE1"/><path fill="url(#paint28_linear)" d="M101.36 40.672h16.292v15.933H101.36z"/><path fill="url(#paint29_linear)" d="M74.41 103h16.292v15.933H74.41z"/><path fill="url(#paint30_linear)" d="M85.07 218.382h11.279v11.03H85.07z"/><path fill="url(#paint31_linear)" d="M60 12.477h7.519v7.354H60z"/><path fill="url(#paint32_linear)" d="M85.07 202.449h7.519v7.354H85.07z"/></g><path d="M217.735 151.416c-.101-1.295-.635-2.449-1.209-3.577-1.335-2.633-3.248-4.832-5.385-6.825-3.735-3.454-7.983-6.149-12.491-8.449a48.653 48.653 0 00-5.572-2.532.663.663 0 01-.055-.416c.62-3.05 1.023-6.14 1.206-9.248.248-3.482.09-6.981-.469-10.427 0-.113-.008-.227-.022-.34-.22-1.179-.588-2.325-.881-3.483a17.826 17.826 0 00-3.609-7.197 10.17 10.17 0 00-4.273-3.136 7.765 7.765 0 00-3.086-.785 1.079 1.079 0 00-.577-.144 18.372 18.372 0 00-5.324.43c-5.608 1.32-10.278 4.412-14.75 7.87a.817.817 0 00-.509.362.256.256 0 00-.224.159 3.222 3.222 0 00-.776.499c-.48.289-.869.723-1.418.893-.855-1.019-1.805-1.938-2.757-2.871a64.359 64.359 0 00-10.521-8.587 25.758 25.758 0 00-4.872-2.6.215.215 0 00-.206-.112l-.361-.065c-.242-.326-.653-.333-.982-.463a14.678 14.678 0 00-4.691-1.121l31.175-64.534-34.406-5.165-8.145 3.801a3.25 3.25 0 00-1.805 1.642c-1.519 2.955-3.071 5.892-4.609 8.836a725.614 725.614 0 00-2.19 4.228.144.144 0 00-.105.16h-.047v.046c-.336-.148-.361-.499-.498-.77a22188.73 22188.73 0 01-9.597-20.36 7.39 7.39 0 00-.635-1.128 2.139 2.139 0 00-.848-.745l.231-.108-1.043-.145a1.386 1.386 0 00-.505-.076l-.502-.076a1.49 1.49 0 00-.603-.09l-.916-.141c-4.866-.803-9.726-1.604-14.581-2.402-1.159-.188-2.321-.502-3.476-.307L68.04 10l-.895.42a2.392 2.392 0 00-1.289.184c-2.353.998-4.735 1.978-7.102 2.962-.134.054-.264.116-.397.17a.27.27 0 00-.214.287.27.27 0 00.04.122c.069.159.145.315.22.47L75.85 50.349c1.723 3.53 3.44 7.06 5.15 10.593a2.99 2.99 0 01-.397-.155 21774.97 21774.97 0 01-19.327-10.804c-.447-.25-.873-.437-1.382-.238-.31.068-.617.134-.927.206l-35.009 8.42c-2.736.658-5.522 1.164-8.001 2.625-.765.453-1.61.767-2.404 1.18-1.245.643-2.566 1.142-3.768 1.88-.765.22-.884.253-.722 1.06.076.362.076.749.12 1.121.442 3.672.884 7.35 1.324 11.035.433 3.617.852 7.277 1.285 10.923.49 4.134.996 8.264 1.487 12.394.49 4.131.963 8.268 1.443 12.402.549 4.622 1.127 9.237 1.639 13.863a2.62 2.62 0 001.083 1.953 15926.812 15926.812 0 0134.15 26.645c.537.42 1.039.698 1.713.467.361.177.581-.131.834-.246l15.108-7.064c6.518-3.057 13.035-6.116 19.55-9.176.275-.13.628-.17.755-.52a.322.322 0 00.14-.022c.145.054.167-.062.206-.152a.355.355 0 00.137-.018c.603 0 1.015-.441 1.509-.68a17.907 17.907 0 002.682-1.385.338.338 0 00.14-.022c.148.054.166-.061.206-.152a.355.355 0 00.137-.018c.054 0 .12.043.163.025.96-.47 1.97-.857 2.8-1.555.098-.029.184-.069.18-.192a1.14 1.14 0 00.124-.311c.133-1.667.249-3.338.39-5.005.382-4.427.782-8.85 1.158-13.277.325-3.794.613-7.596.945-11.386.046-1.067.15-2.131.311-3.186.195.108.234.322.321.495.837 1.711 1.667 3.425 2.505 5.136 2.026 4.154 4.056 8.304 6.092 12.449.361.723.249.723 1 .394 2.124-.894 4.25-1.783 6.377-2.665.047.068.123.137.133.209.271 1.971.722 3.91 1.083 5.863-.162.058-.321.123-.487.174-5.002 1.501-9.319 4.239-13.354 7.454a.246.246 0 00-.216.159c-1.621 1-3.151 2.14-4.573 3.407a13.295 13.295 0 00-3.61 5.219c-1.053 2.893-.721 5.743.513 8.514a22.876 22.876 0 004.476 6.449 46.635 46.635 0 009.484 7.501 72.832 72.832 0 009.297 4.803c.632.275.639.282.52.864a71.31 71.31 0 00-1.267 9.588l-27.7-19.302.036-.026-.043.022-.029-.022-.086.044h-.026l.037-.026-.044.022-.029-.022-33.961 16.471-7.72 5.223-.174 46.171 35.778 26.363.241.492.116-.061.029.061 37.625-19.614-.206-.361h.043v.028l.051-.036h.097v.029l7.626-5.656-.721-25.625c2.742.665 5.467.488 8.185-.174a32.176 32.176 0 0010.322-4.734c2.036-1.367 4.003-2.836 6.006-4.25.826-.586.653-.582 1.306.109 1.87 1.971 3.786 3.888 5.829 5.682 3.089 2.712 6.345 5.193 10.008 7.081 2.346 1.212 4.782 2.141 7.438 2.405 2.657.264 5.06-.408 7.103-2.249a.284.284 0 00.231-.17.433.433 0 00.303-.221c1.7-1.085 3.303-2.307 4.937-3.483 2.361-1.696 3.671-4.051 4.259-6.872.076-.361.054-.788.318-1.11.083-.094.162-.188.04-.307l.032-.08c.14-.315.227-.651.256-.995.353-2.374.474-4.777.361-7.175a26.81 26.81 0 00-.361-4.138 4.38 4.38 0 00-.068-1.114c-.285-2.192-.722-4.362-1.152-6.528l.195-.145a24.202 24.202 0 003.7-1.407 29.777 29.777 0 007.048-4.286.258.258 0 00.202-.148.453.453 0 00.318-.224.606.606 0 00.397-.293c.09 0 .162-.054.177-.156h.05c1.91-1.284 3.804-2.586 5.58-4.05a15.136 15.136 0 002.609-2.749c.975-1.335 1.783-2.749 2.061-4.409a7.88 7.88 0 00.029-4.159zm-58.713 25.104c-.159-.214-.04-.282.144-.337.614.109 1.249.055 1.931.25-.418.467-.523 1.121-1.184 1.291a8.651 8.651 0 00-.891-1.204zm9.048-10.76a.925.925 0 01-1.018.55c-2.865-.261-5.727-.547-8.582-.937a174.155 174.155 0 01-8.265-1.327l-3.046 2.17 3.046-2.17-1.649-2.731a10.333 10.333 0 008.391.202 9.014 9.014 0 003.97-2.105.594.594 0 00.397-.289.459.459 0 00.314-.221c1.461-.925 2.822-1.996 4.244-2.98a9.62 9.62 0 002.747-2.575c.678-1.038 1.331-2.072 1.479-3.338a8.73 8.73 0 00.123-4.34.503.503 0 00-.087-.467c.26.174.456.428.56.723 1.166 2.286 2.313 4.583 3.494 6.872a1.237 1.237 0 010 1.212 145.028 145.028 0 01-6.118 11.751zm-44.439-10.189c-.834-.455-1.675-.897-2.497-1.37-3.758-2.17-7.309-4.608-10.333-7.755-1.657-1.725-3.028-3.616-3.646-5.989a7.706 7.706 0 010-2.08 9.21 9.21 0 011.188-2.633.12.12 0 00.05-.076l.036-.047c.269-.261.582-.471.924-.622a45.885 45.885 0 0110.561-3.197c.743-.137.667-.166.898.543a149.769 149.769 0 005.663 14.691 1.28 1.28 0 01.094 1.143 99.766 99.766 0 00-2.747 7.103 1.59 1.59 0 01-.191.289zm22.64-30.655l.083-.065-.083.065zm7.052-5.747a.875.875 0 010 .217c.083 0 .206-.044.238 0 .361.43.701.871 1.148 1.446l-2.165-.13c.057-.557.592-.828.783-1.302a.88.88 0 00-.004-.235v.004zm-6.857 11.573c2.963.196 5.908.539 8.849.948 2.339.322 4.663.723 6.988 1.157a1.799 1.799 0 011.411.951c.671 1.212 1.444 2.369 2.144 3.559.119.203.361.384.249.673-.549-.362-1.083-.752-1.646-1.125a6.11 6.11 0 00-1.96-.994 8.263 8.263 0 00-4.183-.829 7.18 7.18 0 00-4.331 1.179 93.616 93.616 0 00-5.872 4.196l-.036.018a.173.173 0 00-.18.145 9.29 9.29 0 00-4.125 4.434 11.639 11.639 0 00-1.556 5.063c-.603-1.139-1.159-2.3-1.74-3.45-.516-1.024-.992-2.069-1.487-3.107.859-2.043 1.863-4.022 2.855-6 1.152-2.29 2.458-4.492 3.692-6.738.29-.131.616-.16.924-.083l.004.003zm16.421-21.747l.026-.022a.42.42 0 00.274-.246.289.289 0 00.125-.065.287.287 0 00.081-.116 22.15 22.15 0 019.022-3.58 9.936 9.936 0 013.444.057 5.628 5.628 0 013.504 2.207 14.111 14.111 0 012.299 5.103 34.288 34.288 0 01.942 9.707 24.463 24.463 0 01-.278 4.055c-3.248-.923-6.496-1.827-9.795-2.503a142.158 142.158 0 00-7.218-10.232 44.168 44.168 0 00-2.992-3.678c.094-.3.404-.431.552-.691a.502.502 0 00-.61.047l-.17.123.17-.123a.508.508 0 01.621-.047l.003.004zm6.392 37.115c-1.332.948-2.645 1.928-3.97 2.893 1.321-.98 2.635-1.956 3.967-2.904l.003.011zm.852-.886zm8.961 19.039c.534.723.668 1.584 1.014 2.372-.794.077-1.592.093-2.389.051.415-.836.872-1.65 1.372-2.438l.003.015zm1.036-10.193a1.627 1.627 0 00-.003-.01l.003.01zm.184-.394l-.029.029.029-.029zm-47.904-5.038a.63.63 0 010-.004v.004zm.13-.864l.018.036-.018-.036zm1.697-15.296l-.654-2.061h2.166c-.588.716-.715 1.609-1.505 2.061h-.007zm-1.556 15.476zm-8.283-22.257h-.04.04zm2.628 56.237c.231-.152.469-.293.693-.452a14.05 14.05 0 01-.693.452zm-5.115 7.642h-.025l.025-.043v.043zm-37.383-25.653l.073.047-.127.22-.108-.195.162-.072zm44.114 21.31l.047.061-2.064 1.183 2.017-1.244zm1.967-85.306c2.298.853 4.476 2 6.479 3.415 4.121 2.799 7.745 6.177 11.166 9.783.322.34.271.532-.025.843-1.804 1.873-3.475 3.855-5.092 5.884a1.05 1.05 0 01-.592.46c-.173 0-.361-.037-.516-.037-3.825.025-7.646.245-11.448.659-.065-.25-.13-.5-.199-.749-.574-2.08-.942-4.203-1.397-6.308-.151-1.446-.415-2.911-.534-4.38-.245-3.005-.317-6 .202-8.984a.715.715 0 000-.173l.036-.275.029-.062a.135.135 0 00.041-.047.128.128 0 00.013-.061l.199-.409a5.04 5.04 0 011.635.441h.003zM98.699 70.924a33.16 33.16 0 003.039 1.773 33.264 33.264 0 01-3.039-1.769 828.877 828.877 0 01-5.37-2.973c1.783.998 3.577 1.975 5.367 2.962l.003.007zm-36.766 48.031c-.285-.058-.566-.123-.848-.184.282.058.563.126.848.184zm88.911 69.146a10.11 10.11 0 01-1.736 1.273c-.137.029-.278.054-.339.21-.229.025-.446.11-.632.245-2.92 1.425-5.962 2.351-9.239 2.359a16.647 16.647 0 01-2.935-.724c-1.7-.969-2.761-2.466-3.511-4.235a17.74 17.74 0 01-1.17-4.116 122.66 122.66 0 01-.516-3.584c-.032-2.358-.061-4.702.054-7.067a.153.153 0 00.068-.093.153.153 0 00-.017-.113c.126-1.165.126-1.169 1.241-.854 2.718.774 5.465 1.425 8.229 2a1.448 1.448 0 011.011.702 151.977 151.977 0 009.6 13.042c.383.488.365.484-.108.958v-.003zm8.142-.232l.195-.181-.195.181c-.462.485-.585.611-.361.901-.227-.29-.105-.416.354-.901h.007zm26.292 3.979a24.373 24.373 0 01-.599 4.976c-.216.872-.206.876-1.104.745a29.613 29.613 0 01-6.457-3.255c-4.5-2.991-8.424-6.64-12.062-10.615.495-.564.989-1.125 1.48-1.693a60.51 60.51 0 004.082-5.063c.118-.083.251-.141.392-.171.141-.031.286-.033.427-.006 2.942 0 5.876-.149 8.807-.362.776-.061 1.552-.13 2.317-.25.433-.068.606.033.721.474a71.363 71.363 0 011.545 7.896 43.53 43.53 0 01.444 7.313l.007.011zm20.211-31.662a5.517 5.517 0 01-1.443 1.809.363.363 0 00-.343.166 2.07 2.07 0 00-.329.087 47.28 47.28 0 01-9.513 2.948 1.124 1.124 0 01-.838 0c-.057-.225-.104-.449-.173-.666a118.553 118.553 0 00-3.006-8.116c-.982-2.401-1.982-4.799-3.133-7.129.329-.795.668-1.584.982-2.383.642-1.653 1.36-3.28 1.84-4.995a.407.407 0 01.538-.043c4.919 2.553 9.6 5.425 13.332 9.635a14.162 14.162 0 012.379 3.617 5.248 5.248 0 01-.314 5.06l.021.01z" fill="#91B8E2"/><path d="M108.256 241.993a.212.212 0 00.213-.123.234.234 0 00-.213.123z" fill="#91B8E2"/><g style="mix-blend-mode:luminosity"><path d="M102.745 78.999c.433.579.722 1.23 1.011 1.917.867 2.025 1.951 3.942 2.89 5.931.723 1.52 1.482 3.074 2.204 4.593.108.181.109.507.434.47.253 0 .397-.217.505-.434l.651-1.302c2.817-5.57 5.599-11.175 8.453-16.708 2.168-4.196 4.227-8.5 6.43-12.695 2.204-4.159 4.191-8.427 6.395-12.586 2.203-4.231 4.263-8.535 6.466-12.766 1.481-2.821 2.854-5.678 4.299-8.5.253-.542.614-.831 1.192-1.048 2.168-.868 4.299-1.809 6.467-2.713.903-.506 1.806-.398 2.782-.253 4.082.615 8.164 1.194 12.355 1.808-10.874 21.483-21.748 42.93-32.586 64.376-1.77.181-3.432.724-4.841 1.809-.758.578-1.553 1.085-2.312 1.663-.831.615-1.734 1.085-2.456 1.881-3.143 1.519-4.661 4.232-5.528 7.45-.397 1.519-.614 3.038-.758 4.593-.145 1.483-.145 2.93-.109 4.413.037 1.772.181 3.544.47 5.316.072.398.036.796.036 1.194-2.131.904-4.263 1.772-6.394 2.676-.759.325-.65.325-1.012-.398-2.023-4.159-4.046-8.282-6.069-12.441-.831-1.7-1.662-3.436-2.492-5.136-.073-.181-.145-.398-.326-.506-.036-1.23.181-2.423.289-3.617.073-.76.109-1.555.181-2.314.181-1.7.253-3.4.397-5.1.217-2.314.434-4.63.651-6.98.072-.76.108-1.555.18-2.314 0-.796.036-1.52.145-2.279z" fill="#327857"/><path d="M155.848 29.099l-45.121 90.958 11.343-6.148 43.134-89.186-9.356 4.376z" fill="#47936B"/><path d="M132.801 89.239c2.059-.181 4.01.361 5.889 1.12.325.145.722.145.975.47 0 .254-.181.399-.361.543-.976.687-1.915 1.375-2.89 2.062-.831.615-1.698 1.193-2.529 1.808-.361.29-.361.47.072.651 1.192.543 2.312 1.194 3.396 1.88a50.684 50.684 0 016.647 4.775c1.048.904 2.095 1.808 3.107 2.748 1.59 1.411 3.035 2.93 4.48 4.449.433.47.469.47.939.072.686-.615 1.409-1.193 2.095-1.808 1.192-1.049 2.529-1.917 3.757-2.93.542-.181.94-.615 1.409-.904.253-.145.47-.398.759-.506.108 0 .18-.073.217-.145.252 0 .433-.108.505-.362.362.073.687-.144.976-.289 1.95-1.157 4.046-1.917 6.213-2.568 1.229-.361 2.493-.687 3.83-.615.578.037 1.12-.253 1.698-.18.144.036.252-.073.397-.181 1.59-1.121 3.251-2.206 4.769-3.436.867-.723 1.734-1.049 2.817-.904 1.084 0 2.096.362 3.071.796-.361.397-.795.76-1.264 1.048-1.373.94-2.746 1.917-4.083 2.894-1.083.795-1.083.832.037 1.555 2.095 1.338 3.648 3.182 4.768 5.352 1.192 2.279 1.987 4.702 2.421 7.27.072.362.289.398.542.325.144-.072.288-.18.433-.289 1.373-.976 2.746-2.025 4.118-2.966.542-.397 1.012-.94 1.734-1.048.615 3.472.687 6.944.47 10.415a66.989 66.989 0 01-1.192 9.259c-.036.145 0 .289.036.434-.253.036-.434.145-.614.289-1.517 1.085-3.071 2.17-4.552 3.255-.47.362-1.048.651-1.481 1.158.722.325 1.337.687 1.987.94 3.432 1.519 6.719 3.327 9.862 5.353a42.838 42.838 0 015.202 3.978c1.518 1.338 2.963 2.749 4.191 4.34 1.373 1.772 2.529 3.653 3.143 5.823.18.651.325.687.903.289 1.373-.977 2.745-1.989 4.154-2.93.614-.397 1.084-1.048 1.879-1.121.361 1.411.361 2.785-.036 4.159a1.058 1.058 0 00-.795.254c-1.734 1.302-3.54 2.531-5.31 3.797-.326.217-.506.543-.615.904-.505 1.953-1.481 3.581-2.817 5.064-.289.325-.759.651-.723 1.193h-.036c-.145-.036-.181.036-.181.145l-.072-.037.072.037c-.253-.036-.361.108-.397.289-.181 0-.325.036-.325.217l.036-.036c-.108 0-.181.072-.217.181-2.131 1.772-4.516 3.146-7.044 4.303-1.193.543-2.421 1.085-3.685 1.411-.109 0-.145.072-.181.145-.108 0-.217 0-.325.036-2.204.687-4.407 1.302-6.683 1.7-.434.072-.398.253-.325.578.289 1.121.542 2.243.758 3.364.362 1.844.687 3.725 1.048 5.569.108.579.289.651.795.398.144-.072.253-.145.361-.253 1.662-1.194 3.36-2.423 5.021-3.617.181-.144.362-.144.578-.144.253 1.374.326 2.748.362 4.123.072 2.387.036 4.81-.362 7.161-.072.325-.072.687-.252 1.012-.289 0-.542.073-.795.29-.578.434-1.192.831-1.77 1.229-1.193.868-2.385 1.7-3.577 2.568-.253.181-.469.362-.506.687-.036.543-.252 1.013-.397 1.519-.47 1.736-1.12 3.4-2.276 4.81-.181.217-.325.47-.325.796-.181 0-.325 0-.325.217h.036c-.145-.036-.217.036-.253.181-2.023 1.844-4.407 2.531-7.117 2.242-2.673-.253-5.093-1.193-7.442-2.387-3.684-1.881-6.936-4.376-10.006-7.088-2.06-1.809-3.974-3.726-5.817-5.679-.65-.687-.469-.687-1.3-.108-1.987 1.41-3.974 2.893-5.997 4.268-3.179 2.133-6.575 3.833-10.332 4.737-2.746.687-5.527.832-8.309.145-.108-.036-.217-.036-.361-.036 0-1.447-.036-2.93 0-4.376 0-.434-.253-.832-.036-1.266.433.036.758-.253 1.083-.506a510.962 510.962 0 014.697-3.364c.289-.217.578-.398.686-.723.939.361 1.951.506 2.926.723 0 .253-.144.398-.361.543-1.553 1.085-3.071 2.206-4.624 3.327-.253.181-.795.289-.614.687.144.326.65.181.939.109 2.384-.362 4.624-1.085 6.792-2.098 2.637-1.23 5.057-2.821 7.369-4.629.181-.145.362-.29.362-.543.144 0 .289-.036.325-.217.614-.398 1.228-.759 1.734-1.266.469-.47.506-.47.108-.94a147.803 147.803 0 01-9.609-13.056c-.253-.398-.542-.615-1.012-.687a124.75 124.75 0 01-8.236-1.989c-1.12-.326-1.12-.326-1.229.868-.072.072-.072.108-.036.217-.108 2.35-.072 4.701-.036 7.052-.253 0-.433.036-.65.217-.723.543-1.481 1.013-2.168 1.555-.65.543-1.481.796-1.914 1.555-.181-.036-.326-.144-.47-.253-1.698-1.229-3.432-2.423-5.13-3.653-.47-.361-1.048-.614-1.445-1.085.217-3.327.614-6.618 1.301-9.873.108-.579.108-.579-.506-.868a71.068 71.068 0 01-9.321-4.81c-3.468-2.134-6.683-4.557-9.501-7.487-1.806-1.916-3.396-4.014-4.48-6.437-1.228-2.785-1.553-5.606-.505-8.499.758-2.062 2.023-3.762 3.612-5.208 1.409-1.302 2.963-2.387 4.588-3.4a.243.243 0 00.217-.144c.361.036.65-.145.976-.326a33.499 33.499 0 014.515-1.953c2.818-.976 5.672-1.772 8.634-2.278.362-.073.506-.254.398-.615-.217-.832-.325-1.7-.614-2.496-.362-1.953-.831-3.906-1.084-5.859 0-.072-.072-.144-.145-.217 0-.397.036-.795-.036-1.193-.289-1.772-.397-3.544-.469-5.317-.037-1.446-.037-2.929.108-4.412.144-1.555.361-3.074.759-4.593.867-3.219 2.384-5.931 5.527-7.45.144 0 .289 0 .433-.036.904-.254 1.807-.58 2.782-.47.253.036.434-.073.614-.254.867-.795 1.879-1.41 2.818-2.097 1.12-.868 2.24-1.52 3.215-2.424zm24.385 23.978c-.144 0-.289.036-.325.217-.181.289-.47.434-.723.615-.289.18-.361.397-.108.723.434.506.831 1.049 1.228 1.555a153.523 153.523 0 015.491 7.306l2.818 4.123c.398.578.398.578.976.18.578-.397 1.156-.831 1.77-1.229 1.445-1.013 2.926-2.062 4.371-3.074 3.288.687 6.539 1.591 9.79 2.495.289-1.41.253-2.712.289-4.051.109-3.291-.144-6.546-.975-9.728-.47-1.809-1.156-3.581-2.312-5.1-.903-1.193-2.059-1.917-3.505-2.206a10.937 10.937 0 00-3.431-.072c-3.288.506-6.25 1.736-9.032 3.58-.108.036-.181.073-.217.181h.036c-.18 0-.361 0-.289.253l-.036.036c-.325-.217-.542 0-.794.181l-3.902 2.821c-.217.181-.47.362-.434.687-.252 0-.505-.036-.505.362a.61.61 0 00-.181.145zm-3.757 6.148c.072-.615-.506-.868-.759-1.302-.216-.434-.469-.325-.722-.036-.687.759-1.409 1.519-2.095 2.314-1.012 1.194-1.951 2.424-2.963 3.617-.217.289-.433.543-.469.904-.037.036-.037.073-.073.073.036-.037.073-.037.073-.073.18 0 .325-.108.469-.217 1.012-.723 1.987-1.446 3.035-2.17.903-.615 1.698-1.374 2.709-1.808.651.036 1.337.072 2.168.145a34.026 34.026 0 00-1.156-1.447c-.036-.036-.145 0-.217 0zm-45.013 16.311c0 .036-.036.072-.036.072-.289-.253-.542 0-.795.109-.975.47-1.95 1.012-2.817 1.663-1.59 1.158-3.035 2.496-3.866 4.304-.108.253-.433.507-.144.76.289.253.542-.109.722-.253 1.445-1.049 2.854-2.098 4.299-3.147.434-.325.903-.579 1.373-.832-.108.687-.072 1.375 0 2.098-.687.145-1.12.651-1.662 1.049-1.445 1.012-2.854 2.025-4.299 3.038-.578.434-.759.868-.506 1.591.145.362.326.76.506 1.085 1.048 2.025 2.493 3.689 4.155 5.244 1.734 1.628 3.612 3.038 5.563 4.376 2.42 1.628 4.949 3.038 7.586 4.304.795.398 1.626.76 2.457 1.085.614.253.65.181.831-.434.253-.796.469-1.591.722-2.387.398-1.266.795-2.532 1.156-3.797.073-.109.145-.181.181-.29.831-2.387 1.734-4.774 2.746-7.088.18-.434.072-.76-.109-1.158-2.131-4.81-4.046-9.692-5.672-14.683-.216-.723-.144-.687-.903-.543-3.648.688-7.189 1.664-10.585 3.183-.361.145-.65.362-.939.615-.036-.036-.072-.036-.108-.073.108 0 .144.073.144.109zm50.865 52.007c-.072.072-.144.109-.18.181-.614.651-.614.651 0 1.266 1.806 1.772 3.54 3.653 5.455 5.316 1.734 1.483 3.504 2.894 5.346 4.196 1.229.867 2.529 1.591 3.866 2.278 1.011.506 2.023.976 3.107 1.266.433.108.794.036 1.156-.217 1.806-1.302 3.576-2.604 5.382-3.87.217-.145.362-.289.326-.542.903.144.903.144 1.119-.76.398-1.627.542-3.291.615-4.991.108-2.459-.145-4.919-.47-7.342-.361-2.676-.903-5.28-1.553-7.884-.109-.434-.289-.542-.723-.47-.759.108-1.553.181-2.312.253-2.926.217-5.889.398-8.815.362-.289 0-.578-.036-.831.181-.144-.217-.397-.181-.614-.181-.614 0-1.228.036-1.806 0-.47-.036-.795.144-1.048.578-.578.868-1.156 1.7-1.77 2.532-1.878 2.568-3.829 5.027-5.961 7.378-.216.145-.325.289-.289.47zm44.543-25.533c.145 0 .289 0 .326-.181.65-.47 1.047-1.157 1.445-1.808.939-1.628 1.083-3.328.289-5.064a14.276 14.276 0 00-2.385-3.616c-3.721-4.196-8.417-7.089-13.33-9.621-.181-.108-.361-.144-.542.037 0-.326-.253-.434-.47-.543-.505-.253-.975-.542-1.481-.723-.831-.29-1.553-.868-2.492-.977-.506 1.628-.976 3.255-1.482 4.883-.939 2.821-1.95 5.606-3.143 8.318-.108.289-.18.542-.144.832l-.181.181c-.036.289.036.578.145.831.433.941.831 1.917 1.264 2.858 1.229 2.748 2.348 5.569 3.396 8.39.434 1.194.867 2.387 1.228 3.581.145.434.325.506.687.289.469.325.939 0 1.373-.072 2.817-.651 5.599-1.447 8.272-2.604a28.363 28.363 0 005.997-3.508c.506-.434 1.084-.796 1.228-1.483zm-69.506-29.693c.795-.47.94-1.338 1.482-2.061h-2.168c-1.156-.145-2.312.144-3.432.144-1.481 0-2.926.217-4.371.362-.253.036-.361.109-.253.398.072.145.108.325.145.506.939 3.038 2.095 5.968 3.251 8.933.108.29.217.651.542.868.144-.253.253-.434.361-.651a139.968 139.968 0 013.685-6.871c.289-.507.758-.977.758-1.628zm45.916 34.141c-.361-.795-.469-1.663-1.011-2.387-.289-1.555-1.084-2.857-1.662-4.267-.253.036-.289.217-.361.325a269.821 269.821 0 01-2.312 4.449 84.208 84.208 0 01-1.951 3.471c-.506.796-.975 1.628-1.445 2.46-.108.217-.361.434-.108.687.18.217.469.181.722.108.217-.036.434-.144.686-.144 1.698 0 3.396 0 5.094-.145.976-.072 1.951-.289 2.926-.217.109 0 .217-.036.325-.072.542-.181.542-.181.362-.724-.434-1.157-.867-2.35-1.265-3.544zm-20.23 11.103c.65-.181.759-.832 1.192-1.302-.686-.181-1.337-.144-1.951-.253-.903-.253-1.878-.108-2.818-.289-1.192-.217-2.384-.253-3.576-.398-1.445-.181-2.89-.434-4.335-.651-.217-.036-.506-.145-.614.108-.109.217.108.362.18.543a.474.474 0 01.109.145c1.264 1.736 2.456 3.472 3.793 5.135.759.941 1.481 1.917 2.276 2.821.47.579.686.543 1.156 0a213.973 213.973 0 003.649-4.376c.397-.398.867-.832.939-1.483zm-35.765-52.188c.181.217.398.217.651.145 1.625-.326 3.323-.398 4.949-.47 2.601-.073 5.166-.326 7.767-.217h1.12c.433.036.686-.145.939-.47.47-.651 1.012-1.266 1.445-1.953.506-.76 1.228-1.375 1.517-2.279.289-.072.434-.253.578-.47 1.626-2.025 3.288-4.014 5.094-5.895.289-.326.361-.506.036-.832-3.432-3.617-7.044-6.98-11.163-9.801-2.023-1.374-4.154-2.604-6.466-3.4-.578-.18-1.12-.47-1.734-.434-.759-.361-1.554-.434-2.348-.361-1.012.108-1.915.47-2.565 1.229-.759.868-1.229 1.953-1.554 3.074-.072.29-.18.579.109.796.253.181.397-.108.578-.217.144-.072.289-.181.433-.289 1.409-1.013 2.854-2.026 4.263-3.074.253-.181.542-.326.867-.326 0 .073.036.109 0 .181-.506 3.002-.433 5.967-.217 8.969.109 1.483.398 2.93.542 4.376-.469.073-.831.398-1.192.651-1.481 1.049-2.926 2.207-4.48 3.183-.794.506-1.011 1.121-.867 1.953.362 1.808.795 3.58 1.193 5.353.072.397.18.578.505.578zm41.942 12.514c.145-.29-.108-.47-.216-.687-.723-1.194-1.481-2.351-2.132-3.545-.325-.578-.795-.831-1.409-.94-2.312-.434-4.66-.832-7.008-1.157-2.926-.398-5.889-.76-8.851-.941-.325-.036-.65-.108-.939.073-.181-.326-.47-.253-.759-.253-.506-.037-1.047.036-1.553-.073-.939-.217-1.048-.181-1.554.615-1.661 2.496-3.179 5.063-4.624 7.703a110.402 110.402 0 00-4.299 8.5c-.108.217-.361.434-.036.687-.18.253-.397.434-.217.832.867 1.808 1.698 3.58 2.638 5.352 1.445 2.749 2.89 5.497 4.479 8.174 1.192 1.989 2.385 3.942 3.577 5.895.361.578.397.615.975.181 2.023-1.447 4.082-2.894 6.105-4.376 2.746.506 5.491.94 8.273 1.338 2.854.398 5.708.687 8.598.94.506.036.759-.108 1.012-.542a164.955 164.955 0 006.141-11.718c.217-.434.217-.796 0-1.23a409.597 409.597 0 01-3.504-6.872c-.145-.289-.253-.578-.542-.723-.036-.362-.181-.651-.325-.976-.687-1.23-1.337-2.46-2.023-3.689-.434-.796-.94-1.556-1.409-2.351-.181-.109-.217-.253-.398-.217zm3.757-3.4c.037.145.073.289.145.398 2.384 4.014 4.588 8.137 6.792 12.26 0 0 .036.037.072.037h.108c.47-.688.614-1.519.903-2.315.795-2.206 1.59-4.376 2.132-6.655.144-.651.108-.723-.47-.976-.072-.036-.18-.036-.253-.073-2.745-.976-5.527-1.772-8.345-2.531-.325-.109-.65-.326-1.084-.145zm-43.278 29.331c.325.109.469 0 .614-.108 1.3-.941 2.601-1.881 3.938-2.821.433-.29.831-.615 1.264-.905.253-.18.361-.434.181-.759-.831-1.374-1.481-2.893-2.204-4.304-.108-.217-.181-.506-.542-.651-1.337 3.074-2.348 6.257-3.251 9.548z" fill="#0192AC"/><path d="M100.829 101.573c-.216 1.048-.216 2.133-.325 3.182-.325 3.798-.614 7.595-.939 11.393-.361 4.412-.795 8.86-1.156 13.273-.144 1.663-.253 3.327-.397 4.991 0 .108-.073.217-.109.325-.072.072-.108.145-.18.181-1.084.181-2.023.796-2.927 1.374-.036.036-.036.109-.036.181-.036 0-.108.036-.144.036-.072.036-.145.109-.217.145-.036 0-.108.036-.144.036-.325-.036-.615 0-.904.181-.939.47-1.878.94-2.853 1.41-.217.109-.434.181-.434.471-.036 0-.108.036-.144.036-.073.036-.145.108-.217.144-.036 0-.109.037-.145.037-.47-.145-.867.253-1.373.253-.144-1.23.145-2.423.217-3.617.036-.615-.036-1.302.109-1.881.252-.976.144-1.953.289-2.929.108-.976.18-1.989.252-3.002.037-.759.037-1.555.145-2.314.253-1.628.289-3.255.47-4.883.108-.976.18-1.953.252-2.929.037-.724 0-1.447.145-2.134.217-.977.18-1.953.253-2.93.108-1.048.217-2.097.253-3.182.036-.687.036-1.411.18-2.062.217-.976.181-1.953.253-2.929.109-.977.18-2.026.253-3.002.072-.796.036-1.627.18-2.423.181-.977.217-1.953.29-2.93.072-1.012.18-2.025.253-3.002.072-.759 0-1.518.18-2.242.217-1.012.18-2.061.29-3.074.108-1.013.18-1.989.252-3.002.036-.687.072-1.374.145-2.061.144-1.266.289-2.568.325-3.87 0-.47-.18-.723-.578-.94a55.828 55.828 0 01-2.529-1.338c-1.698-.94-3.36-1.917-5.021-2.858-1.626-.904-3.216-1.808-4.841-2.676-2.276-1.266-4.552-2.568-6.864-3.87-1.626-.904-3.252-1.844-4.913-2.748-2.349-1.266-4.697-2.604-7.009-3.906-1.192-.687-2.42-1.338-3.612-2.026-1.915-1.048-3.83-2.133-5.744-3.182-.181-.109-.362-.29-.65-.145 0 .217.036.434 0 .687-.109.977.216 1.88.18 2.857-.036 2.279 0 4.557-.036 6.872 0 .796.18 1.555.433 2.278a2221.52 2221.52 0 004.263 10.887c1.084 2.748 2.132 5.497 3.18 8.21 1.083 2.748 2.13 5.46 3.215 8.209 1.336 3.4 2.637 6.835 3.937 10.235 1.084 2.821 2.24 5.642 3.324 8.463 1.445 3.689 2.854 7.414 4.299 11.139 1.373 3.508 2.782 7.016 4.082 10.561.108.289.542.759.217.904-.434.217-.434-.47-.65-.723-.073-.254-.109-.507-.217-.76-4.66-12.079-9.357-24.123-14.017-36.202a27575.51 27575.51 0 00-11.922-30.778c-.289-.687-.505-1.447-.903-2.17-.144.29-.253.507-.325.724-2.998 7.486-6.033 14.936-9.031 22.423-3.902 9.728-7.84 19.457-11.741 29.186-1.12 2.821-2.276 5.642-3.396 8.427-.289.723-.289.759.47.868 2.637.434 5.274.904 7.947 1.302.976.144 1.12 0 1.481-.905 1.373-3.906 2.782-7.775 4.155-11.681.289-.796 1.011-1.194 1.806-1.085 2.999.506 5.961 1.012 8.96 1.482 3.684.615 7.333 1.194 11.018 1.773.505.072.867.289 1.011.831-.794.037-1.517-.217-2.276-.361-2.565-.47-5.166-.796-7.694-1.266-.362-.072-.47.072-.47.398v.615c.072 2.459 0 4.882.144 7.341.181 3.87 0 7.74.217 11.61.109 2.351.036 4.738.145 7.088.18 3.798 0 7.631.216 11.429-.686.217-1.192-.036-1.734-.47-11.488-8.969-22.867-17.866-34.283-26.727-.686-.506-.975-1.085-1.084-1.953-.505-4.629-1.083-9.259-1.625-13.852-.506-4.123-.976-8.282-1.445-12.405a1295.8 1295.8 0 01-1.482-12.405c-.47-3.653-.867-7.306-1.3-10.922-.434-3.69-.867-7.342-1.3-11.03-.037-.363-.037-.76-.109-1.122-.18-.796-.036-.832.723-1.049.325 0 .614 0 .939-.072 1.698-.398 3.432-.796 5.13-1.194a966.02 966.02 0 009.645-2.35 3448.91 3448.91 0 019.068-2.17l8.887-2.17c1.372-.326 2.745-.688 4.118-.977 1.373-.325 2.782-.542 4.046-1.157 2.637-1.266 5.238-2.568 7.876-3.834.18-.108.47-.145.505-.434.506-.18.94 0 1.373.253 6.43 3.617 12.897 7.197 19.363 10.814.109.072.253.108.398.145.83.65 1.77 1.049 2.673 1.591l9.646 5.425c1.77 1.013 3.576 1.99 5.383 2.966.975.687 2.023 1.193 3.034 1.772 1.554.868 1.301.542 1.301 2.314 0 .145-.036.29-.036.434a39.609 39.609 0 00-.289 3.58c-.109.76-.145 1.484-.217 2.243-.072.76-.109 1.555-.181 2.315-.217 2.314-.433 4.63-.65 6.98-.145 1.7-.217 3.4-.398 5.1-.072.759-.108 1.555-.18 2.314-.217 1.194-.434 2.387-.398 3.617z" fill="#96182B"/><path d="M53.324 155.891c-.217-3.797-.036-7.631-.217-11.428-.108-2.351 0-4.738-.145-7.089-.216-3.87-.036-7.739-.216-11.609-.109-2.459-.036-4.919-.145-7.342v-.615c0-.325.109-.47.47-.398 2.565.471 5.13.796 7.695 1.266.758.145 1.517.398 2.276.362.433.181.505.615.614.976 1.553 4.449 3.143 8.861 4.66 13.31.253.687.614.94 1.3 1.012 1.698.253 3.36.543 5.022.796 1.048.145 2.095.434 3.143.434.217.253.217.94.65.723.325-.144-.108-.615-.217-.904-1.264-3.544-2.709-7.052-4.082-10.56-1.445-3.689-2.854-7.415-4.299-11.14-1.084-2.821-2.24-5.642-3.323-8.463-1.337-3.399-2.638-6.835-3.938-10.235-1.048-2.748-2.132-5.46-3.215-8.21-1.084-2.748-2.132-5.497-3.18-8.21a2217.597 2217.597 0 00-4.262-10.885c-.29-.724-.47-1.483-.434-2.279.036-2.278 0-4.557.036-6.871 0-.94-.289-1.88-.18-2.857.036-.217 0-.47 0-.688.289-.144.47.037.65.145 1.915 1.049 3.83 2.134 5.744 3.183 1.192.687 2.42 1.338 3.613 2.025 2.348 1.302 4.66 2.676 7.008 3.906 1.662.868 3.251 1.845 4.913 2.749a661.006 661.006 0 016.864 3.87c1.626.904 3.215 1.772 4.84 2.676 1.699.94 3.36 1.917 5.022 2.857.831.47 1.662.94 2.53 1.338.397.217.577.47.577.94-.036 1.302-.18 2.568-.325 3.87a39.587 39.587 0 00-.144 2.062c-.073 1.012-.145 2.025-.253 3.001-.109 1.013-.073 2.062-.29 3.075-.144.723-.108 1.482-.18 2.242-.072 1.013-.18 1.989-.253 3.002-.072.976-.108 1.953-.289 2.93-.144.795-.108 1.59-.18 2.422-.073 1.013-.181 2.026-.253 3.002-.109.977-.037 1.953-.253 2.93-.145.651-.145 1.374-.18 2.061-.037 1.085-.145 2.134-.254 3.183-.108.976-.036 1.953-.253 2.929-.18.687-.108 1.447-.144 2.134-.036.976-.145 1.953-.253 2.929-.144 1.628-.18 3.255-.47 4.883-.108.759-.108 1.555-.144 2.315a77.729 77.729 0 01-.253 3.001c-.108.977 0 1.953-.289 2.93-.145.615-.072 1.266-.108 1.88-.073 1.194-.362 2.387-.217 3.617.506 0 .903-.398 1.373-.253-.145.362-.47.398-.759.506-6.539 3.074-13.041 6.112-19.58 9.187-5.022 2.35-10.08 4.701-15.1 7.052-.145.217-.398.506-.723.325z" fill="#881528"/><path d="M102.745 79.005c0-1.193.145-2.387.289-3.58 0-.145.036-.29.036-.434 0-1.772.289-1.447-1.3-2.315-1.012-.578-2.095-1.085-3.035-1.772.036-.29-.072-.578-.18-.832-.687-1.446-1.373-2.857-2.06-4.303-.686-1.447-1.336-2.894-2.023-4.304-.252-.543-.433-1.121-.903-1.555-.036-.145-.072-.29-.216-.326 0-.145 0-.29-.181-.362 0-.18 0-.397-.18-.506a.4.4 0 00-.181-.361c0-.145-.036-.29-.18-.362 0-.145-.037-.29-.182-.362 0-.325-.18-.615-.289-.904-1.517-3.255-3.07-6.474-4.588-9.729a5476.724 5476.724 0 00-7.189-15.117l-1.734-3.69c-1.987-4.194-3.974-8.39-5.96-12.621-.036-.362.253-.507.505-.615.506-.217 1.012-.398 1.518-.615 1.625-.687 3.323-1.302 4.913-2.098 1.517-.831 3.107-.325 4.624-.072 4.877.796 9.718 1.591 14.595 2.387.253.036.505.109.758.145.29.18.614.18.94.144h.072c.289.181.614.217.939.145l.036.036c0 .434-.397.543-.686.687-1.228.543-2.493 1.05-3.721 1.556l-2.384.976c-.759.362-.759.362-.326 1.049.29.434.542.868.76 1.374.686 1.483 1.336 2.93 2.022 4.412 1.445 3.11 2.926 6.221 4.371 9.295 1.409 2.93 2.818 5.895 4.227 8.825.072.18.145.361.253.542.686 1.447 1.409 2.894 2.095 4.34.362-.036.434-.29.578-.542.723-1.338 1.481-2.677 2.204-4.015.939-1.772 1.879-3.58 2.818-5.352v-.036h.036c.036-.037.072-.109.108-.145.723-1.41 1.445-2.821 2.204-4.232 1.553-2.93 3.107-5.895 4.624-8.824.397-.796.939-1.302 1.806-1.628 2.493-.976 4.95-2.025 7.442-3.074.614-.253 1.192-.29 1.843-.18 5.238.904 10.476 1.771 15.714 2.64.831.144 1.662.289 2.493.397-2.131.905-4.299 1.845-6.466 2.713-.542.217-.904.542-1.193 1.049-1.445 2.82-2.817 5.678-4.299 8.499-2.203 4.231-4.262 8.535-6.466 12.766-2.204 4.16-4.191 8.427-6.394 12.586-2.204 4.196-4.227 8.463-6.431 12.695-2.854 5.533-5.635 11.139-8.453 16.709l-.65 1.301c-.109.217-.217.434-.506.434-.289 0-.325-.289-.434-.47-.758-1.519-1.481-3.074-2.203-4.593-.94-1.989-1.987-3.906-2.89-5.931-.217-.579-.47-1.266-.94-1.845z" fill="#2B3642"/><path d="M79.695 12.312c-1.59.795-3.287 1.41-4.913 2.097-.506.217-1.011.434-1.517.615-.29.109-.542.253-.506.615-.759.145-.795.253-.506.868.759 1.627 1.59 3.219 2.348 4.846 1.373 2.894 2.89 5.715 4.227 8.644 1.3 2.785 2.746 5.534 4.082 8.318 1.987 4.16 4.083 8.282 6.106 12.442.614 1.23 1.264 2.459 1.806 3.725.397.904.867 1.772 1.3 2.64.109.217.181.434.434.506 0 .145.036.29.18.362 0 .144.037.29.181.361 0 .145.036.29.18.362 0 .18-.035.398.181.506 0 .145.037.29.181.362 0 .145.036.29.217.326.47.434.614 1.012.903 1.555.686 1.446 1.337 2.893 2.023 4.303.686 1.447 1.373 2.858 2.06 4.304.108.254.252.507.18.832-1.806-.976-3.577-1.989-5.383-2.965l-9.645-5.426c-.904-.506-1.879-.904-2.674-1.59-1.734-3.545-3.432-7.053-5.166-10.598C70.158 38.424 64.342 26.49 58.525 14.59c-.072-.145-.144-.325-.216-.47-.072-.18-.036-.325.18-.398.145-.036.253-.108.398-.18a592.999 592.999 0 007.117-2.966 2.419 2.419 0 011.336-.181c2.999.434 5.997.868 8.995 1.338 1.012.18 2.204.29 3.36.579z" fill="#327857"/><path d="M113.837 38.28c-.939 1.771-1.879 3.58-2.818 5.352a221.472 221.472 0 01-2.203 4.014c-.109.217-.217.47-.579.543-.686-1.447-1.372-2.894-2.095-4.34a3.562 3.562 0 00-.253-.543c-1.409-2.93-2.817-5.859-4.226-8.824-1.482-3.11-2.927-6.22-4.372-9.295a163.953 163.953 0 01-2.023-4.412c-.216-.47-.47-.94-.758-1.375-.434-.65-.434-.687.325-1.048.795-.362 1.59-.651 2.384-.977 1.265-.506 2.493-1.049 3.721-1.555.289-.145.686-.217.686-.687.615.036 1.084.398 1.409.904.253.362.47.723.651 1.121 3.215 6.8 6.394 13.563 9.609 20.362.181.253.217.615.542.76z" fill="#3E4D5E"/><path d="M59.897 49.746c-.037.29-.29.326-.506.434a529.437 529.437 0 01-7.876 3.834c-1.264.615-2.71.832-4.046 1.157l-4.118.977c-2.962.687-5.925 1.446-8.887 2.17-2.998.723-6.033 1.447-9.068 2.17a966.02 966.02 0 00-9.645 2.35c-1.698.398-3.432.796-5.13 1.194-.325.073-.614.073-.94.073 1.193-.724 2.53-1.23 3.758-1.881.794-.398 1.625-.723 2.42-1.194 2.493-1.446 5.275-1.953 8.02-2.64 11.669-2.82 23.373-5.606 35.042-8.426.361-.073.65-.145.976-.218z" fill="#881528"/><path d="M182.001 94.95c-1.084-.146-1.951.216-2.818.903-1.517 1.23-3.179 2.279-4.769 3.436-.108.072-.252.18-.397.18-.578-.072-1.12.218-1.698.182-1.337-.073-2.565.253-3.829.615-2.168.651-4.263 1.41-6.214 2.567-.289.181-.578.362-.975.29 4.479-3.472 9.14-6.546 14.775-7.885a18.85 18.85 0 015.311-.434c.253.037.433.037.614.145zm4.843 110.277c-.036-.326.145-.543.326-.796 1.12-1.446 1.77-3.074 2.276-4.81.144-.506.361-.976.397-1.519 0-.289.253-.506.506-.687 1.192-.832 2.384-1.7 3.576-2.568.578-.434 1.192-.832 1.77-1.23.253-.18.506-.289.795-.289l-.036.072c0 .109-.036.217-.036.326-.253.325-.253.759-.325 1.121-.578 2.821-1.915 5.172-4.263 6.872-1.662 1.229-3.288 2.423-4.986 3.508zm20.738-38.45c-.036-.542.434-.868.723-1.193 1.336-1.483 2.312-3.147 2.817-5.064.109-.361.253-.687.615-.904 1.806-1.23 3.576-2.459 5.31-3.797.217-.181.506-.29.795-.253-.289 1.663-1.084 3.074-2.059 4.412-.759 1.012-1.626 1.953-2.601 2.748-1.771 1.447-3.685 2.749-5.6 4.051zm-89.232-43.316c.325.796.433 1.664.614 2.495.072.362-.036.543-.397.615-2.963.47-5.817 1.302-8.634 2.279a35.27 35.27 0 00-4.516 1.953c-.289.144-.578.361-.976.325 4.046-3.219 8.382-5.967 13.367-7.45.217-.109.361-.145.542-.217zm4.662-29.011c.686-.795 1.625-1.265 2.456-1.88.759-.579 1.554-1.085 2.312-1.664 1.445-1.085 3.071-1.627 4.841-1.808a.794.794 0 01.181.144c-.976.905-2.095 1.556-3.143 2.351-.939.724-1.951 1.302-2.818 2.098a.792.792 0 01-.614.253c-.975-.072-1.879.253-2.782.47-.144.036-.289.036-.433.036z" fill="#018198"/><path d="M90.063 138.715c0-.289.252-.361.433-.47.94-.47 1.915-.94 2.854-1.41.289-.145.578-.217.903-.181-.83.578-1.77.94-2.673 1.374-.506.253-.903.687-1.517.687zm4.699-2.238c0-.073 0-.145.036-.181.903-.579 1.842-1.194 2.926-1.374-.83.687-1.842 1.085-2.818 1.555-.036.036-.108 0-.144 0z" fill="#881528"/><path d="M100.612 14.922c-.324.036-.65.036-.938-.145.325-.036.65-.036.938.145zm1.045.176c-.325.036-.649.036-.938-.145.325-.036.65-.036.938.145z" fill="#679F5B"/><path d="M161.339 103.129c-.072.253-.252.361-.505.361a.744.744 0 01.505-.361zm45.63 64.081c.072-.217.18-.361.397-.289a.558.558 0 01-.397.289zm-20.449 38.269c0-.217.144-.253.324-.217-.036.108-.18.18-.324.217z" fill="#018198"/><path d="M186.34 205.62c.036-.145.072-.217.253-.181-.073.108-.181.144-.253.181zm20.303-38.189c0-.216.144-.216.324-.216-.072.144-.18.18-.324.216z" fill="#018198"/><path d="M108.309 241.967c.036-.072.107-.108.215-.108-.072.072-.144.144-.215.108z" fill="#73AA62"/><path d="M114.014 38.07c-.036.035-.072.107-.108.143 0-.072.036-.108.108-.144z" fill="#3E4D5E"/><path d="M196.381 193.762c0-.108.036-.216.036-.324.108.144.036.252-.036.324z" fill="#0192AC"/><path d="M89.738 138.898c.072-.036.144-.108.216-.144-.072.072-.072.18-.216.144zm4.66-2.282c.072-.035.144-.107.216-.143-.036.108-.072.215-.216.143zm3.325-1.703c.072-.071.108-.143.18-.179 0 .108-.073.143-.18.179z" fill="#881528"/><path d="M207.365 166.922c0-.144.036-.216.18-.144 0 .108-.072.144-.18.144z" fill="#018198"/><path d="M140.241 90.974l-.216-.107c.108 0 .144.035.216.107z" fill="#0192AC"/><path d="M206.463 167.578c.036-.108.108-.18.216-.18-.036.108-.108.18-.216.18zm-45.63-64.086c-.036.108-.108.144-.216.144a.243.243 0 01.216-.144zm-56.356 27.595c-.036.107-.107.143-.215.143a.242.242 0 01.215-.143z" fill="#018198"/><path d="M195.516 173.433c.036-.072.107-.144.179-.144-.072.036-.143.072-.179.144z" fill="#01BCDE"/><path d="M145.625 130.834c-1.228 2.243-2.528 4.449-3.684 6.727-1.012 1.989-1.987 3.942-2.854 6.004-1.59 1.013-3.071 2.17-4.624 3.255-.578.398-1.084.832-1.698 1.157-.326-.253-.037-.47.036-.687 1.3-2.893 2.745-5.714 4.299-8.499a127.383 127.383 0 014.624-7.703c.542-.796.614-.832 1.553-.615.506.108 1.048.036 1.554.072.289.036.614-.036.794.289zm-14.954-9.877c3.793-.398 7.622-.651 11.451-.651.181 0 .362.036.506.036-.325.904-1.047 1.519-1.517 2.278-.434.687-.975 1.266-1.445 1.953-.253.362-.506.507-.939.47-.362-.036-.759 0-1.12 0-2.601-.108-5.166.145-7.767.217-1.662.037-3.324.145-4.95.471-.216.036-.469.072-.65-.145a263.374 263.374 0 016.431-4.629zm49.564 45.642c.433 1.193.867 2.387 1.264 3.58.181.543.145.543-.361.724a1.057 1.057 0 01-.325.072c-.975-.072-1.951.145-2.926.217-1.698.145-3.396.145-5.094.145-.253 0-.433.072-.686.144-.253.073-.542.109-.723-.108-.253-.253 0-.506.109-.687.469-.832.939-1.664 1.445-2.46a53.666 53.666 0 001.95-3.472 251.624 251.624 0 002.312-4.448c.073-.109.109-.289.362-.326.578 1.411 1.372 2.749 1.661 4.268-.433.796-.975 1.519-1.372 2.423.831 0 1.589.036 2.384-.072z" fill="#018198"/><path d="M217.872 151.405c-.795.072-1.301.723-1.879 1.121-1.409.94-2.745 1.953-4.154 2.929-.578.398-.687.362-.903-.289-.614-2.17-1.77-4.051-3.143-5.823-1.229-1.591-2.674-3.001-4.191-4.34a49.749 49.749 0 00-5.202-3.978c-3.143-2.025-6.43-3.87-9.862-5.353-.651-.289-1.301-.614-1.987-.94.433-.506 1.011-.796 1.481-1.157 1.517-1.121 3.034-2.17 4.552-3.255.18-.145.397-.253.614-.289 1.915.687 3.757 1.627 5.563 2.531 4.516 2.315 8.779 4.991 12.5 8.463 2.167 1.989 4.046 4.195 5.383 6.836.614 1.084 1.156 2.242 1.228 3.544zm-59.462-46.363c-1.229 1.012-2.565 1.844-3.757 2.929-.687.615-1.409 1.194-2.096 1.809-.469.434-.542.397-.939-.073-1.445-1.519-2.89-3.038-4.48-4.448-1.047-.904-2.059-1.845-3.106-2.749-2.096-1.772-4.299-3.4-6.648-4.774-1.12-.65-2.203-1.338-3.395-1.88-.398-.181-.434-.398-.073-.651.831-.615 1.698-1.194 2.529-1.809.976-.687 1.915-1.374 2.89-2.061.217-.145.361-.29.361-.543.109.036.217.036.362.073l.216.108c1.734.651 3.324 1.591 4.877 2.604 3.83 2.46 7.298 5.389 10.549 8.571.867.941 1.843 1.881 2.71 2.894zm35.475 4.88c-.723.108-1.192.651-1.734 1.049-1.409.94-2.746 1.989-4.119 2.965a3.03 3.03 0 01-.433.29c-.289.108-.506.072-.542-.326a24.984 24.984 0 00-2.42-7.269c-1.156-2.206-2.71-4.015-4.769-5.353-1.12-.723-1.12-.759-.036-1.555a163.856 163.856 0 014.082-2.893c.434-.326.867-.651 1.264-1.05 1.734.652 3.107 1.737 4.263 3.147 1.77 2.098 2.926 4.521 3.613 7.197.289 1.158.65 2.315.867 3.472-.036.073-.036.181-.036.326z" fill="#2ED9EF"/><path d="M196.706 181.06c-.217 0-.398.036-.578.145-1.662 1.229-3.36 2.423-5.022 3.616-.108.073-.217.181-.361.254-.542.253-.687.18-.795-.398-.361-1.845-.686-3.725-1.048-5.57a55.64 55.64 0 00-.758-3.363c-.072-.362-.109-.507.325-.579 2.276-.398 4.48-1.013 6.683-1.7.109-.036.217-.036.325-.036.434 2.17.867 4.34 1.156 6.546.073.362.145.723.073 1.085zm-89.521-40.612c.614 2.351 1.986 4.268 3.648 6.004 3.035 3.147 6.575 5.606 10.332 7.74.831.47 1.662.904 2.493 1.374a149.592 149.592 0 00-1.156 3.797c-.253.796-.47 1.592-.723 2.387-.18.615-.216.651-.831.434a29.713 29.713 0 01-2.456-1.085c-2.637-1.265-5.166-2.676-7.587-4.303-1.95-1.339-3.829-2.749-5.563-4.376-1.662-1.556-3.107-3.219-4.154-5.245a14.075 14.075 0 01-.506-1.085c-.253-.687-.072-1.157.506-1.591 1.445-1.013 2.854-2.025 4.299-3.038.578-.362 1.047-.868 1.698-1.013zm43.098 23.579c-2.023 1.447-4.046 2.93-6.105 4.377-.578.397-.614.397-.975-.181-1.193-1.953-2.385-3.942-3.577-5.895-1.589-2.677-3.034-5.425-4.479-8.174a239.616 239.616 0 01-2.638-5.353c-.18-.397.036-.578.217-.831.614-.29 1.12-.76 1.698-1.158 1.553-1.049 3.035-2.242 4.624-3.255.506 1.049.976 2.098 1.481 3.111.903 1.772 1.734 3.58 2.746 5.244.036.072.144.144.144.217.253 1.482 1.012 2.712 1.771 3.978.469.796 1.228 1.374 1.734 2.134 0 .144 0 .289.18.289h-.036c-.108.326.145.543.289.76a127.55 127.55 0 012.926 4.737zm14.881 19.641c3.648 3.978 7.55 7.631 12.066 10.633 2.023 1.338 4.154 2.459 6.466 3.255.036.253-.144.397-.325.542-1.806 1.302-3.577 2.604-5.383 3.87a1.321 1.321 0 01-1.156.217c-1.084-.289-2.095-.723-3.107-1.266a37.537 37.537 0 01-3.865-2.278 60.641 60.641 0 01-5.347-4.196c-1.914-1.663-3.648-3.544-5.455-5.316-.614-.615-.614-.615 0-1.266.109-.036.181-.072.181-.181 1.048-.542 1.915-1.338 2.89-1.989 1.048-.651 1.951-1.447 3.035-2.025zm-2.741-74.001c1.083 1.158 2.023 2.423 2.998 3.689 2.565 3.291 4.949 6.727 7.225 10.235-1.445 1.013-2.926 2.062-4.371 3.074-.578.398-1.156.832-1.77 1.23-.578.398-.578.398-.976-.181-.939-1.374-1.878-2.785-2.817-4.123a120.55 120.55 0 00-5.491-7.305c-.434-.507-.795-1.049-1.229-1.555-.289-.326-.18-.507.109-.724.253-.181.542-.325.722-.615.145-.036.253-.072.361-.217l.181-.18c.253 0 .397-.145.506-.362.65-.253 1.12-.76 1.698-1.121.975-.579 1.806-1.375 2.854-1.845zm24.381 39.606c1.156 2.314 2.168 4.737 3.143 7.124 1.084 2.677 2.095 5.353 2.998 8.102.073.217.109.434.181.651-.144.325-.397.47-.686.651a296.937 296.937 0 00-5.455 3.942c-.362.217-.542.144-.687-.29a141.573 141.573 0 00-1.228-3.58c-1.048-2.821-2.168-5.642-3.396-8.391-.433-.94-.831-1.916-1.264-2.857-.109-.289-.181-.542-.145-.832l.181-.18c.217 0 .361-.145.542-.254.975-.687 1.951-1.41 2.962-2.097.939-.651 1.842-1.411 2.854-1.989zm-24.203-13.348c.722.181 1.337.579 1.951.977.542.361 1.083.759 1.661 1.121v-.036c.037.144.145.18.289.18.47.796.976 1.556 1.409 2.351.687 1.23 1.337 2.459 2.023 3.689.181.289.289.615.326.977.144.144.108.289.072.47-.361.036-.65.217-.939.434-1.337.94-2.638 1.917-3.974 2.893-.47.326-.94.651-1.445.94-.217.145-.47.145-.506-.217-.108-.795-.434-1.482-.723-2.206-.65-1.627-1.698-3.002-2.926-4.231-.795-.796-1.734-1.519-2.781-2.026-.687-.325-.723-.542-.109-1.012 1.554-1.121 3.107-2.242 4.697-3.364.361-.289.794-.47.975-.94zm-31.789 43.579c.18 1.194.325 2.387.505 3.58a18.436 18.436 0 001.156 4.123c.759 1.773 1.807 3.255 3.505 4.232-.145.325-.398.542-.687.723-1.553 1.121-3.107 2.243-4.696 3.364-.325.217-.65.506-1.084.506-.181-2.604-.108-5.244-.144-7.848 0-.362-.037-.687-.037-1.049-.072-1.41-.903-2.387-1.914-3.219a20.046 20.046 0 00-1.373-1.049c.433-.759 1.264-1.048 1.915-1.555.686-.578 1.445-1.048 2.167-1.555.253-.181.47-.253.687-.253zm39.122-44.88c.433-.217.758.036 1.119.144 2.818.76 5.6 1.592 8.346 2.532.072.036.18.036.252.072.615.253.651.326.47.977-.578 2.278-1.337 4.484-2.131 6.654-.289.796-.434 1.628-.904 2.315h-.108c-.036 0-.072 0-.072-.036-2.204-4.123-4.371-8.246-6.792-12.261-.108-.108-.144-.253-.18-.397zm-9.933 43.076c-.108.651-.578 1.085-.939 1.519-1.192 1.483-2.421 2.929-3.649 4.376-.47.543-.686.579-1.156 0l-2.276-2.821c-1.337-1.664-2.565-3.4-3.793-5.136a.497.497 0 01-.108-.144c-.073-.181-.289-.326-.181-.543.144-.253.433-.144.614-.108l4.335.651c1.192.144 2.421.181 3.577.398.939.18 1.878 0 2.817.289-.18.036-.289.108-.144.325.325.398.686.76.903 1.194zm-29.337-56.747c-2.131 1.519-4.263 3.038-6.43 4.593-.325 0-.434-.181-.506-.47-.397-1.772-.831-3.58-1.192-5.353-.181-.831.036-1.446.867-1.953 1.553-.976 2.962-2.133 4.479-3.182.362-.253.723-.579 1.193-.651.469 2.097.83 4.231 1.408 6.293.037.217.109.47.181.723zm3.652 11.507c0 .651-.434 1.121-.759 1.628a113.046 113.046 0 00-3.685 6.871c-.108.217-.217.398-.361.651-.325-.217-.434-.579-.542-.868-1.156-2.966-2.312-5.895-3.251-8.933-.037-.181-.109-.325-.145-.506-.108-.253 0-.362.253-.398 1.445-.109 2.926-.326 4.371-.362 1.156 0 2.276-.289 3.432-.144.253.687.47 1.374.687 2.061z" fill="#01BCDE"/><path d="M186.812 149.279c-1.012.578-1.951 1.338-2.89 1.989-.976.687-1.987 1.41-2.963 2.097-.18.109-.325.254-.541.254-.037-.29.036-.579.144-.832 1.192-2.713 2.204-5.498 3.143-8.318.542-1.592 1.012-3.219 1.481-4.883.903.109 1.626.723 2.493.977.506.18.975.47 1.481.723.253.108.47.253.47.542-.47 1.7-1.192 3.328-1.843 4.991-.289.904-.65 1.664-.975 2.46zm.174 20.503c1.807-1.302 3.649-2.64 5.455-3.942.253-.181.542-.361.687-.651.289.145.542.036.831 0 3.251-.687 6.466-1.591 9.537-2.929.108-.036.217-.072.325-.072-.145.687-.723 1.048-1.192 1.41-1.843 1.41-3.83 2.604-5.997 3.508-2.673 1.157-5.455 1.953-8.273 2.604-.433.109-.903.434-1.373.072zm-48.011 22.388c3.287 0 6.322-.941 9.248-2.351.216-.109.397-.253.65-.253.036.253-.145.398-.361.542-2.312 1.808-4.733 3.4-7.37 4.629-2.167 1.013-4.407 1.773-6.792 2.098-.325.036-.83.181-.939-.108-.18-.398.361-.507.614-.688 1.518-1.121 3.071-2.206 4.624-3.327.181-.145.326-.253.326-.542zm26.194-8.501c-1.048.578-1.987 1.374-2.963 2.025-.975.651-1.842 1.447-2.89 1.989 0-.181.073-.325.181-.47 2.131-2.351 4.082-4.81 5.961-7.378.614-.832 1.228-1.664 1.77-2.532.253-.434.578-.578 1.048-.578.614.036 1.228 0 1.806 0 .217 0 .47-.036.614.181-1.228 1.772-2.673 3.399-4.082 5.063-.47.578-.976 1.121-1.445 1.7zm-38.509-19.711c.903-3.255 1.915-6.474 3.179-9.584.361.181.434.434.542.651.759 1.447 1.409 2.93 2.204 4.304.18.325.072.542-.181.759-.397.326-.831.615-1.264.905-1.301.94-2.601 1.88-3.938 2.821-.072.108-.217.217-.542.144zm-18.281-28.213c-.506.832-.939 1.664-1.192 2.641-.47.289-.939.542-1.373.831-1.445 1.049-2.854 2.098-4.299 3.147-.217.145-.433.506-.722.253s.036-.542.144-.759c.831-1.845 2.276-3.147 3.866-4.304.867-.651 1.806-1.23 2.817-1.664.217-.145.47-.398.759-.145zm20.556-36.233c-.036.109-.073.254-.109.362-.036.072-.036.109-.072.181 0 .108-.036.217-.036.325-.325-.036-.614.145-.867.326-1.409 1.012-2.854 2.025-4.263 3.074-.144.108-.253.217-.433.289-.181.109-.326.398-.578.217-.289-.217-.217-.506-.109-.795.325-1.122.795-2.17 1.554-3.074.65-.76 1.589-1.158 2.565-1.23.794-.109 1.589-.036 2.348.325zm17.483 25.317c.036-.361.253-.614.47-.904.975-1.193 1.95-2.423 2.962-3.616.686-.796 1.409-1.519 2.095-2.315.253-.289.506-.362.723.036.253.434.794.687.758 1.302-.18.47-.722.76-.794 1.302-1.012.434-1.807 1.194-2.71 1.809-1.011.687-2.023 1.446-3.034 2.169-.145.145-.253.217-.47.217zm16.004-15.155c-1.047.47-1.878 1.266-2.853 1.881-.578.361-1.084.868-1.698 1.121-.036-.326.216-.543.433-.687 1.301-.941 2.565-1.917 3.902-2.821.217-.145.469-.362.795-.181-.145.253-.47.398-.579.687z" fill="#018198"/><path d="M157.873 112.675a.652.652 0 01-.506.361c0-.361.253-.361.506-.361zm-9.033 76.889c.072-.144.216-.18.325-.216 0 .216-.145.216-.325.216zm14.451-80.861c-.036.144-.144.217-.288.253-.073-.253.108-.253.288-.253zm-6.108 4.516c-.072.144-.216.18-.361.216.072-.18.217-.216.361-.216zm46.643 48.931a.431.431 0 01.325-.18c-.036.144-.18.18-.325.18zm-23.412-8.502l-.18.18c.072-.072.144-.108.18-.18z" fill="#018198"/><path d="M166.47 138.206c-.144 0-.252-.036-.288-.181.18-.036.216.109.288.181z" fill="#fff"/><path d="M159.281 187.687c-.036.108-.108.144-.179.18.036-.072.107-.108.179-.18zm-50.827-52.079l-.036.036c-.036-.036-.036-.072-.072-.108.036.036.072.072.108.072zm55.016-27.054c-.036.108-.108.18-.216.18.036-.108.108-.18.216-.18z" fill="#018198"/><path d="M130.921 172.238c.036.072.036.144-.036.216-.036-.072-.036-.144.036-.216z" fill="#01BCDE"/><path d="M157.367 113.039l-.179.18.179-.18zm-10.91 11.789c-.036.036-.072.036-.072.072 0-.036 0-.036.072-.072-.036 0 0 0 0 0z" fill="#018198"/><path d="M77.854 135.601c-1.084 0-2.095-.289-3.143-.434-1.698-.253-3.36-.543-5.021-.796-.65-.108-1.048-.325-1.3-1.012-1.518-4.449-3.108-8.861-4.66-13.31-.145-.361-.182-.795-.615-.976-.145-.506-.506-.723-1.012-.832a1173.18 1173.18 0 01-11.018-1.772c-2.998-.47-5.96-.977-8.96-1.483-.83-.145-1.516.253-1.805 1.085a1502.41 1502.41 0 00-4.155 11.682c-.325.904-.506 1.049-1.481.904-2.637-.434-5.274-.868-7.948-1.302-.722-.109-.758-.145-.47-.868 1.12-2.821 2.277-5.642 3.396-8.427 3.938-9.765 7.84-19.493 11.741-29.222 2.999-7.487 6.033-14.937 9.032-22.423a5.68 5.68 0 01.325-.724c.433.724.65 1.447.903 2.17a27171.92 27171.92 0 0011.922 30.778c4.66 12.079 9.356 24.123 14.016 36.202.145.254.181.507.253.76zM51.23 85.402c-.326.362-.398.723-.506 1.049-1.626 4.412-3.288 8.824-4.913 13.237-.904 2.459-1.843 4.918-2.746 7.378-.253.723-.217.795.398.904 1.408.253 2.853.47 4.262.687 3.468.579 6.936 1.157 10.405 1.7.758.108 1.48.325 2.312.289-3.071-8.463-6.142-16.817-9.212-25.244z" fill="#A6A5A5"/><path d="M92.519 57.634c-.253-.073-.325-.326-.434-.507-.433-.868-.903-1.736-1.3-2.64-.542-1.266-1.192-2.495-1.807-3.725-2.023-4.16-4.118-8.282-6.105-12.441-1.337-2.785-2.782-5.534-4.082-8.318-1.337-2.894-2.854-5.715-4.227-8.644-.758-1.628-1.553-3.219-2.348-4.847-.289-.614-.253-.723.506-.867 1.987 4.195 3.974 8.39 5.96 12.622l1.735 3.689c2.384 5.027 4.768 10.054 7.189 15.117 1.517 3.219 3.07 6.474 4.588 9.729.144.253.325.506.325.832zm.687 1.587c-.216-.108-.18-.325-.18-.505.18.108.18.288.18.505zm-.363-.864c-.145-.073-.18-.217-.18-.361.144.072.18.216.18.36zm.183.32c-.144-.072-.18-.216-.18-.36a.4.4 0 01.18.36z" fill="#679F5B"/><path d="M92.698 57.994c-.144-.072-.18-.217-.18-.361.144.072.18.216.18.36zm.69 1.551c-.145-.073-.181-.217-.181-.361.144.072.18.216.18.36zm.215.362c-.18-.036-.216-.18-.216-.325.144.036.18.18.216.325z" fill="#679F5B"/><path d="M128.754 100.051c.036-.072.036-.108.072-.18.036.072 0 .108-.072.18z" fill="#0192AC"/><path d="M146.965 158.246c.072.108.108.181.18.289-.18-.036-.18-.181-.18-.289z" fill="#fff"/><path d="M161.016 159.403c.072-.181.18-.361.397-.289a.563.563 0 01-.397.289z" fill="#018198"/><path d="M161.412 159.116c0-.253.145-.253.325-.217-.072.145-.18.181-.325.217z" fill="#018198"/><path d="M170.336 145.665c-.362.036-.651.217-.94.434-1.336.94-2.637 1.917-3.974 2.893a19.36 19.36 0 01-1.445.94c-.216.145-.469.145-.505-.217-.109-.795-.434-1.482-.723-2.206-.65-1.627-1.698-3.002-2.926-4.231-.795-.796-1.734-1.519-2.782-2.026-.686-.325-.722-.542-.108-1.012 1.553-1.121 3.107-2.243 4.696-3.364.361-.253.795-.434.976-.94-1.337-.651-2.71-.94-4.191-.832a7.106 7.106 0 00-4.335 1.194c-2.023 1.302-3.974 2.748-5.889 4.195l-.036.036c-.072.036-.108.109-.18.145-3.324 1.88-4.913 4.738-4.913 8.535 0 .94.144 1.845.252 2.749.037.072.145.144.145.217.253 1.483 1.011 2.712 1.77 3.978.47.796 1.228 1.374 1.734 2.134.072.108.109.181.181.289h-.036c.325.072.505.362.758.543 1.156.94 2.421 1.699 3.83 2.133 3.395 1.049 6.538.651 9.284-1.772.072-.181.181-.325.397-.289 0-.217.145-.217.325-.217 1.482-.94 2.818-1.989 4.263-2.966 1.048-.723 2.023-1.482 2.746-2.567.686-1.049 1.336-2.062 1.481-3.328.47-1.519.434-2.965.145-4.448z" fill="#018198"/><path d="M148.152 140.484c-.071.036-.107.108-.179.144.036-.108.108-.144.179-.144z" fill="#018198"/><path d="M51.23 85.402c3.07 8.427 6.141 16.818 9.212 25.244-.831.037-1.59-.18-2.312-.289-3.468-.542-6.936-1.121-10.404-1.7-1.41-.217-2.854-.47-4.263-.687-.614-.108-.65-.217-.398-.904.904-2.459 1.843-4.919 2.746-7.378 1.626-4.412 3.287-8.825 4.913-13.237.108-.325.18-.687.506-1.049z" fill="#96182B"/><path d="M123.194 232.998l7.622-5.642-1.228-42.495-4.805 2.748 4.66-2.857-38.04-26.473.036-.037-.036.037-.036-.037-33.995 16.492-7.73 5.208-.181 46.185 35.8 26.365.254.506 37.643-19.602-.217-.398h.253zm-1.084-43.399l-.181-.037.109-.18-.037-.037.073-.036.036.29zm-37.463-25.715l.145.073-.217.361-.18-.325.252-.109z" fill="#246D30"/><path d="M122.471 189.674l-72.974-9.729-.18 46.184 73.732 6.872-.578-43.327z" fill="#246D30"/><path d="M84.756 163.781l-35.44 62.351 35.982 26.474 36.631-63.219-37.173-25.606z" fill="#337F3F"/><path opacity=".57" d="M91.294 158.278l-7.334 5.171 39.088 69.91-37.643 19.602-35.909-73.02 7.731-5.208 34.067-16.455z" fill="url(#paint33_linear)"/><path d="M91.22 158.278l38.041 26.51-7.406 4.593-37.968-25.932 7.333-5.171z" fill="url(#paint34_linear)"/><path d="M129.443 184.895l1.228 42.496-7.622 5.642-1.084-43.87 7.478-4.268z" fill="#337F3F"/><path d="M49.496 179.941l35.259-16.166 6.466-5.497-33.994 16.455-7.73 5.208z" fill="#246D30"/><path d="M50.796 65.805a5.612 5.612 0 00-.325.723c-2.999 7.486-6.033 14.937-9.032 22.423-3.938 9.729-7.84 19.458-11.777 29.186-1.12 2.821-2.276 5.642-3.396 8.427-.289.723-.289.76.47.868 2.637.434 5.274.904 7.948 1.302.975.145 1.12 0 1.48-.904 1.374-3.906 2.782-7.776 4.155-11.682.29-.795 1.012-1.193 1.807-1.085 2.998.507 5.96 1.013 8.959 1.483.289.036.614.109.903.145v-7.27c-1.445-.217-2.854-.47-4.299-.687-1.409-.217-2.854-.47-4.263-.687-.614-.109-.65-.217-.397-.904.903-2.46 1.842-4.919 2.745-7.378 1.626-4.412 3.288-8.825 4.913-13.237.109-.326.217-.651.506-1.049.253.687.578-17.287.47-17.54-.253-.688-.47-1.411-.867-2.134z" fill="#CCC"/><path d="M122.613 23.34l33.236 5.75 9.357-4.375-34.428-5.172-8.165 3.797zm-62.716-9.543l33.236 5.715 9.356-4.34L68.061 10l-8.164 3.797z" fill="#4CA578"/><path d="M153.067 162.301c5.966 0 10.802-5.069 10.802-11.321 0-6.251-4.836-11.32-10.802-11.32-5.965 0-10.801 5.069-10.801 11.32 0 6.252 4.836 11.321 10.801 11.321z" fill="#0192AC"/><path d="M93.206 78.79l9.862-3.798v-1.338L61.271 50l-9.718 4.014-.145 1.05 41.798 23.724z" fill="#B24056"/></g><path opacity=".3" d="M383.975 221.573v-75.986M335.104 12v75.986M359 196v34.316" stroke="#7A9DC4"/><path fill="#3F6690" d="M311.292 53.672H295v15.933h16.292zm78.95 68.633H373.95v15.933h16.292zm-25.963 58.629H353v11.03h11.279zM352.652 25.477h-7.519v7.354h7.519zM364.279 165h-7.519v7.354h7.519z"/></g><defs><linearGradient id="paint0_linear" x1="248.653" y1="220.753" x2="112.108" y2="224.45" gradientUnits="userSpaceOnUse"><stop stop-color="#7162C8"/><stop offset=".63" stop-color="#654BB7"/><stop offset="1" stop-color="#5D3BAB"/></linearGradient><linearGradient id="paint1_linear" x1="249.003" y1="234.625" x2="339.006" y2="232.189" gradientUnits="userSpaceOnUse"><stop stop-color="#7162C8"/><stop offset=".63" stop-color="#654BB7"/><stop offset="1" stop-color="#5D3BAB"/></linearGradient><linearGradient id="paint2_linear" x1="248.481" y1="219.071" x2="111.939" y2="222.767" gradientUnits="userSpaceOnUse"><stop stop-color="#766DD4"/><stop offset=".426" stop-color="#7265CC"/><stop offset="1" stop-color="#7162C8"/></linearGradient><linearGradient id="paint3_linear" x1="338.841" y1="230.561" x2="248.849" y2="232.997" gradientUnits="userSpaceOnUse"><stop stop-color="#766DD4"/><stop offset=".417" stop-color="#9D82E3"/><stop offset=".786" stop-color="#B991EE"/><stop offset="1" stop-color="#C397F2"/></linearGradient><linearGradient id="paint4_linear" x1="300.126" y1="254.366" x2="148.693" y2="133.745" gradientUnits="userSpaceOnUse"><stop stop-color="#515AA5"/><stop offset=".157" stop-color="#515AA5"/><stop offset=".468" stop-color="#A79EDE"/><stop offset=".898" stop-color="#E5E3F8"/><stop offset="1" stop-color="#F5F5FF"/></linearGradient><linearGradient id="paint5_linear" x1="338.08" y1="163.95" x2="333.219" y2="164.082" gradientUnits="userSpaceOnUse"><stop stop-color="#7162C8"/><stop offset=".63" stop-color="#654BB7"/><stop offset="1" stop-color="#5D3BAB"/></linearGradient><linearGradient id="paint6_linear" x1="335.682" y1="75.18" x2="189.741" y2="79.131" gradientUnits="userSpaceOnUse"><stop stop-color="#7162C8"/><stop offset=".63" stop-color="#654BB7"/><stop offset="1" stop-color="#5D3BAB"/></linearGradient><linearGradient id="paint7_linear" x1="335.514" y1="120.058" x2="190.137" y2="123.994" gradientUnits="userSpaceOnUse"><stop stop-color="#CFCFFF"/><stop offset=".068" stop-color="#D4D4FF"/><stop offset=".356" stop-color="#E7E7FF"/><stop offset=".66" stop-color="#F1F1FF"/><stop offset="1" stop-color="#F5F5FF"/></linearGradient><linearGradient id="paint9_linear" x1="257.966" y1="238.446" x2="242.947" y2="238.852" gradientUnits="userSpaceOnUse"><stop stop-color="#766DD4"/><stop offset=".417" stop-color="#9D82E3"/><stop offset=".786" stop-color="#B991EE"/><stop offset="1" stop-color="#C397F2"/></linearGradient><linearGradient id="paint10_linear" x1="243.573" y1="230.992" x2="228.548" y2="231.398" gradientUnits="userSpaceOnUse"><stop stop-color="#766DD4"/><stop offset=".417" stop-color="#9D82E3"/><stop offset=".786" stop-color="#B991EE"/><stop offset="1" stop-color="#C397F2"/></linearGradient><linearGradient id="paint11_linear" x1="190.493" y1="163.597" x2="156.596" y2="164.515" gradientUnits="userSpaceOnUse"><stop stop-color="#766DD4"/><stop offset=".417" stop-color="#9D82E3"/><stop offset=".786" stop-color="#B991EE"/><stop offset="1" stop-color="#C397F2"/></linearGradient><linearGradient id="paint12_linear" x1="304.918" y1="179.831" x2="182.115" y2="183.155" gradientUnits="userSpaceOnUse"><stop stop-color="#766DD4"/><stop offset=".417" stop-color="#9D82E3"/><stop offset=".786" stop-color="#B991EE"/><stop offset="1" stop-color="#C397F2"/></linearGradient><linearGradient id="paint13_linear" x1="269.013" y1="201.042" x2="146.213" y2="204.366" gradientUnits="userSpaceOnUse"><stop stop-color="#766DD4"/><stop offset=".417" stop-color="#9D82E3"/><stop offset=".786" stop-color="#B991EE"/><stop offset="1" stop-color="#C397F2"/></linearGradient><linearGradient id="paint14_linear" x1="294.094" y1="192.676" x2="191.058" y2="195.465" gradientUnits="userSpaceOnUse"><stop stop-color="#766DD4"/><stop offset=".417" stop-color="#9D82E3"/><stop offset=".786" stop-color="#B991EE"/><stop offset="1" stop-color="#C397F2"/></linearGradient><linearGradient id="paint15_linear" x1="229.055" y1="205.599" x2="153.575" y2="207.642" gradientUnits="userSpaceOnUse"><stop stop-color="#766DD4"/><stop offset=".417" stop-color="#9D82E3"/><stop offset=".786" stop-color="#B991EE"/><stop offset="1" stop-color="#C397F2"/></linearGradient><linearGradient id="paint16_linear" x1="282.302" y1="200.688" x2="179.748" y2="203.464" gradientUnits="userSpaceOnUse"><stop stop-color="#766DD4"/><stop offset=".417" stop-color="#9D82E3"/><stop offset=".786" stop-color="#B991EE"/><stop offset="1" stop-color="#C397F2"/></linearGradient><linearGradient id="paint17_linear" x1="152.881" y1="181.901" x2="137.917" y2="182.306" gradientUnits="userSpaceOnUse"><stop stop-color="#766DD4"/><stop offset=".417" stop-color="#9D82E3"/><stop offset=".786" stop-color="#B991EE"/><stop offset="1" stop-color="#C397F2"/></linearGradient><linearGradient id="paint18_linear" x1="257.959" y1="237.523" x2="242.936" y2="237.93" gradientUnits="userSpaceOnUse"><stop stop-color="#F5F5FF"/><stop offset=".874" stop-color="#DEDEFF"/><stop offset="1" stop-color="#DADAFF"/></linearGradient><linearGradient id="paint19_linear" x1="243.554" y1="230.069" x2="228.531" y2="230.476" gradientUnits="userSpaceOnUse"><stop stop-color="#F5F5FF"/><stop offset=".874" stop-color="#DEDEFF"/><stop offset="1" stop-color="#DADAFF"/></linearGradient><linearGradient id="paint20_linear" x1="190.466" y1="162.655" x2="156.571" y2="163.573" gradientUnits="userSpaceOnUse"><stop stop-color="#F5F5FF"/><stop offset=".874" stop-color="#DEDEFF"/><stop offset="1" stop-color="#DADAFF"/></linearGradient><linearGradient id="paint21_linear" x1="304.895" y1="178.897" x2="182.095" y2="182.221" gradientUnits="userSpaceOnUse"><stop stop-color="#F5F5FF"/><stop offset=".874" stop-color="#DEDEFF"/><stop offset="1" stop-color="#DADAFF"/></linearGradient><linearGradient id="paint22_linear" x1="268.991" y1="200.093" x2="146.19" y2="203.417" gradientUnits="userSpaceOnUse"><stop stop-color="#F5F5FF"/><stop offset=".874" stop-color="#DEDEFF"/><stop offset="1" stop-color="#DADAFF"/></linearGradient><linearGradient id="paint23_linear" x1="294.074" y1="191.745" x2="191.039" y2="194.534" gradientUnits="userSpaceOnUse"><stop stop-color="#F5F5FF"/><stop offset=".874" stop-color="#DEDEFF"/><stop offset="1" stop-color="#DADAFF"/></linearGradient><linearGradient id="paint24_linear" x1="229.041" y1="204.667" x2="153.565" y2="206.71" gradientUnits="userSpaceOnUse"><stop stop-color="#F5F5FF"/><stop offset=".874" stop-color="#DEDEFF"/><stop offset="1" stop-color="#DADAFF"/></linearGradient><linearGradient id="paint25_linear" x1="282.277" y1="199.757" x2="179.722" y2="202.533" gradientUnits="userSpaceOnUse"><stop stop-color="#F5F5FF"/><stop offset=".874" stop-color="#DEDEFF"/><stop offset="1" stop-color="#DADAFF"/></linearGradient><linearGradient id="paint26_linear" x1="152.866" y1="180.978" x2="137.898" y2="181.383" gradientUnits="userSpaceOnUse"><stop stop-color="#F5F5FF"/><stop offset=".874" stop-color="#DEDEFF"/><stop offset="1" stop-color="#DADAFF"/></linearGradient><linearGradient id="paint27_linear" x1="190.893" y1="99.107" x2="247.717" y2="99.107" gradientUnits="userSpaceOnUse"><stop offset=".5" stop-color="#fff"/><stop offset="1" stop-color="#B7B6B6"/></linearGradient><linearGradient id="paint28_linear" x1="110.132" y1="32.093" x2="110.132" y2="64.571" gradientUnits="userSpaceOnUse"><stop stop-color="#06EDE1"/><stop offset="1" stop-color="#06EDE1" stop-opacity="0"/></linearGradient><linearGradient id="paint29_linear" x1="83.183" y1="94.421" x2="83.183" y2="126.899" gradientUnits="userSpaceOnUse"><stop stop-color="#06EDE1"/><stop offset="1" stop-color="#06EDE1" stop-opacity="0"/></linearGradient><linearGradient id="paint30_linear" x1="91.144" y1="212.442" x2="91.144" y2="234.927" gradientUnits="userSpaceOnUse"><stop stop-color="#06EDE1"/><stop offset="1" stop-color="#06EDE1" stop-opacity="0"/></linearGradient><linearGradient id="paint31_linear" x1="64.049" y1="8.517" x2="64.049" y2="23.507" gradientUnits="userSpaceOnUse"><stop stop-color="#06EDE1"/><stop offset="1" stop-color="#06EDE1" stop-opacity="0"/></linearGradient><linearGradient id="paint32_linear" x1="89.119" y1="198.49" x2="89.119" y2="213.479" gradientUnits="userSpaceOnUse"><stop stop-color="#06EDE1"/><stop offset="1" stop-color="#06EDE1" stop-opacity="0"/></linearGradient><linearGradient id="paint33_linear" x1="49.507" y1="205.622" x2="123.046" y2="205.622" gradientUnits="userSpaceOnUse"><stop stop-color="#0A6A00"/><stop offset="1" stop-color="#6BBF47"/></linearGradient><linearGradient id="paint34_linear" x1="83.871" y1="173.815" x2="129.271" y2="173.815" gradientUnits="userSpaceOnUse"><stop offset=".16" stop-color="#6BBF47"/><stop offset=".38" stop-color="#79B461"/><stop offset=".47" stop-color="#75AC64"/><stop offset=".7" stop-color="#659E5A"/><stop offset=".9" stop-color="#3E863D"/></linearGradient><radialGradient id="paint8_radial" cx="0" cy="0" r="1" gradientUnits="userSpaceOnUse" gradientTransform="matrix(0 81.0242 -71.3782 0 262.056 121.501)"><stop stop-color="#515AA5"/><stop offset=".5" stop-color="#515AA5"/><stop offset="1" stop-color="#33425A"/></radialGradient><clipPath id="clip0"><path fill="#fff" d="M0 0h390v264H0z"/></clipPath></defs></svg>