<svg width="61" height="55" fill="none" xmlns="http://www.w3.org/2000/svg"><path opacity=".3" d="M38.703 12.369c0 3.317-1.012 6.172-3.037 8.563-2.025 2.366-4.952 4.086-8.782 5.16v.219c8.928 1.122 13.393 5.342 13.393 12.661 0 4.977-1.976 8.892-5.928 11.747C30.42 53.573 24.956 55 17.955 55c-2.879 0-5.55-.207-8.014-.622C7.5 53.963 4.854 53.207 2 52.109V40.106a32.513 32.513 0 007.136 2.672c2.44.56 4.684.841 6.733.841 3.171 0 5.477-.439 6.916-1.317 1.464-.903 2.196-2.305 2.196-4.208 0-1.464-.378-2.586-1.135-3.367-.756-.805-1.976-1.402-3.659-1.793-1.683-.415-3.879-.622-6.587-.622h-3.293V21.444h3.366c7.343 0 11.015-1.879 11.015-5.636 0-1.415-.549-2.464-1.647-3.147-1.073-.683-2.525-1.024-4.354-1.024-3.416 0-6.953 1.146-10.612 3.44L2.073 5.415c2.83-1.952 5.721-3.342 8.673-4.172C13.722.414 17.126 0 20.956 0c5.537 0 9.88 1.098 13.027 3.293 3.147 2.196 4.72 5.221 4.72 9.076z" fill="#fff"/><circle opacity=".3" cx="55" cy="49" r="6" fill="#fff"/></svg>