<svg width="61" height="55" fill="none" xmlns="http://www.w3.org/2000/svg"><path opacity=".3" d="M39.943 55H.593v-9.643l13.24-13.388c3.783-3.956 6.256-6.651 7.418-8.085 1.162-1.459 1.965-2.707 2.41-3.746a7.83 7.83 0 00.705-3.263c0-1.41-.457-2.522-1.372-3.338-.915-.816-2.2-1.224-3.857-1.224-1.706 0-3.437.494-5.192 1.483-1.731.965-3.697 2.399-5.897 4.302L0 8.678c2.794-2.497 5.143-4.277 7.047-5.34A24.785 24.785 0 0113.24.853C15.49.284 18.012 0 20.806 0c3.51 0 6.638.618 9.383 1.854 2.769 1.237 4.908 3.004 6.416 5.304 1.533 2.274 2.3 4.833 2.3 7.677 0 2.126-.273 4.092-.817 5.897-.519 1.805-1.335 3.585-2.447 5.34-1.113 1.73-2.596 3.56-4.45 5.489-1.83 1.928-5.75 5.588-11.757 10.978v.37h20.509V55z" fill="#fff"/><circle opacity=".3" cx="55" cy="49" r="6" fill="#fff"/></svg>