<svg width="178" height="177" fill="none" xmlns="http://www.w3.org/2000/svg"><g clip-path="url(#clip0)"><path d="M175.38 75.607c-4.823-31.573-24.593-70.368-63.676-74.427 0 0-29.677-3.6-58.919 1.855-17.37 3.251-32.58 12.895-42.225 26.794C.937 43.706-2.293 60.66 1.613 76.807 4.145 87.28 5.87 98.124 5.388 108.903c-.829 18.743-.349 36.264 17.85 47.436 16.258 9.993 36.705 18.787 56.213 20.336 13.268 1.047 28.129-.655 40.916-4.102 65.138-17.587 59.835-65.394 55.013-96.966z" fill="#F4F7FA"/><path d="M75.26 30.395s6.7 2.269 7.42 13.964c-1.092-.087-3.645 0-3.645 0s.48-8.51-4.299-10.146c.393-1.004.524-3.818.524-3.818z" fill="#D8DEE8"/><path d="M50.668 29.696c.175 2.139.327 4.255.502 6.393 3.317-.96 6.94-2.072 10.845-2.269a47.11 47.11 0 0113.835 1.353c.175-.262.568-.916.764-1.964.284-1.702-.196-3.098-.284-3.36a39.561 39.561 0 00-6.83-1.876c-7.048-1.288-13.398-.022-18.832 1.723z" fill="#97A6B7"/><path d="M50.341 31.551c0-.763.066-1.724.306-1.854.24-.11.545.589.676.981.066.153.175.546.262 1.79.11 1.592-.022 2.378-.131 2.88-.065.283-.175.742-.306.742-.109 0-.218-.262-.37-.808-.197-.742-.459-1.942-.437-3.73z" fill="#818E9B"/><path d="M44.23 44.992c1.397.284 4.78 1.09 4.78 1.09s-2.205-7.483 1.942-10.93a8.196 8.196 0 00.087-2.532c-.11-.829-.306-1.505-.502-1.963-1.746 1.069-5.586 4.603-6.306 14.335z" fill="#D8DEE8"/><path d="M15.492 46.956s.175-3.928 5.957-3.928c.917.72.96 3.928.96 3.928h-6.917z" fill="#818E9B"/><path d="M10.364 124.175l15.864 10.343 9.602-38.01-15.843-50.97-4.495 1.418-6.809 73.204c-.152 1.659.524 3.251 1.68 4.015z" fill="#97A6B7"/><path opacity=".2" d="M35.83 96.508l-15.842-50.97-4.496 1.418c1.113 4.495 1.637 11.826 1.877 15.906 1.07 17.347 4.582 22.19 2.88 34.279-1.418 10.058-4.517 11.433-4.255 18.197.306 7.375 4.277 13.55 9.034 18.416l1.179.764 9.623-38.01z" fill="#97A6B7"/><path d="M19.986 45.538h87.091l13.704 80.797-94.576 8.183-6.219-88.98z" fill="#D8DEE8"/><path d="M107.078 45.538h-29.35a61.227 61.227 0 01-2.575 6.545C62.038 80.274 32.012 83.831 32.535 88.478c.808 6.917 67.691-2.902 69.394 6.612.829 4.603-13.29 15.033-28.063 18.983-17.676 4.734-30.66-1.222-39.28 9.404-2.923 3.6-4.211 7.811-4.844 10.67l91.041-7.812-13.705-80.797z" fill="#D8DEE8"/><path d="M21.471 43.028c-.982 0-2.357-.13-3.84.808-.328.196-.59.414-.852.654l.677-.262c1.113-.349 2.618.11 3.186 1.31.698 1.461.96 4.865 1.113 6.545.436 4.779 3.098 34.584 3.098 34.584.197 2.51 1.964 4.408 4.06 4.364l81.001-4.538a2.84 2.84 0 001.724-.633c1.07-.873 1.528-2.4 1.288-3.84l-4.103-35.479c-.349-2.03-1.833-3.513-3.557-3.513H21.471z" fill="#97A6B7"/><path d="M22.321 43.028c-.982 0-2.138-.153-3.448.24-.349.11-.916.284-1.156.502 0 0 2.75-.698 3.797 1.767.633 1.506.96 4.866 1.113 6.546.436 4.779 3.098 34.584 3.098 34.584.197 2.51 1.964 4.408 4.06 4.364l81.918-1.898a2.843 2.843 0 001.724-.633c1.069-.873 1.527-2.4 1.287-3.84l-5.019-38.119c-.349-2.03-1.833-3.513-3.557-3.513H22.321z" fill="url(#paint0_linear)"/><path opacity=".2" d="M114.736 84.66l-5.019-38.119c-.349-2.03-1.833-3.513-3.557-3.513H22.321c-.982 0-2.138-.153-3.448.24-.349.11-.916.284-1.156.502 0 0 2.75-.698 3.797 1.767.109.24.196.524.284.851 7.964.35 15.93.087 23.872.655 15.734 1.069 31.642 1.069 46.503 7.898 4.757 2.182 8.008 10.037 6.72 13.66-.938 2.618-4.102 2.4-5.215 5.847-1.156 3.6 1.637 6.066.459 8.597-1.222 2.662-4.954 1.397-10.977 3.273a27.726 27.726 0 00-7.463 3.687l36.006-.829a2.843 2.843 0 001.724-.633c1.069-.916 1.549-2.421 1.309-3.883z" fill="#97A6B7"/><path d="M125.082 67.509s14.403-24.94 33.89 17.477c15.166 33.035 5.368 69.779-29.743 79.86-35.09 10.081-89.906-10.277-72.71-24.634 36.507-30.439 64.199-57.43 68.563-72.703z" fill="url(#paint1_linear)"/><path opacity=".3" d="M143.151 89.918c1.025 3.011 1.265 11.63.829 21.536-.393 8.837.415 13.441-13.639 19.878-4.822 2.204-8.139 9.186-15.515 13.331-3.339 1.877-15.93 8.706-32.187 5.935-10.758-1.832-18.767-7.091-24.157-12.022 35.526-29.784 62.345-56.076 66.622-71.088 0 0 5.259-9.099 13.726-6.96-2.073 2.312-2.771 8.487 4.321 29.39z" fill="url(#paint2_linear)"/><path opacity=".3" d="M73.059 154.809c16.606 9.165 44.32 14.75 64.985-.589 19.116-14.204 20.818-37.987 21.473-45.253 1.113-12.677-1.375-23.74-4.932-32.642 1.44 2.509 2.902 5.367 4.408 8.64 15.166 33.035 5.368 69.779-29.743 79.86-34.566 9.949-88.225-9.623-73.474-23.936 4.19 4.734 9.842 9.797 17.283 13.92z" fill="url(#paint3_linear)"/><path opacity=".3" d="M99.203 157.537c.502 0 .982 0 1.484-.022 12.809-.284 30.812-4.538 43.752-23.194 10.933-15.754 9.471-33.537 6.307-45.69-3.404-13.136-9.493-22.692-9.536-22.78a.219.219 0 00-.306-.065.218.218 0 00-.065.305c.065.088 6.088 9.6 9.492 22.67 3.121 12.045 4.583 29.697-6.241 45.298-12.831 18.503-30.681 22.714-43.403 22.998-13.791.305-24.68-3.819-24.79-3.862-.109-.044-.24.022-.305.131-.044.109.022.24.13.305.132.044 10.322 3.906 23.48 3.906z" fill="url(#paint4_linear)"/><path d="M30.376 155.181c.916-.982 2.553-5.215-.437-6.088-3.011-.873-4.67-1.986-8.816-5.302-4.146-3.317-5.193-.459.655 4.909 5.826 5.39 7.288 7.877 8.598 6.481z" fill="url(#paint5_linear)"/><path d="M34.283 148.984l-2.466 2.16a1.548 1.548 0 01-1.833.153 1.025 1.025 0 01-.458-.786.978.978 0 01.349-.829l3.6-3.077.808 2.379z" fill="#fff"/><path d="M108.04 128.278c4.342 3.819-4.735 16.3-19.247 12.263-17.588-4.909-39.934-2.706-55.013 9.579-.872-.786-3.033-2.008-2.05-2.989 13.616-13.769 26.229-21.667 36.682-23.784 15.798-3.229 27.233-5.913 39.628 4.931z" fill="url(#paint6_linear)"/><path opacity=".24" d="M57.043 133.514c-2.553 1.483-3.099-1.528-4.408-3.513 5.652-3.47 10.954-5.695 15.777-6.677 15.799-3.207 27.233-5.891 39.628 4.975 4.343 3.818-4.735 16.299-19.247 12.262-5.237-1.462-10.932-2.291-16.693-2.4-4.648-2.945-8.445-9.644-15.057-4.647z" fill="url(#paint7_linear)"/><path d="M110.613 141.303l.895.349s5.783-5.454 6.808-6.851c1.266-1.702-12.896-6.022-17.479-11.673-4.823-5.935-1.004 7.047-1.004 7.047l10.78 11.128z" fill="url(#paint8_linear)"/><path d="M115.851 87.78s-5.128.698-10.758 10.67c-4.234 7.506-13.399 13.703-13.399 13.703l-.938 5.891 7.616 1.331 2.727-1.789 7.442-15.82 7.31-13.986z" fill="url(#paint9_linear)"/><path d="M125.8 87.147s12.635 1.55 12.919 16.103c.24 13.419-4.583 18.634-16.476 29.827-1.2 1.135-3.142 1.135-3.273 1.288-.764.873-1.549 1.767-2.335 2.727-10.627-10.211-22.63-13.659-22.63-13.659s11.086-22.954 15.974-30.547c4.998-7.855 12.57-6.502 15.821-5.739z" fill="url(#paint10_linear)"/><path opacity=".3" d="M104.808 121.033c5.346 2.858 12.896 2.531 15.689-1.004 2.095-2.662 2.445-3.643 4.976-7.833 2.051-3.36 3.055-3.906 7.528-6.72 1.702-1.069 3.601-2.619 5.499-4.931.11.851.197 1.745.219 2.705.24 13.419-4.583 18.634-16.476 29.827-1.2 1.135-3.142 1.135-3.273 1.288-.764.873-1.549 1.767-2.335 2.727-10.627-10.211-22.63-13.659-22.63-13.659s1.834-3.6 4.278-8.684c1.746 2.968 3.099 4.451 6.525 6.284z" fill="url(#paint11_linear)"/><path d="M113.516 121.469s-2.401.11-4.103-.567c-1.702-.676-1.571-.851-3.513-1.091-1.899-.24-5.652-1.374-3.535-3.295 2.357-2.138 6.415-1.549 7.572-.109 1.113 1.375 3.077 2.248 3.077 2.248l.502 2.814z" fill="#fff"/><path d="M134.901 94.413s7.027.808 2.924 23.434c-2.116 11.717-12.634 10.081-25.313 5.237-.851-1.789.24-5.608.24-5.608s15.755 6.503 16.17-2.989c.458-10.626 1.877-21.208 5.979-20.074z" fill="url(#paint12_linear)"/><path d="M122.857 91.97c3.011 0 6.066-2.226 6.197-2.335.044-.044.065-.11.022-.153-.044-.044-.109-.065-.153-.022-.044.022-4.059 2.946-7.31 2.139-.895-.219-1.506-.655-1.833-1.31-.59-1.222.087-2.793.087-2.814.022-.066 0-.131-.066-.153-.065-.022-.13 0-.152.065-.022.066-.72 1.68-.088 3.011.35.699 1.004 1.179 1.986 1.44.437.088.873.132 1.31.132z" fill="url(#paint13_linear)"/><path d="M118.382 133.907a.164.164 0 00.087-.044.105.105 0 000-.153c-.109-.109-11.434-10.233-21.647-12.721-.065-.022-.13.022-.13.088-.023.065.021.131.087.131 10.168 2.487 21.428 12.568 21.559 12.677 0 0 .022.022.044.022z" fill="url(#paint14_linear)"/><path d="M126.194 82.085s-.393 4.517-.044 5.368c.35.85-.763 2.029-2.967 2.465-2.204.458-.459-4.495-.459-4.495l3.47-3.338z" fill="#fff"/><path d="M119.823 82.412c-2.291-1.243-2.248-7.135-.96-7.593.742-.262 1.113 1.55 3.579 2.597 1.92.807 3.273.392 3.971 1.527.327.524.458 1.31.349 1.964-.065.349-.218.785-.567 1.636-.327.764-.306.72-.393.96-.24.524-.742 1.44-1.746 2.597a7.135 7.135 0 00-.589-1.135c-.109-.153-.524-.785-1.069-1.287-1.026-.895-1.92-.916-2.575-1.266z" fill="url(#paint15_linear)"/><path d="M125.41 84.9s-.851 2.116-3.208 2.334c-2.116.197-3.164-4.429-1.985-5.629.392-.393 1.265-.676 2.007-.59.437.044.611.197 1.353.284.677.066.851-.043 1.069.088.284.174.546.633.349 2.073.328-.459.786-.699 1.157-.59a.758.758 0 01.327.219c.35.48-.021 1.243-1.069 1.81z" fill="#fff"/><path d="M111.836 124.502c.11.022.219.109.24.218 0 .022-.043.59-.043.611.022.131-.066.262-.197.306l-10.758 3.491-20.097-7.877 9.58.72 21.275 2.531z" fill="url(#paint16_linear)"/><path d="M111.836 124.437c.131.022.24.131.24.262.022.131-.066.262-.197.305l-10.758 3.491-20.098-7.877 9.537.72 21.276 3.099z" fill="url(#paint17_linear)"/><path d="M101.624 128.321l-1.593-20.947a.72.72 0 00-.61-.655l-24.07-3.774a.645.645 0 00-.59.174.793.793 0 00-.24.567l.895 19.529a.741.741 0 00.59.676l24.985 4.626.633-.196z" fill="url(#paint18_linear)"/><path d="M101.099 129.106l-25.662-4.887a.744.744 0 01-.59-.677l-.894-19.528c0-.175.044-.349.153-.48.022-.022.044-.066.087-.088a.665.665 0 01.59-.174l24.069 3.775a.717.717 0 01.61.654l1.528 19.9.109 1.505z" fill="url(#paint19_linear)"/><path d="M101.099 129.106l-25.662-4.887a.744.744 0 01-.59-.677l-.261-5.891c7.638 4.342 17.24 4.887 26.164 6.633l.349 4.822z" fill="url(#paint20_linear)"/><path opacity=".2" d="M101.099 129.106l-25.662-4.887a.743.743 0 01-.59-.677l-.894-19.528c0-.175.044-.349.153-.48.24-.306 2.051.545 2.291.698 1.048.676 1.68 1.811 2.117 2.946 1.462 3.862 2.008 8.727 6.394 10.473 2.05.829 4.19 1.135 6.24 2.029 2.052.895 4.016 2.008 5.805 3.36.851.655 1.68 1.353 2.4 2.161.48.545 1.572 1.614 1.637 2.378l.109 1.527z" fill="url(#paint21_linear)"/><path d="M57.631 124.72c.35-1.221 1.135-2.574-1.636-3.556-2.008-.72-5.5-.938-8.663-1.113-4.452-.218-5.478 2.422 1.025 4.124 4.233 1.135 8.772 2.269 9.274.545z" fill="url(#paint22_linear)"/><path d="M54.161 122.866c-.043.676.393 1.222.96 1.287 1.31.196 1.07-.48 1.113-1.178.044-.677.568-1.157-.96-1.288-.567-.065-1.07.48-1.113 1.179z" fill="#fff"/><path d="M67.67 118.938l-1.31-.196s-2.53.24-9.492 2.16c-1.484.24-3.535 4.604.851 4.778 4.386.175 9.69 3.426 9.69 3.426l.261-10.168z" fill="url(#paint23_linear)"/><path d="M113.061 139.209s-.633 5.651-13.77 5.127-36.617-14.161-36.464-21.318c.153-7.156 8.881-4.298 17.937-.152 7.638 3.491 19.422 5.52 21.844 5.891 3.077.48 11.216 7.724 10.453 10.452z" fill="url(#paint24_linear)"/><path opacity=".2" d="M95.863 132.117c-6.089-.611-7.442-4.975-15.014-6.24-4.91-.808-6.633.632-9.143-1.048-1.964-1.331-2.99-3.622-3.47-6.131 3.36.284 7.878 2.051 12.504 4.168 7.42 3.382 18.745 5.389 21.626 5.847.087.022 2.007-.676 2.007-.676s1.419.807 2.444 1.462c-3.993 2.138-8.728 2.836-10.954 2.618z" fill="url(#paint25_linear)"/></g><defs><linearGradient id="paint0_linear" x1="17.734" y1="67.028" x2="114.793" y2="67.028" gradientUnits="userSpaceOnUse"><stop offset=".494" stop-color="#EBEFF2"/><stop offset="1" stop-color="#fff"/></linearGradient><linearGradient id="paint1_linear" x1="138.345" y1="74.913" x2="52.852" y2="257.564" gradientUnits="userSpaceOnUse"><stop stop-color="#AA80F9"/><stop offset=".996" stop-color="#6165D7"/></linearGradient><linearGradient id="paint2_linear" x1="99.067" y1="102.1" x2="106.966" y2="148.558" gradientUnits="userSpaceOnUse"><stop stop-color="#AA80F9"/><stop offset=".996" stop-color="#6165D7"/></linearGradient><linearGradient id="paint3_linear" x1="138.344" y1="74.914" x2="52.851" y2="257.565" gradientUnits="userSpaceOnUse"><stop stop-color="#AA80F9"/><stop offset=".996" stop-color="#6165D7"/></linearGradient><linearGradient id="paint4_linear" x1="153.058" y1="111.633" x2="75.597" y2="111.633" gradientUnits="userSpaceOnUse"><stop stop-color="#AA80F9"/><stop offset=".996" stop-color="#6165D7"/></linearGradient><linearGradient id="paint5_linear" x1="31.004" y1="154.632" x2="19.343" y2="141.238" gradientUnits="userSpaceOnUse"><stop stop-color="#40447E"/><stop offset=".996" stop-color="#3C3B6B"/></linearGradient><linearGradient id="paint6_linear" x1="112.54" y1="118.512" x2="22.049" y2="159.701" gradientUnits="userSpaceOnUse"><stop stop-color="#444B8C"/><stop offset=".996" stop-color="#26264F"/></linearGradient><linearGradient id="paint7_linear" x1="52.624" y1="130.914" x2="109.137" y2="130.914" gradientUnits="userSpaceOnUse"><stop stop-color="#444B8C"/><stop offset=".996" stop-color="#26264F"/></linearGradient><linearGradient id="paint8_linear" x1="144.449" y1="141.394" x2="65.88" y2="121.761" gradientUnits="userSpaceOnUse"><stop stop-color="#444B8C"/><stop offset=".996" stop-color="#26264F"/></linearGradient><linearGradient id="paint9_linear" x1="101.181" y1="95.878" x2="109.644" y2="124.091" gradientUnits="userSpaceOnUse"><stop stop-color="#FFC444"/><stop offset=".996" stop-color="#F36F56"/></linearGradient><linearGradient id="paint10_linear" x1="117.308" y1="116.966" x2="144.799" y2="247.687" gradientUnits="userSpaceOnUse"><stop stop-color="#FFC444"/><stop offset=".996" stop-color="#F36F56"/></linearGradient><linearGradient id="paint11_linear" x1="111.675" y1="131.095" x2="122.438" y2="97.659" gradientUnits="userSpaceOnUse"><stop stop-color="#FFC444"/><stop offset=".996" stop-color="#F36F56"/></linearGradient><linearGradient id="paint12_linear" x1="126.257" y1="115.084" x2="153.748" y2="245.805" gradientUnits="userSpaceOnUse"><stop stop-color="#FFC444"/><stop offset=".996" stop-color="#F36F56"/></linearGradient><linearGradient id="paint13_linear" x1="119.311" y1="89.638" x2="129.104" y2="89.638" gradientUnits="userSpaceOnUse"><stop stop-color="#FFC444"/><stop offset=".996" stop-color="#F36F56"/></linearGradient><linearGradient id="paint14_linear" x1="96.671" y1="127.433" x2="118.498" y2="127.433" gradientUnits="userSpaceOnUse"><stop stop-color="#FFC444"/><stop offset=".996" stop-color="#F36F56"/></linearGradient><linearGradient id="paint15_linear" x1="130.338" y1="93.297" x2="119.988" y2="75.66" gradientUnits="userSpaceOnUse"><stop stop-color="#311944"/><stop offset="1" stop-color="#6B3976"/></linearGradient><linearGradient id="paint16_linear" x1="81.011" y1="125.177" x2="112.088" y2="125.177" gradientUnits="userSpaceOnUse"><stop stop-color="#AB316D"/><stop offset="1" stop-color="#792D3D"/></linearGradient><linearGradient id="paint17_linear" x1="81.048" y1="124.544" x2="112.088" y2="124.544" gradientUnits="userSpaceOnUse"><stop stop-color="#AB316D"/><stop offset="1" stop-color="#792D3D"/></linearGradient><linearGradient id="paint18_linear" x1="74.505" y1="115.729" x2="101.615" y2="115.729" gradientUnits="userSpaceOnUse"><stop stop-color="#AB316D"/><stop offset="1" stop-color="#792D3D"/></linearGradient><linearGradient id="paint19_linear" x1="73.938" y1="116.184" x2="101.1" y2="116.184" gradientUnits="userSpaceOnUse"><stop stop-color="#AB316D"/><stop offset="1" stop-color="#792D3D"/></linearGradient><linearGradient id="paint20_linear" x1="74.57" y1="123.386" x2="101.1" y2="123.386" gradientUnits="userSpaceOnUse"><stop stop-color="#AB316D"/><stop offset="1" stop-color="#792D3D"/></linearGradient><linearGradient id="paint21_linear" x1="73.938" y1="116.288" x2="101.1" y2="116.288" gradientUnits="userSpaceOnUse"><stop stop-color="#AB316D"/><stop offset="1" stop-color="#792D3D"/></linearGradient><linearGradient id="paint22_linear" x1="57.539" y1="124.954" x2="44.395" y2="119.608" gradientUnits="userSpaceOnUse"><stop stop-color="#444B8C"/><stop offset=".996" stop-color="#26264F"/></linearGradient><linearGradient id="paint23_linear" x1="118.829" y1="132.201" x2="53.884" y2="121.831" gradientUnits="userSpaceOnUse"><stop stop-color="#444B8C"/><stop offset=".996" stop-color="#26264F"/></linearGradient><linearGradient id="paint24_linear" x1="143.168" y1="146.536" x2="64.598" y2="126.903" gradientUnits="userSpaceOnUse"><stop stop-color="#444B8C"/><stop offset=".996" stop-color="#26264F"/></linearGradient><linearGradient id="paint25_linear" x1="115.452" y1="134.444" x2="68" y2="121.223" gradientUnits="userSpaceOnUse"><stop stop-color="#444B8C"/><stop offset=".996" stop-color="#26264F"/></linearGradient><clipPath id="clip0"><path fill="#fff" d="M0 0h178v177H0z"/></clipPath></defs></svg>