<svg width="210" height="124" fill="none" xmlns="http://www.w3.org/2000/svg"><path d="M154.504 24.939c0-2.754-1.84-5.08-4.143-5.2l-91.163-5.097c-.103 0-.206-.017-.327-.017-2.063-.017-3.833.958-4.916 2.463-.688.958-1.066 2.138-1.066 3.42v74.714c0 .428.017.838.103 1.249.017.102.034.205.052.29.103.394.24.753.43 1.095.756 1.454 2.165 2.48 3.85 2.805.602.12 1.238.137 1.891.069l71.462-8.398 19.684-2.327c2.303-.273 4.143-2.72 4.143-5.473V24.939z" fill="#B7C0CE"/><path d="M152.714 19.72l-91.162-5.097c-3.507-.189-6.378 2.446-6.378 5.883v74.697c0 3.438 2.87 5.901 6.378 5.49l91.162-10.724c2.304-.274 4.161-2.72 4.161-5.457V24.937c-.018-2.754-1.857-5.08-4.161-5.217z" fill="#fff"/><path d="M61.548 98.744c-2.373.274-4.332-1.403-4.332-3.746V20.61c0-2.327 1.942-4.123 4.332-4.003l91.162 4.738c1.565.086 2.837 1.676 2.837 3.54v59.782c0 1.881-1.272 3.54-2.837 3.729L61.548 98.744z" fill="#F4F7FA"/><path d="M152.714 19.72l-91.162-5.097c-3.507-.189-6.378 2.446-6.378 5.883v4.482l101.701 3.506V24.92c-.018-2.736-1.857-5.063-4.161-5.2z" fill="#D8DEE8"/><path d="M66.43 20.403a1.921 1.921 0 01-2.028 1.916c-1.135-.052-2.046-.992-2.046-2.104s.911-1.967 2.046-1.916c1.117.069 2.028 1.01 2.028 2.104zm7 .326a1.86 1.86 0 01-1.976 1.881c-1.1-.051-1.994-.975-1.994-2.07 0-1.094.893-1.932 1.994-1.88 1.1.05 1.977.974 1.977 2.069zm6.808.291a1.84 1.84 0 01-1.908 1.864c-1.066-.052-1.925-.958-1.925-2.036 0-1.077.86-1.915 1.925-1.864 1.049.068 1.908.975 1.908 2.035z" fill="#fff"/><path d="M152.012 71.632l-89.41 6.466V37.115l89.41.941v33.576z" fill="url(#paint0_linear)"/><path d="M152.012 77.431l-89.41 7.731v-3.147l89.41-7.15v2.566zm0 6.312l-89.41 9.117v-3.13l89.41-8.553v2.566zM113.57 31.557L62.6 30.325v3.13l50.97.924v-2.822zm33.935.82v2.6l4.504.086v-2.566l-4.504-.12z" fill="#D8DEE8"/><path d="M126.86 37.8l-3.335 7.406-10.675.325-5.295 14.83m-.034-.358l-12 1.077-3.18-9.596-10.245 3.028-12.618-17.327" stroke="#F4F7FA" stroke-miterlimit="10"/><path d="M95.193 75.74l.516-6.672 12.446-9.732" stroke="#F4F7FA" stroke-miterlimit="10"/><path d="M107.655 59.796l3.748-4.567 6.859 2.48 7.977-4.327 25.36 10.294" stroke="#F4F7FA" stroke-miterlimit="10"/><ellipse opacity=".5" cx="104.611" cy="108.887" rx="52.5" ry="4.263" fill="url(#paint1_radial)"/><path d="M104.491 115.707v1.82c0 .455-.249.848-.56.889l-28.335 2.565a2.058 2.058 0 01-.621-.021c-.062 0-.104-.02-.166-.041l-19.74-3.723c-.207-.062-.372-.331-.372-.641v-1.924l20.94-2.586 2.693-1.282 2.672.393 1.574-.31 3.625 1.055 18.29 3.806z" fill="url(#paint2_linear)"/><path opacity=".3" d="M104.49 115.706v1.82c0 .455-.249.848-.56.889l-28.335 2.565c-.207.021-.476.021-.621-.02v-9.763l3.376-.414 2.672.393 1.574-.31 3.625 1.054 18.269 3.786z" fill="url(#paint3_linear)"/><path d="M82.597 110.866l-27.9 3.682 20.133 3.785c.248.062.497.083.745.041l28.916-2.688-21.894-4.82z" fill="url(#paint4_linear)"/><path d="M92.83 114.197c0 1.323-4.184 2.358-9.963 2.626-1.45.063-3.025.083-4.64.042-7.954-.186-14.333-1.655-14.333-3.289 0-.041 0-.124.02-.124h-.02l.041-.083c0-.021.02-.041.02-.083l1.823-4.778 2.217-5.771 3.107-8.087 2.382-6.185 2.962-7.695c.372-.972 1.056-1.572 1.802-1.572.103 0 .207 0 .29.042.621.145 1.18.703 1.512 1.53l2.982 7.757 2.382 6.267 3.128 8.254 2.258 5.936h.041l1.885 4.82c.041.124.103.268.103.393z" fill="url(#paint5_linear)"/><path d="M90.817 108.984c-1.802.6-4.702 1.035-8.16 1.2a76.33 76.33 0 01-4.413.062c-5.344-.103-9.963-.786-12.427-1.717l2.216-5.771c2.589.579 6.214.972 10.232 1.035 1.305.02 2.569 0 3.77-.042 2.527-.103 4.764-.351 6.524-.682l2.237 5.936.021-.021zm-5.401-14.19c-1.387.145-2.9.248-4.515.29-.87.02-1.76.041-2.651.02-2.59-.02-5.034-.186-7.126-.455l2.383-6.184a57.54 57.54 0 004.743.186c.58 0 1.16 0 1.74-.02a71.862 71.862 0 003.024-.125l2.402 6.288z" fill="#fff"/><path opacity=".2" d="M82.891 116.823c-1.45.062-3.024.083-4.64.042-7.954-.186-14.333-1.655-14.333-3.289 0-.041 0-.124.02-.124h-.02l.041-.083c0-.021.021-.041.021-.083l1.823-4.778 2.216-5.771 3.107-8.087 2.382-6.185 2.941-7.695c.373-.972 1.057-1.572 1.802-1.572.104 0 .207 0 .29.042.311 1.965.85 5.378 1.45 9.411.29 2.027.622 4.22.912 6.454.393 2.875.787 5.853 1.097 8.646.27 2.296.498 4.488.663 6.453.249 2.813.332 5.171.228 6.619z" fill="url(#paint6_linear)"/><defs><linearGradient id="paint0_linear" x1="62.534" y1="57.595" x2="152.031" y2="57.595" gradientUnits="userSpaceOnUse"><stop stop-color="#F7DA5C"/><stop offset="1" stop-color="#F15DAB"/></linearGradient><linearGradient id="paint2_linear" x1="54.697" y1="115.883" x2="104.491" y2="115.883" gradientUnits="userSpaceOnUse"><stop stop-color="#FFC444"/><stop offset=".996" stop-color="#F36F56"/></linearGradient><linearGradient id="paint3_linear" x1="91.885" y1="108.531" x2="83.49" y2="131.704" gradientUnits="userSpaceOnUse"><stop stop-color="#FFC444"/><stop offset=".592" stop-color="#F8924F"/><stop offset=".996" stop-color="#F36F56"/></linearGradient><linearGradient id="paint4_linear" x1="83.192" y1="105.227" x2="74.298" y2="129.773" gradientUnits="userSpaceOnUse"><stop stop-color="#FFC444"/><stop offset=".592" stop-color="#F8924F"/><stop offset=".996" stop-color="#F36F56"/></linearGradient><linearGradient id="paint5_linear" x1="79.774" y1="68.373" x2="77.967" y2="127.296" gradientUnits="userSpaceOnUse"><stop stop-color="#FFC444"/><stop offset=".996" stop-color="#F36F56"/></linearGradient><linearGradient id="paint6_linear" x1="63.918" y1="98.046" x2="82.934" y2="98.046" gradientUnits="userSpaceOnUse"><stop stop-color="#FFC444"/><stop offset=".996" stop-color="#F36F56"/></linearGradient><radialGradient id="paint1_radial" cx="0" cy="0" r="1" gradientUnits="userSpaceOnUse" gradientTransform="matrix(0 4.2625 -52.5 0 104.611 108.887)"><stop stop-color="#7A9DC4"/><stop offset="1" stop-color="#7A9DC4" stop-opacity="0"/></radialGradient></defs></svg>