<svg width="36" height="36" fill="none" xmlns="http://www.w3.org/2000/svg"><path d="M17.905 15.372a4.71 4.71 0 100-9.42 4.71 4.71 0 000 9.42zm9.53 0a2.978 2.978 0 100-5.956 2.978 2.978 0 000 5.956zm-19.057 0a2.978 2.978 0 100-5.956 2.978 2.978 0 000 5.956zm2.934 2.674c-1.172-.96-2.234-.834-3.589-.834-2.027 0-3.676 1.64-3.676 3.654v5.913a1.59 1.59 0 001.592 1.586c3.791 0 3.335.069 3.335-.163 0-4.19-.497-7.263 2.338-10.157z" fill="#00D0CD"/><path d="M19.193 17.234c-2.367-.197-4.425.002-6.2 1.467-2.97 2.38-2.398 5.582-2.398 9.5a1.9 1.9 0 001.896 1.897c11.428 0 11.883.368 12.56-1.132.223-.508.162-.347.162-5.202 0-3.856-3.34-6.53-6.02-6.53zm8.896-.022c-1.363 0-2.418-.126-3.589.833 2.813 2.873 2.338 5.736 2.338 10.156 0 .234-.379.164 3.278.164.91 0 1.65-.737 1.65-1.643v-5.856c0-2.014-1.65-3.654-3.677-3.654z" fill="#00D0CD"/></svg>