<svg width="56" height="56" fill="none" xmlns="http://www.w3.org/2000/svg"><path d="M41.69 37.024l-.045-.053a15.197 15.197 0 00-5.827-4.237 12.845 12.845 0 01-8.8 3.48 12.838 12.838 0 01-8.69-3.378 15.18 15.18 0 00-5.588 4.135l-.046.054C10.243 39.928 9 43.225 9 46.824V48h36.385v-1.176c0-3.6-1.243-6.896-3.695-9.8z" fill="#fff"/><path d="M14.496 26.823h2.582a10.452 10.452 0 01-.536-2.352H25.5v2.352h-8.42a10.63 10.63 0 003.862 5.101 10.478 10.478 0 006.078 1.937 10.48 10.48 0 006.134-1.975 10.662 10.662 0 002.757-2.912c.427-.67.78-1.39 1.05-2.15h2.679a2.726 2.726 0 002.723-2.723v-.807C42.362 14.861 35.5 8 27.068 8c-8.434 0-15.295 6.86-15.295 15.294v.807a2.726 2.726 0 002.723 2.723zm12.572-16.47c5.912 0 10.91 3.986 12.45 9.412H36.94c-1.462-4.067-5.357-6.984-9.92-6.984-4.565 0-8.46 2.917-9.923 6.984h-2.48c1.54-5.426 6.538-9.412 12.45-9.412z" fill="#fff"/></svg>