<svg width="216" height="123" fill="none" xmlns="http://www.w3.org/2000/svg"><path d="M172.295 83.66l-10.936.335c-3.026-.175-6.491-.116-10.205-.014-3.713.102-7.222.277-10.277.627l-11.229.335v2.275c0 1.459 9.694 2.334 21.55 1.955 11.74-.365 21.156-1.882 21.141-3.311v-.087l-.044-2.115z" fill="url(#paint0_linear)"/><path d="M172.295 83.689c.029 1.43-9.386 2.859-21.126 3.209-11.842.35-21.521-.525-21.521-1.984 0-1.444 9.664-2.888 21.492-3.223 11.696-.32 21.126.569 21.155 1.998z" fill="url(#paint1_linear)"/><path opacity=".5" d="M158.508 50.13l-5.424 4.26 5.526 4.112c6.184 4.58 9.854 11.828 9.956 19.645l.073 5.352c0 .103-.087.19-.234.292l-16.71-.394-1.126.03-16.974 1.37c-.161-.087-.205-.175-.205-.277l-.014-5.425c-.015-7.92 3.64-15.43 9.839-20.287l5.483-4.302-5.527-4.113a24.31 24.31 0 01-9.854-19.543l-.014-5.513 16.842.715h1.111l16.55-.89.073 5.44c.132 7.555-3.333 14.789-9.371 19.528z" fill="#D8DEE8"/><path d="M168.638 83.485c0 .102-.073.204-.233.306-1.346.89-8.553 1.75-17.281 2.013-8.802.262-16.155-.175-17.544-1.007-.161-.087-.234-.19-.234-.291 0-1.007 7.982-2.042 17.763-2.32 9.693-.276 17.515.307 17.529 1.299z" fill="#BFC8D6"/><path d="M151.417 67.355l-.892.014-.117-14.57.892-.014.117 14.57z" fill="url(#paint2_linear)"/><path d="M150.832 44.238l-10.394.132.54.904s3.86 5.513 9.927 8.473c5.995-3.15 9.723-8.736 9.723-8.736l.511-.904-10.307.131z" fill="url(#paint3_linear)"/><path d="M161.14 43.932c0 .54-4.59 1.05-10.307 1.123-5.731.073-10.395-.306-10.409-.86 0-.554 4.664-1.05 10.395-1.123 5.716-.073 10.321.32 10.321.86z" fill="url(#paint4_linear)"/><path d="M165.54 83.558c-5.146 1.152-13.158 1.502-14.313 1.531h-.263c-.614.015-3.187.058-6.243-.029-2.69-.088-5.775-.263-8.231-.67l.015-.015v-.642c.117-1.896.395-7.38 1.345-8.561 1.14-1.415 12.719-8.736 13.099-8.999.395.234 11.96 7 13.1 8.328.307.365.556 1.167.746 2.144.234 1.108.394 2.45.497 3.66.19 1.794.248 3.253.248 3.253z" fill="url(#paint5_linear)"/><path d="M140.963 33.402c-.117-3.412.176-5.906.176-5.906s-.936-2.159-4.211-1.167c-.862 2.523-1.199 4.944-1.155 7.102l5.19-.029zm.087 1.532l-5.175.043c1.155 11.362 12.281 17.866 12.281 17.866l2.631-.044c-7.28-2.844-9.298-11.507-9.737-17.865zm.338 47.822l-4.678.13a20.958 20.958 0 01-.819-6.022l5.263-.132c-.088 3.398.219 5.892.234 6.024zm-.159-7.613l-5.249.131c1.112-11.77 12.208-18.712 12.208-18.712l2.646-.043c-7.28 3.223-9.225 12.09-9.605 18.624z" fill="#fff"/><path d="M171.374 25.133l-10.702.058c-2.953-.233-6.36-.262-9.985-.248-3.641.015-7.062.088-10.059.365l-10.98.058v2.13c0 1.385 9.474 2.464 21.083 2.377 11.491-.088 20.701-1.254 20.687-2.625v-.015l-.044-2.1z" fill="url(#paint6_linear)"/><path d="M171.374 25.118c.015 1.371-9.196 2.524-20.673 2.596-11.593.073-21.053-.991-21.053-2.377 0-1.385 9.46-2.552 21.024-2.596 11.448-.044 20.687 1.021 20.702 2.377z" fill="url(#paint7_linear)"/><path opacity=".3" d="M165.54 83.558c-5.146 1.152-13.158 1.502-14.313 1.531h-.263c-.614.015-3.187.058-6.243-.03-2.69-.087-5.775-.262-8.231-.67l.015-.015c0-.029-.015-.262 0-.641 2.895 0 8.918-.204 11.52-1.896 3.48-2.26 6.389-2.407 10.191-1.794 3.128.51 5.38-1.24 6.593-3.398.234 1.108.395 2.45.512 3.66a73.15 73.15 0 01.219 3.253z" fill="url(#paint8_linear)"/><path d="M116.667 43.655l.614-1.356c.234-.51.087-1.123-.307-1.371l-1.594-.977c.439-1.225.731-2.523.892-3.865l1.783-.131c.468-.03.834-.51.834-1.08v-1.487c0-.554-.366-.992-.834-.963l-1.739.102a16.12 16.12 0 00-.804-3.835l1.476-1.094a.99.99 0 00.132-.117l.19.481 2.398-2.96-3.158-.263a.739.739 0 00-.527-.306.786.786 0 00-.526.146l-1.447 1.05a13.885 13.885 0 00-2.398-2.873l.102-.233 2.222.452.278-3.676-3.377-.554c-.395-.146-.833.044-1.038.481l-.833 1.721c-1.082-.54-.19-1.093-1.404-1.254l1.287-1.881c0-.584-3.758-.977-4.255-.977h-1.359c-.512 0-.936.48-.936 1.079v2.012a11.95 11.95 0 00-3.64 1.182l2.31-1.692s-4.08-.773-4.547-.467l-1.243.817c-.468.306-.629.992-.365 1.517l.935 1.808c-1.023.92-1.462 1.444-2.237 2.64l-2.178-.496c-.483-.291-1.097-.102-1.374.452l-.746 1.459c-.278.554-.117 1.225.38 1.517l1.754 1.05A17.951 17.951 0 0090.424 34l-2.106.117c-.57.03-1.023.569-1.023 1.196v1.662c0 .57.38 1.007.877 1.05l2.398.38c.205 1.24.526 2.42.98 3.53l-1.916 1.385c-.482.35-.658 1.05-.38 1.575L90 46.25c.277.51 4.722.817 4.722.817l-1.418-1.969a13.169 13.169 0 002.66 2.669l-1.11 2.29c-.278.554-.117 1.21.365 1.473l1.243.656a.72.72 0 00.248.088v.029l3.875.48.38-2.916a8.59 8.59 0 001.374.117v2.494c0 .437.234.802.57.919l-.015.072 3.846.482.073-4.726a13.72 13.72 0 002.032-.977l1.023 1.97c.132.247.337.393.57.422l3.714.496-1.272-3.486-.512.16-.848-1.647a15.276 15.276 0 002.354-2.99l1.652.992c.395.218.907 0 1.141-.51zm-12.72-1.283c-3.626.32-6.652-2.859-6.652-7.103s3.012-7.802 6.652-7.948c3.538-.132 6.345 3.062 6.345 7.131 0 4.07-2.792 7.614-6.345 7.92zm15.512-8.167l2.515-1.182-2.515-.306v1.488zm-3.085 10.136l2.88.393.424-.977-2.383-1.444-.921 2.028z" fill="#BFC8D6"/><path d="M121.754 32.98l-1.725.102a16.271 16.271 0 00-.804-3.836l1.462-1.08c.395-.291.541-.918.307-1.4l-.614-1.268c-.234-.482-.746-.642-1.155-.336l-1.448 1.05a13.308 13.308 0 00-2.383-2.858l.834-1.736c.234-.496.102-1.123-.322-1.415l-1.111-.758c-.424-.292-.95-.117-1.199.394l-.833 1.72a11.032 11.032 0 00-3.451-1.05v-2.012c0-.583-.409-1.064-.906-1.064h-1.345c-.512 0-.921.48-.921 1.079v2.012a11.79 11.79 0 00-3.611 1.182l-.907-1.765c-.263-.525-.848-.7-1.316-.394l-1.228.817c-.467.306-.628.992-.35 1.502l.935 1.809a15.135 15.135 0 00-2.704 3.194l-1.696-1.036c-.483-.292-1.097-.087-1.375.452l-.745 1.444c-.278.54-.117 1.225.365 1.517l1.755 1.05a17.138 17.138 0 00-.95 4.273l-2.106.117c-.57.029-1.023.569-1.023 1.181v1.663c0 .627.453 1.093 1.023 1.05l2.15-.146a15.79 15.79 0 001.052 4.04l-1.9 1.385c-.483.35-.659 1.05-.366 1.56l.745 1.357c.278.51.892.627 1.375.277l1.93-1.429a13.03 13.03 0 002.646 2.654l-1.111 2.29c-.264.554-.117 1.21.35 1.459l1.228.656c.468.248 1.053 0 1.316-.554l1.097-2.29a10.78 10.78 0 003.421.642v2.493c0 .598.409 1.021.921.949l1.345-.175c.497-.059.906-.598.906-1.182v-2.465a11.942 11.942 0 003.261-1.385l1.023 1.969c.249.466.775.583 1.199.233l1.111-.89c.409-.335.556-.977.322-1.458l-.994-1.94a16.208 16.208 0 002.339-2.975l1.652.992c.409.248.921.029 1.155-.481l.614-1.357c.234-.51.088-1.123-.307-1.356l-1.594-.977a18.48 18.48 0 00.892-3.85l1.769-.132c.453-.029.833-.51.833-1.065v-1.487c0-.554-.365-.992-.833-.963zm-14.021 9.931c-3.611.321-6.608-2.844-6.608-7.088s2.997-7.788 6.608-7.919c3.524-.131 6.316 3.048 6.316 7.103 0 4.054-2.792 7.583-6.316 7.904z" fill="#D8DEE8"/><path d="M59.291 38.193l-7.953 50.974c-.146.987.553 1.868 1.45 1.829l39.874-1.882-33.37-50.92z" fill="url(#paint9_linear)"/><path d="M132.219 39.259l-71.385-2.21c-1.042-.027-1.728.763-1.517 1.776L70.898 96.85c.198 1.013 1.2 1.776 2.216 1.697l69.947-5.04c.792-.052 1.293-.828 1.108-1.71l-10.156-50.881c-.185-.895-.989-1.632-1.794-1.658z" fill="url(#paint10_linear)"/><path d="M132.6 39.259l-71.385-2.21c-1.042-.027-1.728.763-1.517 1.776L71.28 96.85c.198 1.013 1.2 1.776 2.216 1.697l69.947-5.04c.792-.052 1.293-.828 1.108-1.71l-10.156-50.881c-.185-.895-.976-1.632-1.794-1.658z" fill="url(#paint11_linear)"/><path opacity=".3" d="M113.976 69.996c-14.048-7.619-27.37-1.698-36.96-11.46-5.908-6.014-6.99-14.54-6.805-21.198l-8.996-.276c-1.042-.027-1.728.763-1.517 1.776L71.28 96.864c.198 1.013 1.2 1.776 2.216 1.698l60.688-4.382c-6.635-14.368-14.114-20.882-20.207-24.184z" fill="url(#paint12_linear)"/><path d="M141.043 91.575l-66.254 4.513c-1.095.079-2.177-.75-2.388-1.842L62.073 42.548c-.224-1.092.515-1.96 1.636-1.934l67.494 1.698c.883.026 1.754.829 1.939 1.79l9.101 45.617c.211.961-.33 1.803-1.2 1.856z" fill="#D8DEE8"/><path d="M141.345 91.561l-66.175 4.5c-1.095.08-2.176-.75-2.388-1.842L62.468 42.562c-.224-1.093.514-1.961 1.635-1.935l67.415 1.684c.884.027 1.754.83 1.939 1.79l9.101 45.592c.185.974-.356 1.803-1.213 1.868z" fill="url(#paint13_linear)"/><path d="M97.688 59.272l-7.228.04a.516.516 0 01-.475-.395l-1.2-5.987c-.04-.224.092-.395.316-.395l7.241.04c.211 0 .422.184.462.394l1.174 5.908c.053.21-.08.382-.29.395zm-6.991-.763l6.45-.026-1.016-5.119-6.463-.026 1.029 5.171zm16.118.697l-6.99.04c-.212 0-.41-.171-.462-.395l-1.174-5.895c-.04-.224.092-.395.303-.395l7.004.04c.211 0 .409.17.448.395l1.161 5.815c.04.224-.092.395-.29.395zm-6.78-.737l6.239-.026-1.002-5.04-6.252-.026 1.015 5.092zm15.617.685l-6.766.04a.49.49 0 01-.449-.382l-1.16-5.79c-.04-.21.092-.381.29-.381l6.793.039c.198 0 .395.171.435.382l1.147 5.723c.04.198-.092.369-.29.369zm-6.555-.737l6.054-.026-.989-4.961-6.054-.026.989 5.013zm15.129.684l-6.569.04c-.198 0-.395-.172-.435-.382l-1.134-5.71c-.04-.211.079-.382.277-.382l6.582.04c.197 0 .382.17.422.38l1.121 5.632c.039.21-.079.382-.264.382zm-6.371-.724l5.857-.026-.977-4.882-5.869-.026.989 4.934zm14.667.671l-6.358.04c-.185 0-.382-.171-.422-.369l-1.121-5.618c-.04-.21.079-.382.277-.368l6.371.039c.184 0 .369.171.409.368l1.108 5.54c.039.197-.08.368-.264.368zm-6.16-.71l5.685-.026-.963-4.803-5.698-.026.976 4.855zm-46.23 9.21l-7.703.158a.509.509 0 01-.501-.408l-1.24-6.197c-.04-.224.106-.421.343-.421l7.716-.053a.52.52 0 01.488.408l1.214 6.106c.052.21-.093.394-.317.407zm-7.452-.684l6.872-.131-1.055-5.29-6.886.066 1.069 5.355zm17.172.487l-7.453.145a.519.519 0 01-.488-.395l-1.213-6.092c-.04-.224.105-.408.33-.408l7.465-.066c.225 0 .436.171.475.395l1.2 6c.04.237-.092.421-.316.421zm-7.202-.671l6.648-.132-1.042-5.21-6.661.066 1.055 5.276zm16.607.487l-7.202.144a.516.516 0 01-.475-.394l-1.2-5.987c-.04-.224.092-.408.317-.408l7.215-.066a.49.49 0 01.461.395l1.174 5.908c.053.224-.079.395-.29.408zm-6.964-.671l6.436-.119-1.015-5.118-6.45.066 1.029 5.17zm16.065.487l-6.977.144c-.211 0-.409-.17-.462-.381l-1.174-5.895c-.04-.224.093-.395.304-.395l6.99-.052a.49.49 0 01.449.381l1.161 5.816c.052.197-.08.368-.291.382zm-6.753-.658l6.226-.119-1.003-5.04-6.239.067 1.016 5.092zm15.577.473l-6.753.132c-.198 0-.396-.171-.449-.382l-1.16-5.79c-.04-.21.092-.394.29-.394l6.766-.052c.198 0 .396.17.436.381l1.147 5.724c.04.21-.079.381-.277.381zm-6.542-.644l6.028-.119-.99-4.96-6.041.052 1.003 5.027zm15.077.473l-6.542.132a.46.46 0 01-.435-.368l-1.135-5.711c-.039-.21.079-.382.277-.382l6.556-.052c.198 0 .382.17.422.368l1.121 5.632c.053.21-.066.381-.264.381zm-6.331-.631l5.843-.105-.976-4.882-5.856.053.989 4.934zm14.615.474l-6.345.131a.46.46 0 01-.422-.368l-1.121-5.619c-.039-.21.079-.381.264-.381l6.358-.053c.184 0 .369.158.408.368l1.108 5.54c.053.197-.066.368-.25.381zm-6.147-.632l5.672-.105-.963-4.803-5.672.053.963 4.855zm-46.086 9.868l-7.677.263c-.224.014-.448-.17-.5-.394l-1.24-6.198c-.04-.223.105-.42.329-.42l7.703-.172c.224 0 .449.171.488.395l1.214 6.105c.052.224-.093.408-.317.421zm-7.44-.579l6.86-.223-1.056-5.29-6.872.158 1.069 5.355zm17.134.25l-7.426.25c-.224.013-.435-.17-.488-.395l-1.213-6.092c-.04-.223.105-.408.316-.42l7.44-.172c.21 0 .435.171.474.395l1.2 6c.053.237-.092.421-.303.434zm-7.188-.579l6.634-.21-1.042-5.21-6.648.157 1.056 5.263zm16.565.263l-7.188.25c-.211.014-.422-.17-.475-.381l-1.2-5.987c-.04-.224.092-.408.316-.408l7.202-.158c.211 0 .422.171.462.382l1.174 5.908a.31.31 0 01-.291.394zm-6.964-.579l6.411-.21-1.016-5.119-6.424.158 1.03 5.171zm16.041.264l-6.951.237c-.211.013-.409-.158-.462-.382l-1.174-5.895c-.039-.223.093-.394.304-.408l6.964-.157c.198 0 .409.17.448.381l1.161 5.816c.04.224-.092.395-.29.408zm-6.74-.566l6.212-.197-1.002-5.04-6.226.145 1.016 5.092zm15.524.263l-6.74.224c-.198.013-.396-.158-.449-.382l-1.16-5.79c-.04-.21.092-.394.29-.394l6.753-.145c.198 0 .396.158.436.369l1.147 5.723c.053.21-.079.395-.277.395zm-6.516-.553l6.015-.197-.989-4.96-6.028.144 1.002 5.013zm15.036.264l-6.53.223c-.197.014-.382-.158-.435-.368l-1.134-5.71c-.04-.211.079-.382.277-.395l6.542-.145c.198 0 .383.158.422.368l1.121 5.632c.053.21-.066.395-.263.395zm-6.318-.553l5.83-.184-.976-4.882-5.844.132.99 4.934zm14.574.276l-6.331.21a.458.458 0 01-.422-.368l-1.122-5.618c-.039-.21.08-.382.264-.382l6.345-.144c.184 0 .369.158.409.368l1.107 5.54c.053.21-.065.381-.25.394zm-6.134-.552l5.646-.184-.963-4.803-5.659.131.976 4.856zM83.39 83.864l-7.664.368c-.224.014-.448-.17-.501-.394l-1.24-6.198c-.04-.223.106-.42.33-.434l7.676-.276a.494.494 0 01.489.395l1.213 6.105c.066.237-.08.42-.303.434zm-7.413-.474l6.832-.315-1.055-5.29-6.846.263 1.069 5.342zm17.08.014l-7.4.355a.493.493 0 01-.488-.382l-1.213-6.092c-.04-.224.105-.408.316-.42l7.426-.264c.211-.013.422.171.475.382l1.2 6c.04.223-.105.407-.316.42zm-7.162-.474l6.608-.303-1.042-5.21-6.621.25 1.055 5.263zm16.514.013l-7.162.342c-.212.013-.422-.158-.475-.382l-1.2-5.986c-.04-.224.092-.408.316-.421l7.175-.264c.211-.013.409.158.462.382l1.174 5.908c.053.237-.079.42-.29.42zm-6.938-.474l6.397-.302-1.016-5.119-6.41.237 1.029 5.184zm15.987.04l-6.938.329c-.212.013-.409-.158-.462-.382l-1.174-5.894c-.04-.224.092-.395.303-.408l6.952-.25c.197-.013.408.158.448.381l1.161 5.816c.052.224-.079.408-.29.408zm-6.714-.46l6.199-.29-1.002-5.04-6.2.237 1.003 5.092zm15.486.039l-6.713.329c-.198.013-.396-.158-.449-.369l-1.161-5.79c-.039-.21.093-.394.291-.394l6.727-.25c.197-.013.395.158.435.368l1.147 5.724c.053.198-.079.382-.277.382zm-6.502-.46l6.001-.277-.989-4.96-6.015.223 1.003 5.013zm14.996.052l-6.502.316c-.198.013-.383-.158-.436-.369l-1.134-5.71c-.039-.21.079-.382.277-.395l6.529-.237c.185-.013.383.158.422.369l1.121 5.631c.04.21-.079.382-.277.395zm-6.304-.46l5.816-.277-.976-4.882-5.816.224.976 4.934zm14.547.065l-6.305.303c-.184.013-.382-.158-.422-.356l-1.121-5.618c-.04-.21.079-.382.264-.395l6.318-.223c.184-.014.369.157.409.355l1.108 5.54c.039.21-.066.38-.251.394zm-6.12-.46l5.632-.264-.963-4.802-5.645.21.976 4.856zM85.012 92.022l-7.638.474a.505.505 0 01-.5-.395l-1.24-6.198c-.04-.223.105-.42.33-.434l7.65-.381a.493.493 0 01.487.381l1.214 6.106c.066.236-.08.434-.303.447zm-7.387-.369l6.82-.42-1.056-5.29-6.832.355 1.068 5.355zm17.029-.223l-7.387.46a.492.492 0 01-.488-.381l-1.213-6.092c-.04-.224.092-.421.316-.434l7.4-.369c.21-.013.422.158.475.382l1.2 6c.053.223-.08.42-.303.434zm-7.136-.382l6.595-.408-1.042-5.21-6.608.342 1.055 5.276zm16.474-.21l-7.15.447c-.21.013-.421-.158-.46-.382l-1.201-5.986c-.04-.224.092-.408.303-.421l7.162-.356c.211-.013.409.158.462.382l1.174 5.908a.321.321 0 01-.29.408zm-6.925-.369l6.384-.394-1.016-5.119-6.397.33 1.029 5.183zm15.947-.184l-6.912.434c-.211.013-.409-.158-.448-.368l-1.174-5.895c-.04-.224.092-.408.303-.408l6.938-.342c.198-.013.396.158.448.369l1.161 5.815c.013.198-.119.382-.316.395zm-6.701-.382l6.173-.381-1.002-5.04-6.187.316 1.016 5.105z" fill="#D8DEE8"/><path d="M76.609 51.456l-7.848-.052-.343-1.685 7.861.08.33 1.657z" fill="url(#paint14_linear)"/><path d="M86.504 51.535l-7.584-.066-.33-1.644 7.597.078.317 1.632z" fill="url(#paint15_linear)"/><path d="M96.078 51.6l-7.334-.052-.316-1.618 7.333.066.317 1.605z" fill="url(#paint16_linear)"/><path d="M105.35 51.667l-7.096-.053-.317-1.592 7.097.066.316 1.579z" fill="url(#paint17_linear)"/><path d="M114.319 51.733l-6.872-.053-.316-1.566 6.872.066.316 1.553z" fill="url(#paint18_linear)"/><path d="M123.011 51.798l-6.661-.052-.303-1.54 6.648.066.316 1.526z" fill="url(#paint19_linear)"/><path d="M131.427 51.85l-6.45-.039-.303-1.526 6.45.066.303 1.5z" fill="url(#paint20_linear)"/><path d="M130.714 48.312l-62.745-.869-.633-3.17 62.811 1.21.567 2.829z" fill="#D8DEE8"/><path opacity=".3" d="M113.975 69.996c-14.047-7.619-27.37-1.697-36.959-11.46-4.92-5.014-6.49-11.777-6.78-17.75l-6.172-.159c-1.095-.026-1.82.816-1.61 1.895L72.782 94.26c.211 1.079 1.267 1.882 2.348 1.816l58.063-3.948c-6.384-12.947-13.427-18.986-19.218-22.131z" fill="#D8DEE8"/><defs><linearGradient id="paint0_linear" x1="150.666" y1="126.121" x2="151.188" y2="59.622" gradientUnits="userSpaceOnUse"><stop stop-color="#311944"/><stop offset="1" stop-color="#893976"/></linearGradient><linearGradient id="paint1_linear" x1="154.498" y1="74.465" x2="143.184" y2="106.17" gradientUnits="userSpaceOnUse"><stop stop-color="#311944"/><stop offset="1" stop-color="#893976"/></linearGradient><linearGradient id="paint2_linear" x1="151.111" y1="44.029" x2="150.191" y2="119.373" gradientUnits="userSpaceOnUse"><stop stop-color="#FFC444"/><stop offset=".996" stop-color="#F36F56"/></linearGradient><linearGradient id="paint3_linear" x1="150.869" y1="38.115" x2="150.253" y2="88.537" gradientUnits="userSpaceOnUse"><stop stop-color="#FFC444"/><stop offset=".996" stop-color="#F36F56"/></linearGradient><linearGradient id="paint4_linear" x1="154.011" y1="6.949" x2="148.83" y2="66.997" gradientUnits="userSpaceOnUse"><stop stop-color="#FFC444"/><stop offset=".996" stop-color="#F36F56"/></linearGradient><linearGradient id="paint5_linear" x1="151.372" y1="54.802" x2="150.176" y2="152.8" gradientUnits="userSpaceOnUse"><stop stop-color="#FFC444"/><stop offset=".996" stop-color="#F36F56"/></linearGradient><linearGradient id="paint6_linear" x1="152.693" y1="57.065" x2="150.09" y2="20.195" gradientUnits="userSpaceOnUse"><stop stop-color="#311944"/><stop offset="1" stop-color="#893976"/></linearGradient><linearGradient id="paint7_linear" x1="153.764" y1="16.163" x2="143.335" y2="45.387" gradientUnits="userSpaceOnUse"><stop stop-color="#311944"/><stop offset="1" stop-color="#893976"/></linearGradient><linearGradient id="paint8_linear" x1="151.169" y1="71.287" x2="150.623" y2="116.086" gradientUnits="userSpaceOnUse"><stop stop-color="#FFC444"/><stop offset=".996" stop-color="#F36F56"/></linearGradient><linearGradient id="paint9_linear" x1="39.132" y1="82.461" x2="53.904" y2="74.885" gradientUnits="userSpaceOnUse"><stop stop-color="#FF9085"/><stop offset="1" stop-color="#FB6FBB"/></linearGradient><linearGradient id="paint10_linear" x1="59.271" y1="67.804" x2="144.196" y2="67.804" gradientUnits="userSpaceOnUse"><stop stop-color="#FF9085"/><stop offset="1" stop-color="#FB6FBB"/></linearGradient><linearGradient id="paint11_linear" x1="84.764" y1="45.304" x2="143.947" y2="141.455" gradientUnits="userSpaceOnUse"><stop stop-color="#FF9085"/><stop offset="1" stop-color="#FB6FBB"/></linearGradient><linearGradient id="paint12_linear" x1="71.707" y1="53.692" x2="131.79" y2="151.304" gradientUnits="userSpaceOnUse"><stop stop-color="#FF9085"/><stop offset="1" stop-color="#FB6FBB"/></linearGradient><linearGradient id="paint13_linear" x1="105.45" y1="101.514" x2="114.758" y2="32.26" gradientUnits="userSpaceOnUse"><stop offset=".004" stop-color="#EBEFF2"/><stop offset="1" stop-color="#fff"/></linearGradient><linearGradient id="paint14_linear" x1="70.621" y1="44.171" x2="73.406" y2="82.318" gradientUnits="userSpaceOnUse"><stop offset=".004" stop-color="#E38DDD"/><stop offset="1" stop-color="#9571F6"/></linearGradient><linearGradient id="paint15_linear" x1="80.49" y1="43.68" x2="83.215" y2="81.009" gradientUnits="userSpaceOnUse"><stop offset=".004" stop-color="#E38DDD"/><stop offset="1" stop-color="#9571F6"/></linearGradient><linearGradient id="paint16_linear" x1="90.029" y1="43.211" x2="92.697" y2="79.755" gradientUnits="userSpaceOnUse"><stop offset=".004" stop-color="#E38DDD"/><stop offset="1" stop-color="#9571F6"/></linearGradient><linearGradient id="paint17_linear" x1="99.26" y1="42.762" x2="101.872" y2="78.552" gradientUnits="userSpaceOnUse"><stop offset=".004" stop-color="#E38DDD"/><stop offset="1" stop-color="#9571F6"/></linearGradient><linearGradient id="paint18_linear" x1="108.195" y1="42.332" x2="110.754" y2="77.397" gradientUnits="userSpaceOnUse"><stop offset=".004" stop-color="#E38DDD"/><stop offset="1" stop-color="#9571F6"/></linearGradient><linearGradient id="paint19_linear" x1="116.849" y1="41.92" x2="119.357" y2="76.288" gradientUnits="userSpaceOnUse"><stop offset=".004" stop-color="#E38DDD"/><stop offset="1" stop-color="#9571F6"/></linearGradient><linearGradient id="paint20_linear" x1="125.235" y1="41.526" x2="127.695" y2="75.222" gradientUnits="userSpaceOnUse"><stop offset=".004" stop-color="#E38DDD"/><stop offset="1" stop-color="#9571F6"/></linearGradient></defs></svg>