<svg width="54" height="55" fill="none" xmlns="http://www.w3.org/2000/svg"><path d="M21.685.528v26.697c0 7.274-1.949 13.242-5.846 17.903C11.94 49.86 6.66 53.003 0 54.557V42.692c2.055-.636 3.72-1.413 4.996-2.331 1.276-.918 2.268-2.013 2.976-3.284.71-1.271 1.17-2.755 1.382-4.45.213-1.624.32-3.425.32-5.403v-2.86H0V.528h21.685zM54 .528v26.697c0 7.274-1.949 13.242-5.846 17.903-3.898 4.732-9.178 7.875-15.839 9.429V42.692c2.055-.636 3.72-1.413 4.996-2.331 1.276-.918 2.268-2.013 2.976-3.284.638-1.271 1.099-2.755 1.382-4.45.213-1.624.32-3.425.32-5.403v-2.86h-9.674V.528H54z" fill="#00D0CD"/></svg>