<svg width="176" height="197" fill="none" xmlns="http://www.w3.org/2000/svg"><g clip-path="url(#clip0)"><path d="M188.25 89.776c6.46-4.23 6.626-15.406.371-24.961-6.256-9.555-16.564-13.87-23.025-9.64-6.46 4.232-6.626 15.407-.371 24.962 6.256 9.555 16.565 13.87 23.025 9.64z" fill="#191818"/><path opacity=".5" d="M192.51 83.721c2.445-1.241 1.017-8.965-3.19-17.252-4.206-8.286-9.598-13.997-12.043-12.756-2.445 1.241-1.017 8.965 3.189 17.252 4.207 8.286 9.599 13.998 12.044 12.756z" fill="#00B2A9"/><path d="M193.452 83.324c2.445-1.241 1.016-8.965-3.191-17.251-4.207-8.287-9.6-13.997-12.045-12.756-2.445 1.242-1.016 8.965 3.191 17.252 4.208 8.286 9.601 13.997 12.045 12.755zM34.32 74.653c-.955 1.023-.9 2.672.123 3.628 1.023.956 2.671.9 3.626-.123l3.344-3.579c.956-1.022.9-2.67-.123-3.627a2.588 2.588 0 00-3.626.122l-3.344 3.58z" fill="#00D0CD"/><path d="M41.064 75.302c-1.36-.19-2.648.84-2.837 2.198-.19 1.36.84 2.649 2.2 2.838l4.835.58c1.359.189 2.647-.84 2.837-2.2.189-1.359-.84-2.648-2.2-2.838l-4.835-.578z" fill="#00D0CD"/><path d="M15.926 129.655c-2.131-.099-3.778-1.764-3.678-3.956l.062-.932c.14-2.096 1.866-3.745 4.095-3.688l26.413.713c2.131.099 3.778 1.765 3.678 3.957l-.062.931c-.14 2.097-1.866 3.746-4.095 3.689l-26.413-.714z" fill="#252528"/><path opacity=".5" d="M19.9 129.235c.117-2.143 1.826-3.811 4.06-3.727l22.71.906.012-.238c.117-2.143-1.593-3.964-3.73-4.09l-26.561-.99c-2.136-.125-3.943 1.584-4.06 3.728l-.051.952c-.117 2.144 1.593 3.965 3.729 4.09l3.755.126.136-.757z" fill="#444344"/><path d="M22.47 122.676a8.24 8.24 0 10-16.029 3.826 8.24 8.24 0 1016.029-3.826z" fill="#252528"/><path d="M79.409 116.306c-2.731-11.434-11.214-19.206-18.945-17.36-7.732 1.846-11.786 12.611-9.054 24.045 2.731 11.433 11.213 19.205 18.945 17.359 7.732-1.845 11.785-12.611 9.054-24.044z" fill="#191818"/><path opacity=".5" d="M61.706 121.219c-3.23-9.004-8.002-15.53-10.659-14.577-2.657.953-2.192 9.024 1.038 18.028 3.23 9.004 8.002 15.53 10.659 14.577 2.657-.952 2.192-9.024-1.038-18.028z" fill="#00B2A9"/><path d="M60.745 121.616c-3.23-9.004-8-15.531-10.658-14.578-2.657.953-2.193 9.024 1.037 18.028 3.229 9.005 8 15.532 10.657 14.579 2.657-.953 2.193-9.024-1.036-18.029z" fill="#00D0CD"/><path d="M56.73 121.95c-2.51-6.997-6.214-12.071-8.274-11.332-2.06.739-1.697 7.01.813 14.008 2.51 6.997 6.214 12.07 8.274 11.331 2.06-.738 1.697-7.01-.813-14.007z" fill="#191818"/><path d="M56.03 124.166c-1.26-5.268-6.549-8.52-11.816-7.262-5.266 1.257-8.515 6.547-7.257 11.816 1.259 5.268 6.549 8.52 11.815 7.262 5.267-1.257 8.516-6.547 7.257-11.816z" fill="#252528"/><path opacity=".5" d="M15.666 123.046c2.693-.687 5.399.043 7.413 1.664a7.539 7.539 0 00-.214-2.16c-1.147-4.603-5.738-7.484-10.375-6.314-4.68 1.069-7.564 5.751-6.417 10.354.474 1.929 1.552 3.598 3.005 4.75-.01-3.907 2.7-7.328 6.588-8.294z" fill="#444344"/><path opacity=".5" d="M21.853 127.765a8.244 8.244 0 00-4.72-10.658 8.236 8.236 0 00-10.654 4.718 8.245 8.245 0 004.72 10.659 8.237 8.237 0 0010.654-4.719z" fill="#444344"/><path d="M12.253 125.309c-.966 2.402-.66 4.917.544 6.935-.683-.036-1.313-.206-1.982-.469-4.15-1.63-6.25-6.24-4.586-10.377 1.664-4.137 6.313-6.252 10.463-4.622 1.741.684 3.133 1.848 4.002 3.349-3.589-.328-7.086 1.621-8.441 5.184z" fill="#252528"/><path d="M37.47 82.474a2.515 2.515 0 003.558-.137 2.517 2.517 0 00-.137-3.558l-3.514-3.32a2.515 2.515 0 00-3.558.138 2.517 2.517 0 00.138 3.558l3.514 3.319z" fill="#1C1C1D"/><path d="M35.619 73.944a2.59 2.59 0 00.123 3.628c1.023.956 2.67.9 3.626-.123l3.344-3.579c.955-1.022.9-2.67-.123-3.627a2.588 2.588 0 00-3.627.122l-3.343 3.58z" fill="#252528"/><path d="M42.191 102.516c.594-.95.33-2.339-.707-2.932-.942-.635-2.29-.4-2.842.647l-17.899 29.336c-.594.95-.33 2.339.707 2.933.942.634 2.29.399 2.842-.648l17.9-29.336z" fill="#191818"/><path d="M41.58 98.876c3.11-5.028 1.63-11.65-3.392-14.784l-1.554-.943c-5.023-3.135-11.62-1.673-14.73 3.355l-15.26 24.21c-3.109 5.028-1.63 11.649 3.392 14.784l1.554.943c5.023 3.135 11.62 1.673 14.73-3.355l15.26-24.21z" fill="#00D0CD"/><path opacity=".5" d="M41.557 98.824c3.113-5.02 1.642-11.624-3.375-14.747l-1.553-.94c-5.017-3.122-11.613-1.657-14.726 3.362L6.666 110.766c-3.113 5.019-1.642 11.624 3.376 14.747l1.552.94c5.018 3.122 11.614 1.657 14.727-3.363l15.235-24.266z" fill="#444344"/><path d="M39.308 92.89l-1.563-.957c-5.053-3.182-11.672-1.726-14.777 3.342L7.863 119.734c-.564.825-.892 1.666-1.177 2.605-1.956-3.469-2.069-7.732.06-11.33l15.105-24.458c3.106-5.068 9.822-6.566 14.778-3.342l1.563.957c4.27 2.703 6.044 7.882 4.672 12.436-.872-1.49-2.09-2.712-3.556-3.711z" fill="#00D0CD"/><path d="M41.658 93.619c1.77-2.049.414-6.123-3.03-9.1-3.444-2.977-7.67-3.73-9.44-1.68-1.77 2.048-.414 6.122 3.03 9.1 3.444 2.977 7.67 3.729 9.44 1.68z" fill="#252528"/><path opacity=".5" d="M41.658 93.619c1.77-2.049.414-6.123-3.03-9.1-3.444-2.977-7.67-3.73-9.44-1.68-1.77 2.048-.414 6.122 3.03 9.1 3.444 2.977 7.67 3.729 9.44 1.68z" fill="#4D1518"/><path d="M32.546 89.297c3.411 2.758 7.672 3.415 9.507 1.43.217-.31.434-.62.612-1.022.315 1.274.019 2.486-.77 3.368-1.836 1.984-6.096 1.327-9.508-1.43-2.919-2.428-4.259-5.537-3.45-7.73.414 1.774 1.617 3.75 3.609 5.384z" fill="#252528"/><path d="M46.294 87.195a8.245 8.245 0 00-4.72-10.658 8.237 8.237 0 00-10.654 4.718 8.245 8.245 0 004.72 10.659 8.237 8.237 0 0010.654-4.719z" fill="#252528"/><path opacity=".5" d="M46.294 87.195a8.245 8.245 0 00-4.72-10.658 8.237 8.237 0 00-10.654 4.718 8.245 8.245 0 004.72 10.659 8.237 8.237 0 0010.654-4.719z" fill="#444344"/><path d="M33.47 83.137c-1.245 3.239-.277 6.815 2.123 9.186l-.418-.172c-4.327-1.776-6.559-6.686-4.88-11.051 1.678-4.365 6.478-6.552 10.804-4.776 1.116.458 2.04 1 2.854 1.823-4.253-1.338-8.859.766-10.483 4.99z" fill="#252528"/><path d="M41.396 76.615c-.652 1.294-.146 2.727 1.044 3.386 1.294.652 2.726.147 3.385-1.043l2.243-4.319c.652-1.294.146-2.726-1.044-3.385-1.294-.653-2.726-.147-3.384 1.043l-2.244 4.318z" fill="#1C1C1D"/><path d="M42.38 76.345c-1.359-.19-2.647.84-2.836 2.199-.19 1.359.84 2.648 2.199 2.838l4.835.579c1.36.19 2.648-.84 2.837-2.2.19-1.358-.84-2.647-2.2-2.837l-4.835-.58z" fill="#252528"/><path d="M14.308 122.905l.311 1.852 9.052-1.517-.31-1.852-9.053 1.517zm2.407-4.102l.31 1.852 9.053-1.516-.31-1.852-9.053 1.516zm2.511-4.106l.311 1.852 9.052-1.517-.31-1.852-9.053 1.517zm2.406-4.092l.311 1.852 9.053-1.519-.311-1.852-9.053 1.519z" fill="#F4F3F2"/><path d="M60.017 85.2c.564-2.253.153-3.185.153-3.185L25.515 69.406l-1.047 2.839 33.311 12.088 2.238.868z" fill="#4F4587"/><path d="M57.043 90.23c.535-.05 1.264-1.003 2.015-2.41l-1.047-.355-34.582-12.53-1.047 2.839L57.043 90.23z" fill="#6057B2"/><path d="M58.72 88.405c.174-.448.593-1.264.767-1.712.252-.52.354-1.047.448-1.422L24.472 72.09l-1.221 3.286 35.47 13.028z" fill="#30378C"/><path d="M22.46 77.695l-7.616-7.587 10.671-.704s1.538 1.214.31 4.652c-1.395 3.734-3.366 3.639-3.366 3.639z" fill="#C7B299"/><path d="M24.811 75.984l-9.182-5.002.267-.823 10.201 2.77s-.281 1.127-.462 1.726a24.674 24.674 0 01-.824 1.329z" fill="#DDC9B3"/><path d="M18.724 69.915l-3.964.266 2.757 2.716c.325-.44.578-.96.838-1.632.18-.599.275-.975.369-1.35z" fill="#986BD1"/><path d="M47.344 85.844c.305 1.576-.72 3.115-2.27 3.366-1.541.303-3.055-.752-3.31-2.334l-1.016-5.496c-.305-1.576.72-3.115 2.27-3.367 1.541-.303 3.055.753 3.36 2.329l.966 5.502z" fill="#252528"/><path d="M48.906 86.568c.306 1.576-.72 3.115-2.269 3.366-1.542.303-3.055-.752-3.31-2.334l-1.016-5.496c-.306-1.576.72-3.115 2.269-3.367 1.542-.302 3.055.753 3.31 2.335l1.016 5.496z" fill="#00D0CD"/><path d="M47.978 85.654a1.424 1.424 0 01-1.112 1.654c-.746.148-1.478-.382-1.627-1.145l-.495-2.645a1.424 1.424 0 011.113-1.654c.746-.149 1.477.382 1.627 1.144l.494 2.646z" fill="#252528"/><path opacity=".5" d="M44.788 83.512l.495 2.645c.15.763.874 1.242 1.627 1.145.402-.051.77-.36.93-.693-.1.013-.143.07-.244.084-.745.148-1.477-.383-1.627-1.145l-.494-2.645c-.046-.36.014-.68.132-.955-.583.231-.955.904-.819 1.564z" fill="#4D1518"/><path d="M155.466 181.054c32.616-14.064 45.178-57.651 28.059-97.356-17.12-39.705-57.439-60.491-90.056-46.428-32.616 14.064-45.178 57.651-28.059 97.356 17.12 39.705 57.439 60.491 90.056 46.428z" fill="#fff"/><path d="M164.539 164.302c-50.948 24.046-112.47-17.785-98.873-101.244-12.4 25.67-11.036 46.443 1.22 74.068 17.307 39.072 57.156 59.186 89 44.994 15.34-6.845 25.979-20.324 31.056-36.831-5.48 8.368-13.216 14.705-22.403 19.013z" fill="#D8DEE8"/><path d="M110.618 154.586a22.045 22.045 0 0010.819-1.717l18.444-7.953 18.443-7.952a22.049 22.049 0 008.676-6.688l2.207-2.766c5.164-6.422 6.264-15.172 3.008-22.725l-3.628-8.413c-.618-1.434-1.386-2.69-2.196-4.041l-28.602-40.84c-3.88-5.583-10.161-9.11-16.995-9.452-3.485-.198-6.968.397-10.122 1.757l-12.04 5.192-12.041 5.191c-3.154 1.36-5.977 3.485-8.226 6.155-4.443 5.203-6.19 12.192-4.793 18.846l10.063 48.834c.29 1.462.813 2.937 1.431 4.371l3.628 8.413c3.256 7.552 10.374 12.759 18.589 13.412l3.335.376z" fill="url(#paint0_radial)"/><path d="M167.506 91.509l-28.602-40.84a23.51 23.51 0 00-18.171-10.078 23.732 23.732 0 00-10.737 1.908L85.915 52.883c-3.345 1.442-6.455 3.69-8.758 6.497-4.743 5.56-6.557 12.917-5.146 20.132l9.968 48.874c.331 1.558.8 3.17 1.46 4.7l3.627 8.412a23.772 23.772 0 0019.753 14.272l3.526.293c3.895.361 7.898-.344 11.434-1.869l36.886-15.904c3.632-1.566 6.796-3.951 9.208-7.032l2.207-2.765a23.771 23.771 0 003.182-24.161l-3.627-8.413c-.373-1.653-1.087-3.046-2.129-4.41zm3.367 13.853c3.051 7.075 2.031 15.224-2.833 21.289l-2.207 2.766c-2.112 2.725-4.936 4.849-8.09 6.209l-36.886 15.905c-3.154 1.359-6.637 1.954-10.068 1.62l-3.526-.294c-7.655-.668-14.376-5.479-17.426-12.553l-3.627-8.413c-.578-1.339-1.018-2.623-1.308-4.085L74.839 78.973c-1.273-6.368.393-12.755 4.495-17.698 2.099-2.492 4.772-4.438 7.735-5.716l24.081-10.383c2.963-1.277 6.214-1.886 9.467-1.7 6.41.41 12.198 3.583 15.954 8.879l28.603 40.84c.822 1.119 1.495 2.416 2.072 3.755l3.627 8.412z" fill="url(#paint1_linear)"/><path d="M170.877 105.363l-3.627-8.413c-.577-1.339-1.208-2.54-2.072-3.755l-28.602-40.84c-3.757-5.296-9.545-8.469-15.955-8.88-3.253-.184-6.504.424-9.466 1.701L87.073 55.56c-2.962 1.277-5.636 3.223-7.735 5.716-4.101 4.943-5.767 11.33-4.495 17.697l10.063 48.834c.25 1.366.73 2.746 1.308 4.084l3.627 8.413c3.05 7.074 9.676 11.927 17.426 12.553l3.526.294c3.431.335 6.914-.26 10.068-1.62l36.887-15.905c3.153-1.36 5.977-3.484 8.089-6.209l2.207-2.765c4.864-6.066 5.884-14.215 2.833-21.289zm-6.464 22.854c-2.003 2.451-4.445 4.411-7.407 5.688l-36.887 15.905c-2.867 1.236-6.064 1.708-9.125 1.441l-3.527-.294c-6.957-.628-13.007-4.935-15.81-11.436l-3.628-8.413c-.494-1.147-.934-2.431-1.142-3.702L76.822 78.572c-1.311-5.67.233-11.55 3.98-16 1.854-2.274 4.282-4.001 7.053-5.196l24.082-10.383c2.676-1.154 5.64-1.639 8.619-1.563 5.809.33 11.145 3.244 14.463 8.05l28.603 40.84c.781 1.023 1.412 2.224 1.907 3.372l3.627 8.412c2.762 6.406 1.782 13.857-2.537 19.348l-2.207 2.765z" fill="url(#paint2_linear)"/><path opacity=".05" d="M138.135 52.023l-39.614 99.731c2.627 1.361 5.512 2.271 8.574 2.538l3.526.294a22.044 22.044 0 0010.819-1.718l11.372-4.903 26.247-66.077-20.924-29.865zM120.7 42.08c-1.955-.064-3.827.063-5.712.422l-32.332 81.399.884 4.154c.29 1.462.813 2.937 1.431 4.371l3.628 8.413c.33.765.714 1.393 1.14 2.116l39.096-98.827c-2.544-1.17-5.252-1.93-8.135-2.048z" fill="#fff"/><path d="M140.24 122.878l-17.201 7.416 1.402 3.251 17.201-7.417-1.402-3.25z" fill="#986BD1"/><path d="M138.966 119.912l-3.441 1.484 1.484 3.441 3.441-1.483-1.484-3.442zm-13.766 5.936l-3.44 1.484 1.484 3.441 3.44-1.483-1.484-3.442z" fill="#986BD1"/><path opacity=".5" d="M133.128 88.07c-3.45-8.342-13.007-12.308-21.345-8.86-8.339 3.45-12.301 13.008-8.851 21.349 3.451 8.342 13.007 12.309 21.346 8.86 8.338-3.449 12.301-13.007 8.85-21.35z" fill="#363C54"/><path d="M133.164 85.454c3.49 8.359-.546 17.922-8.806 21.37-8.355 3.489-17.916-.551-21.366-8.814-3.49-8.359.546-17.922 8.805-21.37 8.355-3.489 17.917.551 21.367 8.814z" fill="#646989"/><path d="M129.343 87.103c2.584 6.255-.379 13.315-6.632 15.897-6.252 2.583-13.311-.382-15.894-6.638-2.584-6.255.378-13.314 6.631-15.897 6.157-2.541 13.216.424 15.895 6.638z" fill="#D0D3E5"/><path d="M126.388 88.236a9.055 9.055 0 10-16.732 6.922c1.913 4.623 7.209 6.82 11.829 4.908 4.621-1.911 6.816-7.208 4.903-11.83z" fill="#1C2033"/><path d="M106.276 101.134c-.287.124-.656.056-.93-.053-16.464-10.587-42.52-26.335-47.222-26.462-2.746-.063-4.794.707-5.994 2.13-2.261 2.903.823 6.902.864 6.998.11.519-.202 1.108-.721 1.218-.52.11-1.108-.203-1.218-.722-.083-.191-3.347-5.133-.39-8.789 1.608-2.053 4.23-3.07 7.673-2.968 6.751.15 44.046 24.09 48.275 26.802.493.355.644.969.29 1.462-.286.124-.436.302-.627.384z" fill="gray"/><path d="M51.006 76.782c1.608-2.054 4.23-3.071 7.673-2.969 6.656.192 43.553 23.736 48.138 26.748.163-.41-.043-.888-.399-1.188-4.229-2.712-41.524-26.652-48.275-26.803-3.444-.102-6.065.915-7.673 2.969-2.957 3.656.403 8.556.39 8.788.082.192.206.478.343.533-.14-1.64-2.554-5.135-.197-8.078z" fill="#B3B3B3"/><path d="M124.467 89.031a6.975 6.975 0 00-9.11-3.78 6.974 6.974 0 00-3.776 9.112 6.974 6.974 0 009.11 3.78 6.974 6.974 0 003.776-9.112z" fill="#00D0CD"/><path d="M118.264 96.8a5.516 5.516 0 002.88-7.25 5.516 5.516 0 10-10.129 4.367 5.516 5.516 0 007.249 2.883z" fill="#1C2033"/><path d="M113.947 88.813a1.561 1.561 0 10-2.885 1.194 1.561 1.561 0 002.885-1.194z" fill="#fff"/><path d="M133.6 89.348c.287-.124.491-.439.6-.712 3.603-19.24 10.038-48.998 13.173-52.504 1.84-2.04 3.806-3.001 5.664-2.896 3.663.348 4.454 5.336 4.495 5.431.302.437.945.614 1.381.312.437-.302.613-.944.311-1.381-.082-.191-1.435-5.957-6.123-6.317-2.597-.24-5.136.968-7.426 3.542-4.525 5.013-12.718 48.566-13.649 53.503-.08.601.262 1.134.864 1.215.287-.124.519-.11.71-.193z" fill="gray"/><path d="M153.828 32.442c-2.597-.24-5.136.967-7.426 3.542-4.43 4.97-12.637 47.964-13.595 53.365-.41-.163-.616-.64-.59-1.106.931-4.936 9.124-48.49 13.649-53.502 2.29-2.575 4.829-3.783 7.426-3.542 4.688.36 5.945 6.166 6.123 6.316.082.191.206.478.152.615-1.096-1.228-1.981-5.382-5.739-5.688z" fill="#B3B3B3"/><path d="M110.901 81.793c-7.123 4.772-8.972 14.413-4.241 21.443 4.772 7.125 14.411 8.978 21.438 4.248 7.122-4.772 8.971-14.412 4.24-21.442-4.677-7.167-14.315-9.02-21.437-4.249zm16.222 23.957a13.372 13.372 0 01-18.58-3.667 13.375 13.375 0 013.66-18.584 13.372 13.372 0 0118.58 3.667c4.086 6.06 2.398 14.498-3.66 18.584z" fill="url(#paint3_linear)" stroke="gray" stroke-miterlimit="10"/><path opacity=".57" d="M127.085 105.737c6.151-4.139 7.783-12.483 3.643-18.637-4.139-6.155-12.481-7.789-18.633-3.65-6.151 4.138-7.782 12.483-3.643 18.637s12.481 7.789 18.633 3.65z" fill="#B3E2FF"/><path opacity=".4" d="M118.384 84.686c2.128-1.37 4.504-2.169 6.841-2.269-4.132-1.96-9.133-1.73-13.253 1.066-6.154 4.127-7.747 12.523-3.619 18.68 2.756 4.027 7.298 6.15 11.835 5.894-2.134-1.007-4.051-2.561-5.423-4.691-4.128-6.156-2.494-14.457 3.619-18.68z" fill="#fff"/><path d="M135.877 16.04l10.759 24.952 5.008 2.943L139.03 14.68l-3.153 1.36z" fill="#CCC"/><path d="M151.044 43.057l-.477.206-2.436-1.444 2.007-.865a1.154 1.154 0 011.504.599 1.154 1.154 0 01-.598 1.504z" fill="url(#paint4_radial)"/><path d="M149.643 39.807l-2.771 1.195a1.156 1.156 0 01-1.505-.598 1.156 1.156 0 01.598-1.505l2.772-1.195a1.154 1.154 0 011.504.598 1.155 1.155 0 01-.598 1.505z" fill="url(#paint5_radial)"/><path d="M148.202 36.464l-2.771 1.194a1.155 1.155 0 01-1.505-.598 1.155 1.155 0 01.598-1.505l2.771-1.195a1.156 1.156 0 011.505.599 1.156 1.156 0 01-.598 1.505z" fill="url(#paint6_radial)"/><path d="M146.757 33.112l-2.772 1.195a1.154 1.154 0 01-1.504-.598 1.154 1.154 0 01.598-1.505l2.771-1.195a1.154 1.154 0 011.504.598 1.155 1.155 0 01-.597 1.505z" fill="url(#paint7_radial)"/><path d="M145.356 29.863l-2.771 1.194a1.156 1.156 0 01-1.505-.598 1.156 1.156 0 01.598-1.505l2.771-1.195a1.155 1.155 0 011.505.599 1.155 1.155 0 01-.598 1.505z" fill="url(#paint8_radial)"/><path d="M143.915 26.519l-2.771 1.195a1.155 1.155 0 01-1.505-.599 1.155 1.155 0 01.598-1.504l2.771-1.195a1.156 1.156 0 011.505.598 1.156 1.156 0 01-.598 1.505z" fill="url(#paint9_radial)"/><path d="M142.473 23.175l-2.771 1.195a1.154 1.154 0 01-1.504-.598 1.154 1.154 0 01.597-1.505l2.772-1.195a1.154 1.154 0 011.504.598 1.154 1.154 0 01-.598 1.505z" fill="url(#paint10_radial)"/><path d="M141.071 19.922l-2.771 1.195a1.156 1.156 0 01-1.505-.599 1.156 1.156 0 01.598-1.504l2.771-1.195a1.155 1.155 0 011.505.598 1.155 1.155 0 01-.598 1.505z" fill="url(#paint11_radial)"/><path d="M138.274 17.385a3.123 3.123 0 10-2.475-5.734 3.123 3.123 0 002.475 5.734z" fill="url(#paint12_radial)"/><path d="M49.55 50.534l10.841 25.143-1.34 5.566-12.654-29.35 3.153-1.359z" fill="#CCC"/><path d="M58.792 80.106l.573-.248.622-2.762-2.102.906a1.155 1.155 0 00-.598 1.505c.248.574.932.846 1.505.599z" fill="url(#paint13_radial)"/><path d="M57.394 76.859l2.77-1.195c.574-.248.846-.932.599-1.505a1.155 1.155 0 00-1.505-.599l-2.771 1.195a1.155 1.155 0 00-.598 1.505c.247.574.931.846 1.505.599z" fill="url(#paint14_radial)"/><path d="M55.95 73.511l2.771-1.194c.574-.248.846-.932.598-1.505a1.155 1.155 0 00-1.504-.599l-2.772 1.195a1.155 1.155 0 00-.597 1.505c.247.574.93.846 1.504.599z" fill="url(#paint15_radial)"/><path d="M54.507 70.164l2.771-1.195c.574-.247.845-.931.598-1.505a1.155 1.155 0 00-1.505-.598L53.6 68.061a1.155 1.155 0 00-.598 1.505c.248.573.931.845 1.505.598z" fill="url(#paint16_radial)"/><path d="M53.105 66.915l2.77-1.195c.574-.247.846-.931.599-1.505a1.155 1.155 0 00-1.505-.598l-2.771 1.195a1.155 1.155 0 00-.598 1.505c.247.573.931.845 1.505.598z" fill="url(#paint17_radial)"/><path d="M51.663 63.571l2.771-1.195c.574-.247.846-.93.598-1.505a1.155 1.155 0 00-1.504-.598l-2.772 1.195a1.155 1.155 0 00-.598 1.505c.248.574.932.846 1.505.598z" fill="url(#paint18_radial)"/><path d="M50.22 60.223l2.771-1.195c.573-.247.845-.932.598-1.505a1.155 1.155 0 00-1.505-.599l-2.771 1.195a1.155 1.155 0 00-.598 1.505c.289.67.931.846 1.505.599z" fill="url(#paint19_radial)"/><path d="M48.82 56.974l2.77-1.195c.574-.247.846-.931.598-1.505a1.155 1.155 0 00-1.504-.598l-2.771 1.195a1.155 1.155 0 00-.598 1.505c.247.573.931.845 1.504.598z" fill="url(#paint20_radial)"/><path d="M48.89 53.2a3.123 3.123 0 10-2.473-5.735A3.123 3.123 0 0048.89 53.2z" fill="url(#paint21_radial)"/><path d="M210.664 121.722l-21.347 20.194c-2.531 2.36-6.464 2.264-8.823-.268l-28.74-30.447c-2.358-2.531-2.262-6.466.269-8.825l21.346-20.195c2.447-2.298 6.38-2.202 8.739.33l28.74 30.447a6.082 6.082 0 01-.184 8.764z" fill="#515AA5"/><path d="M209.703 120.753l-21.347 20.195c-2.531 2.36-6.464 2.264-8.822-.268l-28.741-30.447c-2.358-2.532-2.262-6.466.269-8.826l21.347-20.194c2.53-2.36 6.463-2.264 8.822.268l28.74 30.447c2.359 2.531 2.262 6.466-.268 8.825z" fill="#986BD1"/><path d="M208.069 120.267l-20.039 18.984c-2.363 2.237-6.066 2.102-8.302-.261l-26.956-28.528c-2.236-2.363-2.101-6.068.261-8.305l20.04-18.984c2.362-2.237 6.065-2.102 8.302.261l26.871 28.589c2.236 2.363 2.102 6.068-.177 8.244z" fill="#D1D3D4"/><path d="M207.03 119.211l-20.039 18.984c-2.363 2.237-6.066 2.102-8.302-.261l-26.956-28.527c-2.236-2.364-2.101-6.068.261-8.305l19.955-18.923c2.363-2.237 6.066-2.103 8.302.26l26.956 28.528c2.236 2.363 2.102 6.068-.177 8.244z" fill="#E6E7E8"/><path d="M205.946 118.072l-20.039 18.984c-2.363 2.237-6.066 2.102-8.302-.261l-26.956-28.527c-2.236-2.364-2.101-6.068.261-8.305l20.039-18.985c2.363-2.237 6.066-2.102 8.302.261l26.956 28.528c2.152 2.424 2.102 6.068-.261 8.305z" fill="#fff"/><path d="M205.802 116.635l-21.347 20.195c-2.53 2.36-6.463 2.264-8.822-.268l-28.74-30.447c-2.359-2.532-2.262-6.466.268-8.826l21.347-20.195c2.531-2.36 6.464-2.263 8.822.269l28.741 30.447c2.297 2.447 2.201 6.382-.269 8.825z" fill="#986BD1"/><path d="M207.273 112.998l-26.513 25.116c-1.055 1.026-2.761.982-3.787-.074l1.087 1.14c1.026 1.055 2.733 1.099 3.788.073l26.512-25.116c1.055-1.026 1.1-2.733.074-3.788l-1.088-1.139c1.026 1.055.982 2.761-.073 3.788z" fill="#515AA5"/><path d="M148.327 96.047l-3.862 3.716c-1.055 1.026-1.099 2.733-.073 3.789l33.669 35.619c1.026 1.056 2.732 1.1 3.788.074l3.861-3.716-37.383-39.482z" fill="#515AA5"/><path d="M190.724 127.523a8.01 8.01 0 00-2.415-11.065 8.005 8.005 0 10-8.647 13.475 8.003 8.003 0 0011.062-2.41zm-9.904 7.782c.868-1.051.804-2.57-.146-3.443-1.051-.869-2.57-.805-3.438.246l-3.099 3.477c-.869 1.051-.805 2.569.145 3.443 1.051.869 2.57.805 3.439-.246l3.099-3.477z" fill="#252528"/><path d="M182.343 135.547c.869-1.051.804-2.57-.247-3.439-1.051-.869-2.57-.805-3.438.245l-3.099 3.478c-.869 1.05-.805 2.569.145 3.443 1.051.868 2.57.805 3.439-.246l3.2-3.481z" fill="#00D0CD"/><path opacity=".5" d="M175.649 137.754c1.051.869 2.57.805 3.442-.144l3.099-3.477c.291-.317.38-.625.569-.937.237.801.174 1.717-.504 2.455l-3.099 3.478c-.869 1.05-2.489 1.118-3.439.245-.739-.679-.984-1.683-.714-2.506.109.198.329.595.646.886z" fill="#4D1518"/><path d="M179.846 126.82c.975-.954 1.007-2.578-.044-3.447-.954-.975-2.477-1.012-3.447.043l-3.306 3.384c-.974.954-1.011 2.477.045 3.447.954.975 2.578 1.008 3.447-.043l3.305-3.384z" fill="#1C1C1D"/><path d="M175.849 130.744c.869-1.051.805-2.57-.145-3.443-1.051-.869-2.57-.805-3.439.245l-3.099 3.478c-.869 1.05-.804 2.569.146 3.442 1.051.869 2.57.806 3.438-.245l3.099-3.477z" fill="#252528"/><path d="M177.37 130.981c.869-1.05.805-2.569-.246-3.438-1.052-.869-2.57-.805-3.439.245l-3.099 3.477c-.869 1.051-.804 2.57.145 3.443 1.052.869 2.57.806 3.439-.245l3.2-3.482z" fill="#00D0CD"/><path d="M176.27 131.127c.485-.528.353-1.232-.073-1.721-.528-.486-1.232-.355-1.722.072l-1.551 1.688c-.485.527-.354 1.232.073 1.721a1.372 1.372 0 001.721-.072l1.552-1.688z" fill="#252528"/><path opacity=".5" d="M173.028 131.267l1.551-1.688c.485-.527 1.194-.557 1.722-.072.316.291.43.591.342.899-.004-.102-.106-.097-.11-.199a1.373 1.373 0 00-1.721.072l-1.552 1.688a1.098 1.098 0 00-.274.722c-.418-.287-.346-1 .042-1.422z" fill="#4D1518"/><path opacity=".5" d="M170.672 133.093c1.051.868 2.57.805 3.443-.145l3.099-3.477c.291-.316.379-.624.569-.937.237.802.174 1.718-.505 2.456l-3.099 3.477c-.868 1.051-2.489 1.119-3.438.246-.739-.679-.985-1.684-.715-2.506.114.299.329.594.646.886z" fill="#4D1518"/><path d="M180.804 115.932c1.052.868 1.217 2.383.45 3.429-.869 1.051-2.384 1.216-3.431.448l-3.673-2.889c-1.051-.869-1.217-2.384-.449-3.43.868-1.05 2.383-1.215 3.43-.448l3.673 2.89z" fill="#1C1C1D"/><path d="M174.047 111.946c1.308-.257 2.663.599 2.921 1.906.258 1.308-.598 2.662-1.905 2.92l-4.629.903c-1.308.258-2.662-.598-2.921-1.906-.258-1.308.598-2.662 1.906-2.919l4.628-.904z" fill="#252528"/><path d="M174.594 110.61c1.308-.258 2.663.599 2.921 1.906.258 1.308-.598 2.662-1.906 2.92l-4.628.903c-1.308.258-2.663-.598-2.921-1.906-.258-1.308.598-2.662 1.906-2.919l4.628-.904z" fill="#00D0CD"/><path d="M173.919 111.446c.603-.127 1.228.253 1.359.957.127.604-.252 1.228-.957 1.359l-2.211.498c-.603.127-1.228-.253-1.359-.957-.127-.603.252-1.228.957-1.359l2.211-.498z" fill="#252528"/><path opacity=".5" d="M172.109 114.158l2.211-.498c.603-.127 1.084-.755.957-1.359-.119-.4-.334-.696-.642-.784.004.101.004.101.11.198.127.603-.253 1.228-.957 1.359l-2.211.498c-.304.012-.506.021-.819-.169.229.599.849.877 1.351.755z" fill="#4D1518"/><path opacity=".5" d="M169.417 115.285c-.259-1.308.597-2.662 1.905-2.919l4.628-.904c.401-.118.709-.029 1.118.055-.536-.688-1.46-.953-2.367-.814l-4.628.904c-1.308.257-2.164 1.611-1.906 2.919.246 1.004.984 1.683 1.803 1.852-.317-.291-.536-.688-.553-1.093z" fill="#4D1518"/></g><defs><radialGradient id="paint0_radial" cx="0" cy="0" r="1" gradientUnits="userSpaceOnUse" gradientTransform="matrix(-45.00285 19.40457 -19.4125 -45.02122 119.205 97)"><stop stop-color="#333"/><stop offset="1" stop-color="#333"/></radialGradient><radialGradient id="paint4_radial" cx="0" cy="0" r="1" gradientUnits="userSpaceOnUse" gradientTransform="matrix(1.31301 -.56614 .56637 1.31355 150.109 42.235)"><stop stop-color="#333"/><stop offset="1" stop-color="#333"/></radialGradient><radialGradient id="paint5_radial" cx="0" cy="0" r="1" gradientUnits="userSpaceOnUse" gradientTransform="matrix(1.87235 -.80732 .80764 1.8731 147.78 39.31)"><stop stop-color="#333"/><stop offset="1" stop-color="#333"/></radialGradient><radialGradient id="paint6_radial" cx="0" cy="0" r="1" gradientUnits="userSpaceOnUse" gradientTransform="matrix(1.87235 -.80732 .80764 1.8731 146.352 36)"><stop stop-color="#333"/><stop offset="1" stop-color="#333"/></radialGradient><radialGradient id="paint7_radial" cx="0" cy="0" r="1" gradientUnits="userSpaceOnUse" gradientTransform="matrix(1.87235 -.80732 .80765 1.8731 144.921 32.68)"><stop stop-color="#333"/><stop offset="1" stop-color="#333"/></radialGradient><radialGradient id="paint8_radial" cx="0" cy="0" r="1" gradientUnits="userSpaceOnUse" gradientTransform="matrix(1.87235 -.80732 .80764 1.8731 143.494 29.368)"><stop stop-color="#333"/><stop offset="1" stop-color="#333"/></radialGradient><radialGradient id="paint9_radial" cx="0" cy="0" r="1" gradientUnits="userSpaceOnUse" gradientTransform="matrix(1.87235 -.80732 .80764 1.8731 142.066 26.057)"><stop stop-color="#333"/><stop offset="1" stop-color="#333"/></radialGradient><radialGradient id="paint10_radial" cx="0" cy="0" r="1" gradientUnits="userSpaceOnUse" gradientTransform="matrix(1.87235 -.80732 .80764 1.8731 140.639 22.746)"><stop stop-color="#333"/><stop offset="1" stop-color="#333"/></radialGradient><radialGradient id="paint11_radial" cx="0" cy="0" r="1" gradientUnits="userSpaceOnUse" gradientTransform="matrix(1.87235 -.80732 .80765 1.8731 139.209 19.43)"><stop stop-color="#333"/><stop offset="1" stop-color="#333"/></radialGradient><radialGradient id="paint12_radial" cx="0" cy="0" r="1" gradientUnits="userSpaceOnUse" gradientTransform="matrix(2.8506 -1.22912 1.22962 2.85177 137.084 14.51)"><stop stop-color="#333"/><stop offset="1" stop-color="#333"/></radialGradient><radialGradient id="paint13_radial" cx="0" cy="0" r="1" gradientUnits="userSpaceOnUse" gradientTransform="matrix(-1.3499 .58206 -.5823 -1.35045 58.904 78.852)"><stop stop-color="#333"/><stop offset="1" stop-color="#333"/></radialGradient><radialGradient id="paint14_radial" cx="0" cy="0" r="1" gradientUnits="userSpaceOnUse" gradientTransform="rotate(156.675 21.4 43.609) scale(2.03897 2.0398)"><stop stop-color="#333"/><stop offset="1" stop-color="#333"/></radialGradient><radialGradient id="paint15_radial" cx="0" cy="0" r="1" gradientUnits="userSpaceOnUse" gradientTransform="rotate(156.675 21.027 41.804) scale(2.03897 2.0398)"><stop stop-color="#333"/><stop offset="1" stop-color="#333"/></radialGradient><radialGradient id="paint16_radial" cx="0" cy="0" r="1" gradientUnits="userSpaceOnUse" gradientTransform="rotate(156.675 20.654 39.999) scale(2.03897 2.0398)"><stop stop-color="#333"/><stop offset="1" stop-color="#333"/></radialGradient><radialGradient id="paint17_radial" cx="0" cy="0" r="1" gradientUnits="userSpaceOnUse" gradientTransform="rotate(156.675 20.281 38.195) scale(2.03897 2.03981)"><stop stop-color="#333"/><stop offset="1" stop-color="#333"/></radialGradient><radialGradient id="paint18_radial" cx="0" cy="0" r="1" gradientUnits="userSpaceOnUse" gradientTransform="rotate(156.675 19.91 36.392) scale(2.03897 2.03981)"><stop stop-color="#333"/><stop offset="1" stop-color="#333"/></radialGradient><radialGradient id="paint19_radial" cx="0" cy="0" r="1" gradientUnits="userSpaceOnUse" gradientTransform="rotate(156.675 19.537 34.587) scale(2.03897 2.03981)"><stop stop-color="#333"/><stop offset="1" stop-color="#333"/></radialGradient><radialGradient id="paint20_radial" cx="0" cy="0" r="1" gradientUnits="userSpaceOnUse" gradientTransform="matrix(-1.87233 .80732 -.80766 -1.8731 49.744 55.3)"><stop stop-color="#333"/><stop offset="1" stop-color="#333"/></radialGradient><radialGradient id="paint21_radial" cx="0" cy="0" r="1" gradientUnits="userSpaceOnUse" gradientTransform="matrix(-2.85059 1.22913 -1.22964 -2.85176 47.621 50.38)"><stop stop-color="#333"/><stop offset="1" stop-color="#333"/></radialGradient><linearGradient id="paint1_linear" x1="75.982" y1="115.637" x2="162.422" y2="78.366" gradientUnits="userSpaceOnUse"><stop stop-color="#B7B6B6"/><stop offset="1" stop-color="#fff"/></linearGradient><linearGradient id="paint2_linear" x1="78.639" y1="114.493" x2="159.773" y2="79.51" gradientUnits="userSpaceOnUse"><stop stop-color="#575757"/><stop offset="1" stop-color="#BBB"/></linearGradient><linearGradient id="paint3_linear" x1="106.773" y1="103.268" x2="132.429" y2="86.013" gradientUnits="userSpaceOnUse"><stop stop-color="#fff"/><stop offset="1" stop-color="#B7B6B6"/></linearGradient><clipPath id="clip0"><path fill="#fff" d="M0 0h176v197H0z"/></clipPath></defs></svg>