<svg width="359" height="331" fill="none" xmlns="http://www.w3.org/2000/svg"><g clip-path="url(#clip0)"><path opacity=".3" d="M119.223 138.136l-58.212-20.514m-115.533 1.376L3.69 139.512m87.315 30.768l26.289 9.264" stroke="#06EDE1"/><path transform="scale(-1 1) rotate(70.587 -97.683 21.577)" fill="url(#paint0_linear)" d="M0 0h13.233v12.941H0z"/><path transform="scale(-1 1) rotate(70.587 -185.713 13.228)" fill="url(#paint1_linear)" d="M0 0h9.162v8.959H0z"/><path transform="scale(-1 1) rotate(70.587 -176.574 19.697)" fill="url(#paint2_linear)" d="M0 0h6.108v5.973H0z"/><path transform="matrix(-1 0 0 1 346.902 6.794)" fill="url(#paint3_linear)" d="M0 0h80.369v323.787H0z"/><path d="M196.682 221.271c4.984-8.123 4.534-17.465-1.006-20.865-5.54-3.401-14.072.427-19.056 8.55-4.985 8.123-4.534 17.465 1.006 20.866s14.071-.428 19.056-8.551z" fill="#191818"/><path opacity=".5" d="M183.543 213.981c3.306-7.017 4.308-13.497 2.237-14.474-2.071-.976-6.431 3.921-9.738 10.938-3.307 7.017-4.308 13.497-2.237 14.473 2.071.977 6.431-3.92 9.738-10.937z" fill="#19A1A2"/><path d="M182.87 213.7c3.307-7.017 4.309-13.497 2.238-14.474-2.071-.976-6.431 3.92-9.739 10.937-3.308 7.017-4.31 13.498-2.239 14.474 2.072.977 6.432-3.92 9.74-10.937z" fill="#17A5BA"/><path d="M180.396 211.517c2.583-5.48 3.377-10.535 1.774-11.292-1.604-.756-4.998 3.074-7.581 8.554s-3.377 10.535-1.773 11.291c1.603.756 4.997-3.073 7.58-8.553z" fill="#191818"/><path d="M333.662 300.9c-.888-.613-2.254-.326-2.866.562-.612.888-.326 2.255.562 2.867l3.307 2.16c.888.612 2.254.325 2.866-.563.613-.888.326-2.255-.562-2.867l-3.307-2.159z" fill="#1C1C1D"/><path d="M338.533 305.206c-.177-1.089-1.175-1.979-2.264-1.803-1.088.176-1.978 1.175-1.802 2.264l.472 3.933c.176 1.089 1.175 1.979 2.264 1.803 1.088-.176 1.978-1.175 1.802-2.264l-.472-3.933z" fill="#252528"/><path d="M339.41 304.34c-.176-1.089-1.175-1.979-2.263-1.803-1.089.177-1.979 1.175-1.803 2.264l.472 3.934c.177 1.089 1.175 1.979 2.264 1.802 1.088-.176 1.978-1.175 1.802-2.264l-.472-3.933z" fill="#17A5BA"/><path d="M339.077 305.117c-.088-.544-.587-.989-1.132-.901-.544.088-.989.587-.901 1.132l.242 1.9c.088.544.587.989 1.132.901.544-.088.989-.587.901-1.132l-.242-1.9z" fill="#252528"/><path opacity=".5" d="M337.284 307.248l-.242-1.9c-.088-.545.357-1.044.901-1.132.267.022.533.045.777.334l-.133-.011c-.544.088-.989.587-.901 1.132l.242 1.9c-.023.266.099.411.354.567-.533-.045-.91-.346-.998-.89z" fill="#4D1518"/><path opacity=".5" d="M337.071 309.781c1.088-.177 1.978-1.175 1.802-2.264l-.472-3.934c.022-.266-.088-.544-.332-.833.643.323 1.131.901 1.197 1.712l.472 3.933c.176 1.089-.714 2.088-1.802 2.264-.811.066-1.588-.268-1.931-.969l1.066.091z" fill="#4D1518"/><path d="M314.214 292.809c.188.956 1.22 1.446 2.042 1.247.955-.188 1.446-1.22 1.247-2.043l-7.094-27.182c-.187-.956-1.22-1.446-2.042-1.247-.955.187-1.445 1.22-1.247 2.042l7.094 27.183zm-31.488-30.194c6.483.477 12.304-6.842 13.002-16.347.699-9.505-3.99-17.596-10.472-18.072-6.483-.476-12.304 6.843-13.002 16.347-.699 9.505 3.99 17.596 10.472 18.072z" fill="#191818"/><path opacity=".5" d="M295.215 247.791c1.413-7.627.735-14.149-1.517-14.566-2.251-.418-5.223 5.427-6.636 13.054-1.414 7.628-.735 14.149 1.516 14.567 2.251.417 5.223-5.427 6.637-13.055z" fill="#19A1A2"/><path d="M296.059 247.9c1.413-7.627.734-14.149-1.517-14.566-2.252-.417-5.223 5.428-6.636 13.055-1.413 7.628-.733 14.149 1.518 14.566 2.251.418 5.222-5.427 6.635-13.055z" fill="#17A5BA"/><path d="M297.47 247.295c1.103-5.957.585-11.047-1.158-11.37-1.743-.323-4.051 4.244-5.154 10.2-1.104 5.957-.586 11.048 1.157 11.371 1.743.323 4.051-4.244 5.155-10.201z" fill="#191818"/><path d="M303.28 251.859a8.027 8.027 0 003.754-10.712 8.022 8.022 0 00-10.709-3.754 8.027 8.027 0 00-3.754 10.712 8.024 8.024 0 0010.709 3.754z" fill="#252528"/><path opacity=".5" d="M299.206 251.262c3.924-1.95 5.663-6.636 3.725-10.693-.92-1.823-2.417-3.158-4.227-3.983 3.255-.396 6.741 1.242 8.213 4.455 1.95 3.924.2 8.743-3.724 10.693-2.1 1.03-4.511.961-6.464.258.955-.187 1.777-.386 2.477-.73z" fill="#444344"/><path d="M313.097 264.79a3.035 3.035 0 004.409.239l.579-.488a3.036 3.036 0 00.239-4.41l-13.962-15.816a3.034 3.034 0 00-4.409-.239l-.579.488a3.036 3.036 0 00-.239 4.41l13.962 15.816z" fill="#252528"/><path opacity=".5" d="M311.577 262.11a3.036 3.036 0 00.239-4.41l-11.999-13.636.144-.122c1.301-1.098 3.167-.94 4.409.239l13.962 15.816c1.098 1.302.94 3.168-.239 4.41l-.578.489c-1.301 1.098-3.167.94-4.409-.24l-1.952-2.313.423-.233z" fill="#444344"/><path d="M320.03 269.427a6.689 6.689 0 00-5.796-12.055 6.69 6.69 0 00-3.128 8.927 6.685 6.685 0 008.924 3.128z" fill="#252528"/><path opacity=".5" d="M317.365 261.929c-.908-1.956-2.684-3.181-4.66-3.616.433-.367.867-.733 1.423-.954 3.356-1.595 7.264-.19 8.859 3.167 1.595 3.357.19 7.265-3.167 8.861-1.4.687-2.889.829-4.332.438 2.446-1.94 3.25-5.094 1.877-7.896z" fill="#444344"/><path d="M316.678 293.823c1.227 4.534 5.955 7.351 10.488 6.124l1.378-.42c4.533-1.228 7.35-5.956 6.123-10.491l-5.779-22.104c-1.227-4.534-5.954-7.351-10.488-6.124l-1.377.421c-4.534 1.227-7.35 5.956-6.123 10.49l5.778 22.104z" fill="#17A5BA"/><path opacity=".5" d="M321.484 295.707l1.377-.421c4.534-1.227 7.35-5.956 6.124-10.49l-5.779-22.104c-.21-.689-.421-1.378-.897-2.09 3.031.66 5.649 3.03 6.456 6.186l5.779 22.104c1.226 4.534-1.59 9.263-6.124 10.49l-1.377.42c-3.845 1.017-7.852-.799-9.725-4.045 1.444.39 2.788.37 4.166-.05z" fill="#444344"/><path d="M326.81 300.235c3.674-.384 6.471-2.423 6.249-4.554-.223-2.131-3.381-3.547-7.055-3.163-3.673.384-6.471 2.423-6.248 4.554.223 2.131 3.381 3.547 7.054 3.163z" fill="#252528"/><path opacity=".5" d="M327.42 293.792c-3.655.362-6.512 2.403-6.293 4.569-.023.267.088.545.332.834-1.021-.624-1.631-1.347-1.685-2.291-.219-2.167 2.505-4.218 6.293-4.569 3.11-.273 5.852.63 6.783 2.32-1.421-.657-3.409-.96-5.43-.863z" fill="#4D1518"/><path d="M329.893 306.505a6.688 6.688 0 10-5.8-12.054 6.688 6.688 0 005.8 12.054z" fill="#252528"/><path opacity=".5" d="M330.121 298.318c-1.263-2.524-3.694-3.938-6.393-3.764.133.012.145-.122.278-.11 3.356-1.596 7.264-.191 8.859 3.166 1.595 3.357.19 7.266-3.167 8.861-.833.333-1.666.665-2.599.586 3.356-1.596 4.628-5.516 3.022-8.739z" fill="#444344"/><path d="M329.802 303.661a2.098 2.098 0 00-2.932-.249 2.1 2.1 0 00-.248 2.933l2.562 3.036c.732.868 2.064.98 2.932.248a2.1 2.1 0 00.248-2.932l-2.562-3.036z" fill="#1C1C1D"/><path d="M333.228 309.187c.224-1.055-.486-2.189-1.674-2.424-1.055-.224-2.189.486-2.423 1.674l-.728 3.832c-.223 1.055.486 2.189 1.674 2.424 1.055.223 2.189-.486 2.424-1.675l.727-3.831z" fill="#252528"/><path d="M334.34 308.744c.223-1.055-.486-2.189-1.674-2.424-1.055-.224-2.189.486-2.424 1.674l-.727 3.832c-.223 1.055.486 2.189 1.674 2.424 1.055.224 2.189-.486 2.424-1.674l.727-3.832z" fill="#17A5BA"/><path d="M333.614 309.354c.045-.533-.31-1.1-.843-1.145-.533-.046-1.1.309-1.145.842l-.291 1.855c-.045.533.309 1.1.842 1.146.533.045 1.1-.31 1.145-.843l.292-1.855z" fill="#252528"/><path opacity=".5" d="M331.348 310.773l.291-1.855c.045-.533.612-.888 1.145-.843a.736.736 0 01.633.456l-.133-.011c-.533-.045-1.1.31-1.146.843l-.291 1.855c-.022.266-.034.4.077.677-.389-.167-.621-.589-.576-1.122z" fill="#4D1518"/><path opacity=".5" d="M330.478 313.116c1.055.223 2.189-.486 2.423-1.675l.728-3.831c.022-.267.056-.667-.055-.945.5.445.843 1.146.775 1.945l-.727 3.832c-.224 1.055-1.235 1.909-2.424 1.674-.788-.201-1.409-.79-1.619-1.479.244.289.632.456.899.479z" fill="#4D1518"/><path d="M320.954 301.972c.624-1.022 1.857-1.32 2.878-.697 1.021.624 1.319 1.857.696 2.879l-2.037 3.452c-.624 1.021-1.857 1.32-2.878.696-1.021-.623-1.319-1.857-.696-2.878l2.037-3.452z" fill="#1C1C1D"/><path d="M318.423 308.067c-.31-1.1.192-2.266 1.292-2.575 1.1-.31 2.265.191 2.575 1.292l1.294 3.734c.31 1.1-.192 2.266-1.292 2.576-1.1.309-2.265-.192-2.575-1.292l-1.294-3.735z" fill="#252528"/><path d="M317.246 307.699c-.309-1.1.192-2.266 1.292-2.576 1.1-.309 2.266.192 2.575 1.293l1.295 3.734c.309 1.1-.192 2.266-1.292 2.576-1.1.309-2.266-.192-2.575-1.292l-1.295-3.735z" fill="#17A5BA"/><path d="M319.103 307.991c-.221-.556.09-1.067.646-1.288.556-.221 1.066.09 1.288.646l.653 1.801c.221.555-.091 1.066-.646 1.287-.556.222-1.067-.09-1.288-.646l-.653-1.8z" fill="#252528"/><path opacity=".5" d="M321.566 309.004l-.653-1.8c-.221-.556-.743-.734-1.288-.646-.277.111-.566.355-.589.621l.144-.122c.556-.221 1.067.09 1.288.646l.653 1.801c.111.278.099.411-.057.666.545-.088.723-.61.502-1.166z" fill="#4D1518"/><path opacity=".5" d="M321.75 311.571c-1.1.309-2.265-.192-2.575-1.292l-1.294-3.735c-.111-.278-.088-.544-.054-.944-.445.499-.646 1.288-.448 2.11l1.295 3.735c.309 1.1 1.608 1.613 2.575 1.292.833-.333 1.29-.965 1.357-1.765-.289.244-.578.488-.856.599z" fill="#444344"/><path d="M316.339 263.781l-4.153 6.235 1.336.89 4.153-6.234-1.336-.891zm1.141 3.651l-4.154 6.233 1.335.89 4.155-6.233-1.336-.89zm1.041 3.727l-4.153 6.234 1.335.89 4.153-6.234-1.335-.89zm1.043 3.758l-4.153 6.235 1.336.89 4.152-6.235-1.335-.89z" fill="#fff"/><path d="M223.464 169.397L213.21 195.38l-2.932-.249 10.588-26.759 2.598 1.025z" fill="url(#paint4_linear)"/><path d="M210.734 194.498l2.209.859c.522.178 1.077-.043 1.256-.565.178-.522-.043-1.078-.565-1.256l-2.22-.725c-.522-.179-1.078.043-1.256.565-.167.388.054.944.576 1.122z" fill="url(#paint5_linear)"/><path d="M211.771 191.767l2.209.858c.521.179 1.077-.043 1.256-.564.178-.522-.043-1.078-.565-1.257l-2.209-.858c-.522-.178-1.078.043-1.256.565-.045.533.176 1.089.565 1.256z" fill="url(#paint6_linear)"/><path d="M212.94 189.047l2.209.859c.522.178 1.078-.043 1.256-.565.179-.522-.043-1.078-.565-1.256l-2.209-.859c-.521-.178-1.077.043-1.255.565-.179.522.042 1.078.564 1.256z" fill="url(#paint7_linear)"/><path d="M213.977 186.315l2.209.858c.522.179 1.077-.043 1.256-.564.178-.522-.043-1.078-.565-1.257l-2.209-.858c-.522-.178-1.078.043-1.256.565-.179.522.043 1.078.565 1.256z" fill="url(#paint8_linear)"/><path d="M215.016 183.584l2.209.858c.522.179 1.077-.043 1.256-.565.178-.521-.043-1.077-.565-1.256l-2.209-.858c-.522-.178-1.077.043-1.256.565-.045.533.176 1.089.565 1.256z" fill="url(#paint9_linear)"/><path d="M216.184 180.864l2.209.858c.522.179 1.077-.043 1.256-.565.178-.522-.043-1.078-.565-1.256l-2.209-.858c-.522-.179-1.078.043-1.256.565-.178.522.043 1.077.565 1.256z" fill="url(#paint10_linear)"/><path d="M217.222 178.132l2.209.858c.521.179 1.077-.043 1.255-.565.179-.521-.043-1.077-.564-1.256l-2.209-.858c-.522-.178-1.078.043-1.256.565-.179.522.043 1.078.565 1.256z" fill="url(#paint11_linear)"/><path d="M218.257 175.401l2.209.858c.522.179 1.078-.043 1.256-.564.179-.522-.043-1.078-.565-1.257l-2.209-.858c-.522-.178-1.077.043-1.256.565-.045.533.177 1.089.565 1.256z" fill="url(#paint12_linear)"/><path d="M219.429 172.681l2.209.858c.521.179 1.077-.043 1.255-.565.179-.522-.042-1.077-.564-1.256l-2.209-.858c-.522-.179-1.078.043-1.256.565-.179.522.043 1.077.565 1.256z" fill="url(#paint13_linear)"/><path d="M222.274 170.774a2.542 2.542 0 10.427-5.065 2.542 2.542 0 00-.427 5.065z" fill="url(#paint14_linear)"/><path d="M180.298 225.753c-12.961 32.6-1.713 67.787 25.173 78.388 26.887 10.6 59.132-7.21 72.093-39.81 12.962-32.6 1.714-67.787-25.172-78.387-26.875-10.734-59.132 7.21-72.094 39.809z" fill="#fff"/><path fill-rule="evenodd" clip-rule="evenodd" d="M191.526 294.682c26.851 10.455 58.985-7.348 71.919-39.878 10.349-26.03 5.264-53.71-10.894-69.206l.176.07c26.886 10.601 38.134 45.788 25.173 78.388-12.962 32.599-45.207 50.409-72.094 39.809-5.418-2.137-10.202-5.272-14.28-9.183z" fill="#BDBDBD"/><path d="M211.574 270.155c-2.067.63-3.944.606-5.764-.086 0 0-21.409-11.881-22.473-13.583l-1.064-1.701c-2.338-4.091-2.363-10.135-.145-15.72l2.552-6.362c.357-1.044.244.289.867-.732l18.125-31.76c2.516-4.351 6.13-7.401 9.841-8.43 1.923-.508 3.655-.362 5.354.185l6.105 2.397 6.106 2.396a8.27 8.27 0 014.005 3.427c2.006 3.258 2.543 8.002 1.326 12.867l-8.645 35.516c-.224 1.055-.592 2.232-1.082 3.264l-2.552 6.363c-2.229 5.718-6.489 10.056-10.9 11.428l-1.656.531z" fill="url(#paint15_radial)"/><path d="M181.494 238.609c-2.385 5.973-2.394 12.417.188 16.797l1.064 1.701c1.175 1.979 2.672 3.315 4.493 4.006l18.224 9.867c1.821.691 3.964.738 6.031.108l1.933-.642c4.823-1.471 9.238-6.065 11.623-12.038l2.553-6.363c.501-1.165.858-2.209 1.093-3.398l8.645-35.516c1.251-5.264.724-10.142-1.392-13.677-1.064-1.701-2.562-3.036-4.249-3.716l-12.333-4.938c-1.688-.68-3.698-.716-5.62-.207-3.978 1.005-7.747 4.311-10.419 8.918l-18.125 31.759c-.913 1.266-3.709 7.339-3.709 7.339zm4.684-6.182l18.125-31.76c2.361-4.096 5.685-6.902 9.119-7.82a7.95 7.95 0 014.953.151l12.333 4.938c1.554.669 2.808 1.715 3.75 3.271 1.884 3.113 2.322 7.446 1.261 12.055l-8.645 35.517c-.224 1.055-.569 1.965-.926 3.009l-2.552 6.362c-2.062 5.33-6.033 9.424-10.166 10.685l-1.934.642c-1.922.508-3.666.495-5.353-.185l-18.213-10c-1.554-.669-2.93-1.859-3.994-3.56l-1.064-1.702c-2.227-3.813-2.286-9.457-.091-14.775.134.011 2.785-5.94 3.397-6.828z" fill="url(#paint16_linear)"/><path d="M183.015 253.909l1.064 1.701c.931 1.69 2.307 2.88 3.994 3.56l18.224 9.867c1.554.669 3.431.693 5.353.185l1.934-.642c4.133-1.261 8.104-5.355 10.166-10.685l2.552-6.362c.357-1.044.703-1.954.926-3.009l8.645-35.517c1.062-4.609.623-8.942-1.261-12.055-.942-1.556-2.329-2.614-3.749-3.271l-12.334-4.938c-1.554-.668-3.297-.682-4.953-.151-3.433.918-6.758 3.724-9.118 7.82l-18.125 31.76c-.479.899-3.264 6.839-3.264 6.839-2.34 5.441-2.281 11.084-.054 14.898zm.89-.999c-1.994-3.391-2.098-8.501-.07-13.431 0 0 2.629-5.685 3.108-6.584l18.125-31.76c2.059-3.719 5.095-6.281 8.262-7.221 1.644-.398 3.121-.407 4.542.25l12.333 4.938c1.432.524 2.553 1.559 3.373 2.971 1.773 2.835 2.112 6.757 1.084 10.966l-8.645 35.516c-.212.922-.557 1.833-.903 2.743l-2.552 6.362c-1.884 4.808-5.421 8.536-9.276 9.687l-1.934.641c-1.655.531-3.399.518-4.82-.139l-18.08-9.989c-1.432-.524-2.674-1.704-3.616-3.26l-.931-1.69z" fill="url(#paint17_linear)"/><path opacity=".1" d="M203.37 200.588l14.782 66.365c-1.446 1.22-3.135 2.151-4.791 2.682l-1.933.642c-2.067.63-3.944.606-5.765-.086l-5.247-4.606-9.837-43.928 12.791-21.069zm10.007-8.818c1.1-.31 2.044-.364 3.11-.274l12.189 54.196-.793 3.021c-.224 1.055-.592 2.232-1.082 3.265l-2.552 6.362c-.179.522-.49 1.032-.68 1.688l-14.694-65.82c1.446-1.22 2.991-2.029 4.502-2.438z" fill="#fff"/><path opacity=".5" d="M202.802 226.317c-2.407 6.24-.928 12.541 3.369 14.113 4.296 1.572 9.71-2.131 12.117-8.371 2.408-6.241.928-12.541-3.368-14.114-4.285-1.705-9.71 2.132-12.118 8.372z" fill="#363C54"/><path d="M203.097 224.463c-2.408 6.24-.928 12.541 3.368 14.113 4.296 1.572 9.711-2.131 12.118-8.372 2.408-6.24.928-12.541-3.368-14.113-4.297-1.572-9.711 2.131-12.118 8.372z" fill="#646989"/><path d="M217.364 217.617l-15.513 13.588c-.054-.944.025-1.877.115-2.943l13.634-12.003c.777.335 1.276.78 1.764 1.358zm2.008 9.566l-13.055 11.515c-1.298-.513-2.419-1.548-3.117-2.815l16.102-14.21c.398 1.645.373 3.522.07 5.51z" fill="#7F86A8"/><path d="M205.046 225.165c-1.739 4.686-.656 9.342 2.463 10.546 3.119 1.204 7.255-1.668 8.983-6.221 1.739-4.685.657-9.342-2.463-10.546-3.252-1.215-7.255 1.668-8.983 6.221z" fill="#D0D3DD"/><path d="M206.481 225.689c-1.371 3.508-.454 6.942 1.888 7.812 2.343.87 5.333-1.159 6.704-4.668 1.371-3.509.454-6.943-1.877-7.946-2.354-.736-5.356 1.426-6.715 4.802z" fill="#1C2033"/><path d="M207.513 226.179c-1.037 2.731-.319 5.343 1.502 6.034 1.82.691 4.111-.994 5.136-3.593 1.037-2.731.33-5.476-1.502-6.034-1.809-.824-4.1.861-5.136 3.593z" fill="#17A5BA"/><path d="M213.426 228.391c.845-2.128.361-4.318-1.081-4.89-1.442-.573-3.295.689-4.14 2.818-.845 2.129-.361 4.319 1.081 4.891 1.442.572 3.295-.69 4.14-2.819z" fill="#1C2033"/><path d="M210.119 227.071c-.179.522-.102 1.2.287 1.367.388.167.955-.188 1.145-.843.178-.522.101-1.2-.287-1.367-.533-.045-.967.321-1.145.843z" fill="#fff"/><path d="M216.151 227.179l-9.092-3.589s.917-4.487 6.246-2.425c-.134-.011 4.407 1.85 2.846 6.014zm-10.763.297l9.092 3.589s-.405 3.188-5.722.992c.133.011-4.418-1.717-3.37-4.581z" fill="#D0D3DD"/><path d="M213.012 232.552l-4.657 2.693-2.119-1.924-.362-3.656 3.364 1.493 3.774 1.394zm-5.218-9.705l5.046-2.526 2.507 2.091.495 3.667-3.885-1.671-4.163-1.561z" fill="#D0D3DD"/><path opacity=".5" d="M214.031 218.944c1.821.692 2.996 2.671 3.337 4.982-.588-.99-1.453-1.868-2.496-2.225-3.12-1.204-7.255 1.668-8.983 6.22-.702 1.954-.994 3.809-.741 5.576-1.163-2.112-1.303-5.212-.099-8.332 1.727-4.553 5.73-7.436 8.982-6.221z" fill="#646989"/><path d="M173.56 215.618a8.029 8.029 0 005.306-10.035 8.026 8.026 0 10-5.306 10.035z" fill="#252528"/><path opacity=".5" d="M176.196 212.383c-4.266 1.25-8.639-1-10.022-5.279-.641-1.933-.472-3.933.352-5.743-2.712 1.919-4.083 5.427-3.033 8.873 1.249 4.267 5.756 6.528 10.022 5.279 2.212-.753 3.946-2.217 4.927-4.282-.723.61-1.423.954-2.246 1.152z" fill="#444344"/><path d="M148.94 195.039c-1.386-1.057-1.628-2.957-.704-4.355l.456-.633c1.057-1.387 2.956-1.629 4.355-.705l16.932 12.442c1.387 1.058 1.629 2.958.705 4.356l-.456.633c-1.058 1.387-2.957 1.629-4.355.705l-16.933-12.443z" fill="#252528"/><path opacity=".5" d="M151.651 196.343c1.057-1.387 2.957-1.629 4.355-.705l14.524 10.761.145-.122c1.057-1.387.682-3.298-.705-4.355l-16.932-12.443c-1.387-1.057-3.298-.682-4.355.705l-.456.633c-1.057 1.387-.682 3.298.705 4.356l2.396 1.814.323-.644z" fill="#444344"/><path d="M151.815 195.408a6.688 6.688 0 10-9.406-.977 6.685 6.685 0 009.406.977z" fill="#252528"/><path opacity=".5" d="M149.05 190.618c1.331 1.724 1.828 3.78 1.259 5.745.555-.221.989-.587 1.423-.953 2.88-2.307 3.241-6.573.934-9.453-2.306-2.88-6.57-3.242-9.45-.935-1.157.976-1.936 2.253-2.327 3.697 2.923-1.23 6.221-.548 8.161 1.899z" fill="#444344"/><path d="M119.809 177.67c-3.639-2.993-4.109-8.537-1.116-12.177l.901-1.132c2.993-3.64 8.536-4.11 12.175-1.117l17.54 14.776c3.639 2.994 4.109 8.538 1.116 12.178l-.901 1.132c-2.993 3.639-8.536 4.11-12.175 1.117l-17.54-14.777z" fill="#17A5BA"/><path opacity=".5" d="M120.118 172.46l.901-1.132c2.993-3.64 8.536-4.11 12.175-1.117l17.539 14.776a5.714 5.714 0 011.476 1.602c.659-3.032-.27-6.333-2.91-8.436l-17.54-14.776c-3.639-2.993-9.049-2.512-12.175 1.117l-.901 1.132c-2.536 3.007-2.642 7.429-.481 10.431.38-1.31 1.026-2.598 1.916-3.597z" fill="#444344"/><path d="M124.908 169.835c1.914-3.159 1.98-6.62.148-7.731-1.832-1.11-4.868.551-6.782 3.711-1.914 3.159-1.981 6.62-.149 7.73 1.832 1.11 4.869-.551 6.783-3.71z" fill="#252528"/><path opacity=".5" d="M124.39 167.989c-1.882 3.197-4.972 4.815-6.892 3.713-.255-.156-.499-.445-.754-.601.043 1.077.497 2.056 1.396 2.535 1.92 1.102 4.877-.527 6.891-3.713 1.57-2.686 1.952-5.608.743-7.187.142 1.489-.282 3.333-1.384 5.253z" fill="#4D1518"/><path d="M122.477 170.614a6.691 6.691 0 00.978-9.409 6.686 6.686 0 00-9.407-.977 6.688 6.688 0 008.429 10.386z" fill="#252528"/><path opacity=".5" d="M121.41 163.575c1.696 2.158 1.992 5.002.723 7.311l.289-.244c2.88-2.307 3.374-6.561.935-9.453-2.307-2.88-6.571-3.241-9.451-.934-.723.61-1.312 1.231-1.647 2.008 2.991-2.029 6.978-1.557 9.151 1.312z" fill="#444344"/><path d="M146.601 189.169l-7.409 1.099.235 1.588 7.409-1.099-.235-1.588zm-2.87-2.527l-7.409 1.1.236 1.588 7.408-1.1-.235-1.588zm-2.869-2.536l-7.408 1.099.235 1.588 7.409-1.099-.236-1.588zm-2.875-2.525l-7.409 1.097.235 1.588 7.409-1.097-.235-1.588z" fill="#fff"/><path d="M226.847 306.89c-7.188.868-14.495-.019-21.377-2.75-6.883-2.731-12.819-7.127-17.454-12.621l38.831 15.371z" fill="url(#paint18_linear)"/><path d="M221.45 307.238a44.617 44.617 0 01-15.979-3.098c-5.195-2.051-9.778-4.99-13.749-8.817l29.728 11.915z" fill="#17A5BA"/><path d="M257.07 216.279l-2.263-1.803 10.253-25.982 2.598 1.026-10.588 26.759z" fill="url(#paint19_linear)"/><path d="M257.271 215.49l-2.209-.858c-.521-.179-.743-.734-.564-1.256.178-.522.734-.744 1.255-.565l2.21.858c.521.179.743.734.564 1.256-.311.511-.867.732-1.256.565z" fill="url(#paint20_linear)"/><path d="M258.31 212.759l-2.21-.859c-.521-.178-.743-.734-.564-1.256.178-.522.734-.743 1.256-.565l2.209.859c.521.178.743.734.564 1.256-.311.51-.734.743-1.255.565z" fill="url(#paint21_linear)"/><path d="M259.343 210.027l-2.209-.858c-.521-.179-.743-.734-.564-1.256.178-.522.734-.744 1.255-.565l2.21.858c.521.179.743.734.564 1.256-.178.522-.734.744-1.256.565z" fill="url(#paint22_linear)"/><path d="M260.515 207.307l-2.209-.859c-.522-.178-.744-.734-.565-1.256.178-.522.734-.743 1.256-.565l2.209.859c.521.178.743.734.564 1.256-.311.51-.867.732-1.255.565z" fill="url(#paint23_linear)"/><path d="M261.553 204.576l-2.209-.859c-.522-.178-.744-.734-.565-1.256.178-.522.734-.743 1.256-.565l2.209.859c.522.178.743.734.565 1.256-.312.511-.734.743-1.256.565z" fill="url(#paint24_linear)"/><path d="M262.59 201.844l-2.209-.858c-.522-.179-.743-.735-.565-1.257.179-.521.735-.743 1.256-.564l2.209.858c.522.178.744.734.565 1.256-.178.522-.734.743-1.256.565z" fill="url(#paint25_linear)"/><path d="M263.759 199.123l-2.209-.858c-.522-.178-.743-.734-.565-1.256.179-.522.734-.743 1.256-.565l2.209.858c.522.179.744.735.565 1.257-.312.51-.867.732-1.256.564z" fill="url(#paint26_linear)"/><path d="M264.794 196.392l-2.209-.858c-.522-.178-.743-.734-.565-1.256.178-.522.734-.743 1.256-.565l2.209.858c.522.179.743.735.565 1.257-.312.51-.734.743-1.256.564z" fill="url(#paint27_linear)"/><path d="M265.832 193.661l-2.209-.858c-.522-.179-.744-.735-.565-1.256.178-.522.734-.744 1.256-.565l2.209.858c.522.178.743.734.565 1.256-.179.522-.734.743-1.256.565z" fill="url(#paint28_linear)"/><path d="M266.468 190.895a2.54 2.54 0 002.746-2.318 2.54 2.54 0 10-5.064-.429 2.541 2.541 0 002.318 2.747z" fill="url(#paint29_linear)"/><path opacity=".34" d="M58.19 133.917c.813.005 1.473-.23 1.475-.525.002-.296-.655-.54-1.468-.545-.812-.006-1.473.229-1.475.525-.002.296.656.54 1.468.545z" fill="#2999C5"/><path d="M167.794 187.988c1.01-2.165.806-5.212-.102-7.4-11.696-32.023-1.559-40.804-6.17-49.109-5.938-10.478-12.408-20.197-19.09-28.891-2.341-2.832-18.832-23.162-22.167-22.258-4.095 1.117-8.19 2.234-12.237 3.21 3.458-.862 19.874 19.286 22.167 22.259 3.241 4.234 20.176 26.909 20.497 34.07.075.182.028.323.055.646-.023 2.499-1.398 7.36-.929 16.922 1.055 23.238 9.255 26.649 5.548 34.323-9.119 19.157-23.702 40.219-45.355 46.031l12.237-3.211c20.133-5.387 37.147-26.721 45.546-46.592z" fill="url(#paint30_linear)"/><path d="M99.984 87.58c-.445-.31-.987-.336-1.452-.18l-12.237 3.21c.465-.156.835-.03 1.452.18 3.388 1.776 6.72 2.908 10.938 1.833l12.237-3.21c-4.095 1.116-7.427-.015-10.938-1.834z" fill="url(#paint31_linear)"/><path d="M88.311 91.134c7.866 4.395 15.753 1.431 21.19-7.692 1.038-1.842 2.634-2.083 4.123-.794 6.752 6.053 13.417 13.174 19.823 21.461 6.805 8.736 13.276 18.455 19.09 28.892 1.079 2.09 1.578 5.08 1.26 7.636-2.148 13.218-.416 28.38 4.655 40.602l.378.912c.984 2.371 1.065 5.376.102 7.4l-.362.66c-11.911 24.947-33.058 53.183-66.818 46.422-.788-.111-1.556-.685-2.229-1.541-.673-.855-1.25-1.991-1.609-3.367-16.242-57.542-11.073-106.405-3.872-137.34l.163-.884c.564-2.473 2.028-3.543 3.537-2.717l.57.35z" fill="#fff"/><path d="M113.081 86.696c-.872-1.08-2.05-.852-2.574.693-.525 1.546-.282 3.666.714 4.787.872 1.08 2.05.853 2.574-.693.478-1.405.234-3.525-.714-4.787zm42.095 96.096c-.872-1.079-2.05-.852-2.574.693-.525 1.546-.282 3.666.714 4.787.872 1.08 2.05.853 2.574-.693.478-1.405.234-3.525-.714-4.787zm-4.053-46.826c-.872-1.08-2.05-.853-2.575.693-.525 1.545-.281 3.665.714 4.787.872 1.079 2.05.853 2.575-.693.477-1.405.11-3.567-.714-4.787zM88.238 95.813c-.872-1.08-2.05-.853-2.575.692-.525 1.546-.281 3.666.714 4.788.872 1.079 2.05.852 2.575-.693.525-1.546.282-3.666-.714-4.787zm4.639 130.235c-.872-1.079-2.05-.853-2.575.693-.525 1.546-.281 3.666.714 4.787.872 1.08 2.05.853 2.575-.693.354-1.447.11-3.567-.714-4.787z" fill="#00D0CD"/><path d="M93.848 222.773c27.734 4.246 45.994-17.919 56.74-39.03-4.669-13.809-6.41-29.758-4.744-44.393-5.057-8.612-10.552-16.747-16.21-23.996-5.26-6.8-10.881-12.94-16.296-18.07-6.301 8.83-14.653 11.949-23.12 8.918-5.884 27.463-9.265 68.627 3.63 116.571z" fill="url(#paint32_linear)"/><path d="M205.823 248.749l-6.939-3.742-1.156 2.245 6.938 4.115 1.157-2.618z" fill="#986BD1"/><path d="M214.785 326.243l6.36-19.08-29.488-11.564-12.142 30.644h35.27z" fill="url(#paint33_linear)"/><ellipse cx="107.433" cy="158.511" rx="77.239" ry="86.991" transform="rotate(23.4 107.433 158.511)" fill="url(#paint34_radial)"/><ellipse cx="104.972" cy="157.893" rx="3.061" ry="5.349" transform="rotate(15.498 104.972 157.893)" fill="#fff"/><path d="M-292 .59l394.662 162.23s4.056 1.764 5.573-4.079c1.518-5.843-2.819-6.624-2.819-6.624L-290.622-1.867-292 .59z" fill="url(#paint35_linear)"/></g><defs><linearGradient id="paint0_linear" x1="7.126" y1="-6.968" x2="7.126" y2="19.412" gradientUnits="userSpaceOnUse"><stop stop-color="#06EDE1"/><stop offset="1" stop-color="#06EDE1" stop-opacity="0"/></linearGradient><linearGradient id="paint1_linear" x1="4.933" y1="-4.824" x2="4.933" y2="13.439" gradientUnits="userSpaceOnUse"><stop stop-color="#06EDE1"/><stop offset="1" stop-color="#06EDE1" stop-opacity="0"/></linearGradient><linearGradient id="paint2_linear" x1="3.289" y1="-3.216" x2="3.289" y2="8.959" gradientUnits="userSpaceOnUse"><stop stop-color="#06EDE1"/><stop offset="1" stop-color="#06EDE1" stop-opacity="0"/></linearGradient><linearGradient id="paint3_linear" x1="0" y1="140.211" x2="80.369" y2="140.211" gradientUnits="userSpaceOnUse"><stop stop-color="#33425A"/><stop offset="1" stop-color="#33425A" stop-opacity="0"/></linearGradient><linearGradient id="paint4_linear" x1="218.253" y1="182.793" x2="215.707" y2="181.783" gradientUnits="userSpaceOnUse"><stop stop-color="#fff"/><stop offset="1" stop-color="#B7B6B6"/></linearGradient><linearGradient id="paint5_linear" x1="214.315" y1="194.83" x2="210.32" y2="193.245" gradientUnits="userSpaceOnUse"><stop stop-color="#242424"/><stop offset="1" stop-color="#555"/></linearGradient><linearGradient id="paint6_linear" x1="215.397" y1="192.105" x2="211.401" y2="190.52" gradientUnits="userSpaceOnUse"><stop stop-color="#242424"/><stop offset="1" stop-color="#555"/></linearGradient><linearGradient id="paint7_linear" x1="216.478" y1="189.381" x2="212.482" y2="187.795" gradientUnits="userSpaceOnUse"><stop stop-color="#242424"/><stop offset="1" stop-color="#555"/></linearGradient><linearGradient id="paint8_linear" x1="217.559" y1="186.655" x2="213.563" y2="185.07" gradientUnits="userSpaceOnUse"><stop stop-color="#242424"/><stop offset="1" stop-color="#555"/></linearGradient><linearGradient id="paint9_linear" x1="218.642" y1="183.93" x2="214.647" y2="182.345" gradientUnits="userSpaceOnUse"><stop stop-color="#242424"/><stop offset="1" stop-color="#555"/></linearGradient><linearGradient id="paint10_linear" x1="219.721" y1="181.205" x2="215.726" y2="179.62" gradientUnits="userSpaceOnUse"><stop stop-color="#242424"/><stop offset="1" stop-color="#555"/></linearGradient><linearGradient id="paint11_linear" x1="220.804" y1="178.48" x2="216.808" y2="176.895" gradientUnits="userSpaceOnUse"><stop stop-color="#242424"/><stop offset="1" stop-color="#555"/></linearGradient><linearGradient id="paint12_linear" x1="221.884" y1="175.756" x2="217.888" y2="174.17" gradientUnits="userSpaceOnUse"><stop stop-color="#242424"/><stop offset="1" stop-color="#555"/></linearGradient><linearGradient id="paint13_linear" x1="222.966" y1="173.031" x2="218.971" y2="171.445" gradientUnits="userSpaceOnUse"><stop stop-color="#242424"/><stop offset="1" stop-color="#555"/></linearGradient><linearGradient id="paint14_linear" x1="224.918" y1="169.122" x2="220.228" y2="167.261" gradientUnits="userSpaceOnUse"><stop stop-color="#242424"/><stop offset="1" stop-color="#555"/></linearGradient><linearGradient id="paint16_linear" x1="232.819" y1="239.136" x2="188.397" y2="221.511" gradientUnits="userSpaceOnUse"><stop stop-color="#B7B6B6"/><stop offset="1" stop-color="#fff"/></linearGradient><linearGradient id="paint17_linear" x1="231.463" y1="238.598" x2="189.751" y2="222.049" gradientUnits="userSpaceOnUse"><stop stop-color="#575757"/><stop offset="1" stop-color="#BBB"/></linearGradient><linearGradient id="paint18_linear" x1="225.946" y1="309.375" x2="187.039" y2="293.938" gradientUnits="userSpaceOnUse"><stop stop-color="#B7B6B6"/><stop offset="1" stop-color="#fff"/></linearGradient><linearGradient id="paint19_linear" x1="262.454" y1="202.886" x2="259.908" y2="201.876" gradientUnits="userSpaceOnUse"><stop stop-color="#fff"/><stop offset="1" stop-color="#B7B6B6"/></linearGradient><linearGradient id="paint20_linear" x1="258.518" y1="214.922" x2="254.522" y2="213.337" gradientUnits="userSpaceOnUse"><stop stop-color="#555"/><stop offset="1" stop-color="#242424"/></linearGradient><linearGradient id="paint21_linear" x1="259.6" y1="212.197" x2="255.605" y2="210.612" gradientUnits="userSpaceOnUse"><stop stop-color="#555"/><stop offset="1" stop-color="#242424"/></linearGradient><linearGradient id="paint22_linear" x1="260.679" y1="209.473" x2="256.683" y2="207.887" gradientUnits="userSpaceOnUse"><stop stop-color="#555"/><stop offset="1" stop-color="#242424"/></linearGradient><linearGradient id="paint23_linear" x1="261.761" y1="206.747" x2="257.766" y2="205.162" gradientUnits="userSpaceOnUse"><stop stop-color="#555"/><stop offset="1" stop-color="#242424"/></linearGradient><linearGradient id="paint24_linear" x1="262.844" y1="204.023" x2="258.848" y2="202.438" gradientUnits="userSpaceOnUse"><stop stop-color="#555"/><stop offset="1" stop-color="#242424"/></linearGradient><linearGradient id="paint25_linear" x1="263.926" y1="201.297" x2="259.93" y2="199.712" gradientUnits="userSpaceOnUse"><stop stop-color="#555"/><stop offset="1" stop-color="#242424"/></linearGradient><linearGradient id="paint26_linear" x1="265.006" y1="198.572" x2="261.011" y2="196.987" gradientUnits="userSpaceOnUse"><stop stop-color="#555"/><stop offset="1" stop-color="#242424"/></linearGradient><linearGradient id="paint27_linear" x1="266.085" y1="195.848" x2="262.09" y2="194.263" gradientUnits="userSpaceOnUse"><stop stop-color="#555"/><stop offset="1" stop-color="#242424"/></linearGradient><linearGradient id="paint28_linear" x1="267.168" y1="193.123" x2="263.172" y2="191.538" gradientUnits="userSpaceOnUse"><stop stop-color="#555"/><stop offset="1" stop-color="#242424"/></linearGradient><linearGradient id="paint29_linear" x1="269.119" y1="189.214" x2="264.429" y2="187.354" gradientUnits="userSpaceOnUse"><stop stop-color="#555"/><stop offset="1" stop-color="#242424"/></linearGradient><linearGradient id="paint30_linear" x1="85.4" y1="117.364" x2="148.618" y2="182.65" gradientUnits="userSpaceOnUse"><stop stop-color="#00D0CD"/><stop offset="1" stop-color="#515AA5"/></linearGradient><linearGradient id="paint31_linear" x1="79.381" y1="83.479" x2="122.114" y2="97.989" gradientUnits="userSpaceOnUse"><stop stop-color="#03D9FE"/><stop offset="1" stop-color="#5A54CE"/></linearGradient><linearGradient id="paint32_linear" x1="75.165" y1="150.339" x2="152.977" y2="176.76" gradientUnits="userSpaceOnUse"><stop stop-color="#F7DA5C"/><stop offset="1" stop-color="#F15DAB"/></linearGradient><linearGradient id="paint33_linear" x1="201.776" y1="302.248" x2="198.666" y2="356.938" gradientUnits="userSpaceOnUse"><stop stop-color="#00D0CD"/><stop offset=".359" stop-color="#fff" stop-opacity="0"/></linearGradient><linearGradient id="paint35_linear" x1="-289.473" y1="-5.547" x2="104.318" y2="158.847" gradientUnits="userSpaceOnUse"><stop stop-color="#fff" stop-opacity="0"/><stop offset="1" stop-color="#fff"/></linearGradient><radialGradient id="paint15_radial" cx="0" cy="0" r="1" gradientUnits="userSpaceOnUse" gradientTransform="rotate(21.654 -498.192 664.514) scale(24.8005 36.4123)"><stop stop-color="#333"/><stop offset="1" stop-color="#333"/></radialGradient><radialGradient id="paint34_radial" cx="0" cy="0" r="1" gradientUnits="userSpaceOnUse" gradientTransform="rotate(172.645 48.623 82.708) scale(70.0109 78.8703)"><stop stop-color="#fff"/><stop offset="1" stop-color="#fff" stop-opacity="0"/></radialGradient><clipPath id="clip0"><path fill="#fff" d="M0 0h359v331H0z"/></clipPath></defs></svg>