<svg width="1096" height="571" fill="none" xmlns="http://www.w3.org/2000/svg"><g clip-path="url(#clip0)"><path fill="url(#paint0_radial)" d="M0 0h1096v571H0z"/><path opacity=".3" d="M702.222 238.159l-100.679-35.48m-199.818 2.378l100.679 35.48m151.014 53.214l45.468 16.023" stroke="#06EDE1"/><path transform="scale(-1 1) rotate(70.587 -403.778 -186.87)" fill="url(#paint1_linear)" d="M0 0h22.887v22.383H0z"/><path transform="scale(-1 1) rotate(70.587 -416.425 -313.419)" fill="url(#paint2_linear)" d="M0 0h22.887v22.383H0z"/><path transform="scale(-1 1) rotate(70.587 -568.676 -327.86)" fill="url(#paint3_linear)" d="M0 0h15.845v15.496H0z"/><path transform="scale(-1 1) rotate(70.587 -346.75 -208.105)" fill="url(#paint4_linear)" d="M0 0h10.563v10.331H0z"/><path transform="scale(-1 1) rotate(70.587 -552.87 -316.67)" fill="url(#paint5_linear)" d="M0 0h10.563v10.331H0z"/><path opacity=".3" d="M568.681 83.48L468.002 48m-22.585 46.75l45.468 16.024" stroke="#06EDE1"/><path transform="scale(-1 1) rotate(70.587 -159.216 -139.45)" fill="url(#paint6_linear)" d="M0 0h22.887v22.383H0z"/><path transform="scale(-1 1) rotate(70.587 -324.114 -280.44)" fill="url(#paint7_linear)" d="M0 0h15.845v15.496H0z"/><path transform="scale(-1 1) rotate(70.587 -308.308 -269.25)" fill="url(#paint8_linear)" d="M0 0h10.563v10.331H0z"/><path opacity=".3" d="M310.222 163.159L209.543 127.68M9.725 130.058l100.679 35.479" stroke="#06EDE1"/><path transform="scale(-1 1) rotate(70.587 -167.45 -74.033)" fill="url(#paint9_linear)" d="M0 0h22.887v22.383H0z"/><path transform="scale(-1 1) rotate(70.587 -97.775 31.28)" fill="url(#paint10_linear)" d="M0 0h10.563v10.331H0z"/><circle cx="696.279" cy="288.279" r="364.5" transform="rotate(23.4 696.279 288.279)" fill="url(#paint11_radial)"/><path transform="matrix(-1 0 0 1 1096 11)" fill="url(#paint12_linear)" d="M0 0h139v560H0z"/><path d="M836.19 381.948c8.621-14.049 7.842-30.207-1.739-36.088-9.582-5.882-24.338.739-32.959 14.788-8.62 14.049-7.841 30.206 1.74 36.088 9.582 5.882 24.338-.739 32.958-14.788z" fill="#191818"/><path opacity=".5" d="M813.466 369.338c5.719-12.136 7.452-23.344 3.869-25.033-3.582-1.688-11.122 6.781-16.841 18.917-5.72 12.137-7.452 23.344-3.87 25.033s11.123-6.781 16.842-18.917z" fill="#19A1A2"/><path d="M812.302 368.853c5.721-12.136 7.455-23.344 3.872-25.033-3.582-1.689-11.123 6.78-16.844 18.916-5.72 12.137-7.454 23.344-3.872 25.033 3.583 1.69 11.124-6.779 16.844-18.916z" fill="#17A5BA"/><path d="M808.024 365.078c4.468-9.478 5.841-18.222 3.068-19.529-2.774-1.308-8.643 5.315-13.111 14.793-4.467 9.478-5.841 18.221-3.067 19.529 2.773 1.308 8.643-5.316 13.11-14.793z" fill="#191818"/><path d="M1073.1 519.667c-1.53-1.058-3.9-.562-4.95.974-1.06 1.536-.57 3.899.97 4.958l5.72 3.735c1.53 1.059 3.9.563 4.96-.973 1.05-1.536.56-3.9-.98-4.958l-5.72-3.736z" fill="#1C1C1D"/><path d="M1081.53 527.115c-.31-1.884-2.03-3.423-3.92-3.118-1.88.305-3.42 2.032-3.12 3.915l.82 6.803c.31 1.883 2.03 3.423 3.92 3.118 1.88-.305 3.42-2.032 3.11-3.916l-.81-6.802z" fill="#252528"/><path d="M1083.04 525.618c-.3-1.883-2.03-3.423-3.91-3.118-1.88.305-3.42 2.032-3.12 3.916l.82 6.802c.3 1.884 2.03 3.423 3.91 3.118 1.89-.305 3.43-2.032 3.12-3.915l-.82-6.803z" fill="#17A5BA"/><path d="M1082.47 526.962c-.16-.942-1.02-1.711-1.96-1.559-.94.153-1.71 1.016-1.56 1.958l.42 3.286c.15.942 1.02 1.711 1.96 1.559.94-.153 1.71-1.016 1.56-1.958l-.42-3.286z" fill="#252528"/><path opacity=".5" d="M1079.37 530.647l-.42-3.286c-.15-.942.62-1.805 1.56-1.958.46.039.92.078 1.34.579l-.23-.02c-.94.152-1.71 1.016-1.56 1.958l.42 3.286c-.04.461.17.711.61.981-.92-.078-1.57-.598-1.72-1.54z" fill="#4D1518"/><path opacity=".5" d="M1079 535.027c1.88-.305 3.42-2.032 3.12-3.915l-.82-6.803c.04-.461-.15-.942-.58-1.442 1.12.559 1.96 1.559 2.07 2.962l.82 6.803c.31 1.883-1.23 3.61-3.12 3.915-1.4.114-2.74-.464-3.34-1.676l1.85.156z" fill="#4D1518"/><path d="M1039.47 505.674c.32 1.653 2.11 2.501 3.53 2.157 1.65-.325 2.5-2.111 2.16-3.533l-12.27-47.013c-.33-1.653-2.11-2.501-3.54-2.157-1.65.325-2.5 2.11-2.15 3.533l12.27 47.013zm-54.462-52.222c11.212.824 21.282-11.835 22.492-28.273 1.2-16.439-6.91-30.433-18.117-31.257-11.212-.824-21.28 11.835-22.488 28.273-1.208 16.439 6.902 30.433 18.113 31.257z" fill="#191818"/><path opacity=".5" d="M1006.61 427.814c2.44-13.191 1.27-24.471-2.63-25.193-3.89-.722-9.029 9.387-11.474 22.579-2.445 13.192-1.271 24.471 2.623 25.193 3.894.722 9.031-9.387 11.481-22.579z" fill="#19A1A2"/><path d="M1008.07 428.003c2.44-13.192 1.27-24.471-2.63-25.192-3.89-.722-9.029 9.387-11.473 22.579-2.444 13.192-1.269 24.471 2.625 25.193 3.898.722 9.028-9.388 11.478-22.58z" fill="#17A5BA"/><path d="M1010.51 426.956c1.91-10.302 1.01-19.106-2.01-19.665-3.01-.559-7 7.34-8.91 17.642-1.909 10.303-1.012 19.107 2 19.666 3.02.559 7.01-7.34 8.92-17.643z" fill="#191818"/><path d="M1020.56 434.85c6.9-3.323 9.81-11.617 6.49-18.526-3.32-6.91-11.62-9.817-18.52-6.494-6.91 3.323-9.818 11.618-6.5 18.527 3.33 6.909 11.62 9.816 18.53 6.493z" fill="#252528"/><path opacity=".5" d="M1013.51 433.818c6.79-3.373 9.79-11.477 6.44-18.494-1.59-3.154-4.18-5.463-7.31-6.889 5.63-.684 11.66 2.148 14.21 7.705 3.37 6.787.34 15.121-6.44 18.494-3.64 1.782-7.81 1.661-11.19.446 1.66-.324 3.08-.668 4.29-1.262z" fill="#444344"/><path d="M1037.54 457.214c1.89 2.251 5.35 2.543 7.62.414l1-.844a5.26 5.26 0 00.42-7.628l-24.15-27.354a5.253 5.253 0 00-7.63-.413l-1 .844a5.25 5.25 0 00-.41 7.627l24.15 27.354z" fill="#252528"/><path opacity=".5" d="M1034.91 452.58a5.25 5.25 0 00.41-7.627l-20.75-23.584.25-.211c2.25-1.899 5.47-1.626 7.62.414l24.15 27.354c1.9 2.25 1.63 5.478-.41 7.627l-1 .844c-2.25 1.899-5.48 1.626-7.63-.413l-3.37-4.001.73-.403z" fill="#444344"/><path d="M1049.53 465.235c5.75-2.769 8.18-9.681 5.41-15.439-2.77-5.757-9.68-8.18-15.44-5.411-5.75 2.769-8.18 9.681-5.41 15.439 2.77 5.758 9.68 8.18 15.44 5.411z" fill="#252528"/><path opacity=".5" d="M1044.92 452.267c-1.57-3.384-4.65-5.502-8.06-6.256.75-.633 1.5-1.266 2.46-1.649 5.8-2.759 12.56-.329 15.32 5.477s.33 12.567-5.48 15.326c-2.42 1.188-4.99 1.434-7.49.758 4.23-3.357 5.62-8.811 3.25-13.656z" fill="#444344"/><path d="M1043.73 507.428c2.12 7.842 10.3 12.714 18.14 10.592l2.38-.727c7.84-2.123 12.71-10.302 10.59-18.144l-9.99-38.229c-2.13-7.842-10.3-12.714-18.14-10.592l-2.39.727c-7.84 2.122-12.71 10.301-10.59 18.143l10 38.23z" fill="#17A5BA"/><path opacity=".5" d="M1052.04 510.687l2.38-.727c7.84-2.123 12.71-10.302 10.59-18.144l-9.99-38.229c-.37-1.192-.73-2.384-1.55-3.615 5.24 1.141 9.77 5.24 11.16 10.698l10 38.23c2.12 7.842-2.75 16.021-10.59 18.143l-2.39.727c-6.64 1.759-13.57-1.382-16.81-6.997 2.49.676 4.82.64 7.2-.086z" fill="#444344"/><path d="M1061.25 518.518c6.36-.664 11.19-4.19 10.81-7.876-.39-3.685-5.85-6.135-12.2-5.471-6.35.665-11.19 4.191-10.81 7.877.39 3.685 5.85 6.135 12.2 5.47z" fill="#252528"/><path opacity=".5" d="M1062.31 507.376c-6.32.625-11.27 4.154-10.89 7.901-.04.461.16.942.58 1.442-1.77-1.078-2.82-2.328-2.92-3.962-.38-3.747 4.34-7.295 10.89-7.901 5.38-.474 10.12 1.089 11.73 4.012-2.46-1.137-5.9-1.661-9.39-1.492z" fill="#4D1518"/><path d="M1066.58 529.363c5.76-2.77 8.18-9.682 5.41-15.439-2.76-5.758-9.68-8.181-15.43-5.412-5.76 2.77-8.18 9.682-5.41 15.439 2.77 5.758 9.68 8.181 15.43 5.412z" fill="#252528"/><path opacity=".5" d="M1066.98 515.202c-2.19-4.365-6.39-6.81-11.06-6.509.23.019.25-.211.48-.192 5.81-2.759 12.57-.329 15.32 5.477 2.76 5.807.33 12.567-5.47 15.326-1.44.574-2.89 1.149-4.5 1.012 5.81-2.759 8.01-9.538 5.23-15.114z" fill="#444344"/><path d="M1066.43 524.443c-1.27-1.5-3.57-1.696-5.07-.43-1.5 1.267-1.7 3.572-.43 5.072l4.43 5.252c1.26 1.5 3.57 1.695 5.07.429 1.5-1.266 1.69-3.572.43-5.072l-4.43-5.251z" fill="#1C1C1D"/><path d="M1072.35 534c.39-1.824-.84-3.786-2.89-4.192-1.83-.387-3.79.84-4.19 2.896l-1.26 6.627c-.39 1.825.84 3.786 2.89 4.192 1.83.387 3.79-.84 4.19-2.895l1.26-6.628z" fill="#252528"/><path d="M1074.27 533.235c.39-1.825-.84-3.787-2.89-4.193-1.82-.387-3.79.84-4.19 2.896l-1.26 6.627c-.39 1.825.84 3.786 2.9 4.192 1.82.387 3.78-.84 4.19-2.895l1.25-6.627z" fill="#17A5BA"/><path d="M1073.02 534.289c.08-.922-.54-1.903-1.46-1.981-.92-.078-1.9.536-1.98 1.458l-.5 3.208c-.08.922.53 1.903 1.46 1.981.92.078 1.9-.536 1.98-1.458l.5-3.208z" fill="#252528"/><path opacity=".5" d="M1069.1 536.743l.5-3.208c.08-.922 1.06-1.536 1.98-1.458.47.039.91.309 1.1.79l-.23-.02c-.92-.078-1.9.535-1.98 1.458l-.51 3.208c-.04.461-.06.691.14 1.172-.68-.289-1.08-1.02-1-1.942z" fill="#4D1518"/><path opacity=".5" d="M1067.6 540.796c1.82.386 3.78-.841 4.19-2.896l1.25-6.627c.04-.461.1-1.153-.09-1.634a4.05 4.05 0 011.34 3.365l-1.26 6.627c-.38 1.824-2.13 3.302-4.19 2.895-1.36-.347-2.44-1.367-2.8-2.559.42.5 1.09.789 1.56.829z" fill="#4D1518"/><path d="M1051.12 521.522c1.08-1.767 3.22-2.283 4.98-1.204 1.77 1.078 2.28 3.211 1.2 4.978l-3.52 5.971c-1.08 1.766-3.21 2.282-4.98 1.203-1.76-1.078-2.28-3.211-1.2-4.978l3.52-5.97z" fill="#1C1C1D"/><path d="M1046.75 532.064c-.54-1.903.33-3.919 2.23-4.455 1.9-.535 3.92.332 4.45 2.235l2.24 6.459c.54 1.903-.33 3.919-2.23 4.455-1.9.535-3.92-.332-4.46-2.235l-2.23-6.459z" fill="#252528"/><path d="M1044.71 531.427c-.53-1.903.33-3.919 2.24-4.454 1.9-.536 3.91.331 4.45 2.234l2.24 6.459c.53 1.903-.33 3.919-2.24 4.455-1.9.535-3.91-.332-4.45-2.235l-2.24-6.459z" fill="#17A5BA"/><path d="M1047.92 531.931c-.38-.961.16-1.844 1.12-2.227.96-.383 1.84.156 2.23 1.117l1.13 3.114c.38.962-.16 1.845-1.12 2.228-.96.383-1.84-.156-2.23-1.118l-1.13-3.114z" fill="#252528"/><path opacity=".5" d="M1052.18 533.685l-1.13-3.114c-.38-.961-1.28-1.27-2.22-1.117-.48.191-.98.613-1.02 1.074l.25-.211c.96-.383 1.84.156 2.22 1.118l1.13 3.114c.19.48.17.711-.1 1.153.95-.153 1.26-1.056.87-2.017z" fill="#4D1518"/><path opacity=".5" d="M1052.5 538.124c-1.9.535-3.92-.332-4.45-2.235l-2.24-6.459c-.19-.48-.15-.941-.1-1.633-.76.864-1.11 2.227-.77 3.65l2.24 6.459c.54 1.902 2.78 2.789 4.45 2.234 1.45-.574 2.23-1.668 2.35-3.052-.5.422-1 .844-1.48 1.036z" fill="#444344"/><path d="M1043.14 455.47l-7.18 10.782 2.31 1.54 7.18-10.783-2.31-1.539zm1.98 6.314l-7.19 10.78 2.31 1.54 7.19-10.78-2.31-1.54zm1.8 6.445l-7.19 10.782 2.31 1.54 7.19-10.782-2.31-1.54zm1.8 6.501l-7.18 10.783 2.31 1.539 7.18-10.782-2.31-1.54z" fill="#fff"/><path d="M882.511 292.23l-17.734 44.937-5.071-.429 18.312-46.281 4.493 1.773z" fill="url(#paint13_linear)"/><path d="M860.494 335.644l3.821 1.484c.902.309 1.863-.074 2.172-.977.308-.902-.075-1.863-.977-2.172l-3.84-1.254c-.903-.309-1.864.074-2.172.977-.289.672.094 1.633.996 1.942z" fill="url(#paint14_linear)"/><path d="M862.288 330.919l3.82 1.485c.903.308 1.864-.075 2.172-.977.309-.903-.074-1.864-.976-2.173l-3.821-1.484c-.903-.309-1.864.074-2.172.977-.078.922.305 1.883.977 2.172z" fill="url(#paint15_linear)"/><path d="M864.311 326.215l3.82 1.485c.903.308 1.864-.075 2.172-.977.309-.903-.074-1.864-.976-2.173l-3.821-1.484c-.902-.309-1.863.074-2.172.977-.309.902.074 1.864.977 2.172z" fill="url(#paint16_linear)"/><path d="M866.103 321.49l3.82 1.485c.903.309 1.864-.074 2.172-.977.309-.903-.074-1.864-.976-2.173l-3.821-1.484c-.902-.309-1.864.074-2.172.977-.309.903.074 1.864.977 2.172z" fill="url(#paint17_linear)"/><path d="M867.9 316.766l3.82 1.485c.903.309 1.864-.074 2.172-.977.309-.903-.074-1.864-.976-2.172l-3.821-1.485c-.902-.309-1.863.074-2.172.977-.078.922.305 1.883.977 2.172z" fill="url(#paint18_linear)"/><path d="M869.92 312.061l3.82 1.485c.903.308 1.864-.075 2.172-.977.309-.903-.074-1.864-.976-2.173l-3.821-1.484c-.902-.309-1.863.074-2.172.977-.309.902.074 1.864.977 2.172z" fill="url(#paint19_linear)"/><path d="M871.715 307.337l3.821 1.485c.902.308 1.863-.075 2.172-.977.308-.903-.075-1.864-.977-2.173l-3.821-1.484c-.902-.309-1.863.074-2.172.977-.309.902.074 1.864.977 2.172z" fill="url(#paint20_linear)"/><path d="M873.506 302.614l3.82 1.484c.903.309 1.864-.074 2.172-.977.309-.903-.074-1.864-.977-2.172l-3.82-1.485c-.903-.308-1.864.075-2.172.977-.078.922.305 1.884.977 2.173z" fill="url(#paint21_linear)"/><path d="M875.532 297.909l3.821 1.484c.902.309 1.863-.074 2.172-.977.308-.902-.075-1.864-.977-2.172l-3.821-1.485c-.902-.308-1.863.075-2.172.977-.308.903.074 1.864.977 2.173z" fill="url(#paint22_linear)"/><path d="M880.453 294.61a4.395 4.395 0 004.75-4.009 4.394 4.394 0 10-8.758-.742 4.395 4.395 0 004.008 4.751z" fill="url(#paint23_linear)"/><path d="M807.855 389.699c-22.417 56.383-2.964 117.24 43.537 135.574 46.501 18.333 102.27-12.47 124.688-68.852 22.417-56.382 2.964-117.239-43.537-135.573-46.482-18.565-102.27 12.469-124.688 68.851z" fill="#fff"/><path fill-rule="evenodd" clip-rule="evenodd" d="M827.274 508.914c46.44 18.082 102.016-12.71 124.385-68.97 17.901-45.021 9.104-92.895-18.842-119.694l.305.121c46.501 18.334 65.955 79.191 43.537 135.573-22.417 56.382-78.186 87.185-124.687 68.851-9.372-3.694-17.645-9.116-24.698-15.881z" fill="#BDBDBD"/><path d="M861.947 466.493c-3.575 1.09-6.821 1.047-9.97-.148 0 0-37.027-20.55-38.868-23.493l-1.84-2.942c-4.043-7.076-4.087-17.528-.251-27.188l4.414-11.003c.617-1.806.422.5 1.5-1.267l31.348-54.929c4.352-7.526 10.602-12.802 17.021-14.58 3.324-.88 6.32-.626 9.258.32l10.56 4.144 10.56 4.145c2.918 1.176 5.297 3.235 6.926 5.927 3.47 5.635 4.4 13.84 2.294 22.253l-14.951 61.426c-.387 1.825-1.024 3.861-1.871 5.647l-4.414 11.004c-3.856 9.89-11.223 17.393-18.853 19.765l-2.863.919z" fill="url(#paint24_radial)"/><path d="M809.923 411.933c-4.125 10.332-4.14 21.476.325 29.052l1.84 2.942c2.032 3.423 4.622 5.732 7.771 6.927l31.519 17.065c3.149 1.196 6.856 1.278 10.431.187l3.344-1.11c8.34-2.544 15.977-10.489 20.102-20.82l4.414-11.004c.867-2.016 1.484-3.822 1.891-5.877l14.951-61.426c2.164-9.105 1.254-17.541-2.407-23.656-1.84-2.942-4.43-5.251-7.349-6.427l-21.33-8.54c-2.918-1.176-6.395-1.238-9.72-.359-6.879 1.74-13.399 7.457-18.02 15.424l-31.348 54.93c-1.578 2.188-6.414 12.692-6.414 12.692zm8.102-10.692l31.348-54.929c4.082-7.085 9.832-11.938 15.77-13.525 3.094-.899 6.09-.645 8.567.261l21.33 8.54c2.688 1.156 4.856 2.965 6.486 5.657 3.258 5.385 4.016 12.879 2.18 20.85l-14.951 61.427c-.387 1.825-.985 3.399-1.602 5.205l-4.414 11.003c-3.566 9.218-10.434 16.299-17.583 18.48l-3.344 1.11c-3.324.88-6.34.856-9.258-.32l-31.5-17.295c-2.688-1.157-5.067-3.216-6.907-6.158l-1.84-2.942c-3.852-6.596-3.954-16.356-.157-25.555.23.02 4.816-10.273 5.875-11.809z" fill="url(#paint25_linear)"/><path d="M812.554 438.394l1.84 2.942c1.61 2.923 3.989 4.982 6.907 6.158l31.519 17.065c2.688 1.156 5.934 1.199 9.259.32l3.344-1.11c7.149-2.181 14.016-9.262 17.583-18.48l4.414-11.004c.617-1.805 1.214-3.38 1.601-5.205l14.952-61.426c1.836-7.971 1.077-15.466-2.181-20.85-1.629-2.692-4.028-4.521-6.485-5.658l-21.33-8.539c-2.688-1.157-5.704-1.18-8.568-.262-5.938 1.587-11.688 6.441-15.77 13.525l-31.348 54.93c-.828 1.555-5.644 11.828-5.644 11.828-4.047 9.41-3.945 19.17-.093 25.766zm1.539-1.727c-3.45-5.865-3.63-14.704-.122-23.23 0 0 4.547-9.832 5.375-11.387l31.348-54.929c3.562-6.432 8.813-10.864 14.29-12.49 2.844-.688 5.399-.703 7.856.433l21.33 8.54c2.477.907 4.415 2.696 5.833 5.138 3.067 4.904 3.653 11.687 1.876 18.967l-14.952 61.426c-.367 1.594-.965 3.169-1.562 4.744l-4.414 11.004c-3.258 8.315-9.375 14.763-16.044 16.752l-3.344 1.11c-2.863.919-5.879.895-8.337-.242l-31.269-17.276c-2.476-.906-4.625-2.946-6.254-5.638l-1.61-2.922z" fill="url(#paint26_linear)"/><path opacity=".1" d="M847.757 346.175l25.566 114.78c-2.501 2.11-5.423 3.72-8.286 4.639l-3.344 1.11c-3.575 1.09-6.821 1.047-9.97-.148l-9.075-7.967-17.013-75.975 22.122-36.439zm17.308-15.252c1.902-.535 3.535-.629 5.379-.473l21.08 93.734-1.371 5.224c-.387 1.825-1.023 3.861-1.871 5.647l-4.414 11.003c-.308.903-.848 1.786-1.176 2.919L857.279 335.14c2.5-2.11 5.172-3.51 7.786-4.217z" fill="#fff"/><path opacity=".5" d="M846.776 390.673c-4.164 10.793-1.604 21.691 5.826 24.41 7.43 2.719 16.794-3.686 20.958-14.479 4.164-10.793 1.605-21.69-5.826-24.409-7.411-2.95-16.794 3.686-20.958 14.478z" fill="#363C54"/><path d="M847.283 387.466c-4.164 10.793-1.605 21.69 5.826 24.409 7.43 2.719 16.794-3.686 20.958-14.479 4.164-10.792 1.605-21.69-5.826-24.409-7.43-2.719-16.794 3.686-20.958 14.479z" fill="#646989"/><path d="M871.961 375.624l-26.83 23.502c-.094-1.633.043-3.247.199-5.092l23.579-20.758c1.344.578 2.208 1.348 3.052 2.348zm3.473 16.548l-22.579 19.914c-2.246-.887-4.184-2.676-5.391-4.868l27.849-24.577c.687 2.845.645 6.092.121 9.531z" fill="#7F86A8"/><path d="M850.657 388.681c-3.007 8.104-1.136 16.157 4.259 18.239 5.395 2.083 12.548-2.884 15.536-10.758 3.008-8.104 1.136-16.157-4.259-18.24-5.625-2.101-12.547 2.885-15.536 10.759z" fill="#D0D3DD"/><path d="M853.137 389.587c-2.371 6.068-.785 12.008 3.266 13.512 4.052 1.504 9.224-2.006 11.595-8.074 2.371-6.069.784-12.008-3.247-13.742-4.071-1.274-9.263 2.466-11.614 8.304z" fill="#1C2033"/><path d="M854.922 390.435c-1.792 4.724-.55 9.241 2.599 10.436 3.149 1.196 7.11-1.72 8.883-6.213 1.793-4.724.57-9.472-2.598-10.437-3.129-1.426-7.091 1.49-8.884 6.214z" fill="#17A5BA"/><path d="M865.15 394.261c1.461-3.682.624-7.469-1.87-8.458-2.493-.99-5.699 1.192-7.16 4.874-1.461 3.682-.623 7.469 1.87 8.459 2.494.99 5.7-1.193 7.16-4.875z" fill="#1C2033"/><path d="M859.43 391.978c-.309.902-.176 2.075.496 2.364.672.289 1.653-.325 1.981-1.458.308-.903.176-2.075-.496-2.364-.922-.078-1.672.555-1.981 1.458z" fill="#fff"/><path d="M869.863 392.164l-15.724-6.207s1.586-7.761 10.802-4.194c-.231-.019 7.622 3.2 4.922 10.401zm-18.614.514l15.724 6.207s-.699 5.514-9.895 1.716c.23.02-7.642-2.969-5.829-7.923z" fill="#D0D3DD"/><path d="M864.434 401.457l-8.055 4.658-3.665-3.328-.625-6.323 5.817 2.583 6.528 2.41zm-9.025-16.785l8.727-4.37 4.337 3.618.856 6.342-6.72-2.891-7.2-2.699z" fill="#D0D3DD"/><path opacity=".5" d="M866.197 377.922c3.149 1.196 5.181 4.619 5.771 8.616-1.016-1.712-2.512-3.231-4.317-3.849-5.395-2.082-12.548 2.885-15.536 10.759-1.215 3.38-1.719 6.588-1.281 9.643-2.012-3.653-2.255-9.014-.173-14.41 2.988-7.874 9.911-12.86 15.536-10.759z" fill="#646989"/><path d="M796.201 372.169c7.325-2.258 11.433-10.028 9.176-17.355-2.257-7.327-10.026-11.436-17.351-9.178-7.325 2.259-11.433 10.029-9.176 17.355 2.257 7.327 10.025 11.436 17.351 9.178z" fill="#252528"/><path opacity=".5" d="M800.761 366.576c-7.38 2.162-14.943-1.73-17.334-9.13-1.11-3.345-.817-6.803.609-9.933-4.692 3.318-7.063 9.386-5.246 15.345 2.161 7.381 9.954 11.292 17.334 9.13 3.824-1.301 6.825-3.833 8.52-7.405-1.25 1.055-2.461 1.649-3.883 1.993z" fill="#444344"/><path d="M753.62 336.578c-2.399-1.828-2.817-5.114-1.219-7.533l.789-1.094c1.828-2.4 5.114-2.818 7.532-1.22l29.285 21.52c2.398 1.828 2.817 5.114 1.219 7.533l-.789 1.094c-1.828 2.4-5.114 2.818-7.532 1.22l-29.285-21.52z" fill="#252528"/><path opacity=".5" d="M758.309 338.833c1.828-2.399 5.114-2.818 7.532-1.22l25.12 18.613.25-.211c1.828-2.399 1.18-5.705-1.219-7.533l-29.285-21.52c-2.399-1.829-5.704-1.18-7.532 1.22l-.789 1.094c-1.828 2.399-1.179 5.705 1.219 7.533l4.145 3.138.559-1.114z" fill="#444344"/><path d="M758.593 337.217c4.96-4.026 5.717-11.312 1.691-16.273-4.025-4.96-11.309-5.718-16.269-1.691-4.96 4.027-5.717 11.312-1.691 16.273 4.025 4.961 11.309 5.718 16.269 1.691z" fill="#252528"/><path opacity=".5" d="M753.811 328.932c2.301 2.981 3.161 6.537 2.176 9.936.961-.383 1.711-1.016 2.461-1.649 4.981-3.99 5.606-11.367 1.617-16.349-3.989-4.981-11.364-5.606-16.345-1.616-2 1.688-3.348 3.896-4.024 6.393 5.055-2.126 10.759-.946 14.115 3.285z" fill="#444344"/><path d="M703.238 306.538c-6.294-5.176-7.107-14.765-1.931-21.061l1.558-1.957c5.176-6.296 14.763-7.109 21.057-1.932l30.336 25.556c6.293 5.177 7.106 14.766 1.931 21.061l-1.559 1.958c-5.176 6.295-14.763 7.108-21.057 1.932l-30.335-25.557z" fill="#17A5BA"/><path opacity=".5" d="M703.771 297.528l1.558-1.958c5.176-6.295 14.763-7.109 21.057-1.932l30.336 25.556c1.093.789 1.937 1.79 2.551 2.77 1.14-5.244-.466-10.952-5.033-14.59l-30.335-25.556c-6.294-5.177-15.65-4.344-21.057 1.932l-1.559 1.958c-4.386 5.201-4.57 12.848-.831 18.041.656-2.267 1.774-4.494 3.313-6.221z" fill="#444344"/><path d="M712.055 292.987c3.31-5.464 3.425-11.45.256-13.37-3.168-1.921-8.42.952-11.73 6.416-3.31 5.464-3.425 11.45-.257 13.371 3.168 1.92 8.42-.953 11.731-6.417z" fill="#252528"/><path opacity=".5" d="M711.159 289.795c-3.254 5.529-8.598 8.327-11.918 6.421-.442-.27-.864-.77-1.305-1.04.074 1.864.859 3.556 2.414 4.384 3.321 1.907 8.435-.911 11.919-6.421 2.715-4.646 3.375-9.698 1.285-12.429.246 2.575-.488 5.763-2.395 9.085z" fill="#4D1518"/><path d="M707.85 294.335c4.96-4.027 5.717-11.312 1.692-16.273-4.026-4.961-11.31-5.718-16.269-1.691-4.96 4.026-5.717 11.312-1.692 16.273 4.026 4.96 11.31 5.717 16.269 1.691z" fill="#252528"/><path opacity=".5" d="M706.004 282.161c2.934 3.731 3.446 8.65 1.251 12.644l.5-.422c4.981-3.99 5.836-11.348 1.617-16.349-3.989-4.982-11.365-5.606-16.346-1.616-1.25 1.055-2.269 2.129-2.847 3.474 5.172-3.51 12.067-2.694 15.825 2.269z" fill="#444344"/><path d="M749.573 326.427l-12.813 1.9.407 2.746 12.814-1.9-.408-2.746zm-4.963-4.37l-12.814 1.901.407 2.747 12.814-1.902-.407-2.746zm-4.961-4.387l-12.814 1.9.407 2.746 12.814-1.9-.407-2.746zm-4.973-4.368l-12.814 1.898.407 2.747 12.813-1.898-.406-2.747z" fill="#fff"/><path d="M888.361 530.028c-12.43 1.502-25.068-.033-36.972-4.756-11.903-4.723-22.17-12.326-30.187-21.829l67.159 26.585z" fill="url(#paint27_linear)"/><path d="M879.028 530.631c-9.279-.089-18.651-1.811-27.636-5.358-8.985-3.548-16.912-8.631-23.78-15.249l51.416 20.607z" fill="#17A5BA"/><path d="M940.634 373.313l-3.914-3.118 17.733-44.937 4.493 1.773-18.312 46.282z" fill="url(#paint28_linear)"/><path d="M940.983 371.949l-3.821-1.485c-.903-.309-1.285-1.27-.977-2.172.309-.903 1.27-1.286 2.172-.977l3.821 1.484c.902.309 1.285 1.27.977 2.173-.54.883-1.501 1.266-2.172.977z" fill="url(#paint29_linear)"/><path d="M942.778 367.224l-3.821-1.484c-.903-.309-1.285-1.27-.977-2.172.309-.903 1.27-1.286 2.172-.978l3.821 1.485c.902.309 1.285 1.27.977 2.172-.539.884-1.27 1.286-2.172.977z" fill="url(#paint30_linear)"/><path d="M944.566 362.5l-3.82-1.484c-.903-.309-1.286-1.27-.977-2.173.309-.902 1.27-1.285 2.172-.977l3.821 1.485c.902.308 1.285 1.27.976 2.172-.308.903-1.269 1.286-2.172.977z" fill="url(#paint31_linear)"/><path d="M946.591 357.795l-3.82-1.484c-.903-.309-1.286-1.27-.977-2.173.309-.902 1.27-1.285 2.172-.977l3.821 1.485c.902.308 1.285 1.27.977 2.172-.54.883-1.501 1.266-2.173.977z" fill="url(#paint32_linear)"/><path d="M948.387 353.071l-3.821-1.484c-.903-.309-1.285-1.27-.977-2.173.309-.902 1.27-1.285 2.172-.977l3.821 1.485c.902.308 1.285 1.269.977 2.172-.539.883-1.27 1.286-2.172.977z" fill="url(#paint33_linear)"/><path d="M950.182 348.347l-3.821-1.484c-.902-.309-1.285-1.27-.977-2.173.309-.903 1.27-1.286 2.172-.977l3.821 1.485c.902.308 1.285 1.269.977 2.172-.309.903-1.27 1.286-2.172.977z" fill="url(#paint34_linear)"/><path d="M952.204 343.642l-3.821-1.485c-.903-.308-1.285-1.269-.977-2.172.309-.903 1.27-1.286 2.172-.977l3.821 1.484c.902.309 1.285 1.27.977 2.173-.539.883-1.5 1.266-2.172.977z" fill="url(#paint35_linear)"/><path d="M953.992 338.918l-3.82-1.484c-.903-.309-1.286-1.27-.977-2.173.308-.902 1.269-1.285 2.172-.977l3.821 1.485c.902.308 1.285 1.27.976 2.172-.539.883-1.269 1.286-2.172.977z" fill="url(#paint36_linear)"/><path d="M955.787 334.194l-3.82-1.484c-.903-.309-1.286-1.27-.977-2.173.309-.902 1.27-1.285 2.172-.977l3.821 1.485c.902.308 1.285 1.27.976 2.172-.308.903-1.269 1.286-2.172.977z" fill="url(#paint37_linear)"/><path d="M956.888 329.411a4.395 4.395 0 004.75-4.009 4.395 4.395 0 10-8.758-.742 4.395 4.395 0 004.008 4.751z" fill="url(#paint38_linear)"/><path opacity=".34" d="M596.665 230.862c1.405.01 2.547-.397 2.551-.908.003-.511-1.133-.933-2.539-.943-1.405-.009-2.547.398-2.55.909-.004.511 1.133.933 2.538.942z" fill="#2999C5"/><path d="M786.226 324.383c1.748-3.743 1.395-9.013-.176-12.798-20.229-55.384-2.695-70.572-10.671-84.934-10.269-18.123-21.46-34.933-33.016-49.969-4.049-4.898-32.572-40.06-38.339-38.495-7.083 1.932-14.165 3.863-21.165 5.552 5.981-1.492 34.373 33.354 38.34 38.496 5.605 7.324 34.894 46.54 35.449 58.925.131.316.048.559.096 1.117-.039 4.323-2.418 12.731-1.607 29.268 1.824 40.191 16.006 46.09 9.595 59.363-15.772 33.132-40.993 69.56-78.442 79.611l21.164-5.552c34.82-9.318 64.247-46.216 78.772-80.584z" fill="url(#paint39_linear)"/><path d="M668.949 150.723c-.771-.533-1.708-.579-2.513-.311l-21.165 5.552c.806-.268 1.446-.051 2.513.312 5.859 3.073 11.621 5.03 18.917 3.17l21.165-5.552c-7.083 1.932-12.845-.025-18.917-3.171z" fill="url(#paint40_linear)"/><path d="M648.759 156.872c13.604 7.601 27.245 2.475 36.649-13.304 1.796-3.185 4.556-3.603 7.131-1.374 11.678 10.47 23.204 22.786 34.285 37.119 11.768 15.108 22.96 31.918 33.016 49.968 1.866 3.616 2.728 8.787 2.179 13.208-3.716 22.861-.719 49.084 8.05 70.222l.655 1.577c1.701 4.101 1.841 9.298.176 12.799l-.626 1.142c-20.6 43.147-57.175 91.982-115.563 80.288-1.363-.192-2.692-1.185-3.856-2.665-1.164-1.479-2.162-3.444-2.783-5.823-28.09-99.522-19.151-184.031-6.697-237.533l.282-1.531c.976-4.276 3.508-6.126 6.118-4.698l.984.605z" fill="#fff"/><path d="M691.6 149.197c-1.508-1.867-3.546-1.475-4.453 1.198-.908 2.674-.487 6.34 1.235 8.28 1.508 1.867 3.545 1.475 4.453-1.199.825-2.43.404-6.096-1.235-8.279zm72.805 166.201c-1.508-1.867-3.546-1.475-4.453 1.198-.908 2.674-.487 6.34 1.235 8.28 1.508 1.867 3.545 1.475 4.453-1.199.825-2.43.404-6.096-1.235-8.279zm-7.011-80.989c-1.508-1.867-3.546-1.474-4.453 1.199-.908 2.673-.487 6.339 1.235 8.279 1.508 1.867 3.545 1.475 4.453-1.198.825-2.43.191-6.169-1.235-8.28zm-108.761-69.446c-1.508-1.867-3.546-1.474-4.453 1.199-.908 2.673-.487 6.339 1.235 8.279 1.508 1.867 3.545 1.475 4.453-1.198.907-2.673.486-6.34-1.235-8.28zm8.022 225.247c-1.508-1.867-3.545-1.475-4.453 1.199-.908 2.673-.486 6.339 1.235 8.279 1.508 1.867 3.546 1.475 4.453-1.198.612-2.503.191-6.169-1.235-8.28z" fill="#00D0CD"/><path d="M658.336 384.547c47.965 7.342 79.547-30.992 98.133-67.505-8.076-23.883-11.087-51.467-8.204-76.778-8.747-14.896-18.251-28.964-28.037-41.502-9.097-11.762-18.819-22.382-28.184-31.253-10.898 15.272-25.344 20.666-39.986 15.424-10.178 47.499-16.025 118.693 6.278 201.614z" fill="url(#paint41_linear)"/><path d="M852 429.471L840 423l-2 3.882L850 434l2-4.529z" fill="#986BD1"/><path d="M867.5 563.5l11-33-51-20-21 53h61z" fill="url(#paint42_linear)"/><ellipse cx="666.8" cy="270.795" rx="143.258" ry="161.346" transform="rotate(23.4 666.8 270.795)" fill="url(#paint43_radial)"/><ellipse cx="677.574" cy="272.33" rx="5.293" ry="9.252" transform="rotate(15.498 677.574 272.33)" fill="#fff"/><path d="M-9 .27l682.58 280.582s7.014 3.049 9.639-7.056c2.625-10.105-4.875-11.456-4.875-11.456L-6.617-3.981-9.001.27z" fill="url(#paint44_linear)"/><path fill="url(#paint45_linear)" d="M0 11h139v560H0z"/></g><defs><linearGradient id="paint1_linear" x1="12.324" y1="-12.052" x2="12.324" y2="33.574" gradientUnits="userSpaceOnUse"><stop stop-color="#06EDE1"/><stop offset="1" stop-color="#06EDE1" stop-opacity="0"/></linearGradient><linearGradient id="paint2_linear" x1="12.324" y1="-12.052" x2="12.324" y2="33.574" gradientUnits="userSpaceOnUse"><stop stop-color="#06EDE1"/><stop offset="1" stop-color="#06EDE1" stop-opacity="0"/></linearGradient><linearGradient id="paint3_linear" x1="8.532" y1="-8.344" x2="8.532" y2="23.244" gradientUnits="userSpaceOnUse"><stop stop-color="#06EDE1"/><stop offset="1" stop-color="#06EDE1" stop-opacity="0"/></linearGradient><linearGradient id="paint4_linear" x1="5.688" y1="-5.563" x2="5.688" y2="15.496" gradientUnits="userSpaceOnUse"><stop stop-color="#06EDE1"/><stop offset="1" stop-color="#06EDE1" stop-opacity="0"/></linearGradient><linearGradient id="paint5_linear" x1="5.688" y1="-5.563" x2="5.688" y2="15.496" gradientUnits="userSpaceOnUse"><stop stop-color="#06EDE1"/><stop offset="1" stop-color="#06EDE1" stop-opacity="0"/></linearGradient><linearGradient id="paint6_linear" x1="12.324" y1="-12.052" x2="12.324" y2="33.574" gradientUnits="userSpaceOnUse"><stop stop-color="#06EDE1"/><stop offset="1" stop-color="#06EDE1" stop-opacity="0"/></linearGradient><linearGradient id="paint7_linear" x1="8.532" y1="-8.344" x2="8.532" y2="23.244" gradientUnits="userSpaceOnUse"><stop stop-color="#06EDE1"/><stop offset="1" stop-color="#06EDE1" stop-opacity="0"/></linearGradient><linearGradient id="paint8_linear" x1="5.688" y1="-5.563" x2="5.688" y2="15.496" gradientUnits="userSpaceOnUse"><stop stop-color="#06EDE1"/><stop offset="1" stop-color="#06EDE1" stop-opacity="0"/></linearGradient><linearGradient id="paint9_linear" x1="12.324" y1="-12.052" x2="12.324" y2="33.574" gradientUnits="userSpaceOnUse"><stop stop-color="#06EDE1"/><stop offset="1" stop-color="#06EDE1" stop-opacity="0"/></linearGradient><linearGradient id="paint10_linear" x1="5.688" y1="-5.563" x2="5.688" y2="15.496" gradientUnits="userSpaceOnUse"><stop stop-color="#06EDE1"/><stop offset="1" stop-color="#06EDE1" stop-opacity="0"/></linearGradient><linearGradient id="paint12_linear" x1="0" y1="242.5" x2="139" y2="242.5" gradientUnits="userSpaceOnUse"><stop stop-color="#33425A"/><stop offset="1" stop-color="#33425A" stop-opacity="0"/></linearGradient><linearGradient id="paint13_linear" x1="873.499" y1="315.399" x2="869.095" y2="313.652" gradientUnits="userSpaceOnUse"><stop stop-color="#fff"/><stop offset="1" stop-color="#B7B6B6"/></linearGradient><linearGradient id="paint14_linear" x1="866.689" y1="336.217" x2="859.778" y2="333.476" gradientUnits="userSpaceOnUse"><stop stop-color="#242424"/><stop offset="1" stop-color="#555"/></linearGradient><linearGradient id="paint15_linear" x1="868.559" y1="331.504" x2="861.649" y2="328.762" gradientUnits="userSpaceOnUse"><stop stop-color="#242424"/><stop offset="1" stop-color="#555"/></linearGradient><linearGradient id="paint16_linear" x1="870.429" y1="326.792" x2="863.518" y2="324.05" gradientUnits="userSpaceOnUse"><stop stop-color="#242424"/><stop offset="1" stop-color="#555"/></linearGradient><linearGradient id="paint17_linear" x1="872.298" y1="322.078" x2="865.387" y2="319.336" gradientUnits="userSpaceOnUse"><stop stop-color="#242424"/><stop offset="1" stop-color="#555"/></linearGradient><linearGradient id="paint18_linear" x1="874.172" y1="317.365" x2="867.261" y2="314.624" gradientUnits="userSpaceOnUse"><stop stop-color="#242424"/><stop offset="1" stop-color="#555"/></linearGradient><linearGradient id="paint19_linear" x1="876.038" y1="312.652" x2="869.128" y2="309.91" gradientUnits="userSpaceOnUse"><stop stop-color="#242424"/><stop offset="1" stop-color="#555"/></linearGradient><linearGradient id="paint20_linear" x1="877.91" y1="307.939" x2="871" y2="305.197" gradientUnits="userSpaceOnUse"><stop stop-color="#242424"/><stop offset="1" stop-color="#555"/></linearGradient><linearGradient id="paint21_linear" x1="879.778" y1="303.227" x2="872.867" y2="300.485" gradientUnits="userSpaceOnUse"><stop stop-color="#242424"/><stop offset="1" stop-color="#555"/></linearGradient><linearGradient id="paint22_linear" x1="881.651" y1="298.514" x2="874.74" y2="295.772" gradientUnits="userSpaceOnUse"><stop stop-color="#242424"/><stop offset="1" stop-color="#555"/></linearGradient><linearGradient id="paint23_linear" x1="885.026" y1="291.754" x2="876.915" y2="288.536" gradientUnits="userSpaceOnUse"><stop stop-color="#242424"/><stop offset="1" stop-color="#555"/></linearGradient><linearGradient id="paint25_linear" x1="898.692" y1="412.844" x2="821.862" y2="382.362" gradientUnits="userSpaceOnUse"><stop stop-color="#B7B6B6"/><stop offset="1" stop-color="#fff"/></linearGradient><linearGradient id="paint26_linear" x1="896.345" y1="411.914" x2="824.203" y2="383.291" gradientUnits="userSpaceOnUse"><stop stop-color="#575757"/><stop offset="1" stop-color="#BBB"/></linearGradient><linearGradient id="paint27_linear" x1="886.804" y1="534.326" x2="819.513" y2="507.628" gradientUnits="userSpaceOnUse"><stop stop-color="#B7B6B6"/><stop offset="1" stop-color="#fff"/></linearGradient><linearGradient id="paint28_linear" x1="949.946" y1="350.149" x2="945.543" y2="348.402" gradientUnits="userSpaceOnUse"><stop stop-color="#fff"/><stop offset="1" stop-color="#B7B6B6"/></linearGradient><linearGradient id="paint29_linear" x1="943.138" y1="370.967" x2="936.228" y2="368.225" gradientUnits="userSpaceOnUse"><stop stop-color="#555"/><stop offset="1" stop-color="#242424"/></linearGradient><linearGradient id="paint30_linear" x1="945.01" y1="366.254" x2="938.1" y2="363.512" gradientUnits="userSpaceOnUse"><stop stop-color="#555"/><stop offset="1" stop-color="#242424"/></linearGradient><linearGradient id="paint31_linear" x1="946.876" y1="361.541" x2="939.966" y2="358.799" gradientUnits="userSpaceOnUse"><stop stop-color="#555"/><stop offset="1" stop-color="#242424"/></linearGradient><linearGradient id="paint32_linear" x1="948.748" y1="356.828" x2="941.837" y2="354.086" gradientUnits="userSpaceOnUse"><stop stop-color="#555"/><stop offset="1" stop-color="#242424"/></linearGradient><linearGradient id="paint33_linear" x1="950.62" y1="352.115" x2="943.709" y2="349.373" gradientUnits="userSpaceOnUse"><stop stop-color="#555"/><stop offset="1" stop-color="#242424"/></linearGradient><linearGradient id="paint34_linear" x1="952.492" y1="347.402" x2="945.581" y2="344.66" gradientUnits="userSpaceOnUse"><stop stop-color="#555"/><stop offset="1" stop-color="#242424"/></linearGradient><linearGradient id="paint35_linear" x1="954.36" y1="342.689" x2="947.45" y2="339.947" gradientUnits="userSpaceOnUse"><stop stop-color="#555"/><stop offset="1" stop-color="#242424"/></linearGradient><linearGradient id="paint36_linear" x1="956.226" y1="337.976" x2="949.315" y2="335.235" gradientUnits="userSpaceOnUse"><stop stop-color="#555"/><stop offset="1" stop-color="#242424"/></linearGradient><linearGradient id="paint37_linear" x1="958.098" y1="333.264" x2="951.187" y2="330.522" gradientUnits="userSpaceOnUse"><stop stop-color="#555"/><stop offset="1" stop-color="#242424"/></linearGradient><linearGradient id="paint38_linear" x1="961.474" y1="326.504" x2="953.363" y2="323.286" gradientUnits="userSpaceOnUse"><stop stop-color="#555"/><stop offset="1" stop-color="#242424"/></linearGradient><linearGradient id="paint39_linear" x1="643.724" y1="202.237" x2="753.062" y2="315.151" gradientUnits="userSpaceOnUse"><stop stop-color="#00D0CD"/><stop offset="1" stop-color="#515AA5"/></linearGradient><linearGradient id="paint40_linear" x1="633.314" y1="143.632" x2="707.222" y2="168.728" gradientUnits="userSpaceOnUse"><stop stop-color="#03D9FE"/><stop offset="1" stop-color="#5A54CE"/></linearGradient><linearGradient id="paint41_linear" x1="626.023" y1="259.27" x2="760.601" y2="304.965" gradientUnits="userSpaceOnUse"><stop stop-color="#F7DA5C"/><stop offset="1" stop-color="#F15DAB"/></linearGradient><linearGradient id="paint42_linear" x1="845" y1="522" x2="839.622" y2="616.587" gradientUnits="userSpaceOnUse"><stop stop-color="#00D0CD"/><stop offset=".359" stop-color="#fff" stop-opacity="0"/></linearGradient><linearGradient id="paint44_linear" x1="-4.63" y1="-10.345" x2="676.444" y2="273.98" gradientUnits="userSpaceOnUse"><stop stop-color="#fff" stop-opacity="0"/><stop offset="1" stop-color="#fff"/></linearGradient><linearGradient id="paint45_linear" x1="0" y1="253.5" x2="139" y2="253.5" gradientUnits="userSpaceOnUse"><stop stop-color="#33425A"/><stop offset="1" stop-color="#33425A" stop-opacity="0"/></linearGradient><radialGradient id="paint0_radial" cx="0" cy="0" r="1" gradientUnits="userSpaceOnUse" gradientTransform="scale(548 285.5) rotate(90 0 1)"><stop stop-color="#515AA5"/><stop offset=".5" stop-color="#515AA5"/><stop offset="1" stop-color="#33425A"/></radialGradient><radialGradient id="paint11_radial" cx="0" cy="0" r="1" gradientUnits="userSpaceOnUse" gradientTransform="matrix(364.234 0 0 299.654 696.172 288.351)"><stop stop-color="#CEACF9"/><stop offset="1" stop-color="#986BD1" stop-opacity="0"/></radialGradient><radialGradient id="paint24_radial" cx="0" cy="0" r="1" gradientUnits="userSpaceOnUse" gradientTransform="matrix(39.86637 15.82745 -23.23795 58.53204 859.305 398.298)"><stop stop-color="#333"/><stop offset="1" stop-color="#333"/></radialGradient><radialGradient id="paint43_radial" cx="0" cy="0" r="1" gradientUnits="userSpaceOnUse" gradientTransform="rotate(172.645 324.698 156.826) scale(129.853 146.285)"><stop stop-color="#fff"/><stop offset="1" stop-color="#fff" stop-opacity="0"/></radialGradient><clipPath id="clip0"><path fill="#fff" d="M0 0h1096v571H0z"/></clipPath></defs></svg>