<svg width="219" height="174" fill="none" xmlns="http://www.w3.org/2000/svg"><path d="M202.354 86.492c1.527-.763 2.205-2.626 1.442-4.151l-.339-.678c-.763-1.525-2.629-2.203-4.156-1.44l-19.251 9.149c-1.527.762-2.205 2.626-1.442 4.15l.339.679c.764 1.524 2.629 2.202 4.156 1.44l19.251-9.15z" fill="#252528"/><path opacity=".5" d="M199.386 87.254c-.763-1.525-2.629-2.203-4.156-1.44l-16.537 7.878-.085-.17c-.763-1.524-.085-3.388 1.442-4.15l19.251-9.234c1.527-.762 3.393-.085 4.156 1.44l.339.678c.763 1.525.085 3.388-1.442 4.15l-2.713 1.271-.255-.423z" fill="#444344"/><path d="M203.285 88.864c3.647-.678 6.191-4.151 5.513-7.794-.679-3.642-4.156-6.184-7.803-5.506-3.646.678-6.191 4.15-5.512 7.794.593 3.642 4.071 6.184 7.802 5.506z" fill="#252528"/><path d="M164.986 112.23c6.46-1.125 10.353-9.734 8.695-19.228-1.658-9.494-8.238-16.279-14.698-15.153-6.459 1.125-10.352 9.734-8.694 19.228 1.657 9.494 8.238 16.278 14.697 15.153z" fill="#191818"/><path opacity=".5" d="M165.291 95.048c.509 7.878 2.799 14.062 5.089 13.977 2.29-.169 3.816-6.607 3.307-14.486-.508-7.878-2.798-14.062-5.088-13.977-2.375.17-3.816 6.608-3.308 14.486z" fill="#00B2A9"/><path d="M166.139 95.048c.509 7.878 2.799 14.062 5.089 13.977 2.289-.169 3.816-6.607 3.307-14.486-.509-7.878-2.799-14.062-5.088-13.977-2.29.17-3.817 6.608-3.308 14.486z" fill="#00D0CD"/><path d="M169.276 93.946c.424 6.1 2.12 10.928 3.986 10.844 1.781-.085 2.968-5.168 2.544-11.267-.424-6.1-2.12-10.928-3.986-10.843-1.781.084-2.968 5.167-2.544 11.266z" fill="#191818"/><path d="M170.549 95.387c.764 4.405 4.919 7.37 9.329 6.523 4.41-.763 7.379-4.914 6.531-9.319-.764-4.405-4.919-7.37-9.329-6.522-4.326.762-7.294 4.913-6.531 9.318z" fill="#252528"/><path opacity=".5" d="M176.148 100.3c4.41-.763 7.378-4.913 6.53-9.319a8.022 8.022 0 00-2.968-4.998c3.392.509 6.191 3.05 6.784 6.608.764 4.405-2.205 8.556-6.53 9.318a7.937 7.937 0 01-6.36-1.609c.763.169 1.611.169 2.544 0zm24.596-18.721a6.688 6.688 0 00-4.834 3.473 5.607 5.607 0 01-.509-1.694c-.679-3.643 1.866-7.201 5.512-7.794 3.647-.678 7.209 1.864 7.803 5.506.254 1.525 0 3.05-.679 4.32a6.608 6.608 0 00-7.293-3.811z" fill="#444344"/><path d="M196.84 37.104c-.254 1.102.509 2.203 1.696 2.457 1.103.254 2.205-.508 2.46-1.61l.763-3.896c.254-1.102-.509-2.203-1.612-2.457-1.102-.254-2.205.508-2.459 1.61l-.848 3.896zm21.54.762c0 1.186-.848 2.118-2.035 2.118-1.188 0-2.121-.847-2.121-2.033l-.169-3.982c0-1.186.848-2.117 2.035-2.117 1.187 0 2.12.847 2.12 2.033l.17 3.981zm-5.425-3.473c.339 1.101-.255 2.287-1.272 2.626-1.103.34-2.29-.254-2.629-1.27l-1.273-3.813c-.339-1.1.255-2.287 1.273-2.626 1.102-.338 2.289.255 2.629 1.271l1.272 3.812z" fill="#00D0CD"/><path opacity=".5" d="M195.566 79.715c1.102-3.558 4.918-5.591 8.48-4.49 3.562 1.101 5.598 4.913 4.495 8.471-1.102 3.558-4.919 5.591-8.481 4.49a6.766 6.766 0 01-4.494-8.471z" fill="#444344"/><path d="M203.116 83.272c-.679 2.033-2.205 3.643-4.071 4.32a5.637 5.637 0 001.611.763c3.562 1.101 7.379-.847 8.481-4.49a6.735 6.735 0 00-4.495-8.47c-1.526-.51-3.053-.34-4.41.169 2.545 1.524 3.817 4.743 2.884 7.708z" fill="#252528"/><path d="M213.634 41.849c-.848.762-2.205.677-2.968-.17-.763-.847-.679-2.202.169-2.965l2.969-2.71c.848-.763 2.205-.678 2.968.169.763.847.678 2.202-.17 2.965l-2.968 2.71z" fill="#1C1C1D"/><path d="M217.872 36.766c0 1.186-.848 2.118-2.035 2.118-1.188 0-2.121-.848-2.121-2.033l-.169-3.982c0-1.186.848-2.118 2.035-2.118 1.188 0 2.121.847 2.121 2.033l.169 3.982z" fill="#252528"/><path d="M195.314 52.777c.085-.932.933-1.61 1.951-1.525.933.084 1.611.932 1.526 1.948l-3.053 28.294c-.085.932-.933 1.61-1.95 1.525-.933-.085-1.612-.932-1.527-1.948l3.053-28.294z" fill="#191818"/><path d="M197.687 51.42c.509-4.744 4.835-8.217 9.584-7.709l1.442.17c4.749.508 8.226 4.829 7.717 9.572l-2.544 23.042c-.509 4.744-4.834 8.218-9.584 7.71l-1.441-.17c-4.75-.508-8.227-4.829-7.718-9.573l2.544-23.042z" fill="#00D0CD"/><path opacity=".5" d="M197.605 51.506c.509-4.744 4.834-8.218 9.584-7.71l1.442.17c4.749.508 8.226 4.829 7.717 9.573l-2.544 23.042c-.509 4.744-4.834 8.217-9.584 7.709l-1.441-.17c-4.75-.508-8.227-4.829-7.718-9.573l2.544-23.041z" fill="#444344"/><path d="M202.266 48.71l1.442.17c4.749.508 8.226 4.828 7.717 9.572l-2.544 23.042a9.255 9.255 0 01-.509 2.203c2.969-1.102 5.174-3.812 5.513-7.2l2.544-23.043c.509-4.744-2.883-9.064-7.717-9.572l-1.442-.17c-3.986-.423-7.718 1.949-9.075 5.506 1.272-.423 2.629-.677 4.071-.508z" fill="#00D0CD"/><path d="M200.23 47.693c-.085-2.202 2.884-4.15 6.615-4.32 3.732-.17 6.87 1.525 6.955 3.727.084 2.203-2.884 4.151-6.615 4.32-3.732.17-6.87-1.524-6.955-3.727z" fill="#252528"/><path opacity=".5" d="M200.23 47.693c-.085-2.202 2.884-4.15 6.615-4.32 3.732-.17 6.87 1.525 6.955 3.727.084 2.203-2.884 4.151-6.615 4.32-3.732.17-6.87-1.524-6.955-3.727z" fill="#4D1518"/><path d="M208.459 49.812c-3.731.169-6.869-1.525-6.954-3.728 0-.339 0-.593.17-.932-.933.763-1.442 1.61-1.357 2.542.085 2.202 3.222 3.896 6.954 3.727 3.223-.17 5.852-1.525 6.445-3.304-1.272.932-3.137 1.525-5.258 1.695z" fill="#252528"/><path d="M200.571 41.256c1.102-3.558 4.919-5.591 8.481-4.49 3.562 1.101 5.597 4.913 4.494 8.471-1.102 3.558-4.918 5.591-8.48 4.49a6.735 6.735 0 01-4.495-8.471z" fill="#252528"/><path opacity=".5" d="M200.571 41.256c1.102-3.558 4.919-5.591 8.481-4.49 3.562 1.101 5.597 4.913 4.494 8.471-1.102 3.558-4.918 5.591-8.48 4.49a6.735 6.735 0 01-4.495-8.471z" fill="#444344"/><path d="M210.495 44.813c-.848 2.71-3.137 4.49-5.766 4.744.084 0 .254.085.339.085 3.562 1.101 7.378-.847 8.481-4.49a6.736 6.736 0 00-4.495-8.471c-.933-.255-1.781-.34-2.714-.255 3.392 1.271 5.258 4.999 4.155 8.387z" fill="#252528"/><path d="M209.391 39.645c-.593 1.017-1.865 1.27-2.883.763-1.018-.593-1.272-1.864-.763-2.88l2.035-3.39c.594-1.016 1.866-1.27 2.884-.761 1.017.592 1.272 1.863.763 2.88l-2.036 3.388z" fill="#1C1C1D"/><path d="M211.935 33.546c.34 1.102-.169 2.287-1.272 2.626-1.102.34-2.29-.17-2.629-1.27l-1.272-3.813c-.339-1.1.17-2.287 1.272-2.626 1.103-.338 2.29.17 2.629 1.271l1.272 3.812z" fill="#252528"/><path d="M200.741 42.525c.764.932 2.036 1.017 2.969.34.933-.763 1.017-2.034.339-2.966l-2.544-3.134c-.764-.932-2.036-1.017-2.969-.339-.933.762-1.017 2.033-.339 2.965l2.544 3.134z" fill="#1C1C1D"/><path d="M197.35 36.85c-.255 1.1.509 2.202 1.696 2.456 1.102.254 2.205-.508 2.459-1.694l.764-3.897c.254-1.101-.509-2.203-1.697-2.457-1.102-.254-2.205.509-2.459 1.695l-.763 3.896zM18.66 86.492c-1.527-.763-2.206-2.626-1.443-4.151l.34-.678c.763-1.525 2.629-2.203 4.155-1.44l19.252 9.149c1.526.762 2.205 2.626 1.442 4.15l-.34.679c-.763 1.524-2.629 2.202-4.155 1.44l-19.252-9.15z" fill="#252528"/><path opacity=".5" d="M21.712 87.254c.764-1.525 2.63-2.203 4.156-1.44l16.538 7.878.084-.17c.764-1.524.085-3.388-1.441-4.15l-19.337-9.234c-1.526-.762-3.392-.085-4.155 1.44l-.34.678c-.763 1.525-.084 3.388 1.442 4.15l2.714 1.271.34-.423z" fill="#444344"/><path d="M17.808 88.864c-3.647-.678-6.191-4.151-5.513-7.794.679-3.642 4.156-6.184 7.803-5.506 3.646.678 6.19 4.15 5.512 7.794-.678 3.642-4.155 6.184-7.802 5.506z" fill="#252528"/><path d="M70.804 97.034c1.658-9.494-2.235-18.103-8.695-19.228-6.46-1.125-13.04 5.659-14.697 15.153-1.658 9.495 2.235 18.103 8.694 19.229 6.46 1.125 13.04-5.659 14.698-15.154z" fill="#191818"/><path opacity=".5" d="M55.807 95.048c-.51 7.878-2.8 14.062-5.089 13.977-2.29-.169-3.816-6.607-3.307-14.486.508-7.878 2.798-14.062 5.088-13.977 2.29.17 3.816 6.607 3.308 14.486z" fill="#00B2A9"/><path d="M54.96 95.048c-.508 7.878-2.798 14.062-5.088 13.977-2.29-.169-3.816-6.607-3.307-14.486.509-7.878 2.799-14.062 5.088-13.977 2.29.17 3.732 6.607 3.308 14.486z" fill="#00D0CD"/><path d="M51.822 93.946c-.425 6.099-2.12 10.928-3.986 10.843-1.782-.084-2.969-5.167-2.545-11.266.424-6.1 2.12-10.928 3.986-10.844 1.781.085 2.884 5.168 2.544 11.267z" fill="#191818"/><path d="M50.459 95.387c-.763 4.405-4.919 7.37-9.329 6.523-4.41-.763-7.378-4.914-6.53-9.319.763-4.405 4.919-7.37 9.329-6.522 4.325.762 7.293 4.913 6.53 9.318z" fill="#252528"/><path opacity=".5" d="M44.947 100.3c-4.41-.763-7.379-4.913-6.53-9.319a8.02 8.02 0 012.968-4.998c-3.392.509-6.191 3.05-6.785 6.608-.763 4.405 2.205 8.556 6.53 9.318a7.938 7.938 0 006.361-1.609 6.447 6.447 0 01-2.544 0zM20.27 81.579a6.69 6.69 0 014.834 3.473 5.618 5.618 0 00.509-1.694c.678-3.643-1.866-7.201-5.513-7.794-3.646-.678-7.208 1.864-7.802 5.506-.255 1.525 0 3.05.678 4.32 1.272-2.71 4.24-4.404 7.294-3.811z" fill="#444344"/><path d="M2.713 37.867c0 1.186.848 2.118 2.035 2.118 1.188 0 2.12-.847 2.12-2.033l.17-3.982c0-1.186-.848-2.117-2.035-2.117-1.188 0-2.12.847-2.12 2.033l-.17 3.981zm5.426-3.473c-.34 1.101.254 2.287 1.272 2.626 1.102.339 2.29-.254 2.629-1.27l1.272-3.813c.34-1.1-.254-2.287-1.272-2.626-1.102-.339-2.29.254-2.63 1.271l-1.27 3.812z" fill="#00D0CD"/><path opacity=".5" d="M25.444 79.715c-1.103-3.558-4.92-5.591-8.481-4.49-3.562 1.101-5.598 4.913-4.495 8.471 1.102 3.558 4.919 5.591 8.48 4.49 3.648-1.101 5.598-4.829 4.496-8.471z" fill="#444344"/><path d="M17.895 83.272c.678 2.033 2.205 3.643 4.07 4.32a5.628 5.628 0 01-1.61.763c-3.563 1.101-7.379-.847-8.482-4.49a6.736 6.736 0 014.495-8.47c1.527-.51 3.054-.34 4.41.169-2.544 1.524-3.816 4.743-2.883 7.708z" fill="#252528"/><path d="M7.38 41.848c.848.763 2.205.678 2.968-.17.763-.846.679-2.202-.17-2.964l-2.968-2.71c-.848-.763-2.205-.679-2.968.169-.763.847-.679 2.202.17 2.965l2.968 2.71z" fill="#1C1C1D"/><path d="M3.14 36.765c0 1.186.849 2.118 2.036 2.118s2.12-.847 2.12-2.033l.17-3.981c0-1.186-.848-2.118-2.036-2.118-1.187 0-2.12.847-2.12 2.033l-.17 3.981z" fill="#252528"/><path d="M25.695 52.776c-.085-.932-.933-1.61-1.95-1.525-.933.085-1.612.932-1.527 1.949l3.053 28.294c.085.932.933 1.61 1.95 1.525.934-.085 1.612-.932 1.527-1.949l-3.053-28.294z" fill="#191818"/><path d="M23.405 51.421c-.509-4.744-4.834-8.217-9.583-7.709l-1.442.17c-4.749.508-8.226 4.829-7.717 9.573l2.544 23.041c.509 4.744 4.834 8.218 9.583 7.71l1.442-.17c4.75-.508 8.227-4.829 7.718-9.573l-2.545-23.042z" fill="#00D0CD"/><path opacity=".5" d="M23.49 51.505c-.509-4.744-4.834-8.217-9.583-7.709l-1.442.17c-4.834.508-8.311 4.828-7.802 9.572L7.207 76.58c.509 4.744 4.834 8.218 9.583 7.71l1.442-.17c4.75-.508 8.227-4.829 7.718-9.573l-2.46-23.042z" fill="#444344"/><path d="M18.827 48.71l-1.442.17c-4.75.508-8.226 4.829-7.718 9.572l2.545 23.042a9.27 9.27 0 00.509 2.203c-2.969-1.101-5.174-3.812-5.513-7.2L4.664 53.453c-.51-4.743 2.883-9.064 7.717-9.572l1.442-.17c3.986-.423 7.718 1.949 9.075 5.507-1.273-.424-2.714-.678-4.071-.508z" fill="#00D0CD"/><path d="M20.778 47.694c.085-2.202-2.883-4.15-6.615-4.32-3.732-.17-6.87 1.525-6.954 3.727-.085 2.203 2.883 4.151 6.615 4.32 3.816.17 6.87-1.524 6.954-3.727z" fill="#252528"/><path opacity=".5" d="M20.778 47.694c.085-2.202-2.883-4.15-6.615-4.32-3.732-.17-6.87 1.525-6.954 3.727-.085 2.203 2.883 4.151 6.615 4.32 3.816.17 6.87-1.524 6.954-3.727z" fill="#4D1518"/><path d="M12.637 49.811c3.732.17 6.87-1.525 6.954-3.727 0-.339 0-.593-.17-.932.934.762 1.442 1.61 1.358 2.541-.085 2.203-3.223 3.897-6.955 3.728-3.222-.17-5.851-1.525-6.445-3.304 1.272.932 3.138 1.525 5.258 1.694z" fill="#252528"/><path d="M20.527 41.255c-1.102-3.558-4.918-5.59-8.48-4.49-3.562 1.102-5.598 4.914-4.495 8.472 1.102 3.558 4.919 5.591 8.48 4.49 3.563-1.101 5.598-4.914 4.495-8.472z" fill="#252528"/><path opacity=".5" d="M20.527 41.255c-1.102-3.558-4.918-5.59-8.48-4.49-3.562 1.102-5.598 4.914-4.495 8.472 1.102 3.558 4.919 5.591 8.48 4.49 3.563-1.101 5.598-4.914 4.495-8.472z" fill="#444344"/><path d="M10.602 44.813c.848 2.71 3.138 4.49 5.767 4.744-.084 0-.254.084-.339.084-3.562 1.102-7.378-.847-8.48-4.49a6.736 6.736 0 014.494-8.47 7.405 7.405 0 012.714-.255c-3.392 1.271-5.258 4.998-4.156 8.387z" fill="#252528"/><path d="M11.704 39.646c.593 1.017 1.866 1.271 2.883.763 1.018-.593 1.273-1.864.764-2.88l-2.036-3.389c-.593-1.017-1.865-1.27-2.883-.762-1.018.593-1.272 1.863-.764 2.88l2.036 3.388z" fill="#1C1C1D"/><path d="M9.16 33.546c-.339 1.102.17 2.287 1.273 2.626 1.102.34 2.29-.17 2.629-1.27l1.272-3.813c.34-1.1-.17-2.287-1.272-2.626-1.103-.338-2.29.17-2.63 1.271l-1.271 3.812z" fill="#252528"/><path d="M150.281 43.033v28.295l2.799.847V43.033h-2.799z" fill="url(#paint0_linear)"/><path d="M152.908 71.412h-2.459a.94.94 0 01-.933-.931.94.94 0 01.933-.932h2.459a.94.94 0 01.933.932.94.94 0 01-.933.931z" fill="url(#paint1_linear)"/><path d="M152.908 68.364h-2.459a.94.94 0 01-.933-.932.94.94 0 01.933-.932h2.459a.94.94 0 01.933.932.94.94 0 01-.933.932z" fill="url(#paint2_linear)"/><path d="M152.908 65.399h-2.459a.94.94 0 01-.933-.932.94.94 0 01.933-.932h2.459a.94.94 0 01.933.932.94.94 0 01-.933.932z" fill="url(#paint3_linear)"/><path d="M152.908 62.434h-2.459a.94.94 0 01-.933-.932.94.94 0 01.933-.932h2.459a.94.94 0 01.933.932.94.94 0 01-.933.932z" fill="url(#paint4_linear)"/><path d="M152.908 59.469h-2.459a.94.94 0 01-.933-.932.94.94 0 01.933-.932h2.459a.94.94 0 01.933.932.94.94 0 01-.933.932z" fill="url(#paint5_linear)"/><path d="M152.908 56.504h-2.459a.94.94 0 01-.933-.932.94.94 0 01.933-.932h2.459a.94.94 0 01.933.932.94.94 0 01-.933.932z" fill="url(#paint6_linear)"/><path d="M152.908 53.539h-2.459a.94.94 0 01-.933-.932.94.94 0 01.933-.932h2.459a.94.94 0 01.933.932.94.94 0 01-.933.932z" fill="url(#paint7_linear)"/><path d="M152.908 50.574h-2.459a.94.94 0 01-.933-.932.94.94 0 01.933-.932h2.459a.94.94 0 01.933.932.94.94 0 01-.933.932z" fill="url(#paint8_linear)"/><path d="M152.908 47.609h-2.459a.94.94 0 01-.933-.932.94.94 0 01.933-.932h2.459a.94.94 0 01.933.932.94.94 0 01-.933.932z" fill="url(#paint9_linear)"/><path d="M154.264 42.271c0 1.44-1.102 2.542-2.544 2.542s-2.544-1.102-2.544-2.542c0-1.44 1.102-2.541 2.544-2.541 1.357 0 2.544 1.101 2.544 2.541z" fill="url(#paint10_linear)"/><path d="M68.357 72.175l2.8-.847V43.033h-2.8v29.142z" fill="url(#paint11_linear)"/><path d="M68.523 71.412h2.46a.94.94 0 00.932-.931.94.94 0 00-.933-.932h-2.46a.94.94 0 00-.932.932.94.94 0 00.933.931z" fill="url(#paint12_linear)"/><path d="M68.523 68.364h2.46a.94.94 0 00.932-.932.94.94 0 00-.933-.932h-2.46a.94.94 0 00-.932.932.94.94 0 00.933.932z" fill="url(#paint13_linear)"/><path d="M68.523 65.399h2.46a.94.94 0 00.932-.932.94.94 0 00-.933-.932h-2.46a.94.94 0 00-.932.932.94.94 0 00.933.932z" fill="url(#paint14_linear)"/><path d="M68.523 62.434h2.46a.94.94 0 00.932-.932.94.94 0 00-.933-.932h-2.46a.94.94 0 00-.932.932.94.94 0 00.933.932z" fill="url(#paint15_linear)"/><path d="M68.523 59.469h2.46a.94.94 0 00.932-.932.94.94 0 00-.933-.932h-2.46a.94.94 0 00-.932.932.94.94 0 00.933.932z" fill="url(#paint16_linear)"/><path d="M68.523 56.504h2.46a.94.94 0 00.932-.932.94.94 0 00-.933-.932h-2.46a.94.94 0 00-.932.932.94.94 0 00.933.932z" fill="url(#paint17_linear)"/><path d="M68.523 53.539h2.46a.94.94 0 00.932-.932.94.94 0 00-.933-.932h-2.46a.94.94 0 00-.932.932.94.94 0 00.933.932z" fill="url(#paint18_linear)"/><path d="M68.523 50.574h2.46a.94.94 0 00.932-.932.94.94 0 00-.933-.932h-2.46a.94.94 0 00-.932.932.94.94 0 00.933.932z" fill="url(#paint19_linear)"/><path d="M68.523 47.609h2.46a.94.94 0 00.932-.932.94.94 0 00-.933-.932h-2.46a.94.94 0 00-.932.932.94.94 0 00.933.932z" fill="url(#paint20_linear)"/><path d="M67.252 42.271c0 1.44 1.103 2.542 2.544 2.542 1.442 0 2.544-1.102 2.544-2.542 0-1.44-1.102-2.541-2.544-2.541s-2.544 1.101-2.544 2.541z" fill="url(#paint21_linear)"/><path d="M110.761 174c29.274 0 53.005-28.825 53.005-64.382s-23.731-64.382-53.005-64.382-53.005 28.825-53.005 64.382S81.487 174 110.76 174z" fill="#fff"/><path d="M85.485 139.522c2.714 1.44 5.682 2.203 8.735 2.203h33.075c3.053 0 6.022-.763 8.736-2.203l2.629-1.44c5.936-3.219 9.668-9.403 9.668-16.18v-7.54c0-1.27-.17-2.541-.424-3.727l-8.312-40.154c-1.187-5.506-4.749-10.165-9.752-12.707a18.37 18.37 0 00-8.227-1.948H99.902c-2.883 0-5.682.677-8.226 1.948-5.004 2.541-8.65 7.2-9.753 12.707l-8.311 40.154c-.255 1.271-.424 2.457-.424 3.727v7.54c0 6.777 3.731 12.961 9.668 16.18l2.629 1.44z" fill="url(#paint22_radial)"/><path d="M149.094 110.381l-8.311-40.154c-1.188-5.93-5.004-10.843-10.432-13.554-2.714-1.355-5.767-2.033-8.735-2.033H99.99c-3.053 0-6.021.678-8.735 2.033-5.428 2.711-9.16 7.624-10.432 13.554l-8.311 40.154c-.255 1.271-.424 2.626-.424 3.982v7.539c0 7.201 3.986 13.808 10.347 17.282l2.629 1.44c2.883 1.525 6.021 2.372 9.329 2.372h33.16c3.222 0 6.445-.847 9.328-2.372l2.63-1.44c6.36-3.389 10.346-9.996 10.346-17.282v-7.539c-.339-1.356-.509-2.626-.763-3.982zm-1.951 11.521c0 6.354-3.477 12.114-9.074 15.164l-2.629 1.44a17.315 17.315 0 01-8.142 2.033h-33.16c-2.799 0-5.682-.678-8.142-2.033l-2.629-1.44c-5.597-2.965-9.074-8.81-9.074-15.164v-7.539c0-1.186.085-2.372.34-3.473l8.31-40.154c1.103-5.168 4.41-9.488 9.16-11.86 2.374-1.186 5.003-1.78 7.717-1.78h21.626c2.629 0 5.343.594 7.718 1.78 4.749 2.372 8.057 6.692 9.159 11.86l8.311 40.154c.255 1.186.34 2.287.34 3.473v7.539h.169z" fill="url(#paint23_linear)"/><path d="M147.144 121.902v-7.54c0-1.186-.085-2.372-.34-3.473l-8.311-40.154c-1.102-5.168-4.41-9.488-9.159-11.86-2.375-1.186-5.004-1.779-7.718-1.779H99.99c-2.629 0-5.343.593-7.717 1.78-4.75 2.371-8.057 6.691-9.16 11.859l-8.31 40.154c-.255 1.186-.34 2.372-.34 3.473v7.54c0 6.353 3.477 12.114 9.074 15.163l2.63 1.44a17.301 17.301 0 008.141 2.033h33.16c2.799 0 5.682-.677 8.142-2.033l2.629-1.44c5.428-2.965 8.905-8.81 8.905-15.163zm-12.467 15.163c-2.29 1.186-4.834 1.864-7.378 1.864h-33.16c-2.545 0-5.174-.678-7.379-1.864l-2.629-1.44a15.497 15.497 0 01-8.226-13.723v-7.54c0-1.101.084-2.118.339-3.219l8.311-40.154c1.018-4.744 3.986-8.64 8.311-10.758 2.12-1.102 4.58-1.61 6.955-1.61h21.626c2.374 0 4.834.593 6.954 1.61a15.331 15.331 0 018.311 10.758l8.311 40.154c.255 1.017.34 2.118.34 3.134v7.54c0 5.76-3.138 11.013-8.227 13.723l-2.459 1.525z" fill="url(#paint24_linear)"/><path opacity=".1" d="M139.68 70.989l-62.504 62.433c1.526 1.864 3.392 3.473 5.597 4.659l2.63 1.441c2.713 1.44 5.681 2.202 8.734 2.202H104.4l41.387-41.34-6.106-29.395zm-9.923-13.215a21.622 21.622 0 00-4.494-1.525l-51.055 50.997-.678 3.389c-.255 1.271-.424 2.457-.424 3.727v7.54c0 .678.084 1.355.17 1.948l61.994-61.925a20.934 20.934 0 00-5.513-4.15z" fill="#fff"/><path d="M118.22 125.121h-15.435v2.965h15.435v-2.965z" fill="#986BD1"/><path d="M118.139 120.547h-3.053v5.082h3.053v-5.082zm-12.301 0h-3.053v5.082h3.053v-5.082zm9.245 6.268h-9.159v4.659h9.159v-4.659z" fill="#986BD1"/><path opacity=".5" d="M123.056 96.487c-.085 7.455-6.191 13.385-13.654 13.215-7.464-.084-13.4-6.184-13.23-13.638.084-7.455 6.191-13.385 13.654-13.216 7.463.085 13.399 6.184 13.23 13.64z" fill="#363C54"/><path d="M123.903 94.454c-.084 7.455-6.191 13.385-13.654 13.216-7.463-.085-13.4-6.184-13.23-13.64.085-7.454 6.191-13.384 13.654-13.214 7.463.169 13.4 6.268 13.23 13.638z" fill="#646989"/><path d="M106.264 81.493l15.265 20.331a10.303 10.303 0 001.527-3.05l-13.485-17.959c-1.102.085-2.205.34-3.307.678zm-8.734 9.064l12.89 17.197c2.375 0 4.58-.593 6.446-1.609l-15.944-21.348a14.628 14.628 0 00-3.393 5.76z" fill="#7F86A8"/><path d="M120.512 94.455c-.085 5.506-4.664 9.911-10.177 9.911-5.512-.085-9.923-4.66-9.838-10.165.085-5.507 4.665-9.912 10.177-9.912a9.968 9.968 0 019.838 10.166z" fill="#D0D3E5"/><path d="M117.968 94.37c-.085 4.15-3.477 7.454-7.633 7.37-4.156-.085-7.463-3.474-7.378-7.54.084-4.15 3.477-7.454 7.632-7.37 4.156.085 7.464 3.473 7.379 7.54z" fill="#1C2033"/><path d="M116.272 94.37c-.084 3.219-2.629 5.76-5.851 5.675-3.223-.084-5.767-2.71-5.683-5.845.085-3.219 2.714-5.76 5.852-5.675 3.138 0 5.682 2.626 5.682 5.845z" fill="#1C2033"/><path d="M110.503 98.86c2.53 0 4.58-2.049 4.58-4.575a4.577 4.577 0 00-4.58-4.575 4.577 4.577 0 00-4.579 4.575 4.577 4.577 0 004.579 4.574z" fill="#1C2033"/><path d="M102.445 94.284h16.029s1.357-5.082-7.972-5.082c0 .084-8.057.084-8.057 5.082zm16.115 2.289h-16.029s-.509 1.186 1.103 2.202c1.102.678 3.138 1.186 6.869 1.186 0 0 8.057 0 8.057-3.388z" fill="#D0D3E5"/><path d="M110.502 102.248l-4.579-1.101-2.29-2.288 13.23-.084-1.781 2.372-4.58 2.287v-1.186zm3.393-17.112l1.866 3.389 2.714 3.473-15.52.085 2.12-3.558 5.343-3.389h3.477z" fill="#D0D3E5"/><path opacity=".5" d="M110.592 84.289c-3.223-.085-6.191 1.44-8.057 3.812 1.527-.847 3.223-1.355 5.089-1.27 5.512.084 9.922 4.659 9.922 10.165 0 2.287-.848 4.405-2.12 6.015 2.968-1.695 5.089-4.914 5.089-8.556.084-5.591-4.326-10.081-9.923-10.166z" fill="#646989"/><path d="M20.27 40.493c11.194 0 20.268-9.065 20.268-20.247C40.538 9.065 31.464 0 20.27 0 9.075 0 0 9.065 0 20.246c0 11.182 9.075 20.247 20.27 20.247z" fill="url(#paint25_linear)"/><path d="M33.074 7.455C26.034.424 14.5.424 7.377 7.455c-7.04 7.031-7.04 18.552 0 25.668 7.04 7.031 18.573 7.031 25.697 0 7.124-7.116 7.124-18.637 0-25.668zm-.848 24.736c-6.53 6.523-17.301 6.523-23.831 0-6.53-6.523-6.53-17.282 0-23.804 6.53-6.523 17.3-6.523 23.83 0 6.531 6.522 6.531 17.196 0 23.804z" fill="#67C68D"/><path d="M20.265 37.104c9.321 0 16.877-7.548 16.877-16.858S29.586 3.388 20.265 3.388c-9.32 0-16.876 7.548-16.876 16.858s7.556 16.858 16.877 16.858z" fill="#6FCF97"/><path d="M18.317 28.549L10.6 20.924l2.544-2.626 5.173 5.168 11.534-11.521 2.544 2.541L18.317 28.55z" fill="#fff"/><path opacity=".1" d="M33.751 6.862L7.291 33.123a7.362 7.362 0 002.29 1.949l1.102.593c1.103.593 2.29.932 3.562.932h4.156l20.863-20.501-5.513-9.234zm-6.277-3.304c-.593-.254-1.187-.508-1.866-.593L4.83 23.72l-2.29 2.033c-.084.508.594.677.594 1.186l1.272 2.71c0 .255 0 .509.085.763L29.68 5.252a7.294 7.294 0 00-2.205-1.694z" fill="#fff"/><path d="M24.251 37.104c.255 1.102-.509 2.203-1.696 2.457-1.102.254-2.205-.508-2.46-1.61l-.763-3.896c-.254-1.102.51-2.203 1.612-2.457s2.205.508 2.46 1.61l.847 3.896z" fill="#00D0CD"/><path d="M20.35 42.527c-.763.931-2.035 1.016-2.968.338-.933-.762-1.018-2.033-.34-2.965l2.545-3.134c.763-.932 2.035-1.016 2.968-.339.933.763 1.018 2.033.34 2.965l-2.545 3.135z" fill="#1C1C1D"/><path d="M23.743 36.85c.255 1.102-.509 2.203-1.696 2.457-1.102.254-2.205-.508-2.46-1.694l-.763-3.897c-.254-1.101.51-2.202 1.696-2.456 1.103-.255 2.206.508 2.46 1.694l.763 3.897z" fill="#252528"/><defs><linearGradient id="paint0_linear" x1="150.306" y1="57.63" x2="153.083" y2="57.63" gradientUnits="userSpaceOnUse"><stop stop-color="#fff"/><stop offset="1" stop-color="#B7B6B6"/></linearGradient><linearGradient id="paint1_linear" x1="149.514" y1="70.425" x2="153.871" y2="70.425" gradientUnits="userSpaceOnUse"><stop stop-color="#242424"/><stop offset="1" stop-color="#555"/></linearGradient><linearGradient id="paint2_linear" x1="149.514" y1="67.459" x2="153.871" y2="67.459" gradientUnits="userSpaceOnUse"><stop stop-color="#242424"/><stop offset="1" stop-color="#555"/></linearGradient><linearGradient id="paint3_linear" x1="149.514" y1="64.491" x2="153.871" y2="64.491" gradientUnits="userSpaceOnUse"><stop stop-color="#242424"/><stop offset="1" stop-color="#555"/></linearGradient><linearGradient id="paint4_linear" x1="149.514" y1="61.523" x2="153.871" y2="61.523" gradientUnits="userSpaceOnUse"><stop stop-color="#242424"/><stop offset="1" stop-color="#555"/></linearGradient><linearGradient id="paint5_linear" x1="149.514" y1="58.556" x2="153.871" y2="58.556" gradientUnits="userSpaceOnUse"><stop stop-color="#242424"/><stop offset="1" stop-color="#555"/></linearGradient><linearGradient id="paint6_linear" x1="149.514" y1="55.588" x2="153.871" y2="55.588" gradientUnits="userSpaceOnUse"><stop stop-color="#242424"/><stop offset="1" stop-color="#555"/></linearGradient><linearGradient id="paint7_linear" x1="149.514" y1="52.621" x2="153.871" y2="52.621" gradientUnits="userSpaceOnUse"><stop stop-color="#242424"/><stop offset="1" stop-color="#555"/></linearGradient><linearGradient id="paint8_linear" x1="149.514" y1="49.653" x2="153.871" y2="49.653" gradientUnits="userSpaceOnUse"><stop stop-color="#242424"/><stop offset="1" stop-color="#555"/></linearGradient><linearGradient id="paint9_linear" x1="149.514" y1="46.685" x2="153.871" y2="46.685" gradientUnits="userSpaceOnUse"><stop stop-color="#242424"/><stop offset="1" stop-color="#555"/></linearGradient><linearGradient id="paint10_linear" x1="149.135" y1="42.278" x2="154.249" y2="42.278" gradientUnits="userSpaceOnUse"><stop stop-color="#242424"/><stop offset="1" stop-color="#555"/></linearGradient><linearGradient id="paint11_linear" x1="68.392" y1="57.63" x2="71.168" y2="57.63" gradientUnits="userSpaceOnUse"><stop stop-color="#fff"/><stop offset="1" stop-color="#B7B6B6"/></linearGradient><linearGradient id="paint12_linear" x1="67.597" y1="70.425" x2="71.954" y2="70.425" gradientUnits="userSpaceOnUse"><stop stop-color="#555"/><stop offset="1" stop-color="#242424"/></linearGradient><linearGradient id="paint13_linear" x1="67.597" y1="67.459" x2="71.954" y2="67.459" gradientUnits="userSpaceOnUse"><stop stop-color="#555"/><stop offset="1" stop-color="#242424"/></linearGradient><linearGradient id="paint14_linear" x1="67.597" y1="64.491" x2="71.954" y2="64.491" gradientUnits="userSpaceOnUse"><stop stop-color="#555"/><stop offset="1" stop-color="#242424"/></linearGradient><linearGradient id="paint15_linear" x1="67.597" y1="61.523" x2="71.954" y2="61.523" gradientUnits="userSpaceOnUse"><stop stop-color="#555"/><stop offset="1" stop-color="#242424"/></linearGradient><linearGradient id="paint16_linear" x1="67.597" y1="58.556" x2="71.954" y2="58.556" gradientUnits="userSpaceOnUse"><stop stop-color="#555"/><stop offset="1" stop-color="#242424"/></linearGradient><linearGradient id="paint17_linear" x1="67.597" y1="55.588" x2="71.954" y2="55.588" gradientUnits="userSpaceOnUse"><stop stop-color="#555"/><stop offset="1" stop-color="#242424"/></linearGradient><linearGradient id="paint18_linear" x1="67.597" y1="52.621" x2="71.954" y2="52.621" gradientUnits="userSpaceOnUse"><stop stop-color="#555"/><stop offset="1" stop-color="#242424"/></linearGradient><linearGradient id="paint19_linear" x1="67.597" y1="49.653" x2="71.954" y2="49.653" gradientUnits="userSpaceOnUse"><stop stop-color="#555"/><stop offset="1" stop-color="#242424"/></linearGradient><linearGradient id="paint20_linear" x1="67.597" y1="46.685" x2="71.954" y2="46.685" gradientUnits="userSpaceOnUse"><stop stop-color="#555"/><stop offset="1" stop-color="#242424"/></linearGradient><linearGradient id="paint21_linear" x1="67.22" y1="42.278" x2="72.334" y2="42.278" gradientUnits="userSpaceOnUse"><stop stop-color="#555"/><stop offset="1" stop-color="#242424"/></linearGradient><linearGradient id="paint23_linear" x1="71.968" y1="98.785" x2="149.505" y2="98.785" gradientUnits="userSpaceOnUse"><stop stop-color="#B7B6B6"/><stop offset="1" stop-color="#fff"/></linearGradient><linearGradient id="paint24_linear" x1="74.348" y1="98.785" x2="147.126" y2="98.785" gradientUnits="userSpaceOnUse"><stop stop-color="#575757"/><stop offset="1" stop-color="#BBB"/></linearGradient><linearGradient id="paint25_linear" x1="0" y1="20.254" x2="40.554" y2="20.254" gradientUnits="userSpaceOnUse"><stop stop-color="#fff"/><stop offset="1" stop-color="#B7B6B6"/></linearGradient><radialGradient id="paint22_radial" cx="0" cy="0" r="1" gradientUnits="userSpaceOnUse" gradientTransform="matrix(-40.3681 0 0 -40.3227 110.734 98.784)"><stop stop-color="#333"/><stop offset="1" stop-color="#333"/></radialGradient></defs></svg>