<svg width="56" height="56" fill="none" xmlns="http://www.w3.org/2000/svg"><path d="M22.09 30.004c0-.5-.405-.904-.905-.904h-3.16a.904.904 0 00-.904.904v3.159c0 .5.405.905.905.905h3.159c.5 0 .905-.405.905-.905v-3.159zm7.894 0c0-.5-.405-.904-.904-.904h-3.16a.904.904 0 00-.904.904v3.159c0 .5.405.905.904.905h3.16a.905.905 0 00.904-.905v-3.159zm7.897 0c0-.5-.405-.904-.904-.904h-3.16c-.5 0-.905.404-.905.904v3.159c0 .5.405.905.905.905h3.16a.905.905 0 00.904-.905v-3.159zM22.09 37.9c0-.5-.405-.905-.905-.905h-3.16a.904.904 0 00-.904.905v3.158c0 .5.405.905.905.905h3.159c.5 0 .905-.405.905-.905V37.9zm7.894 0c0-.5-.405-.905-.904-.905h-3.16a.904.904 0 00-.904.905v3.158c0 .5.405.905.904.905h3.16a.905.905 0 00.904-.905V37.9zm7.897 0c0-.5-.405-.905-.904-.905h-3.16c-.5 0-.905.404-.905.905v3.158c0 .5.405.905.905.905h3.16a.905.905 0 00.904-.905V37.9z" fill="#fff"/><path d="M43.529 12.44v4.826a3.94 3.94 0 01-3.95 3.938h-2.491c-2.18 0-3.973-1.758-3.973-3.938v-4.842h-11.23v4.842c0 2.18-1.792 3.938-3.972 3.938H15.42a3.94 3.94 0 01-3.95-3.938V12.44C9.567 12.498 8 14.075 8 16.013v28.275c0 1.975 1.6 3.596 3.575 3.596h31.85c1.972 0 3.575-1.625 3.575-3.596V16.013c0-1.938-1.566-3.515-3.471-3.572zM42.37 42.528c0 .854-.691 1.546-1.545 1.546h-26.72a1.546 1.546 0 01-1.546-1.546V27.922c0-.853.692-1.546 1.546-1.546h26.72c.853 0 1.545.693 1.545 1.546v14.605z" fill="#fff"/><path d="M15.413 18.617h2.465c.747 0 1.354-.605 1.354-1.354V9.355c0-.748-.607-1.354-1.354-1.354h-2.465c-.748 0-1.354.606-1.354 1.354v7.91c0 .748.606 1.353 1.354 1.353zm21.643 0h2.464c.747 0 1.354-.605 1.354-1.354V9.355c0-.748-.606-1.354-1.354-1.354h-2.464c-.748 0-1.355.606-1.355 1.354v7.91c0 .748.607 1.353 1.355 1.353z" fill="#fff"/></svg>