<svg width="220" height="163" fill="none" xmlns="http://www.w3.org/2000/svg"><g clip-path="url(#clip0)"><path opacity=".1" d="M67.397 100.204l24.188 13.984L119.916 97.9 95.704 83.938l-28.307 16.266z" fill="#000"/><path d="M91.01 116.424a5.594 5.594 0 01-2.739-.73l-21.979-12.638a3.088 3.088 0 01-1.542-2.669c0-1.118.598-2.122 1.588-2.647l21.404-11.862v-11.75a1.174 1.174 0 012.347 0v12.434c0 .41-.23.798-.598 1.004L67.489 99.748a.765.765 0 00-.392.661c0 .137.024.457.392.662l21.979 12.638a3.185 3.185 0 003.13 0l19.033-11.018V70.912a1.173 1.173 0 012.347 0v32.417c0 .411-.23.799-.575 1.004l-19.609 11.361a5.768 5.768 0 01-2.784.73z" fill="url(#paint0_linear)"/><path opacity=".3" d="M90.826 115.466a4.681 4.681 0 01-2.348-.616L66.5 102.212a2.206 2.206 0 01-1.15-2.008c0-.844.46-1.574 1.196-1.985L88.34 86.13V73.922a.4.4 0 01.391-.387c.208 0 .392.182.392.388v12.433c0 .136-.07.273-.208.342L66.913 98.904a1.523 1.523 0 00-.022 2.646l21.978 12.638a3.917 3.917 0 001.957.525c.69 0 1.38-.182 1.956-.525l19.401-11.246V70.73c0-.206.184-.388.392-.388.207 0 .391.182.391.388v32.417a.4.4 0 01-.184.342L93.173 114.85a4.93 4.93 0 01-2.347.616z" fill="#fff"/><path d="M90.734 115.032c-.76 0-1.519-.205-2.186-.57l-21.98-12.638c-.62-.365-1.012-1.004-.989-1.734 0-.73.391-1.369 1.036-1.711L88.57 86.197V73.809c0-.045.023-.068.069-.068.046 0 .069.046.069.068v12.434c0 .022-.023.045-.046.068L66.66 98.47c-.599.319-.944.912-.944 1.596 0 .662.345 1.278.92 1.597l21.98 12.638a4.264 4.264 0 002.117.571 4.33 4.33 0 002.118-.571l19.562-11.338v-32.37c0-.046.046-.069.069-.069.046 0 .069.023.069.069v32.417L92.92 114.439a4.367 4.367 0 01-2.186.593z" fill="url(#paint1_radial)"/><path d="M89.514 83.505v2.35l26.444-15.148v-2.418L89.514 83.505z" fill="url(#paint2_linear)"/><path d="M89.514 83.505v2.35L63.623 70.958v-2.441l25.892 14.988z" fill="url(#paint3_linear)"/><path d="M89.514 82.068v2.35l26.444-15.148v-2.441L89.514 82.068z" fill="url(#paint4_linear)"/><path d="M89.514 82.068v2.35l-25.891-14.92V67.08l25.892 14.988z" fill="url(#paint5_linear)"/><path d="M63.623 67.08l25.892 14.988 26.443-15.24-25.937-14.942L63.623 67.08z" fill="url(#paint6_linear)"/><path d="M89.353 81.383l3.315-.73 23.29-13.824-26.605 14.554z" fill="url(#paint7_radial)"/><path d="M89.583 56.791l-2.578-10.403-1.933 1.118 2.578 10.357a63.075 63.075 0 011.887 15.376v8.829l1.933-1.05-.023-8.965c0-5.133-.621-10.266-1.864-15.262z" fill="url(#paint8_linear)"/><path d="M85.049 47.506L59.11 32.45l2.601 10.448a63.703 63.703 0 011.887 15.33v8.874l25.938 14.989v-8.852c0-5.178-.645-10.357-1.888-15.399l-2.6-10.334z" fill="url(#paint9_linear)"/><path d="M59.111 32.45L85.05 47.506l1.933-1.118-25.96-15.033-1.91 1.095z" fill="url(#paint10_linear)"/><path d="M59.111 32.45l26.49 14.6 2.923 14.691-3.843-14.212-25.57-15.08z" fill="url(#paint11_radial)"/><path opacity=".1" d="M102.104 120.53l24.188 13.985 28.331-16.289-24.211-13.961-28.308 16.265z" fill="#000"/><path d="M125.717 136.773a5.596 5.596 0 01-2.739-.73l-21.979-12.638c-.967-.571-1.542-1.551-1.542-2.669s.598-2.099 1.588-2.647l21.404-11.862V94.478a1.173 1.173 0 012.347 0v12.433c0 .411-.23.798-.598 1.004l-22.002 12.205a.765.765 0 00-.391.661c0 .137.023.457.391.662l21.979 12.638a3.185 3.185 0 003.13 0l19.033-11.018V91.261a1.173 1.173 0 012.347 0v32.418c0 .41-.23.798-.575 1.003l-19.631 11.338a5.47 5.47 0 01-2.762.753z" fill="url(#paint12_linear)"/><path opacity=".3" d="M125.533 135.792a4.683 4.683 0 01-2.348-.616l-21.979-12.638a2.206 2.206 0 01-1.15-2.008c0-.844.46-1.574 1.196-1.984l21.795-12.091V94.25c0-.206.184-.388.391-.388.208 0 .392.183.392.388v12.433a.375.375 0 01-.207.342l-22.002 12.205a1.522 1.522 0 00-.783 1.323c0 .548.276 1.05.76 1.323l21.979 12.639a3.923 3.923 0 001.956.524c.69 0 1.381-.182 1.956-.524l19.401-11.247V91.056c0-.205.184-.388.392-.388.207 0 .391.183.391.388v32.417a.365.365 0 01-.184.32l-19.609 11.36a4.477 4.477 0 01-2.347.639z" fill="#fff"/><path d="M125.441 135.359a4.376 4.376 0 01-2.186-.593l-21.979-12.639c-.622-.365-1.013-1.004-.99-1.734 0-.73.391-1.368 1.036-1.711l21.956-12.182V94.113c0-.046.046-.069.069-.069.046 0 .069.023.069.069v12.433c0 .023-.023.046-.046.068l-22.002 12.205c-.599.32-.944.913-.944 1.597 0 .662.345 1.278.921 1.597l21.979 12.639c.644.365 1.358.57 2.094.57a4.26 4.26 0 002.117-.57l19.563-11.338V90.942c0-.046.023-.068.069-.068.046 0 .069.022.069.068v32.394l-19.631 11.43a4.233 4.233 0 01-2.164.593z" fill="url(#paint13_radial)"/><path d="M124.221 103.831v2.373l26.42-15.17v-2.419l-26.42 15.216z" fill="url(#paint14_linear)"/><path d="M124.222 103.831v2.373L98.33 91.284v-2.418l25.892 14.965z" fill="url(#paint15_linear)"/><path d="M124.221 102.394v2.373l26.42-15.171v-2.418l-26.42 15.216z" fill="url(#paint16_linear)"/><path d="M124.222 102.394v2.373L98.33 89.847v-2.418l25.892 14.965z" fill="url(#paint17_linear)"/><path d="M98.33 87.429l25.892 14.965 26.42-15.216-25.914-14.965L98.33 87.428z" fill="url(#paint18_linear)"/><path d="M124.061 101.732l3.314-.752 23.267-13.802-26.581 14.554z" fill="url(#paint19_radial)"/><path d="M124.29 77.14l-2.601-10.403-1.933 1.118 2.577 10.357a63.066 63.066 0 011.888 15.376v8.829l1.933-1.05v-8.965c0-5.156-.621-10.266-1.864-15.262z" fill="url(#paint20_linear)"/><path d="M119.756 67.832L93.818 52.776l2.601 10.448a63.704 63.704 0 011.887 15.33v8.875l25.938 14.988v-8.852c0-5.178-.645-10.357-1.887-15.398l-2.601-10.335z" fill="url(#paint21_linear)"/><path d="M93.818 52.776l25.938 15.056 1.933-1.117-25.96-15.034-1.91 1.095z" fill="url(#paint22_linear)"/><path d="M93.818 52.776l26.49 14.623 2.923 14.669-3.843-14.213-25.57-15.08z" fill="url(#paint23_radial)"/><path opacity=".1" d="M135.842 140.172l24.188 13.985 28.308-16.289-24.211-13.961-28.285 16.265z" fill="#000"/><path d="M159.432 156.392a5.593 5.593 0 01-2.739-.73l-21.979-12.638a3.085 3.085 0 01-1.542-2.669c0-1.118.598-2.099 1.588-2.646l21.404-11.863v-11.749c0-.639.529-1.163 1.173-1.163.645 0 1.174.524 1.174 1.163v12.433c0 .411-.23.799-.598 1.004l-22.002 12.205a.742.742 0 00-.392.661c0 .137.023.457.392.662L157.89 153.7c.966.571 2.163.548 3.13 0l19.033-11.018v-31.779a1.173 1.173 0 012.347 0v32.418c0 .41-.23.798-.575 1.003l-19.609 11.361a5.74 5.74 0 01-2.784.707z" fill="url(#paint24_linear)"/><path opacity=".3" d="M159.248 155.434a4.683 4.683 0 01-2.348-.616l-21.979-12.638a2.207 2.207 0 01-1.151-2.008c0-.844.461-1.574 1.197-1.984l21.795-12.091v-12.205c0-.206.184-.388.391-.388.207 0 .392.182.392.388v12.41c0 .137-.07.274-.208.342l-22.002 12.205a1.496 1.496 0 00-.782 1.323c0 .548.276 1.05.759 1.346l21.979 12.639a3.93 3.93 0 001.957.524c.69 0 1.38-.182 1.956-.524l19.401-11.247v-32.212c0-.205.184-.388.391-.388.208 0 .392.183.392.388v32.417a.4.4 0 01-.184.342l-19.586 11.338c-.713.434-1.542.639-2.37.639z" fill="#fff"/><path d="M159.156 155.001a4.591 4.591 0 01-2.186-.571l-21.979-12.638c-.622-.365-1.013-1.004-.99-1.734 0-.73.391-1.369 1.036-1.711l21.956-12.182v-12.387c0-.046.023-.069.069-.069.046 0 .069.023.069.069v12.433c0 .023-.023.045-.046.068l-22.002 12.205c-.599.32-.944.913-.944 1.597 0 .662.345 1.278.921 1.597l21.979 12.638a4.263 4.263 0 002.117.571c.736 0 1.473-.206 2.117-.571l19.563-11.338v-32.417c0-.046.046-.068.069-.068.046 0 .069.045.069.068v32.417l-19.632 11.43a4.313 4.313 0 01-2.186.593z" fill="url(#paint25_radial)"/><path d="M157.938 123.473v2.373l26.443-15.171v-2.418l-26.443 15.216z" fill="url(#paint26_linear)"/><path d="M157.936 123.473v2.373l-25.891-14.92v-2.418l25.891 14.965z" fill="url(#paint27_linear)"/><path d="M157.938 122.036v2.35l26.443-15.148v-2.418l-26.443 15.216z" fill="url(#paint28_linear)"/><path d="M157.936 122.036v2.35l-25.891-14.897v-2.441l25.891 14.988z" fill="url(#paint29_linear)"/><path d="M132.045 107.048l25.891 14.988 26.444-15.216-25.937-14.965-26.398 15.193z" fill="url(#paint30_linear)"/><path d="M157.775 121.374l3.315-.752 23.29-13.802-26.605 14.554z" fill="url(#paint31_radial)"/><path d="M158.005 96.76l-2.601-10.403-1.933 1.117 2.577 10.358a63.065 63.065 0 011.888 15.375v8.829l1.933-1.049-.023-8.966a62.148 62.148 0 00-1.841-15.262z" fill="url(#paint32_linear)"/><path d="M153.492 87.474l-25.937-15.056 2.6 10.448a63.694 63.694 0 011.888 15.33v8.875l25.937 14.988v-8.852c0-5.178-.644-10.357-1.887-15.398l-2.601-10.335z" fill="url(#paint33_linear)"/><path d="M127.533 72.418l25.961 15.056 1.91-1.117-25.961-15.034-1.91 1.095z" fill="url(#paint34_linear)"/><path d="M127.533 72.418l26.513 14.623 2.9 14.669-3.844-14.213-25.569-15.08z" fill="url(#paint35_radial)"/><path opacity=".1" d="M18.49 128.332l24.189 13.985 28.33-16.289-24.21-13.961-28.309 16.265z" fill="#000"/><path d="M42.103 144.575a5.595 5.595 0 01-2.738-.73l-21.98-12.638a3.097 3.097 0 01-1.541-2.692c0-1.118.598-2.099 1.588-2.646l21.403-11.863v-11.749c0-.639.53-1.163 1.174-1.163.645 0 1.174.524 1.174 1.163v12.41c0 .411-.23.799-.599 1.004l-22.002 12.205a.744.744 0 00-.39.662c0 .137.045.456.39.661l21.98 12.639a3.19 3.19 0 003.13 0l19.033-11.019V99.063a1.174 1.174 0 012.347 0v32.418c0 .41-.23.798-.575 1.003l-19.609 11.361a5.767 5.767 0 01-2.785.73z" fill="url(#paint36_linear)"/><path opacity=".3" d="M41.92 143.617a4.681 4.681 0 01-2.348-.616l-21.979-12.638a2.206 2.206 0 01-1.15-2.008c0-.844.46-1.574 1.196-1.985l21.795-12.09v-12.205c0-.206.184-.388.391-.388.207 0 .391.182.391.388v12.433a.376.376 0 01-.207.342l-22.002 12.159a1.523 1.523 0 00-.782 1.323c0 .548.276 1.05.76 1.346l21.978 12.639a3.926 3.926 0 001.956.524 3.87 3.87 0 001.957-.524l19.401-11.247V98.858c0-.205.184-.388.391-.388.208 0 .392.183.392.388v32.417c0 .137-.07.274-.184.32l-19.609 11.36a4.501 4.501 0 01-2.348.662z" fill="#fff"/><path d="M41.827 143.161c-.76 0-1.518-.205-2.186-.593l-22.002-12.616c-.621-.365-1.013-1.004-.99-1.734 0-.73.392-1.368 1.036-1.711l21.956-12.182v-12.387c0-.046.046-.069.07-.069.045 0 .068.023.068.069v12.433c0 .023-.023.046-.046.068l-22.002 12.205a1.77 1.77 0 00-.944 1.597c0 .662.346 1.278.921 1.597l21.98 12.638a4.244 4.244 0 002.093.571 4.33 4.33 0 002.118-.571l19.562-11.338V98.744c0-.046.046-.068.07-.068.045 0 .068.045.068.068v32.417l-19.585 11.407a4.153 4.153 0 01-2.187.593z" fill="url(#paint37_radial)"/><path d="M40.607 111.656v2.35l26.444-15.148v-2.44l-26.444 15.238z" fill="url(#paint38_linear)"/><path d="M40.608 111.656v2.35l-25.891-14.92v-2.418l25.891 14.988z" fill="url(#paint39_linear)"/><path d="M40.607 110.219v2.35l26.444-15.148V94.98l-26.444 15.239z" fill="url(#paint40_linear)"/><path d="M40.608 110.219v2.35l-25.891-14.92v-2.418l25.891 14.988z" fill="url(#paint41_linear)"/><path d="M14.717 95.23l25.891 14.989 26.444-15.24-25.937-14.942-26.398 15.194z" fill="url(#paint42_linear)"/><path d="M40.447 109.535l3.314-.753L67.052 94.98l-26.605 14.555z" fill="url(#paint43_radial)"/><path d="M40.676 84.942l-2.6-10.402-1.933 1.117 2.577 10.357a63.075 63.075 0 011.887 15.376v8.829l1.934-1.049v-8.966c0-5.133-.622-10.266-1.864-15.262z" fill="url(#paint44_linear)"/><path d="M36.143 75.657L10.205 60.601l2.6 10.448a63.703 63.703 0 011.888 15.33v8.875l25.937 14.988v-8.852c0-5.178-.644-10.357-1.887-15.398l-2.6-10.335z" fill="url(#paint45_linear)"/><path d="M10.205 60.6l25.938 15.057 1.933-1.117-25.96-15.034-1.91 1.095z" fill="url(#paint46_linear)"/><path d="M10.205 60.6l26.49 14.601 2.923 14.692-3.844-14.236-25.569-15.056z" fill="url(#paint47_radial)"/><path opacity=".1" d="M53.197 148.682l24.189 13.984 28.331-16.289-24.212-13.961-28.308 16.266z" fill="#000"/><path d="M76.81 164.901c-.943 0-1.887-.25-2.738-.73l-21.98-12.638a3.096 3.096 0 01-1.541-2.692c0-1.118.598-2.099 1.588-2.646l21.403-11.863v-11.749a1.174 1.174 0 012.348 0v12.434c0 .41-.23.798-.599 1.003L53.29 148.225a.744.744 0 00-.39.662c0 .137.022.456.39.661l21.98 12.639a3.19 3.19 0 003.13 0l19.033-11.019V119.39a1.174 1.174 0 012.347 0v32.417c0 .41-.23.798-.575 1.004l-19.632 11.36c-.851.48-1.795.73-2.761.73z" fill="url(#paint48_linear)"/><path opacity=".3" d="M76.626 163.943a4.681 4.681 0 01-2.347-.616L52.3 150.666a2.204 2.204 0 01-1.15-2.007c0-.844.46-1.574 1.196-1.985l21.795-12.091v-12.205c0-.205.184-.388.391-.388.207 0 .391.183.391.388v12.433a.375.375 0 01-.207.342l-22.002 12.205a1.523 1.523 0 00-.023 2.647l21.98 12.638a3.928 3.928 0 001.955.525c.691 0 1.381-.183 1.957-.525l19.401-11.247v-32.189c0-.205.184-.388.391-.388.207 0 .392.183.392.388v32.417a.403.403 0 01-.184.343l-19.609 11.36a4.93 4.93 0 01-2.348.616z" fill="#fff"/><path d="M76.535 163.51c-.76 0-1.52-.205-2.186-.57l-21.98-12.639c-.62-.365-1.012-1.004-.99-1.734 0-.73.392-1.368 1.037-1.711l21.956-12.182v-12.387c0-.046.022-.069.069-.069.046 0 .069.023.069.069v12.433c0 .023-.023.046-.046.068l-22.002 12.205c-.599.32-.944.913-.944 1.597 0 .662.345 1.278.92 1.597l21.98 12.639a4.24 4.24 0 002.094.57 4.26 4.26 0 002.117-.57l19.563-11.338V119.07c0-.045.046-.068.069-.068.046 0 .069.023.069.068v32.418l-19.632 11.429a4.221 4.221 0 01-2.163.593z" fill="url(#paint49_radial)"/><path d="M75.314 131.982v2.35l26.444-15.148v-2.418l-26.444 15.216z" fill="url(#paint50_linear)"/><path d="M75.315 131.982v2.35l-25.891-14.897v-2.441l25.891 14.988z" fill="url(#paint51_linear)"/><path d="M75.314 130.545v2.35l26.444-15.148v-2.441l-26.444 15.239z" fill="url(#paint52_linear)"/><path d="M75.315 130.545v2.35l-25.891-14.92v-2.418l25.891 14.988z" fill="url(#paint53_linear)"/><path d="M49.424 115.557l25.891 14.988 26.444-15.239-25.937-14.942-26.398 15.193z" fill="url(#paint54_linear)"/><path d="M75.154 129.861l3.314-.753 23.291-13.802-26.605 14.555z" fill="url(#paint55_radial)"/><path d="M75.383 105.268l-2.6-10.402-1.933 1.118 2.577 10.357a63.069 63.069 0 011.887 15.376v8.828l1.934-1.049v-8.966c0-5.133-.622-10.266-1.865-15.262z" fill="url(#paint56_linear)"/><path d="M70.85 95.984L44.912 80.927l2.6 10.448a63.703 63.703 0 011.888 15.331v8.874l25.938 14.988v-8.851a64.4 64.4 0 00-1.888-15.399l-2.6-10.334z" fill="url(#paint57_linear)"/><path d="M44.912 80.927L70.85 95.984l1.933-1.118-25.96-15.034-1.91 1.095z" fill="url(#paint58_linear)"/><path d="M44.912 80.927l26.49 14.623 2.923 14.669-3.844-14.213-25.569-15.079z" fill="url(#paint59_radial)"/><path opacity=".1" d="M86.936 168.323l24.188 13.985 28.308-16.311-24.211-13.962-28.285 16.288z" fill="#000"/><path d="M110.525 184.543a5.592 5.592 0 01-2.738-.73l-21.98-12.638c-.966-.57-1.541-1.551-1.541-2.669s.598-2.099 1.588-2.646l21.403-11.863v-11.749c0-.639.53-1.163 1.174-1.163.644 0 1.174.524 1.174 1.163v12.433c0 .411-.23.799-.599 1.004L87.004 167.89a.743.743 0 00-.39.662c0 .136.045.456.39.661l21.979 12.639a3.19 3.19 0 003.13 0l19.033-11.019v-31.801a1.174 1.174 0 012.348 0v32.417c0 .41-.23.798-.575 1.004l-19.632 11.36a5.614 5.614 0 01-2.762.73z" fill="url(#paint60_linear)"/><path opacity=".3" d="M110.342 183.585a4.68 4.68 0 01-2.347-.616l-21.979-12.638c-.737-.411-1.15-1.163-1.15-2.007 0-.845.46-1.575 1.196-1.985l21.795-12.091v-12.205c0-.205.184-.388.391-.388.207 0 .391.183.391.388v12.433a.375.375 0 01-.207.342L86.43 167.023a1.523 1.523 0 00-.782 1.323c0 .548.276 1.05.76 1.346l21.978 12.639a3.929 3.929 0 001.956.524c.691 0 1.381-.182 1.957-.524l19.401-11.247v-32.235c0-.205.184-.388.391-.388.207 0 .392.183.392.388v32.395c0 .136-.069.273-.185.319l-19.608 11.361a4.45 4.45 0 01-2.348.661z" fill="#fff"/><path d="M110.25 183.152c-.76 0-1.519-.205-2.187-.57l-21.979-12.639c-.621-.365-1.012-1.004-.99-1.734 0-.73.392-1.368 1.036-1.711l21.956-12.182v-12.387c0-.046.023-.069.069-.069.046 0 .069.046.069.069v12.433c0 .023-.023.046-.046.068l-22.002 12.205a1.77 1.77 0 00-.943 1.597c0 .662.345 1.278.92 1.597l21.979 12.638a4.267 4.267 0 002.118.571c.736 0 1.473-.206 2.117-.571l19.563-11.338v-32.417c0-.045.046-.068.069-.068.046 0 .069.023.069.068v32.417l-19.632 11.43a4.303 4.303 0 01-2.186.593z" fill="url(#paint61_radial)"/><path d="M109.029 151.624v2.35l26.444-15.148v-2.418l-26.444 15.216z" fill="url(#paint62_linear)"/><path d="M109.053 151.624v2.35l-25.914-14.897v-2.441l25.914 14.988z" fill="url(#paint63_linear)"/><path d="M109.029 150.187v2.35l26.444-15.148v-2.441l-26.444 15.239z" fill="url(#paint64_linear)"/><path d="M109.053 150.187v2.35l-25.914-14.92v-2.418l25.914 14.988z" fill="url(#paint65_linear)"/><path d="M83.139 135.199l25.914 14.988 26.421-15.239-25.938-14.942-26.397 15.193z" fill="url(#paint66_linear)"/><path d="M108.869 149.503l3.314-.753 23.291-13.802-26.605 14.555z" fill="url(#paint67_radial)"/><path d="M109.098 124.91l-2.6-10.402-1.934 1.118 2.578 10.357a63.059 63.059 0 011.887 15.376v8.828l1.934-1.049-.023-8.966a62.105 62.105 0 00-1.842-15.262z" fill="url(#paint68_linear)"/><path d="M104.586 115.626l-25.938-15.057 2.601 10.448a63.708 63.708 0 011.887 15.331v8.851l25.938 14.988v-8.828a64.44 64.44 0 00-1.887-15.399l-2.601-10.334z" fill="url(#paint69_linear)"/><path d="M78.627 100.569l25.96 15.057 1.911-1.118-25.96-15.034-1.911 1.095z" fill="url(#paint70_linear)"/><path d="M78.627 100.569l26.513 14.6 2.9 14.692-3.844-14.213-25.569-15.079z" fill="url(#paint71_radial)"/><path opacity=".1" d="M-29.426 156.484l24.189 13.984 28.33-16.289-24.21-13.961-28.309 16.266z" fill="#000"/><path d="M-5.813 172.726c-.943 0-1.887-.25-2.738-.73l-21.98-12.638c-.966-.57-1.541-1.551-1.541-2.669s.598-2.099 1.588-2.646l21.403-11.863v-11.749c0-.639.53-1.163 1.174-1.163.645 0 1.174.524 1.174 1.163v12.433c0 .411-.23.799-.599 1.004l-22.002 12.205a.744.744 0 00-.39.662.73.73 0 00.367.661l21.98 12.639a3.19 3.19 0 003.13 0l19.033-11.019v-31.801a1.174 1.174 0 012.347 0v32.417c0 .41-.207.798-.575 1.004l-19.609 11.36a5.67 5.67 0 01-2.762.73z" fill="url(#paint72_linear)"/><path opacity=".3" d="M-5.997 171.745a4.69 4.69 0 01-2.347-.615l-21.979-12.639a2.203 2.203 0 01-1.15-2.007c0-.844.46-1.574 1.196-1.985l21.795-12.091V130.18c0-.205.184-.388.391-.388.207 0 .391.183.391.388v12.433a.378.378 0 01-.207.343l-22.002 12.204a1.523 1.523 0 00-.782 1.324c0 .547.276 1.049.76 1.346l21.978 12.638a3.928 3.928 0 001.956.525 3.87 3.87 0 001.957-.525l19.401-11.247v-32.212c0-.205.184-.388.391-.388.207 0 .392.183.392.388v32.417c0 .137-.07.251-.184.343L-3.65 171.13a4.69 4.69 0 01-2.348.615z" fill="#fff"/><path d="M-6.112 171.312c-.76 0-1.519-.205-2.186-.593l-21.979-12.638c-.621-.366-1.013-1.004-.99-1.734 0-.73.392-1.369 1.036-1.734l21.956-12.182v-12.388c0-.045.023-.068.07-.068.045 0 .068.046.068.068v12.456c0 .023-.023.046-.046.069l-22.002 12.205a1.768 1.768 0 00-.944 1.597c0 .661.346 1.277.921 1.596l21.98 12.639c.643.365 1.357.57 2.093.57.737 0 1.473-.205 2.118-.57l19.562-11.338v-32.395c0-.045.046-.068.07-.068.045 0 .068.046.068.068v32.418l-19.631 11.429c-.622.388-1.381.593-2.164.593z" fill="url(#paint73_radial)"/><path d="M-7.309 139.785v2.372l26.421-15.171v-2.418l-26.42 15.217z" fill="url(#paint74_linear)"/><path d="M-7.309 138.347v2.35l26.421-15.148v-2.418l-26.42 15.216z" fill="url(#paint75_linear)"/><path d="M-33.223 123.359l25.915 14.988 26.42-15.216-25.914-14.965-26.42 15.193z" fill="url(#paint76_linear)"/><path d="M-7.492 137.686l3.337-.753 23.268-13.802-26.605 14.555z" fill="url(#paint77_radial)"/><path opacity=".1" d="M5.28 176.81l24.188 14.007 28.33-16.311-24.21-13.962-28.31 16.266z" fill="#000"/><path d="M28.892 193.053a5.594 5.594 0 01-2.738-.73l-21.98-12.639c-.966-.57-1.541-1.551-1.541-2.669s.598-2.099 1.588-2.646l21.404-11.863v-11.794a1.174 1.174 0 012.347 0v12.433c0 .411-.23.798-.598 1.004L5.349 176.354a.742.742 0 00-.392.661c0 .137.023.456.392.662l21.979 12.638a3.185 3.185 0 003.13 0l19.033-11.019v-31.755a1.174 1.174 0 012.347 0v32.417c0 .411-.23.798-.575 1.004l-19.609 11.361a5.68 5.68 0 01-2.762.73z" fill="url(#paint78_linear)"/><path opacity=".3" d="M28.709 192.094a4.94 4.94 0 01-2.348-.615L4.382 178.84a2.204 2.204 0 01-1.15-2.007c0-.844.46-1.574 1.196-1.985l21.795-12.091v-12.205c0-.205.184-.388.391-.388.207 0 .392.183.392.388v12.433c0 .137-.07.274-.208.342L4.796 175.532a1.523 1.523 0 00-.782 1.323c0 .548.276 1.05.76 1.346l21.978 12.639a3.927 3.927 0 001.957.524c.69 0 1.38-.182 1.956-.524l19.401-11.247v-32.257c0-.206.184-.388.391-.388.208 0 .392.182.392.388v32.417c0 .137-.07.273-.184.342l-19.609 11.361a4.712 4.712 0 01-2.347.638z" fill="#fff"/><path d="M28.593 191.661a4.368 4.368 0 01-2.186-.593L4.428 178.43c-.621-.365-1.013-1.004-.99-1.734 0-.73.392-1.369 1.036-1.711l21.956-12.182v-12.388c0-.045.023-.068.07-.068.045 0 .068.045.068.068v12.433c0 .023-.023.046-.046.069L4.52 175.122c-.598.319-.943.912-.943 1.597 0 .661.345 1.277.92 1.597l21.98 12.638c.643.365 1.357.57 2.116.57.737 0 1.473-.205 2.118-.57l19.562-11.338v-32.395c0-.045.046-.068.07-.068.045 0 .068.046.068.068v32.418L30.78 191.068a4.476 4.476 0 01-2.187.593z" fill="url(#paint79_radial)"/><path d="M27.396 160.134v2.349l26.421-15.147v-2.441l-26.42 15.239z" fill="url(#paint80_linear)"/><path d="M27.397 160.134v2.349L1.482 147.564v-2.419l25.915 14.989z" fill="url(#paint81_linear)"/><path d="M27.396 158.696v2.35l26.421-15.148v-2.441l-26.42 15.239z" fill="url(#paint82_linear)"/><path d="M27.397 158.696v2.35l-25.915-14.92v-2.418l25.915 14.988z" fill="url(#paint83_linear)"/><path d="M1.482 143.708l25.915 14.988 26.42-15.239-25.914-14.965-26.42 15.216z" fill="url(#paint84_linear)"/><path d="M27.213 158.012l3.337-.753 23.268-13.802-26.605 14.555z" fill="url(#paint85_radial)"/><path d="M27.442 133.42l-2.577-10.403-1.933 1.118 2.577 10.357a63.075 63.075 0 011.887 15.376v8.828l1.934-1.049-.023-8.965c.023-5.133-.622-10.266-1.864-15.262z" fill="url(#paint86_linear)"/><path d="M22.932 124.135l-25.938-15.057 2.6 10.449a63.694 63.694 0 011.888 15.33v8.874l25.938 14.965v-8.851c0-5.179-.645-10.357-1.888-15.399l-2.6-10.311z" fill="url(#paint87_linear)"/><path d="M-3.006 109.078l25.938 15.057 1.933-1.118-25.96-15.034-1.91 1.095z" fill="url(#paint88_linear)"/><path d="M-3.006 109.078l26.49 14.6 2.923 14.692-3.844-14.235-25.569-15.057z" fill="url(#paint89_radial)"/><path opacity=".3" d="M180.867-.197v14.838" stroke="#06EDE1"/><path fill="url(#paint90_linear)" d="M184.148 12.524h4.916v4.769h-4.916z"/><path fill="url(#paint91_linear)" d="M184.148 5.636h3.278v3.179h-3.278z"/><path d="M216.087 83.796c.127.062.317.062.444.125.127 0 .191.063.318.063.064 0 .191.063.254.063.127 0 .191.063.318.063.063 0-.89 1.32-.826 1.32.127 0-2.16 1.32-2.16 1.32-.127.062-.191.125-.318.188h-.19c-.064.063-.128.063-.128.063-.063 0-.127.062-.19.062h-.191c-.127.063-.254.063-.381.063h-1.08c-.064 0-.127 0-.254-.063h-.127c-.064 0-.064 0-.127-.063-.127-.062-.254-.062-.445-.125-.063 0-.127-.063-.191-.063l-.063-.063c-.254-.125-.508-.188-.762-.377L58.845 5.304a5.86 5.86 0 00-.635-.377c-.064 0-.127-.062-.191-.125-.127-.063-.254-.189-.381-.314-.064-.063-.127-.126-.19-.126-.128-.063-.255-.189-.382-.314l-.19-.189c-.064-.063-.128-.063-.128-.126l-.127-.125-.38-.377-.128-.126-.127-.126c-.063-.063-.127-.188-.254-.314-.064-.063-.127-.126-.127-.188-.064-.063-.064-.126-.127-.126-.064-.063-.127-.189-.19-.252-.064-.062-.064-.125-.128-.125-.063-.126-.127-.189-.19-.314-.064-.063-.064-.126-.128-.189 0 0 0-.063-.063-.063-.127-.188-.254-.314-.318-.503 0 0 0-.062-.063-.062V.78c-.064-.126-.19-.252-.254-.377-.064-.063-.064-.126-.127-.189 0-.063-.064-.125-.064-.188s-.064-.126-.064-.189c-.063-.126-.19-.314-.19-.44 0 0 0-.063-.064-.063a2.2 2.2 0 00-.254-.565c0-.063-.063-.063-.063-.126s-.064-.126-.064-.188c0-.126-.063-.189-.127-.252s-.064-.188-.064-.251S53-2.174 53-2.237s-.063-.125-.063-.188c-.064-.063-.064-.189-.064-.314 0-.126-.064-.189-.064-.315 0-.062 0-.062-.063-.125 0-.063 0-.126-.064-.252-.063-.125-.063-.314-.127-.502 0-.063 0-.063-.063-.126 0-.126 0-.189-.064-.314v-.189c0-.251-.063-.44-.063-.691l5.082-3.08c0 .252 0 .44.064.692v.251c0 .126.063.252.063.44.064.189.064.314.127.503 0 .126.064.251.064.314 0 .126.063.189.063.314.064.126.064.314.127.44 0 .063.064.189.064.252.064.188.127.314.19.502 0 .063.064.126.064.189.064.251.19.44.318.691 0 0 0 .063.063.063.064.188.19.377.318.566.063.062.063.125.063.188.128.189.191.377.318.566.064 0 .064.062.064.125.127.189.254.44.38.629.065.063.065.125.128.188.127.126.19.314.318.44l.19.189c.127.125.19.251.318.314.063.126.19.188.254.314l.254.252.445.44c.063.125.19.188.254.25l.19.19c.128.125.255.188.382.314l.19.188c.127.126.255.189.382.251.063.063.127.063.19.126l.572.377 151.143 81.13.762.378a.58.58 0 01.318.063z" fill="url(#paint92_linear)"/><path d="M212.843 82.63l-2.351-95.52 5.083-3.08 2.414 99.23c.064 1.696-1.461 2.827-2.351 3.33-2.59 1.602-2.633.845-2.795-3.96z" fill="url(#paint93_linear)"/><path d="M56.044-106.464c-3.494-1.885-6.226-.251-6.162 3.645l2.35 95.521c.064 3.897 2.987 8.547 6.48 10.432l151.525 81.32c3.494 1.885 6.226-.44 6.099-4.337l-2.351-94.83c-.064-3.896-2.986-8.547-6.48-10.432l-151.46-81.319z" fill="url(#paint94_linear)"/><path d="M58.352-100.375l145.425 78.051c3.177 1.697 5.781 5.97 5.908 9.49l2.097 86.723c.063 3.582-2.414 5.028-5.591 3.33L60.83-.83c-3.177-1.697-5.782-5.97-5.909-9.49l-2.096-86.723c-.127-3.519 2.414-5.028 5.527-3.331z" fill="url(#paint95_radial)"/><path opacity=".1" d="M58.585-100.305l30.152 15.634 27.636 113.055L60.999-.825c-3.177-1.696-5.782-5.907-5.845-9.489l-2.097-86.724c-.127-3.519 2.351-4.964 5.528-3.267z" fill="url(#paint96_linear)"/></g><defs><linearGradient id="paint0_linear" x1="78.43" y1="118.925" x2="112.389" y2="64.055" gradientUnits="userSpaceOnUse"><stop offset=".035" stop-color="#6B24D6"/><stop offset=".294" stop-color="#7733DC"/><stop offset=".794" stop-color="#975CED"/><stop offset="1" stop-color="#A56EF4"/></linearGradient><linearGradient id="paint2_linear" x1="94.461" y1="79.527" x2="150.294" y2="62.661" gradientUnits="userSpaceOnUse"><stop offset=".035" stop-color="#6B24D6"/><stop offset=".294" stop-color="#7733DC"/><stop offset=".794" stop-color="#975CED"/><stop offset="1" stop-color="#A56EF4"/></linearGradient><linearGradient id="paint3_linear" x1="41.373" y1="85.016" x2="113.246" y2="68.762" gradientUnits="userSpaceOnUse"><stop offset=".035" stop-color="#6B24D6"/><stop offset=".294" stop-color="#7733DC"/><stop offset=".794" stop-color="#975CED"/><stop offset="1" stop-color="#A56EF4"/></linearGradient><linearGradient id="paint4_linear" x1="94.461" y1="78.084" x2="150.294" y2="61.218" gradientUnits="userSpaceOnUse"><stop offset=".035" stop-color="#9F19AB"/><stop offset=".244" stop-color="#AE25B1"/><stop offset=".645" stop-color="#D744BF"/><stop offset="1" stop-color="#FF63CE"/></linearGradient><linearGradient id="paint5_linear" x1="41.374" y1="83.573" x2="113.246" y2="67.319" gradientUnits="userSpaceOnUse"><stop offset=".035" stop-color="#9F19AB"/><stop offset=".244" stop-color="#AE25B1"/><stop offset=".645" stop-color="#D744BF"/><stop offset="1" stop-color="#FF63CE"/></linearGradient><linearGradient id="paint6_linear" x1="115.661" y1="18.071" x2="86.511" y2="74.116" gradientUnits="userSpaceOnUse"><stop offset=".035" stop-color="#9F19AB"/><stop offset=".244" stop-color="#AE25B1"/><stop offset=".645" stop-color="#D744BF"/><stop offset="1" stop-color="#FF63CE"/></linearGradient><linearGradient id="paint8_linear" x1="86.11" y1="64.869" x2="100.596" y2="60.493" gradientUnits="userSpaceOnUse"><stop offset=".035" stop-color="#9F19AB"/><stop offset=".244" stop-color="#AE25B1"/><stop offset=".645" stop-color="#D744BF"/><stop offset="1" stop-color="#FF63CE"/></linearGradient><linearGradient id="paint9_linear" x1="34.552" y1="66.1" x2="116.037" y2="47.672" gradientUnits="userSpaceOnUse"><stop offset=".035" stop-color="#9F19AB"/><stop offset=".244" stop-color="#AE25B1"/><stop offset=".645" stop-color="#D744BF"/><stop offset="1" stop-color="#FF63CE"/></linearGradient><linearGradient id="paint10_linear" x1="76.148" y1="33.566" x2="72.652" y2="40.288" gradientUnits="userSpaceOnUse"><stop offset=".035" stop-color="#9F19AB"/><stop offset=".244" stop-color="#AE25B1"/><stop offset=".645" stop-color="#D744BF"/><stop offset="1" stop-color="#FF63CE"/></linearGradient><linearGradient id="paint12_linear" x1="113.137" y1="139.259" x2="147.095" y2="84.39" gradientUnits="userSpaceOnUse"><stop offset=".035" stop-color="#6B24D6"/><stop offset=".294" stop-color="#7733DC"/><stop offset=".794" stop-color="#975CED"/><stop offset="1" stop-color="#A56EF4"/></linearGradient><linearGradient id="paint14_linear" x1="129.167" y1="99.861" x2="184.998" y2="82.996" gradientUnits="userSpaceOnUse"><stop offset=".035" stop-color="#6B24D6"/><stop offset=".294" stop-color="#7733DC"/><stop offset=".794" stop-color="#975CED"/><stop offset="1" stop-color="#A56EF4"/></linearGradient><linearGradient id="paint15_linear" x1="76.08" y1="105.35" x2="147.953" y2="89.096" gradientUnits="userSpaceOnUse"><stop offset=".035" stop-color="#6B24D6"/><stop offset=".294" stop-color="#7733DC"/><stop offset=".794" stop-color="#975CED"/><stop offset="1" stop-color="#A56EF4"/></linearGradient><linearGradient id="paint16_linear" x1="129.167" y1="98.418" x2="184.998" y2="81.553" gradientUnits="userSpaceOnUse"><stop offset=".035" stop-color="#9F19AB"/><stop offset=".244" stop-color="#AE25B1"/><stop offset=".645" stop-color="#D744BF"/><stop offset="1" stop-color="#FF63CE"/></linearGradient><linearGradient id="paint17_linear" x1="76.08" y1="103.907" x2="147.953" y2="87.653" gradientUnits="userSpaceOnUse"><stop offset=".035" stop-color="#9F19AB"/><stop offset=".244" stop-color="#AE25B1"/><stop offset=".645" stop-color="#D744BF"/><stop offset="1" stop-color="#FF63CE"/></linearGradient><linearGradient id="paint18_linear" x1="150.367" y1="38.405" x2="121.218" y2="94.45" gradientUnits="userSpaceOnUse"><stop offset=".035" stop-color="#9F19AB"/><stop offset=".244" stop-color="#AE25B1"/><stop offset=".645" stop-color="#D744BF"/><stop offset="1" stop-color="#FF63CE"/></linearGradient><linearGradient id="paint20_linear" x1="120.816" y1="85.204" x2="135.301" y2="80.829" gradientUnits="userSpaceOnUse"><stop offset=".035" stop-color="#9F19AB"/><stop offset=".244" stop-color="#AE25B1"/><stop offset=".645" stop-color="#D744BF"/><stop offset="1" stop-color="#FF63CE"/></linearGradient><linearGradient id="paint21_linear" x1="69.257" y1="86.436" x2="150.746" y2="68.007" gradientUnits="userSpaceOnUse"><stop offset=".035" stop-color="#9F19AB"/><stop offset=".244" stop-color="#AE25B1"/><stop offset=".645" stop-color="#D744BF"/><stop offset="1" stop-color="#FF63CE"/></linearGradient><linearGradient id="paint22_linear" x1="110.856" y1="53.898" x2="107.358" y2="60.623" gradientUnits="userSpaceOnUse"><stop offset=".035" stop-color="#9F19AB"/><stop offset=".244" stop-color="#AE25B1"/><stop offset=".645" stop-color="#D744BF"/><stop offset="1" stop-color="#FF63CE"/></linearGradient><linearGradient id="paint24_linear" x1="146.858" y1="158.897" x2="180.815" y2="104.029" gradientUnits="userSpaceOnUse"><stop offset=".035" stop-color="#6B24D6"/><stop offset=".294" stop-color="#7733DC"/><stop offset=".794" stop-color="#975CED"/><stop offset="1" stop-color="#A56EF4"/></linearGradient><linearGradient id="paint26_linear" x1="162.89" y1="119.499" x2="218.722" y2="102.633" gradientUnits="userSpaceOnUse"><stop offset=".035" stop-color="#6B24D6"/><stop offset=".294" stop-color="#7733DC"/><stop offset=".794" stop-color="#975CED"/><stop offset="1" stop-color="#A56EF4"/></linearGradient><linearGradient id="paint27_linear" x1="109.801" y1="124.987" x2="181.672" y2="108.734" gradientUnits="userSpaceOnUse"><stop offset=".035" stop-color="#6B24D6"/><stop offset=".294" stop-color="#7733DC"/><stop offset=".794" stop-color="#975CED"/><stop offset="1" stop-color="#A56EF4"/></linearGradient><linearGradient id="paint28_linear" x1="162.89" y1="118.057" x2="218.722" y2="101.191" gradientUnits="userSpaceOnUse"><stop offset=".035" stop-color="#9F19AB"/><stop offset=".244" stop-color="#AE25B1"/><stop offset=".645" stop-color="#D744BF"/><stop offset="1" stop-color="#FF63CE"/></linearGradient><linearGradient id="paint29_linear" x1="109.8" y1="123.545" x2="181.672" y2="107.291" gradientUnits="userSpaceOnUse"><stop offset=".035" stop-color="#9F19AB"/><stop offset=".244" stop-color="#AE25B1"/><stop offset=".645" stop-color="#D744BF"/><stop offset="1" stop-color="#FF63CE"/></linearGradient><linearGradient id="paint30_linear" x1="184.088" y1="58.044" x2="154.938" y2="114.089" gradientUnits="userSpaceOnUse"><stop offset=".035" stop-color="#9F19AB"/><stop offset=".244" stop-color="#AE25B1"/><stop offset=".645" stop-color="#D744BF"/><stop offset="1" stop-color="#FF63CE"/></linearGradient><linearGradient id="paint32_linear" x1="154.537" y1="104.842" x2="169.024" y2="100.466" gradientUnits="userSpaceOnUse"><stop offset=".035" stop-color="#9F19AB"/><stop offset=".244" stop-color="#AE25B1"/><stop offset=".645" stop-color="#D744BF"/><stop offset="1" stop-color="#FF63CE"/></linearGradient><linearGradient id="paint33_linear" x1="102.977" y1="106.074" x2="184.464" y2="87.645" gradientUnits="userSpaceOnUse"><stop offset=".035" stop-color="#9F19AB"/><stop offset=".244" stop-color="#AE25B1"/><stop offset=".645" stop-color="#D744BF"/><stop offset="1" stop-color="#FF63CE"/></linearGradient><linearGradient id="paint34_linear" x1="144.574" y1="73.541" x2="141.079" y2="80.26" gradientUnits="userSpaceOnUse"><stop offset=".035" stop-color="#9F19AB"/><stop offset=".244" stop-color="#AE25B1"/><stop offset=".645" stop-color="#D744BF"/><stop offset="1" stop-color="#FF63CE"/></linearGradient><linearGradient id="paint36_linear" x1="29.524" y1="147.068" x2="63.482" y2="92.199" gradientUnits="userSpaceOnUse"><stop offset=".035" stop-color="#6B24D6"/><stop offset=".294" stop-color="#7733DC"/><stop offset=".794" stop-color="#975CED"/><stop offset="1" stop-color="#A56EF4"/></linearGradient><linearGradient id="paint38_linear" x1="45.554" y1="107.67" x2="101.386" y2="90.804" gradientUnits="userSpaceOnUse"><stop offset=".035" stop-color="#6B24D6"/><stop offset=".294" stop-color="#7733DC"/><stop offset=".794" stop-color="#975CED"/><stop offset="1" stop-color="#A56EF4"/></linearGradient><linearGradient id="paint39_linear" x1="-7.535" y1="113.159" x2="64.341" y2="96.904" gradientUnits="userSpaceOnUse"><stop offset=".035" stop-color="#6B24D6"/><stop offset=".294" stop-color="#7733DC"/><stop offset=".794" stop-color="#975CED"/><stop offset="1" stop-color="#A56EF4"/></linearGradient><linearGradient id="paint40_linear" x1="45.554" y1="106.227" x2="101.386" y2="89.361" gradientUnits="userSpaceOnUse"><stop offset=".035" stop-color="#9F19AB"/><stop offset=".244" stop-color="#AE25B1"/><stop offset=".645" stop-color="#D744BF"/><stop offset="1" stop-color="#FF63CE"/></linearGradient><linearGradient id="paint41_linear" x1="-7.535" y1="111.715" x2="64.341" y2="95.46" gradientUnits="userSpaceOnUse"><stop offset=".035" stop-color="#9F19AB"/><stop offset=".244" stop-color="#AE25B1"/><stop offset=".645" stop-color="#D744BF"/><stop offset="1" stop-color="#FF63CE"/></linearGradient><linearGradient id="paint42_linear" x1="66.753" y1="46.216" x2="37.604" y2="102.259" gradientUnits="userSpaceOnUse"><stop offset=".035" stop-color="#9F19AB"/><stop offset=".244" stop-color="#AE25B1"/><stop offset=".645" stop-color="#D744BF"/><stop offset="1" stop-color="#FF63CE"/></linearGradient><linearGradient id="paint44_linear" x1="37.203" y1="93.013" x2="51.69" y2="88.636" gradientUnits="userSpaceOnUse"><stop offset=".035" stop-color="#9F19AB"/><stop offset=".244" stop-color="#AE25B1"/><stop offset=".645" stop-color="#D744BF"/><stop offset="1" stop-color="#FF63CE"/></linearGradient><linearGradient id="paint45_linear" x1="-14.357" y1="94.244" x2="67.133" y2="75.815" gradientUnits="userSpaceOnUse"><stop offset=".035" stop-color="#9F19AB"/><stop offset=".244" stop-color="#AE25B1"/><stop offset=".645" stop-color="#D744BF"/><stop offset="1" stop-color="#FF63CE"/></linearGradient><linearGradient id="paint46_linear" x1="27.241" y1="61.709" x2="23.745" y2="68.431" gradientUnits="userSpaceOnUse"><stop offset=".035" stop-color="#9F19AB"/><stop offset=".244" stop-color="#AE25B1"/><stop offset=".645" stop-color="#D744BF"/><stop offset="1" stop-color="#FF63CE"/></linearGradient><linearGradient id="paint48_linear" x1="64.23" y1="167.403" x2="98.189" y2="112.533" gradientUnits="userSpaceOnUse"><stop offset=".035" stop-color="#6B24D6"/><stop offset=".294" stop-color="#7733DC"/><stop offset=".794" stop-color="#975CED"/><stop offset="1" stop-color="#A56EF4"/></linearGradient><linearGradient id="paint50_linear" x1="80.261" y1="128.005" x2="136.094" y2="111.139" gradientUnits="userSpaceOnUse"><stop offset=".035" stop-color="#6B24D6"/><stop offset=".294" stop-color="#7733DC"/><stop offset=".794" stop-color="#975CED"/><stop offset="1" stop-color="#A56EF4"/></linearGradient><linearGradient id="paint51_linear" x1="27.174" y1="133.494" x2="99.046" y2="117.24" gradientUnits="userSpaceOnUse"><stop offset=".035" stop-color="#6B24D6"/><stop offset=".294" stop-color="#7733DC"/><stop offset=".794" stop-color="#975CED"/><stop offset="1" stop-color="#A56EF4"/></linearGradient><linearGradient id="paint52_linear" x1="80.261" y1="126.562" x2="136.093" y2="109.696" gradientUnits="userSpaceOnUse"><stop offset=".035" stop-color="#9F19AB"/><stop offset=".244" stop-color="#AE25B1"/><stop offset=".645" stop-color="#D744BF"/><stop offset="1" stop-color="#FF63CE"/></linearGradient><linearGradient id="paint53_linear" x1="27.174" y1="132.049" x2="99.045" y2="115.795" gradientUnits="userSpaceOnUse"><stop offset=".035" stop-color="#9F19AB"/><stop offset=".244" stop-color="#AE25B1"/><stop offset=".645" stop-color="#D744BF"/><stop offset="1" stop-color="#FF63CE"/></linearGradient><linearGradient id="paint54_linear" x1="101.461" y1="66.549" x2="72.311" y2="122.594" gradientUnits="userSpaceOnUse"><stop offset=".035" stop-color="#9F19AB"/><stop offset=".244" stop-color="#AE25B1"/><stop offset=".645" stop-color="#D744BF"/><stop offset="1" stop-color="#FF63CE"/></linearGradient><linearGradient id="paint56_linear" x1="71.91" y1="113.347" x2="86.397" y2="108.97" gradientUnits="userSpaceOnUse"><stop offset=".035" stop-color="#9F19AB"/><stop offset=".244" stop-color="#AE25B1"/><stop offset=".645" stop-color="#D744BF"/><stop offset="1" stop-color="#FF63CE"/></linearGradient><linearGradient id="paint57_linear" x1="20.352" y1="114.578" x2="101.838" y2="96.15" gradientUnits="userSpaceOnUse"><stop offset=".035" stop-color="#9F19AB"/><stop offset=".244" stop-color="#AE25B1"/><stop offset=".645" stop-color="#D744BF"/><stop offset="1" stop-color="#FF63CE"/></linearGradient><linearGradient id="paint58_linear" x1="61.949" y1="82.043" x2="58.452" y2="88.765" gradientUnits="userSpaceOnUse"><stop offset=".035" stop-color="#9F19AB"/><stop offset=".244" stop-color="#AE25B1"/><stop offset=".645" stop-color="#D744BF"/><stop offset="1" stop-color="#FF63CE"/></linearGradient><linearGradient id="paint60_linear" x1="97.951" y1="187.039" x2="131.909" y2="132.171" gradientUnits="userSpaceOnUse"><stop offset=".035" stop-color="#6B24D6"/><stop offset=".294" stop-color="#7733DC"/><stop offset=".794" stop-color="#975CED"/><stop offset="1" stop-color="#A56EF4"/></linearGradient><linearGradient id="paint62_linear" x1="113.981" y1="147.642" x2="169.812" y2="130.777" gradientUnits="userSpaceOnUse"><stop offset=".035" stop-color="#6B24D6"/><stop offset=".294" stop-color="#7733DC"/><stop offset=".794" stop-color="#975CED"/><stop offset="1" stop-color="#A56EF4"/></linearGradient><linearGradient id="paint63_linear" x1="60.892" y1="153.13" x2="132.768" y2="136.876" gradientUnits="userSpaceOnUse"><stop offset=".035" stop-color="#6B24D6"/><stop offset=".294" stop-color="#7733DC"/><stop offset=".794" stop-color="#975CED"/><stop offset="1" stop-color="#A56EF4"/></linearGradient><linearGradient id="paint64_linear" x1="113.981" y1="146.2" x2="169.813" y2="129.335" gradientUnits="userSpaceOnUse"><stop offset=".035" stop-color="#9F19AB"/><stop offset=".244" stop-color="#AE25B1"/><stop offset=".645" stop-color="#D744BF"/><stop offset="1" stop-color="#FF63CE"/></linearGradient><linearGradient id="paint65_linear" x1="60.892" y1="151.688" x2="132.768" y2="135.434" gradientUnits="userSpaceOnUse"><stop offset=".035" stop-color="#9F19AB"/><stop offset=".244" stop-color="#AE25B1"/><stop offset=".645" stop-color="#D744BF"/><stop offset="1" stop-color="#FF63CE"/></linearGradient><linearGradient id="paint66_linear" x1="135.181" y1="86.186" x2="106.031" y2="142.232" gradientUnits="userSpaceOnUse"><stop offset=".035" stop-color="#9F19AB"/><stop offset=".244" stop-color="#AE25B1"/><stop offset=".645" stop-color="#D744BF"/><stop offset="1" stop-color="#FF63CE"/></linearGradient><linearGradient id="paint68_linear" x1="105.63" y1="132.986" x2="120.117" y2="128.609" gradientUnits="userSpaceOnUse"><stop offset=".035" stop-color="#9F19AB"/><stop offset=".244" stop-color="#AE25B1"/><stop offset=".645" stop-color="#D744BF"/><stop offset="1" stop-color="#FF63CE"/></linearGradient><linearGradient id="paint69_linear" x1="54.069" y1="134.216" x2="135.559" y2="115.787" gradientUnits="userSpaceOnUse"><stop offset=".035" stop-color="#9F19AB"/><stop offset=".244" stop-color="#AE25B1"/><stop offset=".645" stop-color="#D744BF"/><stop offset="1" stop-color="#FF63CE"/></linearGradient><linearGradient id="paint70_linear" x1="95.668" y1="101.682" x2="92.172" y2="108.403" gradientUnits="userSpaceOnUse"><stop offset=".035" stop-color="#9F19AB"/><stop offset=".244" stop-color="#AE25B1"/><stop offset=".645" stop-color="#D744BF"/><stop offset="1" stop-color="#FF63CE"/></linearGradient><linearGradient id="paint72_linear" x1="-18.397" y1="175.211" x2="15.561" y2="120.343" gradientUnits="userSpaceOnUse"><stop offset=".035" stop-color="#6B24D6"/><stop offset=".294" stop-color="#7733DC"/><stop offset=".794" stop-color="#975CED"/><stop offset="1" stop-color="#A56EF4"/></linearGradient><linearGradient id="paint74_linear" x1="-2.368" y1="135.813" x2="53.464" y2="118.947" gradientUnits="userSpaceOnUse"><stop offset=".035" stop-color="#6B24D6"/><stop offset=".294" stop-color="#7733DC"/><stop offset=".794" stop-color="#975CED"/><stop offset="1" stop-color="#A56EF4"/></linearGradient><linearGradient id="paint75_linear" x1="-2.368" y1="134.37" x2="53.465" y2="117.504" gradientUnits="userSpaceOnUse"><stop offset=".035" stop-color="#9F19AB"/><stop offset=".244" stop-color="#AE25B1"/><stop offset=".645" stop-color="#D744BF"/><stop offset="1" stop-color="#FF63CE"/></linearGradient><linearGradient id="paint76_linear" x1="18.834" y1="74.356" x2="-10.317" y2="130.402" gradientUnits="userSpaceOnUse"><stop offset=".035" stop-color="#9F19AB"/><stop offset=".244" stop-color="#AE25B1"/><stop offset=".645" stop-color="#D744BF"/><stop offset="1" stop-color="#FF63CE"/></linearGradient><linearGradient id="paint78_linear" x1="16.308" y1="195.544" x2="50.265" y2="140.677" gradientUnits="userSpaceOnUse"><stop offset=".035" stop-color="#6B24D6"/><stop offset=".294" stop-color="#7733DC"/><stop offset=".794" stop-color="#975CED"/><stop offset="1" stop-color="#A56EF4"/></linearGradient><linearGradient id="paint80_linear" x1="32.338" y1="156.147" x2="88.169" y2="139.282" gradientUnits="userSpaceOnUse"><stop offset=".035" stop-color="#6B24D6"/><stop offset=".294" stop-color="#7733DC"/><stop offset=".794" stop-color="#975CED"/><stop offset="1" stop-color="#A56EF4"/></linearGradient><linearGradient id="paint81_linear" x1="-20.75" y1="161.635" x2="51.122" y2="145.381" gradientUnits="userSpaceOnUse"><stop offset=".035" stop-color="#6B24D6"/><stop offset=".294" stop-color="#7733DC"/><stop offset=".794" stop-color="#975CED"/><stop offset="1" stop-color="#A56EF4"/></linearGradient><linearGradient id="paint82_linear" x1="32.338" y1="154.705" x2="88.169" y2="137.839" gradientUnits="userSpaceOnUse"><stop offset=".035" stop-color="#9F19AB"/><stop offset=".244" stop-color="#AE25B1"/><stop offset=".645" stop-color="#D744BF"/><stop offset="1" stop-color="#FF63CE"/></linearGradient><linearGradient id="paint83_linear" x1="-20.75" y1="160.192" x2="51.122" y2="143.938" gradientUnits="userSpaceOnUse"><stop offset=".035" stop-color="#9F19AB"/><stop offset=".244" stop-color="#AE25B1"/><stop offset=".645" stop-color="#D744BF"/><stop offset="1" stop-color="#FF63CE"/></linearGradient><linearGradient id="paint84_linear" x1="53.537" y1="94.692" x2="24.388" y2="150.737" gradientUnits="userSpaceOnUse"><stop offset=".035" stop-color="#9F19AB"/><stop offset=".244" stop-color="#AE25B1"/><stop offset=".645" stop-color="#D744BF"/><stop offset="1" stop-color="#FF63CE"/></linearGradient><linearGradient id="paint86_linear" x1="23.987" y1="141.491" x2="38.474" y2="137.114" gradientUnits="userSpaceOnUse"><stop offset=".035" stop-color="#9F19AB"/><stop offset=".244" stop-color="#AE25B1"/><stop offset=".645" stop-color="#D744BF"/><stop offset="1" stop-color="#FF63CE"/></linearGradient><linearGradient id="paint87_linear" x1="-27.572" y1="142.722" x2="53.915" y2="124.294" gradientUnits="userSpaceOnUse"><stop offset=".035" stop-color="#9F19AB"/><stop offset=".244" stop-color="#AE25B1"/><stop offset=".645" stop-color="#D744BF"/><stop offset="1" stop-color="#FF63CE"/></linearGradient><linearGradient id="paint88_linear" x1="14.025" y1="110.187" x2="10.529" y2="116.909" gradientUnits="userSpaceOnUse"><stop offset=".035" stop-color="#9F19AB"/><stop offset=".244" stop-color="#AE25B1"/><stop offset=".645" stop-color="#D744BF"/><stop offset="1" stop-color="#FF63CE"/></linearGradient><linearGradient id="paint90_linear" x1="186.796" y1="9.956" x2="186.796" y2="19.677" gradientUnits="userSpaceOnUse"><stop stop-color="#06EDE1"/><stop offset="1" stop-color="#06EDE1" stop-opacity="0"/></linearGradient><linearGradient id="paint91_linear" x1="185.913" y1="3.924" x2="185.913" y2="10.405" gradientUnits="userSpaceOnUse"><stop stop-color="#06EDE1"/><stop offset="1" stop-color="#06EDE1" stop-opacity="0"/></linearGradient><linearGradient id="paint92_linear" x1="53.585" y1="41.638" x2="216.092" y2="37.204" gradientUnits="userSpaceOnUse"><stop stop-color="#7162C8"/><stop offset=".63" stop-color="#654BB7"/><stop offset="1" stop-color="#5D3BAB"/></linearGradient><linearGradient id="paint93_linear" x1="216.965" y1="35.314" x2="211.552" y2="35.462" gradientUnits="userSpaceOnUse"><stop stop-color="#7162C8"/><stop offset=".63" stop-color="#654BB7"/><stop offset="1" stop-color="#5D3BAB"/></linearGradient><linearGradient id="paint94_linear" x1="214.108" y1="-13.154" x2="52.229" y2="-8.737" gradientUnits="userSpaceOnUse"><stop stop-color="#CFCFFF"/><stop offset=".068" stop-color="#D4D4FF"/><stop offset=".356" stop-color="#E7E7FF"/><stop offset=".66" stop-color="#F1F1FF"/><stop offset="1" stop-color="#F5F5FF"/></linearGradient><linearGradient id="paint96_linear" x1="53.066" y1="-36.303" x2="116.341" y2="-36.303" gradientUnits="userSpaceOnUse"><stop offset=".5" stop-color="#fff"/><stop offset="1" stop-color="#B7B6B6"/></linearGradient><radialGradient id="paint1_radial" cx="0" cy="0" r="1" gradientUnits="userSpaceOnUse" gradientTransform="matrix(22.9837 0 0 22.7823 110.4 91.156)"><stop stop-color="#fff"/><stop offset="1"/></radialGradient><radialGradient id="paint7_radial" cx="0" cy="0" r="1" gradientUnits="userSpaceOnUse" gradientTransform="matrix(17.6748 0 0 17.5199 105.437 78.896)"><stop stop-color="#fff"/><stop offset="1"/></radialGradient><radialGradient id="paint11_radial" cx="0" cy="0" r="1" gradientUnits="userSpaceOnUse" gradientTransform="matrix(14.7411 0 0 14.6119 76.621 49.985)"><stop stop-color="#fff"/><stop offset="1"/></radialGradient><radialGradient id="paint13_radial" cx="0" cy="0" r="1" gradientUnits="userSpaceOnUse" gradientTransform="matrix(22.9844 0 0 22.783 145.107 111.49)"><stop stop-color="#fff"/><stop offset="1"/></radialGradient><radialGradient id="paint19_radial" cx="0" cy="0" r="1" gradientUnits="userSpaceOnUse" gradientTransform="matrix(17.6749 0 0 17.52 140.143 99.23)"><stop stop-color="#fff"/><stop offset="1"/></radialGradient><radialGradient id="paint23_radial" cx="0" cy="0" r="1" gradientUnits="userSpaceOnUse" gradientTransform="matrix(14.7411 0 0 14.6119 111.329 70.32)"><stop stop-color="#fff"/><stop offset="1"/></radialGradient><radialGradient id="paint25_radial" cx="0" cy="0" r="1" gradientUnits="userSpaceOnUse" gradientTransform="matrix(22.9845 0 0 22.783 178.827 131.128)"><stop stop-color="#fff"/><stop offset="1"/></radialGradient><radialGradient id="paint31_radial" cx="0" cy="0" r="1" gradientUnits="userSpaceOnUse" gradientTransform="matrix(17.6749 0 0 17.52 173.864 118.87)"><stop stop-color="#fff"/><stop offset="1"/></radialGradient><radialGradient id="paint35_radial" cx="0" cy="0" r="1" gradientUnits="userSpaceOnUse" gradientTransform="matrix(14.7411 0 0 14.6119 145.048 89.958)"><stop stop-color="#fff"/><stop offset="1"/></radialGradient><radialGradient id="paint37_radial" cx="0" cy="0" r="1" gradientUnits="userSpaceOnUse" gradientTransform="matrix(22.9852 0 0 22.7837 61.495 119.298)"><stop stop-color="#fff"/><stop offset="1"/></radialGradient><radialGradient id="paint43_radial" cx="0" cy="0" r="1" gradientUnits="userSpaceOnUse" gradientTransform="matrix(17.6748 0 0 17.5199 56.53 107.04)"><stop stop-color="#fff"/><stop offset="1"/></radialGradient><radialGradient id="paint47_radial" cx="0" cy="0" r="1" gradientUnits="userSpaceOnUse" gradientTransform="matrix(14.7414 0 0 14.6122 27.715 78.128)"><stop stop-color="#fff"/><stop offset="1"/></radialGradient><radialGradient id="paint49_radial" cx="0" cy="0" r="1" gradientUnits="userSpaceOnUse" gradientTransform="matrix(22.9844 0 0 22.783 96.2 139.633)"><stop stop-color="#fff"/><stop offset="1"/></radialGradient><radialGradient id="paint55_radial" cx="0" cy="0" r="1" gradientUnits="userSpaceOnUse" gradientTransform="matrix(17.6757 0 0 17.5208 91.237 127.374)"><stop stop-color="#fff"/><stop offset="1"/></radialGradient><radialGradient id="paint59_radial" cx="0" cy="0" r="1" gradientUnits="userSpaceOnUse" gradientTransform="matrix(14.7414 0 0 14.6122 62.422 98.462)"><stop stop-color="#fff"/><stop offset="1"/></radialGradient><radialGradient id="paint61_radial" cx="0" cy="0" r="1" gradientUnits="userSpaceOnUse" gradientTransform="matrix(22.9844 0 0 22.783 129.923 159.272)"><stop stop-color="#fff"/><stop offset="1"/></radialGradient><radialGradient id="paint67_radial" cx="0" cy="0" r="1" gradientUnits="userSpaceOnUse" gradientTransform="matrix(17.6748 0 0 17.5199 124.957 147.013)"><stop stop-color="#fff"/><stop offset="1"/></radialGradient><radialGradient id="paint71_radial" cx="0" cy="0" r="1" gradientUnits="userSpaceOnUse" gradientTransform="matrix(14.741 0 0 14.6119 96.141 118.099)"><stop stop-color="#fff"/><stop offset="1"/></radialGradient><radialGradient id="paint73_radial" cx="0" cy="0" r="1" gradientUnits="userSpaceOnUse" gradientTransform="matrix(22.9852 0 0 22.7837 13.574 147.442)"><stop stop-color="#fff"/><stop offset="1"/></radialGradient><radialGradient id="paint77_radial" cx="0" cy="0" r="1" gradientUnits="userSpaceOnUse" gradientTransform="matrix(17.6749 0 0 17.52 8.609 135.183)"><stop stop-color="#fff"/><stop offset="1"/></radialGradient><radialGradient id="paint79_radial" cx="0" cy="0" r="1" gradientUnits="userSpaceOnUse" gradientTransform="matrix(22.9851 0 0 22.7837 48.276 167.776)"><stop stop-color="#fff"/><stop offset="1"/></radialGradient><radialGradient id="paint85_radial" cx="0" cy="0" r="1" gradientUnits="userSpaceOnUse" gradientTransform="matrix(17.6748 0 0 17.5199 43.314 155.518)"><stop stop-color="#fff"/><stop offset="1"/></radialGradient><radialGradient id="paint89_radial" cx="0" cy="0" r="1" gradientUnits="userSpaceOnUse" gradientTransform="matrix(14.7408 0 0 14.6116 14.498 126.605)"><stop stop-color="#fff"/><stop offset="1"/></radialGradient><radialGradient id="paint95_radial" cx="0" cy="0" r="1" gradientUnits="userSpaceOnUse" gradientTransform="scale(79.4814 89.5003) rotate(90 .897 .768)"><stop stop-color="#515AA5"/><stop offset=".5" stop-color="#515AA5"/><stop offset="1" stop-color="#33425A"/></radialGradient><clipPath id="clip0"><path fill="#fff" d="M0 0h220v163H0z"/></clipPath></defs></svg>