<svg width="336" height="214" fill="none" xmlns="http://www.w3.org/2000/svg"><g clip-path="url(#clip0)"><path opacity=".1" d="M124.355 102.648l24.779 14.325 29.022-16.685-24.802-14.302-28.999 16.662z" fill="#000"/><path d="M148.545 119.264a5.741 5.741 0 01-2.806-.748l-22.515-12.947a3.161 3.161 0 01-1.579-2.734c0-1.145.613-2.173 1.626-2.711l21.926-12.152V75.937a1.203 1.203 0 012.405 0v12.736c0 .42-.236.818-.613 1.028l-22.539 12.48a.783.783 0 00-.401.677c0 .14.024.468.401.678l22.515 12.947c.99.56 2.216.56 3.206 0l19.498-11.288V72.642a1.202 1.202 0 012.405 0v33.208c0 .42-.236.817-.59 1.028l-20.087 11.638a5.911 5.911 0 01-2.852.748z" fill="url(#paint0_linear)"/><path opacity=".3" d="M148.357 118.282c-.848 0-1.674-.21-2.404-.631l-22.516-12.947a2.256 2.256 0 01-1.178-2.056c0-.865.471-1.613 1.226-2.033l22.326-12.386V75.727c0-.21.189-.398.401-.398.212 0 .401.187.401.398v12.736c0 .14-.071.28-.212.35l-22.539 12.503c-.495.28-.802.794-.802 1.355 0 .561.283 1.075.778 1.356l22.515 12.946a4.018 4.018 0 002.004.538 3.95 3.95 0 002.004-.538l19.875-11.521V72.455a.41.41 0 01.401-.397c.212 0 .4.186.4.397v33.208c0 .14-.07.28-.188.35l-20.087 11.638a5.056 5.056 0 01-2.405.631z" fill="#fff"/><path d="M148.262 117.838c-.778 0-1.556-.21-2.24-.584l-22.515-12.947c-.637-.374-1.037-1.028-1.014-1.776 0-.748.401-1.402 1.061-1.753l22.492-12.479V75.61c0-.046.023-.07.07-.07.047 0 .071.047.071.07v12.737c0 .023-.024.047-.047.07l-22.539 12.456c-.613.327-.966.935-.966 1.636 0 .677.353 1.308.943 1.636l22.515 12.946c.66.374 1.391.584 2.169.584.754 0 1.509-.21 2.169-.584l20.039-11.614V72.315c0-.047.047-.07.071-.07.047 0 .071.023.071.07v33.207l-20.111 11.708a4.464 4.464 0 01-2.239.608z" fill="url(#paint1_radial)"/><path d="M147.014 85.542v2.407l27.089-15.518v-2.477l-27.089 15.588z" fill="url(#paint2_linear)"/><path d="M147.013 85.542v2.407l-26.523-15.26v-2.501l26.523 15.354z" fill="url(#paint3_linear)"/><path d="M147.014 84.07v2.406l27.089-15.517v-2.5l-27.089 15.61z" fill="url(#paint4_linear)"/><path d="M147.013 84.07v2.406L120.49 71.193v-2.477l26.523 15.353z" fill="url(#paint5_linear)"/><path d="M120.49 68.716l26.523 15.353 27.089-15.61-26.57-15.307-27.042 15.564z" fill="url(#paint6_linear)"/><path d="M146.848 83.368l3.395-.748 23.858-14.161-27.253 14.91z" fill="url(#paint7_radial)"/><path d="M147.084 58.176l-2.641-10.656-1.98 1.145 2.64 10.61a64.599 64.599 0 011.934 15.75v9.044l1.98-1.075-.024-9.184a64.81 64.81 0 00-1.909-15.634z" fill="url(#paint8_linear)"/><path d="M142.439 48.665l-26.57-15.424 2.664 10.703a65.263 65.263 0 011.933 15.704v9.091l26.571 15.354v-9.068c0-5.305-.661-10.61-1.934-15.774l-2.664-10.586z" fill="url(#paint9_linear)"/><path d="M115.869 33.241l26.57 15.424 1.981-1.145-26.594-15.4-1.957 1.121z" fill="url(#paint10_linear)"/><path d="M115.869 33.241l27.136 14.956 2.994 15.05-3.937-14.559-26.193-15.447z" fill="url(#paint11_radial)"/><path opacity=".1" d="M159.908 123.47l24.779 14.326 29.022-16.686-24.802-14.302-28.999 16.662z" fill="#000"/><path d="M184.099 140.109a5.727 5.727 0 01-2.805-.748l-22.515-12.946c-.99-.585-1.58-1.589-1.58-2.735 0-1.145.613-2.15 1.627-2.71l21.926-12.153V96.782a1.202 1.202 0 012.404 0v12.737c0 .42-.235.818-.613 1.028l-22.538 12.502a.785.785 0 00-.401.678c0 .14.024.468.401.678l22.515 12.946c.99.561 2.216.561 3.206 0l19.497-11.287V93.487a1.203 1.203 0 012.405 0v33.208c0 .421-.236.818-.589 1.028l-20.11 11.615a5.605 5.605 0 01-2.83.771z" fill="url(#paint12_linear)"/><path opacity=".3" d="M183.91 139.104c-.849 0-1.674-.21-2.405-.631l-22.515-12.946a2.262 2.262 0 01-1.179-2.057c0-.865.472-1.612 1.226-2.033l22.327-12.386V96.549a.41.41 0 01.401-.398c.212 0 .4.187.4.398v12.736c0 .14-.07.28-.212.35l-22.538 12.503a1.56 1.56 0 00-.024 2.711l22.515 12.946a4.018 4.018 0 002.004.538c.707 0 1.415-.187 2.004-.538l19.875-11.521V93.277a.41.41 0 01.4-.397.41.41 0 01.401.397v33.208c0 .14-.071.257-.188.327l-20.087 11.638a4.593 4.593 0 01-2.405.654z" fill="#fff"/><path d="M183.814 138.66c-.778 0-1.556-.21-2.239-.608l-22.515-12.946c-.637-.374-1.038-1.028-1.014-1.776 0-.748.401-1.402 1.061-1.753l22.491-12.479v-12.69c0-.046.047-.07.071-.07.047 0 .071.024.071.07v12.737c0 .023-.024.046-.047.07l-22.539 12.502c-.613.327-.967.935-.967 1.636 0 .678.354 1.309.943 1.636l22.515 12.947a4.349 4.349 0 002.146.584c.778 0 1.509-.21 2.169-.584l20.039-11.615V93.16c0-.047.024-.07.071-.07.047 0 .071.023.071.07v33.184l-20.11 11.708a4.325 4.325 0 01-2.217.608z" fill="url(#paint13_radial)"/><path d="M182.566 106.364v2.43l27.066-15.54v-2.478l-27.066 15.588z" fill="url(#paint14_linear)"/><path d="M182.566 106.364v2.43L156.043 93.51v-2.477l26.523 15.331z" fill="url(#paint15_linear)"/><path d="M182.566 104.891v2.431l27.066-15.54v-2.478l-27.066 15.587z" fill="url(#paint16_linear)"/><path d="M182.566 104.891v2.431l-26.523-15.284v-2.477l26.523 15.33z" fill="url(#paint17_linear)"/><path d="M156.043 89.561l26.523 15.33 27.065-15.587-26.546-15.33-27.042 15.587z" fill="url(#paint18_linear)"/><path d="M182.4 104.214l3.395-.772 23.836-14.138-27.231 14.91z" fill="url(#paint19_radial)"/><path d="M182.637 79.022l-2.664-10.657-1.981 1.145 2.641 10.61a64.646 64.646 0 011.933 15.75v9.045l1.98-1.075v-9.184c0-5.282-.636-10.517-1.909-15.635z" fill="url(#paint20_linear)"/><path d="M177.992 69.487l-26.57-15.424 2.664 10.703a65.263 65.263 0 011.933 15.704v9.091l26.57 15.354v-9.068c0-5.304-.66-10.61-1.933-15.774l-2.664-10.586z" fill="url(#paint21_linear)"/><path d="M151.422 54.063l26.57 15.424 1.98-1.145-26.593-15.4-1.957 1.121z" fill="url(#paint22_linear)"/><path d="M151.422 54.063l27.136 14.98 2.994 15.026-3.937-14.559-26.193-15.447z" fill="url(#paint23_radial)"/><path opacity=".1" d="M194.473 143.591l24.778 14.325 28.998-16.685-24.801-14.302-28.975 16.662z" fill="#000"/><path d="M218.637 160.207a5.728 5.728 0 01-2.806-.748l-22.515-12.947a3.162 3.162 0 01-1.58-2.734c0-1.145.613-2.15 1.627-2.711l21.926-12.152V116.88a1.202 1.202 0 012.404 0v12.736c0 .421-.235.818-.612 1.029l-22.539 12.502a.761.761 0 00-.401.678c0 .14.024.467.401.678l22.515 12.946c.99.584 2.216.561 3.206 0l19.498-11.287v-32.554a1.202 1.202 0 012.404 0v33.208c0 .421-.235.818-.589 1.028l-20.087 11.638a5.878 5.878 0 01-2.852.725z" fill="url(#paint24_linear)"/><path opacity=".3" d="M218.449 159.225c-.849 0-1.674-.21-2.405-.631l-22.515-12.946a2.262 2.262 0 01-1.179-2.057c0-.865.472-1.612 1.226-2.033l22.327-12.386V116.67c0-.211.188-.398.401-.398.212 0 .4.187.4.398v12.713c0 .14-.07.28-.212.35l-22.538 12.503c-.495.28-.802.771-.802 1.355 0 .561.283 1.075.778 1.379l22.515 12.947c.613.35 1.297.537 2.004.537.707 0 1.415-.187 2.004-.537l19.875-11.522v-32.997a.41.41 0 01.4-.397.41.41 0 01.401.397v33.208c0 .14-.071.28-.188.35l-20.064 11.615c-.73.444-1.579.654-2.428.654z" fill="#fff"/><path d="M218.354 158.781c-.778 0-1.556-.21-2.24-.584l-22.515-12.947c-.637-.374-1.038-1.028-1.014-1.776 0-.748.401-1.402 1.061-1.752l22.491-12.48v-12.689c0-.047.024-.07.071-.07.047 0 .071.023.071.07v12.736c0 .023-.024.047-.047.07l-22.539 12.503c-.613.327-.967.935-.967 1.636 0 .677.354 1.308.943 1.635l22.516 12.947c.66.374 1.391.584 2.169.584.754 0 1.508-.21 2.169-.584l20.039-11.615v-33.207c0-.047.047-.07.071-.07.047 0 .071.046.071.07v33.207l-20.111 11.709a4.41 4.41 0 01-2.239.607z" fill="url(#paint25_radial)"/><path d="M217.105 126.485v2.43l27.089-15.54v-2.478l-27.089 15.588z" fill="url(#paint26_linear)"/><path d="M217.105 126.485v2.43l-26.523-15.283v-2.478l26.523 15.331z" fill="url(#paint27_linear)"/><path d="M217.105 125.012v2.407l27.089-15.517v-2.477l-27.089 15.587z" fill="url(#paint28_linear)"/><path d="M217.105 125.012v2.407l-26.523-15.26v-2.5l26.523 15.353z" fill="url(#paint29_linear)"/><path d="M190.582 109.659l26.523 15.353 27.089-15.587-26.57-15.33-27.042 15.564z" fill="url(#paint30_linear)"/><path d="M216.939 124.335l3.395-.771 23.859-14.139-27.254 14.91z" fill="url(#paint31_radial)"/><path d="M217.176 99.12l-2.664-10.657-1.981 1.145 2.641 10.61a64.642 64.642 0 011.933 15.751v9.044l1.98-1.075-.023-9.185a63.657 63.657 0 00-1.886-15.634z" fill="url(#paint32_linear)"/><path d="M212.555 89.608l-26.571-15.424 2.664 10.703a65.214 65.214 0 011.934 15.704v9.091l26.57 15.354v-9.068c0-5.304-.66-10.609-1.933-15.774l-2.664-10.586z" fill="url(#paint33_linear)"/><path d="M185.961 74.184l26.594 15.424 1.956-1.145-26.593-15.4-1.957 1.121z" fill="url(#paint34_linear)"/><path d="M185.961 74.184l27.159 14.98 2.971 15.026-3.937-14.559-26.193-15.447z" fill="url(#paint35_radial)"/><path opacity=".1" d="M74.258 131.462l24.778 14.326 29.022-16.686-24.802-14.302-28.998 16.662z" fill="#000"/><path d="M98.447 148.101a5.738 5.738 0 01-2.806-.747l-22.515-12.947a3.172 3.172 0 01-1.58-2.758c0-1.145.614-2.15 1.628-2.711l21.925-12.152v-12.035a1.203 1.203 0 012.405 0v12.713c0 .421-.236.818-.613 1.028l-22.539 12.503a.76.76 0 00-.4.678c0 .14.047.467.4.677l22.516 12.947c.99.561 2.216.561 3.206 0l19.497-11.287v-32.531c0-.654.542-1.191 1.203-1.191.66 0 1.202.537 1.202 1.191v33.208c0 .421-.236.818-.589 1.029L101.3 147.354a5.916 5.916 0 01-2.853.747z" fill="url(#paint36_linear)"/><path opacity=".3" d="M98.26 147.12c-.85 0-1.674-.21-2.405-.631L73.34 133.542a2.258 2.258 0 01-1.179-2.056c0-.865.472-1.613 1.226-2.033l22.326-12.386v-12.503c0-.21.19-.397.401-.397.212 0 .401.187.401.397v12.737c0 .14-.07.28-.212.35l-22.539 12.456c-.495.28-.801.794-.801 1.355 0 .561.283 1.075.778 1.379l22.515 12.947c.613.35 1.296.537 2.004.537.707 0 1.414-.187 2.004-.537l19.874-11.521v-32.998c0-.21.189-.397.401-.397.212 0 .401.187.401.397v33.208c0 .14-.071.28-.189.327l-20.087 11.638a4.614 4.614 0 01-2.404.678z" fill="#fff"/><path d="M98.164 146.652a4.48 4.48 0 01-2.24-.607l-22.538-12.923c-.637-.374-1.037-1.029-1.014-1.776 0-.748.4-1.403 1.061-1.753l22.491-12.479v-12.69c0-.047.048-.07.071-.07.047 0 .07.023.07.07v12.736c0 .024-.023.047-.046.07L73.48 129.733c-.613.327-.967.935-.967 1.636 0 .678.354 1.309.944 1.636l22.515 12.946c.66.374 1.39.585 2.145.585.754 0 1.509-.211 2.169-.585l20.04-11.614v-33.185c0-.046.047-.07.07-.07.048 0 .071.047.071.07v33.208l-20.063 11.685c-.684.421-1.462.607-2.24.607z" fill="url(#paint37_radial)"/><path d="M96.916 114.379v2.407l27.089-15.517v-2.5l-27.089 15.61z" fill="url(#paint38_linear)"/><path d="M96.916 114.379v2.407l-26.523-15.283v-2.477l26.523 15.353z" fill="url(#paint39_linear)"/><path d="M96.916 112.907v2.407l27.089-15.517v-2.5l-27.089 15.61z" fill="url(#paint40_linear)"/><path d="M96.916 112.907v2.407l-26.523-15.283v-2.478l26.523 15.354z" fill="url(#paint41_linear)"/><path d="M70.393 97.553l26.523 15.354 27.088-15.61-26.57-15.308-27.041 15.564z" fill="url(#paint42_linear)"/><path d="M96.75 112.206l3.395-.771 23.859-14.139-27.254 14.91z" fill="url(#paint43_radial)"/><path d="M96.986 87.014l-2.664-10.656-1.98 1.145 2.64 10.61a64.611 64.611 0 011.933 15.75v9.044l1.98-1.075v-9.184c0-5.258-.636-10.516-1.909-15.634z" fill="url(#paint44_linear)"/><path d="M92.342 77.502L65.772 62.08l2.664 10.703a65.259 65.259 0 011.933 15.704v9.09l26.57 15.354v-9.067c0-5.305-.66-10.61-1.933-15.774l-2.664-10.587z" fill="url(#paint45_linear)"/><path d="M65.772 62.079l26.57 15.423 1.98-1.145-26.594-15.4-1.956 1.122z" fill="url(#paint46_linear)"/><path d="M65.772 62.079l27.135 14.956 2.995 15.05-3.938-14.582-26.192-15.424z" fill="url(#paint47_radial)"/><path opacity=".1" d="M109.811 152.308l24.778 14.325 29.022-16.685-24.802-14.302-28.998 16.662z" fill="#000"/><path d="M134 168.923a5.74 5.74 0 01-2.806-.747l-22.515-12.947a3.172 3.172 0 01-1.579-2.758c0-1.145.613-2.15 1.626-2.71l21.926-12.153v-12.035a1.202 1.202 0 012.405 0v12.737c0 .42-.236.817-.613 1.028l-22.539 12.502a.763.763 0 00-.401.678c0 .14.024.468.401.678l22.515 12.946c.99.561 2.216.561 3.207 0l19.497-11.287v-32.553a1.203 1.203 0 012.405 0v33.207c0 .421-.236.818-.59 1.029l-20.11 11.638a5.758 5.758 0 01-2.829.747z" fill="url(#paint48_linear)"/><path opacity=".3" d="M133.812 167.942c-.848 0-1.673-.21-2.404-.631l-22.515-12.97a2.258 2.258 0 01-1.179-2.057c0-.864.471-1.612 1.226-2.033l22.326-12.386v-12.502c0-.21.189-.397.401-.397.212 0 .401.187.401.397v12.736c0 .14-.071.281-.212.351l-22.539 12.502a1.562 1.562 0 00-.802 1.356c0 .561.283 1.075.778 1.355l22.515 12.947c.613.35 1.297.537 2.004.537.708 0 1.415-.187 2.004-.537l19.875-11.521v-32.974c0-.211.189-.398.401-.398.212 0 .401.187.401.398v33.207a.41.41 0 01-.189.351l-20.087 11.638a5.056 5.056 0 01-2.405.631z" fill="#fff"/><path d="M133.717 167.498c-.778 0-1.556-.21-2.24-.584l-22.515-12.947c-.637-.374-1.037-1.028-1.014-1.776 0-.748.401-1.402 1.061-1.753l22.492-12.479v-12.69c0-.046.023-.07.07-.07.048 0 .071.024.071.07v12.737c0 .023-.023.047-.047.07l-22.539 12.502c-.613.328-.966.935-.966 1.636 0 .678.353 1.309.943 1.636l22.515 12.947c.66.374 1.391.584 2.145.584.778 0 1.509-.21 2.169-.584l20.04-11.615v-33.208c0-.046.047-.07.071-.07.047 0 .07.024.07.07v33.208l-20.11 11.708a4.319 4.319 0 01-2.216.608z" fill="url(#paint49_radial)"/><path d="M132.469 135.201v2.407l27.088-15.517v-2.477l-27.088 15.587z" fill="url(#paint50_linear)"/><path d="M132.468 135.201v2.407l-26.523-15.26v-2.5l26.523 15.353z" fill="url(#paint51_linear)"/><path d="M132.469 133.729v2.407l27.088-15.517v-2.501l-27.088 15.611z" fill="url(#paint52_linear)"/><path d="M132.468 133.729v2.407l-26.523-15.283v-2.478l26.523 15.354z" fill="url(#paint53_linear)"/><path d="M105.945 118.376l26.523 15.353 27.089-15.611-26.57-15.306-27.042 15.564z" fill="url(#paint54_linear)"/><path d="M132.303 133.028l3.395-.771 23.859-14.139-27.254 14.91z" fill="url(#paint55_radial)"/><path d="M132.539 107.836l-2.664-10.656-1.98 1.145 2.64 10.609a64.599 64.599 0 011.933 15.751v9.044l1.981-1.075v-9.184c0-5.258-.637-10.516-1.91-15.634z" fill="url(#paint56_linear)"/><path d="M127.894 98.325L101.324 82.9l2.664 10.703a65.26 65.26 0 011.934 15.704v9.091l26.57 15.354v-9.068a65.93 65.93 0 00-1.934-15.774l-2.664-10.586z" fill="url(#paint57_linear)"/><path d="M101.324 82.9l26.57 15.425 1.981-1.145-26.594-15.4-1.957 1.12z" fill="url(#paint58_linear)"/><path d="M101.324 82.9l27.136 14.98 2.994 15.027-3.937-14.559-26.193-15.447z" fill="url(#paint59_radial)"/><path opacity=".1" d="M144.373 172.429l24.778 14.325 28.999-16.709-24.802-14.302-28.975 16.686z" fill="#000"/><path d="M168.539 189.044a5.74 5.74 0 01-2.806-.747l-22.515-12.947c-.99-.584-1.579-1.589-1.579-2.734s.613-2.15 1.626-2.711l21.926-12.152v-12.035c0-.655.542-1.192 1.202-1.192.661 0 1.203.537 1.203 1.192v12.736c0 .421-.236.818-.613 1.028l-22.539 12.503a.762.762 0 00-.401.677c0 .141.048.468.401.678l22.515 12.947c.99.561 2.216.561 3.207 0l19.497-11.288v-32.576a1.203 1.203 0 012.405 0v33.207c0 .421-.236.818-.59 1.029l-20.11 11.638a5.758 5.758 0 01-2.829.747z" fill="url(#paint60_linear)"/><path opacity=".3" d="M168.349 188.063c-.849 0-1.674-.21-2.405-.631l-22.515-12.947c-.755-.42-1.179-1.191-1.179-2.056s.472-1.613 1.226-2.033l22.326-12.386v-12.503c0-.21.189-.397.401-.397.212 0 .401.187.401.397v12.737c0 .14-.071.28-.212.35l-22.539 12.503c-.495.28-.801.794-.801 1.355 0 .561.282 1.075.778 1.379l22.515 12.947c.613.35 1.296.537 2.004.537.707 0 1.414-.187 2.004-.537l19.874-11.521v-33.021c0-.211.189-.398.401-.398.212 0 .401.187.401.398v33.184c0 .14-.071.281-.189.327l-20.087 11.638a4.554 4.554 0 01-2.404.678z" fill="#fff"/><path d="M168.254 187.619c-.778 0-1.556-.21-2.24-.584l-22.515-12.947c-.636-.374-1.037-1.028-1.014-1.776 0-.748.401-1.402 1.061-1.753l22.492-12.479v-12.689c0-.047.023-.071.07-.071.048 0 .071.047.071.071v12.736c0 .023-.023.047-.047.07L143.593 170.7c-.613.327-.966.934-.966 1.635 0 .678.353 1.309.943 1.636l22.515 12.947c.66.374 1.391.584 2.169.584.754 0 1.509-.21 2.169-.584l20.039-11.615v-33.208c0-.046.048-.07.071-.07.047 0 .071.024.071.07v33.208l-20.11 11.708a4.407 4.407 0 01-2.24.608z" fill="url(#paint61_radial)"/><path d="M167.006 155.322v2.408l27.089-15.518v-2.477l-27.089 15.587z" fill="url(#paint62_linear)"/><path d="M167.029 155.322v2.408l-26.547-15.261v-2.5l26.547 15.353z" fill="url(#paint63_linear)"/><path d="M167.006 153.85v2.407l27.089-15.517v-2.501l-27.089 15.611z" fill="url(#paint64_linear)"/><path d="M167.029 153.85v2.407l-26.547-15.283v-2.477l26.547 15.353z" fill="url(#paint65_linear)"/><path d="M140.482 138.497l26.547 15.353 27.065-15.611-26.57-15.306-27.042 15.564z" fill="url(#paint66_linear)"/><path d="M166.84 153.149l3.395-.771 23.859-14.139-27.254 14.91z" fill="url(#paint67_radial)"/><path d="M167.076 127.957l-2.664-10.656-1.98 1.145 2.64 10.609a64.599 64.599 0 011.933 15.751v9.044l1.981-1.075-.024-9.184a63.613 63.613 0 00-1.886-15.634z" fill="url(#paint68_linear)"/><path d="M162.455 118.446l-26.57-15.424 2.664 10.703a65.259 65.259 0 011.933 15.704v9.068l26.57 15.353v-9.044a65.98 65.98 0 00-1.933-15.774l-2.664-10.586z" fill="url(#paint69_linear)"/><path d="M135.861 103.022l26.594 15.424 1.957-1.145-26.594-15.401-1.957 1.122z" fill="url(#paint70_linear)"/><path d="M135.861 103.022l27.16 14.956 2.97 15.05-3.937-14.559-26.193-15.447z" fill="url(#paint71_radial)"/><path opacity=".1" d="M25.172 160.3l24.778 14.326 29.022-16.686-24.802-14.302L25.172 160.3z" fill="#000"/><path d="M49.361 176.939a5.728 5.728 0 01-2.805-.748L24.04 163.245c-.99-.584-1.58-1.589-1.58-2.734 0-1.146.613-2.15 1.627-2.711l21.925-12.152v-12.036a1.202 1.202 0 012.405 0v12.737c0 .42-.236.818-.613 1.028L25.267 159.88a.76.76 0 00-.401.677c0 .14.023.468.377.678l22.515 12.947c.99.56 2.216.56 3.206 0l19.498-11.288v-32.577a1.202 1.202 0 012.404 0v33.208c0 .421-.212.818-.589 1.028L52.19 176.191a5.816 5.816 0 01-2.829.748z" fill="url(#paint72_linear)"/><path opacity=".3" d="M49.174 175.934c-.849 0-1.674-.21-2.405-.631l-22.515-12.946a2.26 2.26 0 01-1.179-2.057c0-.864.472-1.612 1.226-2.033l22.326-12.386v-12.526c0-.21.19-.397.401-.397.212 0 .401.187.401.397v12.737c0 .14-.07.28-.212.35l-22.539 12.503c-.495.28-.801.794-.801 1.355 0 .561.283 1.075.778 1.379l22.515 12.947c.613.35 1.296.537 2.004.537.707 0 1.414-.187 2.004-.537l19.874-11.521v-32.998c0-.21.189-.397.401-.397.212 0 .4.187.4.397v33.208a.44.44 0 01-.188.35l-20.087 11.638a4.795 4.795 0 01-2.404.631z" fill="#fff"/><path d="M49.055 175.49a4.48 4.48 0 01-2.24-.607L24.3 161.936c-.637-.374-1.037-1.028-1.014-1.776 0-.748.4-1.402 1.061-1.776l22.492-12.479v-12.69c0-.047.023-.07.07-.07.047 0 .071.047.071.07v12.76c0 .023-.024.047-.047.07l-22.539 12.502a1.812 1.812 0 00-.966 1.636c0 .678.353 1.309.943 1.636l22.515 12.947c.66.374 1.39.584 2.145.584.755 0 1.509-.21 2.17-.584l20.039-11.615v-33.184c0-.047.047-.07.07-.07.048 0 .071.046.071.07v33.208l-20.11 11.708c-.637.397-1.415.607-2.216.607z" fill="url(#paint73_radial)"/><path d="M47.83 143.194v2.43l27.065-15.54v-2.477L47.83 143.194z" fill="url(#paint74_linear)"/><path d="M47.83 143.194v2.43l-26.547-15.283v-2.477l26.547 15.33z" fill="url(#paint75_linear)"/><path d="M47.83 141.722v2.407l27.065-15.518v-2.477L47.83 141.722z" fill="url(#paint76_linear)"/><path d="M47.83 141.722v2.407l-26.547-15.261v-2.5l26.547 15.354z" fill="url(#paint77_linear)"/><path d="M21.283 126.368l26.547 15.354 27.065-15.588-26.547-15.33-27.065 15.564z" fill="url(#paint78_linear)"/><path d="M47.64 141.044l3.42-.771 23.834-14.139-27.253 14.91z" fill="url(#paint79_radial)"/><path d="M47.877 115.828l-2.64-10.656-1.981 1.145 2.64 10.61a64.613 64.613 0 011.934 15.751v9.044l1.98-1.075v-9.185c0-5.258-.66-10.492-1.933-15.634z" fill="url(#paint80_linear)"/><path d="M43.256 106.317l-26.57-15.424 2.664 10.703a65.268 65.268 0 011.933 15.705v9.09l26.57 15.354v-9.067c0-5.305-.66-10.61-1.933-15.775l-2.664-10.586z" fill="url(#paint81_linear)"/><path d="M16.686 90.893l26.57 15.424 1.98-1.145-26.594-15.4-1.956 1.121z" fill="url(#paint82_linear)"/><path d="M16.686 90.893l27.136 14.98 2.994 15.026-3.938-14.559-26.192-15.447z" fill="url(#paint83_radial)"/><path opacity=".1" d="M60.725 181.122l24.778 14.349 29.022-16.709-24.802-14.302-28.998 16.662z" fill="#000"/><path d="M84.916 197.761a5.728 5.728 0 01-2.806-.748l-22.515-12.946c-.99-.585-1.58-1.589-1.58-2.734 0-1.146.614-2.15 1.627-2.711l21.926-12.152v-12.082a1.202 1.202 0 012.405 0v12.736c0 .421-.236.818-.613 1.028l-22.562 12.503a.76.76 0 00-.401.678c0 .14.023.467.4.677l22.516 12.947c.99.561 2.216.561 3.206 0l19.497-11.288v-32.53a1.203 1.203 0 012.405 0v33.208c0 .421-.236.818-.589 1.028l-20.087 11.638a5.816 5.816 0 01-2.83.748z" fill="url(#paint84_linear)"/><path opacity=".3" d="M84.727 196.78a5.055 5.055 0 01-2.405-.631l-22.515-12.947a2.26 2.26 0 01-1.18-2.056c0-.865.472-1.613 1.227-2.034l22.326-12.385v-12.503c0-.21.189-.397.401-.397.212 0 .4.187.4.397v12.736c0 .141-.07.281-.211.351l-22.54 12.502a1.561 1.561 0 00-.802 1.356c0 .561.283 1.075.778 1.379l22.515 12.946a4.017 4.017 0 002.005.538c.707 0 1.414-.187 2.003-.538l19.875-11.521v-33.044c0-.21.189-.397.401-.397.212 0 .401.187.401.397v33.208a.41.41 0 01-.189.35L87.13 196.125a4.818 4.818 0 01-2.404.655z" fill="#fff"/><path d="M84.607 196.336a4.478 4.478 0 01-2.24-.608l-22.514-12.947c-.637-.373-1.038-1.028-1.014-1.776 0-.747.4-1.402 1.06-1.752l22.492-12.48v-12.689c0-.047.024-.07.071-.07.047 0 .07.047.07.07v12.736c0 .024-.023.047-.046.07l-22.54 12.503c-.612.327-.966.935-.966 1.636 0 .677.354 1.308.943 1.636l22.515 12.946c.66.374 1.391.584 2.17.584a4.43 4.43 0 002.168-.584l20.04-11.614v-33.185c0-.047.047-.07.071-.07.047 0 .07.047.07.07v33.208l-20.11 11.708a4.585 4.585 0 01-2.24.608z" fill="url(#paint85_radial)"/><path d="M83.383 164.039v2.407l27.065-15.517v-2.5l-27.065 15.61z" fill="url(#paint86_linear)"/><path d="M83.382 164.039v2.407l-26.546-15.283v-2.477l26.546 15.353z" fill="url(#paint87_linear)"/><path d="M83.383 162.567v2.407l27.065-15.517v-2.501l-27.065 15.611z" fill="url(#paint88_linear)"/><path d="M83.382 162.567v2.407L56.836 149.69v-2.477l26.546 15.354z" fill="url(#paint89_linear)"/><path d="M56.836 147.213l26.546 15.354 27.066-15.611-26.547-15.33-27.065 15.587z" fill="url(#paint90_linear)"/><path d="M83.193 161.866l3.419-.771 23.835-14.139-27.254 14.91z" fill="url(#paint91_radial)"/><path d="M83.43 136.674l-2.641-10.657-1.98 1.145 2.64 10.61a64.614 64.614 0 011.933 15.751v9.044l1.98-1.075-.023-9.184c.024-5.258-.636-10.516-1.91-15.634z" fill="url(#paint92_linear)"/><path d="M78.808 127.162l-26.57-15.423 2.664 10.703a65.254 65.254 0 011.934 15.704v9.091l26.57 15.33V153.5c0-5.305-.66-10.61-1.934-15.775l-2.664-10.563z" fill="url(#paint93_linear)"/><path d="M52.238 111.739l26.57 15.423 1.98-1.145-26.593-15.4-1.957 1.122z" fill="url(#paint94_linear)"/><path d="M52.238 111.739l27.136 14.956 2.994 15.05-3.937-14.583-26.193-15.423z" fill="url(#paint95_radial)"/><path opacity=".3" d="M316.422 43.942V-6.906M240.594-.201v15.199" stroke="#06EDE1"/><path fill="url(#paint96_linear)" d="M243.957 12.829h5.036v4.885h-5.036z"/><path fill="url(#paint97_linear)" d="M243.957 5.773h3.358V9.03h-3.358z"/><path opacity=".3" d="M301.121 12.014v15.2" stroke="#06EDE1"/><path transform="matrix(-1 0 0 1 297.76 25.045)" fill="url(#paint98_linear)" d="M0 0h5.036v4.885H0z"/><path transform="matrix(-1 0 0 1 297.76 17.99)" fill="url(#paint99_linear)" d="M0 0h3.358v3.257H0z"/><path d="M276.673 85.84c.13.064.326.064.456.128.13 0 .195.064.325.064.065 0 .195.065.26.065.131 0 .196.064.326.064.065 0-.911 1.352-.846 1.352.13 0-2.213 1.352-2.213 1.352-.13.064-.195.129-.325.193h-.196c-.065.064-.13.064-.13.064-.065 0-.13.065-.195.065h-.195c-.13.064-.261.064-.391.064h-1.106c-.065 0-.13 0-.26-.064h-.131c-.065 0-.065 0-.13-.064-.13-.065-.26-.065-.455-.13-.065 0-.131-.064-.196-.064l-.065-.064c-.26-.129-.52-.193-.781-.386L115.596 5.434a5.52 5.52 0 00-.651-.386c-.065 0-.13-.065-.195-.13-.13-.063-.26-.192-.39-.321-.065-.064-.13-.129-.196-.129-.13-.064-.26-.193-.39-.322l-.195-.193c-.065-.064-.13-.064-.13-.128l-.131-.13-.39-.386-.13-.128-.13-.129c-.065-.064-.131-.193-.261-.322-.065-.064-.13-.129-.13-.193-.065-.064-.065-.129-.13-.129-.065-.064-.13-.193-.195-.257-.065-.065-.065-.129-.13-.129-.066-.129-.131-.193-.196-.322-.065-.064-.065-.129-.13-.193 0 0 0-.064-.065-.064-.13-.194-.26-.322-.325-.515 0 0 0-.065-.065-.065V.8c-.065-.129-.196-.258-.261-.386-.065-.065-.065-.13-.13-.194 0-.064-.065-.128-.065-.193 0-.064-.065-.128-.065-.193-.065-.129-.195-.322-.195-.45 0 0 0-.065-.065-.065a2.28 2.28 0 00-.261-.58c0-.064-.065-.064-.065-.128s-.065-.129-.065-.193c0-.129-.065-.193-.13-.258-.065-.064-.065-.193-.065-.257s-.065-.129-.065-.193c0-.065-.065-.129-.065-.193-.065-.065-.065-.193-.065-.322s-.065-.193-.065-.322c0-.064 0-.064-.066-.129 0-.064 0-.129-.065-.257-.065-.13-.065-.322-.13-.515 0-.065 0-.065-.065-.13 0-.128 0-.192-.065-.321v-.193c0-.258-.065-.45-.065-.708l5.206-3.155c0 .258.001.451.066.708v.258c0 .129.065.257.065.45.065.194.065.322.13.516 0 .128.065.257.065.321 0 .13.065.194.065.322.065.13.065.322.13.451 0 .064.065.193.065.258.065.193.13.321.195.515 0 .064.066.128.066.193.065.257.195.45.325.708 0 0 0 .064.065.064.065.193.195.386.325.58.066.064.066.128.066.193.13.193.195.386.325.58.065-.001.065.063.065.128.13.193.26.45.391.644.065.064.065.128.13.193.13.128.195.322.325.45l.195.193c.131.13.196.258.326.322.065.13.195.193.26.322l.26.258.456.45c.065.13.195.193.26.258l.196.193c.13.129.26.193.39.322l.195.193c.13.129.261.193.391.257.065.065.13.065.195.13l.586.385 154.829 83.11.781.386c.13 0 .195 0 .325.064z" fill="url(#paint100_linear)"/><path d="M273.351 84.646l-2.408-97.851 5.207-3.155 2.473 101.65c.065 1.738-1.497 2.897-2.408 3.412-2.654 1.64-2.698.866-2.864-4.056z" fill="url(#paint101_linear)"/><path d="M112.728-109.061c-3.579-1.931-6.378-.257-6.313 3.734l2.408 97.852c.065 3.99 3.059 8.755 6.639 10.686l155.219 83.302c3.579 1.932 6.378-.45 6.248-4.442l-2.408-97.143c-.065-3.991-3.059-8.755-6.639-10.686l-155.154-83.303z" fill="url(#paint102_linear)"/><path d="M115.093-102.823l148.971 79.955c3.254 1.738 5.923 6.115 6.053 9.72l2.148 88.84c.065 3.669-2.474 5.15-5.728 3.411L117.631-.852c-3.254-1.738-5.923-6.115-6.053-9.72l-2.148-88.84c-.13-3.604 2.474-5.149 5.663-3.411z" fill="url(#paint103_radial)"/><path opacity=".1" d="M115.329-102.752l30.888 16.016 28.31 115.812-56.725-29.92c-3.254-1.739-5.922-6.052-5.987-9.722l-2.148-88.838c-.13-3.605 2.408-5.086 5.662-3.348z" fill="url(#paint104_linear)"/></g><defs><linearGradient id="paint0_linear" x1="135.659" y1="121.825" x2="170.445" y2="65.618" gradientUnits="userSpaceOnUse"><stop offset=".035" stop-color="#6B24D6"/><stop offset=".294" stop-color="#7733DC"/><stop offset=".794" stop-color="#975CED"/><stop offset="1" stop-color="#A56EF4"/></linearGradient><linearGradient id="paint2_linear" x1="152.081" y1="81.466" x2="209.276" y2="64.189" gradientUnits="userSpaceOnUse"><stop offset=".035" stop-color="#6B24D6"/><stop offset=".294" stop-color="#7733DC"/><stop offset=".794" stop-color="#975CED"/><stop offset="1" stop-color="#A56EF4"/></linearGradient><linearGradient id="paint3_linear" x1="97.697" y1="87.089" x2="171.324" y2="70.439" gradientUnits="userSpaceOnUse"><stop offset=".035" stop-color="#6B24D6"/><stop offset=".294" stop-color="#7733DC"/><stop offset=".794" stop-color="#975CED"/><stop offset="1" stop-color="#A56EF4"/></linearGradient><linearGradient id="paint4_linear" x1="152.081" y1="79.989" x2="209.276" y2="62.711" gradientUnits="userSpaceOnUse"><stop offset=".035" stop-color="#9F19AB"/><stop offset=".244" stop-color="#AE25B1"/><stop offset=".645" stop-color="#D744BF"/><stop offset="1" stop-color="#FF63CE"/></linearGradient><linearGradient id="paint5_linear" x1="97.698" y1="85.611" x2="171.323" y2="68.961" gradientUnits="userSpaceOnUse"><stop offset=".035" stop-color="#9F19AB"/><stop offset=".244" stop-color="#AE25B1"/><stop offset=".645" stop-color="#D744BF"/><stop offset="1" stop-color="#FF63CE"/></linearGradient><linearGradient id="paint6_linear" x1="173.797" y1="18.512" x2="143.937" y2="75.924" gradientUnits="userSpaceOnUse"><stop offset=".035" stop-color="#9F19AB"/><stop offset=".244" stop-color="#AE25B1"/><stop offset=".645" stop-color="#D744BF"/><stop offset="1" stop-color="#FF63CE"/></linearGradient><linearGradient id="paint8_linear" x1="143.526" y1="66.451" x2="158.366" y2="61.969" gradientUnits="userSpaceOnUse"><stop offset=".035" stop-color="#9F19AB"/><stop offset=".244" stop-color="#AE25B1"/><stop offset=".645" stop-color="#D744BF"/><stop offset="1" stop-color="#FF63CE"/></linearGradient><linearGradient id="paint9_linear" x1="90.711" y1="67.713" x2="174.184" y2="48.835" gradientUnits="userSpaceOnUse"><stop offset=".035" stop-color="#9F19AB"/><stop offset=".244" stop-color="#AE25B1"/><stop offset=".645" stop-color="#D744BF"/><stop offset="1" stop-color="#FF63CE"/></linearGradient><linearGradient id="paint10_linear" x1="133.321" y1="34.385" x2="129.74" y2="41.271" gradientUnits="userSpaceOnUse"><stop offset=".035" stop-color="#9F19AB"/><stop offset=".244" stop-color="#AE25B1"/><stop offset=".645" stop-color="#D744BF"/><stop offset="1" stop-color="#FF63CE"/></linearGradient><linearGradient id="paint12_linear" x1="171.213" y1="142.655" x2="205.999" y2="86.449" gradientUnits="userSpaceOnUse"><stop offset=".035" stop-color="#6B24D6"/><stop offset=".294" stop-color="#7733DC"/><stop offset=".794" stop-color="#975CED"/><stop offset="1" stop-color="#A56EF4"/></linearGradient><linearGradient id="paint14_linear" x1="187.634" y1="102.296" x2="244.826" y2="85.02" gradientUnits="userSpaceOnUse"><stop offset=".035" stop-color="#6B24D6"/><stop offset=".294" stop-color="#7733DC"/><stop offset=".794" stop-color="#975CED"/><stop offset="1" stop-color="#A56EF4"/></linearGradient><linearGradient id="paint15_linear" x1="133.25" y1="107.919" x2="206.877" y2="91.269" gradientUnits="userSpaceOnUse"><stop offset=".035" stop-color="#6B24D6"/><stop offset=".294" stop-color="#7733DC"/><stop offset=".794" stop-color="#975CED"/><stop offset="1" stop-color="#A56EF4"/></linearGradient><linearGradient id="paint16_linear" x1="187.634" y1="100.819" x2="244.826" y2="83.542" gradientUnits="userSpaceOnUse"><stop offset=".035" stop-color="#9F19AB"/><stop offset=".244" stop-color="#AE25B1"/><stop offset=".645" stop-color="#D744BF"/><stop offset="1" stop-color="#FF63CE"/></linearGradient><linearGradient id="paint17_linear" x1="133.25" y1="106.442" x2="206.876" y2="89.791" gradientUnits="userSpaceOnUse"><stop offset=".035" stop-color="#9F19AB"/><stop offset=".244" stop-color="#AE25B1"/><stop offset=".645" stop-color="#D744BF"/><stop offset="1" stop-color="#FF63CE"/></linearGradient><linearGradient id="paint18_linear" x1="209.35" y1="39.342" x2="179.489" y2="96.753" gradientUnits="userSpaceOnUse"><stop offset=".035" stop-color="#9F19AB"/><stop offset=".244" stop-color="#AE25B1"/><stop offset=".645" stop-color="#D744BF"/><stop offset="1" stop-color="#FF63CE"/></linearGradient><linearGradient id="paint20_linear" x1="179.079" y1="87.282" x2="193.916" y2="82.8" gradientUnits="userSpaceOnUse"><stop offset=".035" stop-color="#9F19AB"/><stop offset=".244" stop-color="#AE25B1"/><stop offset=".645" stop-color="#D744BF"/><stop offset="1" stop-color="#FF63CE"/></linearGradient><linearGradient id="paint21_linear" x1="126.261" y1="88.544" x2="209.738" y2="69.666" gradientUnits="userSpaceOnUse"><stop offset=".035" stop-color="#9F19AB"/><stop offset=".244" stop-color="#AE25B1"/><stop offset=".645" stop-color="#D744BF"/><stop offset="1" stop-color="#FF63CE"/></linearGradient><linearGradient id="paint22_linear" x1="168.875" y1="55.212" x2="165.292" y2="62.102" gradientUnits="userSpaceOnUse"><stop offset=".035" stop-color="#9F19AB"/><stop offset=".244" stop-color="#AE25B1"/><stop offset=".645" stop-color="#D744BF"/><stop offset="1" stop-color="#FF63CE"/></linearGradient><linearGradient id="paint24_linear" x1="205.756" y1="162.772" x2="240.542" y2="106.566" gradientUnits="userSpaceOnUse"><stop offset=".035" stop-color="#6B24D6"/><stop offset=".294" stop-color="#7733DC"/><stop offset=".794" stop-color="#975CED"/><stop offset="1" stop-color="#A56EF4"/></linearGradient><linearGradient id="paint26_linear" x1="222.178" y1="122.414" x2="279.373" y2="105.136" gradientUnits="userSpaceOnUse"><stop offset=".035" stop-color="#6B24D6"/><stop offset=".294" stop-color="#7733DC"/><stop offset=".794" stop-color="#975CED"/><stop offset="1" stop-color="#A56EF4"/></linearGradient><linearGradient id="paint27_linear" x1="167.795" y1="128.036" x2="241.42" y2="111.385" gradientUnits="userSpaceOnUse"><stop offset=".035" stop-color="#6B24D6"/><stop offset=".294" stop-color="#7733DC"/><stop offset=".794" stop-color="#975CED"/><stop offset="1" stop-color="#A56EF4"/></linearGradient><linearGradient id="paint28_linear" x1="222.178" y1="120.936" x2="279.373" y2="103.659" gradientUnits="userSpaceOnUse"><stop offset=".035" stop-color="#9F19AB"/><stop offset=".244" stop-color="#AE25B1"/><stop offset=".645" stop-color="#D744BF"/><stop offset="1" stop-color="#FF63CE"/></linearGradient><linearGradient id="paint29_linear" x1="167.795" y1="126.558" x2="241.42" y2="109.908" gradientUnits="userSpaceOnUse"><stop offset=".035" stop-color="#9F19AB"/><stop offset=".244" stop-color="#AE25B1"/><stop offset=".645" stop-color="#D744BF"/><stop offset="1" stop-color="#FF63CE"/></linearGradient><linearGradient id="paint30_linear" x1="243.894" y1="59.459" x2="214.033" y2="116.871" gradientUnits="userSpaceOnUse"><stop offset=".035" stop-color="#9F19AB"/><stop offset=".244" stop-color="#AE25B1"/><stop offset=".645" stop-color="#D744BF"/><stop offset="1" stop-color="#FF63CE"/></linearGradient><linearGradient id="paint32_linear" x1="213.623" y1="107.399" x2="228.463" y2="102.916" gradientUnits="userSpaceOnUse"><stop offset=".035" stop-color="#9F19AB"/><stop offset=".244" stop-color="#AE25B1"/><stop offset=".645" stop-color="#D744BF"/><stop offset="1" stop-color="#FF63CE"/></linearGradient><linearGradient id="paint33_linear" x1="160.807" y1="108.661" x2="244.281" y2="89.783" gradientUnits="userSpaceOnUse"><stop offset=".035" stop-color="#9F19AB"/><stop offset=".244" stop-color="#AE25B1"/><stop offset=".645" stop-color="#D744BF"/><stop offset="1" stop-color="#FF63CE"/></linearGradient><linearGradient id="paint34_linear" x1="203.417" y1="75.334" x2="199.837" y2="82.218" gradientUnits="userSpaceOnUse"><stop offset=".035" stop-color="#9F19AB"/><stop offset=".244" stop-color="#AE25B1"/><stop offset=".645" stop-color="#D744BF"/><stop offset="1" stop-color="#FF63CE"/></linearGradient><linearGradient id="paint36_linear" x1="85.561" y1="150.655" x2="120.347" y2="94.448" gradientUnits="userSpaceOnUse"><stop offset=".035" stop-color="#6B24D6"/><stop offset=".294" stop-color="#7733DC"/><stop offset=".794" stop-color="#975CED"/><stop offset="1" stop-color="#A56EF4"/></linearGradient><linearGradient id="paint38_linear" x1="101.983" y1="110.296" x2="159.177" y2="93.019" gradientUnits="userSpaceOnUse"><stop offset=".035" stop-color="#6B24D6"/><stop offset=".294" stop-color="#7733DC"/><stop offset=".794" stop-color="#975CED"/><stop offset="1" stop-color="#A56EF4"/></linearGradient><linearGradient id="paint39_linear" x1="47.598" y1="115.918" x2="121.227" y2="99.267" gradientUnits="userSpaceOnUse"><stop offset=".035" stop-color="#6B24D6"/><stop offset=".294" stop-color="#7733DC"/><stop offset=".794" stop-color="#975CED"/><stop offset="1" stop-color="#A56EF4"/></linearGradient><linearGradient id="paint40_linear" x1="101.983" y1="108.818" x2="159.177" y2="91.54" gradientUnits="userSpaceOnUse"><stop offset=".035" stop-color="#9F19AB"/><stop offset=".244" stop-color="#AE25B1"/><stop offset=".645" stop-color="#D744BF"/><stop offset="1" stop-color="#FF63CE"/></linearGradient><linearGradient id="paint41_linear" x1="47.598" y1="114.439" x2="121.227" y2="97.788" gradientUnits="userSpaceOnUse"><stop offset=".035" stop-color="#9F19AB"/><stop offset=".244" stop-color="#AE25B1"/><stop offset=".645" stop-color="#D744BF"/><stop offset="1" stop-color="#FF63CE"/></linearGradient><linearGradient id="paint42_linear" x1="123.698" y1="47.343" x2="93.838" y2="104.753" gradientUnits="userSpaceOnUse"><stop offset=".035" stop-color="#9F19AB"/><stop offset=".244" stop-color="#AE25B1"/><stop offset=".645" stop-color="#D744BF"/><stop offset="1" stop-color="#FF63CE"/></linearGradient><linearGradient id="paint44_linear" x1="93.428" y1="95.281" x2="108.268" y2="90.798" gradientUnits="userSpaceOnUse"><stop offset=".035" stop-color="#9F19AB"/><stop offset=".244" stop-color="#AE25B1"/><stop offset=".645" stop-color="#D744BF"/><stop offset="1" stop-color="#FF63CE"/></linearGradient><linearGradient id="paint45_linear" x1="40.611" y1="96.543" x2="124.088" y2="77.664" gradientUnits="userSpaceOnUse"><stop offset=".035" stop-color="#9F19AB"/><stop offset=".244" stop-color="#AE25B1"/><stop offset=".645" stop-color="#D744BF"/><stop offset="1" stop-color="#FF63CE"/></linearGradient><linearGradient id="paint46_linear" x1="83.223" y1="63.214" x2="79.642" y2="70.1" gradientUnits="userSpaceOnUse"><stop offset=".035" stop-color="#9F19AB"/><stop offset=".244" stop-color="#AE25B1"/><stop offset=".645" stop-color="#D744BF"/><stop offset="1" stop-color="#FF63CE"/></linearGradient><linearGradient id="paint48_linear" x1="121.113" y1="171.486" x2="155.899" y2="115.278" gradientUnits="userSpaceOnUse"><stop offset=".035" stop-color="#6B24D6"/><stop offset=".294" stop-color="#7733DC"/><stop offset=".794" stop-color="#975CED"/><stop offset="1" stop-color="#A56EF4"/></linearGradient><linearGradient id="paint50_linear" x1="137.536" y1="131.127" x2="194.731" y2="113.849" gradientUnits="userSpaceOnUse"><stop offset=".035" stop-color="#6B24D6"/><stop offset=".294" stop-color="#7733DC"/><stop offset=".794" stop-color="#975CED"/><stop offset="1" stop-color="#A56EF4"/></linearGradient><linearGradient id="paint51_linear" x1="83.153" y1="136.749" x2="156.777" y2="120.099" gradientUnits="userSpaceOnUse"><stop offset=".035" stop-color="#6B24D6"/><stop offset=".294" stop-color="#7733DC"/><stop offset=".794" stop-color="#975CED"/><stop offset="1" stop-color="#A56EF4"/></linearGradient><linearGradient id="paint52_linear" x1="137.536" y1="129.648" x2="194.73" y2="112.371" gradientUnits="userSpaceOnUse"><stop offset=".035" stop-color="#9F19AB"/><stop offset=".244" stop-color="#AE25B1"/><stop offset=".645" stop-color="#D744BF"/><stop offset="1" stop-color="#FF63CE"/></linearGradient><linearGradient id="paint53_linear" x1="83.153" y1="135.27" x2="156.777" y2="118.62" gradientUnits="userSpaceOnUse"><stop offset=".035" stop-color="#9F19AB"/><stop offset=".244" stop-color="#AE25B1"/><stop offset=".645" stop-color="#D744BF"/><stop offset="1" stop-color="#FF63CE"/></linearGradient><linearGradient id="paint54_linear" x1="159.251" y1="68.172" x2="129.39" y2="125.584" gradientUnits="userSpaceOnUse"><stop offset=".035" stop-color="#9F19AB"/><stop offset=".244" stop-color="#AE25B1"/><stop offset=".645" stop-color="#D744BF"/><stop offset="1" stop-color="#FF63CE"/></linearGradient><linearGradient id="paint56_linear" x1="128.981" y1="116.111" x2="143.821" y2="111.628" gradientUnits="userSpaceOnUse"><stop offset=".035" stop-color="#9F19AB"/><stop offset=".244" stop-color="#AE25B1"/><stop offset=".645" stop-color="#D744BF"/><stop offset="1" stop-color="#FF63CE"/></linearGradient><linearGradient id="paint57_linear" x1="76.165" y1="117.372" x2="159.638" y2="98.495" gradientUnits="userSpaceOnUse"><stop offset=".035" stop-color="#9F19AB"/><stop offset=".244" stop-color="#AE25B1"/><stop offset=".645" stop-color="#D744BF"/><stop offset="1" stop-color="#FF63CE"/></linearGradient><linearGradient id="paint58_linear" x1="118.776" y1="84.044" x2="115.195" y2="90.93" gradientUnits="userSpaceOnUse"><stop offset=".035" stop-color="#9F19AB"/><stop offset=".244" stop-color="#AE25B1"/><stop offset=".645" stop-color="#D744BF"/><stop offset="1" stop-color="#FF63CE"/></linearGradient><linearGradient id="paint60_linear" x1="155.658" y1="191.601" x2="190.444" y2="135.395" gradientUnits="userSpaceOnUse"><stop offset=".035" stop-color="#6B24D6"/><stop offset=".294" stop-color="#7733DC"/><stop offset=".794" stop-color="#975CED"/><stop offset="1" stop-color="#A56EF4"/></linearGradient><linearGradient id="paint62_linear" x1="172.078" y1="151.243" x2="229.272" y2="133.966" gradientUnits="userSpaceOnUse"><stop offset=".035" stop-color="#6B24D6"/><stop offset=".294" stop-color="#7733DC"/><stop offset=".794" stop-color="#975CED"/><stop offset="1" stop-color="#A56EF4"/></linearGradient><linearGradient id="paint63_linear" x1="117.693" y1="156.865" x2="191.322" y2="140.214" gradientUnits="userSpaceOnUse"><stop offset=".035" stop-color="#6B24D6"/><stop offset=".294" stop-color="#7733DC"/><stop offset=".794" stop-color="#975CED"/><stop offset="1" stop-color="#A56EF4"/></linearGradient><linearGradient id="paint64_linear" x1="172.078" y1="149.766" x2="229.272" y2="132.489" gradientUnits="userSpaceOnUse"><stop offset=".035" stop-color="#9F19AB"/><stop offset=".244" stop-color="#AE25B1"/><stop offset=".645" stop-color="#D744BF"/><stop offset="1" stop-color="#FF63CE"/></linearGradient><linearGradient id="paint65_linear" x1="117.693" y1="155.388" x2="191.322" y2="138.737" gradientUnits="userSpaceOnUse"><stop offset=".035" stop-color="#9F19AB"/><stop offset=".244" stop-color="#AE25B1"/><stop offset=".645" stop-color="#D744BF"/><stop offset="1" stop-color="#FF63CE"/></linearGradient><linearGradient id="paint66_linear" x1="193.794" y1="88.288" x2="163.933" y2="145.701" gradientUnits="userSpaceOnUse"><stop offset=".035" stop-color="#9F19AB"/><stop offset=".244" stop-color="#AE25B1"/><stop offset=".645" stop-color="#D744BF"/><stop offset="1" stop-color="#FF63CE"/></linearGradient><linearGradient id="paint68_linear" x1="163.523" y1="136.229" x2="178.364" y2="131.746" gradientUnits="userSpaceOnUse"><stop offset=".035" stop-color="#9F19AB"/><stop offset=".244" stop-color="#AE25B1"/><stop offset=".645" stop-color="#D744BF"/><stop offset="1" stop-color="#FF63CE"/></linearGradient><linearGradient id="paint69_linear" x1="110.706" y1="137.49" x2="194.183" y2="118.611" gradientUnits="userSpaceOnUse"><stop offset=".035" stop-color="#9F19AB"/><stop offset=".244" stop-color="#AE25B1"/><stop offset=".645" stop-color="#D744BF"/><stop offset="1" stop-color="#FF63CE"/></linearGradient><linearGradient id="paint70_linear" x1="153.318" y1="104.162" x2="149.736" y2="111.047" gradientUnits="userSpaceOnUse"><stop offset=".035" stop-color="#9F19AB"/><stop offset=".244" stop-color="#AE25B1"/><stop offset=".645" stop-color="#D744BF"/><stop offset="1" stop-color="#FF63CE"/></linearGradient><linearGradient id="paint72_linear" x1="36.47" y1="179.484" x2="71.256" y2="123.278" gradientUnits="userSpaceOnUse"><stop offset=".035" stop-color="#6B24D6"/><stop offset=".294" stop-color="#7733DC"/><stop offset=".794" stop-color="#975CED"/><stop offset="1" stop-color="#A56EF4"/></linearGradient><linearGradient id="paint74_linear" x1="52.892" y1="139.126" x2="110.085" y2="121.849" gradientUnits="userSpaceOnUse"><stop offset=".035" stop-color="#6B24D6"/><stop offset=".294" stop-color="#7733DC"/><stop offset=".794" stop-color="#975CED"/><stop offset="1" stop-color="#A56EF4"/></linearGradient><linearGradient id="paint75_linear" x1="-1.491" y1="144.747" x2="72.135" y2="128.097" gradientUnits="userSpaceOnUse"><stop offset=".035" stop-color="#6B24D6"/><stop offset=".294" stop-color="#7733DC"/><stop offset=".794" stop-color="#975CED"/><stop offset="1" stop-color="#A56EF4"/></linearGradient><linearGradient id="paint76_linear" x1="52.892" y1="137.647" x2="110.086" y2="120.37" gradientUnits="userSpaceOnUse"><stop offset=".035" stop-color="#9F19AB"/><stop offset=".244" stop-color="#AE25B1"/><stop offset=".645" stop-color="#D744BF"/><stop offset="1" stop-color="#FF63CE"/></linearGradient><linearGradient id="paint77_linear" x1="-1.491" y1="143.269" x2="72.135" y2="126.619" gradientUnits="userSpaceOnUse"><stop offset=".035" stop-color="#9F19AB"/><stop offset=".244" stop-color="#AE25B1"/><stop offset=".645" stop-color="#D744BF"/><stop offset="1" stop-color="#FF63CE"/></linearGradient><linearGradient id="paint78_linear" x1="74.609" y1="76.169" x2="44.748" y2="133.582" gradientUnits="userSpaceOnUse"><stop offset=".035" stop-color="#9F19AB"/><stop offset=".244" stop-color="#AE25B1"/><stop offset=".645" stop-color="#D744BF"/><stop offset="1" stop-color="#FF63CE"/></linearGradient><linearGradient id="paint80_linear" x1="44.337" y1="124.112" x2="59.18" y2="119.628" gradientUnits="userSpaceOnUse"><stop offset=".035" stop-color="#9F19AB"/><stop offset=".244" stop-color="#AE25B1"/><stop offset=".645" stop-color="#D744BF"/><stop offset="1" stop-color="#FF63CE"/></linearGradient><linearGradient id="paint81_linear" x1="-8.481" y1="125.372" x2="74.998" y2="106.494" gradientUnits="userSpaceOnUse"><stop offset=".035" stop-color="#9F19AB"/><stop offset=".244" stop-color="#AE25B1"/><stop offset=".645" stop-color="#D744BF"/><stop offset="1" stop-color="#FF63CE"/></linearGradient><linearGradient id="paint82_linear" x1="34.133" y1="92.042" x2="30.551" y2="98.93" gradientUnits="userSpaceOnUse"><stop offset=".035" stop-color="#9F19AB"/><stop offset=".244" stop-color="#AE25B1"/><stop offset=".645" stop-color="#D744BF"/><stop offset="1" stop-color="#FF63CE"/></linearGradient><linearGradient id="paint84_linear" x1="72.025" y1="200.314" x2="106.81" y2="144.108" gradientUnits="userSpaceOnUse"><stop offset=".035" stop-color="#6B24D6"/><stop offset=".294" stop-color="#7733DC"/><stop offset=".794" stop-color="#975CED"/><stop offset="1" stop-color="#A56EF4"/></linearGradient><linearGradient id="paint86_linear" x1="88.445" y1="159.956" x2="145.638" y2="142.679" gradientUnits="userSpaceOnUse"><stop offset=".035" stop-color="#6B24D6"/><stop offset=".294" stop-color="#7733DC"/><stop offset=".794" stop-color="#975CED"/><stop offset="1" stop-color="#A56EF4"/></linearGradient><linearGradient id="paint87_linear" x1="34.061" y1="165.577" x2="107.686" y2="148.927" gradientUnits="userSpaceOnUse"><stop offset=".035" stop-color="#6B24D6"/><stop offset=".294" stop-color="#7733DC"/><stop offset=".794" stop-color="#975CED"/><stop offset="1" stop-color="#A56EF4"/></linearGradient><linearGradient id="paint88_linear" x1="88.445" y1="158.478" x2="145.638" y2="141.201" gradientUnits="userSpaceOnUse"><stop offset=".035" stop-color="#9F19AB"/><stop offset=".244" stop-color="#AE25B1"/><stop offset=".645" stop-color="#D744BF"/><stop offset="1" stop-color="#FF63CE"/></linearGradient><linearGradient id="paint89_linear" x1="34.061" y1="164.1" x2="107.686" y2="147.449" gradientUnits="userSpaceOnUse"><stop offset=".035" stop-color="#9F19AB"/><stop offset=".244" stop-color="#AE25B1"/><stop offset=".645" stop-color="#D744BF"/><stop offset="1" stop-color="#FF63CE"/></linearGradient><linearGradient id="paint90_linear" x1="110.161" y1="97.001" x2="80.3" y2="154.413" gradientUnits="userSpaceOnUse"><stop offset=".035" stop-color="#9F19AB"/><stop offset=".244" stop-color="#AE25B1"/><stop offset=".645" stop-color="#D744BF"/><stop offset="1" stop-color="#FF63CE"/></linearGradient><linearGradient id="paint92_linear" x1="79.889" y1="144.942" x2="94.73" y2="140.459" gradientUnits="userSpaceOnUse"><stop offset=".035" stop-color="#9F19AB"/><stop offset=".244" stop-color="#AE25B1"/><stop offset=".645" stop-color="#D744BF"/><stop offset="1" stop-color="#FF63CE"/></linearGradient><linearGradient id="paint93_linear" x1="27.073" y1="146.203" x2="110.548" y2="127.325" gradientUnits="userSpaceOnUse"><stop offset=".035" stop-color="#9F19AB"/><stop offset=".244" stop-color="#AE25B1"/><stop offset=".645" stop-color="#D744BF"/><stop offset="1" stop-color="#FF63CE"/></linearGradient><linearGradient id="paint94_linear" x1="69.685" y1="112.874" x2="66.103" y2="119.76" gradientUnits="userSpaceOnUse"><stop offset=".035" stop-color="#9F19AB"/><stop offset=".244" stop-color="#AE25B1"/><stop offset=".645" stop-color="#D744BF"/><stop offset="1" stop-color="#FF63CE"/></linearGradient><linearGradient id="paint96_linear" x1="246.669" y1="10.199" x2="246.669" y2="20.157" gradientUnits="userSpaceOnUse"><stop stop-color="#06EDE1"/><stop offset="1" stop-color="#06EDE1" stop-opacity="0"/></linearGradient><linearGradient id="paint97_linear" x1="245.765" y1="4.02" x2="245.765" y2="10.659" gradientUnits="userSpaceOnUse"><stop stop-color="#06EDE1"/><stop offset="1" stop-color="#06EDE1" stop-opacity="0"/></linearGradient><linearGradient id="paint98_linear" x1="2.712" y1="-2.631" x2="2.712" y2="7.328" gradientUnits="userSpaceOnUse"><stop stop-color="#06EDE1"/><stop offset="1" stop-color="#06EDE1" stop-opacity="0"/></linearGradient><linearGradient id="paint99_linear" x1="1.808" y1="-1.754" x2="1.808" y2="4.885" gradientUnits="userSpaceOnUse"><stop stop-color="#06EDE1"/><stop offset="1" stop-color="#06EDE1" stop-opacity="0"/></linearGradient><linearGradient id="paint100_linear" x1="110.208" y1="42.654" x2="276.679" y2="38.111" gradientUnits="userSpaceOnUse"><stop stop-color="#7162C8"/><stop offset=".63" stop-color="#654BB7"/><stop offset="1" stop-color="#5D3BAB"/></linearGradient><linearGradient id="paint101_linear" x1="277.574" y1="36.176" x2="272.029" y2="36.327" gradientUnits="userSpaceOnUse"><stop stop-color="#7162C8"/><stop offset=".63" stop-color="#654BB7"/><stop offset="1" stop-color="#5D3BAB"/></linearGradient><linearGradient id="paint102_linear" x1="274.646" y1="-13.475" x2="108.819" y2="-8.95" gradientUnits="userSpaceOnUse"><stop stop-color="#CFCFFF"/><stop offset=".068" stop-color="#D4D4FF"/><stop offset=".356" stop-color="#E7E7FF"/><stop offset=".66" stop-color="#F1F1FF"/><stop offset="1" stop-color="#F5F5FF"/></linearGradient><linearGradient id="paint104_linear" x1="109.676" y1="-37.188" x2="174.494" y2="-37.188" gradientUnits="userSpaceOnUse"><stop offset=".5" stop-color="#fff"/><stop offset="1" stop-color="#B7B6B6"/></linearGradient><radialGradient id="paint1_radial" cx="0" cy="0" r="1" gradientUnits="userSpaceOnUse" gradientTransform="matrix(23.5443 0 0 23.3379 168.407 93.379)"><stop stop-color="#fff"/><stop offset="1"/></radialGradient><radialGradient id="paint7_radial" cx="0" cy="0" r="1" gradientUnits="userSpaceOnUse" gradientTransform="matrix(18.1059 0 0 17.9472 163.324 80.82)"><stop stop-color="#fff"/><stop offset="1"/></radialGradient><radialGradient id="paint11_radial" cx="0" cy="0" r="1" gradientUnits="userSpaceOnUse" gradientTransform="matrix(15.1006 0 0 14.9683 133.806 51.204)"><stop stop-color="#fff"/><stop offset="1"/></radialGradient><radialGradient id="paint13_radial" cx="0" cy="0" r="1" gradientUnits="userSpaceOnUse" gradientTransform="matrix(23.545 0 0 23.3387 203.96 114.21)"><stop stop-color="#fff"/><stop offset="1"/></radialGradient><radialGradient id="paint19_radial" cx="0" cy="0" r="1" gradientUnits="userSpaceOnUse" gradientTransform="matrix(18.106 0 0 17.9473 198.875 101.651)"><stop stop-color="#fff"/><stop offset="1"/></radialGradient><radialGradient id="paint23_radial" cx="0" cy="0" r="1" gradientUnits="userSpaceOnUse" gradientTransform="matrix(15.1006 0 0 14.9683 169.359 72.034)"><stop stop-color="#fff"/><stop offset="1"/></radialGradient><radialGradient id="paint25_radial" cx="0" cy="0" r="1" gradientUnits="userSpaceOnUse" gradientTransform="matrix(23.545 0 0 23.3386 238.504 134.326)"><stop stop-color="#fff"/><stop offset="1"/></radialGradient><radialGradient id="paint31_radial" cx="0" cy="0" r="1" gradientUnits="userSpaceOnUse" gradientTransform="matrix(18.106 0 0 17.9473 233.421 121.769)"><stop stop-color="#fff"/><stop offset="1"/></radialGradient><radialGradient id="paint35_radial" cx="0" cy="0" r="1" gradientUnits="userSpaceOnUse" gradientTransform="matrix(15.1006 0 0 14.9683 203.903 92.152)"><stop stop-color="#fff"/><stop offset="1"/></radialGradient><radialGradient id="paint37_radial" cx="0" cy="0" r="1" gradientUnits="userSpaceOnUse" gradientTransform="matrix(23.5458 0 0 23.3394 118.312 122.208)"><stop stop-color="#fff"/><stop offset="1"/></radialGradient><radialGradient id="paint43_radial" cx="0" cy="0" r="1" gradientUnits="userSpaceOnUse" gradientTransform="matrix(18.1059 0 0 17.9472 113.225 109.65)"><stop stop-color="#fff"/><stop offset="1"/></radialGradient><radialGradient id="paint47_radial" cx="0" cy="0" r="1" gradientUnits="userSpaceOnUse" gradientTransform="matrix(15.1009 0 0 14.9686 83.708 80.034)"><stop stop-color="#fff"/><stop offset="1"/></radialGradient><radialGradient id="paint49_radial" cx="0" cy="0" r="1" gradientUnits="userSpaceOnUse" gradientTransform="matrix(23.545 0 0 23.3387 153.862 143.039)"><stop stop-color="#fff"/><stop offset="1"/></radialGradient><radialGradient id="paint55_radial" cx="0" cy="0" r="1" gradientUnits="userSpaceOnUse" gradientTransform="matrix(18.1068 0 0 17.9481 148.778 130.48)"><stop stop-color="#fff"/><stop offset="1"/></radialGradient><radialGradient id="paint59_radial" cx="0" cy="0" r="1" gradientUnits="userSpaceOnUse" gradientTransform="matrix(15.1009 0 0 14.9686 119.261 100.864)"><stop stop-color="#fff"/><stop offset="1"/></radialGradient><radialGradient id="paint61_radial" cx="0" cy="0" r="1" gradientUnits="userSpaceOnUse" gradientTransform="matrix(23.545 0 0 23.3387 188.407 163.157)"><stop stop-color="#fff"/><stop offset="1"/></radialGradient><radialGradient id="paint67_radial" cx="0" cy="0" r="1" gradientUnits="userSpaceOnUse" gradientTransform="matrix(18.1059 0 0 17.9472 183.32 150.598)"><stop stop-color="#fff"/><stop offset="1"/></radialGradient><radialGradient id="paint71_radial" cx="0" cy="0" r="1" gradientUnits="userSpaceOnUse" gradientTransform="matrix(15.1006 0 0 14.9683 153.803 120.98)"><stop stop-color="#fff"/><stop offset="1"/></radialGradient><radialGradient id="paint73_radial" cx="0" cy="0" r="1" gradientUnits="userSpaceOnUse" gradientTransform="matrix(23.5458 0 0 23.3394 69.22 151.038)"><stop stop-color="#fff"/><stop offset="1"/></radialGradient><radialGradient id="paint79_radial" cx="0" cy="0" r="1" gradientUnits="userSpaceOnUse" gradientTransform="matrix(18.106 0 0 17.9473 64.134 138.48)"><stop stop-color="#fff"/><stop offset="1"/></radialGradient><radialGradient id="paint83_radial" cx="0" cy="0" r="1" gradientUnits="userSpaceOnUse" gradientTransform="matrix(15.1006 0 0 14.9683 34.617 108.862)"><stop stop-color="#fff"/><stop offset="1"/></radialGradient><radialGradient id="paint85_radial" cx="0" cy="0" r="1" gradientUnits="userSpaceOnUse" gradientTransform="matrix(23.5458 0 0 23.3393 104.77 171.868)"><stop stop-color="#fff"/><stop offset="1"/></radialGradient><radialGradient id="paint91_radial" cx="0" cy="0" r="1" gradientUnits="userSpaceOnUse" gradientTransform="matrix(18.1059 0 0 17.9472 99.687 159.311)"><stop stop-color="#fff"/><stop offset="1"/></radialGradient><radialGradient id="paint95_radial" cx="0" cy="0" r="1" gradientUnits="userSpaceOnUse" gradientTransform="matrix(15.1003 0 0 14.968 70.17 129.693)"><stop stop-color="#fff"/><stop offset="1"/></radialGradient><radialGradient id="paint103_radial" cx="0" cy="0" r="1" gradientUnits="userSpaceOnUse" gradientTransform="matrix(0 91.6833 -81.42 0 190.846 -11.854)"><stop stop-color="#515AA5"/><stop offset=".5" stop-color="#515AA5"/><stop offset="1" stop-color="#33425A"/></radialGradient><clipPath id="clip0"><path fill="#fff" d="M0 0h336v213.073H0z"/></clipPath></defs></svg>