<svg width="453" height="427" fill="none" xmlns="http://www.w3.org/2000/svg"><path opacity=".1" d="M169.701 268.722l35.69 20.842 41.802-24.277-35.724-20.808-41.768 24.243z" fill="#000"/><path d="M204.543 292.896a8.19 8.19 0 01-4.041-1.088l-32.43-18.836a4.61 4.61 0 01-2.275-3.978c0-1.666.883-3.162 2.343-3.944l31.581-17.681v-17.51a1.74 1.74 0 011.732-1.734 1.74 1.74 0 011.732 1.734v18.53c0 .612-.34 1.19-.883 1.496l-32.464 18.157a1.144 1.144 0 00-.577.986c0 .204.034.68.577.986l32.43 18.836a4.662 4.662 0 004.618 0l28.083-16.422v-47.363a1.74 1.74 0 011.732-1.734 1.74 1.74 0 011.732 1.734v48.315c0 .612-.34 1.19-.849 1.496l-28.932 16.932c-1.291.714-2.683 1.088-4.109 1.088z" fill="url(#paint0_linear)"/><path opacity=".3" d="M204.268 291.468a6.855 6.855 0 01-3.463-.918l-32.43-18.836a3.292 3.292 0 01-1.698-2.992c0-1.258.679-2.346 1.766-2.958l32.158-18.021v-18.19c0-.306.272-.578.577-.578.306 0 .578.272.578.578v18.53a.56.56 0 01-.306.51l-32.464 18.191a2.272 2.272 0 00-1.154 1.972c0 .816.407 1.564 1.12 1.972l32.43 18.836c.883.51 1.868.782 2.886.782a5.657 5.657 0 002.887-.782l28.626-16.762v-48.009c0-.306.272-.578.578-.578.305 0 .577.272.577.578v48.315a.6.6 0 01-.272.51l-28.932 16.932c-1.053.578-2.241.918-3.464.918z" fill="#fff"/><path d="M204.135 290.822a6.722 6.722 0 01-3.226-.85l-32.43-18.836c-.917-.544-1.494-1.496-1.46-2.584 0-1.088.577-2.04 1.528-2.55l32.396-18.157v-18.462c0-.068.034-.102.102-.102.068 0 .102.068.102.102v18.53c0 .034-.034.068-.068.102l-32.464 18.123c-.883.476-1.392 1.36-1.392 2.38 0 .986.509 1.904 1.358 2.38l32.43 18.836c.951.544 2.003.85 3.124.85a6.337 6.337 0 003.124-.85l28.864-16.898v-48.247c0-.068.068-.102.102-.102.068 0 .102.034.102.102v48.315l-28.966 17.034a6.396 6.396 0 01-3.226.884z" fill="url(#paint1_radial)"/><path d="M202.334 243.834v3.502l39.018-22.577v-3.604l-39.018 22.679z" fill="url(#paint2_linear)"/><path d="M202.334 243.833v3.502l-38.203-22.202v-3.638l38.203 22.338z" fill="url(#paint3_linear)"/><path d="M202.334 241.692v3.502l39.018-22.577v-3.638l-39.018 22.713z" fill="url(#paint4_linear)"/><path d="M202.334 241.691v3.502l-38.203-22.236v-3.604l38.203 22.338z" fill="url(#paint5_linear)"/><path d="M164.131 219.353l38.203 22.338 39.017-22.712-38.27-22.27-38.95 22.644z" fill="url(#paint6_linear)"/><path d="M202.096 240.672l4.89-1.088 34.365-20.605-39.255 21.693z" fill="url(#paint7_radial)"/><path d="M202.435 204.019l-3.803-15.504-2.853 1.666 3.804 15.436a94.939 94.939 0 012.784 22.916v13.159l2.853-1.564-.034-13.363c0-7.65-.917-15.3-2.751-22.746z" fill="url(#paint8_linear)"/><path d="M195.745 190.181l-38.27-22.441 3.837 15.573a95.838 95.838 0 012.784 22.848v13.226l38.271 22.338v-13.192c0-7.718-.951-15.436-2.785-22.95l-3.837-15.402z" fill="url(#paint9_linear)"/><path d="M157.475 167.74l38.27 22.441 2.853-1.666-38.305-22.407-2.818 1.632z" fill="url(#paint10_linear)"/><path d="M157.475 167.74l39.085 21.761 4.313 21.896-5.671-21.182-37.727-22.475z" fill="url(#paint11_radial)"/><path opacity=".1" d="M220.906 299.016l35.69 20.842 41.802-24.276-35.724-20.809-41.768 24.243z" fill="#000"/><path d="M255.748 323.224a8.19 8.19 0 01-4.041-1.088l-32.43-18.836c-1.426-.85-2.275-2.312-2.275-3.978 0-1.666.883-3.128 2.343-3.944l31.581-17.681v-17.51a1.74 1.74 0 011.732-1.734 1.74 1.74 0 011.732 1.734v18.53c0 .612-.34 1.19-.883 1.496l-32.464 18.191a1.144 1.144 0 00-.577.986c0 .204.034.68.577.986l32.43 18.836a4.662 4.662 0 004.618 0l28.083-16.422v-47.397a1.74 1.74 0 011.732-1.734 1.74 1.74 0 011.732 1.734v48.315c0 .612-.34 1.19-.849 1.496l-28.966 16.898a8.007 8.007 0 01-4.075 1.122z" fill="url(#paint12_linear)"/><path opacity=".3" d="M255.475 321.762a6.855 6.855 0 01-3.463-.918l-32.43-18.836a3.292 3.292 0 01-1.698-2.992c0-1.258.679-2.346 1.766-2.958l32.158-18.02v-18.191c0-.306.272-.578.577-.578.306 0 .578.272.578.578v18.531a.56.56 0 01-.306.51l-32.464 18.19a2.272 2.272 0 00-1.154 1.972c0 .816.407 1.564 1.12 1.972l32.43 18.836c.883.51 1.868.782 2.886.782a5.657 5.657 0 002.887-.782l28.626-16.762v-48.009c0-.306.272-.578.578-.578.305 0 .577.272.577.578v48.315a.543.543 0 01-.272.476l-28.932 16.932c-1.053.646-2.241.952-3.464.952z" fill="#fff"/><path d="M255.34 321.116a6.396 6.396 0 01-3.226-.884l-32.43-18.836c-.917-.544-1.494-1.496-1.46-2.584 0-1.088.577-2.04 1.528-2.55l32.396-18.157v-18.462c0-.068.068-.102.102-.102.068 0 .102.034.102.102v18.53c0 .034-.034.068-.068.102l-32.464 18.191c-.883.476-1.392 1.36-1.392 2.38 0 .986.509 1.904 1.358 2.38l32.43 18.836c.951.544 2.003.85 3.09.85a6.241 6.241 0 003.124-.85l28.864-16.898v-48.247c0-.068.034-.102.102-.102.068 0 .102.034.102.102v48.281l-28.966 17.034a6.183 6.183 0 01-3.192.884z" fill="url(#paint13_radial)"/><path d="M253.541 274.128v3.536l38.984-22.611v-3.604l-38.984 22.679z" fill="url(#paint14_linear)"/><path d="M253.54 274.128v3.536l-38.202-22.237v-3.604l38.202 22.305z" fill="url(#paint15_linear)"/><path d="M253.541 271.985v3.536l38.984-22.61v-3.604l-38.984 22.678z" fill="url(#paint16_linear)"/><path d="M253.54 271.985v3.536l-38.202-22.236v-3.604l38.202 22.304z" fill="url(#paint17_linear)"/><path d="M215.338 249.681l38.203 22.305 38.983-22.679-38.236-22.304-38.95 22.678z" fill="url(#paint18_linear)"/><path d="M253.305 270.999l4.89-1.122 34.331-20.57-39.221 21.692z" fill="url(#paint19_radial)"/><path d="M253.643 234.347l-3.837-15.504-2.853 1.666 3.803 15.436a94.89 94.89 0 012.785 22.916v13.158l2.852-1.564v-13.362c0-7.684-.916-15.3-2.75-22.746z" fill="url(#paint20_linear)"/><path d="M246.952 220.475l-38.27-22.441 3.837 15.573a95.838 95.838 0 012.784 22.848v13.226l38.271 22.338v-13.192c0-7.718-.951-15.436-2.785-22.95l-3.837-15.402z" fill="url(#paint21_linear)"/><path d="M208.682 198.035l38.27 22.44 2.853-1.666-38.305-22.406-2.818 1.632z" fill="url(#paint22_linear)"/><path d="M208.682 198.034l39.085 21.795 4.313 21.862-5.671-21.182-37.727-22.475z" fill="url(#paint23_radial)"/><path opacity=".1" d="M270.691 328.291l35.69 20.842 41.768-24.276-35.723-20.809-41.735 24.243z" fill="#000"/><path d="M305.498 352.465a8.19 8.19 0 01-4.041-1.088l-32.43-18.836a4.61 4.61 0 01-2.275-3.978c0-1.666.883-3.128 2.343-3.944l31.581-17.681v-17.51a1.74 1.74 0 011.732-1.734 1.74 1.74 0 011.732 1.734v18.53c0 .612-.34 1.19-.883 1.496l-32.464 18.191c-.509.272-.577.782-.577.986 0 .204.034.68.577.986l32.43 18.836c1.426.85 3.192.816 4.618 0l28.083-16.422v-47.363a1.74 1.74 0 011.732-1.734 1.74 1.74 0 011.732 1.734v48.315c0 .612-.34 1.19-.849 1.496l-28.932 16.932a8.407 8.407 0 01-4.109 1.054z" fill="url(#paint24_linear)"/><path opacity=".3" d="M305.225 351.037a6.855 6.855 0 01-3.463-.918l-32.43-18.836a3.292 3.292 0 01-1.698-2.992c0-1.258.679-2.346 1.766-2.958l32.158-18.021v-18.19c0-.306.272-.578.577-.578.306 0 .578.272.578.578v18.496a.56.56 0 01-.306.51l-32.464 18.191a2.232 2.232 0 00-1.154 1.972c0 .816.407 1.564 1.12 2.006l32.43 18.836c.883.51 1.868.782 2.886.782a5.657 5.657 0 002.887-.782l28.626-16.762v-48.009c0-.306.272-.578.578-.578.305 0 .577.272.577.578v48.315a.6.6 0 01-.272.51l-28.898 16.898c-1.053.646-2.275.952-3.498.952z" fill="#fff"/><path d="M305.088 350.391a6.725 6.725 0 01-3.226-.85l-32.43-18.836c-.917-.544-1.494-1.496-1.46-2.584 0-1.088.577-2.04 1.528-2.55l32.396-18.157v-18.462c0-.068.034-.102.102-.102.068 0 .102.034.102.102v18.53c0 .034-.034.068-.068.102l-32.464 18.191c-.883.476-1.392 1.36-1.392 2.38 0 .986.509 1.904 1.358 2.38l32.43 18.836c.951.544 2.004.85 3.124.85a6.337 6.337 0 003.124-.85l28.865-16.898v-48.315c0-.068.067-.102.101-.102.068 0 .102.068.102.102v48.315l-28.966 17.034c-.951.578-2.105.884-3.226.884z" fill="url(#paint25_radial)"/><path d="M303.291 303.403v3.536l39.018-22.611v-3.604l-39.018 22.679z" fill="url(#paint26_linear)"/><path d="M303.289 303.403v3.536l-38.203-22.237v-3.604l38.203 22.305z" fill="url(#paint27_linear)"/><path d="M303.291 301.26v3.502l39.018-22.576v-3.604l-39.018 22.678z" fill="url(#paint28_linear)"/><path d="M303.289 301.261v3.502l-38.203-22.203v-3.638l38.203 22.339z" fill="url(#paint29_linear)"/><path d="M265.086 278.922l38.203 22.338 39.017-22.678-38.27-22.304-38.95 22.644z" fill="url(#paint30_linear)"/><path d="M303.051 300.274l4.89-1.122 34.365-20.57-39.255 21.692z" fill="url(#paint31_radial)"/><path d="M303.393 263.588l-3.837-15.504-2.853 1.666 3.803 15.436a94.89 94.89 0 012.785 22.916v13.158l2.852-1.564-.034-13.362c.034-7.65-.883-15.3-2.716-22.746z" fill="url(#paint32_linear)"/><path d="M296.735 249.75l-38.27-22.44 3.837 15.572c1.834 7.48 2.785 15.13 2.785 22.848v13.226l38.27 22.339v-13.193c0-7.718-.951-15.436-2.784-22.95l-3.838-15.402z" fill="url(#paint33_linear)"/><path d="M258.432 227.31l38.304 22.44 2.819-1.666-38.305-22.407-2.818 1.633z" fill="url(#paint34_linear)"/><path d="M258.432 227.31l39.119 21.794 4.279 21.862-5.671-21.182-37.727-22.474z" fill="url(#paint35_radial)"/><path opacity=".1" d="M97.537 310.644l35.69 20.843 41.802-24.277-35.724-20.808-41.768 24.242z" fill="#000"/><path d="M132.379 334.852a8.187 8.187 0 01-4.041-1.088l-32.43-18.836a4.624 4.624 0 01-2.275-4.012c0-1.666.883-3.128 2.343-3.944l31.581-17.68v-17.51a1.74 1.74 0 011.732-1.734c.95 0 1.731.782 1.731 1.734v18.496a1.73 1.73 0 01-.882 1.496l-32.464 18.19c-.51.272-.578.782-.578.986 0 .204.068.68.578.986l32.43 18.836a4.662 4.662 0 004.618 0l28.083-16.422v-47.328a1.74 1.74 0 011.732-1.734 1.74 1.74 0 011.732 1.734v48.314c0 .612-.34 1.19-.849 1.496l-28.932 16.932c-1.291.714-2.683 1.088-4.109 1.088z" fill="url(#paint36_linear)"/><path opacity=".3" d="M132.106 333.424a6.855 6.855 0 01-3.463-.918l-32.43-18.836a3.293 3.293 0 01-1.698-2.992c0-1.258.68-2.346 1.766-2.958l32.158-18.02v-18.19c0-.306.272-.578.577-.578.306 0 .577.272.577.578v18.53a.56.56 0 01-.305.51l-32.464 18.122a2.273 2.273 0 00-1.154 1.972c0 .816.407 1.564 1.12 2.006l32.43 18.836c.883.51 1.868.782 2.886.782a5.657 5.657 0 002.887-.782l28.626-16.762v-48.008c0-.306.272-.578.578-.578.305 0 .577.272.577.578v48.314c0 .204-.102.408-.272.476l-28.932 16.932a6.6 6.6 0 01-3.464.986z" fill="#fff"/><path d="M131.972 332.744a6.393 6.393 0 01-3.226-.884l-32.464-18.802c-.917-.544-1.494-1.496-1.46-2.584 0-1.088.577-2.04 1.528-2.55l32.396-18.156v-18.462c0-.068.068-.102.102-.102.067 0 .101.034.101.102v18.53c0 .034-.034.068-.067.102l-32.464 18.19c-.883.476-1.393 1.36-1.393 2.38 0 .986.51 1.904 1.359 2.38l32.43 18.836c.95.544 2.003.85 3.09.85a6.34 6.34 0 003.124-.85l28.864-16.898v-48.28c0-.068.068-.102.102-.102.068 0 .102.068.102.102v48.314l-28.898 17c-.985.612-2.106.884-3.226.884z" fill="url(#paint37_radial)"/><path d="M130.172 285.79v3.502l39.018-22.576v-3.638l-39.018 22.712z" fill="url(#paint38_linear)"/><path d="M130.171 285.79v3.502l-38.202-22.236v-3.604l38.202 22.338z" fill="url(#paint39_linear)"/><path d="M130.172 283.648v3.502l39.018-22.577v-3.638l-39.018 22.713z" fill="url(#paint40_linear)"/><path d="M130.171 283.648v3.502l-38.202-22.236v-3.604l38.202 22.338z" fill="url(#paint41_linear)"/><path d="M91.969 261.31l38.202 22.338 39.018-22.712-38.271-22.271-38.95 22.645z" fill="url(#paint42_linear)"/><path d="M129.936 282.628l4.889-1.122 34.366-20.571-39.255 21.693z" fill="url(#paint43_radial)"/><path d="M130.272 245.975l-3.838-15.504-2.852 1.666 3.803 15.436a94.904 94.904 0 012.785 22.917v13.158l2.852-1.564v-13.362c0-7.65-.917-15.301-2.75-22.747z" fill="url(#paint44_linear)"/><path d="M123.581 232.137l-38.27-22.44 3.837 15.572a95.854 95.854 0 012.784 22.848v13.227l38.271 22.338V270.49c0-7.718-.951-15.436-2.785-22.951l-3.837-15.402z" fill="url(#paint45_linear)"/><path d="M85.31 209.697l38.271 22.44 2.853-1.666-38.305-22.406-2.819 1.632z" fill="url(#paint46_linear)"/><path d="M85.31 209.697l39.086 21.76 4.313 21.897-5.671-21.217-37.727-22.44z" fill="url(#paint47_radial)"/><path opacity=".1" d="M148.748 340.973l35.69 20.842 41.802-24.276-35.724-20.809-41.768 24.243z" fill="#000"/><path d="M183.59 365.147a8.187 8.187 0 01-4.041-1.088l-32.43-18.836a4.624 4.624 0 01-2.275-4.012c0-1.666.883-3.128 2.343-3.944l31.581-17.68v-17.511a1.74 1.74 0 011.732-1.734c.95 0 1.731.782 1.731 1.734v18.531c0 .612-.339 1.19-.883 1.496l-32.463 18.19c-.51.272-.578.782-.578.986 0 .204.034.68.578.986l32.43 18.836a4.662 4.662 0 004.618 0l28.083-16.422v-47.363a1.74 1.74 0 011.732-1.734 1.74 1.74 0 011.732 1.734v48.315c0 .612-.34 1.19-.849 1.496l-28.966 16.932a8.222 8.222 0 01-4.075 1.088z" fill="url(#paint48_linear)"/><path opacity=".3" d="M183.317 363.719a6.855 6.855 0 01-3.463-.918l-32.43-18.87a3.292 3.292 0 01-1.698-2.992c0-1.258.679-2.346 1.766-2.958l32.158-18.02V301.77c0-.306.271-.578.577-.578.306 0 .577.272.577.578v18.531a.56.56 0 01-.305.51l-32.464 18.19a2.273 2.273 0 00-1.155 1.972c0 .816.408 1.564 1.121 1.972l32.43 18.836c.883.51 1.868.782 2.886.782a5.657 5.657 0 002.887-.782l28.626-16.762v-47.975c0-.306.272-.578.577-.578.306 0 .578.272.578.578v48.315a.6.6 0 01-.272.51l-28.932 16.932c-1.053.578-2.241.918-3.464.918z" fill="#fff"/><path d="M183.182 363.073a6.722 6.722 0 01-3.226-.85l-32.43-18.836c-.917-.544-1.494-1.496-1.46-2.584 0-1.088.577-2.04 1.528-2.55l32.396-18.156v-18.463c0-.068.034-.102.102-.102.068 0 .102.034.102.102v18.531c0 .034-.034.068-.068.102l-32.464 18.19c-.883.476-1.392 1.36-1.392 2.38 0 .986.509 1.904 1.358 2.38l32.43 18.836c.951.544 2.003.85 3.09.85a6.241 6.241 0 003.124-.85l28.864-16.898V296.84c0-.068.068-.102.102-.102.068 0 .102.034.102.102v48.315l-28.966 17.034a6.186 6.186 0 01-3.192.884z" fill="url(#paint49_radial)"/><path d="M181.381 316.084v3.502l39.017-22.576v-3.604l-39.017 22.678z" fill="url(#paint50_linear)"/><path d="M181.38 316.084v3.502l-38.202-22.202v-3.638l38.202 22.338z" fill="url(#paint51_linear)"/><path d="M181.381 313.942v3.503l39.017-22.577v-3.638l-39.017 22.712z" fill="url(#paint52_linear)"/><path d="M181.38 313.942v3.503l-38.202-22.237v-3.604l38.202 22.338z" fill="url(#paint53_linear)"/><path d="M143.178 291.604l38.202 22.338 39.018-22.712-38.271-22.27-38.949 22.644z" fill="url(#paint54_linear)"/><path d="M181.143 312.922l4.89-1.122 34.365-20.57-39.255 21.692z" fill="url(#paint55_radial)"/><path d="M181.485 276.27l-3.838-15.504-2.852 1.666 3.803 15.436a94.89 94.89 0 012.785 22.916v13.158l2.852-1.564v-13.362c0-7.65-.917-15.3-2.75-22.746z" fill="url(#paint56_linear)"/><path d="M174.794 262.432l-38.271-22.44 3.838 15.572c1.833 7.48 2.784 15.13 2.784 22.848v13.226l38.271 22.339v-13.193c0-7.718-.951-15.436-2.785-22.95l-3.837-15.402z" fill="url(#paint57_linear)"/><path d="M136.523 239.992l38.271 22.44 2.852-1.666-38.304-22.406-2.819 1.632z" fill="url(#paint58_linear)"/><path d="M136.523 239.992l39.086 21.794 4.313 21.862-5.671-21.182-37.728-22.474z" fill="url(#paint59_radial)"/><path opacity=".1" d="M198.531 370.247l35.69 20.842 41.768-24.31-35.723-20.808-41.735 24.276z" fill="#000"/><path d="M233.336 394.421a8.19 8.19 0 01-4.041-1.088l-32.43-18.836c-1.426-.85-2.275-2.312-2.275-3.978 0-1.666.883-3.128 2.343-3.944l31.581-17.68v-17.51c0-.952.781-1.735 1.732-1.735.95 0 1.731.783 1.731 1.735v18.53a1.73 1.73 0 01-.882 1.496l-32.464 18.19c-.51.272-.577.782-.577.986 0 .204.067.68.577.986l32.43 18.836a4.662 4.662 0 004.618 0l28.083-16.422V326.59a1.74 1.74 0 011.732-1.734 1.74 1.74 0 011.732 1.734v48.315c0 .612-.34 1.19-.849 1.496l-28.966 16.932a8.222 8.222 0 01-4.075 1.088z" fill="url(#paint60_linear)"/><path opacity=".3" d="M233.064 392.994a6.862 6.862 0 01-3.464-.918l-32.429-18.837c-1.087-.612-1.698-1.734-1.698-2.992s.679-2.346 1.765-2.958l32.159-18.02v-18.19c0-.306.271-.578.577-.578.305 0 .577.272.577.578v18.53a.562.562 0 01-.305.51l-32.464 18.19a2.273 2.273 0 00-1.155 1.972c0 .816.408 1.564 1.121 2.006l32.43 18.837c.883.51 1.867.782 2.886.782a5.65 5.65 0 002.886-.782l28.627-16.763v-48.042c0-.306.272-.578.577-.578.306 0 .578.272.578.578v48.28c0 .204-.102.408-.272.476l-28.932 16.933a6.512 6.512 0 01-3.464.986z" fill="#fff"/><path d="M232.928 392.347a6.722 6.722 0 01-3.226-.85l-32.43-18.836c-.917-.544-1.494-1.496-1.46-2.584 0-1.088.577-2.04 1.528-2.55l32.396-18.156v-18.462c0-.068.034-.102.102-.102.068 0 .102.068.102.102v18.53c0 .034-.034.068-.068.102l-32.464 18.19c-.883.476-1.392 1.36-1.392 2.38 0 .986.509 1.904 1.358 2.38l32.43 18.836c.951.544 2.003.85 3.124.85a6.337 6.337 0 003.124-.85l28.864-16.898v-48.314c0-.068.068-.102.102-.102.068 0 .102.034.102.102v48.314l-28.966 17.034c-.951.578-2.105.884-3.226.884z" fill="url(#paint61_radial)"/><path d="M231.129 345.359v3.502l39.017-22.576v-3.604l-39.017 22.678z" fill="url(#paint62_linear)"/><path d="M231.162 345.359v3.502l-38.236-22.202v-3.638l38.236 22.338z" fill="url(#paint63_linear)"/><path d="M231.129 343.217v3.502l39.017-22.577v-3.638l-39.017 22.713z" fill="url(#paint64_linear)"/><path d="M231.162 343.217v3.502l-38.236-22.236v-3.604l38.236 22.338z" fill="url(#paint65_linear)"/><path d="M192.926 320.878l38.236 22.339 38.984-22.713-38.27-22.27-38.95 22.644z" fill="url(#paint66_linear)"/><path d="M230.891 342.197l4.89-1.122 34.365-20.571-39.255 21.693z" fill="url(#paint67_radial)"/><path d="M231.231 305.544l-3.838-15.504-2.852 1.666 3.803 15.436a94.892 94.892 0 012.785 22.917v13.158l2.852-1.564-.034-13.362a93.495 93.495 0 00-2.716-22.747z" fill="url(#paint68_linear)"/><path d="M224.575 291.706l-38.27-22.44 3.837 15.572a95.838 95.838 0 012.784 22.848v13.192l38.271 22.339v-13.159c0-7.718-.951-15.436-2.785-22.95l-3.837-15.402z" fill="url(#paint69_linear)"/><path d="M186.27 269.266l38.304 22.44 2.818-1.666-38.304-22.406-2.818 1.632z" fill="url(#paint70_linear)"/><path d="M186.27 269.266l39.119 21.76 4.279 21.896-5.671-21.182-37.727-22.474z" fill="url(#paint71_radial)"/><path opacity=".1" d="M26.838 352.601l35.69 20.842 41.802-24.276-35.724-20.808-41.768 24.242z" fill="#000"/><path d="M61.68 376.809a8.19 8.19 0 01-4.041-1.088l-32.43-18.836c-1.427-.85-2.275-2.312-2.275-3.978 0-1.666.883-3.128 2.343-3.944l31.58-17.681v-17.51a1.74 1.74 0 011.732-1.734 1.74 1.74 0 011.732 1.734v18.53c0 .612-.34 1.19-.883 1.496l-32.463 18.191c-.51.272-.578.782-.578.986 0 .204.034.68.544.986l32.43 18.836a4.662 4.662 0 004.618 0l28.083-16.422v-47.397a1.74 1.74 0 011.732-1.734c.95 0 1.732.782 1.732 1.734v48.315c0 .612-.306 1.19-.85 1.496l-28.932 16.932a8.315 8.315 0 01-4.075 1.088z" fill="url(#paint72_linear)"/><path opacity=".3" d="M61.407 375.347a6.858 6.858 0 01-3.464-.918l-32.43-18.836a3.293 3.293 0 01-1.697-2.992c0-1.258.679-2.346 1.765-2.958l32.159-18.02v-18.225c0-.306.271-.578.577-.578.306 0 .577.272.577.578v18.531a.56.56 0 01-.305.51l-32.464 18.19a2.273 2.273 0 00-1.155 1.972 2.34 2.34 0 001.12 2.006l32.43 18.836c.884.51 1.868.782 2.887.782a5.655 5.655 0 002.886-.782l28.627-16.762v-48.009c0-.306.272-.578.577-.578.306 0 .578.272.578.578v48.315c0 .204-.102.374-.272.51l-28.932 16.932a6.858 6.858 0 01-3.464.918z" fill="#fff"/><path d="M61.236 374.701a6.396 6.396 0 01-3.225-.884l-32.43-18.836c-.917-.544-1.494-1.496-1.46-2.584 0-1.088.577-2.04 1.528-2.584l32.395-18.157v-18.462c0-.068.035-.102.102-.102.068 0 .102.068.102.102v18.564c0 .034-.034.068-.068.102l-32.463 18.191c-.883.476-1.393 1.36-1.393 2.38 0 .986.51 1.904 1.359 2.38l32.43 18.836c.95.544 2.003.85 3.09.85a6.338 6.338 0 003.124-.85l28.864-16.898v-48.281c0-.068.068-.102.102-.102.068 0 .102.068.102.102v48.315l-28.966 17.034c-.917.578-2.038.884-3.193.884z" fill="url(#paint73_radial)"/><path d="M59.473 327.713v3.536l38.983-22.61v-3.604l-38.983 22.678z" fill="url(#paint74_linear)"/><path d="M59.471 327.713v3.536l-38.237-22.237v-3.604l38.237 22.305z" fill="url(#paint75_linear)"/><path d="M59.473 325.57v3.502l38.983-22.576v-3.604L59.473 325.57z" fill="url(#paint76_linear)"/><path d="M59.471 325.571v3.502L21.234 306.87v-3.638l38.237 22.339z" fill="url(#paint77_linear)"/><path d="M21.234 303.232l38.237 22.339 38.984-22.679-38.237-22.304-38.984 22.644z" fill="url(#paint78_linear)"/><path d="M59.201 324.584l4.924-1.122 34.332-20.57L59.2 324.584z" fill="url(#paint79_radial)"/><path d="M59.54 287.898l-3.803-15.504-2.852 1.666 3.803 15.436a94.906 94.906 0 012.785 22.917v13.158l2.852-1.564v-13.362c0-7.651-.95-15.267-2.785-22.747z" fill="url(#paint80_linear)"/><path d="M52.884 274.06l-38.27-22.44 3.837 15.572c1.833 7.48 2.784 15.13 2.784 22.848v13.226l38.27 22.338v-13.192a96.91 96.91 0 00-2.784-22.95l-3.837-15.402z" fill="url(#paint81_linear)"/><path d="M14.613 251.62l38.27 22.44 2.853-1.666-38.304-22.406-2.819 1.632z" fill="url(#paint82_linear)"/><path d="M14.613 251.62L53.7 273.414l4.313 21.862-5.672-21.182-37.727-22.474z" fill="url(#paint83_radial)"/><path opacity=".1" d="M78.049 382.895l35.69 20.877 41.802-24.311-35.724-20.808-41.768 24.242z" fill="#000"/><path d="M112.889 407.104a8.187 8.187 0 01-4.041-1.088l-32.43-18.837c-1.427-.85-2.275-2.312-2.275-3.978 0-1.666.882-3.128 2.343-3.944l31.581-17.68v-17.578a1.74 1.74 0 011.731-1.734 1.74 1.74 0 011.732 1.734v18.53c0 .612-.339 1.19-.883 1.496l-32.497 18.19c-.51.272-.578.782-.578.986 0 .204.034.68.578.986l32.429 18.836a4.664 4.664 0 004.619 0l28.083-16.422v-47.328a1.74 1.74 0 011.732-1.734 1.74 1.74 0 011.732 1.734v48.314c0 .612-.34 1.19-.849 1.496l-28.933 16.933a8.311 8.311 0 01-4.074 1.088z" fill="url(#paint84_linear)"/><path opacity=".3" d="M112.614 405.676c-1.222 0-2.411-.341-3.464-.919l-32.43-18.836a3.292 3.292 0 01-1.697-2.992c0-1.258.679-2.346 1.766-2.958l32.158-18.02v-18.19c0-.306.271-.578.577-.578.306 0 .577.272.577.578v18.53a.562.562 0 01-.305.51l-32.464 18.19a2.273 2.273 0 00-1.155 1.972 2.34 2.34 0 001.12 2.006l32.431 18.836c.883.51 1.867.782 2.886.782a5.657 5.657 0 002.887-.782l28.626-16.762v-48.076c0-.306.272-.578.577-.578.306 0 .578.272.578.578v48.314a.6.6 0 01-.272.51l-28.932 16.932a6.893 6.893 0 01-3.464.953z" fill="#fff"/><path d="M112.446 405.03a6.393 6.393 0 01-3.226-.884l-32.43-18.837c-.917-.544-1.494-1.496-1.46-2.584 0-1.088.577-2.04 1.528-2.55l32.395-18.156v-18.462c0-.068.034-.102.102-.102.068 0 .102.068.102.102v18.53c0 .034-.034.068-.068.102l-32.463 18.19c-.883.476-1.393 1.36-1.393 2.38 0 .986.51 1.904 1.359 2.38l32.429 18.837c.951.544 2.004.85 3.125.85a6.34 6.34 0 003.124-.85l28.864-16.899v-48.28c0-.068.068-.102.102-.102.068 0 .102.068.102.102v48.314l-28.966 17.035c-.951.544-2.072.884-3.226.884z" fill="url(#paint85_radial)"/><path d="M110.682 358.041v3.502l38.983-22.576v-3.638l-38.983 22.712z" fill="url(#paint86_linear)"/><path d="M110.68 358.041v3.502l-38.237-22.236v-3.604l38.237 22.338z" fill="url(#paint87_linear)"/><path d="M110.682 355.899v3.502l38.983-22.576v-3.638l-38.983 22.712z" fill="url(#paint88_linear)"/><path d="M110.68 355.899v3.502l-38.237-22.236v-3.604l38.237 22.338z" fill="url(#paint89_linear)"/><path d="M72.443 333.561l38.237 22.338 38.984-22.712-38.237-22.305-38.984 22.679z" fill="url(#paint90_linear)"/><path d="M110.408 354.879l4.924-1.122 34.332-20.57-39.256 21.692z" fill="url(#paint91_radial)"/><path d="M110.748 318.226l-3.804-15.504-2.852 1.666 3.803 15.436a94.898 94.898 0 012.785 22.917v13.158l2.852-1.564-.034-13.362c.034-7.65-.917-15.301-2.75-22.747z" fill="url(#paint92_linear)"/><path d="M104.091 304.388l-38.27-22.44 3.837 15.572a95.854 95.854 0 012.784 22.848v13.227l38.271 22.304v-13.192c0-7.718-.951-15.436-2.785-22.951l-3.837-15.368z" fill="url(#paint93_linear)"/><path d="M65.82 281.948l38.271 22.44 2.852-1.666-38.304-22.406-2.819 1.632z" fill="url(#paint94_linear)"/><path d="M65.82 281.948l39.086 21.76 4.312 21.896-5.67-21.216-37.728-22.44z" fill="url(#paint95_radial)"/><path d="M441.867 283.173c.168.084.421.084.589.168.168 0 .253.084.421.084.084 0 .253.084.337.084.168 0 .252.084.421.084.084 0-1.179 1.766-1.095 1.766.169 0-2.862 1.766-2.862 1.766-.168.084-.253.168-.421.252h-.252c-.085.084-.169.084-.169.084-.084 0-.168.084-.252.084h-.253c-.168.084-.337.084-.505.084h-1.431c-.084 0-.168 0-.337-.084h-.168c-.084 0-.084 0-.169-.084-.168-.084-.336-.084-.589-.168-.084 0-.168-.084-.252-.084l-.085-.084c-.336-.168-.673-.253-1.01-.505L233.514 178.162a7.338 7.338 0 00-.842-.504c-.084 0-.168-.085-.252-.169-.169-.084-.337-.252-.505-.42-.085-.084-.169-.168-.253-.168-.168-.084-.337-.252-.505-.421a60.23 60.23 0 00-.253-.252c-.084-.084-.168-.084-.168-.168l-.168-.168a120.22 120.22 0 01-.505-.505l-.169-.168-.168-.168c-.084-.084-.169-.252-.337-.42-.084-.084-.168-.168-.168-.252-.084-.084-.084-.169-.169-.169-.084-.084-.168-.252-.252-.336-.084-.084-.084-.168-.169-.168-.084-.168-.168-.252-.252-.42-.084-.084-.084-.169-.168-.253 0 0 0-.084-.085-.084-.168-.252-.336-.42-.421-.672 0 0 .001-.084-.084-.084v-.084c-.084-.169-.252-.337-.336-.505-.085-.084-.085-.168-.169-.252 0-.084-.084-.168-.084-.252 0-.084-.084-.169-.084-.253-.084-.168-.253-.42-.253-.588 0 0 0-.084-.084-.084-.084-.252-.168-.505-.337-.757 0-.084-.084-.084-.084-.168s-.084-.168-.084-.252c0-.168-.084-.253-.168-.337-.085-.084-.085-.252-.085-.336 0-.084-.084-.168-.084-.252 0-.084-.084-.168-.084-.252-.084-.084-.084-.253-.084-.421 0-.168-.084-.252-.084-.42 0-.084 0-.084-.084-.168 0-.084 0-.168-.085-.337-.084-.168-.084-.42-.168-.672 0-.084 0-.084-.084-.168 0-.168 0-.253-.084-.421v-.252c0-.336-.085-.588-.085-.925l6.735-4.12c0 .337 0 .589.084.925v.337c0 .168.084.336.084.588.085.252.085.421.169.673 0 .168.084.336.084.42 0 .168.084.252.084.421.084.168.084.42.169.588 0 .084.084.252.084.336.084.253.168.421.252.673 0 .084.084.168.084.252.085.337.253.589.421.925 0 0 0 .084.085.084.084.252.252.505.42.757.085.084.085.168.085.252.168.252.252.505.421.757.084 0 .084.084.084.168.168.252.336.588.505.841.084.084.084.168.168.252.169.168.253.42.421.588l.253.253c.168.168.252.336.421.42.084.168.252.252.336.42l.337.337.589.588c.085.168.253.252.337.337l.253.252c.168.168.336.252.505.42l.252.252c.169.169.337.253.505.337.085.084.169.084.253.168l.758.504 200.271 108.543 1.01.504c.168 0 .252 0 .421.084z" fill="url(#paint96_linear)"/><path d="M437.57 281.615l-3.115-127.796 6.735-4.119 3.199 132.756c.084 2.27-1.936 3.783-3.115 4.456-3.433 2.143-3.49 1.131-3.704-5.297z" fill="url(#paint97_linear)"/><path d="M224.166 30.732c-.168-.084-.421-.084-.589-.168-.168 0-.252-.085-.421-.085-.084 0-.252-.084-.337-.084-.168 0-.252-.084-.42-.084-.085 0 1.178-1.765 1.094-1.765-.168 0 2.862-1.766 2.862-1.766.169-.084.253-.168.421-.252h.253c.084-.084.168-.084.168-.084.084 0 .168-.084.253-.084h.252c.168-.084.337-.084.505-.084h1.431c.084 0 .169 0 .337.084h.168c.085 0 .085 0 .169.084.168.084.336.084.589.168.084 0 .168.084.253.084l.084.084c.337.168.673.252 1.01.505l200.271 108.458c.253.168.505.336.842.504.084 0 .168.084.253.168.168.084.336.253.505.421.084.084.168.168.252.168.169.084.337.252.505.42l.253.253c.084.084.168.084.168.168l.169.168.505.504.168.168.168.169c.085.084.169.252.337.42.084.084.168.168.168.252.085.084.085.168.169.168.084.084.168.253.252.337.085.084.085.168.169.168.084.168.168.252.252.42.084.084.085.168.169.252 0 0 0 .085.084.085.168.252.337.42.421.672 0 0 0 .084.084.084v.084c.084.168.253.337.337.505.084.084.084.168.168.252 0 .084.084.168.084.252 0 .084.084.168.084.252.085.169.253.421.253.589 0 0 0 .084.084.084.084.252.169.504.337.757 0 .084.084.084.084.168s.084.168.084.252c0 .168.084.252.169.336.084.084.084.253.084.337 0 .084.084.168.084.252 0 .084.084.168.084.252.084.084.084.252.084.421 0 .168.085.252.085.42 0 .084 0 .084.084.168 0 .084 0 .168.084.336.084.169.084.421.168.673 0 .084 0 .084.084.168 0 .168 0 .252.085.421v.252c0 .336.084.588.084.925l-6.735 4.119c0-.336 0-.588-.084-.925v-.336c0-.168-.084-.336-.084-.588-.084-.253-.084-.421-.169-.673 0-.168-.084-.336-.084-.42 0-.169-.084-.253-.084-.421-.084-.168-.084-.42-.168-.588 0-.084-.084-.253-.084-.337-.085-.252-.169-.42-.253-.672 0-.084-.084-.168-.084-.252-.084-.337-.253-.589-.421-.925 0 0 0-.084-.084-.084-.084-.253-.253-.505-.421-.757-.084-.084-.084-.168-.084-.252-.169-.252-.253-.505-.421-.757-.084 0-.084-.084-.084-.168-.169-.252-.337-.589-.506-.841-.084-.084-.084-.168-.168-.252-.168-.168-.252-.42-.421-.589l-.252-.252c-.169-.168-.253-.336-.421-.42-.085-.168-.253-.252-.337-.421l-.337-.336-.589-.588c-.084-.169-.253-.253-.337-.337l-.252-.252c-.169-.168-.337-.252-.505-.42l-.253-.253c-.168-.168-.337-.252-.505-.336-.084-.084-.168-.084-.253-.168l-.757-.504L225.598 31.32l-1.011-.504c-.168 0-.252 0-.421-.084z" fill="url(#paint98_linear)"/><path d="M229.804 28.63c-4.63-2.522-8.25-.336-8.166 4.877l3.115 127.795c.084 5.213 3.957 11.435 8.587 13.957l200.776 108.794c4.63 2.523 8.25-.588 8.081-5.801l-3.114-126.871c-.085-5.212-3.957-11.434-8.587-13.956L229.804 28.63z" fill="url(#paint99_linear)"/><path d="M232.863 36.776L425.558 141.2c4.209 2.27 7.661 7.987 7.829 12.695l2.778 116.026c.084 4.792-3.199 6.726-7.408 4.456L236.146 169.953c-4.209-2.27-7.66-7.987-7.829-12.695l-2.778-116.026c-.168-4.708 3.199-6.726 7.324-4.456z" fill="url(#paint100_radial)"/><path opacity=".1" d="M233.168 36.87l39.953 20.917 36.62 151.253-73.374-39.078c-4.209-2.27-7.661-7.903-7.745-12.696l-2.778-116.025c-.168-4.708 3.115-6.642 7.324-4.372z" fill="url(#paint101_linear)"/><path d="M399.489 155.643l3.736 1.707.083-2.643-3.852-1.689.033 2.625zm-.234 17.611l3.719 1.59.255-15.102-3.737-1.707-.237 15.219zm-.175 8.396l3.853 1.69.045-6.104-3.719-1.59-.179 6.004zm-.008 8.73l3.719 1.59.062-5.986-3.737-1.708-.044 6.104zm-5.295-28.855l3.737 1.708.061-5.987-3.736-1.707-.062 5.986zm-.172 11.624l3.719 1.591.11-8.864-3.719-1.59-.11 8.863zm-.096 10.537l3.737 1.707.068-7.542-3.736-1.707-.069 7.542zm5.421 15.324l3.736 1.707.062-5.986-3.737-1.708-.061 5.987zm-5.091-45.863l3.853 1.689-.034-2.624-3.718-1.591-.101 2.526zm2.106 53.129l6.563 2.956.1-2.526-6.563-2.955-.1 2.525z" fill="#42FFFF"/><path opacity=".5" d="M275.215 29.278l-15.182-8.75v-3.31l15.182 8.75v3.31zm7.71 4.375l-5.456-3.075v-3.31l5.456 3.074v3.31zm6.049 3.547l-3.677-2.129v-3.31l3.677 2.128v3.31zm-20.638-4.375l-8.303-4.73v-3.31l8.303 4.73v3.31zm12.335 7.212l-10.081-5.912v-3.31l10.081 5.911v3.311zm6.049 3.429l-3.677-2.128v-3.31l3.677 2.128v3.31zm5.693 3.31l-3.677-2.128v-3.31l3.677 2.128v3.31z" fill="#42FFFF"/><path d="M265.963 39.091l-5.93-3.428v-3.31l5.93 3.428v3.31zm4.391 2.483l-2.016-1.182v-3.31l2.016 1.182v3.31z" fill="#42FFFF"/><path opacity=".5" d="M276.401 45.121l-3.796-2.128v-3.428l3.796 2.246v3.31zm5.693 10.759l-22.061-12.65v-3.311l22.061 12.65v3.311zm7.709 4.493l-5.455-3.192v-3.31l5.455 3.192v3.31zm-23.84-6.148l-5.93-3.428v-3.31l5.93 3.428v3.31zm13.998 8.041l-11.623-6.74v-3.31l11.623 6.739v3.31zm6.046 3.546l-3.677-2.128v-3.429l3.677 2.247v3.31zm-13.757-.472l-12.217-6.976v-3.311l12.217 6.976v3.31z" fill="#42FFFF"/><path d="M283.399 71.842l-8.895-5.084v-3.31l8.895 5.084v3.31z" fill="#42FFFF"/><path opacity=".5" d="M291.701 76.572l-6.049-3.429v-3.31l6.049 3.428v3.31zm-27.517-8.277l-4.151-2.364v-3.31l4.151 2.364v3.31zm7.711 4.493l-5.456-3.192v-3.31l5.456 3.192v3.31zm11.147 6.385l-8.776-5.084v-3.31l8.776 5.083v3.31zm-10.437 1.655l-12.572-7.33v-3.311l12.572 7.33v3.311zm14.232 8.04l-11.86-6.74v-3.31l11.86 6.74v3.31z" fill="#42FFFF"/><path d="M292.769 92.415l-3.677-2.128v-3.31l3.677 2.127v3.311z" fill="#42FFFF"/><path opacity=".5" d="M298.583 95.726l-3.677-2.128v-3.31l3.677 2.127v3.31zM267.624 85.44l-7.591-4.376v-3.31l7.591 4.375v3.31z" fill="#42FFFF"/><path d="M299.293 43.111l10.437 6.03v-3.31l-10.437-6.03v3.31z" fill="#42FFFF"/><path opacity=".5" d="M301.545 51.979l8.184 4.73v-3.311l-8.184-4.73v3.31zm2.254 8.867l5.93 3.43v-3.311l-5.93-3.43v3.312zm-2.729 6.03l8.659 4.966v-3.31l-8.659-4.966v3.31zm2.729 9.104l5.93 3.43v-3.311l-5.93-3.43v3.312zm-1.658 6.622l7.59 4.374v-3.31l-7.59-4.375v3.31zm3.439 9.577l4.151 2.365v-3.31l-4.151-2.366v3.311zm-3.797 5.321l7.947 4.61V98.8l-7.947-4.611v3.31zm.358 7.803l7.59 4.375v-3.311l-7.59-4.375v3.311zm-29.06-16.671l-3.202-1.892v-3.31l3.202 1.891v3.31zm9.607 5.438l-7.235-4.138v-3.31l7.235 4.138v3.31zm51.119-31.214l-15.063-8.63v-3.311l15.063 8.63v3.311zm7.829 4.494l-5.456-3.075v-3.429l5.456 3.193v3.31z" fill="#42FFFF"/><path d="M347.684 70.778l-3.795-2.128v-3.31l3.795 2.128v3.31z" fill="#42FFFF"/><path opacity=".5" d="M326.928 66.522l-8.184-4.73v-3.31l8.184 4.73v3.31zm12.452 7.094l-10.081-5.794v-3.31l10.081 5.793v3.31z" fill="#42FFFF"/><path d="M345.43 77.045l-3.795-2.129v-3.31l3.795 2.128v3.31z" fill="#42FFFF"/><path opacity=".5" d="M351.122 80.355l-3.677-2.128v-3.31l3.677 2.128v3.31zm-26.448-7.567l-5.93-3.429v-3.31l5.93 3.429v3.31zm4.389 2.483l-2.016-1.182v-3.31l2.016 1.181v3.311zm5.93 3.429l-3.677-2.128v-3.31l3.677 2.127V78.7zm5.693 10.878l-21.942-12.651v-3.31l21.942 12.65v3.31zm7.828 4.492l-5.455-3.192v-3.31l5.455 3.192v3.31zm-23.84-6.148l-5.93-3.428v-3.31l5.93 3.428v3.31zm13.996 8.04l-11.623-6.74v-3.31l11.623 6.74v3.31zm6.048 3.429l-3.677-2.128v-3.31l3.677 2.127v3.311z" fill="#42FFFF"/><path d="M330.961 99.036l-12.217-6.976v-3.31l12.217 6.976v3.31z" fill="#42FFFF"/><path opacity=".5" d="M342.11 105.421l-8.895-5.084v-3.31l8.895 5.083v3.311zm8.182 4.848l-5.931-3.429v-3.429l5.931 3.547v3.311zm-27.397-8.277l-4.151-2.365v-3.31l4.151 2.365v3.31zm7.709 4.375l-5.456-3.074v-3.31l5.456 3.073v3.311z" fill="#42FFFF"/><path d="M341.634 112.752l-8.777-4.966v-3.311l8.777 4.966v3.311z" fill="#42FFFF"/><path opacity=".5" d="M331.316 114.407l-12.572-7.212v-3.311l12.572 7.212v3.311zm14.232 8.158l-11.86-6.857v-3.311l11.86 6.858v3.31zm5.931 3.429l-3.676-2.128v-3.311l3.676 2.129v3.31zm5.813 3.31l-3.677-2.128v-3.311l3.677 2.129v3.31zm-30.957-10.286l-7.591-4.256v-3.311l7.591 4.256v3.311z" fill="#42FFFF"/><path d="M357.883 76.69l10.556 6.148v-3.31l-10.556-6.149v3.311z" fill="#42FFFF"/><path opacity=".5" d="M360.137 85.558l8.302 4.847v-3.31l-8.302-4.848v3.31zm2.371 8.986l5.93 3.428v-3.31l-5.93-3.547v3.429zm-2.727 5.911l8.658 5.084v-3.31l-8.658-5.085v3.311zm2.727 9.223l5.93 3.429v-3.311l-5.93-3.429v3.311zm-1.656 6.621l7.59 4.374v-3.31l-7.59-4.375v3.311zm3.437 9.577l4.151 2.364v-3.31l-4.151-2.483v3.429zm-3.916 5.32l8.065 4.611v-3.31l-8.065-4.611v3.31zm.479 7.804l7.59 4.374v-3.31l-7.59-4.375V139z" fill="#42FFFF"/><path d="M331.79 122.21l-3.202-1.773v-3.311l3.202 1.774v3.31z" fill="#42FFFF"/><path opacity=".5" d="M341.395 127.768l-7.235-4.139v-3.31l7.235 4.138v3.311zm-66.18-30.387l-15.182-8.75v-3.31l15.182 8.75v3.31zm7.71 4.493l-5.456-3.192v-3.31l5.456 3.192v3.31zm6.049 3.429l-3.677-2.128v-3.31l3.677 2.127v3.311zm-20.638-4.257l-8.303-4.847v-3.31l8.303 4.847v3.31zm12.335 7.094l-10.081-5.793v-3.31l10.081 5.793v3.31zm6.049 3.429l-3.677-2.128v-3.311l3.677 2.129v3.31zm5.693 3.311l-3.677-2.128v-3.311l3.677 2.128v3.311zm-26.45-7.567l-5.93-3.547v-3.311l5.93 3.429v3.429zm4.391 2.483l-2.016-1.182v-3.311l2.016 1.182v3.311zm6.047 3.428l-3.796-2.128v-3.31l3.796 2.128v3.31zm5.693 10.878l-22.061-12.769v-3.311l22.061 12.77v3.31zm7.709 4.375l-5.455-3.074v-3.311l5.455 3.074v3.311zm-23.84-6.03l-5.93-3.547v-3.311l5.93 3.547v3.311zm13.998 8.04l-11.623-6.74v-3.31l11.623 6.739v3.311zm6.046 3.429l-3.677-2.129v-3.31l3.677 2.128v3.311zm-13.757-.355l-12.217-7.094v-3.311l12.217 7.095v3.31zm11.149 6.385l-8.895-5.084v-3.311l8.895 5.084v3.311zm8.302 4.729l-6.049-3.429v-3.31l6.049 3.429v3.31zm-27.517-8.158l-4.151-2.365v-3.429l4.151 2.483v3.311zm7.711 4.375l-5.456-3.075v-3.31l5.456 3.074v3.311zm11.147 6.384l-8.776-4.965V139l8.776 4.966v3.31zm-10.437 1.655l-12.572-7.212v-3.429l12.572 7.331v3.31zm14.232 8.159l-11.86-6.858v-3.311l11.86 6.858v3.311zm5.932 3.428l-3.677-2.128v-3.31l3.677 2.128v3.31zm5.814 3.311l-3.677-2.128v-3.311l3.677 2.129v3.31zm-30.959-10.286l-7.591-4.257v-3.31l7.591 4.256v3.311zm31.669-42.328l10.437 6.03v-3.311l-10.437-6.03v3.311zm2.252 8.867l8.184 4.73v-3.311l-8.184-4.729v3.31zm2.254 8.868l5.93 3.429v-3.311l-5.93-3.429v3.311zm-2.729 6.03l8.659 4.965v-3.31l-8.659-4.966v3.311zm2.729 9.104l5.93 3.429v-3.311l-5.93-3.429v3.311zm-1.658 6.739l7.59 4.257v-3.311l-7.59-4.256v3.31zm3.439 9.459l4.151 2.365v-3.311l-4.151-2.364v3.31zm-3.797 5.439l7.947 4.493v-3.311l-7.947-4.493v3.311zm.358 7.803l7.59 4.257v-3.311l-7.59-4.256v3.31zm-29.06-16.789l-3.202-1.773v-3.311l3.202 1.774v3.31zm9.607 5.557l-7.235-4.138v-3.31l7.235 4.138v3.31zm5.931 25.421l-12.217-6.976v-3.311l12.217 6.976v3.311zm8.422 4.847l-4.863-2.837v-3.311l4.863 2.838v3.31zm36.766-61.482l-15.063-8.749v-3.311l15.063 8.749v3.311zm7.829 4.375l-5.456-3.074v-3.311l5.456 3.074v3.311zm6.048 3.547l-3.795-2.128v-3.311l3.795 2.128V139zm-20.756-4.375l-8.184-4.729v-3.311l8.184 4.73v3.31zm12.452 7.212l-10.081-5.911v-3.311l10.081 5.912v3.31zm6.05 3.429l-3.795-2.128v-3.311l3.795 2.129v3.31zm5.692 3.311l-3.677-2.128v-3.311l3.677 2.128v3.311zm-26.448-7.685l-5.93-3.429v-3.311l5.93 3.429v3.311zm4.389 2.482l-2.016-1.182v-3.311l2.016 1.183v3.31zm5.93 3.547l-3.677-2.128v-3.428l3.677 2.246v3.31zm5.693 10.76l-21.942-12.651v-3.311l21.942 12.651v3.311zm7.828 4.493l-5.455-3.193v-3.31l5.455 3.192v3.311zm-23.84-6.148l-5.93-3.429v-3.311l5.93 3.429v3.311zm13.996 8.04l-11.623-6.74v-3.31l11.623 6.739v3.311zm6.048 3.546l-3.677-2.128v-3.429l3.677 2.247v3.31zm-13.757-.472l-12.217-6.976v-3.311l12.217 6.976v3.311zm11.149 6.503l-8.895-5.084v-3.311l8.895 5.084v3.311zm8.182 4.729l-5.931-3.429v-3.31l5.931 3.428v3.311zm-27.397-8.277l-4.151-2.364v-3.311l4.151 2.365v3.31zm7.709 4.493l-5.456-3.192v-3.311l5.456 3.193v3.31zm11.03 6.385l-8.777-5.084v-3.31l8.777 5.084v3.31zm-10.318 1.655l-12.572-7.33v-3.311l12.572 7.331v3.31zm14.232 8.041l-11.86-6.74v-3.31l11.86 6.739v3.311zm5.931 3.546l-3.676-2.128v-3.31l3.676 2.128v3.31zm5.813 3.311l-3.677-2.128v-3.311l3.677 2.128v3.311zm-30.957-10.287l-7.591-4.374v-3.311l7.591 4.375v3.31zm31.548-42.328l10.556 6.03v-3.31l-10.556-6.03v3.31zm2.254 8.868l8.302 4.729v-3.31l-8.302-4.729v3.31zm2.371 8.868l5.93 3.429v-3.311l-5.93-3.429v3.311zm-2.727 6.03l8.658 4.966v-3.311l-8.658-4.966v3.311zm2.727 9.104l5.93 3.429v-3.311l-5.93-3.429v3.311zm-1.656 6.621l7.59 4.375v-3.311l-7.59-4.374v3.31zm3.437 9.577l4.151 2.365v-3.311l-4.151-2.365v3.311zm-3.916 5.321l8.065 4.611V200.6l-8.065-4.611v3.311zm.479 7.803l7.59 4.375v-3.311l-7.59-4.375v3.311zm-29.062-16.671l-3.202-1.892v-3.31l3.202 1.891v3.311zm9.605 5.439l-7.235-4.138v-3.311l7.235 4.138v3.311zm5.935 25.539l-12.217-7.095v-3.31l12.217 7.094v3.311zm8.42 4.729l-4.863-2.719v-3.311l4.863 2.72v3.31z" fill="#42FFFF"/><defs><linearGradient id="paint0_linear" x1="185.982" y1="296.623" x2="236.819" y2="215.303" gradientUnits="userSpaceOnUse"><stop offset=".035" stop-color="#6B24D6"/><stop offset=".294" stop-color="#7733DC"/><stop offset=".794" stop-color="#975CED"/><stop offset="1" stop-color="#A56EF4"/></linearGradient><linearGradient id="paint2_linear" x1="209.633" y1="237.904" x2="292.152" y2="213.226" gradientUnits="userSpaceOnUse"><stop offset=".035" stop-color="#6B24D6"/><stop offset=".294" stop-color="#7733DC"/><stop offset=".794" stop-color="#975CED"/><stop offset="1" stop-color="#A56EF4"/></linearGradient><linearGradient id="paint3_linear" x1="131.3" y1="246.085" x2="237.452" y2="222.319" gradientUnits="userSpaceOnUse"><stop offset=".035" stop-color="#6B24D6"/><stop offset=".294" stop-color="#7733DC"/><stop offset=".794" stop-color="#975CED"/><stop offset="1" stop-color="#A56EF4"/></linearGradient><linearGradient id="paint4_linear" x1="209.633" y1="235.755" x2="292.152" y2="211.077" gradientUnits="userSpaceOnUse"><stop offset=".035" stop-color="#9F19AB"/><stop offset=".244" stop-color="#AE25B1"/><stop offset=".645" stop-color="#D744BF"/><stop offset="1" stop-color="#FF63CE"/></linearGradient><linearGradient id="paint5_linear" x1="131.302" y1="243.935" x2="237.451" y2="220.169" gradientUnits="userSpaceOnUse"><stop offset=".035" stop-color="#9F19AB"/><stop offset=".244" stop-color="#AE25B1"/><stop offset=".645" stop-color="#D744BF"/><stop offset="1" stop-color="#FF63CE"/></linearGradient><linearGradient id="paint6_linear" x1="240.912" y1="146.311" x2="197.217" y2="229.48" gradientUnits="userSpaceOnUse"><stop offset=".035" stop-color="#9F19AB"/><stop offset=".244" stop-color="#AE25B1"/><stop offset=".645" stop-color="#D744BF"/><stop offset="1" stop-color="#FF63CE"/></linearGradient><linearGradient id="paint8_linear" x1="197.311" y1="216.059" x2="218.721" y2="209.656" gradientUnits="userSpaceOnUse"><stop offset=".035" stop-color="#9F19AB"/><stop offset=".244" stop-color="#AE25B1"/><stop offset=".645" stop-color="#D744BF"/><stop offset="1" stop-color="#FF63CE"/></linearGradient><linearGradient id="paint9_linear" x1="121.237" y1="217.894" x2="241.585" y2="190.949" gradientUnits="userSpaceOnUse"><stop offset=".035" stop-color="#9F19AB"/><stop offset=".244" stop-color="#AE25B1"/><stop offset=".645" stop-color="#D744BF"/><stop offset="1" stop-color="#FF63CE"/></linearGradient><linearGradient id="paint10_linear" x1="182.612" y1="169.405" x2="177.372" y2="179.38" gradientUnits="userSpaceOnUse"><stop offset=".035" stop-color="#9F19AB"/><stop offset=".244" stop-color="#AE25B1"/><stop offset=".645" stop-color="#D744BF"/><stop offset="1" stop-color="#FF63CE"/></linearGradient><linearGradient id="paint12_linear" x1="237.187" y1="326.929" x2="288.023" y2="245.61" gradientUnits="userSpaceOnUse"><stop offset=".035" stop-color="#6B24D6"/><stop offset=".294" stop-color="#7733DC"/><stop offset=".794" stop-color="#975CED"/><stop offset="1" stop-color="#A56EF4"/></linearGradient><linearGradient id="paint14_linear" x1="260.84" y1="268.21" x2="343.355" y2="243.533" gradientUnits="userSpaceOnUse"><stop offset=".035" stop-color="#6B24D6"/><stop offset=".294" stop-color="#7733DC"/><stop offset=".794" stop-color="#975CED"/><stop offset="1" stop-color="#A56EF4"/></linearGradient><linearGradient id="paint15_linear" x1="182.508" y1="276.391" x2="288.66" y2="252.625" gradientUnits="userSpaceOnUse"><stop offset=".035" stop-color="#6B24D6"/><stop offset=".294" stop-color="#7733DC"/><stop offset=".794" stop-color="#975CED"/><stop offset="1" stop-color="#A56EF4"/></linearGradient><linearGradient id="paint16_linear" x1="260.84" y1="266.06" x2="343.355" y2="241.383" gradientUnits="userSpaceOnUse"><stop offset=".035" stop-color="#9F19AB"/><stop offset=".244" stop-color="#AE25B1"/><stop offset=".645" stop-color="#D744BF"/><stop offset="1" stop-color="#FF63CE"/></linearGradient><linearGradient id="paint17_linear" x1="182.509" y1="274.241" x2="288.659" y2="250.475" gradientUnits="userSpaceOnUse"><stop offset=".035" stop-color="#9F19AB"/><stop offset=".244" stop-color="#AE25B1"/><stop offset=".645" stop-color="#D744BF"/><stop offset="1" stop-color="#FF63CE"/></linearGradient><linearGradient id="paint18_linear" x1="292.119" y1="176.616" x2="248.423" y2="259.786" gradientUnits="userSpaceOnUse"><stop offset=".035" stop-color="#9F19AB"/><stop offset=".244" stop-color="#AE25B1"/><stop offset=".645" stop-color="#D744BF"/><stop offset="1" stop-color="#FF63CE"/></linearGradient><linearGradient id="paint20_linear" x1="248.518" y1="246.366" x2="269.925" y2="239.964" gradientUnits="userSpaceOnUse"><stop offset=".035" stop-color="#9F19AB"/><stop offset=".244" stop-color="#AE25B1"/><stop offset=".645" stop-color="#D744BF"/><stop offset="1" stop-color="#FF63CE"/></linearGradient><linearGradient id="paint21_linear" x1="172.441" y1="248.201" x2="292.794" y2="221.255" gradientUnits="userSpaceOnUse"><stop offset=".035" stop-color="#9F19AB"/><stop offset=".244" stop-color="#AE25B1"/><stop offset=".645" stop-color="#D744BF"/><stop offset="1" stop-color="#FF63CE"/></linearGradient><linearGradient id="paint22_linear" x1="233.821" y1="199.706" x2="228.577" y2="209.687" gradientUnits="userSpaceOnUse"><stop offset=".035" stop-color="#9F19AB"/><stop offset=".244" stop-color="#AE25B1"/><stop offset=".645" stop-color="#D744BF"/><stop offset="1" stop-color="#FF63CE"/></linearGradient><linearGradient id="paint24_linear" x1="286.946" y1="356.198" x2="337.781" y2="274.88" gradientUnits="userSpaceOnUse"><stop offset=".035" stop-color="#6B24D6"/><stop offset=".294" stop-color="#7733DC"/><stop offset=".794" stop-color="#975CED"/><stop offset="1" stop-color="#A56EF4"/></linearGradient><linearGradient id="paint26_linear" x1="310.598" y1="297.48" x2="393.115" y2="272.802" gradientUnits="userSpaceOnUse"><stop offset=".035" stop-color="#6B24D6"/><stop offset=".294" stop-color="#7733DC"/><stop offset=".794" stop-color="#975CED"/><stop offset="1" stop-color="#A56EF4"/></linearGradient><linearGradient id="paint27_linear" x1="232.265" y1="305.659" x2="338.413" y2="281.894" gradientUnits="userSpaceOnUse"><stop offset=".035" stop-color="#6B24D6"/><stop offset=".294" stop-color="#7733DC"/><stop offset=".794" stop-color="#975CED"/><stop offset="1" stop-color="#A56EF4"/></linearGradient><linearGradient id="paint28_linear" x1="310.598" y1="295.329" x2="393.115" y2="270.652" gradientUnits="userSpaceOnUse"><stop offset=".035" stop-color="#9F19AB"/><stop offset=".244" stop-color="#AE25B1"/><stop offset=".645" stop-color="#D744BF"/><stop offset="1" stop-color="#FF63CE"/></linearGradient><linearGradient id="paint29_linear" x1="232.264" y1="303.509" x2="338.414" y2="279.744" gradientUnits="userSpaceOnUse"><stop offset=".035" stop-color="#9F19AB"/><stop offset=".244" stop-color="#AE25B1"/><stop offset=".645" stop-color="#D744BF"/><stop offset="1" stop-color="#FF63CE"/></linearGradient><linearGradient id="paint30_linear" x1="341.874" y1="205.886" x2="298.179" y2="289.056" gradientUnits="userSpaceOnUse"><stop offset=".035" stop-color="#9F19AB"/><stop offset=".244" stop-color="#AE25B1"/><stop offset=".645" stop-color="#D744BF"/><stop offset="1" stop-color="#FF63CE"/></linearGradient><linearGradient id="paint32_linear" x1="298.276" y1="275.634" x2="319.687" y2="269.231" gradientUnits="userSpaceOnUse"><stop offset=".035" stop-color="#9F19AB"/><stop offset=".244" stop-color="#AE25B1"/><stop offset=".645" stop-color="#D744BF"/><stop offset="1" stop-color="#FF63CE"/></linearGradient><linearGradient id="paint33_linear" x1="222.2" y1="277.47" x2="342.55" y2="250.525" gradientUnits="userSpaceOnUse"><stop offset=".035" stop-color="#9F19AB"/><stop offset=".244" stop-color="#AE25B1"/><stop offset=".645" stop-color="#D744BF"/><stop offset="1" stop-color="#FF63CE"/></linearGradient><linearGradient id="paint34_linear" x1="283.575" y1="228.983" x2="278.336" y2="238.954" gradientUnits="userSpaceOnUse"><stop offset=".035" stop-color="#9F19AB"/><stop offset=".244" stop-color="#AE25B1"/><stop offset=".645" stop-color="#D744BF"/><stop offset="1" stop-color="#FF63CE"/></linearGradient><linearGradient id="paint36_linear" x1="113.818" y1="338.567" x2="164.654" y2="257.249" gradientUnits="userSpaceOnUse"><stop offset=".035" stop-color="#6B24D6"/><stop offset=".294" stop-color="#7733DC"/><stop offset=".794" stop-color="#975CED"/><stop offset="1" stop-color="#A56EF4"/></linearGradient><linearGradient id="paint38_linear" x1="137.47" y1="279.849" x2="219.988" y2="255.171" gradientUnits="userSpaceOnUse"><stop offset=".035" stop-color="#6B24D6"/><stop offset=".294" stop-color="#7733DC"/><stop offset=".794" stop-color="#975CED"/><stop offset="1" stop-color="#A56EF4"/></linearGradient><linearGradient id="paint39_linear" x1="59.137" y1="288.029" x2="165.292" y2="264.262" gradientUnits="userSpaceOnUse"><stop offset=".035" stop-color="#6B24D6"/><stop offset=".294" stop-color="#7733DC"/><stop offset=".794" stop-color="#975CED"/><stop offset="1" stop-color="#A56EF4"/></linearGradient><linearGradient id="paint40_linear" x1="137.47" y1="277.698" x2="219.987" y2="253.02" gradientUnits="userSpaceOnUse"><stop offset=".035" stop-color="#9F19AB"/><stop offset=".244" stop-color="#AE25B1"/><stop offset=".645" stop-color="#D744BF"/><stop offset="1" stop-color="#FF63CE"/></linearGradient><linearGradient id="paint41_linear" x1="59.137" y1="285.877" x2="165.292" y2="262.11" gradientUnits="userSpaceOnUse"><stop offset=".035" stop-color="#9F19AB"/><stop offset=".244" stop-color="#AE25B1"/><stop offset=".645" stop-color="#D744BF"/><stop offset="1" stop-color="#FF63CE"/></linearGradient><linearGradient id="paint42_linear" x1="168.748" y1="188.257" x2="125.054" y2="271.425" gradientUnits="userSpaceOnUse"><stop offset=".035" stop-color="#9F19AB"/><stop offset=".244" stop-color="#AE25B1"/><stop offset=".645" stop-color="#D744BF"/><stop offset="1" stop-color="#FF63CE"/></linearGradient><linearGradient id="paint44_linear" x1="125.146" y1="258.004" x2="146.557" y2="251.6" gradientUnits="userSpaceOnUse"><stop offset=".035" stop-color="#9F19AB"/><stop offset=".244" stop-color="#AE25B1"/><stop offset=".645" stop-color="#D744BF"/><stop offset="1" stop-color="#FF63CE"/></linearGradient><linearGradient id="paint45_linear" x1="49.07" y1="259.839" x2="169.424" y2="232.893" gradientUnits="userSpaceOnUse"><stop offset=".035" stop-color="#9F19AB"/><stop offset=".244" stop-color="#AE25B1"/><stop offset=".645" stop-color="#D744BF"/><stop offset="1" stop-color="#FF63CE"/></linearGradient><linearGradient id="paint46_linear" x1="110.447" y1="211.348" x2="105.207" y2="221.323" gradientUnits="userSpaceOnUse"><stop offset=".035" stop-color="#9F19AB"/><stop offset=".244" stop-color="#AE25B1"/><stop offset=".645" stop-color="#D744BF"/><stop offset="1" stop-color="#FF63CE"/></linearGradient><linearGradient id="paint48_linear" x1="165.028" y1="368.875" x2="215.865" y2="287.555" gradientUnits="userSpaceOnUse"><stop offset=".035" stop-color="#6B24D6"/><stop offset=".294" stop-color="#7733DC"/><stop offset=".794" stop-color="#975CED"/><stop offset="1" stop-color="#A56EF4"/></linearGradient><linearGradient id="paint50_linear" x1="188.679" y1="310.156" x2="271.198" y2="285.478" gradientUnits="userSpaceOnUse"><stop offset=".035" stop-color="#6B24D6"/><stop offset=".294" stop-color="#7733DC"/><stop offset=".794" stop-color="#975CED"/><stop offset="1" stop-color="#A56EF4"/></linearGradient><linearGradient id="paint51_linear" x1="110.349" y1="318.337" x2="216.497" y2="294.571" gradientUnits="userSpaceOnUse"><stop offset=".035" stop-color="#6B24D6"/><stop offset=".294" stop-color="#7733DC"/><stop offset=".794" stop-color="#975CED"/><stop offset="1" stop-color="#A56EF4"/></linearGradient><linearGradient id="paint52_linear" x1="188.679" y1="308.005" x2="271.197" y2="283.328" gradientUnits="userSpaceOnUse"><stop offset=".035" stop-color="#9F19AB"/><stop offset=".244" stop-color="#AE25B1"/><stop offset=".645" stop-color="#D744BF"/><stop offset="1" stop-color="#FF63CE"/></linearGradient><linearGradient id="paint53_linear" x1="110.348" y1="316.184" x2="216.497" y2="292.419" gradientUnits="userSpaceOnUse"><stop offset=".035" stop-color="#9F19AB"/><stop offset=".244" stop-color="#AE25B1"/><stop offset=".645" stop-color="#D744BF"/><stop offset="1" stop-color="#FF63CE"/></linearGradient><linearGradient id="paint54_linear" x1="219.958" y1="218.562" x2="176.263" y2="301.732" gradientUnits="userSpaceOnUse"><stop offset=".035" stop-color="#9F19AB"/><stop offset=".244" stop-color="#AE25B1"/><stop offset=".645" stop-color="#D744BF"/><stop offset="1" stop-color="#FF63CE"/></linearGradient><linearGradient id="paint56_linear" x1="176.359" y1="288.31" x2="197.771" y2="281.906" gradientUnits="userSpaceOnUse"><stop offset=".035" stop-color="#9F19AB"/><stop offset=".244" stop-color="#AE25B1"/><stop offset=".645" stop-color="#D744BF"/><stop offset="1" stop-color="#FF63CE"/></linearGradient><linearGradient id="paint57_linear" x1="100.286" y1="290.144" x2="220.633" y2="263.2" gradientUnits="userSpaceOnUse"><stop offset=".035" stop-color="#9F19AB"/><stop offset=".244" stop-color="#AE25B1"/><stop offset=".645" stop-color="#D744BF"/><stop offset="1" stop-color="#FF63CE"/></linearGradient><linearGradient id="paint58_linear" x1="161.66" y1="241.655" x2="156.42" y2="251.63" gradientUnits="userSpaceOnUse"><stop offset=".035" stop-color="#9F19AB"/><stop offset=".244" stop-color="#AE25B1"/><stop offset=".645" stop-color="#D744BF"/><stop offset="1" stop-color="#FF63CE"/></linearGradient><linearGradient id="paint60_linear" x1="214.783" y1="398.141" x2="265.618" y2="316.823" gradientUnits="userSpaceOnUse"><stop offset=".035" stop-color="#6B24D6"/><stop offset=".294" stop-color="#7733DC"/><stop offset=".794" stop-color="#975CED"/><stop offset="1" stop-color="#A56EF4"/></linearGradient><linearGradient id="paint62_linear" x1="238.435" y1="339.424" x2="320.951" y2="314.747" gradientUnits="userSpaceOnUse"><stop offset=".035" stop-color="#6B24D6"/><stop offset=".294" stop-color="#7733DC"/><stop offset=".794" stop-color="#975CED"/><stop offset="1" stop-color="#A56EF4"/></linearGradient><linearGradient id="paint63_linear" x1="160.101" y1="347.603" x2="266.256" y2="323.836" gradientUnits="userSpaceOnUse"><stop offset=".035" stop-color="#6B24D6"/><stop offset=".294" stop-color="#7733DC"/><stop offset=".794" stop-color="#975CED"/><stop offset="1" stop-color="#A56EF4"/></linearGradient><linearGradient id="paint64_linear" x1="238.435" y1="337.275" x2="320.952" y2="312.597" gradientUnits="userSpaceOnUse"><stop offset=".035" stop-color="#9F19AB"/><stop offset=".244" stop-color="#AE25B1"/><stop offset=".645" stop-color="#D744BF"/><stop offset="1" stop-color="#FF63CE"/></linearGradient><linearGradient id="paint65_linear" x1="160.101" y1="345.454" x2="266.256" y2="321.688" gradientUnits="userSpaceOnUse"><stop offset=".035" stop-color="#9F19AB"/><stop offset=".244" stop-color="#AE25B1"/><stop offset=".645" stop-color="#D744BF"/><stop offset="1" stop-color="#FF63CE"/></linearGradient><linearGradient id="paint66_linear" x1="269.714" y1="247.829" x2="226.019" y2="331" gradientUnits="userSpaceOnUse"><stop offset=".035" stop-color="#9F19AB"/><stop offset=".244" stop-color="#AE25B1"/><stop offset=".645" stop-color="#D744BF"/><stop offset="1" stop-color="#FF63CE"/></linearGradient><linearGradient id="paint68_linear" x1="226.113" y1="317.58" x2="247.524" y2="311.176" gradientUnits="userSpaceOnUse"><stop offset=".035" stop-color="#9F19AB"/><stop offset=".244" stop-color="#AE25B1"/><stop offset=".645" stop-color="#D744BF"/><stop offset="1" stop-color="#FF63CE"/></linearGradient><linearGradient id="paint69_linear" x1="150.038" y1="319.413" x2="270.392" y2="292.468" gradientUnits="userSpaceOnUse"><stop offset=".035" stop-color="#9F19AB"/><stop offset=".244" stop-color="#AE25B1"/><stop offset=".645" stop-color="#D744BF"/><stop offset="1" stop-color="#FF63CE"/></linearGradient><linearGradient id="paint70_linear" x1="211.413" y1="270.924" x2="206.173" y2="280.899" gradientUnits="userSpaceOnUse"><stop offset=".035" stop-color="#9F19AB"/><stop offset=".244" stop-color="#AE25B1"/><stop offset=".645" stop-color="#D744BF"/><stop offset="1" stop-color="#FF63CE"/></linearGradient><linearGradient id="paint72_linear" x1="43.112" y1="380.511" x2="93.947" y2="299.194" gradientUnits="userSpaceOnUse"><stop offset=".035" stop-color="#6B24D6"/><stop offset=".294" stop-color="#7733DC"/><stop offset=".794" stop-color="#975CED"/><stop offset="1" stop-color="#A56EF4"/></linearGradient><linearGradient id="paint74_linear" x1="66.763" y1="321.794" x2="149.28" y2="297.117" gradientUnits="userSpaceOnUse"><stop offset=".035" stop-color="#6B24D6"/><stop offset=".294" stop-color="#7733DC"/><stop offset=".794" stop-color="#975CED"/><stop offset="1" stop-color="#A56EF4"/></linearGradient><linearGradient id="paint75_linear" x1="-11.568" y1="329.973" x2="94.582" y2="306.207" gradientUnits="userSpaceOnUse"><stop offset=".035" stop-color="#6B24D6"/><stop offset=".294" stop-color="#7733DC"/><stop offset=".794" stop-color="#975CED"/><stop offset="1" stop-color="#A56EF4"/></linearGradient><linearGradient id="paint76_linear" x1="66.763" y1="319.643" x2="149.281" y2="294.965" gradientUnits="userSpaceOnUse"><stop offset=".035" stop-color="#9F19AB"/><stop offset=".244" stop-color="#AE25B1"/><stop offset=".645" stop-color="#D744BF"/><stop offset="1" stop-color="#FF63CE"/></linearGradient><linearGradient id="paint77_linear" x1="-11.568" y1="327.823" x2="94.582" y2="304.057" gradientUnits="userSpaceOnUse"><stop offset=".035" stop-color="#9F19AB"/><stop offset=".244" stop-color="#AE25B1"/><stop offset=".645" stop-color="#D744BF"/><stop offset="1" stop-color="#FF63CE"/></linearGradient><linearGradient id="paint78_linear" x1="98.043" y1="230.198" x2="54.347" y2="313.369" gradientUnits="userSpaceOnUse"><stop offset=".035" stop-color="#9F19AB"/><stop offset=".244" stop-color="#AE25B1"/><stop offset=".645" stop-color="#D744BF"/><stop offset="1" stop-color="#FF63CE"/></linearGradient><linearGradient id="paint80_linear" x1="54.442" y1="299.95" x2="75.856" y2="293.545" gradientUnits="userSpaceOnUse"><stop offset=".035" stop-color="#9F19AB"/><stop offset=".244" stop-color="#AE25B1"/><stop offset=".645" stop-color="#D744BF"/><stop offset="1" stop-color="#FF63CE"/></linearGradient><linearGradient id="paint81_linear" x1="-21.635" y1="301.784" x2="98.72" y2="274.838" gradientUnits="userSpaceOnUse"><stop offset=".035" stop-color="#9F19AB"/><stop offset=".244" stop-color="#AE25B1"/><stop offset=".645" stop-color="#D744BF"/><stop offset="1" stop-color="#FF63CE"/></linearGradient><linearGradient id="paint82_linear" x1="39.744" y1="253.29" x2="34.502" y2="263.269" gradientUnits="userSpaceOnUse"><stop offset=".035" stop-color="#9F19AB"/><stop offset=".244" stop-color="#AE25B1"/><stop offset=".645" stop-color="#D744BF"/><stop offset="1" stop-color="#FF63CE"/></linearGradient><linearGradient id="paint84_linear" x1="94.32" y1="410.817" x2="145.156" y2="329.5" gradientUnits="userSpaceOnUse"><stop offset=".035" stop-color="#6B24D6"/><stop offset=".294" stop-color="#7733DC"/><stop offset=".794" stop-color="#975CED"/><stop offset="1" stop-color="#A56EF4"/></linearGradient><linearGradient id="paint86_linear" x1="117.972" y1="352.1" x2="200.489" y2="327.422" gradientUnits="userSpaceOnUse"><stop offset=".035" stop-color="#6B24D6"/><stop offset=".294" stop-color="#7733DC"/><stop offset=".794" stop-color="#975CED"/><stop offset="1" stop-color="#A56EF4"/></linearGradient><linearGradient id="paint87_linear" x1="39.639" y1="360.278" x2="145.789" y2="336.513" gradientUnits="userSpaceOnUse"><stop offset=".035" stop-color="#6B24D6"/><stop offset=".294" stop-color="#7733DC"/><stop offset=".794" stop-color="#975CED"/><stop offset="1" stop-color="#A56EF4"/></linearGradient><linearGradient id="paint88_linear" x1="117.972" y1="349.95" x2="200.489" y2="325.272" gradientUnits="userSpaceOnUse"><stop offset=".035" stop-color="#9F19AB"/><stop offset=".244" stop-color="#AE25B1"/><stop offset=".645" stop-color="#D744BF"/><stop offset="1" stop-color="#FF63CE"/></linearGradient><linearGradient id="paint89_linear" x1="39.639" y1="358.129" x2="145.789" y2="334.363" gradientUnits="userSpaceOnUse"><stop offset=".035" stop-color="#9F19AB"/><stop offset=".244" stop-color="#AE25B1"/><stop offset=".645" stop-color="#D744BF"/><stop offset="1" stop-color="#FF63CE"/></linearGradient><linearGradient id="paint90_linear" x1="149.25" y1="260.506" x2="105.555" y2="343.676" gradientUnits="userSpaceOnUse"><stop offset=".035" stop-color="#9F19AB"/><stop offset=".244" stop-color="#AE25B1"/><stop offset=".645" stop-color="#D744BF"/><stop offset="1" stop-color="#FF63CE"/></linearGradient><linearGradient id="paint92_linear" x1="105.648" y1="330.256" x2="127.06" y2="323.852" gradientUnits="userSpaceOnUse"><stop offset=".035" stop-color="#9F19AB"/><stop offset=".244" stop-color="#AE25B1"/><stop offset=".645" stop-color="#D744BF"/><stop offset="1" stop-color="#FF63CE"/></linearGradient><linearGradient id="paint93_linear" x1="29.574" y1="332.09" x2="149.923" y2="305.146" gradientUnits="userSpaceOnUse"><stop offset=".035" stop-color="#9F19AB"/><stop offset=".244" stop-color="#AE25B1"/><stop offset=".645" stop-color="#D744BF"/><stop offset="1" stop-color="#FF63CE"/></linearGradient><linearGradient id="paint94_linear" x1="90.949" y1="283.6" x2="85.709" y2="293.575" gradientUnits="userSpaceOnUse"><stop offset=".035" stop-color="#9F19AB"/><stop offset=".244" stop-color="#AE25B1"/><stop offset=".645" stop-color="#D744BF"/><stop offset="1" stop-color="#FF63CE"/></linearGradient><linearGradient id="paint96_linear" x1="226.545" y1="226.772" x2="441.877" y2="220.952" gradientUnits="userSpaceOnUse"><stop stop-color="#7162C8"/><stop offset=".63" stop-color="#654BB7"/><stop offset="1" stop-color="#5D3BAB"/></linearGradient><linearGradient id="paint97_linear" x1="443.032" y1="218.312" x2="435.859" y2="218.506" gradientUnits="userSpaceOnUse"><stop stop-color="#7162C8"/><stop offset=".63" stop-color="#654BB7"/><stop offset="1" stop-color="#5D3BAB"/></linearGradient><linearGradient id="paint98_linear" x1="439.489" y1="87.133" x2="224.156" y2="92.953" gradientUnits="userSpaceOnUse"><stop stop-color="#7162C8"/><stop offset=".63" stop-color="#654BB7"/><stop offset="1" stop-color="#5D3BAB"/></linearGradient><linearGradient id="paint99_linear" x1="439.245" y1="153.467" x2="224.745" y2="159.264" gradientUnits="userSpaceOnUse"><stop stop-color="#CFCFFF"/><stop offset=".068" stop-color="#D4D4FF"/><stop offset=".356" stop-color="#E7E7FF"/><stop offset=".66" stop-color="#F1F1FF"/><stop offset="1" stop-color="#F5F5FF"/></linearGradient><linearGradient id="paint101_linear" x1="225.856" y1="122.497" x2="309.698" y2="122.497" gradientUnits="userSpaceOnUse"><stop offset=".5" stop-color="#fff"/><stop offset="1" stop-color="#B7B6B6"/></linearGradient><radialGradient id="paint1_radial" cx="0" cy="0" r="1" gradientUnits="userSpaceOnUse" gradientTransform="matrix(33.9123 0 0 33.9547 233.151 255.236)"><stop stop-color="#fff"/><stop offset="1"/></radialGradient><radialGradient id="paint7_radial" cx="0" cy="0" r="1" gradientUnits="userSpaceOnUse" gradientTransform="matrix(26.079 0 0 26.1117 225.827 236.964)"><stop stop-color="#fff"/><stop offset="1"/></radialGradient><radialGradient id="paint11_radial" cx="0" cy="0" r="1" gradientUnits="userSpaceOnUse" gradientTransform="matrix(21.7503 0 0 21.7776 183.311 193.875)"><stop stop-color="#fff"/><stop offset="1"/></radialGradient><radialGradient id="paint13_radial" cx="0" cy="0" r="1" gradientUnits="userSpaceOnUse" gradientTransform="matrix(33.9133 0 0 33.9558 284.357 285.543)"><stop stop-color="#fff"/><stop offset="1"/></radialGradient><radialGradient id="paint19_radial" cx="0" cy="0" r="1" gradientUnits="userSpaceOnUse" gradientTransform="matrix(26.0791 0 0 26.1117 277.034 267.271)"><stop stop-color="#fff"/><stop offset="1"/></radialGradient><radialGradient id="paint23_radial" cx="0" cy="0" r="1" gradientUnits="userSpaceOnUse" gradientTransform="matrix(21.7503 0 0 21.7775 234.518 224.181)"><stop stop-color="#fff"/><stop offset="1"/></radialGradient><radialGradient id="paint25_radial" cx="0" cy="0" r="1" gradientUnits="userSpaceOnUse" gradientTransform="matrix(33.9134 0 0 33.9558 334.112 314.811)"><stop stop-color="#fff"/><stop offset="1"/></radialGradient><radialGradient id="paint31_radial" cx="0" cy="0" r="1" gradientUnits="userSpaceOnUse" gradientTransform="matrix(26.079 0 0 26.1118 326.79 296.541)"><stop stop-color="#fff"/><stop offset="1"/></radialGradient><radialGradient id="paint35_radial" cx="0" cy="0" r="1" gradientUnits="userSpaceOnUse" gradientTransform="matrix(21.7503 0 0 21.7775 284.275 253.451)"><stop stop-color="#fff"/><stop offset="1"/></radialGradient><radialGradient id="paint37_radial" cx="0" cy="0" r="1" gradientUnits="userSpaceOnUse" gradientTransform="matrix(33.9144 0 0 33.9568 160.991 297.18)"><stop stop-color="#fff"/><stop offset="1"/></radialGradient><radialGradient id="paint43_radial" cx="0" cy="0" r="1" gradientUnits="userSpaceOnUse" gradientTransform="matrix(26.079 0 0 26.1116 153.666 278.909)"><stop stop-color="#fff"/><stop offset="1"/></radialGradient><radialGradient id="paint47_radial" cx="0" cy="0" r="1" gradientUnits="userSpaceOnUse" gradientTransform="matrix(21.7508 0 0 21.778 111.146 235.82)"><stop stop-color="#fff"/><stop offset="1"/></radialGradient><radialGradient id="paint49_radial" cx="0" cy="0" r="1" gradientUnits="userSpaceOnUse" gradientTransform="matrix(33.9133 0 0 33.9558 212.198 327.487)"><stop stop-color="#fff"/><stop offset="1"/></radialGradient><radialGradient id="paint55_radial" cx="0" cy="0" r="1" gradientUnits="userSpaceOnUse" gradientTransform="matrix(26.0803 0 0 26.1129 204.872 309.216)"><stop stop-color="#fff"/><stop offset="1"/></radialGradient><radialGradient id="paint59_radial" cx="0" cy="0" r="1" gradientUnits="userSpaceOnUse" gradientTransform="matrix(21.7508 0 0 21.778 162.359 266.126)"><stop stop-color="#fff"/><stop offset="1"/></radialGradient><radialGradient id="paint61_radial" cx="0" cy="0" r="1" gradientUnits="userSpaceOnUse" gradientTransform="matrix(33.9134 0 0 33.9558 261.955 356.757)"><stop stop-color="#fff"/><stop offset="1"/></radialGradient><radialGradient id="paint67_radial" cx="0" cy="0" r="1" gradientUnits="userSpaceOnUse" gradientTransform="matrix(26.079 0 0 26.1119 254.628 338.485)"><stop stop-color="#fff"/><stop offset="1"/></radialGradient><radialGradient id="paint71_radial" cx="0" cy="0" r="1" gradientUnits="userSpaceOnUse" gradientTransform="matrix(21.7503 0 0 21.7775 212.112 295.393)"><stop stop-color="#fff"/><stop offset="1"/></radialGradient><radialGradient id="paint73_radial" cx="0" cy="0" r="1" gradientUnits="userSpaceOnUse" gradientTransform="matrix(33.9144 0 0 33.9567 90.282 339.125)"><stop stop-color="#fff"/><stop offset="1"/></radialGradient><radialGradient id="paint79_radial" cx="0" cy="0" r="1" gradientUnits="userSpaceOnUse" gradientTransform="matrix(26.0791 0 0 26.1117 82.958 320.855)"><stop stop-color="#fff"/><stop offset="1"/></radialGradient><radialGradient id="paint83_radial" cx="0" cy="0" r="1" gradientUnits="userSpaceOnUse" gradientTransform="matrix(21.7503 0 0 21.7775 40.44 277.763)"><stop stop-color="#fff"/><stop offset="1"/></radialGradient><radialGradient id="paint85_radial" cx="0" cy="0" r="1" gradientUnits="userSpaceOnUse" gradientTransform="matrix(33.9144 0 0 33.9568 141.487 369.432)"><stop stop-color="#fff"/><stop offset="1"/></radialGradient><radialGradient id="paint91_radial" cx="0" cy="0" r="1" gradientUnits="userSpaceOnUse" gradientTransform="matrix(26.079 0 0 26.1116 134.165 351.161)"><stop stop-color="#fff"/><stop offset="1"/></radialGradient><radialGradient id="paint95_radial" cx="0" cy="0" r="1" gradientUnits="userSpaceOnUse" gradientTransform="matrix(21.7499 0 0 21.7771 91.648 308.07)"><stop stop-color="#fff"/><stop offset="1"/></radialGradient><radialGradient id="paint100_radial" cx="0" cy="0" r="1" gradientUnits="userSpaceOnUse" gradientTransform="matrix(0 119.74 -105.317 0 330.8 155.542)"><stop stop-color="#515AA5"/><stop offset=".5" stop-color="#515AA5"/><stop offset="1" stop-color="#33425A"/></radialGradient></defs></svg>