<svg width="210" height="124" fill="none" xmlns="http://www.w3.org/2000/svg"><g clip-path="url(#clip0)"><path d="M182.001 102.249l-138.7-1.196v3.532c0 .957.61 1.766 1.424 1.913l39.211 6.954c.462.074.943.11 1.406.074l95.142-7.929c.851-.074 1.498-.883 1.498-1.876v-1.472h.019z" fill="#7A9DC4"/><path d="M130.952 96.602l-88.15 6.457c-1.573.11-2.867-1.104-2.867-2.741V35.032c0-1.638 1.276-2.944 2.866-2.944l3.126 1.785 85.044-1.785c1.294 0 2.349 1.196 2.349 2.667V93.77c-.019 1.472-1.055 2.741-2.368 2.833z" fill="#BFC8D6"/><path d="M132.356 96.602l-88.151 6.457c-1.572.11-2.867-1.104-2.867-2.741V35.032c0-1.638 1.276-2.944 2.867-2.944h88.151c1.295 0 2.349 1.196 2.349 2.667V93.77c0 1.472-1.036 2.741-2.349 2.833z" fill="#D5E4F4"/><path d="M129.621 92.445l-82.103 5.61c-1.276.093-2.33-.92-2.33-2.244V38.637c0-1.324 1.035-2.41 2.33-2.41l82.103-.35c1.073 0 1.942.976 1.942 2.19v52.06c0 1.196-.869 2.244-1.942 2.318z" fill="#5D7092"/><path d="M76.63 41.58l-22.158.056v-2.098H76.63v2.042zm10.43-.607h-5.105l-.018-1.434h5.123v1.434zm0 1.969l-5.104.037v-1.435l5.105-.019v1.417zm25.524-.111l-19.865.092v-1.416l19.865-.055v1.38zm3.257 1.877l-19.66.147v-1.398l19.66-.11v1.36zm0 1.912l-19.66.203v-1.416l19.66-.166v1.38zm0 1.896l-19.66.257v-1.416l19.66-.221v1.38zM87.08 44.928l-5.124.037V43.53l5.123-.018v1.416zm0 1.987l-5.124.055v-1.435l5.123-.055v1.435zm0 1.969l-5.124.074v-1.435l5.123-.056v1.417zm0 1.986l-5.124.074v-1.435l5.123-.055v1.416zm13.724-.22l-12.596.201-.019-1.416 12.615-.184v1.398zM87.08 52.858l-5.106.092-.018-1.435 5.123-.092v1.435zm.001 1.967l-5.104.11v-1.434l5.104-.092v1.416zm.019 1.987l-5.123.13v-1.436l5.123-.128v1.434zm19.604-4.342l-13.964.277V51.33l13.964-.239v1.38zm7.268 1.767l-17.774.386v-1.398l17.755-.35.019 1.362zm0 1.913l-17.774.441v-1.416l17.774-.405v1.38zM87.1 58.78l-5.123.148v-1.435l5.123-.129v1.417zm0 1.987l-5.123.166v-1.435l5.123-.147v1.416zm0 1.987l-5.123.166v-1.435l5.123-.166v1.435zm0 1.969l-5.105.184-.018-1.435 5.123-.166v1.417zm0 1.987l-5.105.202v-1.435l5.104-.184v1.416zm.018 1.985l-5.123.203v-1.435l5.104-.202.019 1.434zm0 1.969l-5.123.239v-1.435l5.123-.22v1.416zm0 1.986l-5.123.24v-1.435l5.123-.24v1.436zm0 1.969l-5.123.276V73.46l5.123-.257v1.416zm0 1.987l-5.105.276-.018-1.435 5.123-.258v1.417zm0 1.987l-5.105.275v-1.434l5.105-.276v1.435zm.018 1.967l-5.123.314v-1.435l5.105-.295.018 1.417zm0 1.988l-5.123.313v-1.435l5.123-.294v1.416zm0 1.986l-5.123.332V83.43l5.123-.331v1.434zm0 1.97l-5.123.35v-1.436l5.123-.33v1.416zm0 1.986l-5.105.368-.018-1.435 5.123-.368v1.435zm-.001 1.987l-5.105.367V89.41l5.105-.368v1.434zm.019 1.968l-5.123.386v-1.435l5.104-.368.019 1.417zm14.961-51.508l-13.964.036V39.54l13.946.018.018 1.38zm10.527 40.029l-19.865 1.232v-1.416l19.865-1.196v1.38zm3.254 1.692l-19.661 1.27v-1.399l19.661-1.232v1.361zm0 1.895l-19.661 1.343V84.48l19.661-1.288v1.361zm8.472 1.306l-19.143 1.343v-1.38l19.143-1.324v1.361zm.018 1.858l-19.161 1.417v-1.38l19.143-1.38.018 1.343zm0 1.876l-19.161 1.472v-1.398l19.161-1.416v1.342zm-22.214-9.915l-13.965.828v-1.417l13.965-.81v1.399zm10.432-19.683l-19.864.607v-1.417l19.864-.57v1.38zm3.255 1.802l-19.661.644v-1.398l19.661-.625v1.38zm0 1.895l-19.661.7v-1.399l19.661-.68v1.38zm.019 1.895l-19.661.772v-1.416l19.642-.718.019 1.362zm-15.057 2.52l-12.595.534v-1.417l12.595-.515v1.398zm5.902 1.673l-13.964.626v-1.398l13.964-.607v1.38zm7.268 1.584l-17.774.846v-1.398l17.774-.81v1.362zm0 1.912l-17.774.883v-1.398l17.774-.864v1.38zm3.94 1.674l-17.552.957V74.51l17.552-.92v1.362zm0 1.895l-17.552.993V76.44l17.552-.956v1.36zm-15.795-18.469l-13.965.387v-1.417l13.965-.368v1.398zM76.63 44.763l-12.67.092v-2.079l12.67-.055v2.042zm-15.963.111l2.386-.019v-2.078l-2.386.018v2.079zm15.981 2.814l-12.688.147v-2.079l12.67-.11.018 2.042zm-15.963.183l2.386-.036v-2.06l-2.404.018.018 2.078zm15.963 2.741l-12.688.203v-2.079l12.688-.147v2.023zm-15.963.258l2.386-.037v-2.079l-2.386.019v2.097zm16 20.53l-22.158.993v-2.097l22.14-.938.018 2.042zm-.001 3.182l-12.688.626v-2.06l12.688-.608v2.042zm-15.96.791l2.386-.11v-2.079l-2.386.11v2.08zm15.96 2.134l-12.67.681-.018-2.06 12.688-.662v2.041zm-15.96.865l2.386-.129v-2.078l-2.386.129v2.078zm15.96 2.061l-12.67.735v-2.06l12.67-.717v2.042zm-15.96.937l2.405-.147-.019-2.079-2.386.13v2.096zm15.924-27.814l-22.158.442V51.9l22.158-.368v2.023zm0 3.183l-12.67.312v-2.078l12.67-.258v2.024zm-15.963.404l2.404-.074-.018-2.078-2.386.055v2.097zm15.982 2.539l-12.688.35v-2.08l12.688-.312v2.042zm-15.964.441l2.386-.055V57.99l-2.404.056.018 2.078zm15.964 5.445l-12.688.46v-2.06l12.688-.442v2.042zm-15.961.589l2.386-.092v-2.078l-2.386.092v2.078zm15.96 2.336l-12.67.516v-2.06l12.67-.498v2.043zm-15.96.663l2.404-.11-.018-2.06-2.386.091v2.079zm15.961-6.549l-12.688.405v-2.06l12.688-.387v2.042zm-15.961.515l2.386-.074V60.97l-2.386.073v2.079zm15.999 20.235l-22.158 1.38v-2.098l22.14-1.306.018 2.024zm-.002 3.183l-12.688.845v-2.06l12.688-.81v2.024zm-15.961 1.067l2.386-.147v-2.08l-2.386.148v2.079zm15.961 1.857l-12.67.902-.018-2.06 12.688-.865v2.023zm-15.961 1.141l2.386-.166V88.36l-2.386.166v2.079zm15.961 1.803l-12.67.957v-2.08l12.67-.919v2.042zm-15.961 1.196l2.405-.184-.019-2.078-2.386.184v2.078zm18.66-1.398l-.48.036-.093-52.704h.5l.073 52.668zm12.005-58.352c0 .607-.462 1.104-1.017 1.104-.555 0-1.017-.497-1.017-1.104 0-.607.462-1.104 1.017-1.104.555 0 1.017.497 1.017 1.104z" fill="#fff"/><path opacity=".48" d="M44.208 103.059l87.707-6.42.444-.037c.592-.037 1.147-.331 1.554-.773-6.307-.349-10.228-2.575-12.762-4.874-5.087-4.618-4.199-9.18-9.674-12.215-6.825-3.79-12.207 1.012-17.386-3.734-3.144-2.87-1.59-5.022-5.474-9.309-4.291-4.764-7.066-3.164-11.375-7.432-5.438-5.408-2.72-9.62-7.417-13.502-5.678-4.71-11.819-.35-17.238-4.875-2.33-1.95-3.625-4.783-4.291-7.8H44.17c-1.572 0-2.867 1.325-2.867 2.944v65.286c.056 1.619 1.332 2.851 2.904 2.741z" fill="#7A9DC4"/><path d="M136.52 96.235l-93.22 6.788 40.636 7.193c.462.073.943.11 1.406.073L182 102.25l-44.002-5.96a6.64 6.64 0 00-1.479-.055z" fill="url(#paint0_linear)"/><path d="M56.894 103.096l77.608-5.74 24.026 3.219-76.942 6.145-24.692-3.624z" fill="#D8DEE8"/><path d="M153.629 15.734L99.233 13.95a3.188 3.188 0 00-3.31 3.2v52.741c0 1.822 1.479 3.238 3.31 3.165l54.415-2.318c1.572-.074 2.848-1.49 2.848-3.164V18.88c-.018-1.692-1.295-3.09-2.867-3.146z" fill="url(#paint1_linear)"/><path opacity=".74" d="M99.236 72.007a2.149 2.149 0 01-2.256-2.152V17.188a2.175 2.175 0 012.256-2.17l54.396 1.692c1.073.036 1.942.993 1.942 2.134V67.61c0 1.14-.869 2.115-1.942 2.152l-54.396 2.244z" fill="#fff"/><path d="M153.629 15.734L99.233 13.95a3.188 3.188 0 00-3.31 3.2v2.374l60.555 1.545V18.88c0-1.692-1.277-3.09-2.849-3.146z" fill="url(#paint2_linear)"/><path d="M101.805 17.004c0 .589-.48 1.067-1.072 1.048a1.115 1.115 0 01-1.073-1.103c0-.589.481-1.067 1.073-1.049a1.114 1.114 0 011.072 1.104zm3.734.11a1.05 1.05 0 01-1.055 1.049 1.115 1.115 0 01-1.072-1.104c0-.588.481-1.048 1.072-1.048a1.1 1.1 0 011.055 1.104zm3.721.092c0 .588-.462 1.048-1.054 1.03a1.099 1.099 0 01-1.054-1.104c0-.588.48-1.048 1.054-1.03.573.037 1.054.534 1.054 1.104zm19.251 8.922l-28.743-.515v1.674l28.743.46v-1.619zm21.603.386v1.564l3.052.055V26.57l-3.052-.056zm-44.261 4.875l-6.085-.055v-1.73l6.085.074v1.71zm32.46.349l-28.594-.294v-1.71l28.594.367v1.637zm-22.657 2.668l-5.937-.037v-1.71l5.937.036v1.71zm31.664.221l-27.892-.203v-1.692l27.892.257v1.638zm-31.664 2.667l-5.937-.019v-1.71l5.937.036v1.693zm31.664.11l-27.892-.092V35.62l27.892.147v1.637zm-41.467 2.815h-6.085v-1.73h6.085v1.73zm32.46-.037l-28.594.019V38.49l28.594.055v1.637zm-22.657 2.925l-5.937.019v-1.711h5.937v1.692zm31.664-.147l-27.892.128v-1.692l27.892-.055v1.618zm-31.664 3.035l-5.937.056V44.34l5.937-.037v1.692zm31.664-.258l-27.892.24v-1.693l27.892-.166v1.62zm-31.664 3.165l-5.937.073v-1.71l5.937-.056v1.693zm31.664-.386l-27.892.35v-1.693l27.892-.276v1.619zm-22.027 3.144l-5.771.093V50.06l5.771-.092v1.693zm26.357-.422l-22.658.35v-1.656l22.658-.313v1.619zm-45.797 3.661l-6.085.11v-1.73l6.085-.11v1.73zm32.46-.644l-28.594.57v-1.71l28.594-.497v1.637zm-22.657 3.348l-5.937.147v-1.71l5.937-.13v1.693zm31.664-.736l-27.892.644v-1.674l27.892-.589v1.62zm-31.664 3.643l-5.937.165v-1.71l5.937-.148v1.692zm31.664-.865l-27.892.754v-1.692l27.892-.681v1.619zm-41.467 4.065l-6.085.184v-1.729l6.085-.184v1.73zm32.46-.993l-28.594.865v-1.71l28.594-.81v1.655zm-22.657 3.587l-5.937.203v-1.711l5.937-.184v1.692zm31.664-1.086l-27.892.957v-1.692l27.892-.902v1.637z" fill="#fff"/><path d="M84.64 105.727a8.502 8.502 0 01-4.643-1.196c-4.236-2.539-10.506-6.715-16.147-12.178-7.158-6.935-11.264-14-12.17-20.916l-.019-.11-.166-29.563c0-5.85 3.829-10.577 11.023-13.705 5.938-2.575 13.817-3.844 22.14-3.605 8.23.24 15.832 1.931 21.473 4.728 6.696 3.348 10.21 8.039 10.21 13.613l-.166 28.237-.019.11c-.814 6.641-4.605 13.485-11.301 20.42-5.364 5.555-11.43 9.97-15.592 12.693a8.82 8.82 0 01-4.624 1.472z" fill="#B7C0CE"/><path d="M86.287 105.727a8.316 8.316 0 01-4.587-1.196c-4.18-2.539-10.376-6.715-15.944-12.178-7.065-6.935-11.116-14-12.003-20.916l-.019-.11-.166-29.563c0-5.85 3.773-10.577 10.875-13.705 5.863-2.575 13.632-3.844 21.844-3.605 8.12.24 15.629 1.931 21.177 4.728 6.603 3.348 10.081 8.039 10.081 13.613l-.148 28.237-.019.11c-.814 6.641-4.55 13.485-11.153 20.42-5.29 5.555-11.282 9.97-15.388 12.693a8.675 8.675 0 01-4.55 1.472z" fill="#fff"/><path d="M55.509 41.783l.166 29.415c1.942 15.01 19.68 27.152 27.392 31.769 2.22 1.325 5.05 1.251 7.232-.202 7.565-4.949 24.322-17.403 26.116-31.825l.167-28.164c.018-20.898-61.073-22.81-61.073-.993z" fill="#F4F7FA"/><path d="M85.62 96.216c-3.218-1.969-8.915-5.758-13.909-10.633-5.438-5.335-8.6-10.45-9.34-15.177l-.148-28.752c0-1.987 1.83-3.808 5.437-5.39 4.587-2.024 11.135-3.073 17.96-2.925 6.77.147 13.132 1.471 17.515 3.642 3.404 1.674 5.124 3.495 5.124 5.445l-.167 27.815c-.703 4.599-3.662 9.602-8.86 14.955-4.808 4.93-10.412 8.922-13.612 11.02z" fill="url(#paint3_linear)"/><path d="M97.475 58.8l-21.622.183c-1.665.019-3.015 1.306-3.015 2.87V75.63c0 1.564 1.35 2.778 2.997 2.704l21.547-.882c1.535-.056 2.774-1.325 2.774-2.815l.074-13.171c.019-1.472-1.22-2.668-2.755-2.668z" fill="#33425A"/><path d="M99.72 59.261l-21.622.184c-1.665.018-3.015 1.306-3.015 2.87v13.778c0 1.564 1.35 2.778 2.997 2.704l21.547-.883c1.535-.055 2.774-1.324 2.774-2.814l.074-13.172c.019-1.471-1.22-2.667-2.755-2.667z" fill="url(#paint4_linear)"/><path d="M97.18 57.438c-.648 0-1.184-.515-1.166-1.14l.019-3c.018-3.016-2.497-5.5-5.623-5.518l-7.066-.074c-3.236-.036-5.881 2.484-5.9 5.593v3.09c0 .662-.555 1.196-1.257 1.196-.703 0-1.258-.534-1.258-1.196V53.28c0-4.451 3.81-8.02 8.415-7.947l7.066.092c4.439.056 7.972 3.588 7.953 7.874l-.018 2.998c0 .626-.518 1.14-1.166 1.14z" fill="#33425A"/><path d="M99.424 57.9c-.647 0-1.183-.515-1.165-1.14l.019-3c.018-3.016-2.497-5.5-5.623-5.518l-7.065-.074c-3.237-.037-5.882 2.484-5.9 5.593v3.09c0 .662-.555 1.196-1.258 1.196s-1.258-.534-1.258-1.196v-3.109c0-4.452 3.81-8.02 8.416-7.947l7.065.092c4.439.055 7.972 3.587 7.953 7.874l-.018 2.998c0 .626-.518 1.14-1.166 1.14z" fill="#BCCDEA"/><path d="M92.355 66.71c0-1.527-1.314-2.723-2.904-2.631-1.424.092-2.59 1.232-2.682 2.594a2.595 2.595 0 001.387 2.446.96.96 0 01.48 1.03l-.628 3.477c-.074.442.278.828.74.81l1.59-.056c.463-.018.814-.423.74-.864l-.61-3.44c-.074-.405.148-.828.518-1.049a2.752 2.752 0 001.368-2.318z" fill="#F2709F"/><path fill-rule="evenodd" clip-rule="evenodd" d="M89.06 64.183c1.15.308 1.992 1.318 1.992 2.54a2.752 2.752 0 01-1.369 2.317c-.37.221-.592.644-.518 1.049l.61 3.44c.075.442-.277.846-.74.865l-.404.014c.087.03.181.045.281.04l1.59-.054c.463-.019.815-.424.74-.865l-.61-3.44c-.074-.405.148-.828.518-1.049a2.752 2.752 0 001.369-2.317c0-1.527-1.313-2.723-2.904-2.631a2.87 2.87 0 00-.556.091z" fill="#33425A"/></g><defs><linearGradient id="paint0_linear" x1="43.303" y1="103.272" x2="182" y2="103.272" gradientUnits="userSpaceOnUse"><stop offset=".494" stop-color="#D3E0EF"/><stop offset="1" stop-color="#fff"/></linearGradient><linearGradient id="paint1_linear" x1="146.502" y1="1.978" x2="88.046" y2="119.526" gradientUnits="userSpaceOnUse"><stop offset=".004" stop-color="#E38DDD"/><stop offset="1" stop-color="#9571F6"/></linearGradient><linearGradient id="paint2_linear" x1="120.999" y1="-1.685" x2="131.141" y2="39.102" gradientUnits="userSpaceOnUse"><stop offset=".004" stop-color="#E38DDD"/><stop offset="1" stop-color="#9571F6"/></linearGradient><linearGradient id="paint3_linear" x1="62.188" y1="64.753" x2="108.269" y2="64.753" gradientUnits="userSpaceOnUse"><stop stop-color="#F7DA5C"/><stop offset="1" stop-color="#F15DAB"/></linearGradient><linearGradient id="paint4_linear" x1="105.387" y1="59.344" x2="72.359" y2="59.344" gradientUnits="userSpaceOnUse"><stop stop-color="#E0E9F9"/><stop offset=".432" stop-color="#86A4D6"/><stop offset="1" stop-color="#5D7092"/></linearGradient><clipPath id="clip0"><path fill="#fff" d="M28.778 13.95H182v107.725H28.778z"/></clipPath></defs></svg>