<svg width="427" height="403" fill="none" xmlns="http://www.w3.org/2000/svg"><path d="M150.463 96.025a2.56 2.56 0 00-2.031.37l-14.958 8.699c.554-.371 1.108-.371 2.031-.371 5.355.741 10.341.741 15.512-2.22l14.958-8.699c-4.986 2.962-9.972 2.962-15.512 2.221z" fill="url(#paint0_linear)"/><path d="M226.541 250.187l14.958-8.699c22.344-12.954 31.762-38.309 35.64-60.887l-14.958 8.698c-3.878 22.763-13.296 47.933-35.64 60.888z" fill="#9AA9AD"/><path d="M136.427 104.906c12.557 2.035 21.79-4.627 24.929-17.582.554-2.59 2.586-3.516 5.171-2.59 11.819 4.44 24.006 10.178 36.379 17.396 13.111 7.587 26.222 16.471 38.779 26.464 2.401 2.036 4.432 5.367 5.171 8.514 3.139 16.471 12.373 33.682 24.745 46.082l.923.925c2.401 2.406 3.878 5.922 3.509 8.698l-.185.925c-4.616 34.238-20.128 76.064-68.51 81.616-1.108.185-2.401-.185-3.693-.926-1.293-.74-2.586-1.85-3.694-3.331-48.012-61.443-63.34-121.22-67.772-160.639l-.184-1.111c-.369-3.146 1.108-4.997 3.508-4.626l.924.185z" fill="#fff"/><path d="M167.632 89.734c-1.662-.926-3.14-.186-3.14 1.85s1.293 4.442 3.14 5.367c1.662.925 3.139.185 3.139-1.85 0-1.851-1.293-4.257-3.139-5.367z" fill="#00D0CD"/><path d="M290.99 183.931c.369-2.961-1.293-6.477-3.509-8.698-30.285-33.127-20.682-47.562-30.654-55.52-12.742-9.994-25.853-18.877-38.78-26.465-4.431-2.406-35.824-19.802-39.887-17.397-4.986 2.962-9.972 5.923-14.958 8.699 4.247-2.406 35.456 14.805 39.888 17.396 6.278 3.702 39.333 23.689 43.026 32.017.185.185.185.37.37.74 1.108 2.961 1.477 9.254 6.463 20.358 12.003 27.02 24.56 27.76 23.083 38.309-3.509 26.28-13.48 57.001-39.887 72.547l14.957-8.699c24.561-14.435 37.672-46.452 39.888-73.287z" fill="url(#paint1_linear)"/><path d="M267.906 186.337c-1.662-.926-3.139-.186-3.139 1.85s1.292 4.442 3.139 5.367c1.662.926 3.139.185 3.139-1.851 0-1.85-1.292-4.256-3.139-5.366zm-26.776-53.671c-1.662-.925-3.14-.185-3.14 1.851 0 2.035 1.293 4.441 3.14 5.367 1.662.925 3.139.185 3.139-1.851 0-1.851-1.477-4.257-3.139-5.367zm-102.669-22.207c-1.662-.925-3.14-.185-3.14 1.851s1.293 4.442 3.14 5.367c1.662.925 3.139.185 3.139-1.851 0-2.035-1.293-4.441-3.139-5.367zm65.556 151.943c-1.662-.926-3.139-.185-3.139 1.85 0 2.036 1.293 4.442 3.139 5.367 1.662.926 3.14.185 3.14-1.85-.185-1.851-1.478-4.257-3.14-5.367z" fill="#00D0CD"/><path d="M203.83 258.145c39.149-6.107 53.553-39.604 58.354-68.845-12.557-14.435-22.159-32.572-26.591-50.524-10.711-8.143-21.791-15.545-32.686-21.838-10.157-5.922-20.498-10.919-30.1-14.805-4.432 12.955-14.219 19.987-26.961 19.802 4.616 34.793 18.835 84.761 57.984 136.21z" fill="url(#paint2_linear)"/><path opacity=".3" d="M69.803 342.152V235.404m68.655 79.195v48.209" stroke="#06EDE1"/><path fill="url(#paint3_linear)" d="M60.998 202.694h22.887v22.383H60.998z"/><path fill="url(#paint4_linear)" d="M149.027 355.93h15.845v15.496h-15.845z"/><path fill="url(#paint5_linear)" d="M113.807 66.669h10.563V77h-10.563z"/><path fill="url(#paint6_linear)" d="M149.027 333.552h10.563v10.331h-10.563z"/><path opacity=".3" d="M365.99 295.269V188.521M297.335.853V107.6m.001 160.116v48.209" stroke="#06EDE1"/><path transform="matrix(-1 0 0 1 263.884 59.395)" fill="url(#paint7_linear)" d="M0 0h22.887v22.383H0z"/><path transform="matrix(-1 0 0 1 374.795 155.811)" fill="url(#paint8_linear)" d="M0 0h22.887v22.383H0z"/><path transform="matrix(-1 0 0 1 286.767 309.047)" fill="url(#paint9_linear)" d="M0 0h15.845v15.496H0z"/><path transform="matrix(-1 0 0 1 321.988 19.786)" fill="url(#paint10_linear)" d="M0 0h10.563v10.331H0z"/><path transform="matrix(-1 0 0 1 286.767 286.669)" fill="url(#paint11_linear)" d="M0 0h10.563v10.331H0z"/><path fill-rule="evenodd" clip-rule="evenodd" d="M325.863 334.09l9.389-22.413c.376.298.709.613 1.022.909v.001c.256.242.498.471.74.668.409.333.724.666 1.01.968l.004.004.205.215c.059.061.118.121.177.178a26.53 26.53 0 001.096 1.17l15.152-2.535s-.499-.487-1.296-1.364l-1.595-1.56c-.598-.585-1.296-1.268-2.193-1.95-2.443-2.172-5.876-4.72-9.89-7.286l87.317-208.46-427-.001 89.644 206.423c-4.521 2.662-8.383 5.362-11.201 7.582-.505.435-.991.845-1.447 1.228l-.001.001-.001.001c-1.075.904-1.979 1.664-2.538 2.28l-1.396 1.364 14.952 2.828s.499-.39 1.296-1.17c.66-.646 1.663-1.493 2.838-2.485l.75-.635c.361-.286.74-.581 1.139-.884l10.251 23.605c-.862 2.074-1.309 4.199-1.309 6.362 0 22.899 50.078 41.462 111.852 41.462 61.775 0 111.853-18.563 111.853-41.462 0-1.707-.279-3.39-.82-5.044zm34.678 20.022s.1-.097.2-.39c.082-.241.231-.481.448-.831l.001-.001.149-.24c.173-.425.422-.849.747-1.402l.15-.255c.299-.683.598-1.365.897-2.145 1.296-3.12 2.392-7.409 2.293-11.698 0-4.29-1.196-8.482-2.592-11.601-1.396-3.12-2.791-5.167-2.791-5.167l-15.75 1.852s1.196 1.852 2.492 4.68c1.296 2.827 2.292 6.629 2.292 10.431.1 3.801-.897 7.603-2.093 10.43a17.13 17.13 0 00-.34.858c-.145.384-.285.754-.457 1.092-.164.321-.328.612-.476.874l-.001.003-.001.001-.001.001-.001.002c-.12.213-.229.407-.318.582l-.037.071-.041.077c-.044.082-.088.159-.129.234a3.692 3.692 0 00-.291.592c-.1.195-.2.293-.2.293l15.85 1.657zm-51.134 34.115c-.498.097-.698.195-.698.195l-10.267-5.362s3.589-1.17 8.374-3.119c4.884-1.95 10.965-4.68 16.148-7.799 5.283-3.12 9.769-6.434 12.66-8.969l.334-.303c1.251-1.135 2.314-2.099 2.955-2.816.698-.78 1.097-1.268 1.097-1.268l15.151 2.535s-.498.487-1.296 1.365c-.715.787-1.833 1.811-3.208 3.07l-.002.001-.478.438c-3.289 2.925-8.273 6.629-14.155 10.041-5.881 3.412-12.659 6.629-18.042 8.774-2.142.886-4.216 1.639-5.772 2.204l-.907.331c-.35.128-.661.237-.942.336-.361.127-.672.237-.952.346zm-90.025 14.626s1.196 0 3.389-.098c.673-.03 1.429-.05 2.261-.073h.001c1.883-.052 4.153-.114 6.71-.317 7.376-.39 17.245-1.169 26.715-2.437 9.569-1.267 18.64-3.022 25.219-4.484.463-.107.91-.206 1.343-.302h.003c1.152-.255 2.199-.487 3.14-.77 1.296-.293 2.492-.585 3.389-.878.486-.106.944-.24 1.34-.356.334-.099.625-.184.853-.229.498-.097.798-.195.798-.195l-8.673-5.849s-.897.293-2.592.683a159.9 159.9 0 00-2.981.777l-.003.001-.006.001c-.381.094-.772.187-1.177.283l-.012.003c-.862.205-1.784.425-2.798.689-5.882 1.365-14.056 2.925-22.529 3.997-8.473 1.17-17.245 1.852-23.923 2.145-3.29.195-6.081.292-7.975.292-1.894.098-3.09.098-3.09.098l.598 7.019zm-88.908-10.423c-1.894-.487-2.891-.779-2.891-.779l8.972-5.752s.996.195 2.591.682a42.7 42.7 0 012.093.537l.012.003.278.076.262.071.346.093c.38.093.781.186 1.195.282l.01.003.005.001c.884.205 1.831.425 2.777.689a289.069 289.069 0 0022.229 4.289c8.473 1.268 17.146 2.048 23.725 2.535 2.148.127 4.085.213 5.697.285h.014c.85.038 1.61.071 2.263.105a70.93 70.93 0 003.09.097l-1.196 6.922s-1.196 0-3.389-.098c-1.267-.056-2.834-.145-4.642-.247l-.007-.001c-1.32-.075-2.768-.157-4.322-.239-7.377-.487-17.146-1.462-26.516-2.827-9.37-1.365-18.441-3.217-24.92-4.777-.548-.134-1.083-.267-1.603-.397l-.001-.001-.013-.003h-.001c-.989-.247-1.922-.48-2.768-.671-1.296-.293-2.393-.585-3.29-.878zm-61.315-33.058s.1.098.299.39c.082.081.182.195.299.329.165.19.364.418.598.646l.137.151.187.208.026.029.001.001c.761.845 1.765 1.96 3.138 3.218 2.99 2.925 7.675 6.727 13.357 10.236 5.582 3.51 12.161 6.727 17.445 8.969 1.179.47 2.264.921 3.243 1.329 1.256.523 2.34.975 3.236 1.303 1.595.585 2.592.975 2.592.975l10.566-5.264s-.798-.293-2.293-.878-3.489-1.364-5.781-2.339c-4.685-2.048-10.567-4.875-15.551-8.092-5.084-3.119-9.27-6.531-11.962-9.163-1.213-1.102-2.125-2.131-2.801-2.893l-.289-.324c-.233-.229-.398-.424-.535-.585-.097-.114-.18-.212-.262-.293l-.3-.292-15.35 2.339zm-2.981-39.57c.598-.877.897-1.364.897-1.364l15.451 2.047s-.299.487-.797 1.267c-.09.175-.22.37-.363.585-.175.263-.37.555-.534.877-.097.188-.193.387-.292.592-.21.432-.435.895-.705 1.358-1.396 2.73-2.692 6.532-2.99 10.334-.3 3.802.298 7.603 1.295 10.431.32.94.683 1.76.98 2.432v.001c.164.373.309.7.416.979.498.779.697 1.267.697 1.267l-15.85 1.56s-.298-.585-.797-1.463c-.12-.352-.305-.783-.515-1.274v-.001c-.313-.731-.682-1.594-.98-2.527-1.196-3.217-1.894-7.408-1.495-11.698.299-4.192 1.794-8.481 3.389-11.601.498-.78.897-1.462 1.196-2.144.209-.477.467-.859.705-1.212.103-.152.202-.299.292-.446z" fill="url(#paint12_linear)" fill-opacity=".7"/><ellipse cx="213.68" cy="337.348" rx="112.281" ry="43.859" transform="rotate(180 213.68 337.348)" fill="url(#paint13_linear)"/><defs><linearGradient id="paint0_linear" x1="120.947" y1="99.445" x2="184.901" y2="99.445" gradientUnits="userSpaceOnUse"><stop stop-color="#03D9FE"/><stop offset="1" stop-color="#5A54CE"/></linearGradient><linearGradient id="paint1_linear" x1="148.249" y1="133.567" x2="256.271" y2="196.558" gradientUnits="userSpaceOnUse"><stop stop-color="#00D0CD"/><stop offset="1" stop-color="#515AA5"/></linearGradient><linearGradient id="paint2_linear" x1="145.757" y1="180.096" x2="262.209" y2="180.096" gradientUnits="userSpaceOnUse"><stop stop-color="#F7DA5C"/><stop offset="1" stop-color="#F15DAB"/></linearGradient><linearGradient id="paint3_linear" x1="73.322" y1="190.642" x2="73.322" y2="236.268" gradientUnits="userSpaceOnUse"><stop stop-color="#06EDE1"/><stop offset="1" stop-color="#06EDE1" stop-opacity="0"/></linearGradient><linearGradient id="paint4_linear" x1="157.559" y1="347.586" x2="157.559" y2="379.174" gradientUnits="userSpaceOnUse"><stop stop-color="#06EDE1"/><stop offset="1" stop-color="#06EDE1" stop-opacity="0"/></linearGradient><linearGradient id="paint5_linear" x1="119.495" y1="61.107" x2="119.495" y2="82.165" gradientUnits="userSpaceOnUse"><stop stop-color="#06EDE1"/><stop offset="1" stop-color="#06EDE1" stop-opacity="0"/></linearGradient><linearGradient id="paint6_linear" x1="154.715" y1="327.989" x2="154.715" y2="349.047" gradientUnits="userSpaceOnUse"><stop stop-color="#06EDE1"/><stop offset="1" stop-color="#06EDE1" stop-opacity="0"/></linearGradient><linearGradient id="paint7_linear" x1="12.324" y1="-12.052" x2="12.324" y2="33.574" gradientUnits="userSpaceOnUse"><stop stop-color="#06EDE1"/><stop offset="1" stop-color="#06EDE1" stop-opacity="0"/></linearGradient><linearGradient id="paint8_linear" x1="12.324" y1="-12.052" x2="12.324" y2="33.574" gradientUnits="userSpaceOnUse"><stop stop-color="#06EDE1"/><stop offset="1" stop-color="#06EDE1" stop-opacity="0"/></linearGradient><linearGradient id="paint9_linear" x1="8.532" y1="-8.344" x2="8.532" y2="23.244" gradientUnits="userSpaceOnUse"><stop stop-color="#06EDE1"/><stop offset="1" stop-color="#06EDE1" stop-opacity="0"/></linearGradient><linearGradient id="paint10_linear" x1="5.688" y1="-5.563" x2="5.688" y2="15.496" gradientUnits="userSpaceOnUse"><stop stop-color="#06EDE1"/><stop offset="1" stop-color="#06EDE1" stop-opacity="0"/></linearGradient><linearGradient id="paint11_linear" x1="5.688" y1="-5.563" x2="5.688" y2="15.496" gradientUnits="userSpaceOnUse"><stop stop-color="#06EDE1"/><stop offset="1" stop-color="#06EDE1" stop-opacity="0"/></linearGradient><linearGradient id="paint12_linear" x1="211.5" y1="534.012" x2="219.179" y2="137.224" gradientUnits="userSpaceOnUse"><stop stop-color="#00D0CD"/><stop offset="1" stop-color="#00D0CD" stop-opacity="0"/></linearGradient><linearGradient id="paint13_linear" x1="229.886" y1="250.769" x2="212.549" y2="375.097" gradientUnits="userSpaceOnUse"><stop stop-color="#06EDE1"/><stop offset="1" stop-color="#06EDE1" stop-opacity="0"/></linearGradient></defs></svg>