<svg width="56" height="56" fill="none" xmlns="http://www.w3.org/2000/svg"><path d="M49 35.778c0-5.46-3.132-10.333-7.823-12.704-.146 10.47-8.634 18.957-19.103 19.103C24.444 46.868 29.317 50 34.778 50c2.56 0 5.05-.681 7.236-1.977l6.924 1.915-1.915-6.924A14.171 14.171 0 0049 35.779z" fill="#fff"/><path d="M38.602 22.8C38.602 13.538 31.065 6 21.8 6S5 13.537 5 22.8c0 3.02.804 5.96 2.33 8.54l-2.268 8.2 8.2-2.268a16.749 16.749 0 008.539 2.33c9.264 0 16.8-7.537 16.8-16.801zm-19.38-3.91h-2.577a5.162 5.162 0 015.156-5.156 5.162 5.162 0 015.156 5.157c0 1.443-.61 2.83-1.677 3.805L23.09 24.7v2.01h-2.578v-3.146l3.028-2.771c.54-.495.839-1.171.839-1.903a2.58 2.58 0 00-2.578-2.578 2.58 2.58 0 00-2.578 2.578zm1.29 10.4h2.578v2.577h-2.578V29.29z" fill="#fff"/></svg>