<svg width="216" height="123" fill="none" xmlns="http://www.w3.org/2000/svg"><path d="M119.326 98.824a4.75 4.75 0 01-3.206-3.592l-2.394-11.648-20.411.715-2.51 12.135c-.348 1.703 1.06 3.406 2.684 4.035l8.545 3.291c1.595.616 3.293.859 4.99.716l18.046-1.517a1.12 1.12 0 001.016-.973c.058-.53.435-1.116-.073-1.274l-6.687-1.888z" fill="#99A0AC"/><path d="M119.531 98.123a4.763 4.763 0 01-3.206-3.549l-2.38-11.505-19.917.701-2.51 11.992a3.5 3.5 0 002.205 3.978l8.53 3.248c1.581.601 3.293.844 4.99.701l18.032-1.502a1.121 1.121 0 001.016-.973 1.12 1.12 0 00-.755-1.174l-6.005-1.917z" fill="url(#paint0_linear)"/><path d="M51.596 91.327c-2.219.129-4.018-1.288-4.018-3.163V20.695c0-1.874 1.813-3.32 4.018-3.22l102.824 7.026c1.625.072 2.495-1.23 2.495.372v57.381c0 1.589-1.32 2.962-2.945 3.063l-102.374 6.01z" fill="#99A0AC"/><path d="M52.526 91.326c-2.22.129-4.018-1.288-4.018-3.162v-67.47c0-1.874 1.813-3.32 4.018-3.22l102.374 4.38c1.625.071 2.945 1.416 2.945 3.019v57.38c0 1.59-1.32 2.963-2.945 3.063l-102.374 6.01z" fill="url(#paint1_linear)"/><path d="M154.143 79.106L53.626 83.999c-1.06.058-1.915-.63-1.915-1.53V21.652c0-.901.856-1.603 1.915-1.56l100.502 3.678a1.483 1.483 0 011.422 1.46v52.4c.015.773-.624 1.432-1.407 1.475z" fill="#F4F7FA"/><path opacity=".2" d="M152.267 81.308L51.75 22.295l100.503 3.678c.783.029 1.421.687 1.421 1.46v52.4c.015.774-1.407 1.475-1.407 1.475z" fill="#fff"/><path opacity=".33" d="M78.708 26.503l-22.964-.659v-2.16l22.964.73v2.089z" fill="#52658C"/><path opacity=".36" d="M89.516 26.232l-5.309-.171v-1.474l5.31.172v1.473zm0 2.033l-5.309-.143v-1.474l5.31.143v1.474zm0 2.029l-5.309-.128v-1.474l5.31.143v1.46zm0 2.035l-5.309-.114V30.74l5.31.128v1.46zm0 2.031l-5.309-.1v-1.474l5.31.115v1.46zm0 2.032l-5.309-.086v-1.474l5.31.1v1.46z" fill="#52658C"/><path d="M103.719 36.62l-13.041-.2v-1.474l13.041.23v1.445z" fill="#52658C"/><path opacity=".36" d="M89.516 38.424l-5.309-.058v-1.474l5.31.072v1.46zm0 2.046l-5.309-.057v-1.474l5.31.057v1.474zm0 2.031l-5.309-.042v-1.474l5.31.043V42.5z" fill="#52658C"/><path d="M109.841 38.695l-14.478-.186v-1.46l14.478.215v1.43z" fill="#52658C"/><path opacity=".36" d="M89.516 44.535l-5.309-.028v-1.474l5.31.043v1.46zm0 2.029h-5.309v-1.488l5.31.029v1.46zm0 2.033l-5.309.015v-1.474h5.31v1.46zm0 2.033l-5.309.029v-1.474l5.31-.015v1.46zm0 2.032l-5.309.043V51.23l5.31-.029v1.46zm0 2.046l-5.309.043v-1.474l5.31-.043v1.474zm0 2.032l-5.309.072v-1.489l5.31-.057v1.474zm0 2.032l-5.309.086v-1.474l5.31-.072v1.46zm0 2.032l-5.309.1V59.43l5.31-.086v1.46zm0 2.032l-5.309.114v-1.474l5.31-.1v1.46zm0 2.032l-5.309.128v-1.474l5.31-.114v1.46zm0 2.032l-5.309.157v-1.488l5.31-.13v1.46zm0 2.046l-5.309.157V67.63l5.31-.157v1.474zm0 2.032l-5.309.171v-1.474l5.31-.171v1.474zm0 2.032l-5.309.185v-1.473l5.31-.172v1.46zm0 2.031l-5.309.2v-1.473l5.31-.186v1.46zm0 2.032l-5.309.23v-1.489l5.31-.2v1.46zm0 2.033l-5.309.243v-1.474l5.31-.229v1.46z" fill="#52658C"/><path d="M115.934 28.979l-20.57-.559v-1.46l20.57.602v1.416zm3.381 2.031l-20.368-.486V29.08l20.368.53v1.402zm0 1.948l-20.368-.43v-1.445l20.368.473v1.402zm0 1.96l-20.368-.387v-1.445l20.368.415v1.417zm-1.959 5.824l-18.409-.186V39.11l18.409.215v1.417zm0 1.946l-18.409-.129v-1.445l18.409.172v1.402zm-12.26-15.998l-14.463-.43v-1.459l14.463.458v1.431zm10.838 41.454l-20.57.616v-1.446l20.57-.572v1.402zm3.381 1.846l-20.368.673v-1.445l20.368-.63v1.402zm0 1.945l-20.368.73V71.22l20.368-.687v1.402zm8.772 1.618l-19.845.773v-1.43l19.845-.73v1.387zm0 1.919l-19.845.83v-1.43l19.845-.773v1.373zm0 1.931l-19.845.873v-1.417l19.845-.844v1.388zm-22.991-10.92l-14.463.387v-1.46l14.463-.358v1.431zm10.838-19.889l-20.57-.014v-1.46l20.57.072v1.402zm3.381 1.961l-20.368.028v-1.445l20.368.014v1.403zm0 1.946l-20.368.086v-1.445l20.368-.043v1.402zm0 1.946l-20.368.157V51.16l20.368-.115v1.403zm-15.596 2.118l-13.041.128v-1.46l13.041-.114v1.446zm6.122 1.903l-14.478.186v-1.446l14.478-.157v1.417zm7.515 1.859l-18.409.286v-1.43l18.409-.258v1.402zm0 1.96l-18.409.343v-1.445l18.409-.315v1.417zm4.073 1.863l-18.177.4v-1.445l18.177-.343v1.388zm0 1.944l-18.177.444v-1.431l18.177-.416v1.403zm-16.333-19.503l-14.463-.057v-1.46l14.463.086v1.431z" opacity=".2" fill="#52658C"/><path opacity=".33" d="M78.712 29.78l-13.144-.328v-2.133l13.144.373v2.089zm-16.54-.4l2.466.057v-2.132l-2.466-.071v2.146zm16.54 3.406l-13.144-.272v-2.132l13.144.315v2.089zm-16.54-.329l2.466.042v-2.132l-2.466-.057v2.147zm16.54 3.333l-13.144-.214v-2.132l13.144.258v2.089zm-16.54-.256l2.466.029V33.43l-2.466-.043v2.146zM78.708 57.14l-22.964.315v-2.16l22.964-.244v2.09zm.004 3.277l-13.144.23v-2.133l13.144-.186v2.09zm-16.54.288l2.466-.044V58.53l-2.466.043v2.133zm16.54 2.718l-13.144.286v-2.132l13.144-.243v2.09zm-16.54.356l2.466-.043V61.59l-2.466.057v2.132zm16.54 2.648l-13.144.343v-2.132l13.144-.3v2.089zm-16.54.429l2.466-.057v-2.132l-2.466.057v2.132zm16.536-28.032l-22.964-.271v-2.161l22.964.343v2.09zm.004 3.263l-13.144-.1v-2.118l13.144.129v2.089zm-16.54-.115l2.466.015v-2.132l-2.466-.029v2.146zm16.54 3.135l-13.144-.057v-2.118l13.144.072v2.103zm-16.54-.057h2.466v-2.132l-2.466-.014v2.146zm16.54 6.108l-13.144.058v-2.132l13.144-.03v2.104zm-16.54.072h2.466V49.1h-2.466v2.132zm16.54 2.933l-13.144.114v-2.132l13.144-.071v2.089zm-16.54.145l2.466-.014V52.16l-2.466.015v2.132zm16.54-6.198H65.567v-2.118l13.144.015v2.103zm-16.54.016h2.466v-2.147h-2.466v2.147zm16.536 21.306l-22.964.702v-2.161l22.964-.63v2.09zm.004 3.277l-13.144.458v-2.132l13.144-.415v2.089zm-16.54.573l2.466-.086v-2.132l-2.466.071v2.147zm16.54 2.431l-13.144.515v-2.132l13.144-.472v2.089zm-16.54.647l2.466-.101v-2.132l-2.466.086v2.146zm16.54 2.36l-13.144.572v-2.133l13.144-.53v2.09zm-16.54.713l2.466-.114v-2.132l-2.466.1v2.146z" fill="#52658C"/><path opacity=".6" d="M81.494 78.605l-.508.028V24.486l.508.015v54.104z" fill="#52658C"/><path d="M102.257 64.08s.029 0 .044-.014l.044-.014c.029 0 .072-.014.101-.014.073-.015.145-.015.203-.029.145-.014.276 0 .406.014.261.029.508.115.697.243.029.015.043.03.072.058l.073.057c.043.043.087.086.116.129.043.043.072.1.101.143.029.057.058.1.087.157.116.215.189.458.232.73a.61.61 0 00.711.487.603.603 0 00.494-.702.197.197 0 00-.03-.085v-.015a3.606 3.606 0 00-.522-.987l-.188-.229a2.64 2.64 0 00-.218-.2.95.95 0 00-.247-.172l-.13-.072c-.044-.028-.087-.042-.131-.071a2.392 2.392 0 00-1.117-.215 3.222 3.222 0 00-.536.072c-.087.014-.174.043-.262.071l-.13.043c-.015.014-.044.014-.058.029l-.073.029c-.159.071-.232.243-.159.4.058.129.188.2.319.186l.101-.028zm-7.847-8.2l.044-.07a.108.108 0 00.029-.058.425.425 0 00.057-.114c.044-.086.073-.158.102-.244.058-.157.116-.329.145-.515a2.31 2.31 0 00-.043-1.13c-.015-.043-.03-.1-.044-.143l-.058-.143a2.308 2.308 0 00-.145-.258c-.058-.086-.116-.157-.174-.243-.058-.072-.13-.143-.203-.215a3.53 3.53 0 00-.914-.644h-.015a.61.61 0 00-.826.258c-.16.3-.044.658.26.815l.088.043c.26.086.493.2.696.344a.57.57 0 01.145.114l.13.129c.044.043.073.086.117.143l.043.072a.312.312 0 00.044.071c.101.215.16.458.145.716a1.882 1.882 0 01-.102.6c-.014.03-.014.072-.029.1l-.014.044c0 .014-.015.028-.015.043l-.014.057a.3.3 0 00.203.372.325.325 0 00.348-.143zm6.004 11.705s.029 0 .044.014l.043.014c.029.015.073.015.102.029.072.014.13.043.203.072.131.057.247.114.363.186.232.143.406.314.522.529a.313.313 0 00.043.072l.029.085c.015.058.044.115.058.172a.687.687 0 01.029.172c0 .057.015.114.015.186 0 .243-.029.5-.102.758a.617.617 0 00.421.744c.319.086.653-.1.754-.415.015-.028.015-.057.015-.086v-.014c.044-.358.044-.73-.029-1.116-.015-.1-.044-.186-.073-.286a1.552 1.552 0 00-.101-.272c-.044-.086-.087-.172-.145-.258l-.087-.128c-.029-.043-.058-.072-.087-.115a2.44 2.44 0 00-.914-.672 3.71 3.71 0 00-.522-.172l-.262-.043c-.043 0-.087-.014-.13-.014h-.145a.288.288 0 00-.319.286.31.31 0 00.217.3l.058-.028z" fill="#52658C"/><path d="M96.627 69.589l.029.028.029.043a.299.299 0 01.058.086c.044.057.087.115.116.172.073.114.145.243.189.358.101.243.145.5.116.73 0 .028 0 .057-.015.085l-.014.086c-.015.057-.03.115-.058.172-.015.057-.044.1-.073.157a.957.957 0 01-.101.158c-.146.2-.32.386-.537.558a.603.603 0 00-.102.844c.203.257.595.3.856.1.03-.014.044-.043.073-.057l.014-.014a4.19 4.19 0 00.639-.916c.043-.086.072-.186.115-.272.03-.1.059-.186.073-.286.03-.1.03-.2.044-.3v-.287c-.03-.4-.16-.758-.349-1.073a3.327 3.327 0 00-.319-.43 1.152 1.152 0 00-.188-.186c-.03-.028-.058-.057-.102-.085a.178.178 0 00-.058-.043l-.058-.043a.32.32 0 00-.435.043.32.32 0 00-.015.372h.073z" fill="url(#paint2_linear)"/><path d="M91.71 57.755l.015-.072c0-.029.014-.043.014-.072.015-.042.015-.085.015-.128.014-.086.014-.172.014-.258 0-.172 0-.358-.029-.53a2.413 2.413 0 00-.42-1.044c-.03-.043-.058-.086-.087-.115l-.102-.114a2.488 2.488 0 00-.218-.2c-.072-.072-.159-.115-.246-.172-.087-.043-.174-.1-.261-.143-.348-.172-.725-.258-1.074-.315h-.014a.627.627 0 00-.696.515.62.62 0 00.522.687h.101c.276 0 .537.029.77.086.057.014.115.043.173.057.058.029.116.043.16.072a.521.521 0 01.145.1l.072.057c.03.014.044.043.058.057.174.158.305.387.378.63.043.129.072.258.087.4.014.072.014.144.014.201v.257c.015.172.16.301.32.287a.325.325 0 00.29-.243z" fill="#52658C"/><path d="M89.461 62.033l-.043-.071c-.015-.015-.03-.043-.044-.058-.029-.043-.058-.071-.072-.114a2.379 2.379 0 00-.174-.2 3.212 3.212 0 00-.392-.373c-.29-.228-.638-.4-1.044-.472-.044-.014-.102-.014-.145-.028l-.146-.015h-.304c-.102 0-.203.029-.29.043-.102.029-.189.043-.29.072-.378.114-.711.3-1.001.5l-.015.015a.592.592 0 00-.145.83.61.61 0 00.914.086c.189-.186.406-.344.624-.458.058-.029.116-.043.16-.072.057-.014.115-.043.173-.057a.738.738 0 01.174-.029h.175c.232 0 .478.072.71.2.116.058.232.144.334.23.058.043.102.086.16.143l.072.071.03.043.028.029.044.043a.306.306 0 00.435-.014c.13-.086.145-.23.072-.344z" fill="url(#paint3_linear)"/><path d="M90.217 58.527c-1.958 2.79-3.293 8.128-.246 10.704 2.886 2.447 7.848 1.087 10.415-1.531 3.206-3.291 3.438-9.344.392-11.72-2.35-1.831-5.846-.844-6.165-.744-2.582.759-3.932 2.619-4.396 3.291z" fill="#52658C"/><path d="M94.596 55.236c.319-.1 3.815-1.073 6.165.744 1.741 1.36 2.408 3.921 2.06 6.497-.725-1.13-1.77-2.533-3.235-3.85-1.393-1.259-3.133-2.46-5.295-3.29.102-.043.203-.072.305-.1z" fill="#52658C"/><path d="M98.922 55.537c.203-.272.377-.53.55-.802.175-.272.349-.544.509-.83.159-.286.319-.558.478-.858.145-.286.29-.587.435-.873.262-.601.494-1.216.668-1.86l.029-.115.029-.129c.014-.086.043-.157.058-.243.029-.172.058-.329.072-.5.029-.172.029-.344.044-.516 0-.172 0-.343-.015-.515l-.014-.129c0-.043-.015-.086-.015-.129l-.014-.128c-.015-.043-.015-.086-.029-.13l-.058-.257a.4.4 0 01-.029-.129l-.044-.128a4.391 4.391 0 00-.42-.973 2.257 2.257 0 00-.378-.472 2.512 2.512 0 00-.29-.215 1.105 1.105 0 00-1.19.072 1.519 1.519 0 00-.449.515 2.288 2.288 0 00-.232.558 2.638 2.638 0 00-.102.572c-.014.186-.014.386.015.572.014.1.029.186.043.287l.015.071.014.072c.015.043.03.085.03.128.028.086.057.186.101.287.043.1.087.2.16.314a.38.38 0 00.072.086l.044.043.043.043a.784.784 0 00.305.186.589.589 0 00.217.043c.073 0 .145-.014.218-.029a.756.756 0 00.305-.143c.072-.057.13-.1.174-.143.043-.043.087-.1.13-.143.073-.086.131-.172.174-.257a1.08 1.08 0 00.131-.258c.014-.043.043-.086.058-.129l.029-.071.014-.029.015-.043a.587.587 0 00-.334-.773.601.601 0 00-.783.33c0 .014-.015.028-.015.042v.015l-.014.028-.015.043-.043.086c-.03.057-.058.115-.087.172-.03.057-.058.1-.087.143-.03.043-.044.057-.03.057.015 0 .03-.014.088-.028.029 0 .058-.015.101-.015.03 0 .073.015.102.015.058.014.087.043.102.057v.014a.306.306 0 01-.058-.1c-.03-.057-.044-.114-.073-.172a.197.197 0 01-.03-.1l-.014-.043-.014-.043c-.015-.057-.03-.129-.044-.186-.029-.129-.029-.257-.029-.386s.015-.258.044-.372c.029-.115.072-.23.116-.33.044-.1.116-.171.16-.228.029-.029.043-.029.058-.043.014 0 .029-.014.043-.014.015 0 .044 0 .073.014a.438.438 0 01.101.071c.073.058.16.158.232.272.145.215.276.487.377.773.015.029.029.072.044.1a.272.272 0 01.029.1l.058.2c.014.03.015.072.029.1l.015.101c0 .029.014.072.014.1l.015.115c.029.143.029.286.029.443 0 .143 0 .3-.015.444 0 .157-.029.3-.043.458-.015.071-.03.157-.03.229l-.014.114-.029.115a10.112 10.112 0 01-.537 1.788c-.116.287-.232.587-.362.873-.131.286-.276.573-.421.859-.145.286-.305.558-.464.83-.16.272-.32.544-.494.815a.166.166 0 00.058.244c.117.1.233.086.29 0zm3.406 3.133c.218-.228.45-.443.697-.657.232-.215.478-.415.725-.616.247-.2.493-.4.754-.586.261-.186.523-.372.784-.544a11.63 11.63 0 011.653-.902l.102-.043.102-.043.217-.085c.145-.043.29-.1.435-.143.145-.043.291-.072.436-.1a2.27 2.27 0 01.449-.058l.116-.014h.334l.218.014c.029 0 .072.014.116.014.043 0 .072.015.116.015.304.043.594.1.841.2a.95.95 0 01.319.172.237.237 0 01.087.086c.015.028.029.043.029.057v.043a.227.227 0 01-.029.071.596.596 0 01-.188.2 1.566 1.566 0 01-.305.187 1.58 1.58 0 01-.363.129 3.73 3.73 0 01-.377.057h-.29c-.029 0-.072 0-.101-.015-.073-.014-.131-.014-.189-.028a.314.314 0 01-.116-.043h.014c.015.014.044.029.087.086a.685.685 0 01.044.1.25.25 0 01.014.1c0 .057-.014.072-.014.086 0 .014.014-.014.043-.043l.117-.114c.043-.043.101-.072.159-.115.029-.014.058-.043.087-.057l.044-.029.014-.014.015-.014a.586.586 0 00.217-.816.604.604 0 00-.827-.215c-.014 0-.029.015-.029.029l-.029.029-.029.014-.058.043c-.043.028-.072.057-.116.086-.072.057-.145.114-.217.186a3.38 3.38 0 00-.218.229c-.043.043-.072.085-.116.143a1.167 1.167 0 00-.116.2c-.029.086-.073.186-.073.315 0 .071 0 .143.029.214a.513.513 0 00.087.2c.073.13.175.201.247.258.015.015.044.03.058.043l.058.029c.029.014.073.029.102.043.13.057.246.072.348.086a2.2 2.2 0 00.29.028h.29c.102 0 .203 0 .29-.014.189-.014.392-.057.581-.114a2.7 2.7 0 00.551-.23c.174-.1.348-.2.508-.343.159-.143.304-.315.406-.544a1.076 1.076 0 00.043-.815.823.823 0 00-.217-.344 1.013 1.013 0 00-.276-.229 1.925 1.925 0 00-.551-.257 4.763 4.763 0 00-1.059-.2c-.044 0-.087 0-.131-.015h-.537l-.13.014c-.044 0-.087 0-.131.015l-.13.014c-.174.014-.348.057-.522.1-.16.043-.334.086-.494.143-.159.058-.319.115-.478.186-.073.03-.16.072-.233.1l-.116.058-.116.057c-.609.3-1.16.658-1.697 1.045l-.783.6c-.247.215-.494.416-.74.645-.247.214-.479.443-.711.672-.232.23-.45.458-.682.716-.072.071-.058.186.015.257.072.057.188.057.246-.014z" fill="#52658C"/><path d="M99.6 58.628S88.196 72.45 85.701 70.204c-2.51-2.247-.189-8.843-.189-8.843L99.6 58.628z" fill="#FDA988"/><path d="M99.601 58.628l-1.509 12.678s-3.568 5.137-6.571 3.52c-3.728-2.018 8.08-16.198 8.08-16.198z" fill="#FDA988"/><path d="M99.602 58.627L83.788 63.98c-.29.1-.58-.143-.537-.43.29-2.074 1.915-8.485 11.055-8.213-.015-.014 3.307 1.174 5.294 3.291z" fill="#00D0CD"/><path d="M96.471 74.125l3.119-15.497s1.828 1.53 3.235 3.849c0 0 3.598 6.854-5.76 12.077-.29.172-.652-.086-.594-.43z" fill="#00D0CD"/><path d="M146.442 34.733v-.157c0-.057.014-.114.014-.172.015-.114.044-.229.087-.329.073-.214.189-.4.348-.53.015-.014.044-.028.058-.042l.058-.043a.609.609 0 01.131-.072.433.433 0 01.145-.057c.043-.014.102-.029.145-.043.203-.057.421-.071.653-.057.29.014.522-.2.537-.487a.505.505 0 00-.494-.529h-.101a3.16 3.16 0 00-.929.229 1.588 1.588 0 00-.217.114 1.884 1.884 0 00-.218.144c-.072.042-.13.1-.188.157l-.087.086c-.029.028-.058.071-.087.1a1.963 1.963 0 00-.392.873c-.029.157-.044.3-.044.458 0 .071 0 .143.015.229 0 .043 0 .071.014.114 0 .014 0 .043.015.057l.014.058c.029.143.16.228.305.214a.26.26 0 00.218-.229v-.086zm-8.386 4.851l-.043-.043-.044-.042c-.029-.029-.058-.043-.087-.072a2.186 2.186 0 00-.188-.129 2.215 2.215 0 00-.406-.214c-.291-.13-.61-.2-.958-.172-.043 0-.087 0-.13.014l-.131.014a1.253 1.253 0 00-.247.072 1.142 1.142 0 00-.232.1c-.072.043-.145.072-.217.115a3.041 3.041 0 00-.726.63l-.014.014a.497.497 0 00.058.715.513.513 0 00.725-.057c.015-.014.029-.043.044-.072.116-.2.261-.372.42-.5.044-.043.087-.058.116-.1a.616.616 0 01.131-.072.526.526 0 01.131-.057l.072-.03c.029-.013.044-.013.073-.013.188-.043.42-.043.638.014.116.029.218.072.334.114.058.029.101.058.159.086.029.015.058.029.073.043l.029.029c.014 0 .029.014.029.014l.043.029c.131.071.29.028.348-.1.102-.13.073-.258 0-.33zm10.984-2.676s.014-.014.014-.028l.015-.043a.312.312 0 01.043-.072.506.506 0 01.102-.143c.072-.1.145-.186.217-.257.16-.158.349-.272.537-.33.029 0 .044-.014.073-.014l.072-.014c.044 0 .102-.014.145-.014h.145c.058.014.102.014.16.028.203.043.421.129.624.23a.522.522 0 00.696-.201.507.507 0 00-.203-.687c-.029-.014-.044-.029-.073-.029h-.014c-.29-.1-.609-.171-.943-.186h-.247c-.087.015-.174.015-.246.029-.087.014-.16.043-.247.057l-.116.043a.452.452 0 00-.116.057 1.968 1.968 0 00-.74.63 2.72 2.72 0 00-.232.386c-.029.072-.058.13-.087.2-.014.03-.029.072-.044.1 0 .015-.014.044-.014.058l-.015.057c-.043.143.044.272.175.315a.256.256 0 00.29-.114l.029-.058z" fill="#52658C"/><path d="M149.996 40.385s.014-.014.029-.014l.043-.015.087-.043c.059-.028.117-.043.16-.071a1.55 1.55 0 01.972-.043c.029.014.044.014.073.029l.072.028c.044.029.087.043.131.072a.76.76 0 01.116.086l.116.114c.145.157.261.343.362.544.116.257.436.358.697.243.261-.114.362-.43.246-.687-.014-.028-.029-.043-.043-.071l-.015-.015a2.934 2.934 0 00-.652-.686 1.047 1.047 0 00-.204-.144 1.144 1.144 0 00-.232-.114.755.755 0 00-.232-.086l-.13-.029c-.044-.014-.087-.014-.131-.028a2.214 2.214 0 00-.972.071c-.145.043-.29.115-.421.186-.072.043-.13.072-.188.115-.029.014-.058.043-.087.057-.015.014-.029.029-.044.029l-.058.043c-.116.086-.13.243-.043.357.072.1.203.13.304.072h.044z" fill="url(#paint4_linear)"/><path d="M139.115 42.145l-.058-.028c-.015-.015-.029-.015-.058-.029-.029-.014-.073-.029-.102-.043-.073-.029-.145-.043-.218-.071a1.63 1.63 0 00-.449-.072 2.038 2.038 0 00-.958.143.45.45 0 00-.116.057l-.116.058c-.072.043-.145.086-.203.143-.072.057-.13.114-.189.171a.968.968 0 00-.159.186 2.945 2.945 0 00-.464.83v.015a.51.51 0 00.29.658c.261.1.566-.029.667-.286.015-.029.015-.058.029-.072a2.07 2.07 0 01.218-.615l.087-.129c.029-.043.058-.086.101-.114.029-.043.073-.072.102-.1l.058-.044c.014-.014.043-.028.058-.042a1.21 1.21 0 01.609-.186c.116-.015.232-.015.348 0 .058 0 .116.014.174.028.029 0 .058.014.087.014l.044.015c.015 0 .029.014.029.014l.058.014c.145.03.276-.071.305-.214-.015-.129-.073-.243-.174-.3z" fill="#52658C"/><path d="M142.282 44.807l-.058.015c-.015 0-.044.014-.058.014-.029.014-.073.029-.102.043a1.29 1.29 0 00-.203.1 2.167 2.167 0 00-.377.258 1.836 1.836 0 00-.595.758c-.015.043-.029.072-.044.115l-.043.114c-.015.086-.044.158-.058.243-.015.086-.015.172-.029.244 0 .086 0 .171.014.243.029.329.116.63.232.916v.014a.534.534 0 00.682.286.52.52 0 00.29-.672.311.311 0 00-.043-.072c-.116-.2-.218-.4-.261-.6-.015-.058-.015-.101-.029-.144 0-.043-.015-.1-.015-.143v-.143l.015-.072c0-.028.014-.043.014-.071.044-.186.16-.387.305-.544a1.32 1.32 0 01.261-.229c.044-.029.102-.072.145-.1.029-.015.044-.029.073-.043l.043-.014c.015 0 .029-.015.029-.015l.044-.028c.116-.072.145-.244.072-.358-.072-.114-.188-.157-.304-.114z" fill="url(#paint5_linear)"/><path d="M139.48 43.518c1.973 2.133 6.209 4.25 8.951 2.247 2.611-1.903 2.408-6.21.696-8.815-2.147-3.248-7.195-4.593-9.778-2.561-1.987 1.574-1.827 4.622-1.813 4.894.16 2.275 1.465 3.734 1.944 4.235z" fill="#52658C"/><path d="M137.55 39.313c-.015-.286-.174-3.334 1.813-4.894 1.48-1.173 3.757-1.23 5.846-.457a16.784 16.784 0 00-3.858 1.903 14.177 14.177 0 00-3.787 3.706c0-.086-.014-.172-.014-.258z" fill="#52658C"/><path d="M138.623 35.835a23.898 23.898 0 00-.566-.615c-.188-.2-.392-.386-.595-.572-.203-.186-.406-.373-.623-.559-.218-.171-.436-.357-.653-.515a10.61 10.61 0 00-1.436-.901l-.102-.043-.101-.043c-.073-.029-.131-.057-.204-.086a3.356 3.356 0 00-.406-.157c-.13-.058-.275-.086-.42-.129-.146-.029-.291-.072-.436-.086l-.116-.014c-.043 0-.072-.015-.116-.015l-.116-.014c-.043 0-.072-.014-.116 0h-.464c-.29.029-.595.057-.9.158a1.518 1.518 0 00-.464.214c-.072.058-.159.115-.232.2a1.06 1.06 0 00-.188.301 1.042 1.042 0 00-.058.372c0 .115.043.23.087.33.087.2.203.343.348.471.13.13.275.215.42.3.146.087.305.144.465.201.159.043.319.086.493.1.087.015.159.015.247.015h.232c.087 0 .159-.015.246-.029.087-.014.189-.029.305-.071l.087-.043.043-.029c.015-.014.029-.014.058-.029a.753.753 0 00.218-.214.905.905 0 00.073-.172.857.857 0 00.029-.186.69.69 0 00-.058-.272.95.95 0 00-.087-.172c-.029-.042-.058-.085-.102-.128-.058-.072-.131-.143-.189-.2a1.841 1.841 0 00-.188-.158c-.029-.029-.058-.043-.102-.072l-.043-.028-.029-.014-.029-.015a.516.516 0 00-.711.129.5.5 0 00.13.701c.015 0 .015.014.029.014 0 0 .015 0 .015.015l.014.014.029.029c.03.014.044.028.073.043.044.028.087.071.131.1.043.028.072.071.101.1.029.029.044.057.044.043 0-.014-.015-.029-.015-.072 0-.028 0-.057.015-.086.014-.028.014-.057.029-.085.029-.043.058-.072.072-.072h.015c-.015.014-.058.014-.102.029-.043.014-.101.014-.159.028-.029 0-.058 0-.087.015h-.247c-.116 0-.218-.03-.319-.043a1.325 1.325 0 01-.305-.115 1.166 1.166 0 01-.261-.157.809.809 0 01-.16-.172c-.014-.029-.014-.043-.029-.057v-.043c0-.014.015-.029.029-.057.015-.029.044-.043.073-.072a1 1 0 01.276-.143c.217-.086.464-.129.725-.157.029 0 .058-.015.101-.015.03 0 .073-.014.102-.014l.189-.014h.261l.087.014a3.467 3.467 0 01.754.157c.131.029.247.086.377.13.058.028.116.042.189.07l.087.044.087.043c.479.214.957.486 1.407.772.218.143.45.3.667.473.218.157.436.329.639.5.203.172.42.358.609.53.203.186.392.372.58.558a.16.16 0 00.218 0c.087-.1.087-.2.029-.258zm3.293-2.203c-.145-.23-.29-.458-.421-.687-.13-.23-.261-.473-.377-.716l-.348-.73c-.116-.243-.203-.5-.305-.744a8.377 8.377 0 01-.435-1.53l-.014-.1-.015-.101c-.014-.072-.014-.129-.029-.186-.014-.129-.029-.258-.029-.387-.015-.128 0-.257 0-.386.014-.129.015-.257.029-.372l.015-.086c0-.028.014-.057.014-.086l.015-.085c0-.029.014-.058.014-.086l.058-.172c.015-.029.015-.057.029-.086a.195.195 0 00.029-.086 2.8 2.8 0 01.334-.658 1.03 1.03 0 01.203-.229c.029-.029.072-.043.087-.057.029-.014.043-.014.058-.014.014 0 .029 0 .029.014.014 0 .029.014.058.043.043.043.102.1.145.186.044.086.073.186.102.286.029.1.029.215.029.315 0 .114-.015.215-.029.329-.015.057-.029.1-.029.157l-.015.043-.014.043c-.015.029-.015.057-.029.086-.015.057-.044.1-.059.143-.014.043-.043.086-.058.086.015-.014.044-.029.088-.057.029-.015.058-.015.087-.015.029 0 .058 0 .087.015.043.014.058.028.072.028.015.015-.014-.014-.029-.043-.014-.028-.043-.071-.072-.114-.029-.043-.044-.1-.073-.143-.014-.029-.014-.057-.029-.086l-.014-.043v-.028a.528.528 0 00-.639-.344.518.518 0 00-.348.63c0 .014.015.028.015.028l.014.029.015.029.029.057c.014.043.029.071.043.114.029.072.073.143.116.215.044.071.087.143.145.229a.381.381 0 00.102.114.74.74 0 00.406.243.408.408 0 00.189.015c.058 0 .13-.014.188-.029a.735.735 0 00.261-.157l.044-.043.043-.043c.015-.029.044-.057.058-.072.073-.1.102-.186.145-.271.029-.086.058-.158.087-.244.015-.043.029-.071.029-.114l.015-.057.014-.058.044-.243c.015-.157.029-.329.015-.486a2.86 2.86 0 00-.088-.487 1.633 1.633 0 00-.203-.472 1.344 1.344 0 00-.377-.444 1.503 1.503 0 00-.304-.157.834.834 0 00-.378-.029c-.13.015-.232.058-.333.1-.102.058-.174.115-.247.172a1.334 1.334 0 00-.319.4 3.216 3.216 0 00-.363.83.272.272 0 00-.029.1c-.014.03-.014.072-.029.101l-.058.215c-.014.043-.014.071-.014.114l-.015.115c0 .043-.014.071-.014.114l-.015.115c-.014.143-.014.3-.014.443.014.143.014.286.029.43.014.143.043.286.058.429l.043.214.029.1.029.1c.131.544.334 1.074.552 1.59.116.257.232.5.362.758l.392.73c.145.242.276.472.435.7.145.23.305.458.464.687.044.072.145.086.218.029a.197.197 0 000-.2z" fill="#52658C"/><path d="M141.351 35.863s9.444 11.963 7.079 13.58c-2.365 1.617-7.471-1.531-7.471-1.531l.392-12.049z" fill="#FBB681"/><path d="M141.32 35.993l10.402 3.52s3.684 3.95 1.711 6.053c-2.001 2.103-12.113-9.573-12.113-9.573z" fill="#FBB681"/><path d="M141.351 35.863l1.48 13.966c.029.258-.218.444-.465.358-1.682-.63-6.76-3.191-4.787-10.603-.014-.015 1.61-2.505 3.772-3.721z" fill="#00D0CD"/><path d="M153.783 41.372l-12.447-5.509s1.639-1.202 3.859-1.903c0 0 6.441-1.646 9.052 7.011.101.272-.189.516-.464.401z" fill="#00D0CD"/><path d="M128.343 74.15s-2.109-.206-3.382-.746c-1.256-.54-2.077.239-1.964.763.112.524 2.19 1.27 3.027 1.287.838.031 2.319-1.303 2.319-1.303z" fill="url(#paint6_linear)"/><path d="M165.9 85.177l.257-.762c.419-1.224-.274-2.526-1.546-2.923l-43.532-13.266-1.53 5.1 43.291 13.36c1.272.382 2.641-.286 3.06-1.509z" fill="#33425A"/><path d="M71.3 54.389c3.834-14.917 18.843-23.924 33.676-19.699 15.122 4.29 23.77 20.445 19.18 35.68-4.477 14.853-19.857 22.875-34.206 18.3-14.108-4.51-22.386-19.698-18.65-34.28zm48.492 14.662c3.801-12.74-3.446-26.243-16.073-29.865-12.416-3.574-25.059 3.908-28.312 16.442-3.188 12.295 3.785 25.1 15.686 28.88 12.095 3.829 24.979-2.97 28.699-15.457z" fill="#5D7092"/><path d="M70.334 55.676c3.832-14.917 18.842-23.924 33.675-19.698 15.122 4.289 23.77 20.445 19.18 35.68-4.493 14.852-19.873 22.875-34.222 18.284C74.875 85.43 66.58 70.259 70.334 55.676zm48.491 14.647c3.801-12.74-3.447-26.243-16.073-29.865C90.32 36.883 77.693 44.38 74.44 56.915c-3.189 12.296 3.785 25.1 15.686 28.88 12.095 3.829 24.979-2.986 28.699-15.472z" fill="#33425A"/><path d="M71.784 56.104C75.408 42.03 89.58 33.562 103.575 37.55c14.237 4.05 22.386 19.27 18.07 33.614-4.22 14.043-18.714 21.636-32.258 17.316-13.335-4.258-21.162-18.603-17.603-32.376zm47.042 14.218c3.801-12.74-3.446-26.243-16.072-29.865-12.433-3.575-25.06 3.924-28.313 16.457-3.188 12.296 3.785 25.1 15.686 28.88 12.095 3.83 24.979-2.986 28.699-15.472z" fill="#5D7092"/><defs><linearGradient id="paint0_linear" x1="91.443" y1="93.398" x2="126.297" y2="93.398" gradientUnits="userSpaceOnUse"><stop stop-color="#7D9BBB"/><stop offset=".583" stop-color="#DEEEFF"/><stop offset="1" stop-color="#D8E8FF"/></linearGradient><linearGradient id="paint1_linear" x1="46.655" y1="54.656" x2="160.897" y2="54.656" gradientUnits="userSpaceOnUse"><stop stop-color="#B4CCE7"/><stop offset="1" stop-color="#DBECFF"/></linearGradient><linearGradient id="paint2_linear" x1="96.767" y1="73.231" x2="97.554" y2="68.878" gradientUnits="userSpaceOnUse"><stop stop-color="#311944"/><stop offset="1" stop-color="#893976"/></linearGradient><linearGradient id="paint3_linear" x1="85.292" y1="61.768" x2="89.767" y2="61.513" gradientUnits="userSpaceOnUse"><stop stop-color="#311944"/><stop offset="1" stop-color="#893976"/></linearGradient><linearGradient id="paint4_linear" x1="153.093" y1="40.961" x2="149.605" y2="39.436" gradientUnits="userSpaceOnUse"><stop stop-color="#311944"/><stop offset="1" stop-color="#893976"/></linearGradient><linearGradient id="paint5_linear" x1="141.269" y1="48.164" x2="141.897" y2="44.452" gradientUnits="userSpaceOnUse"><stop stop-color="#311944"/><stop offset="1" stop-color="#893976"/></linearGradient><linearGradient id="paint6_linear" x1="123.56" y1="72.979" x2="127.556" y2="75.433" gradientUnits="userSpaceOnUse"><stop stop-color="#FFC444"/><stop offset=".996" stop-color="#F36F56"/></linearGradient></defs></svg>