<svg width="36" height="36" fill="none" xmlns="http://www.w3.org/2000/svg"><path d="M22.29 9.643v3.867l3.797-1.076 5.718 1.62v7.435a2.762 2.762 0 01-1.471 2.446l-4.247 2.251-3.797-2.014v1.37h-7.323v3.091H25.01v2.652l5.623-2.652h4.512V9.643H22.29z" fill="#00D0CD"/><path d="M26.09 14.56l-3.672 1.04v5.89c0 .267.147.512.384.638l3.288 1.743 3.288-1.743a.722.722 0 00.384-.639V15.6l-3.672-1.04zM.24 4.683v18.815H4.3l5.516 2.6v-2.6h10.427V4.683H.24zm16.182 9.87H13.81v1.954h2.545v3.204H14.31v-1.159H6.174v1.16H4.13v-3.205h2.545v-1.954H4.061v-2.045h2.613v-1.954H4.899L4.098 7.35h2.108l.29 1.159h7.492l.29-1.16h2.107l-.8 3.205h-1.776v1.954h2.613v2.045z" fill="#00D0CD"/><path d="M11.766 10.554H8.72v5.953h3.045v-5.953z" fill="#00D0CD"/></svg>