<svg width="33" height="28" fill="none" xmlns="http://www.w3.org/2000/svg"><path d="M30.17 6.968c-.254 12.076-7.735 20.477-19.079 21.002-4.64.268-7.997-1.317-11.091-3.15 3.347.525 7.734-.782 10.05-2.883-3.357-.257-5.42-2.1-6.45-4.993 1.03.258 2.062 0 2.84 0-3.093-1.05-5.156-2.893-5.419-7.093.779.525 1.81.782 2.841.782C1.547 9.315 0 4.333 1.8 1.182c3.356 3.675 7.471 6.826 14.174 7.35-1.81-7.35 7.997-11.293 11.86-6.3 1.81-.268 3.093-1.05 4.387-1.575-.515 1.843-1.546 2.893-2.83 3.933 1.294-.268 2.578-.525 3.609-1.05-.253 1.338-1.547 2.378-2.83 3.428z" fill="#52658C"/></svg>