<svg width="22" height="23" fill="none" xmlns="http://www.w3.org/2000/svg"><g clip-path="url(#clip0)"><path d="M21.946 4.75a9.343 9.343 0 01-2.567.703 4.43 4.43 0 001.96-2.463 8.902 8.902 0 01-2.825 1.079 4.453 4.453 0 00-7.706 3.046c0 .353.03.693.103 1.016-3.703-.18-6.98-1.956-9.182-4.66a4.485 4.485 0 00-.61 2.252c0 1.543.795 2.91 1.979 3.702a4.4 4.4 0 01-2.013-.549v.05a4.475 4.475 0 003.57 4.376c-.363.1-.758.147-1.169.147a3.92 3.92 0 01-.843-.076c.577 1.764 2.215 3.061 4.163 3.103a8.95 8.95 0 01-5.524 1.9c-.365 0-.716-.016-1.066-.06a12.544 12.544 0 006.834 1.998c8.198 0 12.68-6.79 12.68-12.676 0-.197-.007-.387-.017-.576a8.887 8.887 0 002.233-2.313z" fill="#F4F6F9"/></g><defs><clipPath id="clip0"><path fill="#fff" transform="matrix(-1 0 0 1 21.946 .622)" d="M0 0h21.73v21.73H0z"/></clipPath></defs></svg>